<?xml version="1.0" encoding="UTF-8" standalone="no"?>
<svg
   xmlns:dc="http://purl.org/dc/elements/1.1/"
   xmlns:cc="http://creativecommons.org/ns#"
   xmlns:rdf="http://www.w3.org/1999/02/22-rdf-syntax-ns#"
   xmlns:svg="http://www.w3.org/2000/svg"
   xmlns="http://www.w3.org/2000/svg"
   xmlns:sodipodi="http://sodipodi.sourceforge.net/DTD/sodipodi-0.dtd"
   xmlns:inkscape="http://www.inkscape.org/namespaces/inkscape"
   sodipodi:docname="top-bottom.svg"
   id="svg155"
   version="1.2"
   viewBox="0 0 841.89 595.276"
   height="595.276pt"
   width="841.89pt"
   inkscape:version="1.0.2-2 (e86c870879, 2021-01-15)">
  <metadata
     id="metadata161">
    <rdf:RDF>
      <cc:Work
         rdf:about="">
        <dc:format>image/svg+xml</dc:format>
        <dc:type
           rdf:resource="http://purl.org/dc/dcmitype/StillImage" />
        <dc:title></dc:title>
      </cc:Work>
    </rdf:RDF>
  </metadata>
  <defs
     id="defs159" />
  <sodipodi:namedview
     id="namedview157"
     inkscape:window-height="1057"
     inkscape:window-width="1920"
     inkscape:pageshadow="2"
     inkscape:pageopacity="0"
     guidetolerance="10"
     gridtolerance="10"
     objecttolerance="10"
     borderopacity="1"
     bordercolor="#666666"
     pagecolor="#ffffff"
     inkscape:document-rotation="0"
     showgrid="false"
     inkscape:zoom="0.9870648"
     inkscape:cx="424.90947"
     inkscape:cy="487.94254"
     inkscape:window-x="-8"
     inkscape:window-y="345"
     inkscape:window-maximized="1"
     inkscape:current-layer="svg155" />
  <g
     id="surface1"
     style="stroke-width:0.99974998;stroke-miterlimit:4;stroke-dasharray:none">
    <path
       id="path2"
       d="M 129.171875 114.390625 C 129.171875 102.476562 135.515625 94.933594 145.089844 94.933594 C 149.460938 94.933594 152.789062 97.121094 154.710938 99.40625 L 153.515625 100.707031 C 151.488281 98.367188 148.628906 96.753906 145.089844 96.753906 C 136.453125 96.753906 131.199219 103.570312 131.199219 114.390625 C 131.199219 125.210938 136.453125 132.234375 144.882812 132.234375 C 148.835938 132.234375 151.800781 130.621094 154.660156 127.449219 L 155.855469 128.695312 C 152.996094 132.027344 149.667969 134.054688 144.777344 134.054688 C 135.464844 134.054688 129.171875 126.304688 129.171875 114.390625 "
       style="stroke:none;fill-rule:nonzero;fill:rgb(13%, 9%, 8%);fill-opacity:1;stroke-width:0.99974998;stroke-miterlimit:4;stroke-dasharray:none" />
    <path
       id="path4"
       d="M 190.039062 114.390625 C 190.039062 103.570312 184.679688 96.753906 176.71875 96.753906 C 168.761719 96.753906 163.402344 103.570312 163.402344 114.390625 C 163.402344 125.210938 168.761719 132.234375 176.71875 132.234375 C 184.679688 132.234375 190.039062 125.210938 190.039062 114.390625 M 161.371094 114.390625 C 161.371094 102.476562 167.769531 94.933594 176.71875 94.933594 C 185.667969 94.933594 192.066406 102.476562 192.066406 114.390625 C 192.066406 126.304688 185.667969 134.054688 176.71875 134.054688 C 167.769531 134.054688 161.371094 126.304688 161.371094 114.390625 "
       style="stroke:none;fill-rule:nonzero;fill:rgb(13%, 9%, 8%);fill-opacity:1;stroke-width:0.99974998;stroke-miterlimit:4;stroke-dasharray:none" />
    <path
       id="path6"
       d="M 210.796875 113.921875 C 217.714844 113.921875 221.566406 111.164062 221.566406 105.339844 C 221.566406 99.460938 217.714844 97.328125 210.796875 97.328125 L 202.941406 97.328125 L 202.941406 113.921875 Z M 221.980469 133.378906 L 211.316406 115.585938 L 202.941406 115.585938 L 202.941406 133.378906 L 201.015625 133.378906 L 201.015625 95.609375 L 211.472656 95.609375 C 218.910156 95.609375 223.644531 98.367188 223.644531 105.339844 C 223.644531 111.425781 219.796875 114.859375 213.550781 115.480469 L 224.21875 133.378906 Z M 221.980469 133.378906 "
       style="stroke:none;fill-rule:nonzero;fill:rgb(13%, 9%, 8%);fill-opacity:1;stroke-width:0.99974998;stroke-miterlimit:4;stroke-dasharray:none" />
    <path
       id="path8"
       d="M 231.65625 95.609375 L 233.6875 95.609375 L 250.332031 123.128906 L 254.652344 130.570312 L 254.910156 130.570312 C 254.703125 126.925781 254.597656 123.441406 254.597656 119.90625 L 254.597656 95.609375 L 256.472656 95.609375 L 256.472656 133.378906 L 254.390625 133.378906 L 237.796875 105.859375 L 233.476562 98.417969 L 233.269531 98.417969 C 233.375 101.957031 233.476562 105.183594 233.476562 108.773438 L 233.476562 133.378906 L 231.65625 133.378906 Z M 231.65625 95.609375 "
       style="stroke:none;fill-rule:nonzero;fill:rgb(13%, 9%, 8%);fill-opacity:1;stroke-width:0.99974998;stroke-miterlimit:4;stroke-dasharray:none" />
    <path
       id="path10"
       d="M 267.867188 95.609375 L 288.15625 95.609375 L 288.15625 97.328125 L 269.792969 97.328125 L 269.792969 112.363281 L 285.191406 112.363281 L 285.191406 114.078125 L 269.792969 114.078125 L 269.792969 131.660156 L 288.726562 131.660156 L 288.726562 133.378906 L 267.867188 133.378906 Z M 267.867188 95.609375 "
       style="stroke:none;fill-rule:nonzero;fill:rgb(13%, 9%, 8%);fill-opacity:1;stroke-width:0.99974998;stroke-miterlimit:4;stroke-dasharray:none" />
    <path
       id="path12"
       d="M 593.554688 392.867188 C 593.554688 380.953125 599.902344 373.410156 609.472656 373.410156 C 613.84375 373.410156 617.175781 375.59375 619.097656 377.882812 L 617.902344 379.183594 C 615.871094 376.84375 613.011719 375.230469 609.472656 375.230469 C 600.839844 375.230469 595.585938 382.046875 595.585938 392.867188 C 595.585938 403.6875 600.839844 410.710938 609.265625 410.710938 C 613.21875 410.710938 616.1875 409.097656 619.046875 405.925781 L 620.242188 407.171875 C 617.382812 410.5 614.050781 412.53125 609.164062 412.53125 C 599.851562 412.53125 593.554688 404.78125 593.554688 392.867188 "
       style="stroke:none;fill-rule:nonzero;fill:rgb(13%, 9%, 8%);fill-opacity:1;stroke-width:0.99974998;stroke-miterlimit:4;stroke-dasharray:none" />
    <path
       id="path14"
       d="M 654.421875 392.867188 C 654.421875 382.046875 649.066406 375.230469 641.105469 375.230469 C 633.144531 375.230469 627.789062 382.046875 627.789062 392.867188 C 627.789062 403.6875 633.144531 410.710938 641.105469 410.710938 C 649.066406 410.710938 654.421875 403.6875 654.421875 392.867188 M 625.757812 392.867188 C 625.757812 380.953125 632.15625 373.410156 641.105469 373.410156 C 650.054688 373.410156 656.453125 380.953125 656.453125 392.867188 C 656.453125 404.78125 650.054688 412.53125 641.105469 412.53125 C 632.15625 412.53125 625.757812 404.78125 625.757812 392.867188 "
       style="stroke:none;fill-rule:nonzero;fill:rgb(13%, 9%, 8%);fill-opacity:1;stroke-width:0.99974998;stroke-miterlimit:4;stroke-dasharray:none" />
    <path
       id="path16"
       d="M 675.179688 392.398438 C 682.101562 392.398438 685.949219 389.640625 685.949219 383.816406 C 685.949219 377.9375 682.101562 375.804688 675.179688 375.804688 L 667.328125 375.804688 L 667.328125 392.398438 Z M 686.367188 411.855469 L 675.703125 394.0625 L 667.328125 394.0625 L 667.328125 411.855469 L 665.402344 411.855469 L 665.402344 374.085938 L 675.859375 374.085938 C 683.296875 374.085938 688.03125 376.84375 688.03125 383.816406 C 688.03125 389.902344 684.179688 393.335938 677.9375 393.960938 L 688.601562 411.855469 Z M 686.367188 411.855469 "
       style="stroke:none;fill-rule:nonzero;fill:rgb(13%, 9%, 8%);fill-opacity:1;stroke-width:0.99974998;stroke-miterlimit:4;stroke-dasharray:none" />
    <path
       id="path18"
       d="M 696.042969 374.085938 L 698.070312 374.085938 L 714.71875 401.605469 L 719.039062 409.046875 L 719.296875 409.046875 C 719.089844 405.402344 718.984375 401.917969 718.984375 398.378906 L 718.984375 374.085938 L 720.859375 374.085938 L 720.859375 411.855469 L 718.777344 411.855469 L 702.183594 384.335938 L 697.863281 376.894531 L 697.65625 376.894531 C 697.761719 380.433594 697.863281 383.660156 697.863281 387.246094 L 697.863281 411.855469 L 696.042969 411.855469 Z M 696.042969 374.085938 "
       style="stroke:none;fill-rule:nonzero;fill:rgb(13%, 9%, 8%);fill-opacity:1;stroke-width:0.99974998;stroke-miterlimit:4;stroke-dasharray:none" />
    <path
       id="path20"
       d="M 732.253906 374.085938 L 752.542969 374.085938 L 752.542969 375.804688 L 734.175781 375.804688 L 734.175781 390.835938 L 749.578125 390.835938 L 749.578125 392.554688 L 734.175781 392.554688 L 734.175781 410.136719 L 753.113281 410.136719 L 753.113281 411.855469 L 732.253906 411.855469 Z M 732.253906 374.085938 "
       style="stroke:none;fill-rule:nonzero;fill:rgb(13%, 9%, 8%);fill-opacity:1;stroke-width:0.99974998;stroke-miterlimit:4;stroke-dasharray:none" />
    <path
       id="path22"
       transform="matrix(1,0,0,-1,172.0699,193.9849)"
       d="M 0.0004125 0.000525 C 0.375413 0.000525 0.738694 -0.147912 1.000413 -0.413537 C 0.9926 -0.401819 30.89885 -41.3901 30.89885 -41.3901 C 31.1801 -41.628381 31.527756 -41.776819 31.891038 -41.811975 L 136.191819 -57.315881 C 136.457444 -57.362756 136.723069 -57.433069 136.984788 -57.522912 L 178.793381 -81.585412 C 179.910569 -82.374475 181.453538 -82.10885 182.238694 -80.995569 C 182.254319 -80.976037 182.269944 -80.956506 182.281663 -80.933069 L 219.8051 -15.624475 C 221.008225 -13.655725 221.707444 -11.417444 221.828538 -9.112756 L 221.828538 158.020056 C 221.828538 158.801306 221.195725 159.438025 220.410569 159.438025 L 164.422288 159.438025 C 163.668381 159.551306 163.082444 160.160681 163.004319 160.9224 L 163.004319 164.4224 C 163.004319 165.20365 162.3676 165.840369 161.58635 165.840369 L 110.559006 165.840369 C 109.777756 165.840369 109.141038 166.473181 109.141038 167.254431 L 109.141038 171.508338 C 109.141038 172.289588 108.508225 172.926306 107.723069 172.926306 L 56.695725 172.926306 C 55.914475 172.926306 55.281663 173.559119 55.281663 174.344275 L 55.281663 177.887244 C 55.281663 178.668494 54.644944 179.305213 53.863694 179.305213 L 5.668381 179.305213 C 4.887131 179.305213 4.250413 178.668494 4.250413 177.887244 L 4.250413 174.344275 C 4.250413 173.559119 3.6176 172.926306 2.83635 172.926306 L -48.190994 172.926306 C -48.97615 172.926306 -49.608962 172.289588 -49.608962 171.508338 L -49.608962 160.879431 C -49.608962 160.094275 -50.245681 159.461463 -51.026931 159.461463 L -103.472244 159.461463 C -104.2574 159.461463 -104.890212 158.824744 -104.890212 158.043494 L -104.890212 1.418494 C -104.890212 0.633338 -104.2574 0.000525 -103.472244 0.000525 Z M 0.0004125 0.000525 "
       style="fill:none;stroke-width:0.99974998;stroke-linecap:round;stroke-linejoin:round;stroke:rgb(100%, 0%, 0%);stroke-opacity:1;stroke-miterlimit:4;stroke-dasharray:none" />
    <path
       id="path24"
       transform="matrix(1,0,0,-1,186.6505,189.7202)"
       d="M 0.00184375 0.00145 C 0.00184375 1.7202 1.396375 3.118638 3.119031 3.118638 C 4.841688 3.118638 6.236219 1.7202 6.236219 0.00145 C 6.236219 -1.721206 4.841688 -3.119644 3.119031 -3.119644 C 1.396375 -3.119644 0.00184375 -1.721206 0.00184375 0.00145 Z M 0.00184375 0.00145 "
       style="fill:none;stroke-width:0.99974998;stroke-linecap:round;stroke-linejoin:round;stroke:rgb(100%, 0%, 0%);stroke-opacity:1;stroke-miterlimit:4;stroke-dasharray:none" />
    <path
       id="path26"
       transform="matrix(1,0,0,-1,279.5655,77.0513)"
       d="M 0.00090625 0.00051875 C 0.00090625 1.723175 1.395438 3.117706 3.118094 3.117706 C 4.84075 3.117706 6.235281 1.723175 6.235281 0.00051875 C 6.235281 -1.722138 4.84075 -3.116669 3.118094 -3.116669 C 1.395438 -3.116669 0.00090625 -1.722138 0.00090625 0.00051875 Z M 0.00090625 0.00051875 "
       style="fill:none;stroke-width:0.99974998;stroke-linecap:round;stroke-linejoin:round;stroke:rgb(100%, 0%, 0%);stroke-opacity:1;stroke-miterlimit:4;stroke-dasharray:none" />
    <path
       id="path28"
       transform="matrix(1,0,0,-1,117.9542,87.3189)"
       d="M -0.001075 -0.0014125 C -0.001075 1.721244 1.397362 3.119681 3.116112 3.119681 C 4.838769 3.119681 6.237206 1.721244 6.237206 -0.0014125 C 6.237206 -1.724069 4.838769 -3.1186 3.116112 -3.1186 C 1.397362 -3.1186 -0.001075 -1.724069 -0.001075 -0.0014125 Z M -0.001075 -0.0014125 "
       style="fill:none;stroke-width:0.99974998;stroke-linecap:round;stroke-linejoin:round;stroke:rgb(100%, 0%, 0%);stroke-opacity:1;stroke-miterlimit:4;stroke-dasharray:none" />
    <path
       id="path30"
       transform="matrix(1,0,0,-1,117.9293,141.2202)"
       d="M 0.0003875 0.00145 C 0.0003875 1.724106 1.394919 3.118638 3.117575 3.118638 C 4.840231 3.118638 6.234763 1.724106 6.234763 0.00145 C 6.234763 -1.721206 4.840231 -3.119644 3.117575 -3.119644 C 1.394919 -3.119644 0.0003875 -1.721206 0.0003875 0.00145 Z M 0.0003875 0.00145 "
       style="fill:none;stroke-width:0.99974998;stroke-linecap:round;stroke-linejoin:round;stroke:rgb(100%, 0%, 0%);stroke-opacity:1;stroke-miterlimit:4;stroke-dasharray:none" />
    <path
       id="path32"
       transform="matrix(1,0,0,-1,318.5181,211.7017)"
       d="M 0.00143125 -0.001425 C 0.00143125 1.721231 1.395963 3.119669 3.118619 3.119669 C 4.841275 3.119669 6.235806 1.721231 6.235806 -0.001425 C 6.235806 -1.720175 4.841275 -3.118612 3.118619 -3.118612 C 1.395963 -3.118612 0.00143125 -1.720175 0.00143125 -0.001425 Z M 0.00143125 -0.001425 "
       style="fill:none;stroke-width:0.99974998;stroke-linecap:round;stroke-linejoin:round;stroke:rgb(100%, 0%, 0%);stroke-opacity:1;stroke-miterlimit:4;stroke-dasharray:none" />
    <path
       id="path34"
       transform="matrix(1,0,0,-1,493.5338,200.9849)"
       d="M 0.00135625 0.000525 C -0.7838 0.000525 -1.416612 0.633338 -1.416612 1.418494 L -1.416612 158.043494 C -1.416612 158.824744 -0.7838 159.461463 0.00135625 159.461463 L 52.458388 159.461463 C 53.243544 159.461463 53.876356 160.094275 53.876356 160.879431 L 53.876356 171.508338 C 53.876356 172.289588 54.513075 172.926306 55.294325 172.926306 L 106.321669 172.926306 C 107.102919 172.926306 107.739638 173.559119 107.739638 174.344275 L 107.739638 177.887244 C 107.739638 178.668494 108.37245 179.305213 109.157606 179.305213 L 157.349013 179.305213 C 158.130263 179.305213 158.766981 178.668494 158.766981 177.887244 L 158.766981 174.344275 C 158.766981 173.559119 159.399794 172.926306 160.18495 172.926306 L 211.212294 172.926306 C 211.993544 172.926306 212.630263 172.289588 212.630263 171.508338 L 212.630263 167.254431 C 212.630263 166.473181 213.263075 165.840369 214.044325 165.840369 L 265.071669 165.840369 C 265.856825 165.840369 266.489638 165.20365 266.489638 164.4224 L 266.489638 23.289588 C 266.720106 22.20365 267.298231 21.219275 268.130263 20.4849 L 322.204481 -10.804162 C 323.700575 -11.925256 324.161513 -13.968225 323.290419 -15.624475 L 285.766981 -80.933069 C 285.755263 -80.956506 285.739638 -80.976037 285.727919 -80.995569 C 284.938856 -82.10885 283.395888 -82.374475 282.282606 -81.585412 L 240.470106 -57.522912 C 240.212294 -57.433069 239.946669 -57.362756 239.677138 -57.315881 L 135.380263 -41.811975 C 135.013075 -41.776819 134.665419 -41.628381 134.388075 -41.3901 C 134.388075 -41.3901 104.477919 -0.401819 104.489638 -0.413537 C 104.224013 -0.147912 103.864638 0.000525 103.485731 0.000525 Z M 0.00135625 0.000525 "
       style="fill:none;stroke-width:0.99974998;stroke-linecap:butt;stroke-linejoin:miter;stroke:rgb(100%, 0%, 0%);stroke-opacity:1;stroke-miterlimit:4;stroke-dasharray:none" />
    <path
       id="path36"
       transform="matrix(1,0,0,-1,704.5162,84.0474)"
       d="M -0.000575 0.000525 C -0.000575 1.723181 1.397863 3.117713 3.116613 3.117713 C 4.839269 3.117713 6.237706 1.723181 6.237706 0.000525 C 6.237706 -1.722131 4.839269 -3.116662 3.116613 -3.116662 C 1.397863 -3.116662 -0.000575 -1.722131 -0.000575 0.000525 Z M -0.000575 0.000525 "
       style="fill:none;stroke-width:0.99974998;stroke-linecap:round;stroke-linejoin:round;stroke:rgb(100%, 0%, 0%);stroke-opacity:1;stroke-miterlimit:4;stroke-dasharray:none" />
    <path
       id="path38"
       transform="matrix(1,0,0,-1,542.9048,94.315)"
       d="M 0.00145 -0.00140625 C 0.00145 1.72125 1.395981 3.119688 3.118637 3.119688 C 4.841294 3.119688 6.235825 1.72125 6.235825 -0.00140625 C 6.235825 -1.724062 4.841294 -3.118594 3.118637 -3.118594 C 1.395981 -3.118594 0.00145 -1.724062 0.00145 -0.00140625 Z M 0.00145 -0.00140625 "
       style="fill:none;stroke-width:0.99974998;stroke-linecap:round;stroke-linejoin:round;stroke:rgb(100%, 0%, 0%);stroke-opacity:1;stroke-miterlimit:4;stroke-dasharray:none" />
    <path
       id="path40"
       transform="matrix(1,0,0,-1,542.8799,148.2163)"
       d="M -0.00099375 0.00145625 C -0.00099375 1.720206 1.397444 3.118644 3.116194 3.118644 C 4.83885 3.118644 6.237287 1.720206 6.237287 0.00145625 C 6.237287 -1.7212 4.83885 -3.119637 3.116194 -3.119637 C 1.397444 -3.119637 -0.00099375 -1.7212 -0.00099375 0.00145625 Z M -0.00099375 0.00145625 "
       style="fill:none;stroke-width:0.99974998;stroke-linecap:round;stroke-linejoin:round;stroke:rgb(100%, 0%, 0%);stroke-opacity:1;stroke-miterlimit:4;stroke-dasharray:none" />
    <path
       id="path42"
       transform="matrix(1,0,0,-1,743.4693,218.6978)"
       d="M -0.00055 -0.00141875 C -0.00055 1.721238 1.397888 3.119675 3.116638 3.119675 C 4.839294 3.119675 6.237731 1.721238 6.237731 -0.00141875 C 6.237731 -1.724075 4.839294 -3.118606 3.116638 -3.118606 C 1.397888 -3.118606 -0.00055 -1.724075 -0.00055 -0.00141875 Z M -0.00055 -0.00141875 "
       style="fill:none;stroke-width:0.99974998;stroke-linecap:round;stroke-linejoin:round;stroke:rgb(100%, 0%, 0%);stroke-opacity:1;stroke-miterlimit:4;stroke-dasharray:none" />
    <path
       id="path44"
       transform="matrix(1,0,0,-1,611.6011,196.7163)"
       d="M 0.0004625 0.00145625 C 0.0004625 1.720206 1.394994 3.118644 3.11765 3.118644 C 4.840306 3.118644 6.238744 1.720206 6.238744 0.00145625 C 6.238744 -1.7212 4.840306 -3.119637 3.11765 -3.119637 C 1.394994 -3.119637 0.0004625 -1.7212 0.0004625 0.00145625 Z M 0.0004625 0.00145625 "
       style="fill:none;stroke-width:0.99974998;stroke-linecap:round;stroke-linejoin:round;stroke:rgb(100%, 0%, 0%);stroke-opacity:1;stroke-miterlimit:4;stroke-dasharray:none" />
    <path
       id="path46"
       transform="matrix(1,0,0,-1,0,595.276)"
       d="M 499.417969 508.279906 L 538.679688 508.279906 L 538.679688 547.541625 L 499.417969 547.541625 Z M 499.417969 508.279906 "
       style="fill:none;stroke-width:0.99974998;stroke-linecap:round;stroke-linejoin:round;stroke:rgb(100%, 0%, 0%);stroke-opacity:1;stroke-miterlimit:4;stroke-dasharray:none" />
    <path
       id="path48"
       transform="matrix(1,0,0,-1,0,595.276)"
       d="M 499.417969 454.416625 L 538.679688 454.416625 L 538.679688 493.68225 L 499.417969 493.68225 Z M 499.417969 454.416625 "
       style="fill:none;stroke-width:0.99974998;stroke-linecap:round;stroke-linejoin:round;stroke:rgb(100%, 0%, 0%);stroke-opacity:1;stroke-miterlimit:4;stroke-dasharray:none" />
    <path
       id="path50"
       transform="matrix(1,0,0,-1,0,595.276)"
       d="M 499.417969 400.55725 L 538.679688 400.55725 L 538.679688 439.818969 L 499.417969 439.818969 Z M 499.417969 400.55725 "
       style="fill:none;stroke-width:0.99974998;stroke-linecap:round;stroke-linejoin:round;stroke:rgb(100%, 0%, 0%);stroke-opacity:1;stroke-miterlimit:4;stroke-dasharray:none" />
    <path
       id="path52"
       transform="matrix(1,0,0,-1,0,595.276)"
       d="M 553.277344 521.74475 L 592.542969 521.74475 L 592.542969 561.006469 L 553.277344 561.006469 Z M 553.277344 521.74475 "
       style="fill:none;stroke-width:0.99974998;stroke-linecap:round;stroke-linejoin:round;stroke:rgb(100%, 0%, 0%);stroke-opacity:1;stroke-miterlimit:4;stroke-dasharray:none" />
    <path
       id="path54"
       transform="matrix(1,0,0,-1,0,595.276)"
       d="M 553.277344 467.881469 L 592.542969 467.881469 L 592.542969 507.147094 L 553.277344 507.147094 Z M 553.277344 467.881469 "
       style="fill:none;stroke-width:0.99974998;stroke-linecap:round;stroke-linejoin:round;stroke:rgb(100%, 0%, 0%);stroke-opacity:1;stroke-miterlimit:4;stroke-dasharray:none" />
    <path
       id="path56"
       transform="matrix(1,0,0,-1,0,595.276)"
       d="M 553.277344 414.022094 L 592.542969 414.022094 L 592.542969 453.283813 L 553.277344 453.283813 Z M 553.277344 414.022094 "
       style="fill:none;stroke-width:0.99974998;stroke-linecap:round;stroke-linejoin:round;stroke:rgb(100%, 0%, 0%);stroke-opacity:1;stroke-miterlimit:4;stroke-dasharray:none" />
    <path
       id="path58"
       transform="matrix(1,0,0,-1,0,595.276)"
       d="M 607.140625 528.479125 L 646.402344 528.479125 L 646.402344 567.740844 L 607.140625 567.740844 Z M 607.140625 528.479125 "
       style="fill:none;stroke-width:0.99974998;stroke-linecap:round;stroke-linejoin:round;stroke:rgb(100%, 0%, 0%);stroke-opacity:1;stroke-miterlimit:4;stroke-dasharray:none" />
    <path
       id="path60"
       transform="matrix(1,0,0,-1,0,595.276)"
       d="M 607.140625 474.615844 L 646.402344 474.615844 L 646.402344 513.877563 L 607.140625 513.877563 Z M 607.140625 474.615844 "
       style="fill:none;stroke-width:0.99974998;stroke-linecap:round;stroke-linejoin:round;stroke:rgb(100%, 0%, 0%);stroke-opacity:1;stroke-miterlimit:4;stroke-dasharray:none" />
    <path
       id="path62"
       transform="matrix(1,0,0,-1,0,595.276)"
       d="M 607.140625 420.752563 L 646.402344 420.752563 L 646.402344 460.018188 L 607.140625 460.018188 Z M 607.140625 420.752563 "
       style="fill:none;stroke-width:0.99974998;stroke-linecap:round;stroke-linejoin:round;stroke:rgb(100%, 0%, 0%);stroke-opacity:1;stroke-miterlimit:4;stroke-dasharray:none" />
    <path
       id="path64"
       transform="matrix(1,0,0,-1,0,595.276)"
       d="M 661.003906 521.74475 L 700.265625 521.74475 L 700.265625 561.006469 L 661.003906 561.006469 Z M 661.003906 521.74475 "
       style="fill:none;stroke-width:0.99974998;stroke-linecap:round;stroke-linejoin:round;stroke:rgb(100%, 0%, 0%);stroke-opacity:1;stroke-miterlimit:4;stroke-dasharray:none" />
    <path
       id="path66"
       transform="matrix(1,0,0,-1,0,595.276)"
       d="M 661.003906 467.881469 L 700.265625 467.881469 L 700.265625 507.147094 L 661.003906 507.147094 Z M 661.003906 467.881469 "
       style="fill:none;stroke-width:0.99974998;stroke-linecap:round;stroke-linejoin:round;stroke:rgb(100%, 0%, 0%);stroke-opacity:1;stroke-miterlimit:4;stroke-dasharray:none" />
    <path
       id="path68"
       transform="matrix(1,0,0,-1,0,595.276)"
       d="M 661.003906 414.022094 L 700.265625 414.022094 L 700.265625 453.283813 L 661.003906 453.283813 Z M 661.003906 414.022094 "
       style="fill:none;stroke-width:0.99974998;stroke-linecap:round;stroke-linejoin:round;stroke:rgb(100%, 0%, 0%);stroke-opacity:1;stroke-miterlimit:4;stroke-dasharray:none" />
    <path
       id="path70"
       transform="matrix(1,0,0,-1,0,595.276)"
       d="M 714.863281 515.014281 L 754.128906 515.014281 L 754.128906 554.276 L 714.863281 554.276 Z M 714.863281 515.014281 "
       style="fill:none;stroke-width:0.99974998;stroke-linecap:round;stroke-linejoin:round;stroke:rgb(100%, 0%, 0%);stroke-opacity:1;stroke-miterlimit:4;stroke-dasharray:none" />
    <path
       id="path72"
       transform="matrix(1,0,0,-1,0,595.276)"
       d="M 714.863281 461.151 L 754.128906 461.151 L 754.128906 500.412719 L 714.863281 500.412719 Z M 714.863281 461.151 "
       style="fill:none;stroke-width:0.99974998;stroke-linecap:round;stroke-linejoin:round;stroke:rgb(100%, 0%, 0%);stroke-opacity:1;stroke-miterlimit:4;stroke-dasharray:none" />
    <path
       id="path74"
       transform="matrix(1,0,0,-1,0,595.276)"
       d="M 714.863281 407.287719 L 754.128906 407.287719 L 754.128906 446.549438 L 714.863281 446.549438 Z M 714.863281 407.287719 "
       style="fill:none;stroke-width:0.99974998;stroke-linecap:round;stroke-linejoin:round;stroke:rgb(100%, 0%, 0%);stroke-opacity:1;stroke-miterlimit:4;stroke-dasharray:none" />
    <path
       id="path76"
       transform="matrix(1,0,0,-1,0,595.276)"
       d="M 634.070312 358.389281 L 673.335938 358.389281 L 673.335938 397.651 L 634.070312 397.651 Z M 634.070312 358.389281 "
       style="fill:none;stroke-width:0.99974998;stroke-linecap:round;stroke-linejoin:round;stroke:rgb(100%, 0%, 0%);stroke-opacity:1;stroke-miterlimit:4;stroke-dasharray:none" />
    <path
       id="path78"
       transform="matrix(1,0,0,-1,699.3511,201.0259)"
       d="M 0.0004625 -0.00144375 L -10.124537 -37.935037 L 27.812963 -48.060037 L 37.934056 -10.122537 Z M 0.0004625 -0.00144375 "
       style="fill:none;stroke-width:0.99974998;stroke-linecap:round;stroke-linejoin:round;stroke:rgb(100%, 0%, 0%);stroke-opacity:1;stroke-miterlimit:4;stroke-dasharray:none" />
    <path
       id="path80"
       transform="matrix(1,0,0,-1,769.1197,208.854)"
       d="M 0.00139375 -0.00146875 L -19.607981 -34.017094 L 14.407644 -53.622562 L 34.017019 -19.606937 Z M 0.00139375 -0.00146875 "
       style="fill:none;stroke-width:0.99974998;stroke-linecap:round;stroke-linejoin:round;stroke:rgb(100%, 0%, 0%);stroke-opacity:1;stroke-miterlimit:4;stroke-dasharray:none" />
    <path
       id="path82"
       transform="matrix(1,0,0,-1,769.1988,37.3569)"
       d="M 0.00041875 0.00143125 L 0.00041875 -134.240756 C 0.168387 -135.721225 0.83245 -136.4556 1.812919 -137.307162 L 55.215262 -168.0806 C 56.3637 -168.561069 57.684012 -168.022006 58.164481 -166.877475 C 58.234794 -166.7056 58.285575 -166.529819 58.312919 -166.350131 L 58.312919 -0.0298187 C 58.312919 0.751431 57.6762 1.38815 56.89495 1.38815 L 1.418387 1.4194 C 0.633231 1.4194 0.00041875 0.782681 0.00041875 0.00143125 "
       style="fill:none;stroke-width:0.99974998;stroke-linecap:round;stroke-linejoin:round;stroke:rgb(100%, 0%, 0%);stroke-opacity:1;stroke-miterlimit:4;stroke-dasharray:none" />
    <path
       id="path84"
       transform="matrix(1,0,0,-1,776.2213,170.5103)"
       d="M 0.00135625 -0.00141875 C 0.00135625 1.721238 1.395887 3.119675 3.118544 3.119675 C 4.8412 3.119675 6.235731 1.721238 6.235731 -0.00141875 C 6.235731 -1.720169 4.8412 -3.118606 3.118544 -3.118606 C 1.395887 -3.118606 0.00135625 -1.720169 0.00135625 -0.00141875 Z M 0.00135625 -0.00141875 "
       style="fill:none;stroke-width:0.99974998;stroke-linecap:round;stroke-linejoin:round;stroke:rgb(100%, 0%, 0%);stroke-opacity:1;stroke-miterlimit:4;stroke-dasharray:none" />
    <path
       id="path86"
       transform="matrix(1,0,0,-1,817.3257,194.606)"
       d="M -0.00148125 0.00053125 C -0.00148125 1.723188 1.396956 3.117719 3.119613 3.117719 C 4.842269 3.117719 6.2368 1.723188 6.2368 0.00053125 C 6.2368 -1.722125 4.842269 -3.116656 3.119613 -3.116656 C 1.396956 -3.116656 -0.00148125 -1.722125 -0.00148125 0.00053125 Z M -0.00148125 0.00053125 "
       style="fill:none;stroke-width:0.99974998;stroke-linecap:round;stroke-linejoin:round;stroke:rgb(100%, 0%, 0%);stroke-opacity:1;stroke-miterlimit:4;stroke-dasharray:none" />
    <path
       id="path88"
       transform="matrix(1,0,0,-1,708.1295,472.4605)"
       d="M -0.00059375 -0.0004375 C -0.375594 -0.0004375 -0.738875 -0.148875 -1.0045 -0.4145 C -0.992781 -0.402781 -30.899031 -41.391062 -30.899031 -41.391062 C -31.180281 -41.629344 -31.527938 -41.777781 -31.891219 -41.812937 L -136.188094 -57.316844 C -136.461531 -57.363719 -136.727156 -57.434031 -136.984969 -57.523875 L -178.793563 -81.586375 C -179.91075 -82.375437 -181.453719 -82.109812 -182.238875 -80.996531 C -182.2545 -80.977 -182.266219 -80.957469 -182.281844 -80.937937 L -219.805281 -15.625437 C -221.012313 -13.656687 -221.707625 -11.418406 -221.828719 -9.113719 L -221.828719 158.019094 C -221.828719 158.80425 -221.195906 159.437063 -220.41075 159.437063 L -164.422469 159.437063 C -163.668563 159.550344 -163.082625 160.159719 -163.0045 160.921438 L -163.0045 164.421438 C -163.0045 165.202688 -162.371688 165.839406 -161.586531 165.839406 L -110.559188 165.839406 C -109.777938 165.839406 -109.141219 166.472219 -109.141219 167.257375 L -109.141219 171.507375 C -109.141219 172.292531 -108.508406 172.925344 -107.72325 172.925344 L -56.695906 172.925344 C -55.914656 172.925344 -55.281844 173.558156 -55.281844 174.343313 L -55.281844 177.886281 C -55.281844 178.667531 -54.645125 179.30425 -53.863875 179.30425 L -5.668563 179.30425 C -4.887313 179.30425 -4.2545 178.667531 -4.2545 177.886281 L -4.2545 174.343313 C -4.2545 173.558156 -3.617781 172.925344 -2.836531 172.925344 L 48.190812 172.925344 C 48.975969 172.925344 49.608781 172.292531 49.608781 171.507375 L 49.608781 160.878469 C 49.608781 160.093313 50.2455 159.4605 51.02675 159.4605 L 103.472062 159.4605 C 104.257219 159.4605 104.890031 158.823781 104.890031 158.042531 L 104.890031 1.417531 C 104.890031 0.632375 104.257219 -0.0004375 103.472062 -0.0004375 Z M -0.00059375 -0.0004375 "
       style="fill:none;stroke-width:0.99974998;stroke-linecap:round;stroke-linejoin:round;stroke:rgb(100%, 0%, 0%);stroke-opacity:1;stroke-miterlimit:4;stroke-dasharray:none" />
    <path
       id="path90"
       transform="matrix(1,0,0,-1,693.5484,468.1968)"
       d="M -0.001525 0.0014875 C -0.001525 1.724144 -1.396056 3.118675 -3.118713 3.118675 C -4.841369 3.118675 -6.2359 1.724144 -6.2359 0.0014875 C -6.2359 -1.721169 -4.841369 -3.119606 -3.118713 -3.119606 C -1.396056 -3.119606 -0.001525 -1.721169 -0.001525 0.0014875 Z M -0.001525 0.0014875 "
       style="fill:none;stroke-width:0.99974998;stroke-linecap:round;stroke-linejoin:round;stroke:rgb(100%, 0%, 0%);stroke-opacity:1;stroke-miterlimit:4;stroke-dasharray:none" />
    <path
       id="path92"
       transform="matrix(1,0,0,-1,600.6334,355.5269)"
       d="M -0.0005875 -0.00044375 C -0.0005875 1.722213 -1.395119 3.116744 -3.117775 3.116744 C -4.840431 3.116744 -6.234963 1.722213 -6.234963 -0.00044375 C -6.234963 -1.7231 -4.840431 -3.117631 -3.117775 -3.117631 C -1.395119 -3.117631 -0.0005875 -1.7231 -0.0005875 -0.00044375 Z M -0.0005875 -0.00044375 "
       style="fill:none;stroke-width:0.99974998;stroke-linecap:round;stroke-linejoin:round;stroke:rgb(100%, 0%, 0%);stroke-opacity:1;stroke-miterlimit:4;stroke-dasharray:none" />
    <path
       id="path94"
       transform="matrix(1,0,0,-1,762.2447,365.7954)"
       d="M 0.00139375 -0.001475 C 0.00139375 1.721181 -1.397044 3.119619 -3.1197 3.119619 C -4.83845 3.119619 -6.236888 1.721181 -6.236888 -0.001475 C -6.236888 -1.720225 -4.83845 -3.118662 -3.1197 -3.118662 C -1.397044 -3.118662 0.00139375 -1.720225 0.00139375 -0.001475 Z M 0.00139375 -0.001475 "
       style="fill:none;stroke-width:0.99974998;stroke-linecap:round;stroke-linejoin:round;stroke:rgb(100%, 0%, 0%);stroke-opacity:1;stroke-miterlimit:4;stroke-dasharray:none" />
    <path
       id="path96"
       transform="matrix(1,0,0,-1,762.2701,419.6968)"
       d="M -0.00056875 0.0014875 C -0.00056875 1.724144 -1.3951 3.118675 -3.117756 3.118675 C -4.840413 3.118675 -6.234944 1.724144 -6.234944 0.0014875 C -6.234944 -1.721169 -4.840413 -3.119606 -3.117756 -3.119606 C -1.3951 -3.119606 -0.00056875 -1.721169 -0.00056875 0.0014875 Z M -0.00056875 0.0014875 "
       style="fill:none;stroke-width:0.99974998;stroke-linecap:round;stroke-linejoin:round;stroke:rgb(100%, 0%, 0%);stroke-opacity:1;stroke-miterlimit:4;stroke-dasharray:none" />
    <path
       id="path98"
       transform="matrix(1,0,0,-1,561.6807,490.1782)"
       d="M -0.0010125 -0.0014875 C -0.0010125 1.721169 -1.395544 3.119606 -3.1182 3.119606 C -4.840856 3.119606 -6.235388 1.721169 -6.235388 -0.0014875 C -6.235388 -1.720237 -4.840856 -3.118675 -3.1182 -3.118675 C -1.395544 -3.118675 -0.0010125 -1.720237 -0.0010125 -0.0014875 Z M -0.0010125 -0.0014875 "
       style="fill:none;stroke-width:0.99974998;stroke-linecap:round;stroke-linejoin:round;stroke:rgb(100%, 0%, 0%);stroke-opacity:1;stroke-miterlimit:4;stroke-dasharray:none" />
    <path
       id="path100"
       transform="matrix(1,0,0,-1,386.6651,479.4605)"
       d="M -0.0010375 -0.0004375 C 0.784119 -0.0004375 1.416931 0.632375 1.416931 1.417531 L 1.416931 158.042531 C 1.416931 158.823781 0.784119 159.4605 -0.0010375 159.4605 L -52.458069 159.4605 C -53.243225 159.4605 -53.876037 160.093313 -53.876037 160.878469 L -53.876037 171.507375 C -53.876037 172.292531 -54.512756 172.925344 -55.294006 172.925344 L -106.32135 172.925344 C -107.1026 172.925344 -107.739319 173.558156 -107.739319 174.343313 L -107.739319 177.886281 C -107.739319 178.667531 -108.372131 179.30425 -109.157287 179.30425 L -157.348694 179.30425 C -158.13385 179.30425 -158.766662 178.667531 -158.766662 177.886281 L -158.766662 174.343313 C -158.766662 173.558156 -159.399475 172.925344 -160.184631 172.925344 L -211.211975 172.925344 C -211.993225 172.925344 -212.629944 172.292531 -212.629944 171.507375 L -212.629944 167.257375 C -212.629944 166.472219 -213.262756 165.839406 -214.047912 165.839406 L -265.07135 165.839406 C -265.856506 165.839406 -266.489319 165.202688 -266.489319 164.421438 L -266.489319 23.288625 C -266.723694 22.202688 -267.297912 21.218313 -268.129944 20.483938 L -322.204162 -10.805125 C -323.700256 -11.926219 -324.161194 -13.969187 -323.2901 -15.625437 L -285.766662 -80.937937 C -285.754944 -80.957469 -285.739319 -80.977 -285.7276 -80.996531 C -284.938537 -82.109812 -283.395569 -82.375437 -282.282287 -81.586375 L -240.469787 -57.523875 C -240.211975 -57.434031 -239.94635 -57.363719 -239.676819 -57.316844 L -135.379944 -41.812937 C -135.012756 -41.777781 -134.6651 -41.629344 -134.387756 -41.391062 C -134.387756 -41.391062 -104.4776 -0.402781 -104.489319 -0.4145 C -104.223694 -0.148875 -103.864319 -0.0004375 -103.485412 -0.0004375 Z M -0.0010375 -0.0004375 "
       style="fill:none;stroke-width:0.99974998;stroke-linecap:butt;stroke-linejoin:miter;stroke:rgb(100%, 0%, 0%);stroke-opacity:1;stroke-miterlimit:4;stroke-dasharray:none" />
    <path
       id="path102"
       transform="matrix(1,0,0,-1,175.6827,362.523)"
       d="M 0.00089375 -0.0004375 C 0.00089375 1.722219 -1.397544 3.11675 -3.116294 3.11675 C -4.83895 3.11675 -6.237388 1.722219 -6.237388 -0.0004375 C -6.237388 -1.723094 -4.83895 -3.117625 -3.116294 -3.117625 C -1.397544 -3.117625 0.00089375 -1.723094 0.00089375 -0.0004375 Z M 0.00089375 -0.0004375 "
       style="fill:none;stroke-width:0.99974998;stroke-linecap:round;stroke-linejoin:round;stroke:rgb(100%, 0%, 0%);stroke-opacity:1;stroke-miterlimit:4;stroke-dasharray:none" />
    <path
       id="path104"
       transform="matrix(1,0,0,-1,337.2945,372.7915)"
       d="M -0.00153125 -0.00146875 C -0.00153125 1.721188 -1.396062 3.119625 -3.118719 3.119625 C -4.841375 3.119625 -6.235906 1.721188 -6.235906 -0.00146875 C -6.235906 -1.724125 -4.841375 -3.118656 -3.118719 -3.118656 C -1.396062 -3.118656 -0.00153125 -1.724125 -0.00153125 -0.00146875 Z M -0.00153125 -0.00146875 "
       style="fill:none;stroke-width:0.99974998;stroke-linecap:round;stroke-linejoin:round;stroke:rgb(100%, 0%, 0%);stroke-opacity:1;stroke-miterlimit:4;stroke-dasharray:none" />
    <path
       id="path106"
       transform="matrix(1,0,0,-1,337.3194,426.6929)"
       d="M 0.0009125 0.00149375 C 0.0009125 1.72415 -1.397525 3.118681 -3.120181 3.118681 C -4.842838 3.118681 -6.237369 1.72415 -6.237369 0.00149375 C -6.237369 -1.721162 -4.842838 -3.1196 -3.120181 -3.1196 C -1.397525 -3.1196 0.0009125 -1.721162 0.0009125 0.00149375 Z M 0.0009125 0.00149375 "
       style="fill:none;stroke-width:0.99974998;stroke-linecap:round;stroke-linejoin:round;stroke:rgb(100%, 0%, 0%);stroke-opacity:1;stroke-miterlimit:4;stroke-dasharray:none" />
    <path
       id="path108"
       transform="matrix(1,0,0,-1,136.73,497.1743)"
       d="M 0.00046875 -0.00148125 C 0.00046875 1.721175 -1.394062 3.119613 -3.116719 3.119613 C -4.839375 3.119613 -6.237812 1.721175 -6.237812 -0.00148125 C -6.237812 -1.720231 -4.839375 -3.118669 -3.116719 -3.118669 C -1.394062 -3.118669 0.00046875 -1.720231 0.00046875 -0.00148125 Z M 0.00046875 -0.00148125 "
       style="fill:none;stroke-width:0.99974998;stroke-linecap:round;stroke-linejoin:round;stroke:rgb(100%, 0%, 0%);stroke-opacity:1;stroke-miterlimit:4;stroke-dasharray:none" />
    <path
       id="path110"
       transform="matrix(1,0,0,-1,268.5977,475.1929)"
       d="M -0.00004375 0.00149375 C -0.00004375 1.72415 -1.394575 3.118681 -3.117231 3.118681 C -4.839887 3.118681 -6.238325 1.72415 -6.238325 0.00149375 C -6.238325 -1.721162 -4.839887 -3.1196 -3.117231 -3.1196 C -1.394575 -3.1196 -0.00004375 -1.721162 -0.00004375 0.00149375 Z M -0.00004375 0.00149375 "
       style="fill:none;stroke-width:0.99974998;stroke-linecap:round;stroke-linejoin:round;stroke:rgb(100%, 0%, 0%);stroke-opacity:1;stroke-miterlimit:4;stroke-dasharray:none" />
    <path
       id="path112"
       transform="matrix(1,0,0,-1,0,595.276)"
       d="M 380.78125 229.803344 L 341.519531 229.803344 L 341.519531 269.065063 L 380.78125 269.065063 Z M 380.78125 229.803344 "
       style="fill:none;stroke-width:0.99974998;stroke-linecap:round;stroke-linejoin:round;stroke:rgb(100%, 0%, 0%);stroke-opacity:1;stroke-miterlimit:4;stroke-dasharray:none" />
    <path
       id="path114"
       transform="matrix(1,0,0,-1,0,595.276)"
       d="M 380.78125 175.940063 L 341.519531 175.940063 L 341.519531 215.205688 L 380.78125 215.205688 Z M 380.78125 175.940063 "
       style="fill:none;stroke-width:0.99974998;stroke-linecap:round;stroke-linejoin:round;stroke:rgb(100%, 0%, 0%);stroke-opacity:1;stroke-miterlimit:4;stroke-dasharray:none" />
    <path
       id="path116"
       transform="matrix(1,0,0,-1,0,595.276)"
       d="M 380.78125 122.080688 L 341.519531 122.080688 L 341.519531 161.342406 L 380.78125 161.342406 Z M 380.78125 122.080688 "
       style="fill:none;stroke-width:0.99974998;stroke-linecap:round;stroke-linejoin:round;stroke:rgb(100%, 0%, 0%);stroke-opacity:1;stroke-miterlimit:4;stroke-dasharray:none" />
    <path
       id="path118"
       transform="matrix(1,0,0,-1,0,595.276)"
       d="M 326.921875 243.268188 L 287.65625 243.268188 L 287.65625 282.533813 L 326.921875 282.533813 Z M 326.921875 243.268188 "
       style="fill:none;stroke-width:0.99974998;stroke-linecap:round;stroke-linejoin:round;stroke:rgb(100%, 0%, 0%);stroke-opacity:1;stroke-miterlimit:4;stroke-dasharray:none" />
    <path
       id="path120"
       transform="matrix(1,0,0,-1,0,595.276)"
       d="M 326.921875 189.408813 L 287.65625 189.408813 L 287.65625 228.670531 L 326.921875 228.670531 Z M 326.921875 189.408813 "
       style="fill:none;stroke-width:0.99974998;stroke-linecap:round;stroke-linejoin:round;stroke:rgb(100%, 0%, 0%);stroke-opacity:1;stroke-miterlimit:4;stroke-dasharray:none" />
    <path
       id="path122"
       transform="matrix(1,0,0,-1,0,595.276)"
       d="M 326.921875 135.545531 L 287.65625 135.545531 L 287.65625 174.80725 L 326.921875 174.80725 Z M 326.921875 135.545531 "
       style="fill:none;stroke-width:0.99974998;stroke-linecap:round;stroke-linejoin:round;stroke:rgb(100%, 0%, 0%);stroke-opacity:1;stroke-miterlimit:4;stroke-dasharray:none" />
    <path
       id="path124"
       transform="matrix(1,0,0,-1,0,595.276)"
       d="M 273.058594 250.002563 L 233.796875 250.002563 L 233.796875 289.264281 L 273.058594 289.264281 Z M 273.058594 250.002563 "
       style="fill:none;stroke-width:0.99974998;stroke-linecap:round;stroke-linejoin:round;stroke:rgb(100%, 0%, 0%);stroke-opacity:1;stroke-miterlimit:4;stroke-dasharray:none" />
    <path
       id="path126"
       transform="matrix(1,0,0,-1,0,595.276)"
       d="M 273.058594 196.139281 L 233.796875 196.139281 L 233.796875 235.404906 L 273.058594 235.404906 Z M 273.058594 196.139281 "
       style="fill:none;stroke-width:0.99974998;stroke-linecap:round;stroke-linejoin:round;stroke:rgb(100%, 0%, 0%);stroke-opacity:1;stroke-miterlimit:4;stroke-dasharray:none" />
    <path
       id="path128"
       transform="matrix(1,0,0,-1,0,595.276)"
       d="M 273.058594 142.276 L 233.796875 142.276 L 233.796875 181.541625 L 273.058594 181.541625 Z M 273.058594 142.276 "
       style="fill:none;stroke-width:0.99974998;stroke-linecap:round;stroke-linejoin:round;stroke:rgb(100%, 0%, 0%);stroke-opacity:1;stroke-miterlimit:4;stroke-dasharray:none" />
    <path
       id="path130"
       transform="matrix(1,0,0,-1,0,595.276)"
       d="M 219.195312 243.268188 L 179.933594 243.268188 L 179.933594 282.533813 L 219.195312 282.533813 Z M 219.195312 243.268188 "
       style="fill:none;stroke-width:0.99974998;stroke-linecap:round;stroke-linejoin:round;stroke:rgb(100%, 0%, 0%);stroke-opacity:1;stroke-miterlimit:4;stroke-dasharray:none" />
    <path
       id="path132"
       transform="matrix(1,0,0,-1,0,595.276)"
       d="M 219.195312 189.408813 L 179.933594 189.408813 L 179.933594 228.670531 L 219.195312 228.670531 Z M 219.195312 189.408813 "
       style="fill:none;stroke-width:0.99974998;stroke-linecap:round;stroke-linejoin:round;stroke:rgb(100%, 0%, 0%);stroke-opacity:1;stroke-miterlimit:4;stroke-dasharray:none" />
    <path
       id="path134"
       transform="matrix(1,0,0,-1,0,595.276)"
       d="M 219.195312 135.545531 L 179.933594 135.545531 L 179.933594 174.80725 L 219.195312 174.80725 Z M 219.195312 135.545531 "
       style="fill:none;stroke-width:0.99974998;stroke-linecap:round;stroke-linejoin:round;stroke:rgb(100%, 0%, 0%);stroke-opacity:1;stroke-miterlimit:4;stroke-dasharray:none" />
    <path
       id="path136"
       transform="matrix(1,0,0,-1,0,595.276)"
       d="M 165.335938 236.537719 L 126.070312 236.537719 L 126.070312 275.799438 L 165.335938 275.799438 Z M 165.335938 236.537719 "
       style="fill:none;stroke-width:0.99974998;stroke-linecap:round;stroke-linejoin:round;stroke:rgb(100%, 0%, 0%);stroke-opacity:1;stroke-miterlimit:4;stroke-dasharray:none" />
    <path
       id="path138"
       transform="matrix(1,0,0,-1,0,595.276)"
       d="M 165.335938 182.674438 L 126.070312 182.674438 L 126.070312 221.936156 L 165.335938 221.936156 Z M 165.335938 182.674438 "
       style="fill:none;stroke-width:0.99974998;stroke-linecap:round;stroke-linejoin:round;stroke:rgb(100%, 0%, 0%);stroke-opacity:1;stroke-miterlimit:4;stroke-dasharray:none" />
    <path
       id="path140"
       transform="matrix(1,0,0,-1,0,595.276)"
       d="M 165.335938 128.811156 L 126.070312 128.811156 L 126.070312 168.076781 L 165.335938 168.076781 Z M 165.335938 128.811156 "
       style="fill:none;stroke-width:0.99974998;stroke-linecap:round;stroke-linejoin:round;stroke:rgb(100%, 0%, 0%);stroke-opacity:1;stroke-miterlimit:4;stroke-dasharray:none" />
    <path
       id="path142"
       transform="matrix(1,0,0,-1,0,595.276)"
       d="M 246.128906 79.912719 L 206.863281 79.912719 L 206.863281 119.174438 L 246.128906 119.174438 Z M 246.128906 79.912719 "
       style="fill:none;stroke-width:0.99974998;stroke-linecap:round;stroke-linejoin:round;stroke:rgb(100%, 0%, 0%);stroke-opacity:1;stroke-miterlimit:4;stroke-dasharray:none" />
    <path
       id="path144"
       transform="matrix(1,0,0,-1,180.8477,479.5025)"
       d="M -0.00004375 -0.00140625 L 10.12105 -37.935 L -27.812544 -48.06 L -37.933638 -10.1225 Z M -0.00004375 -0.00140625 "
       style="fill:none;stroke-width:0.99974998;stroke-linecap:round;stroke-linejoin:round;stroke:rgb(100%, 0%, 0%);stroke-opacity:1;stroke-miterlimit:4;stroke-dasharray:none" />
    <path
       id="path146"
       transform="matrix(1,0,0,-1,111.0797,487.3306)"
       d="M -0.001575 -0.00143125 L 19.6078 -34.017056 L -14.407825 -53.622525 L -34.0172 -19.6069 Z M -0.001575 -0.00143125 "
       style="fill:none;stroke-width:0.99974998;stroke-linecap:round;stroke-linejoin:round;stroke:rgb(100%, 0%, 0%);stroke-opacity:1;stroke-miterlimit:4;stroke-dasharray:none" />
    <path
       id="path148"
       transform="matrix(1,0,0,-1,111.0001,315.8335)"
       d="M -0.0001 0.00146875 L -0.0001 -134.240719 C -0.168069 -135.721187 -0.832131 -136.451656 -1.8126 -137.307125 L -55.214944 -168.080562 C -56.363381 -168.561031 -57.683694 -168.021969 -58.164163 -166.877437 C -58.234475 -166.705562 -58.285256 -166.529781 -58.3126 -166.350094 L -58.3126 -0.0297812 C -58.3126 0.755375 -57.675881 1.388188 -56.894631 1.388188 L -1.418069 1.419438 C -0.636819 1.419438 -0.0001 0.782719 -0.0001 0.00146875 "
       style="fill:none;stroke-width:0.99974998;stroke-linecap:round;stroke-linejoin:round;stroke:rgb(100%, 0%, 0%);stroke-opacity:1;stroke-miterlimit:4;stroke-dasharray:none" />
    <path
       id="path150"
       transform="matrix(1,0,0,-1,103.9781,448.9868)"
       d="M -0.0015375 -0.00148125 C -0.0015375 1.721175 -1.396069 3.119613 -3.118725 3.119613 C -4.841381 3.119613 -6.235912 1.721175 -6.235912 -0.00148125 C -6.235912 -1.720231 -4.841381 -3.118669 -3.118725 -3.118669 C -1.396069 -3.118669 -0.0015375 -1.720231 -0.0015375 -0.00148125 Z M -0.0015375 -0.00148125 "
       style="fill:none;stroke-width:0.99974998;stroke-linecap:round;stroke-linejoin:round;stroke:rgb(100%, 0%, 0%);stroke-opacity:1;stroke-miterlimit:4;stroke-dasharray:none" />
    <path
       id="path152"
       transform="matrix(1,0,0,-1,62.8731,473.0825)"
       d="M 0.0019 0.00046875 C 0.0019 1.723125 -1.396538 3.117656 -3.119194 3.117656 C -4.84185 3.117656 -6.236381 1.723125 -6.236381 0.00046875 C -6.236381 -1.722187 -4.84185 -3.116719 -3.119194 -3.116719 C -1.396538 -3.116719 0.0019 -1.722187 0.0019 0.00046875 Z M 0.0019 0.00046875 "
       style="fill:none;stroke-width:0.99974998;stroke-linecap:round;stroke-linejoin:round;stroke:rgb(100%, 0%, 0%);stroke-opacity:1;stroke-miterlimit:4;stroke-dasharray:none" />
  </g>
</svg>
