<?xml version="1.0" encoding="UTF-8" standalone="no"?>
<!-- Created with Inkscape (http://www.inkscape.org/) -->

<svg
   xmlns:dc="http://purl.org/dc/elements/1.1/"
   xmlns:cc="http://creativecommons.org/ns#"
   xmlns:rdf="http://www.w3.org/1999/02/22-rdf-syntax-ns#"
   xmlns:svg="http://www.w3.org/2000/svg"
   xmlns="http://www.w3.org/2000/svg"
   xmlns:sodipodi="http://sodipodi.sourceforge.net/DTD/sodipodi-0.dtd"
   xmlns:inkscape="http://www.inkscape.org/namespaces/inkscape"
   version="1.1"
   id="svg29"
   xml:space="preserve"
   width="1122.52"
   height="793.70135"
   viewBox="0 0 1122.52 793.70135"
   sodipodi:docname="top-bottom-5col.svg"
   inkscape:version="0.92.4 5da689c313, 2019-01-14"><metadata
     id="metadata35"><rdf:RDF><cc:Work
         rdf:about=""><dc:format>image/svg+xml</dc:format><dc:type
           rdf:resource="http://purl.org/dc/dcmitype/StillImage" /><dc:title /></cc:Work></rdf:RDF></metadata><defs
     id="defs33"><clipPath
       clipPathUnits="userSpaceOnUse"
       id="clipPath45"><path
         d="M 0,595.276 H 841.89 V 0 H 0 Z"
         id="path43"
         inkscape:connector-curvature="0" /></clipPath><clipPath
       clipPathUnits="userSpaceOnUse"
       id="clipPath101"><path
         d="M 0,595.276 H 841.89 V 0 H 0 Z"
         id="path99"
         inkscape:connector-curvature="0" /></clipPath></defs><sodipodi:namedview
     pagecolor="#ffffff"
     bordercolor="#666666"
     borderopacity="1"
     objecttolerance="10"
     gridtolerance="10"
     guidetolerance="10"
     inkscape:pageopacity="0"
     inkscape:pageshadow="2"
     inkscape:window-width="1918"
     inkscape:window-height="1058"
     id="namedview31"
     showgrid="false"
     showguides="true"
     inkscape:guide-bbox="true"
     inkscape:lockguides="false"
     inkscape:snap-others="false"
     inkscape:snap-global="true"
     inkscape:snap-grids="true"
     inkscape:zoom="0.50000001"
     inkscape:cx="-219.5984"
     inkscape:cy="38.821987"
     inkscape:window-x="1920"
     inkscape:window-y="20"
     inkscape:window-maximized="0"
     inkscape:current-layer="layer2"><inkscape:grid
       type="xygrid"
       id="grid339" /></sodipodi:namedview><g
     inkscape:groupmode="layer"
     id="layer3"
     inkscape:label="bottom-l-mirror"
     style="display:inline"
     sodipodi:insensitive="true"><path
       d="m 311.00176,626.97166 c 0.35467,-0.35467 0.83467,-0.55333 1.336,-0.55333 h 136.34899 c 1.04399,0 1.88932,-0.84667 1.88932,-1.89067 V 415.69433 c 0,-1.044 -0.84533,-1.88933 -1.88932,-1.88933 h -68.31299 c -1.04267,0 -1.88934,-0.84667 -1.88934,-1.89067 v -14.17466 c 0,-1.04267 -0.84533,-1.88934 -1.88933,-1.88934 h -68.03733 c -1.04267,0 -1.88933,-0.84666 -1.88933,-1.89066 v -4.724 c 0,-1.044 -0.84667,-1.88934 -1.88934,-1.88934 h -64.25733 c -1.044,0 -1.88933,0.84534 -1.88933,1.88934 v 4.724 c 0,1.044 -0.84667,1.89066 -1.89067,1.89066 h -68.036 c -1.044,0 -1.88933,0.84667 -1.88933,1.88934 v 5.67066 c 0,1.04267 -0.84667,1.88934 -1.89067,1.88934 H 96.889813 c -1.044,0 -1.8894,0.84666 -1.8894,1.89066 v 4.66533 c -0.108,1.01334 -0.8866,1.82667 -1.8933,1.97867 h -74.6507 c -1.044,0 -1.8906,0.84667 -1.8906,1.88933 v 222.844 c 0.164,3.07467 1.092,6.05867 2.7013,8.684 l 50.0307,87.08 c 0.017,0.0267 0.036,0.0533 0.055,0.08 1.0507,1.48533 3.108,1.84 4.5934,0.78933 l 55.747947,-32.088 c 0.344,-0.11867 0.69867,-0.21067 1.05867,-0.272 l 139.06266,-20.672 c 0.48934,-0.0493 0.95067,-0.24666 1.324,-0.56533 0,0 39.876,-54.65067 39.86267,-54.632 z"
       style="display:inline;fill:none;stroke:#ff0000;stroke-width:0.37733331;stroke-linecap:round;stroke-linejoin:round;stroke-miterlimit:10;stroke-dasharray:none;stroke-opacity:1"
       id="path105"
       inkscape:connector-curvature="0"
       sodipodi:nodetypes="cccssccsssssssssssssssssccssccccccccccc" /><path
       d="m 292.89749,620.73206 c 0,-2.296 -1.86133,-4.15733 -4.15867,-4.15733 -2.296,0 -4.15733,1.86133 -4.15733,4.15733 0,2.29733 1.86133,4.15733 4.15733,4.15733 2.29734,0 4.15867,-1.86 4.15867,-4.15733 z"
       style="display:inline;fill:none;stroke:#ff0000;stroke-width:0.37733331;stroke-linecap:round;stroke-linejoin:round;stroke-miterlimit:10;stroke-dasharray:none;stroke-opacity:1"
       id="path109"
       inkscape:connector-curvature="0" /><path
       d="m 169.01083,470.50686 c 0,-2.29733 -1.86133,-4.15867 -4.15733,-4.15867 -2.296,0 -4.15867,1.86134 -4.15867,4.15867 0,2.296 1.86267,4.15733 4.15867,4.15733 2.296,0 4.15733,-1.86133 4.15733,-4.15733 z"
       style="display:inline;fill:none;stroke:#ff0000;stroke-width:0.37733331;stroke-linecap:round;stroke-linejoin:round;stroke-miterlimit:10;stroke-dasharray:none;stroke-opacity:1"
       id="path113"
       inkscape:connector-curvature="0" /><path
       d="m 384.56628,484.197 c 0,-2.296 -1.86133,-4.15733 -4.15867,-4.15733 -2.296,0 -4.15733,1.86133 -4.15733,4.15733 0,2.29733 1.86133,4.15733 4.15733,4.15733 2.29734,0 4.15867,-1.86 4.15867,-4.15733 z"
       style="display:inline;fill:none;stroke:#ff0000;stroke-width:0.37733331;stroke-linecap:round;stroke-linejoin:round;stroke-miterlimit:10;stroke-dasharray:none;stroke-opacity:1"
       id="path117"
       inkscape:connector-curvature="0" /><path
       d="m 384.55074,555.98701 c 0,-2.29733 -1.86133,-4.15733 -4.15867,-4.15733 -2.296,0 -4.15733,1.86 -4.15733,4.15733 0,2.29733 1.86133,4.15733 4.15733,4.15733 2.29734,0 4.15867,-1.86 4.15867,-4.15733 z"
       style="display:inline;fill:none;stroke:#ff0000;stroke-width:0.37733331;stroke-linecap:round;stroke-linejoin:round;stroke-miterlimit:10;stroke-dasharray:none;stroke-opacity:1"
       id="path121"
       inkscape:connector-curvature="0" /><path
       d="m 117.07403,650.04073 c 0,-2.29733 -1.86133,-4.15733 -4.15867,-4.15733 -2.296,0 -4.15733,1.86 -4.15733,4.15733 0,2.296 1.86133,4.15733 4.15733,4.15733 2.29734,0 4.15867,-1.86133 4.15867,-4.15733 z"
       style="display:inline;fill:none;stroke:#ff0000;stroke-width:0.37733331;stroke-linecap:round;stroke-linejoin:round;stroke-miterlimit:10;stroke-dasharray:none;stroke-opacity:1"
       id="path125"
       inkscape:connector-curvature="0" /></g><g
     style="display:inline"
     inkscape:label="top-l mirror"
     id="g4094"
     inkscape:groupmode="layer"
     sodipodi:insensitive="true"><g
       transform="matrix(-1.3333333,0,0,-1.3333333,770.4437,642.39107)"
       id="g4040"
       style="display:inline"><path
         sodipodi:nodetypes="cccssccssssssssssssssssscccccccccccccc"
         inkscape:connector-curvature="0"
         id="path4038"
         style="fill:none;stroke:#ff0000;stroke-width:0.28299999;stroke-linecap:butt;stroke-linejoin:miter;stroke-miterlimit:10;stroke-dasharray:none;stroke-opacity:1"
         d="m 0,0 c -0.266,0.266 -0.626,0.415 -1.002,0.415 h -102.26124 c -0.783,0 -1.417,0.635 -1.417,1.418 v 156.625 c 0,0.783 0.634,1.417 1.417,1.417 H -52.029 c 0.782,0 1.417,0.635 1.417,1.418 v 10.631 c 0,0.782 0.634,1.417 1.417,1.417 H 1.833 c 0.782,0 1.417,0.635 1.417,1.418 v 3.543 c 0,0.783 0.635,1.418 1.418,1.418 H 52.86 c 0.783,0 1.417,-0.635 1.417,-1.418 v -3.543 c 0,-0.783 0.635,-1.418 1.417,-1.418 h 51.028 c 0.783,0 1.418,-0.635 1.418,-1.417 v -4.253 c 0,-0.782 0.634,-1.417 1.417,-1.417 h 51.027 c 0.783,0 1.418,-0.635 1.418,-1.418 v -3.499 L 161.999,115.243 162,23.704 c 0.232,-1.086 0.808,-2.069 1.641,-2.806 l 54.076,-31.287 c 1.495,-1.123 1.954,-3.165 1.085,-4.821 l -37.524,-65.31 c -0.013,-0.02 -0.027,-0.04 -0.041,-0.06 -0.788,-1.114 -2.331,-1.38 -3.445,-0.592 l -41.811,24.066 c -0.258,0.089 -0.524,0.158 -0.794,0.204 L 30.89,-41.398 c -0.367,0.037 -0.713,0.185 -0.993,0.424 C 29.897,-40.974 -0.01,0.014 0,0 Z" /></g><path
       inkscape:connector-curvature="0"
       id="path4042"
       style="display:inline;fill:none;stroke:#ff0000;stroke-width:0.37733331;stroke-linecap:round;stroke-linejoin:round;stroke-miterlimit:10;stroke-dasharray:none;stroke-opacity:1"
       d="m 839.83503,503.74322 c 2.296,0 4.15733,-1.86134 4.15733,-4.15867 0,-2.296 -1.86133,-4.15733 -4.15733,-4.15733 -2.29733,0 -4.15733,1.86133 -4.15733,4.15733 0,2.29733 1.86,4.15867 4.15733,4.15867 z" /><path
       inkscape:connector-curvature="0"
       id="path4044"
       style="display:inline;fill:none;stroke:#ff0000;stroke-width:0.37733331;stroke-linecap:round;stroke-linejoin:round;stroke-miterlimit:10;stroke-dasharray:none;stroke-opacity:1"
       d="m 843.99202,571.40122 c 0,-2.296 -1.86134,-4.15733 -4.15867,-4.15733 -2.296,0 -4.15733,1.86133 -4.15733,4.15733 0,2.29734 1.86133,4.15734 4.15733,4.15734 2.29733,0 4.15867,-1.86 4.15867,-4.15734 z" /><path
       inkscape:connector-curvature="0"
       id="path4046"
       style="display:inline;fill:none;stroke:#ff0000;stroke-width:0.37733331;stroke-linecap:round;stroke-linejoin:round;stroke-miterlimit:10;stroke-dasharray:none;stroke-opacity:1"
       d="m 576.5153,665.45494 c 0,-2.29733 -1.86133,-4.15733 -4.15733,-4.15733 -2.296,0 -4.15733,1.86 -4.15733,4.15733 0,2.29734 1.86133,4.15734 4.15733,4.15734 2.296,0 4.15733,-1.86 4.15733,-4.15734 z" /><path
       inkscape:connector-curvature="0"
       id="path4048"
       style="display:inline;fill:none;stroke:#ff0000;stroke-width:0.37733331;stroke-linecap:round;stroke-linejoin:round;stroke-miterlimit:10;stroke-dasharray:none;stroke-opacity:1"
       d="m 752.33957,636.14627 c 0,-2.296 -1.86133,-4.15733 -4.15733,-4.15733 -2.29733,0 -4.15867,1.86133 -4.15867,4.15733 0,2.29734 1.86134,4.15734 4.15867,4.15734 2.296,0 4.15733,-1.86 4.15733,-4.15734 z" /><path
       sodipodi:nodetypes="ccccc"
       inkscape:connector-curvature="0"
       id="path4050"
       style="display:inline;fill:none;stroke:#ff0000;stroke-width:0.37733331;stroke-linecap:round;stroke-linejoin:round;stroke-miterlimit:10;stroke-dasharray:none;stroke-opacity:1"
       d="M 901.91837,489.85254 H 849.5677 v -52.34933 h 52.35067 z" /><path
       inkscape:connector-curvature="0"
       id="path4052"
       style="display:inline;fill:none;stroke:#ff0000;stroke-width:0.37733331;stroke-linecap:round;stroke-linejoin:round;stroke-miterlimit:10;stroke-dasharray:none;stroke-opacity:1"
       d="M 901.91837,561.66854 H 849.5677 v -52.35066 h 52.35067 z" /><path
       inkscape:connector-curvature="0"
       id="path4054"
       style="display:inline;fill:none;stroke:#ff0000;stroke-width:0.37733331;stroke-linecap:round;stroke-linejoin:round;stroke-miterlimit:10;stroke-dasharray:none;stroke-opacity:1"
       d="M 901.91837,633.48454 H 849.5677 v -52.35066 h 52.35067 z" /><path
       inkscape:connector-curvature="0"
       id="path4056"
       style="display:inline;fill:none;stroke:#ff0000;stroke-width:0.37733331;stroke-linecap:round;stroke-linejoin:round;stroke-miterlimit:10;stroke-dasharray:none;stroke-opacity:1"
       d="M 830.10237,471.89921 H 777.7517 v -52.35067 h 52.35067 z" /><path
       inkscape:connector-curvature="0"
       id="path4058"
       style="display:inline;fill:none;stroke:#ff0000;stroke-width:0.37733331;stroke-linecap:round;stroke-linejoin:round;stroke-miterlimit:10;stroke-dasharray:none;stroke-opacity:1"
       d="M 830.10237,543.71521 H 777.7517 v -52.35067 h 52.35067 z" /><path
       inkscape:connector-curvature="0"
       id="path4060"
       style="display:inline;fill:none;stroke:#ff0000;stroke-width:0.37733331;stroke-linecap:round;stroke-linejoin:round;stroke-miterlimit:10;stroke-dasharray:none;stroke-opacity:1"
       d="M 830.10237,615.52987 H 777.7517 v -52.35066 h 52.35067 z" /><path
       inkscape:connector-curvature="0"
       id="path4062"
       style="display:inline;fill:none;stroke:#ff0000;stroke-width:0.37733331;stroke-linecap:round;stroke-linejoin:round;stroke-miterlimit:10;stroke-dasharray:none;stroke-opacity:1"
       d="M 758.28637,462.92054 H 705.9357 v -52.35066 h 52.35067 z" /><path
       inkscape:connector-curvature="0"
       id="path4064"
       style="display:inline;fill:none;stroke:#ff0000;stroke-width:0.37733331;stroke-linecap:round;stroke-linejoin:round;stroke-miterlimit:10;stroke-dasharray:none;stroke-opacity:1"
       d="M 758.28637,534.73788 H 705.9357 v -52.35067 h 52.35067 z" /><path
       inkscape:connector-curvature="0"
       id="path4066"
       style="display:inline;fill:none;stroke:#ff0000;stroke-width:0.37733331;stroke-linecap:round;stroke-linejoin:round;stroke-miterlimit:10;stroke-dasharray:none;stroke-opacity:1"
       d="M 758.28637,606.55388 H 705.9357 v -52.35067 h 52.35067 z" /><path
       inkscape:connector-curvature="0"
       id="path4068"
       style="display:inline;fill:none;stroke:#ff0000;stroke-width:0.37733331;stroke-linecap:round;stroke-linejoin:round;stroke-miterlimit:10;stroke-dasharray:none;stroke-opacity:1"
       d="m 686.47037,471.89921 h -52.35066 v -52.35067 h 52.35066 z" /><path
       inkscape:connector-curvature="0"
       id="path4070"
       style="display:inline;fill:none;stroke:#ff0000;stroke-width:0.37733331;stroke-linecap:round;stroke-linejoin:round;stroke-miterlimit:10;stroke-dasharray:none;stroke-opacity:1"
       d="m 686.47037,543.71521 h -52.35066 v -52.35067 h 52.35066 z" /><path
       inkscape:connector-curvature="0"
       id="path4072"
       style="display:inline;fill:none;stroke:#ff0000;stroke-width:0.37733331;stroke-linecap:round;stroke-linejoin:round;stroke-miterlimit:10;stroke-dasharray:none;stroke-opacity:1"
       d="m 686.47037,615.52987 h -52.35066 v -52.35066 h 52.35066 z" /><path
       inkscape:connector-curvature="0"
       id="path4074"
       style="display:inline;fill:none;stroke:#ff0000;stroke-width:0.37733331;stroke-linecap:round;stroke-linejoin:round;stroke-miterlimit:10;stroke-dasharray:none;stroke-opacity:1"
       d="m 614.65437,480.87521 h -52.35066 v -52.35067 h 52.35066 z" /><path
       inkscape:connector-curvature="0"
       id="path4076"
       style="display:inline;fill:none;stroke:#ff0000;stroke-width:0.37733331;stroke-linecap:round;stroke-linejoin:round;stroke-miterlimit:10;stroke-dasharray:none;stroke-opacity:1"
       d="m 614.65437,552.69254 h -52.35066 v -52.35066 h 52.35066 z" /><path
       inkscape:connector-curvature="0"
       id="path4078"
       style="display:inline;fill:none;stroke:#ff0000;stroke-width:0.37733331;stroke-linecap:round;stroke-linejoin:round;stroke-miterlimit:10;stroke-dasharray:none;stroke-opacity:1"
       d="m 614.65437,624.50854 h -52.35066 v -52.35066 h 52.35066 z" /><path
       inkscape:connector-curvature="0"
       id="path4080"
       style="display:inline;fill:none;stroke:#ff0000;stroke-width:0.37733331;stroke-linecap:round;stroke-linejoin:round;stroke-miterlimit:10;stroke-dasharray:none;stroke-opacity:1"
       d="m 635.33957,641.89241 13.49734,50.58134 -50.58,13.49733 -13.49867,-50.58 z" /><path
       inkscape:connector-curvature="0"
       id="path4082"
       style="display:inline;fill:none;stroke:#ff0000;stroke-width:0.37733331;stroke-linecap:round;stroke-linejoin:round;stroke-miterlimit:10;stroke-dasharray:none;stroke-opacity:1"
       d="m 542.31478,652.32987 26.144,45.356 -45.35333,26.14267 -26.14533,-45.35467 z" /><path
       inkscape:connector-curvature="0"
       id="path4084"
       style="display:inline;fill:none;stroke:#ff0000;stroke-width:0.37733331;stroke-linecap:round;stroke-linejoin:round;stroke-miterlimit:10;stroke-dasharray:none;stroke-opacity:1"
       d="m 542.20928,423.66708 v 178.98533 c -0.22666,1.976 -1.112,2.95333 -2.416,4.08933 l -71.20399,41.032 c -1.52934,0.644 -3.292,-0.076 -3.93467,-1.60533 -0.0933,-0.22533 -0.16133,-0.46267 -0.19733,-0.70267 l 0.003,-221.75999 c 0,-1.04267 0.84667,-1.88934 1.88934,-1.88934 l 73.96933,-0.0413 c 1.044,0.001 1.88933,0.848 1.89066,1.892" /><path
       inkscape:connector-curvature="0"
       id="path4086"
       style="display:inline;fill:none;stroke:#ff0000;stroke-width:0.37733331;stroke-linecap:round;stroke-linejoin:round;stroke-miterlimit:10;stroke-dasharray:none;stroke-opacity:1"
       d="m 532.84598,601.20494 c 0,-2.29733 -1.86133,-4.15733 -4.15733,-4.15733 -2.296,0 -4.15733,1.86 -4.15733,4.15733 0,2.296 1.86133,4.15734 4.15733,4.15734 2.296,0 4.15733,-1.86134 4.15733,-4.15734 z" /><path
       inkscape:connector-curvature="0"
       id="path4088"
       style="display:inline;fill:none;stroke:#ff0000;stroke-width:0.37733331;stroke-linecap:round;stroke-linejoin:round;stroke-miterlimit:10;stroke-dasharray:none;stroke-opacity:1"
       d="m 478.04008,633.33254 c 0,-2.296 -1.86133,-4.15733 -4.15866,-4.15733 -2.296,0 -4.15734,1.86133 -4.15734,4.15733 0,2.29734 1.86134,4.15734 4.15734,4.15734 2.29733,0 4.15866,-1.86 4.15866,-4.15734 z" /><path
       inkscape:connector-curvature="0"
       id="path4090"
       style="display:inline;fill:none;stroke:#ff0000;stroke-width:0.37733331;stroke-linecap:round;stroke-linejoin:round;stroke-miterlimit:10;stroke-dasharray:none;stroke-opacity:1"
       d="m 628.45277,485.92108 c 0,-2.29733 -1.86133,-4.15866 -4.15733,-4.15866 -2.29733,0 -4.15733,1.86133 -4.15733,4.15866 0,2.296 1.86,4.15734 4.15733,4.15734 2.296,0 4.15733,-1.86134 4.15733,-4.15734 z" /><path
       inkscape:connector-curvature="0"
       id="path4092"
       style="display:inline;fill:none;stroke:#ff0000;stroke-width:0.37733331;stroke-linecap:round;stroke-linejoin:round;stroke-miterlimit:10;stroke-dasharray:none;stroke-opacity:1"
       d="M 722.37837,689.70854 H 670.0277 v -52.35067 h 52.35067 z" /></g><g
     style="display:inline"
     inkscape:label="bottom-l"
     id="g4108"
     inkscape:groupmode="layer"
     sodipodi:insensitive="true"><path
       sodipodi:nodetypes="cccssccsssssssssssssssssccssccccccccccc"
       inkscape:connector-curvature="0"
       id="path4096"
       style="display:inline;fill:none;stroke:#ff0000;stroke-width:0.37733331;stroke-linecap:round;stroke-linejoin:round;stroke-miterlimit:10;stroke-dasharray:none;stroke-opacity:1"
       d="m 158.14012,252.97166 c -0.35467,-0.35467 -0.83467,-0.55333 -1.336,-0.55333 H 20.455133 c -1.04399,0 -1.88932,-0.84667 -1.88932,-1.89067 V 41.694333 c 0,-1.044 0.84533,-1.889333 1.88932,-1.889333 h 68.31299 c 1.04267,0 1.88934,-0.846667 1.88934,-1.890667 V 23.739667 c 0,-1.042667 0.84533,-1.889334 1.88933,-1.889334 h 68.037327 c 1.04267,0 1.88933,-0.846666 1.88933,-1.890666 v -4.724 c 0,-1.044 0.84667,-1.889333 1.88934,-1.889333 h 64.25733 c 1.044,0 1.88933,0.845333 1.88933,1.889333 v 4.724 c 0,1.044 0.84667,1.890666 1.89067,1.890666 h 68.036 c 1.044,0 1.88933,0.846667 1.88933,1.889334 v 5.670666 c 0,1.042667 0.84667,1.889334 1.89067,1.889334 h 68.03595 c 1.044,0 1.8894,0.846666 1.8894,1.890666 v 4.665333 c 0.108,1.013334 0.8866,1.826667 1.8933,1.978667 h 74.6507 c 1.044,0 1.8906,0.846667 1.8906,1.889333 V 264.56766 c -0.164,3.07467 -1.092,6.05867 -2.7013,8.684 l -50.0307,87.08 c -0.017,0.0267 -0.036,0.0533 -0.055,0.08 -1.0507,1.48533 -3.108,1.84 -4.5934,0.78933 l -55.74795,-32.088 c -0.344,-0.11867 -0.69867,-0.21067 -1.05867,-0.272 l -139.06266,-20.672 c -0.48934,-0.0493 -0.95067,-0.24666 -1.324,-0.56533 0,0 -39.876,-54.65067 -39.86267,-54.632 z" /><path
       inkscape:connector-curvature="0"
       id="path4098"
       style="display:inline;fill:none;stroke:#ff0000;stroke-width:0.37733331;stroke-linecap:round;stroke-linejoin:round;stroke-miterlimit:10;stroke-dasharray:none;stroke-opacity:1"
       d="m 176.24439,246.73206 c 0,-2.296 1.86133,-4.15733 4.15867,-4.15733 2.296,0 4.15733,1.86133 4.15733,4.15733 0,2.29733 -1.86133,4.15733 -4.15733,4.15733 -2.29734,0 -4.15867,-1.86 -4.15867,-4.15733 z" /><path
       inkscape:connector-curvature="0"
       id="path4100"
       style="display:inline;fill:none;stroke:#ff0000;stroke-width:0.37733331;stroke-linecap:round;stroke-linejoin:round;stroke-miterlimit:10;stroke-dasharray:none;stroke-opacity:1"
       d="m 300.13105,96.506861 c 0,-2.29733 1.86133,-4.15867 4.15733,-4.15867 2.296,0 4.15867,1.86134 4.15867,4.15867 0,2.296 -1.86267,4.157329 -4.15867,4.157329 -2.296,0 -4.15733,-1.861329 -4.15733,-4.157329 z" /><path
       inkscape:connector-curvature="0"
       id="path4102"
       style="display:inline;fill:none;stroke:#ff0000;stroke-width:0.37733331;stroke-linecap:round;stroke-linejoin:round;stroke-miterlimit:10;stroke-dasharray:none;stroke-opacity:1"
       d="m 84.575603,110.197 c 0,-2.296 1.86133,-4.15733 4.15867,-4.15733 2.296,0 4.15733,1.86133 4.15733,4.15733 0,2.29733 -1.86133,4.15733 -4.15733,4.15733 -2.29734,0 -4.15867,-1.86 -4.15867,-4.15733 z" /><path
       inkscape:connector-curvature="0"
       id="path4104"
       style="display:inline;fill:none;stroke:#ff0000;stroke-width:0.37733331;stroke-linecap:round;stroke-linejoin:round;stroke-miterlimit:10;stroke-dasharray:none;stroke-opacity:1"
       d="m 84.591143,181.98701 c 0,-2.29733 1.86133,-4.15733 4.15867,-4.15733 2.296,0 4.15733,1.86 4.15733,4.15733 0,2.29733 -1.86133,4.15733 -4.15733,4.15733 -2.29734,0 -4.15867,-1.86 -4.15867,-4.15733 z" /><path
       inkscape:connector-curvature="0"
       id="path4106"
       style="display:inline;fill:none;stroke:#ff0000;stroke-width:0.37733331;stroke-linecap:round;stroke-linejoin:round;stroke-miterlimit:10;stroke-dasharray:none;stroke-opacity:1"
       d="m 352.06785,276.04073 c 0,-2.29733 1.86133,-4.15733 4.15867,-4.15733 2.296,0 4.15733,1.86 4.15733,4.15733 0,2.296 -1.86133,4.15733 -4.15733,4.15733 -2.29734,0 -4.15867,-1.86133 -4.15867,-4.15733 z" /></g><g
     inkscape:groupmode="layer"
     id="layer2"
     inkscape:label="top-l"
     style="display:inline"
     sodipodi:insensitive="true"><g
       style="display:inline"
       id="g127"
       transform="matrix(1.3333333,0,0,-1.3333333,605.03094,254.39107)"><path
         d="m 0,0 c -0.266,0.266 -0.626,0.415 -1.002,0.415 h -102.26124 c -0.783,0 -1.417,0.635 -1.417,1.418 v 156.625 c 0,0.783 0.634,1.417 1.417,1.417 H -52.029 c 0.782,0 1.417,0.635 1.417,1.418 v 10.631 c 0,0.782 0.634,1.417 1.417,1.417 H 1.833 c 0.782,0 1.417,0.635 1.417,1.418 v 3.543 c 0,0.783 0.635,1.418 1.418,1.418 H 52.86 c 0.783,0 1.417,-0.635 1.417,-1.418 v -3.543 c 0,-0.783 0.635,-1.418 1.417,-1.418 h 51.028 c 0.783,0 1.418,-0.635 1.418,-1.417 v -4.253 c 0,-0.782 0.634,-1.417 1.417,-1.417 h 51.027 c 0.783,0 1.418,-0.635 1.418,-1.418 v -3.499 L 161.999,115.243 162,23.704 c 0.232,-1.086 0.808,-2.069 1.641,-2.806 l 54.076,-31.287 c 1.495,-1.123 1.954,-3.165 1.085,-4.821 l -37.524,-65.31 c -0.013,-0.02 -0.027,-0.04 -0.041,-0.06 -0.788,-1.114 -2.331,-1.38 -3.445,-0.592 l -41.811,24.066 c -0.258,0.089 -0.524,0.158 -0.794,0.204 L 30.89,-41.398 c -0.367,0.037 -0.713,0.185 -0.993,0.424 C 29.897,-40.974 -0.01,0.014 0,0 Z"
         style="fill:none;stroke:#ff0000;stroke-width:0.28299999;stroke-linecap:butt;stroke-linejoin:miter;stroke-miterlimit:10;stroke-dasharray:none;stroke-opacity:1"
         id="path129"
         inkscape:connector-curvature="0"
         sodipodi:nodetypes="cccssccssssssssssssssssscccccccccccccc" /></g><path
       d="m 535.63961,115.74322 c -2.296,0 -4.15733,-1.86134 -4.15733,-4.15867 0,-2.296 1.86133,-4.15733 4.15733,-4.15733 2.29733,0 4.15733,1.86133 4.15733,4.15733 0,2.29733 -1.86,4.15867 -4.15733,4.15867 z"
       style="display:inline;fill:none;stroke:#ff0000;stroke-width:0.37733331;stroke-linecap:round;stroke-linejoin:round;stroke-miterlimit:10;stroke-dasharray:none;stroke-opacity:1"
       id="path137"
       inkscape:connector-curvature="0" /><path
       d="m 531.48262,183.40122 c 0,-2.296 1.86134,-4.15733 4.15867,-4.15733 2.296,0 4.15733,1.86133 4.15733,4.15733 0,2.29734 -1.86133,4.15734 -4.15733,4.15734 -2.29733,0 -4.15867,-1.86 -4.15867,-4.15734 z"
       style="display:inline;fill:none;stroke:#ff0000;stroke-width:0.37733331;stroke-linecap:round;stroke-linejoin:round;stroke-miterlimit:10;stroke-dasharray:none;stroke-opacity:1"
       id="path141"
       inkscape:connector-curvature="0" /><path
       d="m 798.95934,277.45494 c 0,-2.29733 1.86133,-4.15733 4.15733,-4.15733 2.296,0 4.15733,1.86 4.15733,4.15733 0,2.29734 -1.86133,4.15734 -4.15733,4.15734 -2.296,0 -4.15733,-1.86 -4.15733,-4.15734 z"
       style="display:inline;fill:none;stroke:#ff0000;stroke-width:0.37733331;stroke-linecap:round;stroke-linejoin:round;stroke-miterlimit:10;stroke-dasharray:none;stroke-opacity:1"
       id="path145"
       inkscape:connector-curvature="0" /><path
       d="m 623.13507,248.14627 c 0,-2.296 1.86133,-4.15733 4.15733,-4.15733 2.29733,0 4.15867,1.86133 4.15867,4.15733 0,2.29734 -1.86134,4.15734 -4.15867,4.15734 -2.296,0 -4.15733,-1.86 -4.15733,-4.15734 z"
       style="display:inline;fill:none;stroke:#ff0000;stroke-width:0.37733331;stroke-linecap:round;stroke-linejoin:round;stroke-miterlimit:10;stroke-dasharray:none;stroke-opacity:1"
       id="path149"
       inkscape:connector-curvature="0" /><path
       d="m 473.55627,101.85254 h 52.35067 V 49.503213 h -52.35067 z"
       style="display:inline;fill:none;stroke:#ff0000;stroke-width:0.37733331;stroke-linecap:round;stroke-linejoin:round;stroke-miterlimit:10;stroke-dasharray:none;stroke-opacity:1"
       id="path157"
       inkscape:connector-curvature="0"
       sodipodi:nodetypes="ccccc" /><path
       d="m 473.55627,173.66854 h 52.35067 v -52.35066 h -52.35067 z"
       style="display:inline;fill:none;stroke:#ff0000;stroke-width:0.37733331;stroke-linecap:round;stroke-linejoin:round;stroke-miterlimit:10;stroke-dasharray:none;stroke-opacity:1"
       id="path159"
       inkscape:connector-curvature="0" /><path
       d="m 473.55627,245.48454 h 52.35067 v -52.35066 h -52.35067 z"
       style="display:inline;fill:none;stroke:#ff0000;stroke-width:0.37733331;stroke-linecap:round;stroke-linejoin:round;stroke-miterlimit:10;stroke-dasharray:none;stroke-opacity:1"
       id="path161"
       inkscape:connector-curvature="0" /><path
       d="m 545.37227,83.899212 h 52.35067 V 31.548546 h -52.35067 z"
       style="display:inline;fill:none;stroke:#ff0000;stroke-width:0.37733331;stroke-linecap:round;stroke-linejoin:round;stroke-miterlimit:10;stroke-dasharray:none;stroke-opacity:1"
       id="path163"
       inkscape:connector-curvature="0" /><path
       d="m 545.37227,155.71521 h 52.35067 v -52.35067 h -52.35067 z"
       style="display:inline;fill:none;stroke:#ff0000;stroke-width:0.37733331;stroke-linecap:round;stroke-linejoin:round;stroke-miterlimit:10;stroke-dasharray:none;stroke-opacity:1"
       id="path165"
       inkscape:connector-curvature="0" /><path
       d="m 545.37227,227.52987 h 52.35067 v -52.35066 h -52.35067 z"
       style="display:inline;fill:none;stroke:#ff0000;stroke-width:0.37733331;stroke-linecap:round;stroke-linejoin:round;stroke-miterlimit:10;stroke-dasharray:none;stroke-opacity:1"
       id="path167"
       inkscape:connector-curvature="0" /><path
       d="m 617.18827,74.920545 h 52.35067 V 22.56988 h -52.35067 z"
       style="display:inline;fill:none;stroke:#ff0000;stroke-width:0.37733331;stroke-linecap:round;stroke-linejoin:round;stroke-miterlimit:10;stroke-dasharray:none;stroke-opacity:1"
       id="path169"
       inkscape:connector-curvature="0" /><path
       d="m 617.18827,146.73788 h 52.35067 V 94.387212 h -52.35067 z"
       style="display:inline;fill:none;stroke:#ff0000;stroke-width:0.37733331;stroke-linecap:round;stroke-linejoin:round;stroke-miterlimit:10;stroke-dasharray:none;stroke-opacity:1"
       id="path171"
       inkscape:connector-curvature="0" /><path
       d="m 617.18827,218.55388 h 52.35067 v -52.35067 h -52.35067 z"
       style="display:inline;fill:none;stroke:#ff0000;stroke-width:0.37733331;stroke-linecap:round;stroke-linejoin:round;stroke-miterlimit:10;stroke-dasharray:none;stroke-opacity:1"
       id="path173"
       inkscape:connector-curvature="0" /><path
       d="m 689.00427,83.899212 h 52.35066 V 31.548546 h -52.35066 z"
       style="display:inline;fill:none;stroke:#ff0000;stroke-width:0.37733331;stroke-linecap:round;stroke-linejoin:round;stroke-miterlimit:10;stroke-dasharray:none;stroke-opacity:1"
       id="path175"
       inkscape:connector-curvature="0" /><path
       d="m 689.00427,155.71521 h 52.35066 v -52.35067 h -52.35066 z"
       style="display:inline;fill:none;stroke:#ff0000;stroke-width:0.37733331;stroke-linecap:round;stroke-linejoin:round;stroke-miterlimit:10;stroke-dasharray:none;stroke-opacity:1"
       id="path177"
       inkscape:connector-curvature="0" /><path
       d="m 689.00427,227.52987 h 52.35066 v -52.35066 h -52.35066 z"
       style="display:inline;fill:none;stroke:#ff0000;stroke-width:0.37733331;stroke-linecap:round;stroke-linejoin:round;stroke-miterlimit:10;stroke-dasharray:none;stroke-opacity:1"
       id="path179"
       inkscape:connector-curvature="0" /><path
       d="m 760.82027,92.875212 h 52.35066 V 40.524546 h -52.35066 z"
       style="display:inline;fill:none;stroke:#ff0000;stroke-width:0.37733331;stroke-linecap:round;stroke-linejoin:round;stroke-miterlimit:10;stroke-dasharray:none;stroke-opacity:1"
       id="path181"
       inkscape:connector-curvature="0" /><path
       d="m 760.82027,164.69254 h 52.35066 v -52.35066 h -52.35066 z"
       style="display:inline;fill:none;stroke:#ff0000;stroke-width:0.37733331;stroke-linecap:round;stroke-linejoin:round;stroke-miterlimit:10;stroke-dasharray:none;stroke-opacity:1"
       id="path183"
       inkscape:connector-curvature="0" /><path
       d="m 760.82027,236.50854 h 52.35066 v -52.35066 h -52.35066 z"
       style="display:inline;fill:none;stroke:#ff0000;stroke-width:0.37733331;stroke-linecap:round;stroke-linejoin:round;stroke-miterlimit:10;stroke-dasharray:none;stroke-opacity:1"
       id="path185"
       inkscape:connector-curvature="0" /><path
       d="m 740.13507,253.89241 -13.49734,50.58134 50.58,13.49733 13.49867,-50.58 z"
       style="display:inline;fill:none;stroke:#ff0000;stroke-width:0.37733331;stroke-linecap:round;stroke-linejoin:round;stroke-miterlimit:10;stroke-dasharray:none;stroke-opacity:1"
       id="path191"
       inkscape:connector-curvature="0" /><path
       d="m 833.15986,264.32987 -26.144,45.356 45.35333,26.14267 26.14533,-45.35467 z"
       style="display:inline;fill:none;stroke:#ff0000;stroke-width:0.37733331;stroke-linecap:round;stroke-linejoin:round;stroke-miterlimit:10;stroke-dasharray:none;stroke-opacity:1"
       id="path195"
       inkscape:connector-curvature="0" /><path
       d="M 833.26536,35.667082 V 214.65241 c 0.22666,1.976 1.112,2.95333 2.416,4.08933 l 71.20399,41.032 c 1.52934,0.644 3.292,-0.076 3.93467,-1.60533 0.0933,-0.22533 0.16133,-0.46267 0.19733,-0.70267 l -0.003,-221.759991 c 0,-1.042667 -0.84667,-1.889333 -1.88934,-1.889333 l -73.96933,-0.04133 c -1.044,0.0013 -1.88933,0.848 -1.89066,1.892"
       style="display:inline;fill:none;stroke:#ff0000;stroke-width:0.37733331;stroke-linecap:round;stroke-linejoin:round;stroke-miterlimit:10;stroke-dasharray:none;stroke-opacity:1"
       id="path293"
       inkscape:connector-curvature="0" /><path
       d="m 842.62866,213.20494 c 0,-2.29733 1.86133,-4.15733 4.15733,-4.15733 2.296,0 4.15733,1.86 4.15733,4.15733 0,2.296 -1.86133,4.15734 -4.15733,4.15734 -2.296,0 -4.15733,-1.86134 -4.15733,-4.15734 z"
       style="display:inline;fill:none;stroke:#ff0000;stroke-width:0.37733331;stroke-linecap:round;stroke-linejoin:round;stroke-miterlimit:10;stroke-dasharray:none;stroke-opacity:1"
       id="path297"
       inkscape:connector-curvature="0" /><path
       d="m 897.43456,245.33254 c 0,-2.296 1.86133,-4.15733 4.15866,-4.15733 2.296,0 4.15734,1.86133 4.15734,4.15733 0,2.29734 -1.86134,4.15734 -4.15734,4.15734 -2.29733,0 -4.15866,-1.86 -4.15866,-4.15734 z"
       style="display:inline;fill:none;stroke:#ff0000;stroke-width:0.37733331;stroke-linecap:round;stroke-linejoin:round;stroke-miterlimit:10;stroke-dasharray:none;stroke-opacity:1"
       id="path301"
       inkscape:connector-curvature="0" /><path
       d="m 747.02187,97.921084 c 0,-2.297333 1.86133,-4.158666 4.15733,-4.158666 2.29733,0 4.15733,1.861333 4.15733,4.158666 0,2.295996 -1.86,4.157336 -4.15733,4.157336 -2.296,0 -4.15733,-1.86134 -4.15733,-4.157336 z"
       style="display:inline;fill:none;stroke:#ff0000;stroke-width:0.37733331;stroke-linecap:round;stroke-linejoin:round;stroke-miterlimit:10;stroke-dasharray:none;stroke-opacity:1"
       id="path133"
       inkscape:connector-curvature="0" /><path
       d="m 653.09627,301.70854 h 52.35067 v -52.35067 h -52.35067 z"
       style="display:inline;fill:none;stroke:#ff0000;stroke-width:0.37733331;stroke-linecap:round;stroke-linejoin:round;stroke-miterlimit:10;stroke-dasharray:none;stroke-opacity:1"
       id="path187"
       inkscape:connector-curvature="0" /></g></svg>