<?xml version="1.0" encoding="UTF-8" standalone="no"?>
<svg
   xmlns:dc="http://purl.org/dc/elements/1.1/"
   xmlns:cc="http://creativecommons.org/ns#"
   xmlns:rdf="http://www.w3.org/1999/02/22-rdf-syntax-ns#"
   xmlns:svg="http://www.w3.org/2000/svg"
   xmlns="http://www.w3.org/2000/svg"
   xmlns:sodipodi="http://sodipodi.sourceforge.net/DTD/sodipodi-0.dtd"
   xmlns:inkscape="http://www.inkscape.org/namespaces/inkscape"
   sodipodi:docname="bottom.svg"
   viewBox="0 0 561.26001 793.70135"
   height="793.70135"
   width="561.26001"
   xml:space="preserve"
   id="svg2"
   version="1.1"
   inkscape:version="1.0.2-2 (e86c870879, 2021-01-15)"><metadata
     id="metadata8"><rdf:RDF><cc:Work
         rdf:about=""><dc:format>image/svg+xml</dc:format><dc:type
           rdf:resource="http://purl.org/dc/dcmitype/StillImage" /><dc:title></dc:title></cc:Work></rdf:RDF></metadata><defs
     id="defs6"><clipPath
       id="clipPath18"
       clipPathUnits="userSpaceOnUse"><path
         id="path16"
         d="M 0,595.276 H 420.945 V 0 H 0 Z" /></clipPath><clipPath
       id="clipPath66"
       clipPathUnits="userSpaceOnUse"><path
         id="path64"
         d="M 0,595.276 H 420.945 V 0 H 0 Z" /></clipPath><clipPath
       id="clipPath370"
       clipPathUnits="userSpaceOnUse"><path
         id="path368"
         d="M 0,595.276 H 420.945 V 0 H 0 Z" /></clipPath></defs><sodipodi:namedview
     id="namedview4"
     inkscape:window-height="1057"
     inkscape:window-width="1920"
     inkscape:pageshadow="2"
     inkscape:pageopacity="0"
     guidetolerance="10"
     gridtolerance="10"
     objecttolerance="10"
     borderopacity="1"
     bordercolor="#666666"
     pagecolor="#ffffff"
     inkscape:document-rotation="0"
     showgrid="false"
     inkscape:zoom="0.79289903"
     inkscape:cx="328.15685"
     inkscape:cy="486.98634"
     inkscape:window-x="1912"
     inkscape:window-y="-8"
     inkscape:window-maximized="1"
     inkscape:current-layer="g10" /><g
     transform="matrix(1.3333333,0,0,-1.3333333,0,793.70133)"
     inkscape:label="bottom"
     inkscape:groupmode="layer"
     id="g10"><g
       id="g12"
       style="stroke-width:0.99975002;stroke-miterlimit:4;stroke-dasharray:none"><g
         clip-path="url(#clipPath18)"
         id="g14"
         style="stroke-width:0.99975002;stroke-miterlimit:4;stroke-dasharray:none"><g
           transform="translate(127.4732,476.6954)"
           id="g20"
           style="stroke-width:0.99975002;stroke-miterlimit:4;stroke-dasharray:none"><path
             id="path22"
             style="fill:#231815;fill-opacity:1;fill-rule:nonzero;stroke:none;stroke-width:0.99975002;stroke-miterlimit:4;stroke-dasharray:none"
             d="m 0,0 c 0,11.913 6.347,19.456 15.918,19.456 4.371,0 7.7,-2.185 9.624,-4.474 l -1.196,-1.3 c -2.029,2.34 -4.889,3.953 -8.428,3.953 C 7.283,17.635 2.029,10.82 2.029,0 c 0,-10.821 5.254,-17.844 13.681,-17.844 3.955,0 6.92,1.613 9.781,4.786 l 1.196,-1.248 c -2.861,-3.33 -6.19,-5.358 -11.08,-5.358 C 6.294,-19.664 0,-11.914 0,0" /></g><g
           transform="translate(188.3404,476.6954)"
           id="g24"
           style="stroke-width:0.99975002;stroke-miterlimit:4;stroke-dasharray:none"><path
             id="path26"
             style="fill:#231815;fill-opacity:1;fill-rule:nonzero;stroke:none;stroke-width:0.99975002;stroke-miterlimit:4;stroke-dasharray:none"
             d="m 0,0 c 0,10.82 -5.358,17.635 -13.318,17.635 -7.959,0 -13.317,-6.815 -13.317,-17.635 0,-10.821 5.358,-17.844 13.317,-17.844 C -5.358,-17.844 0,-10.821 0,0 m -28.665,0 c 0,11.913 6.399,19.456 15.347,19.456 8.948,0 15.347,-7.543 15.347,-19.456 0,-11.914 -6.399,-19.664 -15.347,-19.664 -8.948,0 -15.347,7.75 -15.347,19.664" /></g><g
           transform="translate(209.0987,477.1632)"
           id="g28"
           style="stroke-width:0.99975002;stroke-miterlimit:4;stroke-dasharray:none"><path
             id="path30"
             style="fill:#231815;fill-opacity:1;fill-rule:nonzero;stroke:none;stroke-width:0.99975002;stroke-miterlimit:4;stroke-dasharray:none"
             d="m 0,0 c 6.919,0 10.769,2.757 10.769,8.584 0,5.879 -3.85,8.012 -10.769,8.012 H -7.855 V 0 Z M 11.185,-19.456 0.521,-1.665 H -7.855 V -19.456 H -9.78 V 18.312 H 0.676 c 7.44,0 12.174,-2.757 12.174,-9.728 C 12.85,2.497 9,-0.937 2.757,-1.561 l 10.665,-17.895 z" /></g><g
           transform="translate(229.9605,495.4757)"
           id="g32"
           style="stroke-width:0.99975002;stroke-miterlimit:4;stroke-dasharray:none"><path
             id="path34"
             style="fill:#231815;fill-opacity:1;fill-rule:nonzero;stroke:none;stroke-width:0.99975002;stroke-miterlimit:4;stroke-dasharray:none"
             d="m 0,0 h 2.029 l 16.647,-27.521 4.318,-7.439 h 0.26 c -0.208,3.643 -0.312,7.127 -0.312,10.665 V 0 h 1.872 v -37.769 h -2.08 L 6.139,-10.249 1.821,-2.81 H 1.613 C 1.717,-6.347 1.821,-9.572 1.821,-13.162 V -37.769 H 0 Z" /></g><g
           transform="translate(266.1705,495.4757)"
           id="g36"
           style="stroke-width:0.99975002;stroke-miterlimit:4;stroke-dasharray:none"><path
             id="path38"
             style="fill:#231815;fill-opacity:1;fill-rule:nonzero;stroke:none;stroke-width:0.99975002;stroke-miterlimit:4;stroke-dasharray:none"
             d="M 0,0 H 20.288 V -1.717 H 1.924 v -15.035 h 15.399 v -1.716 H 1.924 V -36.052 H 20.86 v -1.717 H 0 Z" /></g><g
           transform="translate(132.7242,195.7179)"
           id="g40"
           style="stroke-width:0.99975002;stroke-miterlimit:4;stroke-dasharray:none"><path
             id="path42"
             style="fill:#231815;fill-opacity:1;fill-rule:nonzero;stroke:none;stroke-width:0.99975002;stroke-miterlimit:4;stroke-dasharray:none"
             d="m 0,0 c 0,11.913 6.347,19.456 15.918,19.456 4.371,0 7.7,-2.185 9.624,-4.474 l -1.196,-1.3 c -2.029,2.341 -4.889,3.954 -8.428,3.954 C 7.283,17.636 2.029,10.821 2.029,0 c 0,-10.82 5.254,-17.844 13.682,-17.844 3.954,0 6.919,1.614 9.78,4.786 l 1.196,-1.248 c -2.861,-3.329 -6.19,-5.358 -11.08,-5.358 C 6.294,-19.664 0,-11.913 0,0" /></g><g
           transform="translate(193.5914,195.7179)"
           id="g44"
           style="stroke-width:0.99975002;stroke-miterlimit:4;stroke-dasharray:none"><path
             id="path46"
             style="fill:#231815;fill-opacity:1;fill-rule:nonzero;stroke:none;stroke-width:0.99975002;stroke-miterlimit:4;stroke-dasharray:none"
             d="m 0,0 c 0,10.821 -5.358,17.636 -13.318,17.636 -7.959,0 -13.317,-6.815 -13.317,-17.636 0,-10.82 5.358,-17.844 13.317,-17.844 C -5.358,-17.844 0,-10.82 0,0 m -28.664,0 c 0,11.913 6.398,19.456 15.346,19.456 8.948,0 15.347,-7.543 15.347,-19.456 0,-11.913 -6.399,-19.664 -15.347,-19.664 -8.948,0 -15.346,7.751 -15.346,19.664" /></g><g
           transform="translate(214.3497,196.1857)"
           id="g48"
           style="stroke-width:0.99975002;stroke-miterlimit:4;stroke-dasharray:none"><path
             id="path50"
             style="fill:#231815;fill-opacity:1;fill-rule:nonzero;stroke:none;stroke-width:0.99975002;stroke-miterlimit:4;stroke-dasharray:none"
             d="m 0,0 c 6.919,0 10.769,2.758 10.769,8.584 0,5.879 -3.85,8.012 -10.769,8.012 H -7.855 V 0 Z M 11.185,-19.455 0.521,-1.664 H -7.855 V -19.455 H -9.78 V 18.312 H 0.676 c 7.44,0 12.174,-2.756 12.174,-9.728 C 12.85,2.497 9,-0.936 2.757,-1.56 l 10.665,-17.895 z" /></g><g
           transform="translate(235.2115,214.4982)"
           id="g52"
           style="stroke-width:0.99975002;stroke-miterlimit:4;stroke-dasharray:none"><path
             id="path54"
             style="fill:#231815;fill-opacity:1;fill-rule:nonzero;stroke:none;stroke-width:0.99975002;stroke-miterlimit:4;stroke-dasharray:none"
             d="m 0,0 h 2.029 l 16.647,-27.52 4.318,-7.439 h 0.26 c -0.208,3.642 -0.312,7.127 -0.312,10.665 V 0 h 1.872 v -37.768 h -2.08 L 6.139,-10.248 1.821,-2.81 H 1.613 C 1.717,-6.347 1.821,-9.572 1.821,-13.162 V -37.768 H 0 Z" /></g><g
           transform="translate(271.4214,214.4982)"
           id="g56"
           style="stroke-width:0.99975002;stroke-miterlimit:4;stroke-dasharray:none"><path
             id="path58"
             style="fill:#231815;fill-opacity:1;fill-rule:nonzero;stroke:none;stroke-width:0.99975002;stroke-miterlimit:4;stroke-dasharray:none"
             d="M 0,0 H 20.289 V -1.717 H 1.924 v -15.034 h 15.399 v -1.717 H 1.924 V -36.051 H 20.86 v -1.717 H 0 Z" /></g></g></g><g
       id="g60"
       style="stroke-width:0.99975002;stroke-miterlimit:4;stroke-dasharray:none"><g
         clip-path="url(#clipPath66)"
         id="g62"
         style="stroke-width:0.99975002;stroke-miterlimit:4;stroke-dasharray:none"><g
           transform="translate(396.5235,383.756)"
           id="g68"
           style="stroke-width:0.99975002;stroke-miterlimit:4;stroke-dasharray:none"><path
             id="path70"
             style="fill:none;stroke:#0000ff;stroke-width:0.99975002;stroke-linecap:round;stroke-linejoin:round;stroke-miterlimit:4;stroke-dasharray:none;stroke-opacity:1"
             d="M 0,0 C 0.433,0.752 0.655,1.606 0.644,2.474" /></g><g
           transform="translate(353.5684,317.671)"
           id="g72"
           style="stroke-width:0.99975002;stroke-miterlimit:4;stroke-dasharray:none"><path
             id="path74"
             style="fill:none;stroke:#0000ff;stroke-width:0.99975002;stroke-linecap:round;stroke-linejoin:round;stroke-miterlimit:4;stroke-dasharray:none;stroke-opacity:1"
             d="M 0,0 C 1.8,-1.213 4.243,-0.737 5.457,1.062 5.459,1.067 5.462,1.071 5.465,1.076" /></g><g
           transform="translate(313.0499,341.088)"
           id="g76"
           style="stroke-width:0.99975002;stroke-miterlimit:4;stroke-dasharray:none"><path
             id="path78"
             style="fill:none;stroke:#0000ff;stroke-width:0.99975002;stroke-linecap:round;stroke-linejoin:round;stroke-miterlimit:4;stroke-dasharray:none;stroke-opacity:1"
             d="M 0,0 C -0.605,0.183 -1.227,0.306 -1.855,0.367" /></g><g
           transform="translate(359.0274,318.7501)"
           id="g80"
           style="stroke-width:0.99975002;stroke-miterlimit:4;stroke-dasharray:none"><path
             id="path82"
             style="fill:none;stroke:#0000ff;stroke-width:0.99975002;stroke-linecap:round;stroke-linejoin:round;stroke-miterlimit:4;stroke-dasharray:none;stroke-opacity:1"
             d="M 0,0 37.498,65.002" /></g><g
           transform="translate(313.0484,341.0919)"
           id="g84"
           style="stroke-width:0.99975002;stroke-miterlimit:4;stroke-dasharray:none"><path
             id="path86"
             style="fill:none;stroke:#0000ff;stroke-width:0.99975002;stroke-linecap:round;stroke-linejoin:round;stroke-miterlimit:4;stroke-dasharray:none;stroke-opacity:1"
             d="M 0,0 40.514,-23.414" /></g><g
           transform="translate(207.2442,354.9806)"
           id="g88"
           style="stroke-width:0.99975002;stroke-miterlimit:4;stroke-dasharray:none"><path
             id="path90"
             style="fill:none;stroke:#0000ff;stroke-width:0.99975002;stroke-linecap:round;stroke-linejoin:round;stroke-miterlimit:4;stroke-dasharray:none;stroke-opacity:1"
             d="M 0,0 103.946,-13.521" /></g><g
           transform="translate(206.2442,355.3927)"
           id="g92"
           style="stroke-width:0.99975002;stroke-miterlimit:4;stroke-dasharray:none"><path
             id="path94"
             style="fill:none;stroke:#0000ff;stroke-width:0.99975002;stroke-linecap:round;stroke-linejoin:round;stroke-miterlimit:4;stroke-dasharray:none;stroke-opacity:1"
             d="M 0,0 C 0.266,-0.266 0.626,-0.415 1.002,-0.415" /></g><g
           transform="translate(176.3565,396.381)"
           id="g96"
           style="stroke-width:0.99975002;stroke-miterlimit:4;stroke-dasharray:none"><path
             id="path98"
             style="fill:none;stroke:#0000ff;stroke-width:0.99975002;stroke-linecap:round;stroke-linejoin:round;stroke-miterlimit:4;stroke-dasharray:none;stroke-opacity:1"
             d="M 0,0 29.887,-40.982" /></g><g
           transform="translate(338.3419,561.2032)"
           id="g100"
           style="stroke-width:0.99975002;stroke-miterlimit:4;stroke-dasharray:none"><path
             id="path102"
             style="fill:none;stroke:#0000ff;stroke-width:0.99975002;stroke-linecap:round;stroke-linejoin:round;stroke-miterlimit:4;stroke-dasharray:none;stroke-opacity:1"
             d="M 0,0 V -3.543" /></g><g
           transform="translate(338.3482,561.1984)"
           id="g104"
           style="stroke-width:0.99975002;stroke-miterlimit:4;stroke-dasharray:none"><path
             id="path106"
             style="fill:none;stroke:#0000ff;stroke-width:0.99975002;stroke-linecap:round;stroke-linejoin:round;stroke-miterlimit:4;stroke-dasharray:none;stroke-opacity:1"
             d="M 0,0 C 0,0.782 -0.634,1.417 -1.417,1.417" /></g><g
           transform="translate(338.3482,557.6544)"
           id="g108"
           style="stroke-width:0.99975002;stroke-miterlimit:4;stroke-dasharray:none"><path
             id="path110"
             style="fill:none;stroke:#0000ff;stroke-width:0.99975002;stroke-linecap:round;stroke-linejoin:round;stroke-miterlimit:4;stroke-dasharray:none;stroke-opacity:1"
             d="m 0,0 c 0,-0.782 0.634,-1.417 1.417,-1.417 v 0" /></g><g
           transform="translate(395.7471,556.2423)"
           id="g112"
           style="stroke-width:0.99975002;stroke-miterlimit:4;stroke-dasharray:none"><path
             id="path114"
             style="fill:none;stroke:#0000ff;stroke-width:0.99975002;stroke-linecap:round;stroke-linejoin:round;stroke-miterlimit:4;stroke-dasharray:none;stroke-opacity:1"
             d="M 0,0 H -55.987" /></g><g
           transform="translate(176.3585,396.3731)"
           id="g116"
           style="stroke-width:0.99975002;stroke-miterlimit:4;stroke-dasharray:none"><path
             id="path118"
             style="fill:none;stroke:#0000ff;stroke-width:0.99975002;stroke-linecap:round;stroke-linejoin:round;stroke-miterlimit:4;stroke-dasharray:none;stroke-opacity:1"
             d="M 0,0 C -0.266,0.267 -0.626,0.416 -1.002,0.416" /></g><g
           transform="translate(18.0338,398.2061)"
           id="g120"
           style="stroke-width:0.99975002;stroke-miterlimit:4;stroke-dasharray:none"><path
             id="path122"
             style="fill:none;stroke:#0000ff;stroke-width:0.99975002;stroke-linecap:round;stroke-linejoin:round;stroke-miterlimit:4;stroke-dasharray:none;stroke-opacity:1"
             d="M 0,0 C 0,-0.783 0.635,-1.417 1.417,-1.417" /></g><g
           transform="translate(19.4512,556.2374)"
           id="g124"
           style="stroke-width:0.99975002;stroke-miterlimit:4;stroke-dasharray:none"><path
             id="path126"
             style="fill:none;stroke:#0000ff;stroke-width:0.99975002;stroke-linecap:round;stroke-linejoin:round;stroke-miterlimit:4;stroke-dasharray:none;stroke-opacity:1"
             d="M 0,0 C -0.783,0 -1.417,-0.635 -1.417,-1.417" /></g><g
           transform="translate(124.3326,556.2374)"
           id="g128"
           style="stroke-width:0.99975002;stroke-miterlimit:4;stroke-dasharray:none"><path
             id="path130"
             style="fill:none;stroke:#0000ff;stroke-width:0.99975002;stroke-linecap:round;stroke-linejoin:round;stroke-miterlimit:4;stroke-dasharray:none;stroke-opacity:1"
             d="M 0,0 C 0.783,0 1.417,0.634 1.418,1.417" /></g><g
           transform="translate(127.1675,569.7023)"
           id="g132"
           style="stroke-width:0.99975002;stroke-miterlimit:4;stroke-dasharray:none"><path
             id="path134"
             style="fill:none;stroke:#0000ff;stroke-width:0.99975002;stroke-linecap:round;stroke-linejoin:round;stroke-miterlimit:4;stroke-dasharray:none;stroke-opacity:1"
             d="M 0,0 C -0.783,-0.001 -1.417,-0.635 -1.417,-1.417" /></g><g
           transform="translate(178.191,569.7023)"
           id="g136"
           style="stroke-width:0.99975002;stroke-miterlimit:4;stroke-dasharray:none"><path
             id="path138"
             style="fill:none;stroke:#0000ff;stroke-width:0.99975002;stroke-linecap:round;stroke-linejoin:round;stroke-miterlimit:4;stroke-dasharray:none;stroke-opacity:1"
             d="M 0,0 C 0.783,-0.001 1.417,0.634 1.417,1.417" /></g><g
           transform="translate(181.0255,576.0802)"
           id="g140"
           style="stroke-width:0.99975002;stroke-miterlimit:4;stroke-dasharray:none"><path
             id="path142"
             style="fill:none;stroke:#0000ff;stroke-width:0.99975002;stroke-linecap:round;stroke-linejoin:round;stroke-miterlimit:4;stroke-dasharray:none;stroke-opacity:1"
             d="M 0,0 C -0.783,0 -1.417,-0.635 -1.417,-1.418" /></g><g
           transform="translate(230.6319,574.6622)"
           id="g144"
           style="stroke-width:0.99975002;stroke-miterlimit:4;stroke-dasharray:none"><path
             id="path146"
             style="fill:none;stroke:#0000ff;stroke-width:0.99975002;stroke-linecap:round;stroke-linejoin:round;stroke-miterlimit:4;stroke-dasharray:none;stroke-opacity:1"
             d="M 0,0 C 0,0.783 -0.634,1.418 -1.417,1.418" /></g><g
           transform="translate(230.6319,571.1193)"
           id="g148"
           style="stroke-width:0.99975002;stroke-miterlimit:4;stroke-dasharray:none"><path
             id="path150"
             style="fill:none;stroke:#0000ff;stroke-width:0.99975002;stroke-linecap:round;stroke-linejoin:round;stroke-miterlimit:4;stroke-dasharray:none;stroke-opacity:1"
             d="M 0,0 C 0,-0.782 0.634,-1.417 1.417,-1.417 H 1.418" /></g><g
           transform="translate(284.4903,568.2853)"
           id="g152"
           style="stroke-width:0.99975002;stroke-miterlimit:4;stroke-dasharray:none"><path
             id="path154"
             style="fill:none;stroke:#0000ff;stroke-width:0.99975002;stroke-linecap:round;stroke-linejoin:round;stroke-miterlimit:4;stroke-dasharray:none;stroke-opacity:1"
             d="M 0,0 C 0,0.782 -0.635,1.416 -1.417,1.417" /></g><g
           transform="translate(284.4903,564.0323)"
           id="g156"
           style="stroke-width:0.99975002;stroke-miterlimit:4;stroke-dasharray:none"><path
             id="path158"
             style="fill:none;stroke:#0000ff;stroke-width:0.99975002;stroke-linecap:round;stroke-linejoin:round;stroke-miterlimit:4;stroke-dasharray:none;stroke-opacity:1"
             d="M 0,0 C 0,-0.782 0.635,-1.417 1.417,-1.417" /></g><g
           transform="translate(397.1671,554.8204)"
           id="g160"
           style="stroke-width:0.99975002;stroke-miterlimit:4;stroke-dasharray:none"><path
             id="path162"
             style="fill:none;stroke:#0000ff;stroke-width:0.99975002;stroke-linecap:round;stroke-linejoin:round;stroke-miterlimit:4;stroke-dasharray:none;stroke-opacity:1"
             d="M 0,0 C 0,0.782 -0.634,1.417 -1.417,1.417" /></g><g
           transform="translate(397.1656,554.8234)"
           id="g164"
           style="stroke-width:0.99975002;stroke-miterlimit:4;stroke-dasharray:none"><path
             id="path166"
             style="fill:none;stroke:#0000ff;stroke-width:0.99975002;stroke-linecap:round;stroke-linejoin:round;stroke-miterlimit:4;stroke-dasharray:none;stroke-opacity:1"
             d="M 0,0 V -168.588" /></g><g
           transform="translate(175.3555,396.7911)"
           id="g168"
           style="stroke-width:0.99975002;stroke-miterlimit:4;stroke-dasharray:none"><path
             id="path170"
             style="fill:none;stroke:#0000ff;stroke-width:0.99975002;stroke-linecap:round;stroke-linejoin:round;stroke-miterlimit:4;stroke-dasharray:none;stroke-opacity:1"
             d="M 0,0 H -155.909" /></g><g
           transform="translate(18.0284,554.8234)"
           id="g172"
           style="stroke-width:0.99975002;stroke-miterlimit:4;stroke-dasharray:none"><path
             id="path174"
             style="fill:none;stroke:#0000ff;stroke-width:0.99975002;stroke-linecap:round;stroke-linejoin:round;stroke-miterlimit:4;stroke-dasharray:none;stroke-opacity:1"
             d="M 0,0 V -156.614" /></g><g
           transform="translate(124.3292,556.2423)"
           id="g176"
           style="stroke-width:0.99975002;stroke-miterlimit:4;stroke-dasharray:none"><path
             id="path178"
             style="fill:none;stroke:#0000ff;stroke-width:0.99975002;stroke-linecap:round;stroke-linejoin:round;stroke-miterlimit:4;stroke-dasharray:none;stroke-opacity:1"
             d="M 0,0 H -104.882" /></g><g
           transform="translate(125.7476,568.2882)"
           id="g180"
           style="stroke-width:0.99975002;stroke-miterlimit:4;stroke-dasharray:none"><path
             id="path182"
             style="fill:none;stroke:#0000ff;stroke-width:0.99975002;stroke-linecap:round;stroke-linejoin:round;stroke-miterlimit:4;stroke-dasharray:none;stroke-opacity:1"
             d="M 0,0 V -10.628" /></g><g
           transform="translate(178.1851,569.7062)"
           id="g184"
           style="stroke-width:0.99975002;stroke-miterlimit:4;stroke-dasharray:none"><path
             id="path186"
             style="fill:none;stroke:#0000ff;stroke-width:0.99975002;stroke-linecap:round;stroke-linejoin:round;stroke-miterlimit:4;stroke-dasharray:none;stroke-opacity:1"
             d="M 0,0 H -51.019" /></g><g
           transform="translate(179.6036,574.6671)"
           id="g188"
           style="stroke-width:0.99975002;stroke-miterlimit:4;stroke-dasharray:none"><path
             id="path190"
             style="fill:none;stroke:#0000ff;stroke-width:0.99975002;stroke-linecap:round;stroke-linejoin:round;stroke-miterlimit:4;stroke-dasharray:none;stroke-opacity:1"
             d="M 0,0 V -3.543" /></g><g
           transform="translate(229.2115,576.0851)"
           id="g192"
           style="stroke-width:0.99975002;stroke-miterlimit:4;stroke-dasharray:none"><path
             id="path194"
             style="fill:none;stroke:#0000ff;stroke-width:0.99975002;stroke-linecap:round;stroke-linejoin:round;stroke-miterlimit:4;stroke-dasharray:none;stroke-opacity:1"
             d="M 0,0 H -48.189" /></g><g
           transform="translate(230.6299,571.1241)"
           id="g196"
           style="stroke-width:0.99975002;stroke-miterlimit:4;stroke-dasharray:none"><path
             id="path198"
             style="fill:none;stroke:#0000ff;stroke-width:0.99975002;stroke-linecap:round;stroke-linejoin:round;stroke-miterlimit:4;stroke-dasharray:none;stroke-opacity:1"
             d="M 0,0 V 3.543" /></g><g
           transform="translate(283.0674,569.7062)"
           id="g200"
           style="stroke-width:0.99975002;stroke-miterlimit:4;stroke-dasharray:none"><path
             id="path202"
             style="fill:none;stroke:#0000ff;stroke-width:0.99975002;stroke-linecap:round;stroke-linejoin:round;stroke-miterlimit:4;stroke-dasharray:none;stroke-opacity:1"
             d="M 0,0 H -51.019" /></g><g
           transform="translate(284.4859,564.0402)"
           id="g204"
           style="stroke-width:0.99975002;stroke-miterlimit:4;stroke-dasharray:none"><path
             id="path206"
             style="fill:none;stroke:#0000ff;stroke-width:0.99975002;stroke-linecap:round;stroke-linejoin:round;stroke-miterlimit:4;stroke-dasharray:none;stroke-opacity:1"
             d="M 0,0 V 4.248" /></g><g
           transform="translate(336.9307,562.6212)"
           id="g208"
           style="stroke-width:0.99975002;stroke-miterlimit:4;stroke-dasharray:none"><path
             id="path210"
             style="fill:none;stroke:#0000ff;stroke-width:0.99975002;stroke-linecap:round;stroke-linejoin:round;stroke-miterlimit:4;stroke-dasharray:none;stroke-opacity:1"
             d="M 0,0 H -51.026" /></g><g
           transform="translate(400.543,46.0528)"
           id="g212"
           style="stroke-width:0.99975002;stroke-miterlimit:4;stroke-dasharray:none"><path
             id="path214"
             style="fill:none;stroke:#0000ff;stroke-width:0.99975002;stroke-linecap:butt;stroke-linejoin:miter;stroke-miterlimit:4;stroke-dasharray:none;stroke-opacity:1"
             d="m 0,0 h -166.545 c -1.091,0 -1.773,1.181 -1.228,2.126 l 30.623,53.062 c 0.254,0.438 0.721,0.708 1.228,0.708 H -0.007 c 0.783,0 1.418,-0.634 1.418,-1.417 L 1.417,1.418 C 1.417,0.635 0.783,0 0,0 Z" /></g><g
           transform="translate(23.2315,102.7794)"
           id="g216"
           style="stroke-width:0.99975002;stroke-miterlimit:4;stroke-dasharray:none"><path
             id="path218"
             style="fill:none;stroke:#0000ff;stroke-width:0.99975002;stroke-linecap:round;stroke-linejoin:round;stroke-miterlimit:4;stroke-dasharray:none;stroke-opacity:1"
             d="M 0,0 C -0.433,0.752 -0.655,1.605 -0.644,2.474" /></g><g
           transform="translate(66.1866,36.6944)"
           id="g220"
           style="stroke-width:0.99975002;stroke-miterlimit:4;stroke-dasharray:none"><path
             id="path222"
             style="fill:none;stroke:#0000ff;stroke-width:0.99975002;stroke-linecap:round;stroke-linejoin:round;stroke-miterlimit:4;stroke-dasharray:none;stroke-opacity:1"
             d="M 0,0 C -1.8,-1.214 -4.243,-0.738 -5.457,1.062 -5.459,1.066 -5.462,1.071 -5.465,1.075" /></g><g
           transform="translate(106.7056,60.1114)"
           id="g224"
           style="stroke-width:0.99975002;stroke-miterlimit:4;stroke-dasharray:none"><path
             id="path226"
             style="fill:none;stroke:#0000ff;stroke-width:0.99975002;stroke-linecap:round;stroke-linejoin:round;stroke-miterlimit:4;stroke-dasharray:none;stroke-opacity:1"
             d="M 0,0 C 0.605,0.183 1.226,0.306 1.855,0.367" /></g><g
           transform="translate(60.7276,37.7735)"
           id="g228"
           style="stroke-width:0.99975002;stroke-miterlimit:4;stroke-dasharray:none"><path
             id="path230"
             style="fill:none;stroke:#0000ff;stroke-width:0.99975002;stroke-linecap:round;stroke-linejoin:round;stroke-miterlimit:4;stroke-dasharray:none;stroke-opacity:1"
             d="M 0,0 -37.498,65.002" /></g><g
           transform="translate(106.7071,60.1153)"
           id="g232"
           style="stroke-width:0.99975002;stroke-miterlimit:4;stroke-dasharray:none"><path
             id="path234"
             style="fill:none;stroke:#0000ff;stroke-width:0.99975002;stroke-linecap:round;stroke-linejoin:round;stroke-miterlimit:4;stroke-dasharray:none;stroke-opacity:1"
             d="M 0,0 -40.515,-23.415" /></g><g
           transform="translate(212.5108,74.004)"
           id="g236"
           style="stroke-width:0.99975002;stroke-miterlimit:4;stroke-dasharray:none"><path
             id="path238"
             style="fill:none;stroke:#0000ff;stroke-width:0.99975002;stroke-linecap:round;stroke-linejoin:round;stroke-miterlimit:4;stroke-dasharray:none;stroke-opacity:1"
             d="M 0,0 -103.946,-13.521" /></g><g
           transform="translate(213.5108,74.4161)"
           id="g240"
           style="stroke-width:0.99975002;stroke-miterlimit:4;stroke-dasharray:none"><path
             id="path242"
             style="fill:none;stroke:#0000ff;stroke-width:0.99975002;stroke-linecap:round;stroke-linejoin:round;stroke-miterlimit:4;stroke-dasharray:none;stroke-opacity:1"
             d="M 0,0 C -0.266,-0.266 -0.626,-0.415 -1.002,-0.415" /></g><g
           transform="translate(243.3985,115.4034)"
           id="g244"
           style="stroke-width:0.99975002;stroke-miterlimit:4;stroke-dasharray:none"><path
             id="path246"
             style="fill:none;stroke:#0000ff;stroke-width:0.99975002;stroke-linecap:round;stroke-linejoin:round;stroke-miterlimit:4;stroke-dasharray:none;stroke-opacity:1"
             d="M 0,0 -29.887,-40.981" /></g><g
           transform="translate(81.4131,280.2257)"
           id="g248"
           style="stroke-width:0.99975002;stroke-miterlimit:4;stroke-dasharray:none"><path
             id="path250"
             style="fill:none;stroke:#0000ff;stroke-width:0.99975002;stroke-linecap:round;stroke-linejoin:round;stroke-miterlimit:4;stroke-dasharray:none;stroke-opacity:1"
             d="M 0,0 V -3.542" /></g><g
           transform="translate(81.4068,280.2208)"
           id="g252"
           style="stroke-width:0.99975002;stroke-miterlimit:4;stroke-dasharray:none"><path
             id="path254"
             style="fill:none;stroke:#0000ff;stroke-width:0.99975002;stroke-linecap:round;stroke-linejoin:round;stroke-miterlimit:4;stroke-dasharray:none;stroke-opacity:1"
             d="M 0,0 C 0,0.783 0.634,1.418 1.417,1.418" /></g><g
           transform="translate(81.4068,276.6778)"
           id="g256"
           style="stroke-width:0.99975002;stroke-miterlimit:4;stroke-dasharray:none"><path
             id="path258"
             style="fill:none;stroke:#0000ff;stroke-width:0.99975002;stroke-linecap:round;stroke-linejoin:round;stroke-miterlimit:4;stroke-dasharray:none;stroke-opacity:1"
             d="m 0,0 c 0,-0.782 -0.634,-1.417 -1.417,-1.418 v 0" /></g><g
           transform="translate(24.0079,275.2657)"
           id="g260"
           style="stroke-width:0.99975002;stroke-miterlimit:4;stroke-dasharray:none"><path
             id="path262"
             style="fill:none;stroke:#0000ff;stroke-width:0.99975002;stroke-linecap:round;stroke-linejoin:round;stroke-miterlimit:4;stroke-dasharray:none;stroke-opacity:1"
             d="M 0,0 H 55.987" /></g><g
           transform="translate(243.3965,115.3966)"
           id="g264"
           style="stroke-width:0.99975002;stroke-miterlimit:4;stroke-dasharray:none"><path
             id="path266"
             style="fill:none;stroke:#0000ff;stroke-width:0.99975002;stroke-linecap:round;stroke-linejoin:round;stroke-miterlimit:4;stroke-dasharray:none;stroke-opacity:1"
             d="M 0,0 C 0.266,0.266 0.626,0.415 1.002,0.415" /></g><g
           transform="translate(401.7217,117.2286)"
           id="g268"
           style="stroke-width:0.99975002;stroke-miterlimit:4;stroke-dasharray:none"><path
             id="path270"
             style="fill:none;stroke:#0000ff;stroke-width:0.99975002;stroke-linecap:round;stroke-linejoin:round;stroke-miterlimit:4;stroke-dasharray:none;stroke-opacity:1"
             d="M 0,0 C 0,-0.782 -0.635,-1.417 -1.418,-1.417" /></g><g
           transform="translate(400.3038,275.2599)"
           id="g272"
           style="stroke-width:0.99975002;stroke-miterlimit:4;stroke-dasharray:none"><path
             id="path274"
             style="fill:none;stroke:#0000ff;stroke-width:0.99975002;stroke-linecap:round;stroke-linejoin:round;stroke-miterlimit:4;stroke-dasharray:none;stroke-opacity:1"
             d="M 0,0 C 0.783,0.001 1.417,-0.634 1.418,-1.417" /></g><g
           transform="translate(295.4224,275.2599)"
           id="g276"
           style="stroke-width:0.99975002;stroke-miterlimit:4;stroke-dasharray:none"><path
             id="path278"
             style="fill:none;stroke:#0000ff;stroke-width:0.99975002;stroke-linecap:round;stroke-linejoin:round;stroke-miterlimit:4;stroke-dasharray:none;stroke-opacity:1"
             d="M 0,0 C -0.783,0 -1.417,0.635 -1.418,1.417 V 1.418" /></g><g
           transform="translate(292.5875,288.7247)"
           id="g280"
           style="stroke-width:0.99975002;stroke-miterlimit:4;stroke-dasharray:none"><path
             id="path282"
             style="fill:none;stroke:#0000ff;stroke-width:0.99975002;stroke-linecap:round;stroke-linejoin:round;stroke-miterlimit:4;stroke-dasharray:none;stroke-opacity:1"
             d="M 0,0 C 0.783,0 1.417,-0.634 1.417,-1.417" /></g><g
           transform="translate(241.564,288.7247)"
           id="g284"
           style="stroke-width:0.99975002;stroke-miterlimit:4;stroke-dasharray:none"><path
             id="path286"
             style="fill:none;stroke:#0000ff;stroke-width:0.99975002;stroke-linecap:round;stroke-linejoin:round;stroke-miterlimit:4;stroke-dasharray:none;stroke-opacity:1"
             d="M 0,0 C -0.783,0 -1.417,0.635 -1.417,1.417 V 1.418" /></g><g
           transform="translate(238.7296,295.1036)"
           id="g288"
           style="stroke-width:0.99975002;stroke-miterlimit:4;stroke-dasharray:none"><path
             id="path290"
             style="fill:none;stroke:#0000ff;stroke-width:0.99975002;stroke-linecap:round;stroke-linejoin:round;stroke-miterlimit:4;stroke-dasharray:none;stroke-opacity:1"
             d="M 0,0 C 0.783,0 1.417,-0.635 1.417,-1.418" /></g><g
           transform="translate(189.1231,293.6856)"
           id="g292"
           style="stroke-width:0.99975002;stroke-miterlimit:4;stroke-dasharray:none"><path
             id="path294"
             style="fill:none;stroke:#0000ff;stroke-width:0.99975002;stroke-linecap:round;stroke-linejoin:round;stroke-miterlimit:4;stroke-dasharray:none;stroke-opacity:1"
             d="M 0,0 C 0,0.783 0.634,1.418 1.417,1.418" /></g><g
           transform="translate(189.1231,290.1427)"
           id="g296"
           style="stroke-width:0.99975002;stroke-miterlimit:4;stroke-dasharray:none"><path
             id="path298"
             style="fill:none;stroke:#0000ff;stroke-width:0.99975002;stroke-linecap:round;stroke-linejoin:round;stroke-miterlimit:4;stroke-dasharray:none;stroke-opacity:1"
             d="M 0,0 C 0,-0.783 -0.634,-1.418 -1.417,-1.418 H -1.418" /></g><g
           transform="translate(135.2647,287.3077)"
           id="g300"
           style="stroke-width:0.99975002;stroke-miterlimit:4;stroke-dasharray:none"><path
             id="path302"
             style="fill:none;stroke:#0000ff;stroke-width:0.99975002;stroke-linecap:round;stroke-linejoin:round;stroke-miterlimit:4;stroke-dasharray:none;stroke-opacity:1"
             d="M 0,0 C 0,0.783 0.635,1.417 1.417,1.417" /></g><g
           transform="translate(135.2647,283.0558)"
           id="g304"
           style="stroke-width:0.99975002;stroke-miterlimit:4;stroke-dasharray:none"><path
             id="path306"
             style="fill:none;stroke:#0000ff;stroke-width:0.99975002;stroke-linecap:round;stroke-linejoin:round;stroke-miterlimit:4;stroke-dasharray:none;stroke-opacity:1"
             d="M 0,0 C 0,-0.783 -0.635,-1.417 -1.417,-1.417" /></g><g
           transform="translate(22.588,273.8429)"
           id="g308"
           style="stroke-width:0.99975002;stroke-miterlimit:4;stroke-dasharray:none"><path
             id="path310"
             style="fill:none;stroke:#0000ff;stroke-width:0.99975002;stroke-linecap:round;stroke-linejoin:round;stroke-miterlimit:4;stroke-dasharray:none;stroke-opacity:1"
             d="M 0,0 C 0,0.783 0.634,1.417 1.417,1.417" /></g><g
           transform="translate(22.5894,273.8468)"
           id="g312"
           style="stroke-width:0.99975002;stroke-miterlimit:4;stroke-dasharray:none"><path
             id="path314"
             style="fill:none;stroke:#0000ff;stroke-width:0.99975002;stroke-linecap:round;stroke-linejoin:round;stroke-miterlimit:4;stroke-dasharray:none;stroke-opacity:1"
             d="M 0,0 V -168.588" /></g><g
           transform="translate(244.3995,115.8146)"
           id="g316"
           style="stroke-width:0.99975002;stroke-miterlimit:4;stroke-dasharray:none"><path
             id="path318"
             style="fill:none;stroke:#0000ff;stroke-width:0.99975002;stroke-linecap:round;stroke-linejoin:round;stroke-miterlimit:4;stroke-dasharray:none;stroke-opacity:1"
             d="M 0,0 H 155.909" /></g><g
           transform="translate(401.7266,273.8468)"
           id="g320"
           style="stroke-width:0.99975002;stroke-miterlimit:4;stroke-dasharray:none"><path
             id="path322"
             style="fill:none;stroke:#0000ff;stroke-width:0.99975002;stroke-linecap:round;stroke-linejoin:round;stroke-miterlimit:4;stroke-dasharray:none;stroke-opacity:1"
             d="M 0,0 V -156.614" /></g><g
           transform="translate(295.4258,275.2657)"
           id="g324"
           style="stroke-width:0.99975002;stroke-miterlimit:4;stroke-dasharray:none"><path
             id="path326"
             style="fill:none;stroke:#0000ff;stroke-width:0.99975002;stroke-linecap:round;stroke-linejoin:round;stroke-miterlimit:4;stroke-dasharray:none;stroke-opacity:1"
             d="M 0,0 H 104.882" /></g><g
           transform="translate(294.0074,287.3106)"
           id="g328"
           style="stroke-width:0.99975002;stroke-miterlimit:4;stroke-dasharray:none"><path
             id="path330"
             style="fill:none;stroke:#0000ff;stroke-width:0.99975002;stroke-linecap:round;stroke-linejoin:round;stroke-miterlimit:4;stroke-dasharray:none;stroke-opacity:1"
             d="M 0,0 V -10.627" /></g><g
           transform="translate(241.5699,288.7296)"
           id="g332"
           style="stroke-width:0.99975002;stroke-miterlimit:4;stroke-dasharray:none"><path
             id="path334"
             style="fill:none;stroke:#0000ff;stroke-width:0.99975002;stroke-linecap:round;stroke-linejoin:round;stroke-miterlimit:4;stroke-dasharray:none;stroke-opacity:1"
             d="M 0,0 H 51.019" /></g><g
           transform="translate(240.1514,293.6905)"
           id="g336"
           style="stroke-width:0.99975002;stroke-miterlimit:4;stroke-dasharray:none"><path
             id="path338"
             style="fill:none;stroke:#0000ff;stroke-width:0.99975002;stroke-linecap:round;stroke-linejoin:round;stroke-miterlimit:4;stroke-dasharray:none;stroke-opacity:1"
             d="M 0,0 V -3.543" /></g><g
           transform="translate(190.5435,295.1085)"
           id="g340"
           style="stroke-width:0.99975002;stroke-miterlimit:4;stroke-dasharray:none"><path
             id="path342"
             style="fill:none;stroke:#0000ff;stroke-width:0.99975002;stroke-linecap:round;stroke-linejoin:round;stroke-miterlimit:4;stroke-dasharray:none;stroke-opacity:1"
             d="M 0,0 H 48.189" /></g><g
           transform="translate(189.1251,290.1476)"
           id="g344"
           style="stroke-width:0.99975002;stroke-miterlimit:4;stroke-dasharray:none"><path
             id="path346"
             style="fill:none;stroke:#0000ff;stroke-width:0.99975002;stroke-linecap:round;stroke-linejoin:round;stroke-miterlimit:4;stroke-dasharray:none;stroke-opacity:1"
             d="M 0,0 V 3.543" /></g><g
           transform="translate(136.6876,288.7296)"
           id="g348"
           style="stroke-width:0.99975002;stroke-miterlimit:4;stroke-dasharray:none"><path
             id="path350"
             style="fill:none;stroke:#0000ff;stroke-width:0.99975002;stroke-linecap:round;stroke-linejoin:round;stroke-miterlimit:4;stroke-dasharray:none;stroke-opacity:1"
             d="M 0,0 H 51.019" /></g><g
           transform="translate(135.2691,283.0626)"
           id="g352"
           style="stroke-width:0.99975002;stroke-miterlimit:4;stroke-dasharray:none"><path
             id="path354"
             style="fill:none;stroke:#0000ff;stroke-width:0.99975002;stroke-linecap:round;stroke-linejoin:round;stroke-miterlimit:4;stroke-dasharray:none;stroke-opacity:1"
             d="M 0,0 V 4.248" /></g><g
           transform="translate(82.8243,281.6446)"
           id="g356"
           style="stroke-width:0.99975002;stroke-miterlimit:4;stroke-dasharray:none"><path
             id="path358"
             style="fill:none;stroke:#0000ff;stroke-width:0.99975002;stroke-linecap:round;stroke-linejoin:round;stroke-miterlimit:4;stroke-dasharray:none;stroke-opacity:1"
             d="M 0,0 H 51.026" /></g><g
           transform="translate(21.0709,331.0675)"
           id="g360"
           style="stroke-width:0.99975002;stroke-miterlimit:4;stroke-dasharray:none"><path
             id="path362"
             style="fill:none;stroke:#0000ff;stroke-width:0.99975002;stroke-linecap:butt;stroke-linejoin:miter;stroke-miterlimit:4;stroke-dasharray:none;stroke-opacity:1"
             d="m 0,0 h 166.545 c 1.091,0 1.773,1.181 1.228,2.126 L 137.15,55.188 c -0.253,0.438 -0.721,0.708 -1.228,0.708 H 0.007 c -0.782,0 -1.417,-0.634 -1.417,-1.417 L -1.417,1.418 C -1.417,0.635 -0.783,0 0,0 Z" /></g></g></g><g
       id="g364"
       style="stroke-width:0.99975002;stroke-miterlimit:4;stroke-dasharray:none"><g
         clip-path="url(#clipPath370)"
         id="g366"
         style="stroke-width:0.99975002;stroke-miterlimit:4;stroke-dasharray:none"><g
           transform="translate(70.4747,453.0655)"
           id="g372"
           style="stroke-width:0.99975002;stroke-miterlimit:4;stroke-dasharray:none"><path
             id="path374"
             style="fill:none;stroke:#ff0000;stroke-width:0.99975002;stroke-linecap:butt;stroke-linejoin:miter;stroke-miterlimit:4;stroke-dasharray:none;stroke-opacity:1"
             d="M 0,0 C 1.722,0 3.118,-1.396 3.118,-3.118 3.118,-4.84 1.722,-6.236 0,-6.236 c -1.722,0 -3.118,1.396 -3.118,3.118 C -3.118,-1.396 -1.722,0 0,0 Z" /></g><g
           transform="translate(70.4747,506.2149)"
           id="g376"
           style="stroke-width:0.99975002;stroke-miterlimit:4;stroke-dasharray:none"><path
             id="path378"
             style="fill:none;stroke:#ff0000;stroke-width:0.99975002;stroke-linecap:butt;stroke-linejoin:miter;stroke-miterlimit:4;stroke-dasharray:none;stroke-opacity:1"
             d="M 0,0 C 1.722,0 3.118,-1.396 3.118,-3.118 3.118,-4.84 1.722,-6.236 0,-6.236 c -1.722,0 -3.118,1.396 -3.118,3.118 C -3.118,-1.396 -1.722,0 0,0 Z" /></g><g
           transform="translate(285.9078,516.8448)"
           id="g380"
           style="stroke-width:0.99975002;stroke-miterlimit:4;stroke-dasharray:none"><path
             id="path382"
             style="fill:none;stroke:#ff0000;stroke-width:0.99975002;stroke-linecap:butt;stroke-linejoin:miter;stroke-miterlimit:4;stroke-dasharray:none;stroke-opacity:1"
             d="m 0,0 c 1.722,0 3.118,-1.396 3.118,-3.118 0,-1.723 -1.396,-3.118 -3.118,-3.118 -1.722,0 -3.118,1.395 -3.118,3.118 C -3.118,-1.396 -1.722,0 0,0 Z" /></g><g
           transform="translate(193.0733,404.1671)"
           id="g384"
           style="stroke-width:0.99975002;stroke-miterlimit:4;stroke-dasharray:none"><path
             id="path386"
             style="fill:none;stroke:#ff0000;stroke-width:0.99975002;stroke-linecap:butt;stroke-linejoin:miter;stroke-miterlimit:4;stroke-dasharray:none;stroke-opacity:1"
             d="M 0,0 C 1.722,0 3.118,-1.396 3.118,-3.118 3.118,-4.84 1.722,-6.236 0,-6.236 c -1.722,0 -3.118,1.396 -3.118,3.118 C -3.118,-1.396 -1.722,0 0,0 Z" /></g><g
           transform="translate(324.8843,382.1983)"
           id="g388"
           style="stroke-width:0.99975002;stroke-miterlimit:4;stroke-dasharray:none"><path
             id="path390"
             style="fill:none;stroke:#ff0000;stroke-width:0.99975002;stroke-linecap:butt;stroke-linejoin:miter;stroke-miterlimit:4;stroke-dasharray:none;stroke-opacity:1"
             d="M 0,0 C 1.722,0 3.118,-1.396 3.118,-3.117 3.118,-4.84 1.722,-6.235 0,-6.235 c -1.722,0 -3.118,1.395 -3.118,3.118 C -3.118,-1.396 -1.722,0 0,0 Z" /></g><g
           transform="translate(267.3589,91.3243)"
           id="g392"
           style="stroke-width:0.99975002;stroke-miterlimit:4;stroke-dasharray:none"><path
             id="path394"
             style="fill:none;stroke:#ff0000;stroke-width:0.99975002;stroke-linecap:butt;stroke-linejoin:miter;stroke-miterlimit:4;stroke-dasharray:none;stroke-opacity:1"
             d="M 0,0 C -1.722,0 -3.118,1.396 -3.118,3.118 -3.118,4.84 -1.722,6.235 0,6.235 1.722,6.235 3.118,4.84 3.118,3.118 3.118,1.396 1.722,0 0,0 Z" /></g><g
           transform="translate(243.2051,50.4142)"
           id="g396"
           style="stroke-width:0.99975002;stroke-miterlimit:4;stroke-dasharray:none"><path
             id="path398"
             style="fill:none;stroke:#ff0000;stroke-width:0.99975002;stroke-linecap:butt;stroke-linejoin:miter;stroke-miterlimit:4;stroke-dasharray:none;stroke-opacity:1"
             d="m 0,0 c -1.722,0 -3.118,1.396 -3.118,3.118 0,1.723 1.396,3.118 3.118,3.118 1.722,0 3.118,-1.395 3.118,-3.118 C 3.118,1.396 1.722,0 0,0 Z" /></g><g
           transform="translate(349.2803,172.089)"
           id="g400"
           style="stroke-width:0.99975002;stroke-miterlimit:4;stroke-dasharray:none"><path
             id="path402"
             style="fill:none;stroke:#ff0000;stroke-width:0.99975002;stroke-linecap:butt;stroke-linejoin:miter;stroke-miterlimit:4;stroke-dasharray:none;stroke-opacity:1"
             d="m 0,0 c -1.722,0 -3.118,-1.396 -3.118,-3.118 0,-1.723 1.396,-3.118 3.118,-3.118 1.722,0 3.118,1.395 3.118,3.118 C 3.118,-1.396 1.722,0 0,0 Z" /></g><g
           transform="translate(349.2803,225.2384)"
           id="g404"
           style="stroke-width:0.99975002;stroke-miterlimit:4;stroke-dasharray:none"><path
             id="path406"
             style="fill:none;stroke:#ff0000;stroke-width:0.99975002;stroke-linecap:butt;stroke-linejoin:miter;stroke-miterlimit:4;stroke-dasharray:none;stroke-opacity:1"
             d="m 0,0 c -1.722,0 -3.118,-1.396 -3.118,-3.118 0,-1.723 1.396,-3.118 3.118,-3.118 1.722,0 3.118,1.395 3.118,3.118 C 3.118,-1.396 1.722,0 0,0 Z" /></g><g
           transform="translate(133.8472,235.8673)"
           id="g408"
           style="stroke-width:0.99975002;stroke-miterlimit:4;stroke-dasharray:none"><path
             id="path410"
             style="fill:none;stroke:#ff0000;stroke-width:0.99975002;stroke-linecap:butt;stroke-linejoin:miter;stroke-miterlimit:4;stroke-dasharray:none;stroke-opacity:1"
             d="m 0,0 c -1.722,0 -3.118,-1.396 -3.118,-3.118 0,-1.722 1.396,-3.118 3.118,-3.118 1.722,0 3.118,1.396 3.118,3.118 C 3.118,-1.396 1.722,0 0,0 Z" /></g><g
           transform="translate(226.6817,123.1905)"
           id="g412"
           style="stroke-width:0.99975002;stroke-miterlimit:4;stroke-dasharray:none"><path
             id="path414"
             style="fill:none;stroke:#ff0000;stroke-width:0.99975002;stroke-linecap:butt;stroke-linejoin:miter;stroke-miterlimit:4;stroke-dasharray:none;stroke-opacity:1"
             d="m 0,0 c -1.722,0 -3.118,-1.396 -3.118,-3.118 0,-1.722 1.396,-3.118 3.118,-3.118 1.722,0 3.118,1.396 3.118,3.118 C 3.118,-1.396 1.722,0 0,0 Z" /></g><g
           transform="translate(94.8707,101.2218)"
           id="g416"
           style="stroke-width:0.99975002;stroke-miterlimit:4;stroke-dasharray:none"><path
             id="path418"
             style="fill:none;stroke:#ff0000;stroke-width:0.99975002;stroke-linecap:butt;stroke-linejoin:miter;stroke-miterlimit:4;stroke-dasharray:none;stroke-opacity:1"
             d="m 0,0 c -1.722,0 -3.118,-1.396 -3.118,-3.118 0,-1.722 1.396,-3.118 3.118,-3.118 1.722,0 3.118,1.396 3.118,3.118 C 3.118,-1.396 1.722,0 0,0 Z" /></g><g
           transform="translate(154.2554,376.339)"
           id="g420"
           style="stroke-width:0.99975002;stroke-miterlimit:4;stroke-dasharray:none"><path
             id="path422"
             style="fill:none;stroke:#ff0000;stroke-width:0.99975002;stroke-linecap:butt;stroke-linejoin:miter;stroke-miterlimit:4;stroke-dasharray:none;stroke-opacity:1"
             d="M 0,0 C 1.722,0 3.118,1.396 3.118,3.117 3.118,4.84 1.722,6.235 0,6.235 -1.722,6.235 -3.118,4.84 -3.118,3.117 -3.118,1.396 -1.722,0 0,0 Z" /></g><g
           transform="translate(178.4092,335.4288)"
           id="g424"
           style="stroke-width:0.99975002;stroke-miterlimit:4;stroke-dasharray:none"><path
             id="path426"
             style="fill:none;stroke:#ff0000;stroke-width:0.99975002;stroke-linecap:butt;stroke-linejoin:miter;stroke-miterlimit:4;stroke-dasharray:none;stroke-opacity:1"
             d="M 0,0 C 1.722,0 3.118,1.396 3.118,3.118 3.118,4.84 1.722,6.236 0,6.236 -1.722,6.236 -3.118,4.84 -3.118,3.118 -3.118,1.396 -1.722,0 0,0 Z" /></g></g></g></g></svg>
