<svg xmlns="http://www.w3.org/2000/svg" viewBox="0 0 144.42 169.88"><defs><style>.cls-1{fill:none;stroke:red;stroke-miterlimit:10;stroke-width:0.5px;}</style></defs><g id="Layer_2" data-name="Layer 2"><g id="カット2_R0G0B255_" data-name="カット2(R0G0B255)"><path class="cls-1" d="M56.15,1.67V168.21A1.42,1.42,0,0,1,54,169.44L1,138.82a1.42,1.42,0,0,1-.71-1.23V1.67A1.41,1.41,0,0,1,1.67.26H54.73A1.42,1.42,0,0,1,56.15,1.67Z"/><path class="cls-1" d="M88.27,1.67V168.21a1.42,1.42,0,0,0,2.13,1.23l53.06-30.62a1.42,1.42,0,0,0,.71-1.23V1.67A1.42,1.42,0,0,0,142.75.26H89.69A1.42,1.42,0,0,0,88.27,1.67Z"/></g><g id="カット1_R255G0B0_" data-name="カット1(R255G0B0)"><circle class="cls-1" cx="7.76" cy="134.85" r="3.12"/><circle class="cls-1" cx="48.67" cy="159.01" r="3.12"/><circle class="cls-1" cx="136.66" cy="134.85" r="3.12"/><circle class="cls-1" cx="95.75" cy="159.01" r="3.12"/></g></g></svg>