<svg xmlns="http://www.w3.org/2000/svg" viewBox="0 0 143.92 169.39"><defs><style>.cls-1,.cls-2{fill:none;stroke-miterlimit:10;stroke-width:0px;}.cls-1{stroke:blue;}.cls-2{stroke:red;}</style></defs><g id="Layer_2" data-name="Layer 2"><g id="カット2_R0G0B255_" data-name="カット2(R0G0B255)"><path class="cls-1" d="M55.9,1.42V168a1.42,1.42,0,0,1-2.13,1.23L.71,138.57A1.41,1.41,0,0,1,0,137.34V1.43A1.42,1.42,0,0,1,1.42,0H54.48A1.43,1.43,0,0,1,55.9,1.42Z"/><path class="cls-1" d="M88,1.42V168a1.42,1.42,0,0,0,2.13,1.23l53.06-30.62a1.41,1.41,0,0,0,.71-1.23V1.43A1.42,1.42,0,0,0,142.5,0H89.44A1.43,1.43,0,0,0,88,1.42Z"/></g><g id="カット1_R255G0B0_" data-name="カット1(R255G0B0)"><circle class="cls-2" cx="7.51" cy="134.6" r="3.12"/><circle class="cls-2" cx="48.42" cy="158.76" r="3.12"/><circle class="cls-2" cx="136.41" cy="134.6" r="3.12"/><circle class="cls-2" cx="95.5" cy="158.76" r="3.12"/></g></g></svg>