  0
SECTION
  2
HEADER
  9
$ACADVER
  1
AC1027
  9
$ACADMAINTVER
 70
   105
  9
$DWGCODEPAGE
  3
ANSI_932
  9
$REQUIREDVERSIONS
160
                 0
  9
$LASTSAVEDBY
  1
adachi-kousuke
  9
$INSBASE
 10
0.0
 20
0.0
 30
0.0
  9
$EXTMIN
 10
-0.0500000000000043
 20
-0.0159930347244064
 30
0.0
  9
$EXTMAX
 10
29.42178351724441
 20
41.90333176916417
 30
0.0
  9
$LIMMIN
 10
0.0
 20
0.0
  9
$LIMMAX
 10
12.0
 20
9.0
  9
$ORTHOMODE
 70
     0
  9
$REGENMODE
 70
     1
  9
$FILLMODE
 70
     0
  9
$QTEXTMODE
 70
     0
  9
$MIRRTEXT
 70
     1
  9
$LTSCALE
 40
1.0
  9
$ATTMODE
 70
     1
  9
$TEXTSIZE
 40
0.2
  9
$TRACEWID
 40
0.05
  9
$TEXTSTYLE
  7
Standard
  9
$CLAYER
  8
0
  9
$CELTYPE
  6
ByBlock
  9
$CECOLOR
 62
   256
  9
$CELTSCALE
 40
1.0
  9
$DISPSILH
 70
     0
  9
$DIMSCALE
 40
1.0
  9
$DIMASZ
 40
0.18
  9
$DIMEXO
 40
0.0625
  9
$DIMDLI
 40
0.38
  9
$DIMRND
 40
0.0
  9
$DIMDLE
 40
0.0
  9
$DIMEXE
 40
0.18
  9
$DIMTP
 40
0.0
  9
$DIMTM
 40
0.0
  9
$DIMTXT
 40
0.18
  9
$DIMCEN
 40
0.09
  9
$DIMTSZ
 40
0.0
  9
$DIMTOL
 70
     0
  9
$DIMLIM
 70
     0
  9
$DIMTIH
 70
     1
  9
$DIMTOH
 70
     1
  9
$DIMSE1
 70
     0
  9
$DIMSE2
 70
     0
  9
$DIMTAD
 70
     0
  9
$DIMZIN
 70
     0
  9
$DIMBLK
  1

  9
$DIMASO
 70
     1
  9
$DIMSHO
 70
     1
  9
$DIMPOST
  1

  9
$DIMAPOST
  1

  9
$DIMALT
 70
     0
  9
$DIMALTD
 70
     2
  9
$DIMALTF
 40
25.4
  9
$DIMLFAC
 40
1.0
  9
$DIMTOFL
 70
     0
  9
$DIMTVP
 40
0.0
  9
$DIMTIX
 70
     0
  9
$DIMSOXD
 70
     0
  9
$DIMSAH
 70
     0
  9
$DIMBLK1
  1

  9
$DIMBLK2
  1

  9
$DIMSTYLE
  2
Standard
  9
$DIMCLRD
 70
     0
  9
$DIMCLRE
 70
     0
  9
$DIMCLRT
 70
     0
  9
$DIMTFAC
 40
1.0
  9
$DIMGAP
 40
0.09
  9
$DIMJUST
 70
     0
  9
$DIMSD1
 70
     0
  9
$DIMSD2
 70
     0
  9
$DIMTOLJ
 70
     1
  9
$DIMTZIN
 70
     0
  9
$DIMALTZ
 70
     0
  9
$DIMALTTZ
 70
     0
  9
$DIMUPT
 70
     0
  9
$DIMDEC
 70
     4
  9
$DIMTDEC
 70
     4
  9
$DIMALTU
 70
     2
  9
$DIMALTTD
 70
     2
  9
$DIMTXSTY
  7
Standard
  9
$DIMAUNIT
 70
     0
  9
$DIMADEC
 70
     0
  9
$DIMALTRND
 40
0.0
  9
$DIMAZIN
 70
     0
  9
$DIMDSEP
 70
    46
  9
$DIMATFIT
 70
     3
  9
$DIMFRAC
 70
     0
  9
$DIMLDRBLK
  1

  9
$DIMLUNIT
 70
     2
  9
$DIMLWD
 70
    -2
  9
$DIMLWE
 70
    -2
  9
$DIMTMOVE
 70
     2
  9
$DIMFXL
 40
1.0
  9
$DIMFXLON
 70
     0
  9
$DIMJOGANG
 40
0.7853981633974483
  9
$DIMTFILL
 70
     0
  9
$DIMTFILLCLR
 70
     0
  9
$DIMARCSYM
 70
     0
  9
$DIMLTYPE
  6

  9
$DIMLTEX1
  6

  9
$DIMLTEX2
  6

  9
$DIMTXTDIRECTION
 70
     0
  9
$LUNITS
 70
     2
  9
$LUPREC
 70
     4
  9
$SKETCHINC
 40
0.1
  9
$FILLETRAD
 40
0.1
  9
$AUNITS
 70
     0
  9
$AUPREC
 70
     0
  9
$MENU
  1
.
  9
$ELEVATION
 40
0.0
  9
$PELEVATION
 40
0.0
  9
$THICKNESS
 40
0.0
  9
$LIMCHECK
 70
     0
  9
$CHAMFERA
 40
0.0
  9
$CHAMFERB
 40
0.0
  9
$CHAMFERC
 40
0.0
  9
$CHAMFERD
 40
0.0
  9
$SKPOLY
 70
     0
  9
$TDCREATE
 40
2458198.045063171
  9
$TDUCREATE
 40
2458197.670063171
  9
$TDUPDATE
 40
2458268.066640058
  9
$TDUUPDATE
 40
2458267.691640058
  9
$TDINDWG
 40
0.0000000463
  9
$TDUSRTIMER
 40
0.0003338889
  9
$USRTIMER
 70
     1
  9
$ANGBASE
 50
0.0
  9
$ANGDIR
 70
     0
  9
$PDMODE
 70
     0
  9
$PDSIZE
 40
0.0
  9
$PLINEWID
 40
0.0
  9
$SPLFRAME
 70
     1
  9
$SPLINETYPE
 70
     6
  9
$SPLINESEGS
 70
     8
  9
$HANDSEED
  5
A8D9
  9
$SURFTAB1
 70
     6
  9
$SURFTAB2
 70
     6
  9
$SURFTYPE
 70
     6
  9
$SURFU
 70
     6
  9
$SURFV
 70
     6
  9
$UCSBASE
  2

  9
$UCSNAME
  2

  9
$UCSORG
 10
0.0
 20
0.0
 30
0.0
  9
$UCSXDIR
 10
1.0
 20
0.0
 30
0.0
  9
$UCSYDIR
 10
0.0
 20
1.0
 30
0.0
  9
$UCSORTHOREF
  2

  9
$UCSORTHOVIEW
 70
     0
  9
$UCSORGTOP
 10
0.0
 20
0.0
 30
0.0
  9
$UCSORGBOTTOM
 10
0.0
 20
0.0
 30
0.0
  9
$UCSORGLEFT
 10
0.0
 20
0.0
 30
0.0
  9
$UCSORGRIGHT
 10
0.0
 20
0.0
 30
0.0
  9
$UCSORGFRONT
 10
0.0
 20
0.0
 30
0.0
  9
$UCSORGBACK
 10
0.0
 20
0.0
 30
0.0
  9
$PUCSBASE
  2

  9
$PUCSNAME
  2

  9
$PUCSORG
 10
0.0
 20
0.0
 30
0.0
  9
$PUCSXDIR
 10
1.0
 20
0.0
 30
0.0
  9
$PUCSYDIR
 10
0.0
 20
1.0
 30
0.0
  9
$PUCSORTHOREF
  2

  9
$PUCSORTHOVIEW
 70
     0
  9
$PUCSORGTOP
 10
0.0
 20
0.0
 30
0.0
  9
$PUCSORGBOTTOM
 10
0.0
 20
0.0
 30
0.0
  9
$PUCSORGLEFT
 10
0.0
 20
0.0
 30
0.0
  9
$PUCSORGRIGHT
 10
0.0
 20
0.0
 30
0.0
  9
$PUCSORGFRONT
 10
0.0
 20
0.0
 30
0.0
  9
$PUCSORGBACK
 10
0.0
 20
0.0
 30
0.0
  9
$USERI1
 70
     0
  9
$USERI2
 70
     0
  9
$USERI3
 70
     0
  9
$USERI4
 70
     0
  9
$USERI5
 70
     0
  9
$USERR1
 40
0.0
  9
$USERR2
 40
0.0
  9
$USERR3
 40
0.0
  9
$USERR4
 40
0.0
  9
$USERR5
 40
0.0
  9
$WORLDVIEW
 70
     1
  9
$SHADEDGE
 70
     3
  9
$SHADEDIF
 70
    70
  9
$TILEMODE
 70
     1
  9
$MAXACTVP
 70
    64
  9
$PINSBASE
 10
0.0
 20
0.0
 30
0.0
  9
$PLIMCHECK
 70
     0
  9
$PEXTMIN
 10
2.417527488425922
 20
0.6999999999999993
 30
0.0
  9
$PEXTMAX
 10
8.036971932870369
 20
6.472451967592592
 30
0.0
  9
$PLIMMIN
 10
-0.25
 20
-0.7499999999999999
  9
$PLIMMAX
 10
10.75
 20
7.75
  9
$UNITMODE
 70
     0
  9
$VISRETAIN
 70
     1
  9
$PLINEGEN
 70
     0
  9
$PSLTSCALE
 70
     1
  9
$TREEDEPTH
 70
  3020
  9
$CMLSTYLE
  2
Standard
  9
$CMLJUST
 70
     0
  9
$CMLSCALE
 40
1.0
  9
$PROXYGRAPHICS
 70
     1
  9
$MEASUREMENT
 70
     0
  9
$CELWEIGHT
370
    -1
  9
$ENDCAPS
280
     0
  9
$JOINSTYLE
280
     0
  9
$LWDISPLAY
290
     0
  9
$INSUNITS
 70
     0
  9
$HYPERLINKBASE
  1

  9
$STYLESHEET
  1

  9
$XEDIT
290
     1
  9
$CEPSNTYPE
380
     0
  9
$PSTYLEMODE
290
     1
  9
$FINGERPRINTGUID
  2
{F36E2F0E-E36E-4C8D-ADB4-E8AE0D21EC15}
  9
$VERSIONGUID
  2
{FAEB1C32-E019-11D5-929B-00C0DF256EC4}
  9
$EXTNAMES
290
     1
  9
$PSVPSCALE
 40
0.0
  9
$OLESTARTUP
290
     0
  9
$SORTENTS
280
   127
  9
$INDEXCTL
280
     0
  9
$HIDETEXT
280
     1
  9
$XCLIPFRAME
280
     2
  9
$HALOGAP
280
     0
  9
$OBSCOLOR
 70
   257
  9
$OBSLTYPE
280
     0
  9
$INTERSECTIONDISPLAY
280
     0
  9
$INTERSECTIONCOLOR
 70
   257
  9
$DIMASSOC
280
     2
  9
$PROJECTNAME
  1

  9
$CAMERADISPLAY
290
     0
  9
$LENSLENGTH
 40
50.0
  9
$CAMERAHEIGHT
 40
0.0
  9
$STEPSPERSEC
 40
2.0
  9
$STEPSIZE
 40
6.0
  9
$3DDWFPREC
 40
2.0
  9
$PSOLWIDTH
 40
0.25
  9
$PSOLHEIGHT
 40
4.0
  9
$LOFTANG1
 40
1.570796326794897
  9
$LOFTANG2
 40
1.570796326794897
  9
$LOFTMAG1
 40
0.0
  9
$LOFTMAG2
 40
0.0
  9
$LOFTPARAM
 70
     7
  9
$LOFTNORMALS
280
     1
  9
$LATITUDE
 40
37.795
  9
$LONGITUDE
 40
-122.394
  9
$NORTHDIRECTION
 40
0.0
  9
$TIMEZONE
 70
 -8000
  9
$LIGHTGLYPHDISPLAY
280
     1
  9
$TILEMODELIGHTSYNCH
280
     1
  9
$SOLIDHIST
280
     0
  9
$SHOWHIST
280
     1
  9
$DWFFRAME
280
     2
  9
$DGNFRAME
280
     2
  9
$REALWORLDSCALE
290
     1
  9
$INTERFERECOLOR
 62
   256
  9
$CSHADOW
280
     0
  9
$SHADOWPLANELOCATION
 40
0.0
  0
ENDSEC
  0
SECTION
  2
CLASSES
  0
CLASS
  1
ACDBDICTIONARYWDFLT
  2
AcDbDictionaryWithDefault
  3
ObjectDBX Classes
 90
        0
 91
        5
280
     0
281
     0
  0
CLASS
  1
MATERIAL
  2
AcDbMaterial
  3
ObjectDBX Classes
 90
     1153
 91
        5
280
     0
281
     0
  0
CLASS
  1
SCALE
  2
AcDbScale
  3
ObjectDBX Classes
 90
     1153
 91
        5
280
     0
281
     0
  0
CLASS
  1
VISUALSTYLE
  2
AcDbVisualStyle
  3
ObjectDBX Classes
 90
     4095
 91
        5
280
     0
281
     0
  0
CLASS
  1
TABLESTYLE
  2
AcDbTableStyle
  3
ObjectDBX Classes
 90
     4095
 91
        5
280
     0
281
     0
  0
CLASS
  1
MLEADERSTYLE
  2
AcDbMLeaderStyle
  3
ACDB_MLEADERSTYLE_CLASS
 90
     4095
 91
        5
280
     0
281
     0
  0
CLASS
  1
DIMASSOC
  2
AcDbDimAssoc
  3
"AcDbDimAssoc|Product Desc:     AcDim ARX App For Dimension|Company:          Autodesk, Inc.|WEB Address:      www.autodesk.com"
 90
        0
 91
        5
280
     0
281
     0
  0
CLASS
  1
DICTIONARYVAR
  2
AcDbDictionaryVar
  3
ObjectDBX Classes
 90
        0
 91
        5
280
     0
281
     0
  0
CLASS
  1
SUN
  2
AcDbSun
  3
SCENEOE
 90
     1153
 91
        5
280
     0
281
     0
  0
CLASS
  1
CELLSTYLEMAP
  2
AcDbCellStyleMap
  3
ObjectDBX Classes
 90
     1152
 91
        4
280
     0
281
     0
  0
ENDSEC
  0
SECTION
  2
TABLES
  0
TABLE
  2
VPORT
  5
8
330
0
100
AcDbSymbolTable
 70
     1
  0
VPORT
  5
26
330
8
100
AcDbSymbolTableRecord
100
AcDbViewportTableRecord
  2
*Active
 70
     0
 10
0.0
 20
0.0
 11
1.0
 21
1.0
 12
42.6658769506756
 22
-0.8905728710019503
 13
0.0
 23
0.0
 14
0.5
 24
0.5
 15
0.5
 25
0.5
 16
0.0
 26
0.0
 36
1.0
 17
0.0
 27
0.0
 37
0.0
 40
88.52431875995728
 41
1.689594356261023
 42
50.0
 43
0.0
 44
0.0
 50
0.0
 51
0.0
 71
    16
 72
   100
 73
     1
 74
     3
 75
     0
 76
     0
 77
     0
 78
     0
281
     0
 65
     1
110
0.0
120
0.0
130
0.0
111
1.0
121
0.0
131
0.0
112
0.0
122
1.0
132
0.0
 79
     0
146
0.0
348
59E
 60
     3
 61
     5
292
     1
282
     1
141
0.0
142
0.0
 63
   250
361
206F
  0
ENDTAB
  0
TABLE
  2
LTYPE
  5
5
330
0
100
AcDbSymbolTable
 70
     1
  0
LTYPE
  5
14
330
5
100
AcDbSymbolTableRecord
100
AcDbLinetypeTableRecord
  2
ByBlock
 70
     0
  3

 72
    65
 73
     0
 40
0.0
  0
LTYPE
  5
15
330
5
100
AcDbSymbolTableRecord
100
AcDbLinetypeTableRecord
  2
ByLayer
 70
     0
  3

 72
    65
 73
     0
 40
0.0
  0
LTYPE
  5
16
330
5
100
AcDbSymbolTableRecord
100
AcDbLinetypeTableRecord
  2
Continuous
 70
     0
  3
Solid line
 72
    65
 73
     0
 40
0.0
  0
ENDTAB
  0
TABLE
  2
LAYER
  5
2
330
0
100
AcDbSymbolTable
 70
     3
  0
LAYER
  5
10
330
2
100
AcDbSymbolTableRecord
100
AcDbLayerTableRecord
  2
0
 70
     0
 62
     7
  6
Continuous
370
    -3
390
F
347
24
348
0
  0
LAYER
  5
5B7
330
2
100
AcDbSymbolTableRecord
100
AcDbLayerTableRecord
  2
Defpoints
 70
     0
 62
     7
  6
Continuous
290
     0
370
    -3
390
F
347
24
348
0
  0
LAYER
  5
171E
330
2
100
AcDbSymbolTableRecord
100
AcDbLayerTableRecord
  2
BLACK
 70
     0
 62
     7
  6
Continuous
370
    -3
390
F
347
24
348
0
  0
ENDTAB
  0
TABLE
  2
STYLE
  5
3
330
0
100
AcDbSymbolTable
 70
     1
  0
STYLE
  5
11
330
3
100
AcDbSymbolTableRecord
100
AcDbTextStyleTableRecord
  2
Standard
 70
     0
 40
0.0
 41
1.0
 50
0.0
 71
     0
 42
0.2
  3
txt
  4

  0
ENDTAB
  0
TABLE
  2
VIEW
  5
6
330
0
100
AcDbSymbolTable
 70
     0
  0
ENDTAB
  0
TABLE
  2
UCS
  5
7
330
0
100
AcDbSymbolTable
 70
     0
  0
ENDTAB
  0
TABLE
  2
APPID
  5
9
330
0
100
AcDbSymbolTable
 70
     1
  0
APPID
  5
12
330
9
100
AcDbSymbolTableRecord
100
AcDbRegAppTableRecord
  2
ACAD
 70
     0
  0
ENDTAB
  0
TABLE
  2
DIMSTYLE
  5
A
330
0
100
AcDbSymbolTable
 70
     1
100
AcDbDimStyleTable
  0
DIMSTYLE
105
25
330
A
100
AcDbSymbolTableRecord
100
AcDbDimStyleTableRecord
  2
Standard
 70
     0
178
     0
340
11
  0
ENDTAB
  0
TABLE
  2
BLOCK_RECORD
  5
1
330
0
100
AcDbSymbolTable
 70
     0
  0
BLOCK_RECORD
  5
1D
330
1
100
AcDbSymbolTableRecord
100
AcDbBlockTableRecord
  2
*Model_Space
340
1E
 70
     0
280
     1
281
     0
  0
BLOCK_RECORD
  5
1B
330
1
100
AcDbSymbolTableRecord
100
AcDbBlockTableRecord
  2
*Paper_Space
340
1C
 70
     0
280
     1
281
     0
  0
ENDTAB
  0
ENDSEC
  0
SECTION
  2
BLOCKS
  0
BLOCK
  5
595
330
1D
100
AcDbEntity
  8
0
100
AcDbBlockBegin
  2
*Model_Space
 70
     0
 10
0.0
 20
0.0
 30
0.0
  3
*Model_Space
  1

  0
ENDBLK
  5
596
330
1D
100
AcDbEntity
  8
0
100
AcDbBlockEnd
  0
BLOCK
  5
597
330
1B
100
AcDbEntity
 67
     1
  8
0
100
AcDbBlockBegin
  2
*Paper_Space
 70
     0
 10
0.0
 20
0.0
 30
0.0
  3
*Paper_Space
  1

  0
ENDBLK
  5
598
330
1B
100
AcDbEntity
 67
     1
  8
0
100
AcDbBlockEnd
  0
ENDSEC
  0
SECTION
  2
ENTITIES
  0
LWPOLYLINE
  5
1ADC
330
1D
100
AcDbEntity
  8
0
 62
     0
100
AcDbPolyline
 90
       25
 70
     1
 43
0.0
 10
1.689449841336983
 20
4.740402336795459
 10
1.689449841336983
 20
4.729785136795456
 10
1.697984241336982
 20
4.697679536795459
 10
1.721555441336982
 20
4.662678336795455
 10
1.756531241336982
 20
4.639107136795456
 10
1.788636841336982
 20
4.630420336795456
 10
1.799406441336982
 20
4.630420336795456
 10
1.810023641336981
 20
4.630420336795456
 10
1.842129241336982
 20
4.639107136795456
 10
1.877130441336982
 20
4.662678336795455
 10
1.900676241336982
 20
4.697679536795459
 10
1.909363041336982
 20
4.729785136795456
 10
1.909363041336982
 20
4.740402336795459
 10
1.909363041336982
 20
4.751146536795456
 10
1.900676241336982
 20
4.783252136795458
 10
1.877130441336982
 20
4.818253336795454
 10
1.842129241336982
 20
4.84182453679546
 10
1.810023641336981
 20
4.850358936795455
 10
1.799406441336982
 20
4.850358936795455
 10
1.788636841336982
 20
4.850358936795455
 10
1.756531241336982
 20
4.84182453679546
 10
1.721555441336982
 20
4.818253336795454
 10
1.697984241336982
 20
4.783252136795458
 10
1.689449841336983
 20
4.751146536795456
 10
1.689449841336983
 20
4.740402336795459
  0
LWPOLYLINE
  5
1B1E
330
1D
100
AcDbEntity
  8
0
 62
     0
100
AcDbPolyline
 90
       25
 70
     1
 43
0.0
 10
1.69032931985954
 20
6.640811579525479
 10
1.69032931985954
 20
6.630194379525477
 10
1.69886371985954
 20
6.598088779525479
 10
1.72243491985954
 20
6.563087579525476
 10
1.75741071985954
 20
6.539516379525477
 10
1.78951631985954
 20
6.530829579525477
 10
1.80028591985954
 20
6.530829579525477
 10
1.810903119859539
 20
6.530829579525477
 10
1.84300871985954
 20
6.539516379525477
 10
1.87800991985954
 20
6.563087579525476
 10
1.90155571985954
 20
6.598088779525479
 10
1.91024251985954
 20
6.630194379525477
 10
1.91024251985954
 20
6.640811579525479
 10
1.91024251985954
 20
6.651555779525477
 10
1.90155571985954
 20
6.683661379525478
 10
1.87800991985954
 20
6.718662579525475
 10
1.84300871985954
 20
6.742233779525481
 10
1.810903119859539
 20
6.750768179525476
 10
1.80028591985954
 20
6.750768179525476
 10
1.78951631985954
 20
6.750768179525476
 10
1.75741071985954
 20
6.742233779525481
 10
1.72243491985954
 20
6.718662579525475
 10
1.69886371985954
 20
6.683661379525478
 10
1.69032931985954
 20
6.651555779525477
 10
1.69032931985954
 20
6.640811579525479
  0
LWPOLYLINE
  5
1B20
330
1D
100
AcDbEntity
  8
0
 62
     0
100
AcDbPolyline
 90
       25
 70
     1
 43
0.0
 10
3.59132931985955
 20
6.628162685203801
 10
3.59132931985955
 20
6.617545485203799
 10
3.599863719859551
 20
6.585439885203801
 10
3.62343491985955
 20
6.550438685203797
 10
3.65841071985955
 20
6.526867485203798
 10
3.690516319859551
 20
6.518180685203799
 10
3.701285919859551
 20
6.518180685203799
 10
3.711903119859549
 20
6.518180685203799
 10
3.744008719859551
 20
6.526867485203798
 10
3.779009919859551
 20
6.550438685203797
 10
3.80255571985955
 20
6.585439885203801
 10
3.811242519859551
 20
6.617545485203799
 10
3.811242519859551
 20
6.628162685203801
 10
3.811242519859551
 20
6.638906885203799
 10
3.80255571985955
 20
6.6710124852038
 10
3.779009919859551
 20
6.706013685203796
 10
3.744008719859551
 20
6.729584885203803
 10
3.711903119859549
 20
6.738119285203798
 10
3.701285919859551
 20
6.738119285203798
 10
3.690516319859551
 20
6.738119285203798
 10
3.65841071985955
 20
6.729584885203803
 10
3.62343491985955
 20
6.706013685203796
 10
3.599863719859551
 20
6.6710124852038
 10
3.59132931985955
 20
6.638906885203799
 10
3.59132931985955
 20
6.628162685203801
  0
LWPOLYLINE
  5
1B21
330
1D
100
AcDbEntity
  8
0
 62
     0
100
AcDbPolyline
 90
       25
 70
     1
 43
0.0
 10
3.590110157485555
 20
4.728692380807427
 10
3.590110157485555
 20
4.718075180807425
 10
3.598644557485556
 20
4.685969580807427
 10
3.622215757485555
 20
4.650968380807424
 10
3.657191557485555
 20
4.627397180807424
 10
3.689297157485556
 20
4.618710380807425
 10
3.700066757485556
 20
4.618710380807425
 10
3.710683957485554
 20
4.618710380807425
 10
3.742789557485556
 20
4.627397180807424
 10
3.777790757485556
 20
4.650968380807424
 10
3.801336557485555
 20
4.685969580807427
 10
3.810023357485556
 20
4.718075180807425
 10
3.810023357485556
 20
4.728692380807427
 10
3.810023357485556
 20
4.739436580807425
 10
3.801336557485555
 20
4.771542180807426
 10
3.777790757485556
 20
4.806543380807422
 10
3.742789557485556
 20
4.830114580807429
 10
3.710683957485554
 20
4.838648980807424
 10
3.700066757485556
 20
4.838648980807424
 10
3.689297157485556
 20
4.838648980807424
 10
3.657191557485555
 20
4.830114580807429
 10
3.622215757485555
 20
4.806543380807422
 10
3.598644557485556
 20
4.771542180807426
 10
3.590110157485555
 20
4.739436580807425
 10
3.590110157485555
 20
4.728692380807427
  0
LWPOLYLINE
  5
1B22
330
1D
100
AcDbEntity
  8
0
 62
     0
100
AcDbPolyline
 90
       25
 70
     1
 43
0.0
 10
9.291972381666668
 20
7.00302575983903
 10
9.291972381666668
 20
6.992408559839028
 10
9.300506781666668
 20
6.96030295983903
 10
9.324077981666667
 20
6.925301759839027
 10
9.359053781666667
 20
6.901730559839027
 10
9.391159381666668
 20
6.893043759839028
 10
9.401928981666668
 20
6.893043759839028
 10
9.412546181666666
 20
6.893043759839028
 10
9.444651781666668
 20
6.901730559839027
 10
9.479652981666668
 20
6.925301759839027
 10
9.503198781666667
 20
6.96030295983903
 10
9.511885581666668
 20
6.992408559839028
 10
9.511885581666668
 20
7.00302575983903
 10
9.511885581666668
 20
7.013769959839028
 10
9.503198781666667
 20
7.045875559839029
 10
9.479652981666668
 20
7.080876759839025
 10
9.444651781666668
 20
7.104447959839032
 10
9.412546181666666
 20
7.112982359839027
 10
9.401928981666668
 20
7.112982359839027
 10
9.391159381666668
 20
7.112982359839027
 10
9.359053781666667
 20
7.104447959839032
 10
9.324077981666667
 20
7.080876759839025
 10
9.300506781666668
 20
7.045875559839029
 10
9.291972381666668
 20
7.013769959839028
 10
9.291972381666668
 20
7.00302575983903
  0
LWPOLYLINE
  5
1B24
330
1D
100
AcDbEntity
  8
0
 62
     0
100
AcDbPolyline
 90
       25
 70
     1
 43
0.0
 10
6.014376755053435
 20
3.028562334464393
 10
6.014376755053435
 20
3.017945134464391
 10
6.022911155053434
 20
2.985839534464393
 10
6.046482355053433
 20
2.95083833446439
 10
6.081458155053435
 20
2.92726713446439
 10
6.113563755053436
 20
2.918580334464391
 10
6.124333355053436
 20
2.918580334464391
 10
6.134950555053434
 20
2.918580334464391
 10
6.167056155053436
 20
2.92726713446439
 10
6.202057355053435
 20
2.95083833446439
 10
6.225603155053433
 20
2.985839534464393
 10
6.234289955053436
 20
3.017945134464391
 10
6.234289955053436
 20
3.028562334464393
 10
6.234289955053436
 20
3.039306534464391
 10
6.225603155053433
 20
3.071412134464392
 10
6.202057355053435
 20
3.106413334464388
 10
6.167056155053436
 20
3.129984534464395
 10
6.134950555053434
 20
3.13851893446439
 10
6.124333355053436
 20
3.13851893446439
 10
6.113563755053436
 20
3.13851893446439
 10
6.081458155053435
 20
3.129984534464395
 10
6.046482355053433
 20
3.106413334464388
 10
6.022911155053434
 20
3.071412134464392
 10
6.014376755053435
 20
3.039306534464391
 10
6.014376755053435
 20
3.028562334464393
  0
LWPOLYLINE
  5
1B25
330
1D
100
AcDbEntity
  8
0
 62
     0
100
AcDbPolyline
 90
       25
 70
     1
 43
0.0
 10
10.66604470057246
 20
2.253184370280536
 10
10.66604470057246
 20
2.242567170280534
 10
10.67457910057246
 20
2.210461570280536
 10
10.69815030057246
 20
2.175460370280533
 10
10.73312610057246
 20
2.151889170280533
 10
10.76523170057246
 20
2.143202370280534
 10
10.77600130057246
 20
2.143202370280534
 10
10.78661850057246
 20
2.143202370280534
 10
10.81872410057246
 20
2.151889170280533
 10
10.85372530057246
 20
2.175460370280533
 10
10.87727110057246
 20
2.210461570280536
 10
10.88595790057246
 20
2.242567170280534
 10
10.88595790057246
 20
2.253184370280536
 10
10.88595790057246
 20
2.263928570280534
 10
10.87727110057246
 20
2.296034170280535
 10
10.85372530057246
 20
2.331035370280532
 10
10.81872410057246
 20
2.354606570280538
 10
10.78661850057246
 20
2.363140970280533
 10
10.77600130057246
 20
2.363140970280533
 10
10.76523170057246
 20
2.363140970280533
 10
10.73312610057246
 20
2.354606570280538
 10
10.69815030057246
 20
2.331035370280532
 10
10.67457910057246
 20
2.296034170280535
 10
10.66604470057246
 20
2.263928570280534
 10
10.66604470057246
 20
2.253184370280536
  0
LWPOLYLINE
  5
1E56
330
1D
100
AcDbEntity
  8
BLACK
100
AcDbPolyline
 90
       41
 70
     1
 43
0.0
 10
5.535355339059327
 20
2.863355721050088
 42
0.1989123673796711
 10
5.499999999999998
 20
2.878000381990763
 10
1.899999999999997
 20
2.878000381990763
 10
1.700000000000001
 20
2.878000381990763
 10
-0.0000000000000018
 20
2.878000381990759
 42
-0.4142135623730951
 10
-0.0499999999999989
 20
2.92800038199076
 10
-0.0500000000000018
 20
8.453000381990762
 42
-0.4142135623730951
 10
-0.0000000000000018
 20
8.503000381990763
 10
1.700000000000001
 20
8.503000381990763
 10
1.899999999999997
 20
8.503000381990763
 10
3.700000000000001
 20
8.503000381990763
 42
0.4142135623730951
 10
3.750000000000001
 20
8.553000381990763
 10
3.749999999999998
 20
8.928000381990763
 42
-0.4142135623730951
 10
3.799999999999995
 20
8.978000381990764
 10
5.6
 20
8.97800038199076
 42
0.4142135623730951
 10
5.649999999999999
 20
9.028000381990761
 10
5.649999999999997
 20
9.153000381990761
 42
-0.4142135623730951
 10
5.700000000000001
 20
9.203000381990762
 10
7.399999999999997
 20
9.203000381990762
 42
-0.4142135623730951
 10
7.449999999999997
 20
9.153000381990761
 10
7.450000000000001
 20
9.028000381990761
 42
0.4142135623730951
 10
7.499999999999998
 20
8.97800038199076
 10
9.299999999999995
 20
8.97800038199076
 42
-0.4142135623730951
 10
9.349999999999996
 20
8.928000381990763
 10
9.349999999999993
 20
8.778000381990761
 42
0.4142135623730951
 10
9.399999999999997
 20
8.72800038199076
 10
11.2
 20
8.72800038199076
 42
-0.4142135623730951
 10
11.25
 20
8.678000381990763
 10
11.25
 20
8.554549754442824
 42
0.3412211613933909
 10
11.30008048183513
 20
8.502200807024288
 10
13.27508048183513
 20
8.502200807024288
 42
-0.4142135623730951
 10
13.32508048183514
 20
8.452200807024287
 10
13.32508597877138
 20
2.556540865899425
 42
-0.1248124547346714
 10
13.25363457791802
 20
2.326822064220806
 10
11.93
 20
0.0230003819907587
 42
-0.422887275269124
 10
11.80700062232624
 20
0.0
 10
10.33213831298436
 20
0.8488922212655119
 42
0.0413774890393676
 10
10.30412576138769
 20
0.8561014093141068
 10
6.624999999999998
 20
1.403000381990761
 42
-0.1530401350492255
 10
6.590000000000002
 20
1.418000381990762
 10
5.534999999999995
 20
2.863823069543184
  0
LWPOLYLINE
  5
1EC9
330
1D
100
AcDbEntity
  8
0
 62
     0
100
AcDbPolyline
 90
       25
 70
     1
 43
0.0
 10
15.37515507254236
 20
4.742084257430371
 10
15.37515507254236
 20
4.731467057430368
 10
15.38368947254236
 20
4.699361457430371
 10
15.40726067254236
 20
4.664360257430367
 10
15.44223647254236
 20
4.640789057430368
 10
15.47434207254236
 20
4.632102257430368
 10
15.48511167254236
 20
4.632102257430368
 10
15.49572887254236
 20
4.632102257430368
 10
15.52783447254236
 20
4.640789057430368
 10
15.56283567254236
 20
4.664360257430367
 10
15.58638147254236
 20
4.699361457430371
 10
15.59506827254236
 20
4.731467057430368
 10
15.59506827254236
 20
4.742084257430371
 10
15.59506827254236
 20
4.752828457430368
 10
15.58638147254236
 20
4.78493405743037
 10
15.56283567254236
 20
4.819935257430366
 10
15.52783447254236
 20
4.843506457430372
 10
15.49572887254236
 20
4.852040857430367
 10
15.48511167254236
 20
4.852040857430367
 10
15.47434207254236
 20
4.852040857430367
 10
15.44223647254236
 20
4.843506457430372
 10
15.40726067254236
 20
4.819935257430366
 10
15.38368947254236
 20
4.78493405743037
 10
15.37515507254236
 20
4.752828457430368
 10
15.37515507254236
 20
4.742084257430371
  0
LWPOLYLINE
  5
1ECA
330
1D
100
AcDbEntity
  8
0
 62
     0
100
AcDbPolyline
 90
       25
 70
     1
 43
0.0
 10
15.37603455106492
 20
6.642493500160391
 10
15.37603455106492
 20
6.631876300160389
 10
15.38456895106492
 20
6.599770700160391
 10
15.40814015106491
 20
6.564769500160388
 10
15.44311595106492
 20
6.541198300160389
 10
15.47522155106491
 20
6.532511500160389
 10
15.48599115106491
 20
6.532511500160389
 10
15.49660835106492
 20
6.532511500160389
 10
15.52871395106491
 20
6.541198300160389
 10
15.56371515106491
 20
6.564769500160388
 10
15.58726095106491
 20
6.599770700160391
 10
15.59594775106491
 20
6.631876300160389
 10
15.59594775106491
 20
6.642493500160391
 10
15.59594775106491
 20
6.653237700160389
 10
15.58726095106491
 20
6.68534330016039
 10
15.56371515106491
 20
6.720344500160387
 10
15.52871395106491
 20
6.743915700160393
 10
15.49660835106492
 20
6.752450100160388
 10
15.48599115106491
 20
6.752450100160388
 10
15.47522155106491
 20
6.752450100160388
 10
15.44311595106492
 20
6.743915700160393
 10
15.40814015106491
 20
6.720344500160387
 10
15.38456895106492
 20
6.68534330016039
 10
15.37603455106492
 20
6.653237700160389
 10
15.37603455106492
 20
6.642493500160391
  0
LWPOLYLINE
  5
1ECB
330
1D
100
AcDbEntity
  8
0
 62
     0
100
AcDbPolyline
 90
       25
 70
     1
 43
0.0
 10
17.27703455106492
 20
6.629844605838713
 10
17.27703455106492
 20
6.619227405838711
 10
17.28556895106492
 20
6.587121805838713
 10
17.30914015106492
 20
6.552120605838709
 10
17.34411595106492
 20
6.52854940583871
 10
17.37622155106492
 20
6.519862605838711
 10
17.38699115106493
 20
6.519862605838711
 10
17.39760835106492
 20
6.519862605838711
 10
17.42971395106493
 20
6.52854940583871
 10
17.46471515106492
 20
6.552120605838709
 10
17.48826095106492
 20
6.587121805838713
 10
17.49694775106492
 20
6.619227405838711
 10
17.49694775106492
 20
6.629844605838713
 10
17.49694775106492
 20
6.640588805838711
 10
17.48826095106492
 20
6.672694405838712
 10
17.46471515106492
 20
6.707695605838708
 10
17.42971395106493
 20
6.731266805838715
 10
17.39760835106492
 20
6.73980120583871
 10
17.38699115106493
 20
6.73980120583871
 10
17.37622155106492
 20
6.73980120583871
 10
17.34411595106492
 20
6.731266805838715
 10
17.30914015106492
 20
6.707695605838708
 10
17.28556895106492
 20
6.672694405838712
 10
17.27703455106492
 20
6.640588805838711
 10
17.27703455106492
 20
6.629844605838713
  0
LWPOLYLINE
  5
1ECC
330
1D
100
AcDbEntity
  8
0
 62
     0
100
AcDbPolyline
 90
       25
 70
     1
 43
0.0
 10
17.27581538869093
 20
4.730374301442339
 10
17.27581538869093
 20
4.719757101442337
 10
17.28434978869093
 20
4.687651501442339
 10
17.30792098869093
 20
4.652650301442335
 10
17.34289678869093
 20
4.629079101442336
 10
17.37500238869093
 20
4.620392301442337
 10
17.38577198869093
 20
4.620392301442337
 10
17.39638918869093
 20
4.620392301442337
 10
17.42849478869093
 20
4.629079101442336
 10
17.46349598869093
 20
4.652650301442335
 10
17.48704178869093
 20
4.687651501442339
 10
17.49572858869093
 20
4.719757101442337
 10
17.49572858869093
 20
4.730374301442339
 10
17.49572858869093
 20
4.741118501442337
 10
17.48704178869093
 20
4.773224101442338
 10
17.46349598869093
 20
4.808225301442334
 10
17.42849478869093
 20
4.831796501442341
 10
17.39638918869093
 20
4.840330901442336
 10
17.38577198869093
 20
4.840330901442336
 10
17.37500238869093
 20
4.840330901442336
 10
17.34289678869093
 20
4.831796501442341
 10
17.30792098869093
 20
4.808225301442334
 10
17.28434978869093
 20
4.773224101442338
 10
17.27581538869093
 20
4.741118501442337
 10
17.27581538869093
 20
4.730374301442339
  0
LWPOLYLINE
  5
1ECD
330
1D
100
AcDbEntity
  8
0
 62
     0
100
AcDbPolyline
 90
       25
 70
     1
 43
0.0
 10
22.97767761287204
 20
7.004707680473942
 10
22.97767761287204
 20
6.99409048047394
 10
22.98621201287204
 20
6.961984880473942
 10
23.00978321287204
 20
6.926983680473938
 10
23.04475901287204
 20
6.903412480473939
 10
23.07686461287204
 20
6.89472568047394
 10
23.08763421287204
 20
6.89472568047394
 10
23.09825141287204
 20
6.89472568047394
 10
23.13035701287204
 20
6.903412480473939
 10
23.16535821287204
 20
6.926983680473938
 10
23.18890401287204
 20
6.961984880473942
 10
23.19759081287204
 20
6.99409048047394
 10
23.19759081287204
 20
7.004707680473942
 10
23.19759081287204
 20
7.01545188047394
 10
23.18890401287204
 20
7.047557480473941
 10
23.16535821287204
 20
7.082558680473937
 10
23.13035701287204
 20
7.106129880473944
 10
23.09825141287204
 20
7.114664280473939
 10
23.08763421287204
 20
7.114664280473939
 10
23.07686461287204
 20
7.114664280473939
 10
23.04475901287204
 20
7.106129880473944
 10
23.00978321287204
 20
7.082558680473937
 10
22.98621201287204
 20
7.047557480473941
 10
22.97767761287204
 20
7.01545188047394
 10
22.97767761287204
 20
7.004707680473942
  0
LWPOLYLINE
  5
1ECF
330
1D
100
AcDbEntity
  8
0
 62
     0
100
AcDbPolyline
 90
       25
 70
     1
 43
0.0
 10
19.70008198625881
 20
3.030244255099305
 10
19.70008198625881
 20
3.019627055099303
 10
19.70861638625881
 20
2.987521455099305
 10
19.73218758625881
 20
2.952520255099301
 10
19.76716338625881
 20
2.928949055099302
 10
19.79926898625881
 20
2.920262255099303
 10
19.81003858625881
 20
2.920262255099303
 10
19.82065578625881
 20
2.920262255099303
 10
19.85276138625881
 20
2.928949055099302
 10
19.88776258625881
 20
2.952520255099301
 10
19.91130838625881
 20
2.987521455099305
 10
19.91999518625881
 20
3.019627055099303
 10
19.91999518625881
 20
3.030244255099305
 10
19.91999518625881
 20
3.040988455099303
 10
19.91130838625881
 20
3.073094055099304
 10
19.88776258625881
 20
3.1080952550993
 10
19.85276138625881
 20
3.131666455099307
 10
19.82065578625881
 20
3.140200855099302
 10
19.81003858625881
 20
3.140200855099302
 10
19.79926898625881
 20
3.140200855099302
 10
19.76716338625881
 20
3.131666455099307
 10
19.73218758625881
 20
3.1080952550993
 10
19.70861638625881
 20
3.073094055099304
 10
19.70008198625881
 20
3.040988455099303
 10
19.70008198625881
 20
3.030244255099305
  0
LWPOLYLINE
  5
1ED0
330
1D
100
AcDbEntity
  8
0
 62
     0
100
AcDbPolyline
 90
       25
 70
     1
 43
0.0
 10
24.35174993177784
 20
2.254866290915448
 10
24.35174993177784
 20
2.244249090915446
 10
24.36028433177783
 20
2.212143490915448
 10
24.38385553177783
 20
2.177142290915445
 10
24.41883133177784
 20
2.153571090915445
 10
24.45093693177784
 20
2.144884290915446
 10
24.46170653177784
 20
2.144884290915446
 10
24.47232373177783
 20
2.144884290915446
 10
24.50442933177784
 20
2.153571090915445
 10
24.53943053177784
 20
2.177142290915445
 10
24.56297633177783
 20
2.212143490915448
 10
24.57166313177784
 20
2.244249090915446
 10
24.57166313177784
 20
2.254866290915448
 10
24.57166313177784
 20
2.265610490915446
 10
24.56297633177783
 20
2.297716090915447
 10
24.53943053177784
 20
2.332717290915443
 10
24.50442933177784
 20
2.35628849091545
 10
24.47232373177783
 20
2.364822890915445
 10
24.46170653177784
 20
2.364822890915445
 10
24.45093693177784
 20
2.364822890915445
 10
24.41883133177784
 20
2.35628849091545
 10
24.38385553177783
 20
2.332717290915443
 10
24.36028433177783
 20
2.297716090915447
 10
24.35174993177784
 20
2.265610490915446
 10
24.35174993177784
 20
2.254866290915448
  0
LWPOLYLINE
  5
1ED1
330
1D
100
AcDbEntity
  8
0
 62
     0
100
AcDbPolyline
 90
       25
 70
     1
 43
0.0
 10
25.17214353573056
 20
3.827305116376426
 10
25.17214353573056
 20
3.816687916376424
 10
25.18067793573056
 20
3.784582316376426
 10
25.20424913573056
 20
3.749581116376422
 10
25.23922493573055
 20
3.726009916376423
 10
25.27133053573056
 20
3.717323116376424
 10
25.28210013573056
 20
3.717323116376424
 10
25.29271733573056
 20
3.717323116376424
 10
25.32482293573056
 20
3.726009916376423
 10
25.35982413573056
 20
3.749581116376422
 10
25.38336993573056
 20
3.784582316376426
 10
25.39205673573056
 20
3.816687916376424
 10
25.39205673573056
 20
3.827305116376426
 10
25.39205673573056
 20
3.838049316376424
 10
25.38336993573056
 20
3.870154916376425
 10
25.35982413573056
 20
3.905156116376421
 10
25.32482293573056
 20
3.928727316376428
 10
25.29271733573056
 20
3.937261716376423
 10
25.28210013573056
 20
3.937261716376423
 10
25.27133053573056
 20
3.937261716376423
 10
25.23922493573055
 20
3.928727316376428
 10
25.20424913573056
 20
3.905156116376421
 10
25.18067793573056
 20
3.870154916376425
 10
25.17214353573056
 20
3.838049316376424
 10
25.17214353573056
 20
3.827305116376426
  0
LWPOLYLINE
  5
1ED2
330
1D
100
AcDbEntity
  8
0
 62
     0
100
AcDbPolyline
 90
       25
 70
     1
 43
0.0
 10
26.62214353573056
 20
2.977305116376424
 10
26.62214353573056
 20
2.966687916376422
 10
26.63067793573056
 20
2.934582316376424
 10
26.65424913573056
 20
2.899581116376421
 10
26.68922493573056
 20
2.876009916376422
 10
26.72133053573056
 20
2.867323116376422
 10
26.73210013573056
 20
2.867323116376422
 10
26.74271733573056
 20
2.867323116376422
 10
26.77482293573056
 20
2.876009916376422
 10
26.80982413573056
 20
2.899581116376421
 10
26.83336993573056
 20
2.934582316376424
 10
26.84205673573056
 20
2.966687916376422
 10
26.84205673573056
 20
2.977305116376424
 10
26.84205673573056
 20
2.988049316376422
 10
26.83336993573056
 20
3.020154916376423
 10
26.80982413573056
 20
3.05515611637642
 10
26.77482293573056
 20
3.078727316376426
 10
26.74271733573056
 20
3.087261716376421
 10
26.73210013573056
 20
3.087261716376421
 10
26.72133053573056
 20
3.087261716376421
 10
26.68922493573056
 20
3.078727316376426
 10
26.65424913573056
 20
3.05515611637642
 10
26.63067793573056
 20
3.020154916376423
 10
26.62214353573056
 20
2.988049316376422
 10
26.62214353573056
 20
2.977305116376424
  0
LWPOLYLINE
  5
1EE9
330
1D
100
AcDbEntity
  8
BLACK
100
AcDbPolyline
 90
       41
 70
     1
 43
0.0
 10
19.2210605702647
 20
2.865037641684999
 42
0.1989123673796711
 10
19.18570523120538
 20
2.879682302625675
 10
15.58570523120537
 20
2.879682302625675
 10
15.38570523120538
 20
2.879682302625675
 10
13.68570523120537
 20
2.879682302625671
 42
-0.4142135623730951
 10
13.63570523120538
 20
2.929682302625672
 10
13.63570523120537
 20
8.454682302625674
 42
-0.4142135623730951
 10
13.68570523120537
 20
8.504682302625675
 10
15.38570523120538
 20
8.504682302625675
 10
15.58570523120537
 20
8.504682302625675
 10
17.38570523120538
 20
8.504682302625675
 42
0.4142135623730951
 10
17.43570523120538
 20
8.554682302625675
 10
17.43570523120538
 20
8.929682302625675
 42
-0.4142135623730951
 10
17.48570523120537
 20
8.979682302625676
 10
19.28570523120538
 20
8.979682302625672
 42
0.4142135623730951
 10
19.33570523120537
 20
9.029682302625673
 10
19.33570523120537
 20
9.154682302625673
 42
-0.4142135623730951
 10
19.38570523120538
 20
9.204682302625674
 10
21.08570523120537
 20
9.204682302625674
 42
-0.4142135623730951
 10
21.13570523120537
 20
9.154682302625673
 10
21.13570523120538
 20
9.029682302625673
 42
0.4142135623730951
 10
21.18570523120538
 20
8.979682302625672
 10
22.98570523120537
 20
8.979682302625672
 42
-0.4142135623730951
 10
23.03570523120537
 20
8.929682302625675
 10
23.03570523120537
 20
8.779682302625673
 42
0.4142135623730951
 10
23.08570523120537
 20
8.729682302625672
 10
24.88570523120538
 20
8.729682302625672
 42
-0.4142135623730951
 10
24.93570523120538
 20
8.679682302625675
 10
24.93570523120538
 20
8.556231675077736
 10
24.93563568360619
 20
6.930270909002321
 10
24.93565608579446
 20
3.701217393230099
 42
0.1604146517315072
 10
24.99351375401889
 20
3.602236515799678
 10
26.90107337517993
 20
2.498577024604451
 42
-0.367859022328534
 10
26.9393398091234
 20
2.328503984855718
 10
25.61570523120538
 20
0.0246823026256706
 42
-0.422887275269124
 10
25.49270585353162
 20
0.0016819206349119
 10
24.01784354418974
 20
0.8505741419004238
 42
0.0413774890393676
 10
23.98983099259306
 20
0.8577833299490187
 10
20.31070523120538
 20
1.404682302625673
 42
-0.1530401350492255
 10
20.27570523120538
 20
1.419682302625674
 10
19.22070523120537
 20
2.865504990178096
  0
LWPOLYLINE
  5
1F92
330
1D
100
AcDbEntity
  8
0
  6
ByBlock
100
AcDbPolyline
 90
        9
 70
     0
 43
0.0
 10
25.02157336970257
 20
8.55312777680997
 10
25.02150832090953
 20
3.787492188977769
 42
0.2262020311986572
 10
25.084611140053
 20
3.645793720406402
 10
26.87212529517014
 20
2.595254031321701
 42
0.4875560979444537
 10
26.98146621991096
 20
2.656323100580476
 10
26.98146072297472
 20
8.551983041705338
 42
0.4142135623730951
 10
26.93146072297472
 20
8.601983041705342
 10
25.0715775114913
 20
8.601983041705338
 42
0.4136231316728759
 10
25.02155828365895
 20
8.551933278628937
  0
CIRCLE
  5
8A8C
330
1D
100
AcDbEntity
  8
0
  6
ByBlock
100
AcDbCircle
 10
14.22456279621991
 20
19.61712845569578
 30
0.0
 40
0.11
  0
CIRCLE
  5
8A8D
330
1D
100
AcDbEntity
  8
0
  6
ByBlock
100
AcDbCircle
 10
12.19804934037914
 20
19.99424036867993
 30
0.0
 40
0.11
  0
CIRCLE
  5
8A8E
330
1D
100
AcDbEntity
  8
0
  6
ByBlock
100
AcDbCircle
 10
7.16381806745814
 20
20.38938037703168
 30
0.0
 40
0.11
  0
CIRCLE
  5
8A8F
330
1D
100
AcDbEntity
  8
0
  6
ByBlock
100
AcDbCircle
 10
0.2679450989561562
 20
19.57989882481449
 30
0.0
 40
0.11
  0
CIRCLE
  5
8A90
330
1D
100
AcDbEntity
  8
0
  6
ByBlock
100
AcDbCircle
 10
0.2679450989561562
 20
13.47977197981088
 30
0.0
 40
0.11
  0
CIRCLE
  5
8A91
330
1D
100
AcDbEntity
  8
0
  6
ByBlock
100
AcDbCircle
 10
7.009074474362535
 20
11.97817294193793
 30
0.0
 40
0.11
  0
CIRCLE
  5
8A92
330
1D
100
AcDbEntity
  8
0
  6
ByBlock
100
AcDbCircle
 10
12.61189373826505
 20
10.4373536217151
 30
0.0
 40
0.11
  0
CIRCLE
  5
8A93
330
1D
100
AcDbEntity
  8
0
  6
ByBlock
100
AcDbCircle
 10
14.22456279621991
 20
13.74889457530425
 30
0.0
 40
0.11
  0
CIRCLE
  5
8A94
330
1D
100
AcDbEntity
  8
0
  6
ByBlock
100
AcDbCircle
 10
14.22456279621991
 20
15.3061800581132
 30
0.0
 40
0.11
  0
LWPOLYLINE
  5
8D69
330
1D
100
AcDbEntity
  8
0
  6
ByBlock
100
AcDbPolyline
 90
       16
 70
     1
 43
0.0
 10
14.47456279621991
 20
19.70996745968459
 42
0.3447786502981565
 10
14.39859847537452
 20
19.80703592071894
 42
0.0084377410676974
 10
13.63130171583666
 20
19.98334447211035
 42
0.0114486107921471
 10
12.47526509049495
 20
20.18587358871767
 42
0.0346590134139668
 10
7.163818067458138
 20
20.62892356971568
 42
0.0545910560526014
 10
0.0939429241887852
 20
19.78908120572807
 42
0.3490982160507599
 10
0.0164788180579421
 20
19.6916536249949
 10
0.0164788180579402
 20
13.32977197981087
 42
0.4142135623730951
 10
0.1164788180579402
 20
13.22977197981087
 10
4.796949332065683
 20
13.22977197981088
 42
-0.282604400608958
 10
6.839577704428953
 20
11.78135047405693
 42
0.2149136932869866
 10
6.909573918716005
 20
11.73831010788769
 42
-0.1659729413416289
 10
12.62000392803655
 20
10.14699411230182
 42
0.4137944921434764
 10
12.75640294649942
 20
10.18396285082043
 10
14.46127314492064
 20
13.15167151094562
 42
0.1311031238422928
 10
14.47456279621991
 20
13.20148431480365
  0
CIRCLE
  5
8DB9
330
1D
100
AcDbEntity
  8
0
  6
ByBlock
100
AcDbCircle
 10
27.55911445928955
 20
10.4373536217151
 30
0.0
 40
0.11
  0
CIRCLE
  5
8DBA
330
1D
100
AcDbEntity
  8
0
  6
ByBlock
100
AcDbCircle
 10
29.17178351724441
 20
13.74889457530424
 30
0.0
 40
0.11
  0
CIRCLE
  5
8DBB
330
1D
100
AcDbEntity
  8
0
  6
ByBlock
100
AcDbCircle
 10
29.17178351724441
 20
15.3061800581132
 30
0.0
 40
0.11
  0
CIRCLE
  5
8DBC
330
1D
100
AcDbEntity
  8
0
  6
ByBlock
100
AcDbCircle
 10
29.17178351724441
 20
19.61712845569578
 30
0.0
 40
0.11
  0
CIRCLE
  5
8DBD
330
1D
100
AcDbEntity
  8
0
  6
ByBlock
100
AcDbCircle
 10
27.14527006140364
 20
19.99424036867993
 30
0.0
 40
0.11
  0
CIRCLE
  5
8DBE
330
1D
100
AcDbEntity
  8
0
  6
ByBlock
100
AcDbCircle
 10
22.11103878848264
 20
20.38938037703167
 30
0.0
 40
0.11
  0
CIRCLE
  5
8DBF
330
1D
100
AcDbEntity
  8
0
  6
ByBlock
100
AcDbCircle
 10
15.21516581998065
 20
19.57989882481449
 30
0.0
 40
0.11
  0
CIRCLE
  5
8DC0
330
1D
100
AcDbEntity
  8
0
  6
ByBlock
100
AcDbCircle
 10
15.21516581998065
 20
13.47977197981087
 30
0.0
 40
0.11
  0
CIRCLE
  5
8DC1
330
1D
100
AcDbEntity
  8
0
  6
ByBlock
100
AcDbCircle
 10
21.95629519538704
 20
11.97817294193793
 30
0.0
 40
0.11
  0
LWPOLYLINE
  5
8DC2
330
1D
100
AcDbEntity
  8
0
  6
ByBlock
100
AcDbPolyline
 90
       16
 70
     1
 43
0.0
 10
29.42178351724441
 20
19.70996745968459
 42
0.3447786502981565
 10
29.34581919639902
 20
19.80703592071893
 42
0.0084377410676974
 10
28.57852243686116
 20
19.98334447211035
 42
0.0114486107921471
 10
27.42248581151945
 20
20.18587358871767
 42
0.0346590134139668
 10
22.11103878848264
 20
20.62892356971568
 42
0.0545910560526014
 10
15.04116364521328
 20
19.78908120572807
 42
0.3490982160507599
 10
14.96369953908244
 20
19.6916536249949
 10
14.96369953908244
 20
13.32977197981087
 42
0.4142135623730951
 10
15.06369953908244
 20
13.22977197981087
 10
19.74417005309018
 20
13.22977197981087
 42
-0.282604400608958
 10
21.78679842545345
 20
11.78135047405693
 42
0.2149136932869866
 10
21.8567946397405
 20
11.73831010788769
 42
-0.1659729413416289
 10
27.56722464906105
 20
10.14699411230181
 42
0.4137944921434764
 10
27.70362366752391
 20
10.18396285082043
 10
29.40849386594514
 20
13.15167151094562
 42
0.1311031238422928
 10
29.42178351724441
 20
13.20148431480365
  0
LWPOLYLINE
  5
8DFA
330
1D
100
AcDbEntity
  8
0
  6
ByBlock
100
AcDbPolyline
 90
       40
 70
     1
 43
0.0
 10
15.56369953908244
 20
19.42925757317826
 42
0.4142135623730951
 10
15.46369953908244
 20
19.32925757317826
 10
15.46369953908244
 20
13.82731826217225
 42
0.4142135623730951
 10
15.56369953908244
 20
13.72731826217225
 10
19.16392002544838
 20
13.72731826217225
 42
0.4158709096056959
 10
19.26391842637704
 20
13.8278837811471
 10
19.26242188969907
 20
14.09251022408753
 42
-0.4158709096056966
 10
19.36242029062772
 20
14.19307574306237
 10
21.0729719390777
 20
14.19307574306237
 42
0.4142135623730945
 10
21.1729719390777
 20
14.29307574306237
 10
21.1729719390777
 20
14.33891644313505
 42
-0.4142135623730948
 10
21.27297193907771
 20
14.43891644313505
 10
21.99958171258103
 20
14.43891644313505
 42
-0.4142135623730945
 10
22.09958171258103
 20
14.33891644313505
 10
22.09958171258104
 20
12.3165286793542
 42
0.4210418173783984
 10
22.20190717422645
 20
12.21655572187001
 42
-0.1433943390319768
 10
27.37713591860475
 20
10.83101749619185
 42
0.4211663689321567
 10
27.51574515387378
 20
10.86652852587941
 10
28.8879729188621
 20
13.24792239150607
 42
0.4126536148829753
 10
28.85171645235418
 20
13.38422679549041
 10
26.91770092804753
 20
14.51243299575777
 42
-0.2668548259671196
 10
26.86805431128784
 20
14.59883054662731
 10
26.86805431128784
 20
19.57604169475717
 42
0.4142135623730951
 10
26.76805431128784
 20
19.67604169475717
 10
25.05862051979858
 20
19.67604169475717
 42
-0.4142135623730949
 10
24.95862051979858
 20
19.77604169475718
 10
24.95862051979858
 20
19.80621021409402
 42
0.4142135623730951
 10
24.85862051979858
 20
19.90621021409402
 10
23.15862051979857
 20
19.90621021409402
 42
-0.4142135623730949
 10
23.05862051979857
 20
20.00621021409402
 10
23.05862051979857
 20
20.02892356971568
 42
0.4142135623730951
 10
22.95862051979857
 20
20.12892356971568
 10
21.2634570571668
 20
20.12892356971568
 42
0.4142135623733906
 10
21.1634570571668
 20
20.02892356971558
 10
21.16345705716683
 20
20.00568083009593
 42
-0.4142135623733932
 10
21.06345705716683
 20
19.90568083009583
 10
19.36363003645296
 20
19.90568083009583
 42
0.4142135623730951
 10
19.26363003645296
 20
19.80568083009583
 10
19.26363003645296
 20
19.52925757317826
 42
-0.4142135623730948
 10
19.16363003645296
 20
19.42925757317826
  0
CIRCLE
  5
8EFD
330
1D
100
AcDbEntity
  8
0
  6
ByBlock
100
AcDbCircle
 10
29.17178351724441
 20
36.58058825756167
 30
0.0
 40
0.165
  0
CIRCLE
  5
8EFE
330
1D
100
AcDbEntity
  8
0
  6
ByBlock
100
AcDbCircle
 10
29.17178351724441
 20
40.89153665514425
 30
0.0
 40
0.165
  0
CIRCLE
  5
8EFF
330
1D
100
AcDbEntity
  8
0
  6
ByBlock
100
AcDbCircle
 10
27.14527006140364
 20
41.2686485681284
 30
0.0
 40
0.165
  0
CIRCLE
  5
8F00
330
1D
100
AcDbEntity
  8
0
  6
ByBlock
100
AcDbCircle
 10
22.11103878848264
 20
41.66378857648014
 30
0.0
 40
0.165
  0
CIRCLE
  5
8F01
330
1D
100
AcDbEntity
  8
0
  6
ByBlock
100
AcDbCircle
 10
15.21516581998066
 20
40.85430702426296
 30
0.0
 40
0.165
  0
CIRCLE
  5
8F02
330
1D
100
AcDbEntity
  8
0
  6
ByBlock
100
AcDbCircle
 10
15.21516581998066
 20
34.75418017925934
 30
0.0
 40
0.165
  0
CIRCLE
  5
8F03
330
1D
100
AcDbEntity
  8
0
  6
ByBlock
100
AcDbCircle
 10
21.95629519538704
 20
33.2525811413864
 30
0.0
 40
0.165
  0
CIRCLE
  5
8F04
330
1D
100
AcDbEntity
  8
0
  6
ByBlock
100
AcDbCircle
 10
27.55911445928955
 20
31.71176182116357
 30
0.0
 40
0.165
  0
CIRCLE
  5
8F05
330
1D
100
AcDbEntity
  8
0
  6
ByBlock
100
AcDbCircle
 10
29.17178351724441
 20
35.02330277475271
 30
0.0
 40
0.165
  0
LINE
  5
8F4D
330
1D
100
AcDbEntity
  8
0
  6
ByBlock
100
AcDbLine
 10
26.86805431128784
 20
40.71945421318337
 30
0.0
 11
26.86805431128784
 21
40.71945421318337
 31
0.0
  0
LWPOLYLINE
  5
8F6C
330
1D
100
AcDbEntity
  8
0
  6
ByBlock
100
AcDbPolyline
 90
       60
 70
     1
 43
0.0
 10
27.33745703437031
 20
41.47325393862093
 42
0.0340997047470658
 10
22.11103878848264
 20
41.90333176916416
 42
0.0545910560526014
 10
15.04116364521329
 20
41.06348940517654
 42
0.3490982160507599
 10
14.96369953908244
 20
40.96606182444337
 10
14.96369953908244
 20
34.60418017925934
 42
0.4142135623730951
 10
15.06369953908244
 20
34.50418017925934
 10
19.74417005309019
 20
34.50418017925935
 42
-0.282604400608958
 10
21.78679842545345
 20
33.0557586735054
 42
0.2149136932869867
 10
21.85679463974051
 20
33.01271830733616
 42
-0.1659729413416289
 10
27.56722464906105
 20
31.42140231175028
 42
0.4137944921434764
 10
27.70362366752392
 20
31.4583710502689
 10
29.40849386594514
 20
34.42607971039409
 42
0.1311031238422928
 10
29.42178351724441
 20
34.47589251425212
 10
29.42178351724441
 20
35.17307508542809
 42
0.4142135623730951
 10
29.32178351724441
 20
35.27307508542809
 10
29.02178351724442
 20
35.27307508542809
 42
0.4142135623730951
 10
28.92178351724441
 20
35.17307508542809
 10
28.92178351724441
 20
34.60675520368651
 42
-0.1314840559687455
 10
28.90841915372097
 20
34.55681257167436
 10
27.51574515387373
 20
32.14093672532788
 42
-0.4211663689321567
 10
27.3771359186047
 20
32.10542569564032
 42
0.1433943390319768
 10
22.2019071742264
 20
33.49096392131848
 42
-0.4210418173783984
 10
22.09958171258099
 20
33.59093687880268
 10
22.09958171258099
 20
35.61332464258352
 42
0.4142135623730945
 10
21.99958171258099
 20
35.71332464258352
 10
21.27297193907766
 20
35.71332464258352
 42
0.4142135623730948
 10
21.17297193907766
 20
35.61332464258352
 10
21.17297193907766
 20
35.56748394251085
 42
-0.4142135623730945
 10
21.07297193907766
 20
35.46748394251085
 10
19.36242029062768
 20
35.46748394251085
 42
0.4158709096056966
 10
19.26242188969902
 20
35.36691842353601
 10
19.26391842637699
 20
35.10229198059557
 42
-0.4158709096056959
 10
19.16392002544833
 20
35.00172646162073
 10
15.56369953908239
 20
35.00172646162073
 42
-0.4142135623730951
 10
15.46369953908239
 20
35.10172646162073
 10
15.46369953908239
 20
40.60366577262673
 42
-0.4142135623730951
 10
15.56369953908239
 20
40.70366577262674
 10
19.16363003645291
 20
40.70366577262674
 42
0.4142135623730948
 10
19.26363003645291
 20
40.80366577262674
 10
19.26363003645291
 20
41.0800890295443
 42
-0.4142135623730951
 10
19.36363003645291
 20
41.18008902954431
 10
21.06345705716678
 20
41.18008902954431
 42
0.4142135623733932
 10
21.16345705716678
 20
41.28008902954441
 10
21.16345705716676
 20
41.30333176916405
 42
-0.4142135623733906
 10
21.26345705716676
 20
41.40333176916415
 10
22.95862051979853
 20
41.40333176916415
 42
-0.4142135623730951
 10
23.05862051979853
 20
41.30333176916415
 10
23.05862051979853
 20
41.28061841354249
 42
0.4142135623730949
 10
23.15862051979853
 20
41.18061841354249
 10
24.85862051979853
 20
41.18061841354249
 42
-0.4142135623730951
 10
24.95862051979853
 20
41.08061841354249
 10
24.95862051979853
 20
41.05044989420565
 42
0.4142135623730949
 10
25.05862051979853
 20
40.95044989420565
 10
26.76805431128779
 20
40.95044989420565
 42
-0.4142135623730951
 10
26.8680543112878
 20
40.85044989420565
 10
26.86805431128781
 20
40.81945421318333
 42
0.414213562372992
 10
26.96805431128781
 20
40.71945421318337
 10
27.32248581151944
 20
40.71945421318337
 42
0.4142135623730945
 10
27.42248581151944
 20
40.81945421318337
 10
27.42248581151944
 20
41.37438097726977
 42
0.3708527513654833
  0
LWPOLYLINE
  5
9098
330
1D
100
AcDbEntity
  8
0
  6
ByBlock
100
AcDbPolyline
 90
       12
 70
     1
 43
0.0
 10
28.67842426539709
 20
40.71904712972763
 10
28.82188168870848
 20
40.71890629540697
 42
-0.4139260539881358
 10
28.92178351724441
 20
40.61890634359517
 10
28.92178351724441
 20
36.40998689237522
 42
0.4142135623730949
 10
29.02178351724442
 20
36.30998689237522
 10
29.32178351724441
 20
36.30998689237522
 42
0.4142135623730955
 10
29.42178351724441
 20
36.40998689237522
 10
29.42178351724441
 20
40.98437565913306
 42
0.3447786502981565
 10
29.34581919639902
 20
41.0814441201674
 42
0.0071084303967713
 10
28.69978880161455
 20
41.23169746206739
 42
0.4784680168071108
 10
28.57852243686116
 20
41.13398491563564
 10
28.57852243686116
 20
40.81904708153944
 42
0.4139260539881329
  0
LWPOLYLINE
  5
91DE
330
1D
100
AcDbEntity
  8
0
  6
ByBlock
100
AcDbPolyline
 90
       12
 70
     1
 43
0.0
 10
13.75797987208845
 20
30.224106135779
 10
13.90143729539984
 20
30.22396530145834
 42
-0.4139260539881358
 10
14.00133912393577
 20
30.12396534964654
 10
14.00133912393577
 20
25.91504589842659
 42
0.4142135623730949
 10
14.10133912393577
 20
25.81504589842659
 10
14.40133912393577
 20
25.81504589842659
 42
0.4142135623730955
 10
14.50133912393577
 20
25.91504589842659
 10
14.50133912393576
 20
30.48943466518443
 42
0.3447786502981565
 10
14.42537480309037
 20
30.58650312621877
 42
0.0071084303967713
 10
13.77934440830591
 20
30.73675646811876
 42
0.4784680168071108
 10
13.65807804355252
 20
30.63904392168701
 10
13.65807804355252
 20
30.32410608759081
 42
0.4139260539881329
  0
CIRCLE
  5
91E0
330
1D
100
AcDbEntity
  8
0
  6
ByBlock
100
AcDbCircle
 10
14.25133912393577
 20
26.08564726361304
 30
0.0
 40
0.165
  0
CIRCLE
  5
91E1
330
1D
100
AcDbEntity
  8
0
  6
ByBlock
100
AcDbCircle
 10
14.25133912393577
 20
30.39659566119562
 30
0.0
 40
0.165
  0
CIRCLE
  5
91E2
330
1D
100
AcDbEntity
  8
0
  6
ByBlock
100
AcDbCircle
 10
12.224825668095
 20
30.77370757417977
 30
0.0
 40
0.165
  0
CIRCLE
  5
91E3
330
1D
100
AcDbEntity
  8
0
  6
ByBlock
100
AcDbCircle
 10
7.190594395173999
 20
31.16884758253151
 30
0.0
 40
0.165
  0
CIRCLE
  5
91E4
330
1D
100
AcDbEntity
  8
0
  6
ByBlock
100
AcDbCircle
 10
0.294721426672016
 20
30.35936603031433
 30
0.0
 40
0.165
  0
CIRCLE
  5
91E5
330
1D
100
AcDbEntity
  8
0
  6
ByBlock
100
AcDbCircle
 10
0.2947214266720142
 20
24.25923918531071
 30
0.0
 40
0.165
  0
CIRCLE
  5
91E6
330
1D
100
AcDbEntity
  8
0
  6
ByBlock
100
AcDbCircle
 10
7.035850802078393
 20
22.75764014743777
 30
0.0
 40
0.165
  0
CIRCLE
  5
91E7
330
1D
100
AcDbEntity
  8
0
  6
ByBlock
100
AcDbCircle
 10
12.63867006598091
 20
21.21682082721494
 30
0.0
 40
0.165
  0
CIRCLE
  5
91E8
330
1D
100
AcDbEntity
  8
0
  6
ByBlock
100
AcDbCircle
 10
14.25133912393577
 20
24.52836178080408
 30
0.0
 40
0.165
  0
CIRCLE
  5
9237
330
1D
100
AcDbEntity
  8
0
  6
ByBlock
100
AcDbCircle
 10
6.707517756285836
 20
13.90276769202155
 30
0.0
 40
0.11
  0
CIRCLE
  5
923A
330
1D
100
AcDbEntity
  8
0
  6
ByBlock
100
AcDbCircle
 10
21.65589162727661
 20
13.90276769202154
 30
0.0
 40
0.11
  0
CIRCLE
  5
923B
330
1D
100
AcDbEntity
  8
0
  6
ByBlock
100
AcDbCircle
 10
21.95629519538704
 20
33.2525811413864
 30
0.0
 40
0.165
  0
CIRCLE
  5
923C
330
1D
100
AcDbEntity
  8
0
  6
ByBlock
100
AcDbCircle
 10
21.65589162727661
 20
35.17717589147001
 30
0.0
 40
0.165
  0
LWPOLYLINE
  5
93F9
330
1D
100
AcDbEntity
  8
0
  6
ByBlock
100
AcDbPolyline
 90
       55
 70
     0
 43
0.0
 10
6.146469217973856
 20
24.49214080673142
 42
0.1989123673796697
 10
6.111113878914527
 20
24.5067854676721
 10
0.6432551457737503
 20
24.5067854676721
 42
-0.4142135623730951
 10
0.5432551457737489
 20
24.6067854676721
 10
0.5432551457737507
 20
30.1087247786781
 42
-0.4142135623730951
 10
0.6432551457737503
 20
30.2087247786781
 10
4.243185643144269
 20
30.2087247786781
 42
0.4142135623730948
 10
4.34318564314427
 20
30.3087247786781
 10
4.34318564314427
 20
30.58514803559567
 42
-0.4142135623730951
 10
4.443185643144272
 20
30.68514803559567
 10
6.143012663858141
 20
30.68514803559567
 42
0.4142135623733932
 10
6.243012663858138
 20
30.78514803559577
 10
6.243012663858114
 20
30.80839077521542
 42
-0.4142135623733906
 10
6.343012663858115
 20
30.90839077521552
 10
8.038176126489883
 20
30.90839077521552
 42
-0.4142135623730951
 10
8.138176126489885
 20
30.80839077521552
 10
8.138176126489885
 20
30.78567741959386
 42
0.4142135623730951
 10
8.238176126489886
 20
30.68567741959386
 10
9.93817612648989
 20
30.68567741959386
 42
-0.4142135623730951
 10
10.03817612648989
 20
30.58567741959386
 10
10.03817612648989
 20
30.55550890025702
 42
0.4142135623730951
 10
10.13817612648989
 20
30.45550890025702
 10
11.84760991797915
 20
30.45550890025702
 42
-0.4142135623730951
 10
11.94760991797915
 20
30.35550890025701
 10
11.94760991797916
 20
30.3245132192347
 42
0.414213562372992
 10
12.04760991797917
 20
30.22451321923474
 10
12.4020414182108
 20
30.22451321923474
 42
0.4142135623730945
 10
12.5020414182108
 20
30.32451321923474
 10
12.5020414182108
 20
30.87943998332113
 42
0.3708527513654833
 10
12.41701264106167
 20
30.9783129446723
 42
0.0340997047470658
 10
7.190594395173996
 20
31.40839077521553
 42
0.0545910560526014
 10
0.1207192519046494
 20
30.56854841122791
 42
0.34909821605076
 10
0.0432551457738022
 20
30.47112083049474
 10
0.0432551457738004
 20
24.10923918531071
 42
0.4142135623730951
 10
0.1432551457737982
 20
24.00923918531071
 10
4.823725659781545
 20
24.00923918531072
 42
-0.282604400608958
 10
6.866354032144812
 20
22.56081767955677
 42
0.2149136932869869
 10
6.936350246431864
 20
22.51777731338753
 42
-0.1659729413416289
 10
12.64678025575241
 20
20.92646131780165
 42
0.4137944921434764
 10
12.78317927421528
 20
20.96343005632027
 10
14.4880494726365
 20
23.93113871644546
 42
0.1311031238422928
 10
14.50133912393577
 20
23.98095152030348
 10
14.50133912393577
 20
24.67813409147946
 42
0.4142135623730951
 10
14.40133912393577
 20
24.77813409147946
 10
14.10133912393577
 20
24.77813409147946
 42
0.4142135623730951
 10
14.00133912393577
 20
24.67813409147946
 10
14.00133912393577
 20
24.11181420973788
 42
-0.1314840559687455
 10
13.98797476041233
 20
24.06187157772573
 10
12.59530076056509
 20
21.64599573137925
 42
-0.4211663689321567
 10
12.45669152529606
 20
21.61048470169169
 10
10.94325219189889
 20
22.47767730694684
 42
0.0413774890393674
 10
10.91523964030221
 20
22.48488649499544
 10
7.236113878914527
 20
23.03178546767209
 42
-0.1530401350492257
 10
7.20111387891453
 20
23.04678546767209
 10
6.146113878914523
 20
24.49260815522452
  0
LWPOLYLINE
  5
9508
330
1D
100
AcDbEntity
  8
0
  6
ByBlock
100
AcDbPolyline
 90
       12
 70
     1
 43
0.0
 10
28.52842426539709
 20
30.224106135779
 10
28.67188168870848
 20
30.22396530145834
 42
-0.4139260539881358
 10
28.77178351724441
 20
30.12396534964654
 10
28.77178351724441
 20
25.91504589842659
 42
0.4142135623730949
 10
28.87178351724441
 20
25.81504589842659
 10
29.17178351724441
 20
25.81504589842659
 42
0.4142135623730955
 10
29.27178351724441
 20
25.91504589842659
 10
29.2717835172444
 20
30.48943466518443
 42
0.3447786502981565
 10
29.19581919639901
 20
30.58650312621877
 42
0.0071084303967713
 10
28.54978880161455
 20
30.73675646811876
 42
0.4784680168071108
 10
28.42852243686116
 20
30.63904392168701
 10
28.42852243686116
 20
30.32410608759081
 42
0.4139260539881329
  0
CIRCLE
  5
9509
330
1D
100
AcDbEntity
  8
0
  6
ByBlock
100
AcDbCircle
 10
29.02178351724441
 20
26.08564726361304
 30
0.0
 40
0.165
  0
CIRCLE
  5
950A
330
1D
100
AcDbEntity
  8
0
  6
ByBlock
100
AcDbCircle
 10
29.02178351724441
 20
30.39659566119562
 30
0.0
 40
0.165
  0
CIRCLE
  5
950B
330
1D
100
AcDbEntity
  8
0
  6
ByBlock
100
AcDbCircle
 10
26.99527006140364
 20
30.77370757417977
 30
0.0
 40
0.165
  0
CIRCLE
  5
950C
330
1D
100
AcDbEntity
  8
0
  6
ByBlock
100
AcDbCircle
 10
21.96103878848264
 20
31.16884758253151
 30
0.0
 40
0.165
  0
CIRCLE
  5
950D
330
1D
100
AcDbEntity
  8
0
  6
ByBlock
100
AcDbCircle
 10
15.06516581998066
 20
30.35936603031433
 30
0.0
 40
0.165
  0
CIRCLE
  5
950E
330
1D
100
AcDbEntity
  8
0
  6
ByBlock
100
AcDbCircle
 10
15.06516581998065
 20
24.25923918531071
 30
0.0
 40
0.165
  0
CIRCLE
  5
950F
330
1D
100
AcDbEntity
  8
0
  6
ByBlock
100
AcDbCircle
 10
21.80629519538703
 20
22.75764014743777
 30
0.0
 40
0.165
  0
CIRCLE
  5
9510
330
1D
100
AcDbEntity
  8
0
  6
ByBlock
100
AcDbCircle
 10
27.40911445928955
 20
21.21682082721494
 30
0.0
 40
0.165
  0
CIRCLE
  5
9511
330
1D
100
AcDbEntity
  8
0
  6
ByBlock
100
AcDbCircle
 10
29.02178351724441
 20
24.52836178080408
 30
0.0
 40
0.165
  0
LWPOLYLINE
  5
9512
330
1D
100
AcDbEntity
  8
0
  6
ByBlock
100
AcDbPolyline
 90
       55
 70
     0
 43
0.0
 10
20.9169136112825
 20
24.49214080673142
 42
0.1989123673796697
 10
20.88155827222317
 20
24.5067854676721
 10
15.41369953908239
 20
24.5067854676721
 42
-0.4142135623730951
 10
15.31369953908239
 20
24.6067854676721
 10
15.31369953908239
 20
30.1087247786781
 42
-0.4142135623730951
 10
15.41369953908239
 20
30.2087247786781
 10
19.01363003645291
 20
30.2087247786781
 42
0.4142135623730948
 10
19.11363003645291
 20
30.3087247786781
 10
19.11363003645291
 20
30.58514803559567
 42
-0.4142135623730951
 10
19.21363003645291
 20
30.68514803559567
 10
20.91345705716678
 20
30.68514803559567
 42
0.4142135623733932
 10
21.01345705716678
 20
30.78514803559577
 10
21.01345705716675
 20
30.80839077521542
 42
-0.4142135623733906
 10
21.11345705716676
 20
30.90839077521552
 10
22.80862051979852
 20
30.90839077521552
 42
-0.4142135623730951
 10
22.90862051979853
 20
30.80839077521552
 10
22.90862051979853
 20
30.78567741959386
 42
0.4142135623730951
 10
23.00862051979853
 20
30.68567741959386
 10
24.70862051979853
 20
30.68567741959386
 42
-0.4142135623730951
 10
24.80862051979853
 20
30.58567741959386
 10
24.80862051979853
 20
30.55550890025702
 42
0.4142135623730951
 10
24.90862051979853
 20
30.45550890025702
 10
26.61805431128779
 20
30.45550890025702
 42
-0.4142135623730951
 10
26.71805431128779
 20
30.35550890025701
 10
26.7180543112878
 20
30.3245132192347
 42
0.414213562372992
 10
26.81805431128781
 20
30.22451321923474
 10
27.17248581151944
 20
30.22451321923474
 42
0.4142135623730945
 10
27.27248581151944
 20
30.32451321923474
 10
27.27248581151944
 20
30.87943998332113
 42
0.3708527513654833
 10
27.18745703437031
 20
30.9783129446723
 42
0.0340997047470658
 10
21.96103878848264
 20
31.40839077521553
 42
0.0545910560526014
 10
14.89116364521329
 20
30.56854841122791
 42
0.34909821605076
 10
14.81369953908244
 20
30.47112083049474
 10
14.81369953908244
 20
24.10923918531071
 42
0.4142135623730951
 10
14.91369953908244
 20
24.00923918531071
 10
19.59417005309018
 20
24.00923918531072
 42
-0.282604400608958
 10
21.63679842545345
 20
22.56081767955677
 42
0.2149136932869869
 10
21.7067946397405
 20
22.51777731338753
 42
-0.1659729413416289
 10
27.41722464906105
 20
20.92646131780165
 42
0.4137944921434764
 10
27.55362366752392
 20
20.96343005632027
 10
29.25849386594514
 20
23.93113871644546
 42
0.1311031238422928
 10
29.27178351724441
 20
23.98095152030348
 10
29.27178351724441
 20
24.67813409147946
 42
0.4142135623730951
 10
29.17178351724441
 20
24.77813409147946
 10
28.87178351724441
 20
24.77813409147946
 42
0.4142135623730951
 10
28.77178351724441
 20
24.67813409147946
 10
28.77178351724441
 20
24.11181420973788
 42
-0.1314840559687455
 10
28.75841915372097
 20
24.06187157772573
 10
27.36574515387373
 20
21.64599573137925
 42
-0.4211663689321567
 10
27.2271359186047
 20
21.61048470169169
 10
25.71369658520753
 20
22.47767730694684
 42
0.0413774890393674
 10
25.68568403361085
 20
22.48488649499544
 10
22.00655827222317
 20
23.03178546767209
 42
-0.1530401350492257
 10
21.97155827222317
 20
23.04678546767209
 10
20.91655827222316
 20
24.49260815522452
  0
LWPOLYLINE
  5
A3AF
330
1D
100
AcDbEntity
  8
0
  6
ByBlock
100
AcDbPolyline
 90
        8
 70
     1
 43
0.0
 10
15.78019767599088
 20
6.888145942002524
 10
17.09020247599088
 20
6.888145942002524
 42
0.4142135623730945
 10
17.14020247599088
 20
6.938145942002524
 10
17.14020247599088
 20
8.248176142002524
 42
0.4142135623730951
 10
17.09020247599088
 20
8.298176142002525
 10
15.78019767599088
 20
8.298176142002525
 42
0.4142135623730951
 10
15.73019767599088
 20
8.248176142002524
 10
15.73019767599088
 20
6.938145942002524
 42
0.4142135623730951
  0
LWPOLYLINE
  5
A3D7
330
1D
100
AcDbEntity
  8
0
  6
ByBlock
100
AcDbPolyline
 90
        8
 70
     1
 43
0.0
 10
13.88014687599087
 20
6.888145942002524
 10
15.19015167599088
 20
6.888145942002524
 42
0.4142135623730945
 10
15.24015167599087
 20
6.938145942002524
 10
15.24015167599087
 20
8.248176142002524
 42
0.4142135623730951
 10
15.19015167599088
 20
8.298176142002525
 10
13.88014687599087
 20
8.298176142002525
 42
0.4142135623730951
 10
13.83014687599087
 20
8.248176142002524
 10
13.83014687599087
 20
6.938145942002524
 42
0.4142135623730951
  0
LWPOLYLINE
  5
A3D8
330
1D
100
AcDbEntity
  8
0
  6
ByBlock
100
AcDbPolyline
 90
        8
 70
     1
 43
0.0
 10
13.88014687599087
 20
4.988145942002525
 10
15.19015167599088
 20
4.988145942002525
 42
0.4142135623730945
 10
15.24015167599087
 20
5.038145942002525
 10
15.24015167599087
 20
6.348176142002526
 42
0.4142135623730951
 10
15.19015167599088
 20
6.398176142002526
 10
13.88014687599087
 20
6.398176142002526
 42
0.4142135623730951
 10
13.83014687599087
 20
6.348176142002526
 10
13.83014687599087
 20
5.038145942002526
 42
0.4142135623730951
  0
LWPOLYLINE
  5
A3D9
330
1D
100
AcDbEntity
  8
0
  6
ByBlock
100
AcDbPolyline
 90
        8
 70
     1
 43
0.0
 10
15.78019767599088
 20
4.988145942002525
 10
17.09020247599088
 20
4.988145942002525
 42
0.4142135623730945
 10
17.14020247599088
 20
5.038145942002525
 10
17.14020247599088
 20
6.348176142002526
 42
0.4142135623730951
 10
17.09020247599088
 20
6.398176142002526
 10
15.78019767599088
 20
6.398176142002526
 42
0.4142135623730951
 10
15.73019767599088
 20
6.348176142002526
 10
15.73019767599088
 20
5.038145942002526
 42
0.4142135623730951
  0
LWPOLYLINE
  5
A3DA
330
1D
100
AcDbEntity
  8
0
  6
ByBlock
100
AcDbPolyline
 90
        8
 70
     1
 43
0.0
 10
13.88014687599087
 20
3.088145942002523
 10
15.19015167599088
 20
3.088145942002523
 42
0.4142135623730945
 10
15.24015167599087
 20
3.138145942002523
 10
15.24015167599087
 20
4.448176142002524
 42
0.4142135623730951
 10
15.19015167599088
 20
4.498176142002524
 10
13.88014687599087
 20
4.498176142002524
 42
0.4142135623730951
 10
13.83014687599087
 20
4.448176142002524
 10
13.83014687599087
 20
3.138145942002524
 42
0.4142135623730951
  0
LWPOLYLINE
  5
A3DB
330
1D
100
AcDbEntity
  8
0
  6
ByBlock
100
AcDbPolyline
 90
        8
 70
     1
 43
0.0
 10
15.78019767599088
 20
3.088145942002523
 10
17.09020247599088
 20
3.088145942002523
 42
0.4142135623730945
 10
17.14020247599088
 20
3.138145942002523
 10
17.14020247599088
 20
4.448176142002524
 42
0.4142135623730951
 10
17.09020247599088
 20
4.498176142002524
 10
15.78019767599088
 20
4.498176142002524
 42
0.4142135623730951
 10
15.73019767599088
 20
4.448176142002524
 10
15.73019767599088
 20
3.138145942002524
 42
0.4142135623730951
  0
LWPOLYLINE
  5
A3DC
330
1D
100
AcDbEntity
  8
0
  6
ByBlock
100
AcDbPolyline
 90
        8
 70
     1
 43
0.0
 10
17.68019767599088
 20
3.563145942002524
 10
18.99020247599088
 20
3.563145942002524
 42
0.4142135623730945
 10
19.04020247599087
 20
3.613145942002524
 10
19.04020247599087
 20
4.923176142002525
 42
0.4142135623730951
 10
18.99020247599088
 20
4.973176142002526
 10
17.68019767599088
 20
4.973176142002526
 42
0.4142135623730951
 10
17.63019767599087
 20
4.923176142002525
 10
17.63019767599087
 20
3.613145942002525
 42
0.4142135623730951
  0
LWPOLYLINE
  5
A3DD
330
1D
100
AcDbEntity
  8
0
  6
ByBlock
100
AcDbPolyline
 90
        8
 70
     1
 43
0.0
 10
17.68019767599088
 20
5.463145942002527
 10
18.99020247599088
 20
5.463145942002527
 42
0.4142135623730945
 10
19.04020247599087
 20
5.513145942002526
 10
19.04020247599087
 20
6.823176142002527
 42
0.4142135623730951
 10
18.99020247599088
 20
6.873176142002528
 10
17.68019767599088
 20
6.873176142002528
 42
0.4142135623730951
 10
17.63019767599087
 20
6.823176142002527
 10
17.63019767599087
 20
5.513145942002527
 42
0.4142135623730951
  0
LWPOLYLINE
  5
A3DE
330
1D
100
AcDbEntity
  8
0
  6
ByBlock
100
AcDbPolyline
 90
        8
 70
     1
 43
0.0
 10
17.68019767599088
 20
7.363145942002525
 10
18.99020247599088
 20
7.363145942002525
 42
0.4142135623730945
 10
19.04020247599087
 20
7.413145942002525
 10
19.04020247599087
 20
8.723176142002526
 42
0.4142135623730951
 10
18.99020247599088
 20
8.773176142002526
 10
17.68019767599088
 20
8.773176142002526
 42
0.4142135623730951
 10
17.63019767599087
 20
8.723176142002526
 10
17.63019767599087
 20
7.413145942002526
 42
0.4142135623730951
  0
LWPOLYLINE
  5
A3DF
330
1D
100
AcDbEntity
  8
0
  6
ByBlock
100
AcDbPolyline
 90
        8
 70
     1
 43
0.0
 10
19.58019767599088
 20
7.600645942002526
 10
20.89020247599088
 20
7.600645942002526
 42
0.4142135623730945
 10
20.94020247599088
 20
7.650645942002526
 10
20.94020247599088
 20
8.960676142002526
 42
0.4142135623730951
 10
20.89020247599088
 20
9.010676142002527
 10
19.58019767599088
 20
9.010676142002527
 42
0.4142135623730951
 10
19.53019767599088
 20
8.960676142002526
 10
19.53019767599088
 20
7.650645942002527
 42
0.4142135623730951
  0
LWPOLYLINE
  5
A3E0
330
1D
100
AcDbEntity
  8
0
  6
ByBlock
100
AcDbPolyline
 90
        8
 70
     1
 43
0.0
 10
19.58019767599088
 20
5.700645942002527
 10
20.89020247599088
 20
5.700645942002527
 42
0.4142135623730945
 10
20.94020247599088
 20
5.750645942002527
 10
20.94020247599088
 20
7.060676142002528
 42
0.4142135623730951
 10
20.89020247599088
 20
7.110676142002529
 10
19.58019767599088
 20
7.110676142002529
 42
0.4142135623730951
 10
19.53019767599088
 20
7.060676142002528
 10
19.53019767599088
 20
5.750645942002528
 42
0.4142135623730951
  0
LWPOLYLINE
  5
A3E1
330
1D
100
AcDbEntity
  8
0
  6
ByBlock
100
AcDbPolyline
 90
        8
 70
     1
 43
0.0
 10
19.58019767599088
 20
3.800645942002525
 10
20.89020247599088
 20
3.800645942002525
 42
0.4142135623730945
 10
20.94020247599088
 20
3.850645942002525
 10
20.94020247599088
 20
5.160676142002526
 42
0.4142135623730951
 10
20.89020247599088
 20
5.210676142002526
 10
19.58019767599088
 20
5.210676142002526
 42
0.4142135623730951
 10
19.53019767599088
 20
5.160676142002526
 10
19.53019767599088
 20
3.850645942002526
 42
0.4142135623730951
  0
LWPOLYLINE
  5
A3E2
330
1D
100
AcDbEntity
  8
0
  6
ByBlock
100
AcDbPolyline
 90
        8
 70
     1
 43
0.0
 10
21.48019767599088
 20
3.563145942002524
 10
22.79020247599088
 20
3.563145942002524
 42
0.4142135623730945
 10
22.84020247599088
 20
3.613145942002524
 10
22.84020247599088
 20
4.923176142002525
 42
0.4142135623730951
 10
22.79020247599088
 20
4.973176142002526
 10
21.48019767599088
 20
4.973176142002526
 42
0.4142135623730951
 10
21.43019767599088
 20
4.923176142002525
 10
21.43019767599088
 20
3.613145942002525
 42
0.4142135623730951
  0
LWPOLYLINE
  5
A3E3
330
1D
100
AcDbEntity
  8
0
  6
ByBlock
100
AcDbPolyline
 90
        8
 70
     1
 43
0.0
 10
21.48019767599088
 20
5.463145942002527
 10
22.79020247599088
 20
5.463145942002527
 42
0.4142135623730945
 10
22.84020247599088
 20
5.513145942002526
 10
22.84020247599088
 20
6.823176142002527
 42
0.4142135623730951
 10
22.79020247599088
 20
6.873176142002528
 10
21.48019767599088
 20
6.873176142002528
 42
0.4142135623730951
 10
21.43019767599088
 20
6.823176142002527
 10
21.43019767599088
 20
5.513145942002527
 42
0.4142135623730951
  0
LWPOLYLINE
  5
A3E4
330
1D
100
AcDbEntity
  8
0
  6
ByBlock
100
AcDbPolyline
 90
        8
 70
     1
 43
0.0
 10
21.48019767599088
 20
7.363145942002525
 10
22.79020247599088
 20
7.363145942002525
 42
0.4142135623730945
 10
22.84020247599088
 20
7.413145942002525
 10
22.84020247599088
 20
8.723176142002526
 42
0.4142135623730951
 10
22.79020247599088
 20
8.773176142002526
 10
21.48019767599088
 20
8.773176142002526
 42
0.4142135623730951
 10
21.43019767599088
 20
8.723176142002526
 10
21.43019767599088
 20
7.413145942002526
 42
0.4142135623730951
  0
LWPOLYLINE
  5
A3E5
330
1D
100
AcDbEntity
  8
0
  6
ByBlock
100
AcDbPolyline
 90
        8
 70
     1
 43
0.0
 10
23.38019767599088
 20
7.125645942002524
 10
24.69020247599088
 20
7.125645942002524
 42
0.4142135623730945
 10
24.74020247599088
 20
7.175645942002524
 10
24.74020247599088
 20
8.485676142002525
 42
0.4142135623730951
 10
24.69020247599088
 20
8.535676142002526
 10
23.38019767599088
 20
8.535676142002526
 42
0.4142135623730951
 10
23.33019767599088
 20
8.485676142002525
 10
23.33019767599088
 20
7.175645942002525
 42
0.4142135623730951
  0
LWPOLYLINE
  5
A3E6
330
1D
100
AcDbEntity
  8
0
  6
ByBlock
100
AcDbPolyline
 90
        8
 70
     1
 43
0.0
 10
23.38019767599088
 20
5.225645942002526
 10
24.69020247599088
 20
5.225645942002526
 42
0.4142135623730945
 10
24.74020247599088
 20
5.275645942002526
 10
24.74020247599088
 20
6.585676142002526
 42
0.4142135623730951
 10
24.69020247599088
 20
6.635676142002527
 10
23.38019767599088
 20
6.635676142002527
 42
0.4142135623730951
 10
23.33019767599088
 20
6.585676142002526
 10
23.33019767599088
 20
5.275645942002527
 42
0.4142135623730951
  0
LWPOLYLINE
  5
A3E7
330
1D
100
AcDbEntity
  8
0
  6
ByBlock
100
AcDbPolyline
 90
        8
 70
     1
 43
0.0
 10
23.38019767599088
 20
3.325645942002524
 10
24.69020247599088
 20
3.325645942002524
 42
0.4142135623730945
 10
24.74020247599088
 20
3.375645942002524
 10
24.74020247599088
 20
4.685676142002524
 42
0.4142135623730951
 10
24.69020247599088
 20
4.735676142002525
 10
23.38019767599088
 20
4.735676142002525
 42
0.4142135623730951
 10
23.33019767599088
 20
4.685676142002524
 10
23.33019767599088
 20
3.375645942002524
 42
0.4142135623730951
  0
LWPOLYLINE
  5
A3E8
330
1D
100
AcDbEntity
  8
0
  6
ByBlock
100
AcDbPolyline
 90
        8
 70
     1
 43
0.0
 10
20.53019767599088
 20
1.600645942002522
 10
21.84020247599088
 20
1.600645942002522
 42
0.4142135623730945
 10
21.89020247599088
 20
1.650645942002522
 10
21.89020247599088
 20
2.960676142002523
 42
0.4142135623730951
 10
21.84020247599088
 20
3.010676142002524
 10
20.53019767599088
 20
3.010676142002524
 42
0.4142135623730951
 10
20.48019767599088
 20
2.960676142002523
 10
20.48019767599088
 20
1.650645942002523
 42
0.4142135623730951
  0
LWPOLYLINE
  5
A41A
330
1D
100
AcDbEntity
  8
0
  6
ByBlock
100
AcDbPolyline
 90
        8
 70
     1
 43
0.0
 10
22.83490827916749
 20
2.880639400635419
 42
0.4142135623730951
 10
22.77370696166016
 20
2.845221908694755
 10
22.43593106002148
 20
1.57948632604559
 42
0.4142135623730949
 10
22.47134855196214
 20
1.518285008538261
 10
23.73705959343371
 20
1.180515655991276
 42
0.4142135623730945
 10
23.79826091094104
 20
1.215933147931939
 10
24.13603681257971
 20
2.481668730581103
 42
0.4142135623730951
 10
24.10061932063905
 20
2.542870048088433
  0
LWPOLYLINE
  5
A442
330
1D
100
AcDbEntity
  8
0
  6
ByBlock
100
AcDbPolyline
 90
        8
 70
     1
 43
0.0
 10
24.5910861235913
 20
1.37260191501623
 10
25.72605223814096
 20
0.7183611002269965
 42
0.4142135623730948
 10
25.79434100466478
 20
0.7367089711295309
 10
26.44856913446652
 20
1.871653079973289
 42
0.4142135623730945
 10
26.43022126356399
 20
1.939941846497099
 10
25.29525514901432
 20
2.594182661286332
 42
0.4142135623730951
 10
25.22696638249051
 20
2.575834790383801
 10
24.57273825268877
 20
1.440890681540044
 42
0.4142135623730951
  0
LWPOLYLINE
  5
A471
330
1D
100
AcDbEntity
  8
0
 62
     0
100
AcDbPolyline
 90
       25
 70
     1
 43
0.0
 10
2.272634242569383
 20
15.61458969435262
 10
2.272634242569383
 20
15.60397249435261
 10
2.281168642569382
 20
15.57186689435262
 10
2.304739842569382
 20
15.53686569435261
 10
2.339715642569382
 20
15.51329449435261
 10
2.371821242569383
 20
15.50460769435261
 10
2.382590842569382
 20
15.50460769435261
 10
2.393208042569382
 20
15.50460769435261
 10
2.425313642569382
 20
15.51329449435261
 10
2.460314842569382
 20
15.53686569435261
 10
2.483860642569382
 20
15.57186689435262
 10
2.492547442569383
 20
15.60397249435261
 10
2.492547442569383
 20
15.61458969435262
 10
2.492547442569383
 20
15.62533389435261
 10
2.483860642569382
 20
15.65743949435261
 10
2.460314842569382
 20
15.69244069435261
 10
2.425313642569382
 20
15.71601189435262
 10
2.393208042569382
 20
15.72454629435261
 10
2.382590842569382
 20
15.72454629435261
 10
2.371821242569383
 20
15.72454629435261
 10
2.339715642569382
 20
15.71601189435262
 10
2.304739842569382
 20
15.69244069435261
 10
2.281168642569382
 20
15.65743949435261
 10
2.272634242569383
 20
15.62533389435261
 10
2.272634242569383
 20
15.61458969435262
  0
LWPOLYLINE
  5
A472
330
1D
100
AcDbEntity
  8
0
 62
     0
100
AcDbPolyline
 90
       25
 70
     1
 43
0.0
 10
2.273513721091941
 20
17.51499893708264
 10
2.273513721091941
 20
17.50438173708263
 10
2.28204812109194
 20
17.47227613708264
 10
2.30561932109194
 20
17.43727493708263
 10
2.34059512109194
 20
17.41370373708263
 10
2.37270072109194
 20
17.40501693708264
 10
2.38347032109194
 20
17.40501693708264
 10
2.39408752109194
 20
17.40501693708264
 10
2.42619312109194
 20
17.41370373708263
 10
2.46119432109194
 20
17.43727493708263
 10
2.48474012109194
 20
17.47227613708264
 10
2.49342692109194
 20
17.50438173708263
 10
2.49342692109194
 20
17.51499893708264
 10
2.49342692109194
 20
17.52574313708264
 10
2.48474012109194
 20
17.55784873708264
 10
2.46119432109194
 20
17.59284993708263
 10
2.42619312109194
 20
17.61642113708264
 10
2.39408752109194
 20
17.62495553708263
 10
2.38347032109194
 20
17.62495553708263
 10
2.37270072109194
 20
17.62495553708263
 10
2.34059512109194
 20
17.61642113708264
 10
2.30561932109194
 20
17.59284993708263
 10
2.28204812109194
 20
17.55784873708264
 10
2.273513721091941
 20
17.52574313708264
 10
2.273513721091941
 20
17.51499893708264
  0
LWPOLYLINE
  5
A473
330
1D
100
AcDbEntity
  8
0
 62
     0
100
AcDbPolyline
 90
       25
 70
     1
 43
0.0
 10
4.174513721091951
 20
17.50235004276096
 10
4.174513721091951
 20
17.49173284276095
 10
4.183048121091951
 20
17.45962724276096
 10
4.20661932109195
 20
17.42462604276096
 10
4.24159512109195
 20
17.40105484276096
 10
4.273700721091951
 20
17.39236804276096
 10
4.284470321091951
 20
17.39236804276096
 10
4.29508752109195
 20
17.39236804276096
 10
4.327193121091951
 20
17.40105484276096
 10
4.362194321091951
 20
17.42462604276096
 10
4.38574012109195
 20
17.45962724276096
 10
4.394426921091951
 20
17.49173284276095
 10
4.394426921091951
 20
17.50235004276096
 10
4.394426921091951
 20
17.51309424276096
 10
4.38574012109195
 20
17.54519984276096
 10
4.362194321091951
 20
17.58020104276095
 10
4.327193121091951
 20
17.60377224276096
 10
4.29508752109195
 20
17.61230664276096
 10
4.284470321091951
 20
17.61230664276096
 10
4.273700721091951
 20
17.61230664276096
 10
4.24159512109195
 20
17.60377224276096
 10
4.20661932109195
 20
17.58020104276095
 10
4.183048121091951
 20
17.54519984276096
 10
4.174513721091951
 20
17.51309424276096
 10
4.174513721091951
 20
17.50235004276096
  0
LWPOLYLINE
  5
A474
330
1D
100
AcDbEntity
  8
0
 62
     0
100
AcDbPolyline
 90
       25
 70
     1
 43
0.0
 10
4.173294558717956
 20
15.60287973836458
 10
4.173294558717956
 20
15.59226253836458
 10
4.181828958717956
 20
15.56015693836458
 10
4.205400158717955
 20
15.52515573836458
 10
4.240375958717955
 20
15.50158453836458
 10
4.272481558717956
 20
15.49289773836458
 10
4.283251158717956
 20
15.49289773836458
 10
4.293868358717955
 20
15.49289773836458
 10
4.325973958717956
 20
15.50158453836458
 10
4.360975158717956
 20
15.52515573836458
 10
4.384520958717955
 20
15.56015693836458
 10
4.393207758717956
 20
15.59226253836458
 10
4.393207758717956
 20
15.60287973836458
 10
4.393207758717956
 20
15.61362393836458
 10
4.384520958717955
 20
15.64572953836458
 10
4.360975158717956
 20
15.68073073836458
 10
4.325973958717956
 20
15.70430193836459
 10
4.293868358717955
 20
15.71283633836458
 10
4.283251158717956
 20
15.71283633836458
 10
4.272481558717956
 20
15.71283633836458
 10
4.240375958717955
 20
15.70430193836459
 10
4.205400158717955
 20
15.68073073836458
 10
4.181828958717956
 20
15.64572953836458
 10
4.173294558717956
 20
15.61362393836458
 10
4.173294558717956
 20
15.60287973836458
  0
LWPOLYLINE
  5
A475
330
1D
100
AcDbEntity
  8
0
 62
     0
100
AcDbPolyline
 90
       25
 70
     1
 43
0.0
 10
9.875156782899069
 20
17.87721311739619
 10
9.875156782899069
 20
17.86659591739618
 10
9.883691182899067
 20
17.83449031739619
 10
9.907262382899066
 20
17.79948911739618
 10
9.942238182899068
 20
17.77591791739619
 10
9.97434378289907
 20
17.76723111739619
 10
9.985113382899069
 20
17.76723111739619
 10
9.995730582899068
 20
17.76723111739619
 10
10.02783618289907
 20
17.77591791739619
 10
10.06283738289907
 20
17.79948911739618
 10
10.08638318289907
 20
17.83449031739619
 10
10.09506998289907
 20
17.86659591739618
 10
10.09506998289907
 20
17.87721311739619
 10
10.09506998289907
 20
17.88795731739619
 10
10.08638318289907
 20
17.92006291739619
 10
10.06283738289907
 20
17.95506411739618
 10
10.02783618289907
 20
17.97863531739619
 10
9.995730582899068
 20
17.98716971739618
 10
9.985113382899069
 20
17.98716971739618
 10
9.97434378289907
 20
17.98716971739618
 10
9.942238182899068
 20
17.97863531739619
 10
9.907262382899066
 20
17.95506411739618
 10
9.883691182899067
 20
17.92006291739619
 10
9.875156782899069
 20
17.88795731739619
 10
9.875156782899069
 20
17.87721311739619
  0
LWPOLYLINE
  5
A477
330
1D
100
AcDbEntity
  8
0
 62
     0
100
AcDbPolyline
 90
       25
 70
     1
 43
0.0
 10
11.24922910180486
 20
13.12737172783769
 10
11.24922910180486
 20
13.11675452783769
 10
11.25776350180486
 20
13.08464892783769
 10
11.28133470180486
 20
13.04964772783769
 10
11.31631050180486
 20
13.02607652783769
 10
11.34841610180487
 20
13.01738972783769
 10
11.35918570180486
 20
13.01738972783769
 10
11.36980290180486
 20
13.01738972783769
 10
11.40190850180486
 20
13.02607652783769
 10
11.43690970180486
 20
13.04964772783769
 10
11.46045550180486
 20
13.08464892783769
 10
11.46914230180487
 20
13.11675452783769
 10
11.46914230180487
 20
13.12737172783769
 10
11.46914230180487
 20
13.13811592783769
 10
11.46045550180486
 20
13.17022152783769
 10
11.43690970180486
 20
13.20522272783769
 10
11.40190850180486
 20
13.22879392783769
 10
11.36980290180486
 20
13.23732832783769
 10
11.35918570180486
 20
13.23732832783769
 10
11.34841610180487
 20
13.23732832783769
 10
11.31631050180486
 20
13.22879392783769
 10
11.28133470180486
 20
13.20522272783769
 10
11.25776350180486
 20
13.17022152783769
 10
11.24922910180486
 20
13.13811592783769
 10
11.24922910180486
 20
13.12737172783769
  0
LWPOLYLINE
  5
A478
330
1D
100
AcDbEntity
  8
0
  6
ByBlock
100
AcDbPolyline
 90
       12
 70
     1
 43
0.0
 10
13.75797987208845
 20
40.71904712972763
 10
13.90143729539984
 20
40.71890629540698
 42
-0.4139260539881358
 10
14.00133912393577
 20
40.61890634359517
 10
14.00133912393577
 20
36.40998689237523
 42
0.4142135623730949
 10
14.10133912393577
 20
36.30998689237522
 10
14.40133912393577
 20
36.30998689237522
 42
0.4142135623730955
 10
14.50133912393577
 20
36.40998689237523
 10
14.50133912393576
 20
40.98437565913306
 42
0.3447786502981565
 10
14.42537480309037
 20
41.0814441201674
 42
0.0071084303967713
 10
13.77934440830591
 20
41.23169746206739
 42
0.4784680168071108
 10
13.65807804355252
 20
41.13398491563565
 10
13.65807804355252
 20
40.81904708153944
 42
0.4139260539881329
  0
CIRCLE
  5
A479
330
1D
100
AcDbEntity
  8
0
  6
ByBlock
100
AcDbCircle
 10
14.25133912393577
 20
36.58058825756167
 30
0.0
 40
0.165
  0
CIRCLE
  5
A47A
330
1D
100
AcDbEntity
  8
0
  6
ByBlock
100
AcDbCircle
 10
14.25133912393577
 20
40.89153665514425
 30
0.0
 40
0.165
  0
CIRCLE
  5
A47B
330
1D
100
AcDbEntity
  8
0
  6
ByBlock
100
AcDbCircle
 10
12.224825668095
 20
41.2686485681284
 30
0.0
 40
0.165
  0
CIRCLE
  5
A47C
330
1D
100
AcDbEntity
  8
0
  6
ByBlock
100
AcDbCircle
 10
7.190594395173999
 20
41.66378857648014
 30
0.0
 40
0.165
  0
CIRCLE
  5
A47D
330
1D
100
AcDbEntity
  8
0
  6
ByBlock
100
AcDbCircle
 10
0.294721426672016
 20
40.85430702426297
 30
0.0
 40
0.165
  0
CIRCLE
  5
A47E
330
1D
100
AcDbEntity
  8
0
  6
ByBlock
100
AcDbCircle
 10
0.2947214266720142
 20
34.75418017925935
 30
0.0
 40
0.165
  0
CIRCLE
  5
A47F
330
1D
100
AcDbEntity
  8
0
  6
ByBlock
100
AcDbCircle
 10
7.035850802078393
 20
33.2525811413864
 30
0.0
 40
0.165
  0
CIRCLE
  5
A480
330
1D
100
AcDbEntity
  8
0
  6
ByBlock
100
AcDbCircle
 10
12.63867006598091
 20
31.71176182116358
 30
0.0
 40
0.165
  0
CIRCLE
  5
A481
330
1D
100
AcDbEntity
  8
0
  6
ByBlock
100
AcDbCircle
 10
14.25133912393577
 20
35.02330277475271
 30
0.0
 40
0.165
  0
LWPOLYLINE
  5
A482
330
1D
100
AcDbEntity
  8
0
  6
ByBlock
100
AcDbPolyline
 90
       55
 70
     0
 43
0.0
 10
6.146469217973856
 20
34.98708180068006
 42
0.1989123673796697
 10
6.111113878914527
 20
35.00172646162073
 10
0.6432551457737503
 20
35.00172646162073
 42
-0.4142135623730951
 10
0.5432551457737489
 20
35.10172646162073
 10
0.5432551457737507
 20
40.60366577262674
 42
-0.4142135623730951
 10
0.6432551457737503
 20
40.70366577262674
 10
4.243185643144269
 20
40.70366577262674
 42
0.4142135623730948
 10
4.34318564314427
 20
40.80366577262674
 10
4.34318564314427
 20
41.08008902954431
 42
-0.4142135623730951
 10
4.443185643144272
 20
41.18008902954431
 10
6.143012663858141
 20
41.18008902954431
 42
0.4142135623733932
 10
6.243012663858138
 20
41.28008902954441
 10
6.243012663858114
 20
41.30333176916406
 42
-0.4142135623733906
 10
6.343012663858115
 20
41.40333176916415
 10
8.038176126489883
 20
41.40333176916415
 42
-0.4142135623730951
 10
8.138176126489885
 20
41.30333176916416
 10
8.138176126489885
 20
41.2806184135425
 42
0.4142135623730951
 10
8.238176126489886
 20
41.18061841354249
 10
9.93817612648989
 20
41.18061841354249
 42
-0.4142135623730951
 10
10.03817612648989
 20
41.0806184135425
 10
10.03817612648989
 20
41.05044989420566
 42
0.4142135623730951
 10
10.13817612648989
 20
40.95044989420565
 10
11.84760991797915
 20
40.95044989420565
 42
-0.4142135623730951
 10
11.94760991797915
 20
40.85044989420565
 10
11.94760991797916
 20
40.81945421318333
 42
0.414213562372992
 10
12.04760991797917
 20
40.71945421318337
 10
12.4020414182108
 20
40.71945421318337
 42
0.4142135623730945
 10
12.5020414182108
 20
40.81945421318338
 10
12.5020414182108
 20
41.37438097726977
 42
0.3708527513654833
 10
12.41701264106167
 20
41.47325393862093
 42
0.0340997047470658
 10
7.190594395173996
 20
41.90333176916417
 42
0.0545910560526014
 10
0.1207192519046494
 20
41.06348940517654
 42
0.34909821605076
 10
0.0432551457738022
 20
40.96606182444337
 10
0.0432551457738004
 20
34.60418017925934
 42
0.4142135623730951
 10
0.1432551457737982
 20
34.50418017925935
 10
4.823725659781545
 20
34.50418017925935
 42
-0.282604400608958
 10
6.866354032144812
 20
33.05575867350541
 42
0.2149136932869869
 10
6.936350246431864
 20
33.01271830733616
 42
-0.1659729413416289
 10
12.64678025575241
 20
31.42140231175029
 42
0.4137944921434764
 10
12.78317927421528
 20
31.45837105026891
 10
14.4880494726365
 20
34.42607971039409
 42
0.1311031238422928
 10
14.50133912393577
 20
34.47589251425212
 10
14.50133912393577
 20
35.1730750854281
 42
0.4142135623730951
 10
14.40133912393577
 20
35.27307508542809
 10
14.10133912393577
 20
35.27307508542809
 42
0.4142135623730951
 10
14.00133912393577
 20
35.1730750854281
 10
14.00133912393577
 20
34.60675520368652
 42
-0.1314840559687455
 10
13.98797476041233
 20
34.55681257167437
 10
12.59530076056509
 20
32.14093672532789
 42
-0.4211663689321567
 10
12.45669152529606
 20
32.10542569564032
 10
10.94325219189889
 20
32.97261830089548
 42
0.0413774890393674
 10
10.91523964030221
 20
32.97982748894407
 10
7.236113878914527
 20
33.52672646162073
 42
-0.1530401350492257
 10
7.20111387891453
 20
33.54172646162073
 10
6.146113878914523
 20
34.98754914917315
  0
VIEWPORT
  5
61D
330
1B
100
AcDbEntity
 67
     1
  8
0
100
AcDbViewport
 10
0.0
 20
0.0
 30
0.0
 40
15.11111111111111
 41
8.925
 68
     1
 69
     1
 12
5.258731192129627
 22
2.983910300925925
 13
0.0
 23
0.0
 14
0.5
 24
0.5
 15
0.0
 25
0.0
 16
0.0
 26
0.0
 36
1.0
 17
0.0
 27
0.0
 37
0.0
 42
50.0
 43
0.0
 44
0.0
 45
8.925
 50
0.0
 51
0.0
 72
   100
 90
   557168
  1

281
     0
 71
     1
 74
     0
110
0.0
120
0.0
130
0.0
111
1.0
121
0.0
131
0.0
112
0.0
122
1.0
132
0.0
 79
     0
146
0.0
170
     0
 61
     5
348
59E
292
     1
282
     1
141
0.0
142
0.0
 63
   256
  0
VIEWPORT
  5
61E
102
{ACAD_XDICTIONARY
360
61F
102
}
330
1B
100
AcDbEntity
 67
     1
  8
0
100
AcDbViewport
 10
5.227249710648145
 20
3.586225983796296
 30
0.0
 40
5.619444444444445
 41
5.772451967592593
 68
     2
 69
     2
 12
14.8756859188988
 22
15.47116341145833
 13
0.0
 23
0.0
 14
0.5
 24
0.5
 15
0.0
 25
0.0
 16
0.0
 26
0.0
 36
1.0
 17
0.0
 27
0.0
 37
0.0
 42
50.0
 43
0.0
 44
0.0
 45
31.54232682291667
 50
0.0
 51
0.0
 72
   100
 90
   557152
  1

281
     0
 71
     1
 74
     0
110
0.0
120
0.0
130
0.0
111
1.0
121
0.0
131
0.0
112
0.0
122
1.0
132
0.0
 79
     0
146
0.0
170
     3
 61
     5
348
59E
292
     1
282
     1
141
0.0
142
0.0
 63
   256
  0
ENDSEC
  0
SECTION
  2
OBJECTS
  0
DICTIONARY
  5
C
330
0
100
AcDbDictionary
281
     1
  3
ACAD_DETAILVIEWSTYLE
350
5CD
  3
ACAD_GROUP
350
D
  3
ACAD_LAYOUT
350
1A
  3
ACAD_MATERIAL
350
21
  3
ACAD_MLEADERSTYLE
350
5B4
  3
ACAD_MLINESTYLE
350
17
  3
ACAD_PLOTSETTINGS
350
19
  3
ACAD_PLOTSTYLENAME
350
E
  3
ACAD_SCALELIST
350
573
  3
ACAD_SECTIONVIEWSTYLE
350
5CE
  3
ACAD_TABLESTYLE
350
5B2
  3
ACAD_VISUALSTYLE
350
599
  3
AcDbVariableDictionary
350
5C8
  3
ACDB_RECOMPOSE_DATA
350
A8D8
  3
APPDATA
350
5B6
  0
SUN
  5
206F
330
26
100
AcDbSun
 90
        1
290
     0
 63
     7
421
 16777215
 40
1.0
291
     1
 91
  2455826
 92
 54000000
292
     0
 70
     2
 71
   256
280
     1
  0
DICTIONARY
  5
61F
330
61E
100
AcDbDictionary
280
     1
281
     1
  3
ASDK_XREC_ANNOTATION_SCALE_INFO
360
620
  0
DICTIONARY
  5
5CD
102
{ACAD_REACTORS
330
C
102
}
330
C
100
AcDbDictionary
281
     1
  0
DICTIONARY
  5
D
102
{ACAD_REACTORS
330
C
102
}
330
C
100
AcDbDictionary
281
     1
  0
DICTIONARY
  5
1A
102
{ACAD_REACTORS
330
C
102
}
330
C
100
AcDbDictionary
281
     1
  3
Model
350
1E
  3
 1
350
1C
  0
DICTIONARY
  5
21
102
{ACAD_REACTORS
330
C
102
}
330
C
100
AcDbDictionary
281
     1
  3
ByBlock
350
23
  3
ByLayer
350
22
  3
Global
350
24
  0
DICTIONARY
  5
5B4
102
{ACAD_REACTORS
330
C
102
}
330
C
100
AcDbDictionary
281
     1
  3
Standard
350
5B5
  0
DICTIONARY
  5
17
102
{ACAD_REACTORS
330
C
102
}
330
C
100
AcDbDictionary
281
     1
  3
Standard
350
18
  0
DICTIONARY
  5
19
102
{ACAD_REACTORS
330
C
102
}
330
C
100
AcDbDictionary
281
     1
  0
ACDBDICTIONARYWDFLT
  5
E
102
{ACAD_REACTORS
330
C
102
}
330
C
100
AcDbDictionary
281
     1
  3
Normal
350
F
100
AcDbDictionaryWithDefault
340
F
  0
DICTIONARY
  5
573
102
{ACAD_REACTORS
330
C
102
}
330
C
100
AcDbDictionary
281
     1
  3
A0
350
574
  3
A1
350
575
  3
A2
350
576
  3
A3
350
577
  3
A4
350
578
  3
A5
350
579
  3
A6
350
57A
  3
A7
350
57B
  3
A8
350
57C
  3
A9
350
57D
  3
B0
350
57E
  3
B1
350
57F
  3
B2
350
580
  3
B3
350
581
  3
B4
350
582
  3
B5
350
583
  3
B6
350
584
  3
B7
350
585
  3
B8
350
586
  3
B9
350
587
  3
C0
350
588
  3
C1
350
589
  3
C2
350
58A
  3
C3
350
58B
  3
C4
350
58C
  3
C5
350
58D
  3
C6
350
58E
  3
C7
350
58F
  3
C8
350
590
  3
C9
350
591
  3
D0
350
592
  3
D1
350
593
  3
D2
350
594
  0
DICTIONARY
  5
5CE
102
{ACAD_REACTORS
330
C
102
}
330
C
100
AcDbDictionary
281
     1
  0
DICTIONARY
  5
5B2
102
{ACAD_REACTORS
330
C
102
}
330
C
100
AcDbDictionary
281
     1
  3
Standard
350
5B3
  0
DICTIONARY
  5
599
102
{ACAD_REACTORS
330
C
102
}
330
C
100
AcDbDictionary
281
     1
  3
2dWireframe
350
59E
  3
Basic
350
5A1
  3
Brighten
350
5A5
  3
ColorChange
350
5A9
  3
Conceptual
350
5A3
  3
Dim
350
5A4
  3
EdgeColorOff
350
5AC
  3
Facepattern
350
5A8
  3
Flat
350
59A
  3
FlatWithEdges
350
59B
  3
Gouraud
350
59C
  3
GouraudWithEdges
350
59D
  3
Hidden
350
5A0
  3
JitterOff
350
5AA
  3
Linepattern
350
5A7
  3
OverhangOff
350
5AB
  3
Realistic
350
5A2
  3
Shaded
350
5B1
  3
Shaded with edges
350
5B0
  3
Shades of Gray
350
5AD
  3
Sketchy
350
5AE
  3
Thicken
350
5A6
  3
Wireframe
350
59F
  3
X-Ray
350
5AF
  0
DICTIONARY
  5
5C8
102
{ACAD_REACTORS
330
C
102
}
330
C
100
AcDbDictionary
281
     1
  3
CANNOSCALE
350
5C9
  3
CMLEADERSTYLE
350
5CB
  3
CTABLESTYLE
350
5CA
  3
MSLTSCALE
350
5CC
  0
XRECORD
  5
A8D8
102
{ACAD_REACTORS
330
C
102
}
330
C
100
AcDbXrecord
280
     1
 90
        1
330
5B3
  0
DICTIONARY
  5
5B6
102
{ACAD_REACTORS
330
C
102
}
330
C
100
AcDbDictionary
281
     1
  0
XRECORD
  5
620
102
{ACAD_REACTORS
330
61F
102
}
330
61F
100
AcDbXrecord
280
     1
 90
        1
340
574
  0
LAYOUT
  5
1E
102
{ACAD_REACTORS
330
1A
102
}
330
1A
100
AcDbPlotSettings
  1

  2
none_device
  4
na-letter
  6

 40
6.35
 41
6.35
 42
6.35
 43
14.11111111111111
 44
215.9
 45
279.4
 46
0.0
 47
0.0
 48
0.0
 49
0.0
140
0.0
141
0.0
142
1.0
143
1.0
 70
  1712
 72
     1
 73
     0
 74
     0
  7

 75
     0
 76
     0
 77
     2
 78
   300
147
1.0
148
0.0
149
0.0
100
AcDbLayout
  1
Model
 70
     1
 71
     0
 10
0.0
 20
0.0
 11
12.0
 21
9.0
 12
0.0
 22
0.0
 32
0.0
 14
-0.0500000000000043
 24
-0.0159930347244064
 34
0.0
 15
29.42178351724441
 25
41.90333176916417
 35
0.0
146
0.0
 13
0.0
 23
0.0
 33
0.0
 16
1.0
 26
0.0
 36
0.0
 17
0.0
 27
1.0
 37
0.0
 76
     0
330
1D
331
26
  0
LAYOUT
  5
1C
102
{ACAD_REACTORS
330
1A
102
}
330
1A
100
AcDbPlotSettings
  1

  2
none_device
  4
ANSI_A_(11.00_x_8.50_Inches)
  6

 40
6.35
 41
19.05
 42
6.35
 43
19.05
 44
279.4
 45
215.9
 46
0.0
 47
0.0
 48
0.0
 49
0.0
140
0.0
141
0.0
142
1.0
143
1.0
 70
   688
 72
     0
 73
     0
 74
     5
  7

 75
    16
 76
     0
 77
     2
 78
   300
147
1.0
148
0.0
149
0.0
100
AcDbLayout
  1
 1
 70
     1
 71
     1
 10
0.0
 20
0.0
 11
10.75
 21
7.75
 12
0.0
 22
0.0
 32
0.0
 14
2.417527488425922
 24
0.6999999999999993
 34
0.0
 15
8.036971932870369
 25
6.472451967592592
 35
0.0
146
0.0
 13
0.0
 23
0.0
 33
0.0
 16
1.0
 26
0.0
 36
0.0
 17
0.0
 27
1.0
 37
0.0
 76
     0
330
1B
331
61D
  0
MATERIAL
  5
23
102
{ACAD_REACTORS
330
21
102
}
330
21
100
AcDbMaterial
  1
ByBlock
 72
     1
 94
      127
  0
MATERIAL
  5
22
102
{ACAD_REACTORS
330
21
102
}
330
21
100
AcDbMaterial
  1
ByLayer
 72
     1
 94
      127
  0
MATERIAL
  5
24
102
{ACAD_REACTORS
330
21
102
}
330
21
100
AcDbMaterial
  1
Global
 72
     1
 94
      127
  0
MLEADERSTYLE
  5
5B5
102
{ACAD_REACTORS
330
5B4
102
}
330
5B4
100
AcDbMLeaderStyle
179
     2
170
     2
171
     1
172
     0
 90
        2
 40
0.0
 41
0.0
173
     1
 91
-1056964608
340
14
 92
       -2
290
     1
 42
0.09
291
     1
 43
0.36
  3
Standard
341
0
 44
0.18
300

342
11
174
     1
178
     1
175
     1
176
     0
 93
-1056964608
 45
0.18
292
     0
297
     0
 46
0.18
343
0
 94
-1056964608
 47
1.0
 49
1.0
140
1.0
293
     1
141
0.0
294
     1
177
     0
142
1.0
295
     0
296
     0
143
0.125
271
     0
272
     9
273
     9
298
     0
  0
MLINESTYLE
  5
18
102
{ACAD_REACTORS
330
17
102
}
330
17
100
AcDbMlineStyle
  2
Standard
 70
     0
  3

 62
   256
 51
90.0
 52
90.0
 71
     2
 49
0.5
 62
   256
  6
BYLAYER
 49
-0.5
 62
   256
  6
BYLAYER
  0
ACDBPLACEHOLDER
  5
F
102
{ACAD_REACTORS
330
E
102
}
330
E
  0
SCALE
  5
574
102
{ACAD_REACTORS
330
573
102
}
330
573
100
AcDbScale
 70
     0
300
1:1
140
1.0
141
1.0
290
     1
  0
SCALE
  5
575
102
{ACAD_REACTORS
330
573
102
}
330
573
100
AcDbScale
 70
     0
300
1:2
140
1.0
141
2.0
290
     0
  0
SCALE
  5
576
102
{ACAD_REACTORS
330
573
102
}
330
573
100
AcDbScale
 70
     0
300
1:4
140
1.0
141
4.0
290
     0
  0
SCALE
  5
577
102
{ACAD_REACTORS
330
573
102
}
330
573
100
AcDbScale
 70
     0
300
1:5
140
1.0
141
5.0
290
     0
  0
SCALE
  5
578
102
{ACAD_REACTORS
330
573
102
}
330
573
100
AcDbScale
 70
     0
300
1:8
140
1.0
141
8.0
290
     0
  0
SCALE
  5
579
102
{ACAD_REACTORS
330
573
102
}
330
573
100
AcDbScale
 70
     0
300
1:10
140
1.0
141
10.0
290
     0
  0
SCALE
  5
57A
102
{ACAD_REACTORS
330
573
102
}
330
573
100
AcDbScale
 70
     0
300
1:16
140
1.0
141
16.0
290
     0
  0
SCALE
  5
57B
102
{ACAD_REACTORS
330
573
102
}
330
573
100
AcDbScale
 70
     0
300
1:20
140
1.0
141
20.0
290
     0
  0
SCALE
  5
57C
102
{ACAD_REACTORS
330
573
102
}
330
573
100
AcDbScale
 70
     0
300
1:30
140
1.0
141
30.0
290
     0
  0
SCALE
  5
57D
102
{ACAD_REACTORS
330
573
102
}
330
573
100
AcDbScale
 70
     0
300
1:40
140
1.0
141
40.0
290
     0
  0
SCALE
  5
57E
102
{ACAD_REACTORS
330
573
102
}
330
573
100
AcDbScale
 70
     0
300
1:50
140
1.0
141
50.0
290
     0
  0
SCALE
  5
57F
102
{ACAD_REACTORS
330
573
102
}
330
573
100
AcDbScale
 70
     0
300
1:100
140
1.0
141
100.0
290
     0
  0
SCALE
  5
580
102
{ACAD_REACTORS
330
573
102
}
330
573
100
AcDbScale
 70
     0
300
2:1
140
2.0
141
1.0
290
     0
  0
SCALE
  5
581
102
{ACAD_REACTORS
330
573
102
}
330
573
100
AcDbScale
 70
     0
300
4:1
140
4.0
141
1.0
290
     0
  0
SCALE
  5
582
102
{ACAD_REACTORS
330
573
102
}
330
573
100
AcDbScale
 70
     0
300
8:1
140
8.0
141
1.0
290
     0
  0
SCALE
  5
583
102
{ACAD_REACTORS
330
573
102
}
330
573
100
AcDbScale
 70
     0
300
10:1
140
10.0
141
1.0
290
     0
  0
SCALE
  5
584
102
{ACAD_REACTORS
330
573
102
}
330
573
100
AcDbScale
 70
     0
300
100:1
140
100.0
141
1.0
290
     0
  0
SCALE
  5
585
102
{ACAD_REACTORS
330
573
102
}
330
573
100
AcDbScale
 70
     0
300
1/128" = 1'-0"
140
0.0078125
141
12.0
290
     0
  0
SCALE
  5
586
102
{ACAD_REACTORS
330
573
102
}
330
573
100
AcDbScale
 70
     0
300
1/64" = 1'-0"
140
0.015625
141
12.0
290
     0
  0
SCALE
  5
587
102
{ACAD_REACTORS
330
573
102
}
330
573
100
AcDbScale
 70
     0
300
1/32" = 1'-0"
140
0.03125
141
12.0
290
     0
  0
SCALE
  5
588
102
{ACAD_REACTORS
330
573
102
}
330
573
100
AcDbScale
 70
     0
300
1/16" = 1'-0"
140
0.0625
141
12.0
290
     0
  0
SCALE
  5
589
102
{ACAD_REACTORS
330
573
102
}
330
573
100
AcDbScale
 70
     0
300
3/32" = 1'-0"
140
0.09375
141
12.0
290
     0
  0
SCALE
  5
58A
102
{ACAD_REACTORS
330
573
102
}
330
573
100
AcDbScale
 70
     0
300
1/8" = 1'-0"
140
0.125
141
12.0
290
     0
  0
SCALE
  5
58B
102
{ACAD_REACTORS
330
573
102
}
330
573
100
AcDbScale
 70
     0
300
3/16" = 1'-0"
140
0.1875
141
12.0
290
     0
  0
SCALE
  5
58C
102
{ACAD_REACTORS
330
573
102
}
330
573
100
AcDbScale
 70
     0
300
1/4" = 1'-0"
140
0.25
141
12.0
290
     0
  0
SCALE
  5
58D
102
{ACAD_REACTORS
330
573
102
}
330
573
100
AcDbScale
 70
     0
300
3/8" = 1'-0"
140
0.375
141
12.0
290
     0
  0
SCALE
  5
58E
102
{ACAD_REACTORS
330
573
102
}
330
573
100
AcDbScale
 70
     0
300
1/2" = 1'-0"
140
0.5
141
12.0
290
     0
  0
SCALE
  5
58F
102
{ACAD_REACTORS
330
573
102
}
330
573
100
AcDbScale
 70
     0
300
3/4" = 1'-0"
140
0.75
141
12.0
290
     0
  0
SCALE
  5
590
102
{ACAD_REACTORS
330
573
102
}
330
573
100
AcDbScale
 70
     0
300
1" = 1'-0"
140
1.0
141
12.0
290
     0
  0
SCALE
  5
591
102
{ACAD_REACTORS
330
573
102
}
330
573
100
AcDbScale
 70
     0
300
1-1/2" = 1'-0"
140
1.5
141
12.0
290
     0
  0
SCALE
  5
592
102
{ACAD_REACTORS
330
573
102
}
330
573
100
AcDbScale
 70
     0
300
3" = 1'-0"
140
3.0
141
12.0
290
     0
  0
SCALE
  5
593
102
{ACAD_REACTORS
330
573
102
}
330
573
100
AcDbScale
 70
     0
300
6" = 1'-0"
140
6.0
141
12.0
290
     0
  0
SCALE
  5
594
102
{ACAD_REACTORS
330
573
102
}
330
573
100
AcDbScale
 70
     0
300
1'-0" = 1'-0"
140
12.0
141
12.0
290
     0
  0
TABLESTYLE
  5
5B3
102
{ACAD_REACTORS
330
5B2
102
}
102
{ACAD_XDICTIONARY
360
A8D6
102
}
330
5B2
100
AcDbTableStyle
  3
Standard
 70
     0
 71
     0
 40
0.06
 41
0.06
280
     0
281
     0
  7
Standard
140
0.18
170
     2
 62
     0
 63
   257
283
     0
 90
        4
 91
        0
  1

274
    -2
284
     1
 64
     0
275
    -2
285
     1
 65
     0
276
    -2
286
     1
 66
     0
277
    -2
287
     1
 67
     0
278
    -2
288
     1
 68
     0
279
    -2
289
     1
 69
     0
  7
Standard
140
0.25
170
     5
 62
     0
 63
   257
283
     0
 90
        4
 91
        0
  1

274
    -2
284
     1
 64
     0
275
    -2
285
     1
 65
     0
276
    -2
286
     1
 66
     0
277
    -2
287
     1
 67
     0
278
    -2
288
     1
 68
     0
279
    -2
289
     1
 69
     0
  7
Standard
140
0.18
170
     5
 62
     0
 63
   257
283
     0
 90
        4
 91
        0
  1

274
    -2
284
     1
 64
     0
275
    -2
285
     1
 65
     0
276
    -2
286
     1
 66
     0
277
    -2
287
     1
 67
     0
278
    -2
288
     1
 68
     0
279
    -2
289
     1
 69
     0
  0
VISUALSTYLE
  5
59E
102
{ACAD_REACTORS
330
599
102
}
330
599
100
AcDbVisualStyle
  2
2dWireframe
 70
     4
177
     3
291
     0
 70
    58
 90
        0
176
     1
 90
        2
176
     1
 90
        0
176
     1
 90
        0
176
     1
 40
0.6
176
     1
 40
30.0
176
     1
 62
     7
420
 16777215
176
     1
 90
        1
176
     1
 90
        4
176
     1
 62
     7
176
     1
 62
   257
176
     1
 90
        1
176
     1
 90
        1
176
     1
 40
1.0
176
     1
 90
        0
176
     1
 62
   257
176
     1
 40
1.0
176
     1
 90
        1
176
     1
 90
        6
176
     1
 90
        2
176
     1
 62
     7
176
     1
 90
        5
176
     1
 90
        0
176
     1
 90
        0
176
     1
290
     0
176
     1
 90
        1
176
     1
 40
0.0
176
     1
 90
        0
176
     1
290
     1
176
     1
290
     1
176
     1
290
     0
176
     1
290
     0
176
     1
290
     0
176
     1
290
     0
176
     1
290
     0
176
     1
290
     0
176
     1
290
     0
176
     1
 90
       50
176
     1
 40
0.0
176
     1
 40
1.0
176
     1
 90
        0
176
     1
 62
   178
420
        0
176
     1
 90
       50
176
     1
 90
        3
176
     1
 62
     5
420
      255
176
     1
290
     0
176
     1
 90
       50
176
     1
 90
       50
176
     1
 90
       50
176
     1
290
     0
176
     1
 90
       50
176
     1
 62
   256
176
     0
 40
1.0
176
     0
 90
        2
176
     1
  1
strokes_ogs.tif
176
     1
290
     0
176
     1
 40
1.0
176
     1
 40
1.0
176
     1
  0
VISUALSTYLE
  5
5A1
102
{ACAD_REACTORS
330
599
102
}
330
599
100
AcDbVisualStyle
  2
Basic
 70
     7
177
     3
291
     1
 70
    58
 90
        1
176
     1
 90
        0
176
     1
 90
        1
176
     1
 90
        0
176
     1
 40
0.6
176
     1
 40
30.0
176
     1
 62
     7
420
 16777215
176
     1
 90
        0
176
     1
 90
        4
176
     1
 62
     7
176
     1
 62
   257
176
     1
 90
        1
176
     1
 90
        1
176
     1
 40
1.0
176
     1
 90
        8
176
     1
 62
     7
176
     1
 40
1.0
176
     1
 90
        1
176
     1
 90
        6
176
     1
 90
        2
176
     1
 62
     7
176
     1
 90
        5
176
     1
 90
        0
176
     1
 90
        0
176
     1
290
     0
176
     1
 90
        1
176
     1
 40
0.0
176
     1
 90
        0
176
     1
290
     0
176
     1
290
     1
176
     1
290
     1
176
     1
290
     0
176
     1
290
     0
176
     1
290
     0
176
     1
290
     0
176
     1
290
     0
176
     1
290
     0
176
     1
 90
       50
176
     1
 40
0.0
176
     1
 40
1.0
176
     1
 90
        0
176
     1
 62
   178
420
        0
176
     1
 90
       50
176
     1
 90
        3
176
     1
 62
     5
420
      255
176
     1
290
     0
176
     1
 90
       50
176
     1
 90
       50
176
     1
 90
       50
176
     1
290
     0
176
     1
 90
       50
176
     1
 62
   256
176
     0
 40
1.0
176
     0
 90
        2
176
     1
  1
strokes_ogs.tif
176
     1
290
     0
176
     1
 40
1.0
176
     1
 40
1.0
176
     1
  0
VISUALSTYLE
  5
5A5
102
{ACAD_REACTORS
330
599
102
}
330
599
100
AcDbVisualStyle
  2
Brighten
 70
    12
177
     3
291
     1
 70
    58
 90
        2
176
     1
 90
        2
176
     1
 90
        0
176
     1
 90
        0
176
     1
 40
0.6
176
     1
 40
30.0
176
     1
 62
     7
420
 16777215
176
     1
 90
        1
176
     1
 90
        4
176
     1
 62
     7
176
     1
 62
   257
176
     1
 90
        1
176
     1
 90
        1
176
     1
 40
1.0
176
     1
 90
        8
176
     1
 62
     7
176
     1
 40
1.0
176
     1
 90
        1
176
     1
 90
        6
176
     1
 90
        2
176
     1
 62
     7
176
     1
 90
        5
176
     1
 90
        0
176
     1
 90
        0
176
     1
290
     0
176
     1
 90
        1
176
     1
 40
50.0
176
     1
 90
        0
176
     1
290
     0
176
     1
290
     1
176
     1
290
     1
176
     1
290
     0
176
     1
290
     0
176
     1
290
     0
176
     1
290
     0
176
     1
290
     0
176
     1
290
     0
176
     1
 90
       50
176
     1
 40
0.0
176
     1
 40
1.0
176
     1
 90
        0
176
     1
 62
   178
420
        0
176
     1
 90
       50
176
     1
 90
        3
176
     1
 62
     5
420
      255
176
     1
290
     0
176
     1
 90
       50
176
     1
 90
       50
176
     1
 90
       50
176
     1
290
     0
176
     1
 90
       50
176
     1
 62
   256
176
     0
 40
1.0
176
     0
 90
        2
176
     1
  1
strokes_ogs.tif
176
     1
290
     0
176
     1
 40
1.0
176
     1
 40
1.0
176
     1
  0
VISUALSTYLE
  5
5A9
102
{ACAD_REACTORS
330
599
102
}
330
599
100
AcDbVisualStyle
  2
ColorChange
 70
    16
177
     3
291
     1
 70
    58
 90
        2
176
     1
 90
        2
176
     1
 90
        3
176
     1
 90
        0
176
     1
 40
0.6
176
     1
 40
30.0
176
     1
 62
     8
420
  8421504
176
     1
 90
        1
176
     1
 90
        4
176
     1
 62
     7
176
     1
 62
   257
176
     1
 90
        1
176
     1
 90
        1
176
     1
 40
1.0
176
     1
 90
        8
176
     1
 62
     8
420
  8421504
176
     1
 40
1.0
176
     1
 90
        1
176
     1
 90
        6
176
     1
 90
        2
176
     1
 62
     7
176
     1
 90
        5
176
     1
 90
        0
176
     1
 90
        0
176
     1
290
     0
176
     1
 90
        1
176
     1
 40
0.0
176
     1
 90
        0
176
     1
290
     0
176
     1
290
     1
176
     1
290
     1
176
     1
290
     0
176
     1
290
     0
176
     1
290
     0
176
     1
290
     0
176
     1
290
     0
176
     1
290
     0
176
     1
 90
       50
176
     1
 40
0.0
176
     1
 40
1.0
176
     1
 90
        0
176
     1
 62
   178
420
        0
176
     1
 90
       50
176
     1
 90
        3
176
     1
 62
     5
420
      255
176
     1
290
     0
176
     1
 90
       50
176
     1
 90
       50
176
     1
 90
       50
176
     1
290
     0
176
     1
 90
       50
176
     1
 62
   256
176
     0
 40
1.0
176
     0
 90
        2
176
     1
  1
strokes_ogs.tif
176
     1
290
     0
176
     1
 40
1.0
176
     1
 40
1.0
176
     1
  0
VISUALSTYLE
  5
5A3
102
{ACAD_REACTORS
330
599
102
}
330
599
100
AcDbVisualStyle
  2
Conceptual
 70
     9
177
     3
291
     0
 70
    58
 90
        3
176
     1
 90
        2
176
     1
 90
        0
176
     1
 90
        0
176
     1
 40
0.6
176
     1
 40
30.0
176
     1
 62
     7
420
 16777215
176
     1
 90
        2
176
     1
 90
        2
176
     1
 62
     7
176
     1
 62
   257
176
     1
 90
        1
176
     1
 90
        1
176
     1
 40
179.0
176
     1
 90
        8
176
     1
 62
     7
176
     1
 40
1.0
176
     1
 90
        1
176
     1
 90
        6
176
     1
 90
        2
176
     1
 62
     7
176
     1
 90
        3
176
     1
 90
        0
176
     1
 90
        0
176
     1
290
     0
176
     1
 90
        1
176
     1
 40
0.0
176
     1
 90
        0
176
     1
290
     0
176
     1
290
     1
176
     1
290
     1
176
     1
290
     0
176
     1
290
     0
176
     1
290
     0
176
     1
290
     0
176
     1
290
     0
176
     1
290
     0
176
     1
 90
       50
176
     1
 40
0.0
176
     1
 40
1.0
176
     1
 90
        0
176
     1
 62
   178
420
        0
176
     1
 90
       50
176
     1
 90
        3
176
     1
 62
     5
420
      255
176
     1
290
     0
176
     1
 90
       50
176
     1
 90
       50
176
     1
 90
       50
176
     1
290
     0
176
     1
 90
       50
176
     1
 62
   256
176
     0
 40
1.0
176
     0
 90
        2
176
     1
  1
strokes_ogs.tif
176
     1
290
     0
176
     1
 40
1.0
176
     1
 40
1.0
176
     1
  0
VISUALSTYLE
  5
5A4
102
{ACAD_REACTORS
330
599
102
}
330
599
100
AcDbVisualStyle
  2
Dim
 70
    11
177
     3
291
     1
 70
    58
 90
        2
176
     1
 90
        2
176
     1
 90
        0
176
     1
 90
        0
176
     1
 40
0.6
176
     1
 40
30.0
176
     1
 62
     7
420
 16777215
176
     1
 90
        1
176
     1
 90
        4
176
     1
 62
     7
176
     1
 62
   257
176
     1
 90
        1
176
     1
 90
        1
176
     1
 40
1.0
176
     1
 90
        8
176
     1
 62
     7
176
     1
 40
1.0
176
     1
 90
        1
176
     1
 90
        6
176
     1
 90
        2
176
     1
 62
     7
176
     1
 90
        5
176
     1
 90
        0
176
     1
 90
        0
176
     1
290
     0
176
     1
 90
        1
176
     1
 40
-50.0
176
     1
 90
        0
176
     1
290
     0
176
     1
290
     1
176
     1
290
     1
176
     1
290
     0
176
     1
290
     0
176
     1
290
     0
176
     1
290
     0
176
     1
290
     0
176
     1
290
     0
176
     1
 90
       50
176
     1
 40
0.0
176
     1
 40
1.0
176
     1
 90
        0
176
     1
 62
   178
420
        0
176
     1
 90
       50
176
     1
 90
        3
176
     1
 62
     5
420
      255
176
     1
290
     0
176
     1
 90
       50
176
     1
 90
       50
176
     1
 90
       50
176
     1
290
     0
176
     1
 90
       50
176
     1
 62
   256
176
     0
 40
1.0
176
     0
 90
        2
176
     1
  1
strokes_ogs.tif
176
     1
290
     0
176
     1
 40
1.0
176
     1
 40
1.0
176
     1
  0
VISUALSTYLE
  5
5AC
102
{ACAD_REACTORS
330
599
102
}
330
599
100
AcDbVisualStyle
  2
EdgeColorOff
 70
    22
177
     3
291
     1
 70
    58
 90
        2
176
     0
 90
        2
176
     0
 90
        0
176
     0
 90
        0
176
     0
 40
0.6
176
     0
 40
30.0
176
     0
 62
     7
420
 16777215
176
     0
 90
        1
176
     0
 90
        4
176
     0
 62
     7
176
     0
 62
   257
176
     0
 90
        1
176
     0
 90
        1
176
     0
 40
1.0
176
     0
 90
        8
176
     2
 62
     7
176
     0
 40
1.0
176
     0
 90
        1
176
     0
 90
        6
176
     0
 90
        2
176
     0
 62
     7
176
     0
 90
        5
176
     0
 90
        0
176
     0
 90
        0
176
     0
290
     0
176
     0
 90
        1
176
     0
 40
0.0
176
     0
 90
        0
176
     0
290
     0
176
     0
290
     1
176
     0
290
     1
176
     0
290
     0
176
     0
290
     0
176
     0
290
     0
176
     0
290
     0
176
     0
290
     0
176
     0
290
     0
176
     0
 90
       50
176
     0
 40
0.0
176
     0
 40
1.0
176
     0
 90
        0
176
     0
 62
   178
420
        0
176
     0
 90
       50
176
     0
 90
        3
176
     0
 62
     5
420
      255
176
     0
290
     0
176
     0
 90
       50
176
     0
 90
       50
176
     0
 90
       50
176
     0
290
     0
176
     0
 90
       50
176
     0
 62
   256
176
     0
 40
1.0
176
     0
 90
        2
176
     0
  1
strokes_ogs.tif
176
     0
290
     0
176
     0
 40
1.0
176
     0
 40
1.0
176
     0
  0
VISUALSTYLE
  5
5A8
102
{ACAD_REACTORS
330
599
102
}
330
599
100
AcDbVisualStyle
  2
Facepattern
 70
    15
177
     3
291
     1
 70
    58
 90
        2
176
     1
 90
        2
176
     1
 90
        0
176
     1
 90
        0
176
     1
 40
0.6
176
     1
 40
30.0
176
     1
 62
     7
420
 16777215
176
     1
 90
        1
176
     1
 90
        4
176
     1
 62
     7
176
     1
 62
   257
176
     1
 90
        1
176
     1
 90
        1
176
     1
 40
1.0
176
     1
 90
        8
176
     1
 62
     7
176
     1
 40
1.0
176
     1
 90
        1
176
     1
 90
        6
176
     1
 90
        2
176
     1
 62
     7
176
     1
 90
        5
176
     1
 90
        0
176
     1
 90
        0
176
     1
290
     0
176
     1
 90
        1
176
     1
 40
0.0
176
     1
 90
        0
176
     1
290
     0
176
     1
290
     1
176
     1
290
     1
176
     1
290
     0
176
     1
290
     0
176
     1
290
     0
176
     1
290
     0
176
     1
290
     0
176
     1
290
     0
176
     1
 90
       50
176
     1
 40
0.0
176
     1
 40
1.0
176
     1
 90
        0
176
     1
 62
   178
420
        0
176
     1
 90
       50
176
     1
 90
        3
176
     1
 62
     5
420
      255
176
     1
290
     0
176
     1
 90
       50
176
     1
 90
       50
176
     1
 90
       50
176
     1
290
     0
176
     1
 90
       50
176
     1
 62
   256
176
     0
 40
1.0
176
     0
 90
        2
176
     1
  1
strokes_ogs.tif
176
     1
290
     0
176
     1
 40
1.0
176
     1
 40
1.0
176
     1
  0
VISUALSTYLE
  5
59A
102
{ACAD_REACTORS
330
599
102
}
330
599
100
AcDbVisualStyle
  2
Flat
 70
     0
177
     3
291
     1
 70
    58
 90
        2
176
     1
 90
        1
176
     1
 90
        1
176
     1
 90
        2
176
     1
 40
0.6
176
     1
 40
30.0
176
     1
 62
     7
420
 16777215
176
     1
 90
        0
176
     1
 90
        0
176
     1
 62
     7
176
     1
 62
   257
176
     1
 90
        1
176
     1
 90
        1
176
     1
 40
1.0
176
     1
 90
        8
176
     1
 62
     7
176
     1
 40
1.0
176
     1
 90
        1
176
     1
 90
        6
176
     1
 90
        2
176
     1
 62
     7
176
     1
 90
        5
176
     1
 90
        0
176
     1
 90
        0
176
     1
290
     0
176
     1
 90
       13
176
     1
 40
0.0
176
     1
 90
        0
176
     1
290
     0
176
     1
290
     1
176
     1
290
     1
176
     1
290
     0
176
     1
290
     0
176
     1
290
     0
176
     1
290
     0
176
     1
290
     0
176
     1
290
     0
176
     1
 90
       50
176
     1
 40
0.0
176
     1
 40
1.0
176
     1
 90
        0
176
     1
 62
   178
420
        0
176
     1
 90
       50
176
     1
 90
        3
176
     1
 62
     5
420
      255
176
     1
290
     0
176
     1
 90
       50
176
     1
 90
       50
176
     1
 90
       50
176
     1
290
     0
176
     1
 90
       50
176
     1
 62
   256
176
     0
 40
1.0
176
     0
 90
        2
176
     1
  1
strokes_ogs.tif
176
     1
290
     0
176
     1
 40
1.0
176
     1
 40
1.0
176
     1
  0
VISUALSTYLE
  5
59B
102
{ACAD_REACTORS
330
599
102
}
330
599
100
AcDbVisualStyle
  2
FlatWithEdges
 70
     1
177
     3
291
     1
 70
    58
 90
        2
176
     1
 90
        1
176
     1
 90
        1
176
     1
 90
        2
176
     1
 40
0.6
176
     1
 40
30.0
176
     1
 62
     7
420
 16777215
176
     1
 90
        1
176
     1
 90
        0
176
     1
 62
     7
176
     1
 62
   257
176
     1
 90
        1
176
     1
 90
        1
176
     1
 40
1.0
176
     1
 90
        0
176
     1
 62
   257
176
     1
 40
1.0
176
     1
 90
        1
176
     1
 90
        6
176
     1
 90
        2
176
     1
 62
     7
176
     1
 90
        5
176
     1
 90
        0
176
     1
 90
        0
176
     1
290
     0
176
     1
 90
       13
176
     1
 40
0.0
176
     1
 90
        0
176
     1
290
     0
176
     1
290
     1
176
     1
290
     1
176
     1
290
     0
176
     1
290
     0
176
     1
290
     0
176
     1
290
     0
176
     1
290
     0
176
     1
290
     0
176
     1
 90
       50
176
     1
 40
0.0
176
     1
 40
1.0
176
     1
 90
        0
176
     1
 62
   178
420
        0
176
     1
 90
       50
176
     1
 90
        3
176
     1
 62
     5
420
      255
176
     1
290
     0
176
     1
 90
       50
176
     1
 90
       50
176
     1
 90
       50
176
     1
290
     0
176
     1
 90
       50
176
     1
 62
   256
176
     0
 40
1.0
176
     0
 90
        2
176
     1
  1
strokes_ogs.tif
176
     1
290
     0
176
     1
 40
1.0
176
     1
 40
1.0
176
     1
  0
VISUALSTYLE
  5
59C
102
{ACAD_REACTORS
330
599
102
}
330
599
100
AcDbVisualStyle
  2
Gouraud
 70
     2
177
     3
291
     1
 70
    58
 90
        2
176
     1
 90
        2
176
     1
 90
        1
176
     1
 90
        2
176
     1
 40
0.6
176
     1
 40
30.0
176
     1
 62
     7
420
 16777215
176
     1
 90
        0
176
     1
 90
        0
176
     1
 62
     7
176
     1
 62
   257
176
     1
 90
        1
176
     1
 90
        1
176
     1
 40
1.0
176
     1
 90
        0
176
     1
 62
     7
176
     1
 40
1.0
176
     1
 90
        1
176
     1
 90
        6
176
     1
 90
        2
176
     1
 62
     7
176
     1
 90
        5
176
     1
 90
        0
176
     1
 90
        0
176
     1
290
     0
176
     1
 90
       13
176
     1
 40
0.0
176
     1
 90
        0
176
     1
290
     0
176
     1
290
     1
176
     1
290
     1
176
     1
290
     0
176
     1
290
     0
176
     1
290
     0
176
     1
290
     0
176
     1
290
     0
176
     1
290
     0
176
     1
 90
       50
176
     1
 40
0.0
176
     1
 40
1.0
176
     1
 90
        0
176
     1
 62
   178
420
        0
176
     1
 90
       50
176
     1
 90
        3
176
     1
 62
     5
420
      255
176
     1
290
     0
176
     1
 90
       50
176
     1
 90
       50
176
     1
 90
       50
176
     1
290
     0
176
     1
 90
       50
176
     1
 62
   256
176
     0
 40
1.0
176
     0
 90
        2
176
     1
  1
strokes_ogs.tif
176
     1
290
     0
176
     1
 40
1.0
176
     1
 40
1.0
176
     1
  0
VISUALSTYLE
  5
59D
102
{ACAD_REACTORS
330
599
102
}
330
599
100
AcDbVisualStyle
  2
GouraudWithEdges
 70
     3
177
     3
291
     1
 70
    58
 90
        2
176
     1
 90
        2
176
     1
 90
        1
176
     1
 90
        2
176
     1
 40
0.6
176
     1
 40
30.0
176
     1
 62
     7
420
 16777215
176
     1
 90
        1
176
     1
 90
        0
176
     1
 62
     7
176
     1
 62
   257
176
     1
 90
        1
176
     1
 90
        1
176
     1
 40
1.0
176
     1
 90
        0
176
     1
 62
   257
176
     1
 40
1.0
176
     1
 90
        1
176
     1
 90
        6
176
     1
 90
        2
176
     1
 62
     7
176
     1
 90
        5
176
     1
 90
        0
176
     1
 90
        0
176
     1
290
     0
176
     1
 90
       13
176
     1
 40
0.0
176
     1
 90
        0
176
     1
290
     0
176
     1
290
     1
176
     1
290
     1
176
     1
290
     0
176
     1
290
     0
176
     1
290
     0
176
     1
290
     0
176
     1
290
     0
176
     1
290
     0
176
     1
 90
       50
176
     1
 40
0.0
176
     1
 40
1.0
176
     1
 90
        0
176
     1
 62
   178
420
        0
176
     1
 90
       50
176
     1
 90
        3
176
     1
 62
     5
420
      255
176
     1
290
     0
176
     1
 90
       50
176
     1
 90
       50
176
     1
 90
       50
176
     1
290
     0
176
     1
 90
       50
176
     1
 62
   256
176
     0
 40
1.0
176
     0
 90
        2
176
     1
  1
strokes_ogs.tif
176
     1
290
     0
176
     1
 40
1.0
176
     1
 40
1.0
176
     1
  0
VISUALSTYLE
  5
5A0
102
{ACAD_REACTORS
330
599
102
}
330
599
100
AcDbVisualStyle
  2
Hidden
 70
     6
177
     3
291
     0
 70
    58
 90
        1
176
     1
 90
        2
176
     1
 90
        2
176
     1
 90
        0
176
     1
 40
0.6
176
     1
 40
30.0
176
     1
 62
     7
420
 16777215
176
     1
 90
        2
176
     1
 90
        2
176
     1
 62
     7
176
     1
 62
   257
176
     1
 90
        2
176
     1
 90
        1
176
     1
 40
40.0
176
     1
 90
        0
176
     1
 62
   257
176
     1
 40
1.0
176
     1
 90
        1
176
     1
 90
        6
176
     1
 90
        2
176
     1
 62
     7
176
     1
 90
        3
176
     1
 90
        0
176
     1
 90
        0
176
     1
290
     0
176
     1
 90
        1
176
     1
 40
0.0
176
     1
 90
        0
176
     1
290
     0
176
     1
290
     1
176
     1
290
     1
176
     1
290
     0
176
     1
290
     0
176
     1
290
     0
176
     1
290
     0
176
     1
290
     0
176
     1
290
     0
176
     1
 90
       50
176
     1
 40
0.0
176
     1
 40
1.0
176
     1
 90
        0
176
     1
 62
   178
420
        0
176
     1
 90
       50
176
     1
 90
        3
176
     1
 62
     5
420
      255
176
     1
290
     0
176
     1
 90
       50
176
     1
 90
       50
176
     1
 90
       50
176
     1
290
     0
176
     1
 90
       50
176
     1
 62
   256
176
     0
 40
1.0
176
     0
 90
        2
176
     1
  1
strokes_ogs.tif
176
     1
290
     0
176
     1
 40
1.0
176
     1
 40
1.0
176
     1
  0
VISUALSTYLE
  5
5AA
102
{ACAD_REACTORS
330
599
102
}
330
599
100
AcDbVisualStyle
  2
JitterOff
 70
    20
177
     3
291
     1
 70
    58
 90
        2
176
     0
 90
        2
176
     0
 90
        0
176
     0
 90
        0
176
     0
 40
0.6
176
     0
 40
30.0
176
     0
 62
     7
420
 16777215
176
     0
 90
        1
176
     0
 90
        4
176
     0
 62
     7
176
     0
 62
   257
176
     0
 90
        1
176
     0
 90
        1
176
     0
 40
1.0
176
     0
 90
       10
176
     2
 62
     7
176
     0
 40
1.0
176
     0
 90
        1
176
     0
 90
        6
176
     0
 90
        2
176
     0
 62
     7
176
     0
 90
        5
176
     0
 90
        0
176
     0
 90
        0
176
     0
290
     0
176
     0
 90
        1
176
     0
 40
0.0
176
     0
 90
        0
176
     0
290
     0
176
     0
290
     1
176
     0
290
     1
176
     0
290
     0
176
     0
290
     0
176
     0
290
     0
176
     0
290
     0
176
     0
290
     0
176
     0
290
     0
176
     0
 90
       50
176
     0
 40
0.0
176
     0
 40
1.0
176
     0
 90
        0
176
     0
 62
   178
420
        0
176
     0
 90
       50
176
     0
 90
        3
176
     0
 62
     5
420
      255
176
     0
290
     0
176
     0
 90
       50
176
     0
 90
       50
176
     0
 90
       50
176
     0
290
     0
176
     0
 90
       50
176
     0
 62
   256
176
     0
 40
1.0
176
     0
 90
        2
176
     0
  1
strokes_ogs.tif
176
     0
290
     0
176
     0
 40
1.0
176
     0
 40
1.0
176
     0
  0
VISUALSTYLE
  5
5A7
102
{ACAD_REACTORS
330
599
102
}
330
599
100
AcDbVisualStyle
  2
Linepattern
 70
    14
177
     3
291
     1
 70
    58
 90
        2
176
     1
 90
        2
176
     1
 90
        0
176
     1
 90
        0
176
     1
 40
0.6
176
     1
 40
30.0
176
     1
 62
     7
420
 16777215
176
     1
 90
        1
176
     1
 90
        4
176
     1
 62
     7
176
     1
 62
   257
176
     1
 90
        7
176
     1
 90
        7
176
     1
 40
1.0
176
     1
 90
        8
176
     1
 62
     7
176
     1
 40
1.0
176
     1
 90
        1
176
     1
 90
        6
176
     1
 90
        2
176
     1
 62
     7
176
     1
 90
        5
176
     1
 90
        0
176
     1
 90
        0
176
     1
290
     0
176
     1
 90
        1
176
     1
 40
0.0
176
     1
 90
        0
176
     1
290
     0
176
     1
290
     1
176
     1
290
     1
176
     1
290
     0
176
     1
290
     0
176
     1
290
     0
176
     1
290
     0
176
     1
290
     0
176
     1
290
     0
176
     1
 90
       50
176
     1
 40
0.0
176
     1
 40
1.0
176
     1
 90
        0
176
     1
 62
   178
420
        0
176
     1
 90
       50
176
     1
 90
        3
176
     1
 62
     5
420
      255
176
     1
290
     0
176
     1
 90
       50
176
     1
 90
       50
176
     1
 90
       50
176
     1
290
     0
176
     1
 90
       50
176
     1
 62
   256
176
     0
 40
1.0
176
     0
 90
        2
176
     1
  1
strokes_ogs.tif
176
     1
290
     0
176
     1
 40
1.0
176
     1
 40
1.0
176
     1
  0
VISUALSTYLE
  5
5AB
102
{ACAD_REACTORS
330
599
102
}
330
599
100
AcDbVisualStyle
  2
OverhangOff
 70
    21
177
     3
291
     1
 70
    58
 90
        2
176
     0
 90
        2
176
     0
 90
        0
176
     0
 90
        0
176
     0
 40
0.6
176
     0
 40
30.0
176
     0
 62
     7
420
 16777215
176
     0
 90
        1
176
     0
 90
        4
176
     0
 62
     7
176
     0
 62
   257
176
     0
 90
        1
176
     0
 90
        1
176
     0
 40
1.0
176
     0
 90
        9
176
     2
 62
     7
176
     0
 40
1.0
176
     0
 90
        1
176
     0
 90
        6
176
     0
 90
        2
176
     0
 62
     7
176
     0
 90
        5
176
     0
 90
        0
176
     0
 90
        0
176
     0
290
     0
176
     0
 90
        1
176
     0
 40
0.0
176
     0
 90
        0
176
     0
290
     0
176
     0
290
     1
176
     0
290
     1
176
     0
290
     0
176
     0
290
     0
176
     0
290
     0
176
     0
290
     0
176
     0
290
     0
176
     0
290
     0
176
     0
 90
       50
176
     0
 40
0.0
176
     0
 40
1.0
176
     0
 90
        0
176
     0
 62
   178
420
        0
176
     0
 90
       50
176
     0
 90
        3
176
     0
 62
     5
420
      255
176
     0
290
     0
176
     0
 90
       50
176
     0
 90
       50
176
     0
 90
       50
176
     0
290
     0
176
     0
 90
       50
176
     0
 62
   256
176
     0
 40
1.0
176
     0
 90
        2
176
     0
  1
strokes_ogs.tif
176
     0
290
     0
176
     0
 40
1.0
176
     0
 40
1.0
176
     0
  0
VISUALSTYLE
  5
5A2
102
{ACAD_REACTORS
330
599
102
}
330
599
100
AcDbVisualStyle
  2
Realistic
 70
     8
177
     3
291
     0
 70
    58
 90
        2
176
     1
 90
        3
176
     1
 90
        0
176
     1
 90
        2
176
     1
 40
0.6
176
     1
 40
30.0
176
     1
 62
     7
420
 16777215
176
     1
 90
        0
176
     1
 90
        0
176
     1
 62
     7
176
     1
 62
   257
176
     1
 90
        1
176
     1
 90
        1
176
     1
 40
1.0
176
     1
 90
        8
176
     1
 62
   257
176
     1
 40
1.0
176
     1
 90
        1
176
     1
 90
        6
176
     1
 90
        2
176
     1
 62
     7
176
     1
 90
        3
176
     1
 90
        0
176
     1
 90
        0
176
     1
290
     0
176
     1
 90
       13
176
     1
 40
0.0
176
     1
 90
        0
176
     1
290
     0
176
     1
290
     1
176
     1
290
     1
176
     1
290
     0
176
     1
290
     0
176
     1
290
     0
176
     1
290
     0
176
     1
290
     0
176
     1
290
     0
176
     1
 90
       50
176
     1
 40
0.0
176
     1
 40
1.0
176
     1
 90
        0
176
     1
 62
   178
420
        0
176
     1
 90
       50
176
     1
 90
        3
176
     1
 62
     5
420
      255
176
     1
290
     0
176
     1
 90
       50
176
     1
 90
       50
176
     1
 90
       50
176
     1
290
     0
176
     1
 90
       50
176
     1
 62
   256
176
     0
 40
1.0
176
     0
 90
        2
176
     1
  1
strokes_ogs.tif
176
     1
290
     0
176
     1
 40
1.0
176
     1
 40
1.0
176
     1
  0
VISUALSTYLE
  5
5B1
102
{ACAD_REACTORS
330
599
102
}
330
599
100
AcDbVisualStyle
  2
Shaded
 70
    27
177
     3
291
     0
 70
    58
 90
        2
176
     1
 90
        2
176
     1
 90
        1
176
     1
 90
        2
176
     1
 40
0.6
176
     1
 40
30.0
176
     1
 62
     7
420
 16777215
176
     1
 90
        0
176
     1
 90
        4
176
     1
 62
     7
176
     1
 62
   257
176
     1
 90
        1
176
     1
 90
        1
176
     1
 40
1.0
176
     1
 90
        8
176
     1
 62
   257
176
     1
 40
1.0
176
     1
 90
        1
176
     1
 90
        6
176
     1
 90
        2
176
     1
 62
     8
420
  7895160
176
     1
 90
        3
176
     1
 90
        0
176
     1
 90
        0
176
     1
290
     0
176
     1
 90
        5
176
     1
 40
0.0
176
     1
 90
        0
176
     1
290
     0
176
     1
290
     1
176
     1
290
     1
176
     1
290
     0
176
     1
290
     0
176
     1
290
     0
176
     1
290
     0
176
     1
290
     0
176
     1
290
     0
176
     1
 90
       50
176
     1
 40
0.0
176
     1
 40
1.0
176
     1
 90
        0
176
     1
 62
   178
420
        0
176
     1
 90
       50
176
     1
 90
        3
176
     1
 62
     5
420
      255
176
     1
290
     0
176
     1
 90
       50
176
     1
 90
       50
176
     1
 90
       50
176
     1
290
     0
176
     1
 90
       50
176
     1
 62
   256
176
     0
 40
1.0
176
     0
 90
        2
176
     1
  1
strokes_ogs.tif
176
     1
290
     0
176
     1
 40
1.0
176
     1
 40
1.0
176
     1
  0
VISUALSTYLE
  5
5B0
102
{ACAD_REACTORS
330
599
102
}
330
599
100
AcDbVisualStyle
  2
Shaded with edges
 70
    26
177
     3
291
     0
 70
    58
 90
        2
176
     1
 90
        2
176
     1
 90
        1
176
     1
 90
        2
176
     1
 40
0.6
176
     1
 40
30.0
176
     1
 62
     7
420
 16777215
176
     1
 90
        1
176
     1
 90
       10
176
     1
 62
     7
176
     1
 62
   257
176
     1
 90
        2
176
     1
 90
        1
176
     1
 40
1.0
176
     1
 90
        8
176
     1
 62
   257
176
     1
 40
1.0
176
     1
 90
        1
176
     1
 90
        6
176
     1
 90
        2
176
     1
 62
     7
176
     1
 90
        3
176
     1
 90
        0
176
     1
 90
        0
176
     1
290
     0
176
     1
 90
        5
176
     1
 40
0.0
176
     1
 90
        0
176
     1
290
     0
176
     1
290
     1
176
     1
290
     1
176
     1
290
     0
176
     1
290
     0
176
     1
290
     0
176
     1
290
     0
176
     1
290
     0
176
     1
290
     0
176
     1
 90
       50
176
     1
 40
0.0
176
     1
 40
1.0
176
     1
 90
        0
176
     1
 62
   178
420
        0
176
     1
 90
       50
176
     1
 90
        3
176
     1
 62
     5
420
      255
176
     1
290
     0
176
     1
 90
       50
176
     1
 90
       50
176
     1
 90
       50
176
     1
290
     0
176
     1
 90
       50
176
     1
 62
   256
176
     0
 40
1.0
176
     0
 90
        2
176
     1
  1
strokes_ogs.tif
176
     1
290
     0
176
     1
 40
1.0
176
     1
 40
1.0
176
     1
  0
VISUALSTYLE
  5
5AD
102
{ACAD_REACTORS
330
599
102
}
330
599
100
AcDbVisualStyle
  2
Shades of Gray
 70
    23
177
     3
291
     0
 70
    58
 90
        2
176
     1
 90
        2
176
     1
 90
        3
176
     1
 90
        0
176
     1
 40
0.6
176
     1
 40
30.0
176
     1
 62
     7
420
 16777215
176
     1
 90
        2
176
     1
 90
        2
176
     1
 62
     7
176
     1
 62
     7
176
     1
 90
        1
176
     1
 90
        1
176
     1
 40
40.0
176
     1
 90
        8
176
     1
 62
     7
176
     1
 40
1.0
176
     1
 90
        1
176
     1
 90
        6
176
     1
 90
        2
176
     1
 62
     7
176
     1
 90
        3
176
     1
 90
        0
176
     1
 90
        0
176
     1
290
     0
176
     1
 90
        1
176
     1
 40
0.0
176
     1
 90
        0
176
     1
290
     0
176
     1
290
     1
176
     1
290
     1
176
     1
290
     0
176
     1
290
     0
176
     1
290
     0
176
     1
290
     0
176
     1
290
     0
176
     1
290
     0
176
     1
 90
       50
176
     1
 40
0.0
176
     1
 40
1.0
176
     1
 90
        0
176
     1
 62
   178
420
        0
176
     1
 90
       50
176
     1
 90
        3
176
     1
 62
     5
420
      255
176
     1
290
     0
176
     1
 90
       50
176
     1
 90
       50
176
     1
 90
       50
176
     1
290
     0
176
     1
 90
       50
176
     1
 62
   256
176
     0
 40
1.0
176
     0
 90
        2
176
     1
  1
strokes_ogs.tif
176
     1
290
     0
176
     1
 40
1.0
176
     1
 40
1.0
176
     1
  0
VISUALSTYLE
  5
5AE
102
{ACAD_REACTORS
330
599
102
}
330
599
100
AcDbVisualStyle
  2
Sketchy
 70
    24
177
     3
291
     0
 70
    58
 90
        1
176
     1
 90
        2
176
     1
 90
        2
176
     1
 90
        0
176
     1
 40
0.6
176
     1
 40
30.0
176
     1
 62
     7
420
 16777215
176
     1
 90
        2
176
     1
 90
        2
176
     1
 62
     7
176
     1
 62
     7
176
     1
 90
        1
176
     1
 90
        1
176
     1
 40
40.0
176
     1
 90
       11
176
     1
 62
     7
176
     1
 40
1.0
176
     1
 90
        1
176
     1
 90
        6
176
     1
 90
        2
176
     1
 62
     7
176
     1
 90
        6
176
     1
 90
        0
176
     1
 90
        0
176
     1
290
     0
176
     1
 90
        1
176
     1
 40
0.0
176
     1
 90
        0
176
     1
290
     0
176
     1
290
     1
176
     1
290
     1
176
     1
290
     0
176
     1
290
     0
176
     1
290
     0
176
     1
290
     0
176
     1
290
     0
176
     1
290
     0
176
     1
 90
       50
176
     1
 40
0.0
176
     1
 40
1.0
176
     1
 90
        0
176
     1
 62
   178
420
        0
176
     1
 90
       50
176
     1
 90
        3
176
     1
 62
     5
420
      255
176
     1
290
     0
176
     1
 90
       50
176
     1
 90
       50
176
     1
 90
       50
176
     1
290
     0
176
     1
 90
       50
176
     1
 62
   256
176
     0
 40
1.0
176
     0
 90
        2
176
     1
  1
strokes_ogs.tif
176
     1
290
     0
176
     1
 40
1.0
176
     1
 40
1.0
176
     1
  0
VISUALSTYLE
  5
5A6
102
{ACAD_REACTORS
330
599
102
}
330
599
100
AcDbVisualStyle
  2
Thicken
 70
    13
177
     3
291
     1
 70
    58
 90
        2
176
     1
 90
        2
176
     1
 90
        0
176
     1
 90
        0
176
     1
 40
0.6
176
     1
 40
30.0
176
     1
 62
     7
420
 16777215
176
     1
 90
        1
176
     1
 90
        4
176
     1
 62
     7
176
     1
 62
   257
176
     1
 90
        1
176
     1
 90
        1
176
     1
 40
1.0
176
     1
 90
       12
176
     1
 62
     7
176
     1
 40
1.0
176
     1
 90
        1
176
     1
 90
        6
176
     1
 90
        2
176
     1
 62
     7
176
     1
 90
        5
176
     1
 90
        0
176
     1
 90
        0
176
     1
290
     0
176
     1
 90
        1
176
     1
 40
0.0
176
     1
 90
        0
176
     1
290
     0
176
     1
290
     1
176
     1
290
     1
176
     1
290
     0
176
     1
290
     0
176
     1
290
     0
176
     1
290
     0
176
     1
290
     0
176
     1
290
     0
176
     1
 90
       50
176
     1
 40
0.0
176
     1
 40
1.0
176
     1
 90
        0
176
     1
 62
   178
420
        0
176
     1
 90
       50
176
     1
 90
        3
176
     1
 62
     5
420
      255
176
     1
290
     0
176
     1
 90
       50
176
     1
 90
       50
176
     1
 90
       50
176
     1
290
     0
176
     1
 90
       50
176
     1
 62
   256
176
     0
 40
1.0
176
     0
 90
        2
176
     1
  1
strokes_ogs.tif
176
     1
290
     0
176
     1
 40
1.0
176
     1
 40
1.0
176
     1
  0
VISUALSTYLE
  5
59F
102
{ACAD_REACTORS
330
599
102
}
330
599
100
AcDbVisualStyle
  2
Wireframe
 70
     5
177
     3
291
     0
 70
    58
 90
        0
176
     1
 90
        2
176
     1
 90
        0
176
     1
 90
        0
176
     1
 40
0.6
176
     1
 40
30.0
176
     1
 62
     7
420
 16777215
176
     1
 90
        1
176
     1
 90
        4
176
     1
 62
     7
176
     1
 62
   257
176
     1
 90
        1
176
     1
 90
        1
176
     1
 40
1.0
176
     1
 90
        0
176
     1
 62
   257
176
     1
 40
1.0
176
     1
 90
        1
176
     1
 90
        6
176
     1
 90
        2
176
     1
 62
     7
176
     1
 90
        3
176
     1
 90
        0
176
     1
 90
        0
176
     1
290
     0
176
     1
 90
        1
176
     1
 40
0.0
176
     1
 90
        0
176
     1
290
     0
176
     1
290
     1
176
     1
290
     1
176
     1
290
     0
176
     1
290
     0
176
     1
290
     0
176
     1
290
     0
176
     1
290
     0
176
     1
290
     0
176
     1
 90
       50
176
     1
 40
0.0
176
     1
 40
1.0
176
     1
 90
        0
176
     1
 62
   178
420
        0
176
     1
 90
       50
176
     1
 90
        3
176
     1
 62
     5
420
      255
176
     1
290
     0
176
     1
 90
       50
176
     1
 90
       50
176
     1
 90
       50
176
     1
290
     0
176
     1
 90
       50
176
     1
 62
   256
176
     0
 40
1.0
176
     0
 90
        2
176
     1
  1
strokes_ogs.tif
176
     1
290
     0
176
     1
 40
1.0
176
     1
 40
1.0
176
     1
  0
VISUALSTYLE
  5
5AF
102
{ACAD_REACTORS
330
599
102
}
330
599
100
AcDbVisualStyle
  2
X-Ray
 70
    25
177
     3
291
     0
 70
    58
 90
        2
176
     1
 90
        2
176
     1
 90
        1
176
     1
 90
        1
176
     1
 40
0.5
176
     1
 40
30.0
176
     1
 62
     7
420
 16777215
176
     1
 90
        1
176
     1
 90
        0
176
     1
 62
     7
176
     1
 62
   257
176
     1
 90
        1
176
     1
 90
        1
176
     1
 40
1.0
176
     1
 90
        8
176
     1
 62
     7
176
     1
 40
1.0
176
     1
 90
        1
176
     1
 90
        6
176
     1
 90
        2
176
     1
 62
     7
176
     1
 90
        3
176
     1
 90
        0
176
     1
 90
        0
176
     1
290
     0
176
     1
 90
       13
176
     1
 40
0.0
176
     1
 90
        0
176
     1
290
     0
176
     1
290
     1
176
     1
290
     1
176
     1
290
     0
176
     1
290
     0
176
     1
290
     0
176
     1
290
     0
176
     1
290
     0
176
     1
290
     0
176
     1
 90
       50
176
     1
 40
0.0
176
     1
 40
1.0
176
     1
 90
        0
176
     1
 62
   178
420
        0
176
     1
 90
       50
176
     1
 90
        3
176
     1
 62
     5
420
      255
176
     1
290
     0
176
     1
 90
       50
176
     1
 90
       50
176
     1
 90
       50
176
     1
290
     0
176
     1
 90
       50
176
     1
 62
   256
176
     0
 40
1.0
176
     0
 90
        2
176
     1
  1
strokes_ogs.tif
176
     1
290
     0
176
     1
 40
1.0
176
     1
 40
1.0
176
     1
  0
DICTIONARYVAR
  5
5C9
102
{ACAD_REACTORS
330
5C8
102
}
330
5C8
100
DictionaryVariables
280
     0
  1
1:1
  0
DICTIONARYVAR
  5
5CB
102
{ACAD_REACTORS
330
5C8
102
}
330
5C8
100
DictionaryVariables
280
     0
  1
Standard
  0
DICTIONARYVAR
  5
5CA
102
{ACAD_REACTORS
330
5C8
102
}
330
5C8
100
DictionaryVariables
280
     0
  1
Standard
  0
DICTIONARYVAR
  5
5CC
102
{ACAD_REACTORS
330
5C8
102
}
330
5C8
100
DictionaryVariables
280
     0
  1
0
  0
DICTIONARY
  5
A8D6
330
5B3
100
AcDbDictionary
280
     1
281
     1
  3
ACAD_ROUNDTRIP_2008_TABLESTYLE_CELLSTYLEMAP
360
A8D7
  0
CELLSTYLEMAP
  5
A8D7
102
{ACAD_REACTORS
330
A8D6
102
}
330
A8D6
100
AcDbCellStyleMap
 90
        3
300
CELLSTYLE
  1
TABLEFORMAT_BEGIN
 90
        5
170
     1
 91
        0
 92
    32768
 62
   257
 93
        1
300
CONTENTFORMAT
  1
CONTENTFORMAT_BEGIN
 90
        0
 91
        0
 92
        4
 93
        0
300

 40
0.0
140
1.0
 94
        5
 62
     0
340
11
144
0.25
309
CONTENTFORMAT_END
171
     1
301
MARGIN
  1
CELLMARGIN_BEGIN
 40
0.06
 40
0.06
 40
0.06
 40
0.06
 40
0.06
 40
0.06
309
CELLMARGIN_END
 94
        6
 95
        1
302
GRIDFORMAT
  1
GRIDFORMAT_BEGIN
 90
        0
 91
        1
 62
     0
 92
       -2
340
14
 93
        0
 40
0.045
309
GRIDFORMAT_END
 95
        2
302
GRIDFORMAT
  1
GRIDFORMAT_BEGIN
 90
        0
 91
        1
 62
     0
 92
       -2
340
14
 93
        0
 40
0.045
309
GRIDFORMAT_END
 95
        4
302
GRIDFORMAT
  1
GRIDFORMAT_BEGIN
 90
        0
 91
        1
 62
     0
 92
       -2
340
14
 93
        0
 40
0.045
309
GRIDFORMAT_END
 95
        8
302
GRIDFORMAT
  1
GRIDFORMAT_BEGIN
 90
        0
 91
        1
 62
     0
 92
       -2
340
14
 93
        0
 40
0.045
309
GRIDFORMAT_END
 95
       16
302
GRIDFORMAT
  1
GRIDFORMAT_BEGIN
 90
        0
 91
        1
 62
     0
 92
       -2
340
14
 93
        0
 40
0.045
309
GRIDFORMAT_END
 95
       32
302
GRIDFORMAT
  1
GRIDFORMAT_BEGIN
 90
        0
 91
        1
 62
     0
 92
       -2
340
14
 93
        0
 40
0.045
309
GRIDFORMAT_END
309
TABLEFORMAT_END
  1
CELLSTYLE_BEGIN
 90
        1
 91
        1
300
_TITLE
309
CELLSTYLE_END
300
CELLSTYLE
  1
TABLEFORMAT_BEGIN
 90
        5
170
     1
 91
        0
 92
        0
 62
   257
 93
        1
300
CONTENTFORMAT
  1
CONTENTFORMAT_BEGIN
 90
        0
 91
        0
 92
        4
 93
        0
300

 40
0.0
140
1.0
 94
        5
 62
     0
340
11
144
0.18
309
CONTENTFORMAT_END
171
     1
301
MARGIN
  1
CELLMARGIN_BEGIN
 40
0.06
 40
0.06
 40
0.06
 40
0.06
 40
0.06
 40
0.06
309
CELLMARGIN_END
 94
        6
 95
        1
302
GRIDFORMAT
  1
GRIDFORMAT_BEGIN
 90
        0
 91
        1
 62
     0
 92
       -2
340
14
 93
        0
 40
0.045
309
GRIDFORMAT_END
 95
        2
302
GRIDFORMAT
  1
GRIDFORMAT_BEGIN
 90
        0
 91
        1
 62
     0
 92
       -2
340
14
 93
        0
 40
0.045
309
GRIDFORMAT_END
 95
        4
302
GRIDFORMAT
  1
GRIDFORMAT_BEGIN
 90
        0
 91
        1
 62
     0
 92
       -2
340
14
 93
        0
 40
0.045
309
GRIDFORMAT_END
 95
        8
302
GRIDFORMAT
  1
GRIDFORMAT_BEGIN
 90
        0
 91
        1
 62
     0
 92
       -2
340
14
 93
        0
 40
0.045
309
GRIDFORMAT_END
 95
       16
302
GRIDFORMAT
  1
GRIDFORMAT_BEGIN
 90
        0
 91
        1
 62
     0
 92
       -2
340
14
 93
        0
 40
0.045
309
GRIDFORMAT_END
 95
       32
302
GRIDFORMAT
  1
GRIDFORMAT_BEGIN
 90
        0
 91
        1
 62
     0
 92
       -2
340
14
 93
        0
 40
0.045
309
GRIDFORMAT_END
309
TABLEFORMAT_END
  1
CELLSTYLE_BEGIN
 90
        2
 91
        1
300
_HEADER
309
CELLSTYLE_END
300
CELLSTYLE
  1
TABLEFORMAT_BEGIN
 90
        5
170
     1
 91
        0
 92
        0
 62
   257
 93
        1
300
CONTENTFORMAT
  1
CONTENTFORMAT_BEGIN
 90
        0
 91
        0
 92
        4
 93
        0
300

 40
0.0
140
1.0
 94
        2
 62
     0
340
11
144
0.18
309
CONTENTFORMAT_END
171
     1
301
MARGIN
  1
CELLMARGIN_BEGIN
 40
0.06
 40
0.06
 40
0.06
 40
0.06
 40
0.06
 40
0.06
309
CELLMARGIN_END
 94
        6
 95
        1
302
GRIDFORMAT
  1
GRIDFORMAT_BEGIN
 90
        0
 91
        1
 62
     0
 92
       -2
340
14
 93
        0
 40
0.045
309
GRIDFORMAT_END
 95
        2
302
GRIDFORMAT
  1
GRIDFORMAT_BEGIN
 90
        0
 91
        1
 62
     0
 92
       -2
340
14
 93
        0
 40
0.045
309
GRIDFORMAT_END
 95
        4
302
GRIDFORMAT
  1
GRIDFORMAT_BEGIN
 90
        0
 91
        1
 62
     0
 92
       -2
340
14
 93
        0
 40
0.045
309
GRIDFORMAT_END
 95
        8
302
GRIDFORMAT
  1
GRIDFORMAT_BEGIN
 90
        0
 91
        1
 62
     0
 92
       -2
340
14
 93
        0
 40
0.045
309
GRIDFORMAT_END
 95
       16
302
GRIDFORMAT
  1
GRIDFORMAT_BEGIN
 90
        0
 91
        1
 62
     0
 92
       -2
340
14
 93
        0
 40
0.045
309
GRIDFORMAT_END
 95
       32
302
GRIDFORMAT
  1
GRIDFORMAT_BEGIN
 90
        0
 91
        1
 62
     0
 92
       -2
340
14
 93
        0
 40
0.045
309
GRIDFORMAT_END
309
TABLEFORMAT_END
  1
CELLSTYLE_BEGIN
 90
        3
 91
        2
300
_DATA
309
CELLSTYLE_END
  0
ENDSEC
  0
SECTION
  2
ACDSDATA
 70
     2
 71
     2
  0
ACDSSCHEMA
 90
        0
  1
AcDb_Thumbnail_Schema
  2
AcDbDs::ID
280
    10
 91
        8
  2
Thumbnail_Data
280
    15
 91
        0
101
ACDSRECORD
 95
        0
 90
        2
  2
AcDbDs::TreatedAsObjectData
280
     1
291
     1
101
ACDSRECORD
 95
        0
 90
        3
  2
AcDbDs::Legacy
280
     1
291
     1
101
ACDSRECORD
  1
AcDbDs::ID
 90
        4
  2
AcDs:Indexable
280
     1
291
     1
101
ACDSRECORD
  1
AcDbDs::ID
 90
        5
  2
AcDbDs::HandleAttribute
280
     7
282
     1
  0
ACDSSCHEMA
 90
        1
  1
AcDb3DSolid_ASM_Data
  2
AcDbDs::ID
280
    10
 91
        8
  2
ASM_Data
280
    15
 91
        0
101
ACDSRECORD
 95
        1
 90
        2
  2
AcDbDs::TreatedAsObjectData
280
     1
291
     1
101
ACDSRECORD
 95
        1
 90
        3
  2
AcDbDs::Legacy
280
     1
291
     1
101
ACDSRECORD
  1
AcDbDs::ID
 90
        4
  2
AcDs:Indexable
280
     1
291
     1
101
ACDSRECORD
  1
AcDbDs::ID
 90
        5
  2
AcDbDs::HandleAttribute
280
     7
282
     1
  0
ACDSSCHEMA
 90
        2
  1
AcDbDs::TreatedAsObjectDataSchema
  2
AcDbDs::TreatedAsObjectData
280
     1
 91
        0
  0
ACDSSCHEMA
 90
        3
  1
AcDbDs::LegacySchema
  2
AcDbDs::Legacy
280
     1
 91
        0
  0
ACDSSCHEMA
 90
        4
  1
AcDbDs::IndexedPropertySchema
  2
AcDs:Indexable
280
     1
 91
        0
  0
ACDSSCHEMA
 90
        5
  1
AcDbDs::HandleAttributeSchema
  2
AcDbDs::HandleAttribute
280
     7
 91
        1
284
     1
  0
ACDSRECORD
 90
        0
  2
AcDbDs::ID
280
    10
320
1C
  2
Thumbnail_Data
280
    15
 94
     8114
310
89504E470D0A1A0A0000000D4948445200000100000000970806000000FA668529000000097048597300000B1300000B1301009A9C1800001F6449444154789CED9D596C1BD7D5C7FFDC255214252E12B5CBA416CBF292D871BCC84B9CCD75D30528DAC65D82A20B92A702018A167DED5B5BA045933EB90D12B449FB014D0B
310
D40F6DDD28F51E78492527B12C2F122951A2565A2445715FC4EF419829EF5C52222DC9BC14EF0F10A0397738BA1CDDF9CFCC3DF79C231B1D1D4D8301E6E6E670F8F0E1627783C3D9547C3E1FC6C6C66030188ADD150080BCD81DE07038C5830B008753C67001E070CA182E001C4E19C30580C32963B8007038658CB2D81DC8
310
85CFE783CFE713B7D56A359A9B9BC5ED582C86A9A929715BA7D3A1BEBE5EDC0E0683989F9FCFD9EEF7FBE1F57AC56D83C10093C994B3DD6C36A3BABA5ADCF6783C585A5ACAD93E3333834824226E5BAD5668B5DA9CED2D2D2D50A954E2F6C4C40492C964CE76A7D3894C6C369BF87B2291C0E4E4A4B8AD542AD1DADA9AB3BD
310
B2B2120D0D0DE276381CC6ECEC6CCEF6402080870F1F8ADB7ABD1E168B2567BBD168444D4D8DB8BDB0B080C5C5C59CED737373088542E2765D5D1DAAAAAA72B637353541A3D188DB6EB71BF1785CDC6E6B6B8342A110B7C7C7C7B1BCBC9CB53D954AC1E572896D72B91CEDEDEDE2B6B47DAD71198D46B163C70EB08A8CD575
310
000E870376BBBD883DE270D68F741CF375001C0E8719B8007038650CB30290F93ECEE1942A56ABB5D85D5815660520735288C32955743A5DB1BBB02ACC0A0087C3D97CB8007038650CB302E076BB8BDD050E67DDB03E8E995D08148BC58ADD8535999F9F4730182C7637CA16AD56CBFC241BEBE3985901280582C120B1028F
310
F37871381CC5EE42C9C3EC2B0087C3D97C9815806DDBB615BB0B1CCEBA617D1C33FB0A209733AB4D9BC6F4F434A2D128614BA552B05AADD0EBF545EA15CDFDFBF789C02460258068FBF6ED502A991D524581F571CCFF5B45E0C18307989898A0EC168B057BF6ECA1EC1F7CF00135901289048E1F3F4E44186E341F7CF00111
310
550740BCC0A517BA4C26C3F8F838758C4020806F7EF39B05FDDDB367CFC2E572A1BBBB9B88E20380870F1F22128960D7AE5DA8ADAD2DE8B81C1A660520994C96CCDD24180CE2D34F3FCD7BFF582C86E79F7F3EEFFD5F7CF145CA96482470E9D225CA3E353585A6A626545656526DB5B5B54488753EFD34994C686B6B136DB7
310
6EDDC28E1D3BA8C94F87C381B1B131F4F4F410F69999195CBC78110F1E3C20EC8140002FBDF41211C62BFCCD70388CDEDE5E1C3972846A9F9D9D452412C1E8E868490840341A45454545B1BB911366AF3097CB5532E1C0D7AF5F2F28A5F946089B4AA5CA2A22E9749AC83390C93BEFBC83FAFA7AA8D56AD1B6BCBC8C175F7C
310
117FFBDBDF8810558D468353A74EC1E572A1A9A949B40F0F0FAFDAAFCC7D81950BC0E7F3E1D5575F25EC2FBCF002BEFFFDEF5317B1CFE783CBE5C237BEF10D0C0C0C1082353B3B8BBEBE3E6CDBB60DA3A3A3ABF68315A6A6A6981EC7CC0A40A9B1998FE2852093C972F645A954C26030E085175E106DFDFDFDA23F5D6A2FF6
310
13584D4D0DF6EDDB276E3B9D4E22910767FD7001E0148C56ABC5871F7E48D81A1B1B8BD41BCE7A605600589AF52E6782C120917EACB1B11156AB35EB0ABC8A8A0A2A5559B9FF1F59FFFECC0A405D5D5DB1BBC03477EFDEC5679F7D86975F7EB9A0CF2D2D2D1117A9905BCFE7F3117661F65FA150201C0E8B76B3D98CC9C949
310
241209E2B8C964128D8D8D9427C0E170606969897A6278EAA9A7D6ECAB5AAD26FAB4B8B888969696353FC712AC8F636605602B70E6CC19BCF6DA6B94FD0F7FF803BEF39DEFACEBD83D3D3DD48C7B3E7CE52B5F21B69B9A9AF0F6DB6FE37BDFFB1E61371A8DF8FBDFFF0EABD54A7801060606D0D3D393D50B70FDFA75F4F6F6
310
1276B55A8D8A8A0A22C129009C3B776ECDBE5A2C162C2C2C88DB757575309BCD6B7E8E933F5C003691D3A74F67B57FE10B5F78CC3DF91FEFBFFF3E31F31E0C0671FAF469FCF18F7F24DEE393C9248E1D3B069FCF476404CEF4206423735F606581D0FDFBF78909460079B94D4746468875006EB71BB1588CC75F6C20CC0A80
310
D7EB85D1682C7637D645AECCAFC54C7756535343B80F052F4043430365371A8D05AD1BD868B45A2DE142ABA8A8403ACD4412EBBC617D1C332B003E9F8FE91357CE702F40FEB03E8E9915000E1BC462316222CE6EB7E7F402D4D6D6525E00A3D188919111A21009871DB800942877EFDEC5F8F8384E9D3A55D0E752A9147191
310
0A8FD4D16894B00B8B80E6E6E6904AA544FBB66DDBA88B1C002291081A1B1B71E7CE1DC21E8FC75151514154F20180A3478FAED957B95C4E3C6984C3611C3F7E7CCDCF71F287590160DD7D920F3FFFF9CFF1D39FFE94B2FFE637BFC1EBAFBFBEAE633FAA17E0739FFB1CB1DDD4D4845FFEF297F8C94F7E42D88D4623DE7AEB
310
2D9C387182780FEFEFEF87DD6ECFEA05181818A096270B493B64321961CF2C3D968BAAAA2A22EAD06030309F65570AEBE3985901607D01453EFCF8C73FCE6AFFE10F7FF8987BF23FA4B3FDF3F3F3F8D18F7E843367CE1017FAD2D212BEFBDDEF668DF02B14A7D3497901464646D6FCDCE2E2220E1D3A246E8F8D8D95548C08
310
C0FE38665600B602D250D6B5EC8F836CB3FD0A8502369B2DAB7D3391E63E902293C908B7A34AA52A392F00EB7001E0148CC160A0BC00998B85F2C16C36E34F7FFA13BEFAD5AF12D577398F176605607C7C9C0F0C06181F1FC7D8D898B8DDD6D60693C9943514B9B6B69612867DFBF6E1C18307B870E102617FE59557303737
310
875BB76EA1A5A5A5A84F459B09EBE3985901C89C792E2784C4195D5D5D9B72FCB9B939E2221596DA8E8F8F5333EE00F0DC73CF653DCE8D1B3760B3D9A0D3E9303333234EF2D96C36984C266211D4C99327A9305E854201994C86B1B131FCF6B7BFC5912347D0D3D3834F3EF944DC47A3D1107D12B2209512AC8F636605A094
310
D8BE7D3BDE78E38DAC59787261B55AB173E74EC2E6F57A37F56EE1F3F9904C2689E01E00F8DDEF7E0700947BEF8D37DE405F5F1FB19025954A21954AA1BDBD1D5AAD16D3D3D3B0D96C44CAB2919111180C068C8E8EC2ED76A3B2B212D5D5D5E8EAEAA2EEF4DBB66DC3EBAFBF8ECB972FE3D7BFFE3511ECA3D56A096F432291
310
A0BC099CF5C1AC00B09E4C3193783C8E93274F422E97134934743A1D2A2B2BF1F0E14362FF9A9A1A0C0C0C50AE34954A85502854F0FBB4C0FCFC7C4EB7533A9D462C16C3ABAFBE0ABFDF2FDA93C9242C160BE2F138E1AB4F2693585E5E864AA5A2FA393C3C0C8D46039D4E07994C46FDAF84ED402080679E7946FC7D707010
310
2A950A0D0D0DA8AFAFC7B973E7603018B073E74E1C3B760C070F1EC4DB6FBF2DBA377D3E1F31E3EF743A313D3D5D525E00D6C731B302C07A3A6529A15008369B8D08B471381C080683D480CD55D0A2A5A505030303A8ABAB2BE8690258B93B9E3F7F3E6700D2EDDBB7B17BF76EEAA2F2F97C70381CA8ADADA5EC4EA7336B95
310
E61D3B76E0DAB56B848B2E579F04AAABAB515B5B8B582C86C1C141B4B6B6E2C08103A8ADADC5EDDBB7110A85B07FFF7EECDEBD7B4B555B627D1CB32D4F65C8DEBD7B31383858F0E7542A55CE8B3F168B21168B6DA84FFAA9A79EC27FFFFBDF9CEDF1789C8A1CF4F97CE8EDEDC5C99327110E8745B1DCB56B17F6EDDB877FFC
310
E31FB0582CFC31FF31C20580316432199E7CF2495CB97225AFD572F930383888BD7BF76EC8B104542A151A1B1B71F7EE5D5CBF7E1D4EA753FCA9AAAA422010402010C0A79F7E2A4E840917F68D1B37A8FE0C0F0FC36030A0B3B37343FBC9591D665F0162B11895129A7516171789BB5722918052A924DEB981B56786B55A2D
310
8E1C3902B7DB8D8F3FFE18C96492789754A954B0DBED39C38D33F17ABD309BCDE2E45B2A9522FAB3B8B828F6359B7D3584F4602E970BD3D3D3E2FC87C7E3C1F2F232EAEBEB61329930383808854221262BEDEAEAC2CD9B37D1DADA8AA6A6264422110C0D0DE1F39FFF3C717CA917209D4EA3AFAF6FCD7EB104EBE398590170
310
BBDD2535D9A3D7EBE1F178E0F178449B4C26834AA5A262EAED763BFEF5AF7F21140AA1AAAA2AAFE3271209545757A3AFAF0FE170186EB79BC8B55F555595353660646404070E1C10B7CD6633B50C57AD5623168B517683C1800B172EE0DEBD7B790FE26030889E9E1E7477776369690953535362FF857CFE1D1D1D3874E810
310
5C2E176EDCB881A5A5256AFE04003501198944A8CC42ACC3FA386656004A8D6432898A8A0A225825180C22168BA1A6A686707F25120944A3517474745029BCE57239743A1D96969628BB70816AB55A6A9D402010C08D1B37D0D0D080D6D656002BB3E652B7622291201292C4E371F8FD7E68B55AC21E0A85904C26914AA5D0
310
DBDB4BF9F1351A0DE4723951834098F014D616E8F57A6CDFBE9DF8DCECEC2C3EFAE823747575A1ADAD0DADADADF8F0C30FB3E608944EA03A9D4E783C1E54575753FB721E0D2E001B442412C9EA05D0E97439BD0077EFDEC5D7BEF635A2ADBFBF1F369B8DFA4C7F7FFFAA7FBFBABA1A070E1C80DBEDC6B56BD7D0DDDD8DB9B9
310
396AA65E7A51F97C3E048341E8743AE26E9B9924746464840AE6C9D64FA7D309AFD7BB6A3F855C0223232370B95CE8E8E880C562A16A0D721E0FCC0A4036F75339303C3C8C6834FAC88F8DCDCDCD686E6EC6679F7D96B5CEE04671F3E64D2493C947EE67676727D2E9346EDDBA85279F7C72837BC70EAC8F636605A09879F3
310
8A495B5B1B555EEB51D8BD7BF706F426371D1D1DEBEEA74C265BD53B1189448835139393932597169CF571CCAC0094221E8F8708570D87C3D0683478F8F021318B2F7801E47239F5C8ACD3E9A0D7EBD77C947E5452A914716C61E63F1C0E1376E9EA45697F2C160B341A4DD6636D14ADADAD443F5A5B5B4B4E0058870BC006
310
A0542AB1B0B080743A8D402020DA2B2B2B914EA7A9A41A3A9D0EC160102D2D2DD4FAFB9696162A6D17B012C72FCCA8AF07698E3F6065B22E994C52F6402080A5A525D4D7D7536DCDCDCD593F232C1FDE0832CFA5B01D080498BFAB9612CC0A80C7E381C562297637F2A2BABA1AB1588CBA03E6BA23FAFD7E9C3E7D1AF3F3F3
310
D49A80D5EEA2369B2D6B3EBE7C48A552397DFBABFDCD2F7FF9CB70B95C797F46A150A0ADAD6DCD7E7ABD5EB85C2E6A2D43201010572CC662316A92D1EFF7979400B03E8E9915804020C0F489CBC4EBF5E28B5FFC62C19F9356D1D96CDE7AEB2D3CFFFCF3D462A553A74EE1F7BFFF3DB16E5DA954E299679EC19B6FBE891D3B
310
7688F6858505F4F5F5E1D2A54BA8AFAF17EDE17018BB77EFC6E8E8289574B4BDBD9D12913B77EEA0AFAF8F72FFADE5ED2835581FC7CC0A00677390BAEE8449B6F6F67622C98760EFE9E9A15285C5E3711C3C78904A16BABCBC4C250AE9EFEF875C2EA7EC0303031BF7A5388F0C17000EB34853954F4C4C888B9C381B03B302
310
C02BCD70A4AF48A5581390F571CCAC00141A0FCF22A150085AAD36EFF0D650285450DEFB470934999E9E2672FCC9E57258AD56F87C3E22F04658C1383D3D4DD853A914341A0DAE5DBB461C47AD56A3B2B292CA0958555585E5E565CA9E397F908BE1E1614C4F4F8BDB814000870F1FCE5A958855581FC7CC0AC05660606000
310
168B25EF021EEFBDF71E5E79E5152A3E201BB1580CEFBEFB2E7EF0831F14D4A76C1579729531074095319F9999C1E5CB97F1F2CB2F67DD5F5A1DF8FAF5EB585C5CCC3A07B0568A6F8D46437CCEE97452158638EB830BC02672ECD8B182F6CF75116643A3D1147CF103C0C71F7F4CB8D13C1E0F5E7BED35BCFFFEFBD8B76F9F
310
68F7F97CD8B76F1FFEFCE73FE3E0C183A2FDDEBD7BE8EBEBC3E5CB97D1DCDC2CDA1D0E073A3A3AA88B7A696909EDEDED945BF0C2850B62BAB0AD4C3A9D663AC109B302C0277C3607A3D148BC4B0B176C4D4D0D6117BC00168B85B2C7E37134353551F6743A9DB564985C2EA7ECAC67CBDD289C4E270F077E1432F3C971CA13
310
E98AC89999197E53D8609815004E79138944A89C07369B4DCCA5C0D918981500694249CEC690CD0B60B7DB110C068999FAAAAA2AD8ED76F8FD7EC2AE56AB61341A71E9D225E238068301D5D5D5D46CBFD96C865AADA6EC99F307D9F8BFFFFB3F7CEB5BDFA2BC1CA3A3A354A012CBB03E8E9915001EF5B539ECDCB913F1785C
310
DC1602778E1E3D4ABC9757545400004E9C3841D8753A1DAAAAAA88894160251E42AD5663D7AE5D945DA1505017C26AEE4E83C100BBDD9E35F849A3D1A0AEAE8EA8BFC032AC8FE3D2388B9C0D637272929ABC331A8DB87EFD3A312B3F39390983C140D9AF5EBD8AEEEE6E0483412276E0CA952BE8E8E8A00A935CB97205369B
310
8DF2DD5FBE7C3967D9B1A79F7E3AAFEF92ABBE02277FB8009419C21D5C40F85DA3D11076E18E2DB52B140AA4D36968B55AC22EB8BAA4494E653219643259DEC94F811517E1F8F878D6BB67301844381CC69E3D7BC4A714CEA3C3AC0084C3E1BC16C470B61EC964122A950A478F1EA5E600EEDFBF8F603028D624641DD6C731
310
B385416666668ADD05CE26333939496C2F2C2C88854BBFFDED6FC3ED76130547AE5FBF0EBD5E4F2C58621DD6C731B34F005B81C9C949E8F5FABC13430E0D0DA1B7B737AF9563E974FA911699241209C2B71E8D4671FFFE7D188D46C22EF4416A37994CE272DC4CBB50165CBAE2AFA6A6266B16A29E9E1E9C3B770E8D8D8D62
310
9AEFDBB76F6378789828FE21BDCB67A621E7AC1F2E009B482C16433A9DCE5B00E6E7E761B7DBF30A2089C7E3181F1F2F580052A9147157AAAAAAC2E2E222341A0D61379BCD59F75728140887C390C96444CAAEF6F676EA18C0FF561A4A8BA3ECDBB70FB1580C172E5C20ECF9040971360E6605209FB257ACD3D1D151D0FECF
310
3EFB6CDEFB6A349A9CB3E8ABA150288834DC2E970B7BF6ECC13FFFF94F62B67F626202C08A2865F6EBF2E5CBE8EAEA422412A1BC009D9D9D548AEFAB57AFC26AB55261B11F7DF4119E78E209BCF4D24B84FDDD77DF2DF83BB18C20A4ACC2AC00B07EE24A15954A454C4A09B3FD52BBB03E40A3D11076A1C2514545056117B2
310
1E4B27BC042F40B68930B95CBEEA0459381C261610F97C3E1C3E7C78ED2FC910ACDFC89815000E67D7AE5DD4C222CEC6C20580C32CF7EEDD2356104E4F4FA3A5A5056D6D6D45ECD5D6825901989D9D2DA9CC2FD978F0E0018C46E3BA5F67AE5EBD8A23478EE4B56F2814C2C8C8089E78E289ACED82F74020954AE1DAB56B68
310
6E6E26ECC28527B5777777C36AB58AAE3981FAFA7A8442216AB67FE7CE9DD06AB594DD603060696989B0271209E27F2EAD0E0CA0E4AA03B33E8E991580AD90F965797999A80AFCA8149250422693AD1A6BEFF57A89D97B2165D9CCCC0C5101D86432A1A5A505131313C477309BCDB0582C181F1F27D6E32B954AE8F57ACCCD
310
CD117F6FDBB66D502814940068341AC864B2AC8545B612AC8F636605602B202D8DFDA864FAC5D742ABD5AEBA50C66432116BED1D0E07EC763BFAFBFB890AC0C23A7B694AEFFEFE7E545757A3B3B3934A0B5E5B5B4BFD6DA18A70B674E18D8D8DD8BF7F3F613F73E64C41CB8639EB830B008759944A25F184E0F3F9988FAE2B
310
35981500FE8FE634363612A1CBF5F5F5CC67D995C2FA38665600584FA4C0D97C464747515B5B2B6EBB5C2E98CD66A673EC49617D1C332B00A5845AADC6D0D010D3515FA9540A068301333333543E7F994C068542412CBA112607D3E9346137180CA22721F338269309F1789CCAFC63329910894428BBD56A452010A0EC46A3
310
91E85BE60C7A381C5E339538A730B8006C006AB57AC34A626F160A8502959595989C9C2472EAA9D56AC4E371CCCCCC102E36AD568B70388CB9B939C2AED7EB110804E076BB89E307834154545450B100C160104AA5121E8F87B07BBD5E2C2F2F532ED248249277EC4429904C2699CE5EC46CCF9C4E6749C47B032B83BCBBBB
310
BBD8DD5893D9D9591C387080B8CB7A3C1E1C3D7A14EFBDF71E0E1D3A24DAFD7E3F0E1E3C8877DE7987B00F0D0DC166B3219D4E13EFB70F1E3C40575717DADBDB89BF29FC1FA5711167CF9EC573CF3DB7E5AB03BB5C2EA65F59981500FEA8B739D4D7D71303527872A9AFAF27DC96821BB0B9B999B00B31FCD22AC3825DEAFA
310
9C9C9C844AA5A22E82B367CFAED9D7CACA4AC20B100C06999F542B359815000E47A3D150AF0E2CCFB39422CC66042A35770F67E3F1783C686868107FE2F13835F7C03AAC8F63669F00582FAB9C0F4EA7138D8D8D7927AF1C1E1EC68E1D3BF2DA379D4E637878982AA19D6FBF0496979771EBD62D98CD66C22E84F71A0C06C2
310
DED8D8884020402DD2E9E8E8A0B207012B1981E2F13865CF67CE44A55211598683C160C9BD1AB23E8E991580AD40381C86DFEFCF3B18647A7A1A9D9D9D7979141289041C0E47C102108D46313F3F2F6E1B8D46F8FD7EE8F57AB85C2ED12E0CDC783C4ED8D56A351289047521DAED76A8D56A625F60E50E188944303B3B4BD8
310
B7D24C7F29C3056013D9B9736741FB4BD7CBAF865AADC697BEF4A542BB04B55A4D94081F1B1BC39E3D7BF0EF7FFF9BC830343E3E0E60259825D37EFEFC7974747420994C125E9A0B172E20994C52E5C72F5CB8009BCD86DDBB7713F65FFDEA578F94D188B3B1302B008140404C16C9D938E47239E197161EF5A57621023197
310
5DA15064F56FE7F2793F8A2FBCBABA9A4A605A6AC541591FC7CC0A80C7E361FAC471369F643249CD57B0EC53CF06EBE3985901E070C2E130F15AE4743AE176BB4B4E0458860B409921ADF6ABD7EB61B7DBA152A908BB30FB9E482408BBD16884D56AA5AA03373535C16C36536BFB3B3A3AB2560D2E747E84B33930BB0E2073
310
B92A67E3C8955D285FBB90E5B790CF17B2FF5683F571CCEC134066182867E330180CD8BB77AFB82D2CF98DC7E359330229954A2A23D0CCCC0CBABABAA88C401A8D266BE69F6C19817EF18B5F94851780F571CCAC007038959595C4AB432A95228A9770D60FB3AF001C8E340370329944229128526FB626CC3E01B8DD6E3437
310
3717BB1B9C4DE4D6AD5BD8B1638718E0E376BB31353585A6A626002B1390522FC0DCDC5C49250D657D1C332B00B158ACD85D5837434343B0582C7917BC3C7FFE3CFAFAFAA0D168D6DC371E8FE3CA952B05BF478742216A56FFE2C58BD44CBD70114ABD03151515989C9C44229120BC009D9D9DA8ABABA366FB85E2A352FBFE
310
FDFBF197BFFC05F5F5F5A2008C8F8F1302B015607D1C332B005B01AD565BD00AB8A6A6A6BCF7572A958F74A1E8743A6209AF5043402E97C362B188766185A04EA783C96412EDD16814B1588CAA2508805A1E0C000B0B0BA8ACACA4EC6AB51A3FFBD9CF88BCF9369B0D9F7CF249C1DF89F3E87001D8440ACD6854485621B95C
310
FEC8750732FBE57038B077EF5EF4F7F713D584042F80DFEF2772F7F7F7F7C36EB7239D4E13C711ECD2EFEC703860341A29BBE01D902EEAE9EFEF875EAF07B022285EAF576CF3FBFDCC17DB2C35981500696A294EF9515F5F2F0A9140A98D0BD6FBCBAC006C44492D4E69130E87093F7A301844201060DEB79E09EBE3985901
310
E06C0E1E8F8788E59F9F9F87DD6E87C7E3C1E8E8A868F77ABDB0DBED98999921EC425DC1898909E23891480400887D8195C7F8643249D985CF64B367B667BE22389D4E78BDDE921200D661761DC06A052E4B85E1E1618C8C8CACFB38EFBEFB6EDEFB3E7CF8909A71CFA4BDBD1D0A8542FC696F6FC75FFFFA571C3B768CB203
310
C0B3CF3E4BD84F9C38019BCD461DA7A1A101535353844DA150E0C89123686D6DA5EC5AAD16A9548AB2975AB8EF5AB03E8E9915002121452963B55A37C4077CFCF8F1BCF735994CABA6155B5C5C443A9D167FFC7E3F9E7EFA69F18E2EFC2C2E2E02006577BBDD080402D471D46A351A1B1B095B3A9DC6E4E424028100655728
310
14D06834943DB372F15680F571CC5F0136918D0A0429E4AE2893C956CD43A7542A292F406B6B2BEEDFBF4FD981957503D2D9FEAAAA2AE8F57ACA2EB509768D4643CDF63B1C0E582C96ACFB0BE72D1008E0E6CD9B62DBD4D414955988B33EB8007098249D4EA3B7B7579C5B0056DCA45555552597189465987D05C837932E67
310
6BF2E69B6F229D4EC36030103F77EEDCC17FFEF39F62772F6F585FB6CCEC13C0565A0ECA12F7EEDD2396F0864221D8ED76DCBF7F9F88D117D26F0D0D0D11768FC783EDDBB7E3E2C58BC47182C12000501390D16814D16894B2CB6432F87CBEACF6542A85DEDE5E5CB97225EB77502A95C4EA4496C9771978B1908D8E8E32F1
310
3C35373787C3870F17BB1B0521D4BDF37ABD181C1C2C7677D6C4E170309F4ECBEBF5E2EB5FFF7A5EFB96C2F791E2F3F9303636C6CC8A46669F004A09A3D158504AEF62510A7DE43C5E9815009FCFC7FC828F868606AAE20DE7F1916FC19562C2FA386656004A61C557B628370E2713D6C731B35E000E87B3F97001E070CA18
310
660520B32A2C8753AAB03E8E9915002129048753CAB03E8E9915000E87B3F97001E070CA186605607A7ABAD85DE070D68DCBE52A761756855901C88C02E3704A15697113D6605600381CCEE6C3EC4A40994C463C05C8643222447879799928BA2097CB89821AD276854201B55A2D6EA75229C4E371715BA95442A55289DBD2
310
3254D2F6783C4EA47B52A954444E7F69BB5AAD261244C662312C2F2FE76C8F46A344DCBB46A31173F5676BAFACAC4426D227A8CC76E9B9919E5BE9B9919E5B69BBF4DC4ACF9DB43D9148107746E9B993B64BCF4DA1E7567AEEA4ED15151544C463E6B9959E9B743A8D68342A6EAF352E592F65C6AC00B4B7B763767656DC96
310
CBE5C4DAEF6432099FCF276EAB542AA2B085B4BDB2B2921884F1789C68AFAAAA222EF068344AA4A792B687C36184C36171DB6030108358DA6E329988411A0C068981226D5F5C5C2406795D5D1D3188A5ED5201C8FC6ED2F6E5E565A25DA1501083587AEE341A0D2100D276AD564B9CDB582C26A614CBD61E8944C4F06100A8
310
AEAE26E2E6A5EDB5B5B544FF43A1102170D2F64020405C7866B399F8FBD276ABD54A0880DFEF1705423AEED2E934F1DDD71A97AC872DF370600EE731C25A38309F03E070CA182E001C4E19C30580C32963B8007038650C17000EA78CE102C0E194315C00389C32860B008753C67001E070CA182E001C4E19C34C2C403A9DC6
310
9D3B778ADD0D0E67530985424CD5BD6446004AA1C80387B35E58BAF801FE0AC0E194355C00389C32860B008753C67001E070CA182E001C4E19C30580C32963B8007038650C17000EA78CE102C0E194315C00389C32860B008753C6FC3F4E1096D69BD11F000000000049454E44AE426082
  0
ACDSRECORD
 90
        0
  2
AcDbDs::ID
280
    10
320
1E
  2
Thumbnail_Data
280
    15
 94
     5953
310
89504E470D0A1A0A0000000D4948445200000100000000970806000000FA668529000000097048597300000B1300000B1301009A9C18000016F349444154789CED9DEB4F5BE71DC7BFC73EBE806D8CC1D80603063B106E6AA3242351474A509C488DB62AABBA6ECA8B697BB97F60FF42F7B27DB369DA8B69D292ADAD5A655B
310
346D69B3299705E5D6343702016CA036D7188C6D0CB6B1BD17E83C3B8F0DD83829E09CDF47B2D2F3E3F1C37354CEF73CE7777E1701401604412812D55E2F802088BD83048020140C09004128181200825030240004A16048000842C190001084822101200805430240100A86048020140C09004128181200825030240004A1
310
6048000842C19000108482210120080523EEF5025E27EC763B2A2B2B39DBC18307914AA5D8B14EA7C3B367CFB831E9741A535353AF6C1D353535309BCD9CEDCD37DF444343035B4B454505AE5CB9824422C1C60882009FCF57D4EFE8EDED452814422693E1EC3A9D0E8944027EBFFF25CF82D80D045045A082A8D56A58ADD6
310
82E3EAEAEAF0E4C9931DCFDFDCDC8CB6B636CEA652A9F0E8D123CE964EA7A156AB8B5AC7891327F0FCF97300405353131E3D7A049FCF8770380C00F07ABD48A7D350A9FEBF0974381CC86432301A8DCC160A85F0E0C1036E7E511471E6CC19DCBC79130F1F3EE47EF6C1071F607171115F7DF55511674EEC35B4032882E6E6
310
66CCCDCD151CB7B4B454D2FC535353793B005114A1D56A39DBC99327E176BBB9B14F9E3CC1B163C7B0B2B20200A8ACACC4175F7C0187C381AB57AF02D8B8D83743AD567317AA34EECF7FFE33B3FDFAD7BFC6175F7CC17DCFED7663646404CBCBCB3875EA14B35BAD567CF2C9275BFE3E62FF41025024F1787C577FDFFAFA3A
310
D6D7D7395B3299443299C4DFFEF6376673BBDD5858586017B2DBED463299DC95350A82C04406D85A6888FD0B09C06B4A777737B2D98DA73BB7DB8DC1C141D4D7D7C362B10000464646D0D9D9C9DDC1A5E77742399000EC03BEFFFDEFC3E7F3616666A6E058BD5E0F87C3C1D94C2613B3D5D6D6C2E7F3E1E38F3F663FBF7AF5
310
2A9C4E27B45A2D5657570100369B0D57AE5CE1E6696B6B436B6B2B5A5B5B996D646464CBB52412096EACDCD9499407240025F2DE7BEFE53D1B9F3B770E972E5DDAF15CF7EFDF2FFACE7BFBF66DD4D6D6B2E3CECE4E3C7DFA94D9A2D128CE9D3B87CACA4A0C0E0E02008E1E3D8AF1F171CE09E8F17870E6CC198C8E8EB2B9BA
310
BBBB31393909B7DBCD6CDB5DD4333333E8ECEC64C74F9F3E2DEA1C88FD03C50194C85FFFFAD73C5BEE1DB558D6D6D6D876BD105D5D5D88C7E3EC73EBD62D343535B16393C9842B57AE607E7E1E7EBF1F7EBF7F4BE76426936163FC7E3F62B1186A6B6B71F5EA55F6E9E9E9D9722D2D2D2D585A5A629FE3C78F9774FEC4DE41
310
3B801249A7D379B6DD70146A341AEE1DBBDBED661732B0E198DB6C1DD96C16151515585B5B03B0F19A31F71D7E29C81F5BA4B989F28104E035A5A9A98939F8AC562BAE5EBD0A87C3C19C80838383E8EEEEE69C808944023A9D6E4FD64BEC0D2400FB80FEFE7E8C8D8D21180C161C6B369BB98B767C7C3CEF62F7F97CB871E3
310
06DBA58C8D8DA1ADAD0D070F1E64BB03A3D1886BD7AE31410036E21DE2F138E7D8BB7BF7EE966B894422DCD8502854E41913FB05128012F9C10F7E80CB972F73B6F3E7CFE3E2C58B3B9EEBDAB56B458FFDFCF3CFB970DD3367CEE0C2850BDCBBFFF3E7CF637E7E9EC50678BD5E2C2E2EE2C68D1B5C24E0D1A347B940208FC7
310
834C26C33901ED76FB966B595959C1A14387D8F1ECEC6CD1E741EC0F48004A24F7E20750D2C5BF537EF8C31F728140A3A3A378F7DD7771FFFE7D0080D3E9C4C58B174B0ECAD1E9749C289C3E7D7ACBB1F5F5F5798140F426A0BC20012833565757F39C80E1709873026E462A9542737333DBF26BB5DAA223063FF8E0037CFA
310
E9A72FB972623F4202F09A22F71568B55A3C7EFC98FBB9DFEF47575717E74F58585880C3E1E0321AFD7E3F9C4E276A6B6BE919FF3584046017E8EBEBC3CD9B375FC95C5AAD96BB68878686B88BDD6432C1E7F3E1F3CF3FDF721DCDCDCD50ABD5585D5DC5D4D414C6C6C6581C82CFE783C96462DFF9C31FFE0000F8D18F7E84
310
743A8D7FFFFBDFE8ECEC442291C0C2C202B7965293A188BD8304A008A2D1287EF39BDF60797979DB711A8D06434343989C9C64B6D9D9D9925284B7A2B7B7174EA7931D6FF6ACDFD7D707BFDF8FE1E161668BC7E36C1DEDEDEDEC39FFF0E1C3309BCD48A55278FBEDB7B1B0B080542A854020C0EEF8757575F8E4934F505757
310
879FFDEC6748A7D378F6EC595E6A726EF622B1FF2101280293C9844F3FFD94FB83174511C16090F392C7E371180C06CE31E67038505555C5BCEF8510451167CF9EE51C7DF2F9AF5DBB86898909668B4422A8A8A88046A361B6603088C6C6466E1DB5B5B5A8A9A9D9721D1E8F0757AE5C61AF0EFBFAFA603299F0F5D75FA3AE
310
AE0EADADADF8F6DB6FF1D1471FE1C48913D0E974A8A9A9A16CC0328704A0484451CCCB9D8FC7E3052F80D9D959747575159D69B7BEBE8EEBD7AFE7D91D0E07A6A6A6D0D3D3C3FD4EB7DB0DB7DBCDAD4DFE1A4F22140A6D5A294842AD5673D18DB1580C4F9F3E454B4B0B2B08E2703870FCF871CCCFCFA3A9A9A9E0B910FB1F
310
CA05D805868686F0D65B6FA1BEBEBEA8F19BDDA51B1B1B1108045E6A1DA3A3A33870E0002A2B2B59D65F369BC5CACA0A1C0E07BABABAA056ABE176BB313131019BCD86F1F171F67D411060B55AB7CD1024CA0BDA01EC0079D49B46A3814EA7E36C994C063535359C4D626A6A0ACDCDCD3871E20452A914565656B0B8B80895
310
4A85783C8E6030B8A513CDE3F170C13FF2F90D06030441C85B9B56AB85DBEDCE4B325A5A5A8220082C8027994C2293C920140AC16834E2F4E9D388C7E3F0F97C482693E8E9E9413018443018C4F7BEF73D166F00008140807302CA7D1F4479400250243E9F8F7BFF6E341AA1D7EBB9029F7EBF1F1F7FFC31779148643219CC
310
CFCF637E7E1E0070ECD831963DA8D168E0743AE172B9200802028100161616006C24ED582C167627CE5D4747470792C9645E11CE5FFEF297181919C913806C368B5028C41C7CC78E1D6375FD542A15EAEBEBE1703870F4E8517CFBEDB7B873E70E1A1A1AD0DFDF8F7038CC852BCBC388818D470F797A31B1FF21012892F6F6
310
76EE2E5B5353039FCFC7DD014551C4EAEA2A060606D8DDD0E3F1E02F7FF90B4E9F3ECDB6F6070E1CE0B6D6A9548A73ECB5B4B4C0E97462686808070F1EE48A72B6B7B7731775229180C964E2D6F1E2C50BACADADA1BEBE9E25F7984C264C4D4DC1E170305F447D7D3D17BE9BC964D8DD1ED80803EEEDEDC5F0F030161616F2
310
EEF0B90E4F7202961F240045B2BEBE9EF7C7BEB4B4C4DDEDA50B606A6A8A8D5D5A5AC29B6FBE89070F1EB06DFC56D17A121313131004015D5D5D0887C39C732E771D6EB71B7ABD3ECF0600D3D3D3EC77565757E3A73FFD29AE5FBF8EA1A121001B8F121E8F67CB75CCCDCD616E6E8E9536970A8F12AF0F2400BB402C16DBF1
310
77B2D9EC2B8FAB0F87C325E5EC6FE5F4CB66B35C3250555555C96B23F606128022C9AD7F27D5D693DBE4DE7BC96E369B71F7EE5DEE11E2658A71E4AE43144544A3D13C67A4F433C96E301870FFFE7D180C0666ABABAB2B690D121313135C79327A3B507E900014C18B172FF08B5FFC02914864DB7115151548A5523874E810
310
77673C72E448DE588D4683172F5EEC781D3D3D3D052F5C8D4603954A8573E7CE15149AAAAAAA6DD7B1BCBC0C411038BF83247E4D4D4D686F6F67F69A9A1A7CF6D967C59C0AB14F200128829A9A1A5CBA7469CF5F73F5F5F5E1C2850B5CD49F20081004815DE856AB158F1F3F466B6B2BDBEEDB6C363C7CF8102E978B6500AA
310
542A442211188D46369F5400543EFFFBEFBF8FDFFFFEF7DCEE46F27588A2484EC0328704A008542A15C2E1F09E67C3C562314422112E26C0EBF5C2E7F331DBE1C387118BC5100C0699CDEBF5B2C83EE942961C85F2D798924D3EFFC0C0C0777B52C49E42024094CCDADA1AF7FAB1A2A2620F57439402094099A1D168505D5D
310
CDD9F47A3DB349A9BC068381D9A40B53FE3DBD5E8F6432C9D9A4ADBFDCB65D33D2B9B9392EBC597ABD48940F240025D2DFDF8FC78F1F63717171DB713FFEF18F0B3AC63A3A3A50515191D7857733969797B977F752869F648BC5628846A3C866B3CCE6F7FBF1DE7BEFE1E1C387CC6BBFB4B4848585853C271E00AE3BF0764D
310
515D2E17178178FCF8F1A2BA1B11FB07128012B973E70EF3866FC73FFFF9CF8263C6C6C638C7DB76188D464E74F47A3D56575759B55F97CBC5D283A5716D6D6DF8FBDFFF0EBBDDCE7511AEAEAEE6E6927E26CF5ACCDD6DE422CF5FA0D660E5070940891473F1031BC5440AB15927E0AD9037010136428D67666698CD62B140
310
14452C2F2F339BC7E361453EE44E408D46C339FC2427A07C7E51A43F91D719FABF4B94CCF2F232E704A41D40F941025066C823F9808D70DC9A9A1A16A8E3743AE1F3F9E0703898CD6AB502D8483292CA9AD96C362C2E2E727349C542E4B6AD3CFB6EB79BCB7990A05880F28204A0CCD8ACBAEF66C7B76EDDCAB37DF3CD375B
310
7E6F2BB6CA4750ABD5E8E8E8C8AB0C545757C7653A12FB1B128032A3BBBB9B6BFED9DCDC8C6834CA9C719D9D9DF8EF7FFF8BCECE4EE6C13F72E408BEFCF24BB4B4B4B070668BC5824824C2651A4AE5C0E5F3B7B5B571E5C6247EFBDBDFBEFA9323761D12803223B73188C7E3E11A83582C160882C0DA834B630441C0E4E424
310
73024A29C9B94D46726D9B754106809FFFFCE7181D1DC5F4F434677FE38D37100C0671EFDEBD973D5562172001204A62757515D3D3D35C01D2E9E9698C8F8FC3E170ECE1CA889D400250221A8DA628AF7731D580552A15D46A7551F3C9537C818D77F652914F606307904EA761B158984DABD542A3D170EDC1CD66739E13D0
310
603000E09D802A950A3FF9C94FF0BBDFFD0EC04642D2C1830759EA6F6E32D0575F7D450250465055E01279FBEDB759E4DC76BCFFFEFB05C7747474A0A7A7A7A8DF2BD51494B0D96CDC36DDEFF7636565851BF7E4C913BCF3CE3B5C459FE9E9E9BCB9AAAAAAF28A7A5CBE7C194EA7131F7EF8213EFCF043BCFBEEBB45953727
310
CA03DA019448EEEBAFADB870E142C1313B89A1976A114A783C1E241209F6DC7EF8F06154555571413E5EAF97351A917C00EDEDED30180CDC5C5234A2DC07D0DEDE8E3FFDE94F78FEFC39808DC8C0ED3A0613E505098042D92CF2B0589B44EE2344AE4390D8FF90001025230802E7042CA5F621B1B790009448434303E6E6E6
310
B67C4DB6156AB51A4EA713535353DB8E6B6C6CC4DCDC5C9E63309D4EE739E9E40D4AB45A6D9E63706D6D0D8944022D2D2DCC09683018A0D168B8B9A45783725B5D5D1DE2F138B3E9F57A5669C862B15045A032879C8025E270380A66CA6D86C16028AA4598D56ADD74FEDCAABEA22872093B2B2B2B585F5FE7C685C3E1BC84
310
235114B9B45F69EEDCF98D462337FF4E129788FD0FED004AE4EBAFBF2EE97B914804B76FDF2E384E1EB62B27D771E7F178B0B2B2C239010D06039735E8F57A59B7217936A03C6350B2017C49B0DC80A1EAEA6A1C3A7468CB3666447941024094CCCCCC0CF7B8303C3CBC87AB214A8104802819B3D9CC3901552AD54B773026
310
76170140B6E02885D3D0D080DEDE5EAE8FDE5EE0F17810894458DD3F60E3B95DA3D1B0DA7D269309C3C3C370B95CEC59DD683462646484B3A5D36944A351CECF20153991A70087C361984C2636BF288A585F5FC7FCFC3CC6C7C7B94708291250FA97D8FFD00EA008D2E9342291C89EBFE68A46A350ABD5B0D96CCC76EFDE3D
310
B85C2ED62C249BCD221C0EA3ADAD8D452AC6623184C3611C3A74883DD34F4F4F63797999AB09286DE15D2E17B3D9ED760C0E0E72E7DED8D8F8DD9D24B1AB9000144165652526262638E7D85E60B7DBE1F7FB71E9D22566F37ABD181C1CE4FA024C4E4E221A8D729180939393F8E31FFF98D717E0A38F3E62734936791DC35F
310
FDEA57181E1EE61A83C863FDED763BFB6FA91331513E90001025333131C13D2E7CF9E5977BB81AA2144800889271381CE8EAEA62C7068381E51C10E50109408934353521140A71D57336A3A3A3A3E0EB31B3D90C51148B6A3DA6D7EBB9429CC964124EA793BD8EABAAAAC2D3A74FD1DCDCCC6C3A9D0E2E970B76BB9D452E86
310
C3610402016E2EE95CE4AFF6B63B3FBD5E4F9180650E09408968B5DAA24A664B65B6B643A3D130E75C2172438FB3D92CF7DDF5F57564B359643219E6B94FA552A8A8A8E03AFCA6D3E9BCCEC19B75012AB58D39511E90009448B1852F8B8918DC499BF0542A9577D7CD6D0E5A5959894020C03901A55D88DC09683299B8B936
310
8B04DCACB5B97C2DF2DD02517E502E005132814080E50FACADAD61707070AF9744EC101200A264A4EC42E9438542CA0F7A0428330441E01C77DF7CF30D1A1B1B994DAD56E3E1C387E8ECEC64DBF344228168348A93274FB2EFCDCDCDE539014747470180B36D97F423080257CDA8A1A1E1E54E8ED8754800CA0CA970A784DD
310
6EE7D27A2D160BB45A2D8C462373E0D9ED7668B55A68B55A249349364F6E3A70EEF15636E2F58104A0CC88C56278F4E8113BDECC09A8D3E9303E3ECE3901753A1D0607073927A056ABDDD40928B76DE7048CC562DC6EA1D83719C4FE817C0044C9C8C38301607272728F5642940AED00CA8C8A8A0A389D4ECE565555C56C76
310
BB1D3E9F0F56AB9595EF9632FE1A1A1AD82344555515565656B8B9A4B05EB94D14451C397284ED0A9C4E27EC763BE6E6E6D0D8D898F74A52AA1E4C94072400253230308067CF9E154C113E7FFE3C2E5EBCB8ED9803070E4014C5A20A6ACCCCCC70D980D96C16C96492A5088F8D8D211C0E63767696D9EEDCB983B367CFE2EE
310
DDBBCC363D3D8D7038CCE5F34B42210F36BA7EFD3A7A7B7BD9B1CD6683C562617D0789F28604A044FEF39FFF1435AED0C50F6C5CB4C5E2F178B8E61DF1789CAB31E872B9303B3B8B37DE7883E5F7BB5C2E7CF6D967E8EFEF67369BCD866030C8DDED17171701F03B80898909DCBB778FF50C8846A379750389F28504A0CC08
310
8542B87BF72E3BDECC09A856AB313434C43901D56A356EDEBC99970EBC9913F0C183079C4D1E55286F0C120A85382760341A7DE5E74B7CB79013902899DC3C01CA1B283F6807506658AD562EFE7E6D6D0D6EB79BD95A5B5B313A3A8AEEEE6E666B6969C1EDDBB771F2E44996DD974EA7F30281A4A01FB96D7272128D8D8D6C
310
AECACA4A5656ACAEAE8EB2015F03B2F4D9FED3DADA9A75BBDD9CEDECD9B35987C3B1E3B94C2653F6D4A95305C7BDF5D65B599BCDC6D936FBDE891327B266B379C7EB70381CD981818182E3060606F2CED3EBF566BD5E6FB6B5B535CF2EFF973EFBFF433B8012F9C73FFE51D2F7A2D168518D456FDDBAB5A9BDA7A787EBF2AB
310
D16870E0C001E6C0EBE9E9C18D1B37D0D5D58599991900406F6F2FFEF5AF7FA1A5A505CBCBCB00369A8C0602814DDB83CBE70F0402703A9DEC15A1D96C467575755E0C00519E90009419F1789CABC4EBF178B0B4B4C46C52EBAFD9D95966F3783C00363CFAD2859BDBF003F8BF1330D7269FBFBABA1A6D6D6D00365E25CA1F
310
1782C1E02B3C5362372001204AA2A3A303A150286F3773FEFC79CCCFCFEFD1AA889D427D018AA0B5B5158220EC7955E053A74EE1C58B17B05AADCCB6B0B000B3D90CAD560B602312F0D2A54BE8EBEB63013DB5B5B5B87CF932FAFBFB5932503C1E472010E0CA824B414DF2AABFCF9F3F47636323AB6CA4D56AA1D16890CD66
310
B72C17363E3E8E8989895777E2C4770609401188A208B7DB9DD7A977B7110401A228EEF93AD2E974C1EEC64479400240100A8602810842C190001084822101200805430240100A86048020140C09004128181200825030240004A16048000842C190001084822101200805430240100A86048020140C090041281812008250
310
30240004A16048000842C190001084822101200805430240100A86048020140C09004128181200825030240004A16048000842C190001084822101200805430240100A86048020140C09004128181200825030240004A16048000842C190001084822101200805430240100A86048020140C09004128181200825030240004
310
A16048000842C190001084822101200805430240100A86048020140C09004128181200825030240004A16048000842C190001084822101200805430240100A86048020140C09004128181200825030240004A16048000842C1FC0F7C88A512CD0184AB0000000049454E44AE426082
  0
ENDSEC
  0
EOF
