<?xml version="1.0" encoding="UTF-8" standalone="no"?>
<!-- Generator: Adobe Illustrator 26.0.2, SVG Export Plug-In . SVG Version: 6.00 Build 0)  -->

<svg
   version="1.1"
   x="0px"
   y="0px"
   viewBox="0 0 1889.7638 755.90547"
   xml:space="preserve"
   id="svg2217"
   sodipodi:docname="corne-plate.svg"
   width="500mm"
   height="200mm"
   inkscape:version="1.3 (0e150ed, 2023-07-21)"
   xmlns:inkscape="http://www.inkscape.org/namespaces/inkscape"
   xmlns:sodipodi="http://sodipodi.sourceforge.net/DTD/sodipodi-0.dtd"
   xmlns="http://www.w3.org/2000/svg"
   xmlns:svg="http://www.w3.org/2000/svg"><defs
   id="defs2221" /><sodipodi:namedview
   id="namedview2219"
   pagecolor="#ffffff"
   bordercolor="#666666"
   borderopacity="1.0"
   inkscape:pageshadow="2"
   inkscape:pageopacity="0.0"
   inkscape:pagecheckerboard="0"
   showgrid="false"
   units="mm"
   width="500mm"
   inkscape:zoom="2"
   inkscape:cx="1244"
   inkscape:cy="414"
   inkscape:window-width="3616"
   inkscape:window-height="1955"
   inkscape:window-x="20"
   inkscape:window-y="86"
   inkscape:window-maximized="0"
   inkscape:current-layer="layer2"
   inkscape:document-units="mm"
   inkscape:showpageshadow="2"
   inkscape:deskcolor="#d1d1d1"
   showguides="true" />&#10;<style
   type="text/css"
   id="style2">&#10;	.st0{fill:none;stroke:#0000FF;stroke-width:1.000000e-03;stroke-miterlimit:10;}&#10;	.st1{fill:none;stroke:#FF0000;stroke-width:3.000000e-03;stroke-linecap:round;stroke-linejoin:round;stroke-miterlimit:10;}&#10;	.st2{fill:none;stroke:#FF0000;stroke-width:3.000000e-03;stroke-miterlimit:11.339;}&#10;	.st3{display:none;}&#10;	.st4{display:inline;}&#10;	.st5{fill:#FF0000;}&#10;	.st6{fill:#0000FF;}&#10;	.st7{fill:#336699;}&#10;	.st8{fill:#00FFFF;}&#10;	.st9{fill:#00FF00;}&#10;	.st10{fill:none;stroke:#000000;stroke-miterlimit:10;}&#10;</style>&#10;&#10;&#10;&#10;&#10;&#10;&#10;<g
   inkscape:groupmode="layer"
   id="layer2"
   inkscape:label="CUT2"
   inkscape:highlight-color="#0000ff"
   style="display:inline"><path
     style="display:inline;fill:none;stroke:#0000ff;stroke-width:0.132283;stroke-dasharray:none;stroke-opacity:1"
     d="m 476.60439,45.964252 4e-5,-5.21784 c 3e-5,-0.31843 3e-5,-0.65011 -0.0548,-0.99909 -0.0456,-0.29096 -0.13409,-0.62414 -0.31676,-0.97588 -0.22221,-0.42785 -0.52731,-0.77423 -0.83432,-1.03143 -0.33369,-0.27955 -0.69644,-0.48058 -1.09748,-0.60616 -0.52626,-0.16481 -1.01698,-0.16481 -1.4762,-0.1672 l -68.22011,-0.002 -1.7e-4,-5.22891 c -1.6e-4,-0.3195 -1.6e-4,-0.65117 -0.055,-1.00016 -0.0457,-0.29096 -0.13409,-0.62414 -0.31676,-0.97587 -0.22221,-0.42786 -0.52731,-0.77424 -0.83432,-1.03144 -0.33369,-0.27955 -0.69644,-0.48057 -1.09748,-0.60616 -0.52626,-0.1648 -1.01698,-0.1648 -1.47625,-0.16613 l -68.22006,-10e-4 -1.7e-4,-5.21119 c -1.6e-4,-0.3218 -1.6e-4,-0.65347 -0.055,-1.00245 -0.0457,-0.29096 -0.13409,-0.62414 -0.31676,-0.97588 -0.22221,-0.42786 -0.52731,-0.77423 -0.83432,-1.03143 -0.33369,-0.27955 -0.69644,-0.48058 -1.09748,-0.60617 -0.52626,-0.1648 -1.01698,-0.1648 -1.47625,-0.16384 l -71.24405,-2e-5 c -0.32059,-9.8e-4 -0.65227,-9.8e-4 -1.00125,0.0538 -0.29096,0.0457 -0.62414,0.1341 -0.97588,0.31677 -0.42785,0.2222 -0.77423,0.5273 -1.03143,0.83431 -0.27955,0.33369 -0.48058,0.69644 -0.60616,1.09748 -0.16481,0.52627 -0.16481,1.01699 -0.16505,1.4774 l -2.4e-4,5.2212 -68.22,-9.4e-4 c -0.32058,-9.4e-4 -0.65226,-9.4e-4 -1.00124,0.0539 -0.29096,0.0457 -0.62414,0.1341 -0.97588,0.31677 -0.42785,0.2222 -0.77423,0.5273 -1.03143,0.83431 -0.27955,0.33369 -0.48058,0.69644 -0.60616,1.09748 -0.16481,0.52627 -0.16481,1.01699 -0.16505,1.47736 l -2.4e-4,14.22116 -140.159994,-7.7e-4 c -0.32058,-7.7e-4 -0.65225,-7.7e-4 -1.00123,0.054 -0.29096,0.0457 -0.62414,0.1341 -0.97587,0.31677 -0.42786,0.2222 -0.77423,0.5273 -1.03143,0.83431 -0.27955,0.33369 -0.48058,0.69644 -0.60616,1.09748 -0.16481,0.52627 -0.16481,1.01698 -0.16456,1.47719 l 1e-5,215.242348 c -2.3e-4,0.32194 -2.3e-4,0.65362 0.0545,1.0026 0.0457,0.29096 0.13409,0.62414 0.31677,0.97588 0.2222,0.42785 0.5273,0.77423 0.83431,1.03143 0.33369,0.27955 0.69644,0.48058 1.09748,0.60616 0.52627,0.16481 1.01698,0.16481 1.47617,0.16369 l 213.647974,-0.001 34.92419,61.1198 c 0.15628,0.27298 0.32314,0.56498 0.56602,0.84391 0.30267,0.34759 0.6116,0.54844 0.86364,0.67662 0.52122,0.26503 1.02265,0.31753 1.45905,0.3614 l 141.7161,14.81827 65.00071,28.78064 c 0.29316,0.13042 0.59644,0.26469 0.93772,0.35589 0.28453,0.076 0.62499,0.13002 1.02057,0.10542 0.48118,-0.03 0.92142,-0.16873 1.28088,-0.34534 0.39071,-0.19195 0.72138,-0.44227 0.99857,-0.75813 0.36374,-0.4145 0.5624,-0.86321 0.74832,-1.2808 l 43.5362,-98.33784 c 0.0965,-0.218 0.19934,-0.45025 0.26144,-0.74413 0.0621,-0.29387 0.0621,-0.54786 0.0621,-0.78591 l 2e-5,-223.827648 c 2e-5,-0.31843 2e-5,-0.65011 -0.0548,-0.99909 -0.0457,-0.29096 -0.13409,-0.62414 -0.31676,-0.97588 -0.22221,-0.42785 -0.52731,-0.77423 -0.83432,-1.03143 -0.33369,-0.27955 -0.69644,-0.48058 -1.09748,-0.60616 -0.52626,-0.16481 -1.01698,-0.16481 -1.4762,-0.1672 z"
     id="path221-7"
     sodipodi:nodetypes="ccsssscccsssscccssssccsssscccsssscccssssccsssscccsscccssssccsccsssscc" /><path
     style="display:inline;fill:none;stroke:#0000ff;stroke-opacity:1;stroke-width:0.132283;stroke-dasharray:none"
     d="m 476.6044,405.01936 4e-5,-5.21784 c 3e-5,-0.31843 3e-5,-0.65011 -0.0548,-0.99909 -0.0456,-0.29096 -0.13409,-0.62414 -0.31676,-0.97588 -0.22221,-0.42785 -0.52731,-0.77423 -0.83432,-1.03143 -0.33369,-0.27955 -0.69644,-0.48058 -1.09748,-0.60616 -0.52626,-0.16481 -1.01698,-0.16481 -1.4762,-0.1672 l -68.22011,-0.002 -1.7e-4,-5.22891 c -1.6e-4,-0.3195 -1.6e-4,-0.65117 -0.055,-1.00016 -0.0457,-0.29096 -0.13409,-0.62414 -0.31676,-0.97587 -0.22221,-0.42786 -0.52731,-0.77424 -0.83432,-1.03144 -0.33369,-0.27955 -0.69644,-0.48057 -1.09748,-0.60616 -0.52626,-0.1648 -1.01698,-0.1648 -1.47625,-0.16613 l -68.22006,-0.001 -1.7e-4,-5.21119 c -1.6e-4,-0.3218 -1.6e-4,-0.65347 -0.055,-1.00245 -0.0457,-0.29096 -0.13409,-0.62414 -0.31676,-0.97588 -0.22221,-0.42786 -0.52731,-0.77423 -0.83432,-1.03143 -0.33369,-0.27955 -0.69644,-0.48058 -1.09748,-0.60617 -0.52626,-0.1648 -1.01698,-0.1648 -1.47625,-0.16384 l -71.24405,-2e-5 c -0.32059,-9.8e-4 -0.65227,-9.8e-4 -1.00125,0.0538 -0.29096,0.0457 -0.62414,0.1341 -0.97588,0.31677 -0.42785,0.2222 -0.77423,0.5273 -1.03143,0.83431 -0.27955,0.33369 -0.48058,0.69644 -0.60616,1.09748 -0.16481,0.52627 -0.16481,1.01699 -0.16505,1.4774 l -2.4e-4,5.2212 -68.22,-9.4e-4 c -0.32058,-9.4e-4 -0.65226,-9.4e-4 -1.00124,0.0539 -0.29096,0.0457 -0.62414,0.1341 -0.97588,0.31677 -0.42785,0.2222 -0.77423,0.5273 -1.03143,0.83431 -0.27955,0.33369 -0.48058,0.69644 -0.60616,1.09748 -0.16481,0.52627 -0.16481,1.01699 -0.16505,1.47736 l -2.4e-4,14.22116 -140.160004,-7.7e-4 c -0.32058,-7.7e-4 -0.65225,-7.7e-4 -1.00123,0.054 -0.29096,0.0457 -0.62414,0.1341 -0.97587,0.31677 -0.42786,0.2222 -0.77423,0.5273 -1.03143,0.83431 -0.27955,0.33369 -0.48058,0.69644 -0.60616,1.09748 -0.16481,0.52627 -0.16481,1.01698 -0.16456,1.47719 l 1e-5,215.24234 c -2.3e-4,0.32194 -2.3e-4,0.65362 0.0545,1.0026 0.0457,0.29096 0.13409,0.62414 0.31677,0.97588 0.2222,0.42785 0.5273,0.77423 0.83431,1.03143 0.33369,0.27955 0.69644,0.48058 1.09748,0.60616 0.52627,0.16481 1.01698,0.16481 1.47617,0.16369 l 213.647984,-10e-4 34.92419,61.1198 c 0.15628,0.27298 0.32314,0.56498 0.56602,0.84391 0.30267,0.34759 0.6116,0.54844 0.86364,0.67662 0.52122,0.26503 1.02265,0.31753 1.45905,0.3614 l 141.7161,14.81827 65.00071,28.78064 c 0.29316,0.13042 0.59644,0.26469 0.93772,0.35589 0.28453,0.076 0.62499,0.13002 1.02057,0.10542 0.48118,-0.03 0.92142,-0.16873 1.28088,-0.34534 0.39071,-0.19195 0.72138,-0.44227 0.99857,-0.75813 0.36374,-0.4145 0.5624,-0.86321 0.74832,-1.2808 l 43.5362,-98.33784 c 0.0965,-0.218 0.19934,-0.45025 0.26144,-0.74413 0.0621,-0.29387 0.0621,-0.54786 0.0621,-0.78591 l 2e-5,-223.82764 c 2e-5,-0.31843 2e-5,-0.65011 -0.0548,-0.99909 -0.0457,-0.29096 -0.13409,-0.62414 -0.31676,-0.97588 -0.22221,-0.42785 -0.52731,-0.77423 -0.83432,-1.03143 -0.33369,-0.27955 -0.69644,-0.48058 -1.09748,-0.60616 -0.52626,-0.16481 -1.01698,-0.16481 -1.4762,-0.1672 z"
     id="path221-7-2"
     sodipodi:nodetypes="ccsssscccsssscccssssccsssscccsssscccssssccsssscccsscccssssccsccsssscc" /><path
     style="display:inline;fill:none;stroke:#0000ff;stroke-opacity:1;stroke-width:0.132283;stroke-dasharray:none"
     d="m 1100.2267,45.964252 v -5.21784 c 0,-0.31843 0,-0.65011 -0.055,-0.99909 -0.046,-0.29096 -0.1341,-0.62414 -0.3167,-0.97588 -0.2223,-0.42785 -0.5274,-0.77423 -0.8344,-1.03143 -0.3337,-0.27955 -0.6964,-0.48058 -1.0974,-0.60616 -0.5263,-0.16481 -1.017,-0.16481 -1.4762,-0.1672 l -68.2202,-0.002 -10e-5,-5.22891 c -2e-4,-0.3195 -2e-4,-0.65117 -0.055,-1.00016 -0.046,-0.29096 -0.1341,-0.62414 -0.3168,-0.97587 -0.2222,-0.42786 -0.5273,-0.77424 -0.8343,-1.03144 -0.3337,-0.27955 -0.6964,-0.48057 -1.0975,-0.60616 -0.5262,-0.1648 -1.017,-0.1648 -1.4762,-0.16613 l -68.22015,-10e-4 -1.7e-4,-5.21119 c -1.6e-4,-0.3218 -1.6e-4,-0.65347 -0.055,-1.00245 -0.0457,-0.29096 -0.13409,-0.62414 -0.31676,-0.97588 -0.22221,-0.42786 -0.52731,-0.77423 -0.83432,-1.03143 -0.33369,-0.27955 -0.69644,-0.48058 -1.09748,-0.60617 -0.52626,-0.1648 -1.01698,-0.1648 -1.47625,-0.16384 l -71.24405,-2e-5 c -0.32059,-9.8e-4 -0.65227,-9.8e-4 -1.00125,0.0538 -0.29096,0.0457 -0.62414,0.1341 -0.97588,0.31677 -0.42785,0.2222 -0.77423,0.5273 -1.03143,0.83431 -0.27955,0.33369 -0.48058,0.69644 -0.60616,1.09748 -0.16481,0.52627 -0.16481,1.01699 -0.16505,1.4774 l -2.4e-4,5.2212 -68.22,-9.4e-4 c -0.32058,-9.4e-4 -0.65226,-9.4e-4 -1.00124,0.0539 -0.29096,0.0457 -0.62414,0.1341 -0.97588,0.31677 -0.42785,0.2222 -0.77423,0.5273 -1.03143,0.83431 -0.27955,0.33369 -0.48058,0.69644 -0.60616,1.09748 -0.16481,0.52627 -0.16481,1.01699 -0.16505,1.47736 l -2.4e-4,14.22116 -140.16,-7.7e-4 c -0.32058,-7.7e-4 -0.65225,-7.7e-4 -1.00123,0.054 -0.29096,0.0457 -0.62414,0.1341 -0.97587,0.31677 -0.42786,0.2222 -0.77423,0.5273 -1.03143,0.83431 -0.27955,0.33369 -0.48058,0.69644 -0.60616,1.09748 -0.16481,0.52627 -0.16481,1.01698 -0.16456,1.47719 l 10e-6,215.242348 c -2.3e-4,0.32194 -2.3e-4,0.65362 0.0545,1.0026 0.0457,0.29096 0.13409,0.62414 0.31677,0.97588 0.2222,0.42785 0.5273,0.77423 0.83431,1.03143 0.33369,0.27955 0.69644,0.48058 1.09748,0.60616 0.52627,0.16481 1.01698,0.16481 1.47617,0.16369 l 213.64798,-0.001 34.92419,61.1198 c 0.15628,0.27298 0.32314,0.56498 0.56602,0.84391 0.30267,0.34759 0.6116,0.54844 0.86364,0.67662 0.52122,0.26503 1.02265,0.31753 1.45905,0.3614 l 141.71612,14.81827 65.0007,28.78064 c 0.2932,0.13042 0.5965,0.26469 0.9378,0.35589 0.2845,0.076 0.625,0.13002 1.0205,0.10542 0.4812,-0.03 0.9214,-0.16873 1.2809,-0.34534 0.3907,-0.19195 0.7214,-0.44227 0.9986,-0.75813 0.3637,-0.4145 0.5624,-0.86321 0.7483,-1.2808 l 43.5362,-98.33784 c 0.096,-0.218 0.1993,-0.45025 0.2614,-0.74413 0.062,-0.29387 0.062,-0.54786 0.062,-0.78591 V 49.747242 c 10e-5,-0.31843 10e-5,-0.65011 -0.055,-0.99909 -0.046,-0.29096 -0.134,-0.62414 -0.3167,-0.97588 -0.2222,-0.42785 -0.5273,-0.77423 -0.8343,-1.03143 -0.3337,-0.27955 -0.6965,-0.48058 -1.0975,-0.60616 -0.5263,-0.16481 -1.017,-0.16481 -1.4762,-0.1672 z"
     id="path221-7-3"
     sodipodi:nodetypes="ccsssscccsssscccssssccsssscccsssscccssssccsssscccsscccssssccsccsssscc" /><path
     style="display:inline;fill:none;stroke:#0000ff;stroke-opacity:1;stroke-width:0.132283;stroke-dasharray:none"
     d="m 1100.2264,405.01937 10e-5,-5.21785 c 0,-0.31842 0,-0.6501 -0.055,-0.99909 -0.046,-0.29096 -0.1341,-0.62414 -0.3168,-0.97588 -0.2222,-0.42785 -0.5273,-0.77423 -0.8343,-1.03143 -0.3337,-0.27955 -0.6965,-0.48058 -1.0975,-0.60616 -0.5263,-0.16481 -1.017,-0.16481 -1.4762,-0.1672 l -68.2201,-0.002 -2e-4,-5.22891 c -10e-5,-0.3195 -10e-5,-0.65116 -0.055,-1.00016 -0.046,-0.29095 -0.1341,-0.62414 -0.3167,-0.97586 -0.2222,-0.42787 -0.5273,-0.77425 -0.8344,-1.03144 -0.3336,-0.27955 -0.6964,-0.48057 -1.0974,-0.60616 -0.5263,-0.1648 -1.017,-0.1648 -1.4763,-0.16613 l -68.22005,-10e-4 -1.7e-4,-5.21119 c -1.6e-4,-0.3218 -1.6e-4,-0.65347 -0.055,-1.00245 -0.0457,-0.29096 -0.13409,-0.62414 -0.31676,-0.97588 -0.22221,-0.42786 -0.52731,-0.77423 -0.83432,-1.03143 -0.33369,-0.27955 -0.69644,-0.48058 -1.09748,-0.60617 -0.52626,-0.1648 -1.01698,-0.1648 -1.47625,-0.16384 l -71.24405,-2e-5 c -0.32059,-9.9e-4 -0.65227,-9.9e-4 -1.00125,0.0538 -0.29096,0.0457 -0.62414,0.1341 -0.97588,0.31677 -0.42785,0.2222 -0.77423,0.5273 -1.03143,0.83431 -0.27955,0.33369 -0.48058,0.69644 -0.60616,1.09748 -0.16481,0.52627 -0.16481,1.01699 -0.16505,1.4774 l -2.4e-4,5.2212 -68.22,-9.4e-4 c -0.32058,-9.4e-4 -0.65226,-9.4e-4 -1.00124,0.0539 -0.29096,0.0457 -0.62414,0.1341 -0.97588,0.31677 -0.42785,0.2222 -0.77423,0.5273 -1.03143,0.83431 -0.27955,0.33369 -0.48058,0.69644 -0.60616,1.09748 -0.16481,0.52627 -0.16481,1.01699 -0.16505,1.47736 l -2.4e-4,14.22116 -140.16,-7.7e-4 c -0.32058,-7.7e-4 -0.65225,-7.7e-4 -1.00123,0.054 -0.29096,0.0457 -0.62414,0.1341 -0.97587,0.31677 -0.42786,0.2222 -0.77423,0.5273 -1.03143,0.83431 -0.27955,0.33369 -0.48058,0.69644 -0.60616,1.09748 -0.16481,0.52627 -0.16481,1.01698 -0.16456,1.47719 l 10e-6,215.24234 c -2.3e-4,0.32194 -2.3e-4,0.65362 0.0545,1.0026 0.0457,0.29096 0.13409,0.62414 0.31677,0.97588 0.2222,0.42785 0.5273,0.77423 0.83431,1.03143 0.33369,0.27955 0.69644,0.48058 1.09748,0.60616 0.52627,0.16481 1.01698,0.16481 1.47617,0.16369 l 213.64798,-10e-4 34.92419,61.1198 c 0.15628,0.27298 0.32314,0.56498 0.56602,0.84391 0.30267,0.34759 0.6116,0.54844 0.86364,0.67662 0.52122,0.26503 1.02265,0.31753 1.45905,0.3614 l 141.71612,14.81827 65.0007,28.78064 c 0.2932,0.13042 0.5964,0.26469 0.9377,0.35589 0.2845,0.076 0.625,0.13002 1.0206,0.10542 0.4812,-0.03 0.9214,-0.16873 1.2809,-0.34534 0.3907,-0.19195 0.7213,-0.44227 0.9985,-0.75813 0.3638,-0.4145 0.5624,-0.86321 0.7483,-1.2808 l 43.5362,-98.33784 c 0.097,-0.218 0.1994,-0.45025 0.2615,-0.74413 0.062,-0.29387 0.062,-0.54786 0.062,-0.78591 V 408.80236 c 0,-0.31843 0,-0.65011 -0.055,-0.99909 -0.046,-0.29096 -0.1341,-0.62414 -0.3168,-0.97588 -0.2222,-0.42785 -0.5273,-0.77423 -0.8343,-1.03143 -0.3337,-0.27955 -0.6964,-0.48058 -1.0975,-0.60616 -0.5262,-0.16481 -1.0169,-0.16481 -1.4762,-0.1672 z"
     id="path221-7-2-4"
     sodipodi:nodetypes="ccsssscccsssscccssssccsssscccsssscccssssccsssscccsscccssssccsccsssscc" /><path
     style="display:inline;fill:none;stroke:#0000ff;stroke-opacity:1;stroke-width:0.132283;stroke-dasharray:none"
     d="m 1761.6443,45.964252 v -5.21784 c 0,-0.31843 0,-0.65011 -0.055,-0.99909 -0.046,-0.29096 -0.1341,-0.62414 -0.3167,-0.97588 -0.2223,-0.42785 -0.5274,-0.77423 -0.8344,-1.03143 -0.3337,-0.27955 -0.6964,-0.48058 -1.0974,-0.60616 -0.5263,-0.16481 -1.017,-0.16481 -1.4762,-0.1672 l -68.2202,-0.002 -10e-5,-5.22891 c -2e-4,-0.3195 -2e-4,-0.65117 -0.055,-1.00016 -0.046,-0.29096 -0.1341,-0.62414 -0.3168,-0.97587 -0.2222,-0.42786 -0.5273,-0.77424 -0.8343,-1.03144 -0.3337,-0.27955 -0.6964,-0.48057 -1.0975,-0.60616 -0.5262,-0.1648 -1.017,-0.1648 -1.4762,-0.16613 l -68.2202,-10e-4 -10e-5,-5.21119 c -2e-4,-0.3218 -2e-4,-0.65347 -0.055,-1.00245 -0.046,-0.29096 -0.1341,-0.62414 -0.3168,-0.97588 -0.2222,-0.42786 -0.5273,-0.77423 -0.8343,-1.03143 -0.3337,-0.27955 -0.6965,-0.48058 -1.0975,-0.60617 -0.5263,-0.1648 -1.017,-0.1648 -1.4762,-0.16384 l -71.2441,-2e-5 c -0.3206,-9.8e-4 -0.6523,-9.8e-4 -1.0012,0.0538 -0.291,0.0457 -0.6242,0.1341 -0.9759,0.31677 -0.4279,0.2222 -0.7743,0.5273 -1.0315,0.83431 -0.2795,0.33369 -0.4805,0.69644 -0.6061,1.09748 -0.1648,0.52627 -0.1648,1.01699 -0.1651,1.4774 l -2e-4,5.2212 -68.22,-9.4e-4 c -0.3206,-9.4e-4 -0.6523,-9.4e-4 -1.0012,0.0539 -0.291,0.0457 -0.6242,0.1341 -0.9759,0.31677 -0.4279,0.2222 -0.7743,0.5273 -1.0315,0.83431 -0.2795,0.33369 -0.4805,0.69644 -0.6061,1.09748 -0.1648,0.52627 -0.1648,1.01699 -0.1651,1.47736 l -2e-4,14.22116 -140.16,-7.7e-4 c -0.3206,-7.7e-4 -0.6523,-7.7e-4 -1.0012,0.054 -0.291,0.0457 -0.6242,0.1341 -0.9759,0.31677 -0.4279,0.2222 -0.7742,0.5273 -1.0314,0.83431 -0.2796,0.33369 -0.4806,0.69644 -0.6062,1.09748 -0.1648,0.52627 -0.1648,1.01698 -0.1646,1.47719 l 10e-5,215.242348 c -3e-4,0.32194 -3e-4,0.65362 0.054,1.0026 0.046,0.29096 0.134,0.62414 0.3167,0.97588 0.2222,0.42785 0.5273,0.77423 0.8343,1.03143 0.3337,0.27955 0.6965,0.48058 1.0975,0.60616 0.5263,0.16481 1.017,0.16481 1.4762,0.16369 l 213.648,-0.001 34.9242,61.1198 c 0.1562,0.27298 0.3231,0.56498 0.566,0.84391 0.3026,0.34759 0.6116,0.54844 0.8636,0.67662 0.5212,0.26503 1.0227,0.31753 1.4591,0.3614 l 141.7161,14.81827 65.0007,28.78064 c 0.2932,0.13042 0.5965,0.26469 0.9378,0.35589 0.2845,0.076 0.625,0.13002 1.0205,0.10542 0.4812,-0.03 0.9214,-0.16873 1.2809,-0.34534 0.3907,-0.19195 0.7214,-0.44227 0.9986,-0.75813 0.3637,-0.4145 0.5624,-0.86321 0.7483,-1.2808 l 43.5362,-98.33784 c 0.096,-0.218 0.1993,-0.45025 0.2614,-0.74413 0.062,-0.29387 0.062,-0.54786 0.062,-0.78591 V 49.747242 c 10e-5,-0.31843 10e-5,-0.65011 -0.055,-0.99909 -0.046,-0.29096 -0.134,-0.62414 -0.3167,-0.97588 -0.2222,-0.42785 -0.5273,-0.77423 -0.8343,-1.03143 -0.3337,-0.27955 -0.6965,-0.48058 -1.0975,-0.60616 -0.5263,-0.16481 -1.017,-0.16481 -1.4762,-0.1672 z"
     id="path221-7-3-4"
     sodipodi:nodetypes="ccsssscccsssscccssssccsssscccsssscccssssccsssscccsscccssssccsccsssscc" /><path
     style="display:inline;fill:none;stroke:#0000ff;stroke-opacity:1;stroke-width:0.132283;stroke-dasharray:none"
     d="m 1761.644,405.01937 10e-5,-5.21785 c 0,-0.31842 0,-0.6501 -0.055,-0.99909 -0.046,-0.29096 -0.1341,-0.62414 -0.3168,-0.97588 -0.2222,-0.42785 -0.5273,-0.77423 -0.8343,-1.03143 -0.3337,-0.27955 -0.6965,-0.48058 -1.0975,-0.60616 -0.5263,-0.16481 -1.017,-0.16481 -1.4762,-0.1672 l -68.2201,-0.002 -2e-4,-5.22891 c -10e-5,-0.3195 -10e-5,-0.65116 -0.055,-1.00016 -0.046,-0.29095 -0.1341,-0.62414 -0.3167,-0.97586 -0.2222,-0.42787 -0.5273,-0.77425 -0.8344,-1.03144 -0.3336,-0.27955 -0.6964,-0.48057 -1.0974,-0.60616 -0.5263,-0.1648 -1.017,-0.1648 -1.4763,-0.16613 l -68.2201,-10e-4 -10e-5,-5.21119 c -2e-4,-0.3218 -2e-4,-0.65347 -0.055,-1.00245 -0.046,-0.29096 -0.1341,-0.62414 -0.3168,-0.97588 -0.2222,-0.42786 -0.5273,-0.77423 -0.8343,-1.03143 -0.3337,-0.27955 -0.6965,-0.48058 -1.0975,-0.60617 -0.5263,-0.1648 -1.017,-0.1648 -1.4762,-0.16384 l -71.2441,-2e-5 c -0.3206,-9.9e-4 -0.6523,-9.9e-4 -1.0012,0.0538 -0.291,0.0457 -0.6242,0.1341 -0.9759,0.31677 -0.4279,0.2222 -0.7743,0.5273 -1.0315,0.83431 -0.2795,0.33369 -0.4805,0.69644 -0.6061,1.09748 -0.1648,0.52627 -0.1648,1.01699 -0.1651,1.4774 l -2e-4,5.2212 -68.22,-9.4e-4 c -0.3206,-9.4e-4 -0.6523,-9.4e-4 -1.0012,0.0539 -0.291,0.0457 -0.6242,0.1341 -0.9759,0.31677 -0.4279,0.2222 -0.7743,0.5273 -1.0315,0.83431 -0.2795,0.33369 -0.4805,0.69644 -0.6061,1.09748 -0.1648,0.52627 -0.1648,1.01699 -0.1651,1.47736 l -2e-4,14.22116 -140.16,-7.7e-4 c -0.3206,-7.7e-4 -0.6523,-7.7e-4 -1.0012,0.054 -0.291,0.0457 -0.6242,0.1341 -0.9759,0.31677 -0.4279,0.2222 -0.7742,0.5273 -1.0314,0.83431 -0.2796,0.33369 -0.4806,0.69644 -0.6062,1.09748 -0.1648,0.52627 -0.1648,1.01698 -0.1646,1.47719 l 1e-4,215.24234 c -3e-4,0.32194 -3e-4,0.65362 0.054,1.0026 0.046,0.29096 0.134,0.62414 0.3167,0.97588 0.2222,0.42785 0.5273,0.77423 0.8343,1.03143 0.3337,0.27955 0.6965,0.48058 1.0975,0.60616 0.5263,0.16481 1.017,0.16481 1.4762,0.16369 l 213.648,-10e-4 34.9242,61.1198 c 0.1562,0.27298 0.3231,0.56498 0.566,0.84391 0.3026,0.34759 0.6116,0.54844 0.8636,0.67662 0.5212,0.26503 1.0227,0.31753 1.4591,0.3614 l 141.7161,14.81827 65.0007,28.78064 c 0.2932,0.13042 0.5964,0.26469 0.9377,0.35589 0.2845,0.076 0.625,0.13002 1.0206,0.10542 0.4812,-0.03 0.9214,-0.16873 1.2809,-0.34534 0.3907,-0.19195 0.7213,-0.44227 0.9985,-0.75813 0.3638,-0.4145 0.5624,-0.86321 0.7483,-1.2808 l 43.5362,-98.33784 c 0.097,-0.218 0.1994,-0.45025 0.2615,-0.74413 0.062,-0.29387 0.062,-0.54786 0.062,-0.78591 V 408.80236 c 0,-0.31843 0,-0.65011 -0.055,-0.99909 -0.046,-0.29096 -0.1341,-0.62414 -0.3168,-0.97588 -0.2222,-0.42785 -0.5273,-0.77423 -0.8343,-1.03143 -0.3337,-0.27955 -0.6964,-0.48058 -1.0975,-0.60616 -0.5262,-0.16481 -1.0169,-0.16481 -1.4762,-0.1672 z"
     id="path221-7-2-4-2"
     sodipodi:nodetypes="ccsssscccsssscccssssccsssscccsssscccssssccsssscccsscccssssccsccsssscc" /></g>&#10;&#10;<g
   inkscape:groupmode="layer"
   id="layer1"
   inkscape:label="CUT1"
   style="display:inline;fill:none;stroke:#ff0000;stroke-opacity:1"
   inkscape:highlight-color="#ff0000"><path
     d="m 405.36033,256.36444 c -0.003,-5.54058 -8.31768,-5.54058 -8.31496,0 0.003,5.54058 8.31768,5.54058 8.31496,0 z"
     style="display:inline;fill:none;stroke:#ff0000;stroke-width:0.132283;stroke-dasharray:none;stroke-opacity:1"
     id="path30-7"
     sodipodi:nodetypes="sss" /><path
     d="m 405.38514,107.85741 c 0,-5.5433 -8.31496,-5.5433 -8.31496,0 0,5.5433 8.31496,5.5433 8.31496,0 z"
     style="display:inline;fill:none;stroke:#ff0000;stroke-width:0.132283;stroke-dasharray:none;stroke-opacity:1"
     id="path78-1"
     sodipodi:nodetypes="sss" /><path
     d="m 117.42039,121.3649 c -0.003,-5.54058 -8.31769,-5.54058 -8.31497,0 0.003,5.54058 8.31769,5.54058 8.31497,0 z"
     style="display:inline;fill:none;stroke:#ff0000;stroke-width:0.132283;stroke-dasharray:none;stroke-opacity:1"
     id="path112-4"
     sodipodi:nodetypes="sss" /><path
     d="m 117.42039,193.3649 c -0.003,-5.54058 -8.31769,-5.54058 -8.31497,0 0.003,5.54058 8.31769,5.54058 8.31497,0 z"
     style="display:inline;fill:none;stroke:#ff0000;stroke-width:0.132283;stroke-dasharray:none;stroke-opacity:1"
     id="path120-4"
     sodipodi:nodetypes="sss" /><path
     d="m 49.861326,205.17593 h 54.803144 c 1.04368,0 1.88976,0.84608 1.88976,1.88976 v 44.59843 c 0,1.04368 -0.84608,1.88976 -1.88976,1.88976 H 49.861326 c -1.04368,0 -1.88976,-0.84607 -1.88976,-1.88976 v -44.59843 c 0,-1.04369 0.84608,-1.88976 1.88976,-1.88976 z"
     style="display:inline;fill:none;stroke:#ff0000;stroke-width:0.132283;stroke-dasharray:none;stroke-opacity:1"
     id="path222-8"
     sodipodi:nodetypes="sssssssss" /><path
     d="M 47.971546,107.66344 V 63.065012 c 0,-1.04369 0.84608,-1.88977 1.88977,-1.88977 h 54.803144 c 1.04369,0 1.88976,0.84608 1.88976,1.88977 v 44.598428 c 0,1.04368 -0.84608,1.88976 -1.88976,1.88976 H 49.861316 c -1.04369,0 -1.88976,-0.84607 -1.88977,-1.88976 z"
     style="display:inline;fill:none;stroke:#ff0000;stroke-width:0.132283;stroke-dasharray:none;stroke-opacity:1"
     id="path223-0"
     sodipodi:nodetypes="scsccscss" /><path
     d="m 121.80127,61.174422 c -1.04368,0 -1.88976,0.84608 -1.88976,1.88976 v 44.598438 c 0,1.04368 0.84608,1.88976 1.88976,1.88976 h 54.80315 c 1.04369,0 1.88977,-0.84607 1.88977,-1.88976 V 63.064182 c 0,-1.04369 -0.84608,-1.88976 -1.88977,-1.88976 z"
     style="display:inline;fill:none;stroke:#ff0000;stroke-width:0.132283;stroke-dasharray:none;stroke-opacity:1"
     id="path224-6"
     sodipodi:nodetypes="cssccsscc" /><path
     d="m 49.861336,133.17592 c -1.04369,0 -1.88976,0.84607 -1.88977,1.88976 v 44.59843 c 10e-6,1.04369 0.84608,1.88976 1.88977,1.88976 h 54.803144 c 1.04368,0 1.88976,-0.84608 1.88976,-1.88976 v -44.59843 c 0,-1.04368 -0.84608,-1.88976 -1.88976,-1.88976 z"
     style="display:inline;fill:none;stroke:#ff0000;stroke-width:0.132283;stroke-dasharray:none;stroke-opacity:1"
     id="path225-5"
     sodipodi:nodetypes="sssscsscs" /><path
     d="m 193.80127,43.175012 c -1.04368,0 -1.88976,0.84608 -1.88976,1.88976 v 44.59843 c 0,1.04368 0.84608,1.88976 1.88976,1.88976 h 54.80315 c 1.04369,0 1.88977,-0.84607 1.88977,-1.88976 v -44.59843 c 0,-1.04369 -0.84608,-1.88976 -1.88977,-1.88976 z"
     style="display:inline;fill:none;stroke:#ff0000;stroke-width:0.132283;stroke-dasharray:none;stroke-opacity:1"
     id="path226-7"
     sodipodi:nodetypes="cssccsscc" /><path
     d="m 121.86133,133.17593 c -1.04369,0 -1.88977,0.84607 -1.88977,1.88976 v 44.59843 c 0,1.04369 0.84608,1.88976 1.88977,1.88976 h 54.80315 c 1.04368,0 1.88976,-0.84608 1.88976,-1.88976 v -44.59843 c 0,-1.04368 -0.84608,-1.88976 -1.88976,-1.88976 z"
     style="display:inline;fill:none;stroke:#ff0000;stroke-width:0.132283;stroke-dasharray:none;stroke-opacity:1"
     id="path227-3"
     sodipodi:nodetypes="csscssscc" /><path
     d="m 176.66448,253.55389 h -54.80315 c -1.04369,0 -1.88977,-0.84607 -1.88977,-1.88976 V 207.0657 c 0,-1.04369 0.84608,-1.88976 1.88977,-1.88976 h 54.80315 c 1.04368,0 1.88976,0.84608 1.88976,1.88976 v 44.59843 c 0,1.04368 -0.84608,1.88976 -1.88976,1.88976 z"
     style="display:inline;fill:none;stroke:#ff0000;stroke-width:0.132283;stroke-dasharray:none;stroke-opacity:1"
     id="path228-4"
     sodipodi:nodetypes="scsscssss" /><path
     d="m 265.80127,34.174932 c -1.04368,0 -1.88976,0.84608 -1.88976,1.88976 v 44.59843 c 0,1.04368 0.84608,1.88976 1.88976,1.88976 h 54.80315 c 1.04369,0 1.88977,-0.84607 1.88977,-1.88976 v -44.59843 c 0,-1.04369 -0.84608,-1.88976 -1.88977,-1.88976 z"
     style="display:inline;fill:none;stroke:#ff0000;stroke-width:0.132283;stroke-dasharray:none;stroke-opacity:1"
     id="path229-3"
     sodipodi:nodetypes="cssccsscc" /><path
     d="m 193.86134,115.17592 c -1.04369,0 -1.88977,0.84608 -1.88977,1.88977 v 44.59842 c 0,1.04369 0.84608,1.88976 1.88977,1.88976 h 54.80315 c 1.04368,0 1.88976,-0.84608 1.88976,-1.88976 v -44.59842 c 0,-1.04369 -0.84607,-1.88977 -1.88976,-1.88977 z"
     style="display:inline;fill:none;stroke:#ff0000;stroke-width:0.132283;stroke-dasharray:none;stroke-opacity:1"
     id="path230-0"
     sodipodi:nodetypes="ccscssccc" /><path
     d="m 248.66448,235.55388 h -54.80315 c -1.04368,0 -1.88976,-0.84608 -1.88976,-1.88976 v -44.59843 c 0,-1.04368 0.84608,-1.88976 1.88976,-1.88976 h 54.80315 c 1.04368,0 1.88976,0.84608 1.88976,1.88976 v 44.59843 c 0,1.04368 -0.84608,1.88976 -1.88976,1.88976 z"
     style="display:inline;fill:none;stroke:#ff0000;stroke-width:0.132283;stroke-dasharray:none;stroke-opacity:1"
     id="path231-4"
     sodipodi:nodetypes="sssssssss" /><path
     d="m 322.55425,108.06569 v 44.59842 c 0,1.04368 -0.84608,1.88976 -1.88976,1.88976 h -54.80315 c -1.04369,0 -1.88977,-0.84607 -1.88977,-1.88976 v -44.59842 c 0,-1.04369 0.84608,-1.88977 1.88977,-1.88977 h 54.80315 c 1.04369,0 1.88976,0.84608 1.88976,1.88977 z"
     style="display:inline;fill:none;stroke:#ff0000;stroke-width:0.132283;stroke-dasharray:none;stroke-opacity:1"
     id="path232-8"
     sodipodi:nodetypes="csscsccsc" /><path
     d="m 337.85089,115.15522 c -1.04369,0 -1.88976,0.84608 -1.88976,1.88977 v 44.59842 c 0,1.04368 0.84608,1.88976 1.88976,1.88976 h 54.80315 c 1.04368,0 1.88976,-0.84608 1.88976,-1.88976 v -44.59842 c 0,-1.04369 -0.84607,-1.88977 -1.88976,-1.88977 z"
     style="display:inline;fill:none;stroke:#ff0000;stroke-width:0.132283;stroke-dasharray:none;stroke-opacity:1"
     id="path233-7"
     sodipodi:nodetypes="scsssscss" /><path
     d="m 466.49419,198.06523 v 44.59842 c 0,1.04369 -0.84608,1.88977 -1.88977,1.88977 h -54.80315 c -1.04369,0 -1.88976,-0.84608 -1.88976,-1.88977 v -44.59842 c 0,-1.04369 0.84607,-1.88977 1.88976,-1.88977 h 54.80315 c 1.04369,0 1.88977,0.84608 1.88977,1.88977 z"
     style="display:inline;fill:none;stroke:#ff0000;stroke-width:0.132283;stroke-dasharray:none;stroke-opacity:1"
     id="path234-5"
     sodipodi:nodetypes="sscsssscs" /><path
     d="m 263.97157,224.66411 v -44.59842 c 0,-1.04369 0.84608,-1.88977 1.88977,-1.88977 h 54.80315 c 1.04369,0 1.88976,0.84608 1.88976,1.88977 v 44.59842 c 0,1.04368 -0.84608,1.88976 -1.88976,1.88976 h -54.80315 c -1.04369,0 -1.88977,-0.84607 -1.88977,-1.88976 z"
     style="display:inline;fill:none;stroke:#ff0000;stroke-width:0.132283;stroke-dasharray:none;stroke-opacity:1"
     id="path235-9"
     sodipodi:nodetypes="sccscsscs" /><path
     d="m 335.91151,89.657692 v -44.59842 c 0,-1.04368 0.84608,-1.88976 1.88976,-1.88976 h 54.80315 c 1.04369,0 1.88977,0.84607 1.88977,1.88976 v 44.59842 c 0,1.04369 -0.84608,1.88977 -1.88977,1.88977 h -54.80315 c -1.04369,0 -1.88976,-0.84608 -1.88976,-1.88977 z"
     style="display:inline;fill:none;stroke:#ff0000;stroke-width:0.132283;stroke-dasharray:none;stroke-opacity:1"
     id="path236-5"
     sodipodi:nodetypes="csccsccsc" /><path
     d="m 409.85737,124.17789 h 54.80315 c 1.04368,0 1.88976,0.84608 1.88976,1.88976 v 44.59843 c 0,1.04368 -0.84608,1.88976 -1.88976,1.88976 h -54.80315 c -1.04368,0 -1.88976,-0.84608 -1.88976,-1.88976 v -44.59843 c 0,-1.04368 0.84608,-1.88976 1.88976,-1.88976 z"
     style="display:inline;fill:none;stroke:#ff0000;stroke-width:0.132283;stroke-dasharray:none;stroke-opacity:1"
     id="path237-3"
     sodipodi:nodetypes="sssssssss" /><path
     d="m 464.60442,100.5596 h -54.80315 c -1.04368,0 -1.88976,-0.846083 -1.88976,-1.889763 V 54.071412 c 0,-1.04369 0.84607,-1.88977 1.88976,-1.88977 h 54.80315 c 1.04369,0 1.88977,0.84608 1.88977,1.88977 v 44.598425 c 0,1.04369 -0.84608,1.889763 -1.88977,1.889763 z"
     style="display:inline;fill:none;stroke:#ff0000;stroke-width:0.132283;stroke-dasharray:none;stroke-opacity:1"
     id="path238-2"
     sodipodi:nodetypes="csscsccsc" /><path
     d="m 335.97134,233.6641 c 0,1.04369 0.84608,1.88977 1.88977,1.88977 h 54.80315 c 1.04369,0 1.88976,-0.84608 1.88976,-1.88977 v -44.59842 c 0,-1.04369 -0.84607,-1.88977 -1.88976,-1.88977 h -54.80315 c -1.04369,0 -1.88977,0.84608 -1.88977,1.88977 z"
     style="display:inline;fill:none;stroke:#ff0000;stroke-width:0.132283;stroke-dasharray:none;stroke-opacity:1"
     id="path239-7"
     sodipodi:nodetypes="ccssssccc" /><path
     d="m 479.97157,206.66411 c 0,1.04369 0.84608,1.88976 1.88977,1.88976 h 54.80315 c 1.04368,0 1.88976,-0.84608 1.88976,-1.88976 v -44.59842 c 0,-1.04369 -0.84607,-1.88977 -1.88976,-1.88977 h -54.80315 c -1.04369,0 -1.88977,0.84608 -1.88977,1.88977 z"
     style="display:inline;fill:none;stroke:#ff0000;stroke-width:0.132283;stroke-dasharray:none;stroke-opacity:1"
     id="path240-3"
     sodipodi:nodetypes="scsssscss" /><path
     d="m 479.97157,134.66411 c 0,1.04369 0.84608,1.88976 1.88977,1.88976 h 54.80315 c 1.04368,0 1.88976,-0.84608 1.88976,-1.88976 V 90.065682 c 0,-1.04369 -0.84607,-1.88977 -1.88976,-1.88977 h -54.80315 c -1.04369,0 -1.88977,0.84608 -1.88977,1.88977 z"
     style="display:inline;fill:none;stroke:#ff0000;stroke-width:0.132283;stroke-dasharray:none;stroke-opacity:1"
     id="path241-9"
     sodipodi:nodetypes="scssssccs" /><path
     d="m 299.97134,314.66365 v -44.59842 c 0,-1.04369 0.84608,-1.88977 1.88977,-1.88977 h 54.80315 c 1.04369,0 1.88976,0.84608 1.88976,1.88977 v 44.59842 c 0,1.04369 -0.84607,1.88977 -1.88976,1.88977 h -54.80315 c -1.04369,0 -1.88977,-0.84608 -1.88977,-1.88977 z"
     style="display:inline;fill:none;stroke:#ff0000;stroke-width:0.132283;stroke-dasharray:none;stroke-opacity:1"
     id="path242-7"
     sodipodi:nodetypes="sscsssscs" /><path
     d="m 386.12746,271.25665 53.61747,11.33807 c 1.02111,0.21593 1.67384,1.21874 1.45791,2.23985 L 431.976,328.4681 c -0.21593,1.02111 -1.21874,1.67384 -2.23985,1.45791 l -53.61747,-11.33808 c -1.0211,-0.21593 -1.67383,-1.21873 -1.45791,-2.23984 l 9.22685,-43.63353 c 0.21593,-1.0211 1.21873,-1.67383 2.23984,-1.45791 z"
     style="display:inline;fill:none;stroke:#ff0000;stroke-width:0.132283;stroke-dasharray:none;stroke-opacity:1"
     id="path243-7"
     sodipodi:nodetypes="csssssssc" /><path
     d="m 499.01633,344.26821 c 0.95434,0.42251 2.0705,-0.009 2.49301,-0.96297 l 22.18554,-50.11175 c 0.42251,-0.95434 -0.009,-2.0705 -0.96297,-2.49301 l -40.78059,-18.05444 c -0.95434,-0.42251 -2.0705,0.009 -2.49301,0.96297 l -22.18554,50.11175 c -0.42251,0.95434 0.009,2.0705 0.96297,2.49301 z"
     style="display:inline;fill:none;stroke:#ff0000;stroke-width:0.132283;stroke-dasharray:none;stroke-opacity:1"
     id="path244-9"
     sodipodi:nodetypes="sssssssss" /><path
     d="m 405.36034,615.41954 c -0.003,-5.54058 -8.31768,-5.54058 -8.31496,0 0.003,5.54058 8.31768,5.54058 8.31496,0 z"
     style="display:inline;fill:none;stroke:#ff0000;stroke-width:0.132283;stroke-dasharray:none;stroke-opacity:1"
     id="path30-7-7"
     sodipodi:nodetypes="sss" /><path
     d="m 405.38515,466.91251 c 0,-5.5433 -8.31496,-5.5433 -8.31496,0 0,5.5433 8.31496,5.5433 8.31496,0 z"
     style="display:inline;fill:none;stroke:#ff0000;stroke-width:0.132283;stroke-dasharray:none;stroke-opacity:1"
     id="path78-1-0"
     sodipodi:nodetypes="sss" /><path
     d="m 117.4204,480.42 c -0.003,-5.54058 -8.31769,-5.54058 -8.31497,0 0.003,5.54058 8.31769,5.54058 8.31497,0 z"
     style="display:inline;fill:none;stroke:#ff0000;stroke-width:0.132283;stroke-dasharray:none;stroke-opacity:1"
     id="path112-4-3"
     sodipodi:nodetypes="sss" /><path
     d="m 117.4204,552.42 c -0.003,-5.54058 -8.31769,-5.54058 -8.31497,0 0.003,5.54058 8.31769,5.54058 8.31497,0 z"
     style="display:inline;fill:none;stroke:#ff0000;stroke-width:0.132283;stroke-dasharray:none;stroke-opacity:1"
     id="path120-4-9"
     sodipodi:nodetypes="sss" /><path
     d="m 49.861326,564.23103 h 54.803154 c 1.04368,0 1.88976,0.84608 1.88976,1.88976 v 44.59843 c 0,1.04368 -0.84608,1.88976 -1.88976,1.88976 H 49.861326 c -1.04368,0 -1.88976,-0.84607 -1.88976,-1.88976 v -44.59843 c 0,-1.04369 0.84608,-1.88976 1.88976,-1.88976 z"
     style="display:inline;fill:none;stroke:#ff0000;stroke-width:0.132283;stroke-dasharray:none;stroke-opacity:1"
     id="path222-8-9"
     sodipodi:nodetypes="sssssssss" /><path
     d="m 47.971546,466.71854 v -44.59842 c 0,-1.04369 0.84608,-1.88977 1.88977,-1.88977 h 54.803154 c 1.04369,0 1.88976,0.84608 1.88976,1.88977 v 44.59842 c 0,1.04368 -0.84608,1.88976 -1.88976,1.88976 H 49.861316 c -1.04369,0 -1.88976,-0.84607 -1.88977,-1.88976 z"
     style="display:inline;fill:none;stroke:#ff0000;stroke-width:0.132283;stroke-dasharray:none;stroke-opacity:1"
     id="path223-0-9"
     sodipodi:nodetypes="scsccscss" /><path
     d="m 121.80128,420.22953 c -1.04368,0 -1.88976,0.84608 -1.88976,1.88976 v 44.59843 c 0,1.04368 0.84608,1.88976 1.88976,1.88976 h 54.80315 c 1.04369,0 1.88977,-0.84607 1.88977,-1.88976 v -44.59843 c 0,-1.04369 -0.84608,-1.88976 -1.88977,-1.88976 z"
     style="display:inline;fill:none;stroke:#ff0000;stroke-width:0.132283;stroke-dasharray:none;stroke-opacity:1"
     id="path224-6-1"
     sodipodi:nodetypes="cssccsscc" /><path
     d="m 49.861336,492.23102 c -1.04369,0 -1.88976,0.84607 -1.88977,1.88976 v 44.59843 c 10e-6,1.04369 0.84608,1.88976 1.88977,1.88976 h 54.803154 c 1.04368,0 1.88976,-0.84608 1.88976,-1.88976 v -44.59843 c 0,-1.04368 -0.84608,-1.88976 -1.88976,-1.88976 z"
     style="display:inline;fill:none;stroke:#ff0000;stroke-width:0.132283;stroke-dasharray:none;stroke-opacity:1"
     id="path225-5-7"
     sodipodi:nodetypes="sssscsscs" /><path
     d="m 193.80128,402.23012 c -1.04368,0 -1.88976,0.84608 -1.88976,1.88976 v 44.59843 c 0,1.04368 0.84608,1.88976 1.88976,1.88976 h 54.80315 c 1.04369,0 1.88977,-0.84607 1.88977,-1.88976 v -44.59843 c 0,-1.04369 -0.84608,-1.88976 -1.88977,-1.88976 z"
     style="display:inline;fill:none;stroke:#ff0000;stroke-width:0.132283;stroke-dasharray:none;stroke-opacity:1"
     id="path226-7-2"
     sodipodi:nodetypes="cssccsscc" /><path
     d="m 121.86134,492.23103 c -1.04369,0 -1.88977,0.84607 -1.88977,1.88976 v 44.59843 c 0,1.04369 0.84608,1.88976 1.88977,1.88976 h 54.80315 c 1.04368,0 1.88976,-0.84608 1.88976,-1.88976 v -44.59843 c 0,-1.04368 -0.84608,-1.88976 -1.88976,-1.88976 z"
     style="display:inline;fill:none;stroke:#ff0000;stroke-width:0.132283;stroke-dasharray:none;stroke-opacity:1"
     id="path227-3-3"
     sodipodi:nodetypes="csscssscc" /><path
     d="m 176.66449,612.60899 h -54.80315 c -1.04369,0 -1.88977,-0.84607 -1.88977,-1.88976 V 566.1208 c 0,-1.04369 0.84608,-1.88976 1.88977,-1.88976 h 54.80315 c 1.04368,0 1.88976,0.84608 1.88976,1.88976 v 44.59843 c 0,1.04368 -0.84608,1.88976 -1.88976,1.88976 z"
     style="display:inline;fill:none;stroke:#ff0000;stroke-width:0.132283;stroke-dasharray:none;stroke-opacity:1"
     id="path228-4-6"
     sodipodi:nodetypes="scsscssss" /><path
     d="m 265.80128,393.23004 c -1.04368,0 -1.88976,0.84608 -1.88976,1.88976 v 44.59842 c 0,1.04368 0.84608,1.88976 1.88976,1.88976 h 54.80315 c 1.04369,0 1.88977,-0.84607 1.88977,-1.88976 V 395.1198 c 0,-1.04369 -0.84608,-1.88976 -1.88977,-1.88976 z"
     style="display:inline;fill:none;stroke:#ff0000;stroke-width:0.132283;stroke-dasharray:none;stroke-opacity:1"
     id="path229-3-5"
     sodipodi:nodetypes="cssccsscc" /><path
     d="m 193.86135,474.23102 c -1.04369,0 -1.88977,0.84608 -1.88977,1.88977 v 44.59842 c 0,1.04369 0.84608,1.88976 1.88977,1.88976 h 54.80315 c 1.04368,0 1.88976,-0.84608 1.88976,-1.88976 v -44.59842 c 0,-1.04369 -0.84607,-1.88977 -1.88976,-1.88977 z"
     style="display:inline;fill:none;stroke:#ff0000;stroke-width:0.132283;stroke-dasharray:none;stroke-opacity:1"
     id="path230-0-5"
     sodipodi:nodetypes="ccscssccc" /><path
     d="m 248.66449,594.60898 h -54.80315 c -1.04368,0 -1.88976,-0.84608 -1.88976,-1.88976 v -44.59843 c 0,-1.04368 0.84608,-1.88976 1.88976,-1.88976 h 54.80315 c 1.04368,0 1.88976,0.84608 1.88976,1.88976 v 44.59843 c 0,1.04368 -0.84608,1.88976 -1.88976,1.88976 z"
     style="display:inline;fill:none;stroke:#ff0000;stroke-width:0.132283;stroke-dasharray:none;stroke-opacity:1"
     id="path231-4-8"
     sodipodi:nodetypes="sssssssss" /><path
     d="m 322.55426,467.12079 v 44.59842 c 0,1.04368 -0.84608,1.88976 -1.88976,1.88976 h -54.80315 c -1.04369,0 -1.88977,-0.84607 -1.88977,-1.88976 v -44.59842 c 0,-1.04369 0.84608,-1.88977 1.88977,-1.88977 h 54.80315 c 1.04369,0 1.88976,0.84608 1.88976,1.88977 z"
     style="display:inline;fill:none;stroke:#ff0000;stroke-width:0.132283;stroke-dasharray:none;stroke-opacity:1"
     id="path232-8-1"
     sodipodi:nodetypes="csscsccsc" /><path
     d="m 337.8509,474.21032 c -1.04369,0 -1.88976,0.84608 -1.88976,1.88977 v 44.59842 c 0,1.04368 0.84608,1.88976 1.88976,1.88976 h 54.80315 c 1.04368,0 1.88976,-0.84608 1.88976,-1.88976 v -44.59842 c 0,-1.04369 -0.84607,-1.88977 -1.88976,-1.88977 z"
     style="display:inline;fill:none;stroke:#ff0000;stroke-width:0.132283;stroke-dasharray:none;stroke-opacity:1"
     id="path233-7-4"
     sodipodi:nodetypes="scsssscss" /><path
     d="m 466.4942,557.12033 v 44.59842 c 0,1.04369 -0.84608,1.88977 -1.88977,1.88977 h -54.80315 c -1.04369,0 -1.88976,-0.84608 -1.88976,-1.88977 v -44.59842 c 0,-1.04369 0.84607,-1.88977 1.88976,-1.88977 h 54.80315 c 1.04369,0 1.88977,0.84608 1.88977,1.88977 z"
     style="display:inline;fill:none;stroke:#ff0000;stroke-width:0.132283;stroke-dasharray:none;stroke-opacity:1"
     id="path234-5-7"
     sodipodi:nodetypes="sscsssscs" /><path
     d="m 263.97158,583.71921 v -44.59842 c 0,-1.04369 0.84608,-1.88977 1.88977,-1.88977 h 54.80315 c 1.04369,0 1.88976,0.84608 1.88976,1.88977 v 44.59842 c 0,1.04368 -0.84608,1.88976 -1.88976,1.88976 h -54.80315 c -1.04369,0 -1.88977,-0.84607 -1.88977,-1.88976 z"
     style="display:inline;fill:none;stroke:#ff0000;stroke-width:0.132283;stroke-dasharray:none;stroke-opacity:1"
     id="path235-9-1"
     sodipodi:nodetypes="sccscsscs" /><path
     d="m 335.91152,448.71279 v -44.59841 c 0,-1.04368 0.84608,-1.88976 1.88976,-1.88976 h 54.80315 c 1.04369,0 1.88977,0.84607 1.88977,1.88976 v 44.59841 c 0,1.04369 -0.84608,1.88977 -1.88977,1.88977 h -54.80315 c -1.04369,0 -1.88976,-0.84608 -1.88976,-1.88977 z"
     style="display:inline;fill:none;stroke:#ff0000;stroke-width:0.132283;stroke-dasharray:none;stroke-opacity:1"
     id="path236-5-3"
     sodipodi:nodetypes="csccsccsc" /><path
     d="m 409.85738,483.23299 h 54.80315 c 1.04368,0 1.88976,0.84608 1.88976,1.88976 v 44.59843 c 0,1.04368 -0.84608,1.88976 -1.88976,1.88976 h -54.80315 c -1.04368,0 -1.88976,-0.84608 -1.88976,-1.88976 v -44.59843 c 0,-1.04368 0.84608,-1.88976 1.88976,-1.88976 z"
     style="display:inline;fill:none;stroke:#ff0000;stroke-width:0.132283;stroke-dasharray:none;stroke-opacity:1"
     id="path237-3-8"
     sodipodi:nodetypes="sssssssss" /><path
     d="m 464.60443,459.6147 h -54.80315 c -1.04368,0 -1.88976,-0.84608 -1.88976,-1.88976 v -44.59842 c 0,-1.04369 0.84607,-1.88977 1.88976,-1.88977 h 54.80315 c 1.04369,0 1.88977,0.84608 1.88977,1.88977 v 44.59842 c 0,1.04369 -0.84608,1.88976 -1.88977,1.88976 z"
     style="display:inline;fill:none;stroke:#ff0000;stroke-width:0.132283;stroke-dasharray:none;stroke-opacity:1"
     id="path238-2-4"
     sodipodi:nodetypes="csscsccsc" /><path
     d="m 335.97135,592.7192 c 0,1.04369 0.84608,1.88977 1.88977,1.88977 h 54.80315 c 1.04369,0 1.88976,-0.84608 1.88976,-1.88977 v -44.59842 c 0,-1.04369 -0.84607,-1.88977 -1.88976,-1.88977 h -54.80315 c -1.04369,0 -1.88977,0.84608 -1.88977,1.88977 z"
     style="display:inline;fill:none;stroke:#ff0000;stroke-width:0.132283;stroke-dasharray:none;stroke-opacity:1"
     id="path239-7-8"
     sodipodi:nodetypes="ccssssccc" /><path
     d="m 479.97158,565.71921 c 0,1.04369 0.84608,1.88976 1.88977,1.88976 h 54.80315 c 1.04368,0 1.88976,-0.84608 1.88976,-1.88976 v -44.59842 c 0,-1.04369 -0.84607,-1.88977 -1.88976,-1.88977 h -54.80315 c -1.04369,0 -1.88977,0.84608 -1.88977,1.88977 z"
     style="display:inline;fill:none;stroke:#ff0000;stroke-width:0.132283;stroke-dasharray:none;stroke-opacity:1"
     id="path240-3-0"
     sodipodi:nodetypes="scsssscss" /><path
     d="m 479.97158,493.71921 c 0,1.04369 0.84608,1.88976 1.88977,1.88976 h 54.80315 c 1.04368,0 1.88976,-0.84608 1.88976,-1.88976 v -44.59843 c 0,-1.04369 -0.84607,-1.88977 -1.88976,-1.88977 h -54.80315 c -1.04369,0 -1.88977,0.84608 -1.88977,1.88977 z"
     style="display:inline;fill:none;stroke:#ff0000;stroke-width:0.132283;stroke-dasharray:none;stroke-opacity:1"
     id="path241-9-4"
     sodipodi:nodetypes="scssssccs" /><path
     d="m 299.97135,673.71875 v -44.59842 c 0,-1.04369 0.84608,-1.88977 1.88977,-1.88977 h 54.80315 c 1.04369,0 1.88976,0.84608 1.88976,1.88977 v 44.59842 c 0,1.04369 -0.84607,1.88977 -1.88976,1.88977 h -54.80315 c -1.04369,0 -1.88977,-0.84608 -1.88977,-1.88977 z"
     style="display:inline;fill:none;stroke:#ff0000;stroke-width:0.132283;stroke-dasharray:none;stroke-opacity:1"
     id="path242-7-6"
     sodipodi:nodetypes="sscsssscs" /><path
     d="m 386.12747,630.31175 53.61747,11.33807 c 1.02111,0.21593 1.67384,1.21874 1.45791,2.23985 l -9.22684,43.63353 c -0.21593,1.02111 -1.21874,1.67384 -2.23985,1.45791 l -53.61747,-11.33808 c -1.0211,-0.21593 -1.67383,-1.21873 -1.45791,-2.23984 l 9.22685,-43.63353 c 0.21593,-1.0211 1.21873,-1.67383 2.23984,-1.45791 z"
     style="display:inline;fill:none;stroke:#ff0000;stroke-width:0.132283;stroke-dasharray:none;stroke-opacity:1"
     id="path243-7-0"
     sodipodi:nodetypes="csssssssc" /><path
     d="m 499.01634,703.32331 c 0.95434,0.42251 2.0705,-0.009 2.49301,-0.96297 l 22.18554,-50.11175 c 0.42251,-0.95434 -0.009,-2.0705 -0.96297,-2.49301 l -40.78059,-18.05444 c -0.95434,-0.42251 -2.0705,0.009 -2.49301,0.96297 l -22.18554,50.11175 c -0.42251,0.95434 0.009,2.0705 0.96297,2.49301 z"
     style="display:inline;fill:none;stroke:#ff0000;stroke-width:0.132283;stroke-dasharray:none;stroke-opacity:1"
     id="path244-9-3"
     sodipodi:nodetypes="sssssssss" /><path
     d="m 1028.9826,256.36444 c 0,-5.54058 -8.3177,-5.54058 -8.3149,0 0,5.54058 8.3176,5.54058 8.3149,0 z"
     style="display:inline;fill:none;stroke:#ff0000;stroke-width:0.132283;stroke-dasharray:none;stroke-opacity:1"
     id="path30-7-8"
     sodipodi:nodetypes="sss" /><path
     d="m 1029.0074,107.85741 c 0,-5.5433 -8.3149,-5.5433 -8.3149,0 0,5.5433 8.3149,5.5433 8.3149,0 z"
     style="display:inline;fill:none;stroke:#ff0000;stroke-width:0.132283;stroke-dasharray:none;stroke-opacity:1"
     id="path78-1-1"
     sodipodi:nodetypes="sss" /><path
     d="m 741.04262,121.3649 c -0.003,-5.54058 -8.31769,-5.54058 -8.31497,0 0.003,5.54058 8.31769,5.54058 8.31497,0 z"
     style="display:inline;fill:none;stroke:#ff0000;stroke-width:0.132283;stroke-dasharray:none;stroke-opacity:1"
     id="path112-4-5"
     sodipodi:nodetypes="sss" /><path
     d="m 741.04262,193.3649 c -0.003,-5.54058 -8.31769,-5.54058 -8.31497,0 0.003,5.54058 8.31769,5.54058 8.31497,0 z"
     style="display:inline;fill:none;stroke:#ff0000;stroke-width:0.132283;stroke-dasharray:none;stroke-opacity:1"
     id="path120-4-3"
     sodipodi:nodetypes="sss" /><path
     d="m 673.48355,205.17593 h 54.80315 c 1.04368,0 1.88976,0.84608 1.88976,1.88976 v 44.59843 c 0,1.04368 -0.84608,1.88976 -1.88976,1.88976 h -54.80315 c -1.04368,0 -1.88976,-0.84607 -1.88976,-1.88976 v -44.59843 c 0,-1.04369 0.84608,-1.88976 1.88976,-1.88976 z"
     style="display:inline;fill:none;stroke:#ff0000;stroke-width:0.132283;stroke-dasharray:none;stroke-opacity:1"
     id="path222-8-5"
     sodipodi:nodetypes="sssssssss" /><path
     d="M 671.59377,107.66344 V 63.065012 c 0,-1.04369 0.84608,-1.88977 1.88977,-1.88977 h 54.80315 c 1.04369,0 1.88976,0.84608 1.88976,1.88977 v 44.598428 c 0,1.04368 -0.84608,1.88976 -1.88976,1.88976 h -54.80315 c -1.04369,0 -1.88976,-0.84607 -1.88977,-1.88976 z"
     style="display:inline;fill:none;stroke:#ff0000;stroke-width:0.132283;stroke-dasharray:none;stroke-opacity:1"
     id="path223-0-4"
     sodipodi:nodetypes="scsccscss" /><path
     d="m 745.4235,61.174422 c -1.04368,0 -1.88976,0.84608 -1.88976,1.88976 v 44.598438 c 0,1.04368 0.84608,1.88976 1.88976,1.88976 h 54.80315 c 1.04369,0 1.88977,-0.84607 1.88977,-1.88976 V 63.064182 c 0,-1.04369 -0.84608,-1.88976 -1.88977,-1.88976 z"
     style="display:inline;fill:none;stroke:#ff0000;stroke-width:0.132283;stroke-dasharray:none;stroke-opacity:1"
     id="path224-6-3"
     sodipodi:nodetypes="cssccsscc" /><path
     d="m 673.48356,133.17592 c -1.04369,0 -1.88976,0.84607 -1.88977,1.88976 v 44.59843 c 10e-6,1.04369 0.84608,1.88976 1.88977,1.88976 h 54.80315 c 1.04368,0 1.88976,-0.84608 1.88976,-1.88976 v -44.59843 c 0,-1.04368 -0.84608,-1.88976 -1.88976,-1.88976 z"
     style="display:inline;fill:none;stroke:#ff0000;stroke-width:0.132283;stroke-dasharray:none;stroke-opacity:1"
     id="path225-5-6"
     sodipodi:nodetypes="sssscsscs" /><path
     d="m 817.4235,43.175012 c -1.04368,0 -1.88976,0.84608 -1.88976,1.88976 v 44.59843 c 0,1.04368 0.84608,1.88976 1.88976,1.88976 h 54.80315 c 1.04369,0 1.88977,-0.84607 1.88977,-1.88976 v -44.59843 c 0,-1.04369 -0.84608,-1.88976 -1.88977,-1.88976 z"
     style="display:inline;fill:none;stroke:#ff0000;stroke-width:0.132283;stroke-dasharray:none;stroke-opacity:1"
     id="path226-7-5"
     sodipodi:nodetypes="cssccsscc" /><path
     d="m 745.48356,133.17593 c -1.04369,0 -1.88977,0.84607 -1.88977,1.88976 v 44.59843 c 0,1.04369 0.84608,1.88976 1.88977,1.88976 h 54.80315 c 1.04368,0 1.88976,-0.84608 1.88976,-1.88976 v -44.59843 c 0,-1.04368 -0.84608,-1.88976 -1.88976,-1.88976 z"
     style="display:inline;fill:none;stroke:#ff0000;stroke-width:0.132283;stroke-dasharray:none;stroke-opacity:1"
     id="path227-3-9"
     sodipodi:nodetypes="csscssscc" /><path
     d="m 800.28671,253.55389 h -54.80315 c -1.04369,0 -1.88977,-0.84607 -1.88977,-1.88976 V 207.0657 c 0,-1.04369 0.84608,-1.88976 1.88977,-1.88976 h 54.80315 c 1.04368,0 1.88976,0.84608 1.88976,1.88976 v 44.59843 c 0,1.04368 -0.84608,1.88976 -1.88976,1.88976 z"
     style="display:inline;fill:none;stroke:#ff0000;stroke-width:0.132283;stroke-dasharray:none;stroke-opacity:1"
     id="path228-4-5"
     sodipodi:nodetypes="scsscssss" /><path
     d="m 889.4235,34.174932 c -1.04368,0 -1.88976,0.84608 -1.88976,1.88976 v 44.59843 c 0,1.04368 0.84608,1.88976 1.88976,1.88976 h 54.80315 c 1.04369,0 1.88977,-0.84607 1.88977,-1.88976 v -44.59843 c 0,-1.04369 -0.84608,-1.88976 -1.88977,-1.88976 z"
     style="display:inline;fill:none;stroke:#ff0000;stroke-width:0.132283;stroke-dasharray:none;stroke-opacity:1"
     id="path229-3-4"
     sodipodi:nodetypes="cssccsscc" /><path
     d="m 817.48357,115.17592 c -1.04369,0 -1.88977,0.84608 -1.88977,1.88977 v 44.59842 c 0,1.04369 0.84608,1.88976 1.88977,1.88976 h 54.80315 c 1.04368,0 1.88976,-0.84608 1.88976,-1.88976 v -44.59842 c 0,-1.04369 -0.84607,-1.88977 -1.88976,-1.88977 z"
     style="display:inline;fill:none;stroke:#ff0000;stroke-width:0.132283;stroke-dasharray:none;stroke-opacity:1"
     id="path230-0-9"
     sodipodi:nodetypes="ccscssccc" /><path
     d="m 872.28671,235.55388 h -54.80315 c -1.04368,0 -1.88976,-0.84608 -1.88976,-1.88976 v -44.59843 c 0,-1.04368 0.84608,-1.88976 1.88976,-1.88976 h 54.80315 c 1.04368,0 1.88976,0.84608 1.88976,1.88976 v 44.59843 c 0,1.04368 -0.84608,1.88976 -1.88976,1.88976 z"
     style="display:inline;fill:none;stroke:#ff0000;stroke-width:0.132283;stroke-dasharray:none;stroke-opacity:1"
     id="path231-4-1"
     sodipodi:nodetypes="sssssssss" /><path
     d="m 946.17648,108.06569 v 44.59842 c 0,1.04368 -0.84608,1.88976 -1.88976,1.88976 h -54.80315 c -1.04369,0 -1.88977,-0.84607 -1.88977,-1.88976 v -44.59842 c 0,-1.04369 0.84608,-1.88977 1.88977,-1.88977 h 54.80315 c 1.04369,0 1.88976,0.84608 1.88976,1.88977 z"
     style="display:inline;fill:none;stroke:#ff0000;stroke-width:0.132283;stroke-dasharray:none;stroke-opacity:1"
     id="path232-8-7"
     sodipodi:nodetypes="csscsccsc" /><path
     d="m 961.47312,115.15522 c -1.04369,0 -1.88976,0.84608 -1.88976,1.88977 v 44.59842 c 0,1.04368 0.84608,1.88976 1.88976,1.88976 h 54.80318 c 1.0437,0 1.8898,-0.84608 1.8898,-1.88976 v -44.59842 c 0,-1.04369 -0.8461,-1.88977 -1.8898,-1.88977 z"
     style="display:inline;fill:none;stroke:#ff0000;stroke-width:0.132283;stroke-dasharray:none;stroke-opacity:1"
     id="path233-7-5"
     sodipodi:nodetypes="scsssscss" /><path
     d="m 1090.1165,198.06523 v 44.59842 c 0,1.04369 -0.8461,1.88977 -1.8898,1.88977 h -54.8031 c -1.0437,0 -1.8898,-0.84608 -1.8898,-1.88977 v -44.59842 c 0,-1.04369 0.8461,-1.88977 1.8898,-1.88977 h 54.8031 c 1.0437,0 1.8898,0.84608 1.8898,1.88977 z"
     style="display:inline;fill:none;stroke:#ff0000;stroke-width:0.132283;stroke-dasharray:none;stroke-opacity:1"
     id="path234-5-5"
     sodipodi:nodetypes="sscsssscs" /><path
     d="m 887.5938,224.66411 v -44.59842 c 0,-1.04369 0.84608,-1.88977 1.88977,-1.88977 h 54.80315 c 1.04369,0 1.88976,0.84608 1.88976,1.88977 v 44.59842 c 0,1.04368 -0.84608,1.88976 -1.88976,1.88976 h -54.80315 c -1.04369,0 -1.88977,-0.84607 -1.88977,-1.88976 z"
     style="display:inline;fill:none;stroke:#ff0000;stroke-width:0.132283;stroke-dasharray:none;stroke-opacity:1"
     id="path235-9-4"
     sodipodi:nodetypes="sccscsscs" /><path
     d="m 959.53374,89.657692 v -44.59842 c 0,-1.04368 0.84608,-1.88976 1.88976,-1.88976 h 54.8032 c 1.0437,0 1.8898,0.84607 1.8898,1.88976 v 44.59842 c 0,1.04369 -0.8461,1.88977 -1.8898,1.88977 h -54.8032 c -1.04369,0 -1.88976,-0.84608 -1.88976,-1.88977 z"
     style="display:inline;fill:none;stroke:#ff0000;stroke-width:0.132283;stroke-dasharray:none;stroke-opacity:1"
     id="path236-5-1"
     sodipodi:nodetypes="csccsccsc" /><path
     d="m 1033.4797,124.17789 h 54.8031 c 1.0437,0 1.8898,0.84608 1.8898,1.88976 v 44.59843 c 0,1.04368 -0.8461,1.88976 -1.8898,1.88976 h -54.8031 c -1.0437,0 -1.8898,-0.84608 -1.8898,-1.88976 v -44.59843 c 0,-1.04368 0.8461,-1.88976 1.8898,-1.88976 z"
     style="display:inline;fill:none;stroke:#ff0000;stroke-width:0.132283;stroke-dasharray:none;stroke-opacity:1"
     id="path237-3-88"
     sodipodi:nodetypes="sssssssss" /><path
     d="m 1088.2267,100.5596 h -54.8031 c -1.0437,0 -1.8898,-0.846083 -1.8898,-1.889763 V 54.071412 c 0,-1.04369 0.8461,-1.88977 1.8898,-1.88977 h 54.8031 c 1.0437,0 1.8898,0.84608 1.8898,1.88977 v 44.598425 c 0,1.04369 -0.8461,1.889763 -1.8898,1.889763 z"
     style="display:inline;fill:none;stroke:#ff0000;stroke-width:0.132283;stroke-dasharray:none;stroke-opacity:1"
     id="path238-2-3"
     sodipodi:nodetypes="csscsccsc" /><path
     d="m 959.59357,233.6641 c 0,1.04369 0.84608,1.88977 1.88977,1.88977 h 54.80316 c 1.0437,0 1.8898,-0.84608 1.8898,-1.88977 v -44.59842 c 0,-1.04369 -0.8461,-1.88977 -1.8898,-1.88977 h -54.80316 c -1.04369,0 -1.88977,0.84608 -1.88977,1.88977 z"
     style="display:inline;fill:none;stroke:#ff0000;stroke-width:0.132283;stroke-dasharray:none;stroke-opacity:1"
     id="path239-7-5"
     sodipodi:nodetypes="ccssssccc" /><path
     d="m 923.59357,314.66366 v -44.59842 c 0,-1.0437 0.84608,-1.88977 1.88977,-1.88977 h 54.80315 c 1.04369,0 1.88976,0.84607 1.88976,1.88977 v 44.59842 c 0,1.04369 -0.84607,1.88977 -1.88976,1.88977 h -54.80315 c -1.04369,0 -1.88977,-0.84608 -1.88977,-1.88977 z"
     style="display:inline;fill:none;stroke:#ff0000;stroke-width:0.132283;stroke-dasharray:none;stroke-opacity:1"
     id="path242-7-66"
     sodipodi:nodetypes="sscsssscs" /><path
     d="m 1009.7497,271.25665 53.6175,11.33807 c 1.0211,0.21593 1.6739,1.21874 1.4579,2.23985 l -9.2268,43.63354 c -0.2159,1.02111 -1.2188,1.67383 -2.2399,1.45791 l -53.61745,-11.33808 c -1.0211,-0.21593 -1.6739,-1.21873 -1.4579,-2.23984 l 9.22685,-43.63354 c 0.2159,-1.0211 1.2187,-1.67383 2.2398,-1.45791 z"
     style="display:inline;fill:none;stroke:#ff0000;stroke-width:0.132283;stroke-dasharray:none;stroke-opacity:1"
     id="path243-7-7"
     sodipodi:nodetypes="csssssssc" /><path
     d="m 1122.6386,344.26822 c 0.9544,0.42251 2.0705,-0.009 2.493,-0.96297 l 22.1855,-50.11176 c 0.4226,-0.95434 -0.01,-2.0705 -0.9629,-2.49301 l -40.7806,-18.05444 c -0.9543,-0.42251 -2.0705,0.009 -2.493,0.96297 l -22.1855,50.11175 c -0.4226,0.95434 0.01,2.0705 0.9629,2.49301 z"
     style="display:inline;fill:none;stroke:#ff0000;stroke-width:0.132283;stroke-dasharray:none;stroke-opacity:1"
     id="path244-9-8"
     sodipodi:nodetypes="sssssssss" /><path
     d="m 1028.9824,615.41954 c 0,-5.54058 -8.3177,-5.54058 -8.315,0 0,5.54058 8.3177,5.54058 8.315,0 z"
     style="display:inline;fill:none;stroke:#ff0000;stroke-width:0.132283;stroke-dasharray:none;stroke-opacity:1"
     id="path30-7-7-1"
     sodipodi:nodetypes="sss" /><path
     d="m 1029.0072,466.91252 c 0,-5.5433 -8.315,-5.5433 -8.315,0 0,5.54329 8.315,5.54329 8.315,0 z"
     style="display:inline;fill:none;stroke:#ff0000;stroke-width:0.132283;stroke-dasharray:none;stroke-opacity:1"
     id="path78-1-0-7"
     sodipodi:nodetypes="sss" /><path
     d="m 741.04242,480.42001 c -0.003,-5.54058 -8.31769,-5.54058 -8.31497,0 0.003,5.54058 8.31769,5.54058 8.31497,0 z"
     style="display:inline;fill:none;stroke:#ff0000;stroke-width:0.132283;stroke-dasharray:none;stroke-opacity:1"
     id="path112-4-3-1"
     sodipodi:nodetypes="sss" /><path
     d="m 741.04242,552.42 c -0.003,-5.54058 -8.31769,-5.54058 -8.31497,0 0.003,5.54058 8.31769,5.54058 8.31497,0 z"
     style="display:inline;fill:none;stroke:#ff0000;stroke-width:0.132283;stroke-dasharray:none;stroke-opacity:1"
     id="path120-4-9-8"
     sodipodi:nodetypes="sss" /><path
     d="m 673.48335,564.23104 h 54.80315 c 1.04368,0 1.88976,0.84608 1.88976,1.88976 v 44.59843 c 0,1.04368 -0.84608,1.88976 -1.88976,1.88976 h -54.80315 c -1.04368,0 -1.88976,-0.84608 -1.88976,-1.88976 V 566.1208 c 0,-1.04369 0.84608,-1.88976 1.88976,-1.88976 z"
     style="display:inline;fill:none;stroke:#ff0000;stroke-width:0.132283;stroke-dasharray:none;stroke-opacity:1"
     id="path222-8-9-7"
     sodipodi:nodetypes="sssssssss" /><path
     d="m 671.59357,466.71855 v -44.59842 c 0,-1.04369 0.84608,-1.88977 1.88977,-1.88977 h 54.80315 c 1.04369,0 1.88976,0.84608 1.88976,1.88977 v 44.59842 c 0,1.04368 -0.84608,1.88976 -1.88976,1.88976 h -54.80315 c -1.04369,0 -1.88976,-0.84607 -1.88977,-1.88976 z"
     style="display:inline;fill:none;stroke:#ff0000;stroke-width:0.132283;stroke-dasharray:none;stroke-opacity:1"
     id="path223-0-9-8"
     sodipodi:nodetypes="scsccscss" /><path
     d="m 745.4233,420.22954 c -1.04368,0 -1.88976,0.84607 -1.88976,1.88976 v 44.59843 c 0,1.04368 0.84608,1.88976 1.88976,1.88976 h 54.80315 c 1.04369,0 1.88977,-0.84607 1.88977,-1.88976 V 422.1193 c 0,-1.04369 -0.84608,-1.88976 -1.88977,-1.88976 z"
     style="display:inline;fill:none;stroke:#ff0000;stroke-width:0.132283;stroke-dasharray:none;stroke-opacity:1"
     id="path224-6-1-7"
     sodipodi:nodetypes="cssccsscc" /><path
     d="m 673.48336,492.23103 c -1.04369,0 -1.88976,0.84607 -1.88977,1.88976 v 44.59842 c 1e-5,1.04369 0.84608,1.88977 1.88977,1.88977 h 54.80315 c 1.04368,0 1.88976,-0.84609 1.88976,-1.88977 v -44.59843 c 0,-1.04368 -0.84608,-1.88976 -1.88976,-1.88976 z"
     style="display:inline;fill:none;stroke:#ff0000;stroke-width:0.132283;stroke-dasharray:none;stroke-opacity:1"
     id="path225-5-7-7"
     sodipodi:nodetypes="sssscsscs" /><path
     d="m 817.4233,402.23013 c -1.04368,0 -1.88976,0.84607 -1.88976,1.88976 v 44.59843 c 0,1.04368 0.84608,1.88976 1.88976,1.88976 h 54.80315 c 1.04369,0 1.88977,-0.84607 1.88977,-1.88976 v -44.59843 c 0,-1.04369 -0.84608,-1.88976 -1.88977,-1.88976 z"
     style="display:inline;fill:none;stroke:#ff0000;stroke-width:0.132283;stroke-dasharray:none;stroke-opacity:1"
     id="path226-7-2-4"
     sodipodi:nodetypes="cssccsscc" /><path
     d="m 745.48336,492.23103 c -1.04369,0 -1.88977,0.84607 -1.88977,1.88977 v 44.59842 c 0,1.04369 0.84608,1.88976 1.88977,1.88976 h 54.80315 c 1.04368,0 1.88976,-0.84608 1.88976,-1.88976 v -44.59843 c 0,-1.04368 -0.84608,-1.88976 -1.88976,-1.88976 z"
     style="display:inline;fill:none;stroke:#ff0000;stroke-width:0.132283;stroke-dasharray:none;stroke-opacity:1"
     id="path227-3-3-4"
     sodipodi:nodetypes="csscssscc" /><path
     d="m 800.28651,612.60899 h -54.80315 c -1.04369,0 -1.88977,-0.84607 -1.88977,-1.88976 v -44.59842 c 0,-1.04369 0.84608,-1.88976 1.88977,-1.88976 h 54.80315 c 1.04368,0 1.88976,0.84608 1.88976,1.88976 v 44.59842 c 0,1.04368 -0.84608,1.88977 -1.88976,1.88976 z"
     style="display:inline;fill:none;stroke:#ff0000;stroke-width:0.132283;stroke-dasharray:none;stroke-opacity:1"
     id="path228-4-6-9"
     sodipodi:nodetypes="scsscssss" /><path
     d="m 889.4233,393.23004 c -1.04368,0 -1.88976,0.84608 -1.88976,1.88977 v 44.59841 c 0,1.04368 0.84608,1.88977 1.88976,1.88977 h 54.80315 c 1.04369,0 1.88977,-0.84607 1.88977,-1.88977 v -44.59841 c 0,-1.0437 -0.84608,-1.88977 -1.88977,-1.88977 z"
     style="display:inline;fill:none;stroke:#ff0000;stroke-width:0.132283;stroke-dasharray:none;stroke-opacity:1"
     id="path229-3-5-1"
     sodipodi:nodetypes="cssccsscc" /><path
     d="m 817.48337,474.23103 c -1.04369,0 -1.88977,0.84607 -1.88977,1.88977 v 44.59841 c 0,1.04369 0.84608,1.88977 1.88977,1.88977 h 54.80315 c 1.04368,0 1.88976,-0.84609 1.88976,-1.88977 V 476.1208 c 0,-1.0437 -0.84607,-1.88977 -1.88976,-1.88977 z"
     style="display:inline;fill:none;stroke:#ff0000;stroke-width:0.132283;stroke-dasharray:none;stroke-opacity:1"
     id="path230-0-5-5"
     sodipodi:nodetypes="ccscssccc" /><path
     d="m 872.28651,594.60898 h -54.80315 c -1.04368,0 -1.88976,-0.84608 -1.88976,-1.88976 v -44.59843 c 0,-1.04368 0.84608,-1.88976 1.88976,-1.88976 h 54.80315 c 1.04368,0 1.88976,0.84608 1.88976,1.88976 v 44.59843 c 0,1.04368 -0.84608,1.88976 -1.88976,1.88976 z"
     style="display:inline;fill:none;stroke:#ff0000;stroke-width:0.132283;stroke-dasharray:none;stroke-opacity:1"
     id="path231-4-8-5"
     sodipodi:nodetypes="sssssssss" /><path
     d="m 946.17628,467.1208 v 44.59841 c 0,1.04368 -0.84608,1.88977 -1.88976,1.88977 h -54.80315 c -1.04369,0 -1.88977,-0.84608 -1.88977,-1.88977 V 467.1208 c 0,-1.0437 0.84608,-1.88977 1.88977,-1.88977 h 54.80315 c 1.04369,0 1.88976,0.84607 1.88976,1.88977 z"
     style="display:inline;fill:none;stroke:#ff0000;stroke-width:0.132283;stroke-dasharray:none;stroke-opacity:1"
     id="path232-8-1-5"
     sodipodi:nodetypes="csscsccsc" /><path
     d="m 961.47292,474.21033 c -1.04369,0 -1.88976,0.84608 -1.88976,1.88977 v 44.59842 c 0,1.04368 0.84608,1.88976 1.88976,1.88976 h 54.80318 c 1.0437,0 1.8897,-0.84608 1.8897,-1.88976 V 476.1001 c 0,-1.04369 -0.846,-1.88977 -1.8897,-1.88977 z"
     style="display:inline;fill:none;stroke:#ff0000;stroke-width:0.132283;stroke-dasharray:none;stroke-opacity:1"
     id="path233-7-4-8"
     sodipodi:nodetypes="scsssscss" /><path
     d="m 1090.1162,557.12033 v 44.59842 c 0,1.04369 -0.8461,1.88977 -1.8897,1.88977 h -54.8032 c -1.0437,0 -1.8898,-0.84608 -1.8898,-1.88977 v -44.59842 c 0,-1.04368 0.8461,-1.88977 1.8898,-1.88977 h 54.8032 c 1.0436,0 1.8897,0.84609 1.8897,1.88977 z"
     style="display:inline;fill:none;stroke:#ff0000;stroke-width:0.132283;stroke-dasharray:none;stroke-opacity:1"
     id="path234-5-7-2"
     sodipodi:nodetypes="sscsssscs" /><path
     d="m 887.5936,583.71921 v -44.59842 c 0,-1.04369 0.84608,-1.88977 1.88977,-1.88977 h 54.80315 c 1.04369,0 1.88976,0.84608 1.88976,1.88977 v 44.59842 c 0,1.04368 -0.84608,1.88976 -1.88976,1.88976 h -54.80315 c -1.04369,0 -1.88977,-0.84607 -1.88977,-1.88976 z"
     style="display:inline;fill:none;stroke:#ff0000;stroke-width:0.132283;stroke-dasharray:none;stroke-opacity:1"
     id="path235-9-1-9"
     sodipodi:nodetypes="sccscsscs" /><path
     d="m 959.53354,448.71279 v -44.59841 c 0,-1.04368 0.84608,-1.88976 1.88976,-1.88976 h 54.8032 c 1.0436,0 1.8897,0.84607 1.8897,1.88976 v 44.59841 c 0,1.0437 -0.8461,1.88977 -1.8897,1.88977 h -54.8032 c -1.04369,0 -1.88976,-0.84607 -1.88976,-1.88977 z"
     style="display:inline;fill:none;stroke:#ff0000;stroke-width:0.132283;stroke-dasharray:none;stroke-opacity:1"
     id="path236-5-3-8"
     sodipodi:nodetypes="csccsccsc" /><path
     d="m 1033.4794,483.23299 h 54.8032 c 1.0436,0 1.8897,0.84608 1.8897,1.88977 v 44.59843 c 0,1.04368 -0.8461,1.88976 -1.8897,1.88976 h -54.8032 c -1.0437,0 -1.8898,-0.84608 -1.8898,-1.88976 v -44.59843 c 0,-1.04368 0.8461,-1.88977 1.8898,-1.88977 z"
     style="display:inline;fill:none;stroke:#ff0000;stroke-width:0.132283;stroke-dasharray:none;stroke-opacity:1"
     id="path237-3-8-2"
     sodipodi:nodetypes="sssssssss" /><path
     d="m 1088.2265,459.61471 h -54.8032 c -1.0437,0 -1.8898,-0.84608 -1.8898,-1.88976 v -44.59842 c 0,-1.04369 0.8461,-1.88977 1.8898,-1.88977 h 54.8032 c 1.0436,0 1.8897,0.84608 1.8897,1.88977 v 44.59842 c 0,1.04369 -0.8461,1.88976 -1.8897,1.88976 z"
     style="display:inline;fill:none;stroke:#ff0000;stroke-width:0.132283;stroke-dasharray:none;stroke-opacity:1"
     id="path238-2-4-0"
     sodipodi:nodetypes="csscsccsc" /><path
     d="m 959.59337,592.7192 c 0,1.04369 0.84608,1.88977 1.88977,1.88977 h 54.80316 c 1.0437,0 1.8898,-0.84608 1.8898,-1.88977 v -44.59842 c 0,-1.04368 -0.8461,-1.88977 -1.8898,-1.88977 h -54.80316 c -1.04369,0 -1.88977,0.84609 -1.88977,1.88977 z"
     style="display:inline;fill:none;stroke:#ff0000;stroke-width:0.132283;stroke-dasharray:none;stroke-opacity:1"
     id="path239-7-8-7"
     sodipodi:nodetypes="ccssssccc" /><path
     d="m 923.59337,673.71875 v -44.59842 c 0,-1.04369 0.84608,-1.88977 1.88977,-1.88977 h 54.80315 c 1.04369,0 1.88976,0.84608 1.88976,1.88977 v 44.59842 c 0,1.04369 -0.84607,1.88977 -1.88976,1.88977 h -54.80315 c -1.04369,0 -1.88977,-0.84608 -1.88977,-1.88977 z"
     style="display:inline;fill:none;stroke:#ff0000;stroke-width:0.132283;stroke-dasharray:none;stroke-opacity:1"
     id="path242-7-6-5"
     sodipodi:nodetypes="sscsssscs" /><path
     d="m 1009.7495,630.31175 53.6175,11.33807 c 1.0211,0.21593 1.6738,1.21874 1.4579,2.23985 l -9.2269,43.63353 c -0.2159,1.02111 -1.2187,1.67384 -2.2398,1.45791 l -53.61749,-11.33808 c -1.0211,-0.21593 -1.67383,-1.21873 -1.45791,-2.23984 l 9.2269,-43.63353 c 0.2159,-1.0211 1.2187,-1.67382 2.2398,-1.45791 z"
     style="display:inline;fill:none;stroke:#ff0000;stroke-width:0.132283;stroke-dasharray:none;stroke-opacity:1"
     id="path243-7-0-8"
     sodipodi:nodetypes="csssssssc" /><path
     d="m 1122.6384,703.32331 c 0.9543,0.42251 2.0705,-0.009 2.493,-0.96297 l 22.1855,-50.11175 c 0.4225,-0.95434 -0.01,-2.0705 -0.963,-2.49301 l -40.7805,-18.05444 c -0.9544,-0.42251 -2.0705,0.009 -2.4931,0.96297 l -22.1855,50.11175 c -0.4225,0.95434 0.01,2.0705 0.963,2.49301 z"
     style="display:inline;fill:none;stroke:#ff0000;stroke-width:0.132283;stroke-dasharray:none;stroke-opacity:1"
     id="path244-9-3-3"
     sodipodi:nodetypes="sssssssss" /><path
     d="m 1690.4002,256.36444 c 0,-5.54058 -8.3177,-5.54058 -8.3149,0 0,5.54058 8.3176,5.54058 8.3149,0 z"
     style="display:inline;fill:none;stroke:#ff0000;stroke-width:0.132283;stroke-dasharray:none;stroke-opacity:1"
     id="path30-7-8-3"
     sodipodi:nodetypes="sss" /><path
     d="m 1690.425,107.85741 c 0,-5.5433 -8.3149,-5.5433 -8.3149,0 0,5.5433 8.3149,5.5433 8.3149,0 z"
     style="display:inline;fill:none;stroke:#ff0000;stroke-width:0.132283;stroke-dasharray:none;stroke-opacity:1"
     id="path78-1-1-9"
     sodipodi:nodetypes="sss" /><path
     d="m 1402.4602,121.3649 c 0,-5.54058 -8.3177,-5.54058 -8.315,0 0,5.54058 8.3177,5.54058 8.315,0 z"
     style="display:inline;fill:none;stroke:#ff0000;stroke-width:0.132283;stroke-dasharray:none;stroke-opacity:1"
     id="path112-4-5-0"
     sodipodi:nodetypes="sss" /><path
     d="m 1402.4602,193.3649 c 0,-5.54058 -8.3177,-5.54058 -8.315,0 0,5.54058 8.3177,5.54058 8.315,0 z"
     style="display:inline;fill:none;stroke:#ff0000;stroke-width:0.132283;stroke-dasharray:none;stroke-opacity:1"
     id="path120-4-3-5"
     sodipodi:nodetypes="sss" /><path
     d="m 1690.4,615.41954 c 0,-5.54058 -8.3177,-5.54058 -8.315,0 0,5.54058 8.3177,5.54058 8.315,0 z"
     style="display:inline;fill:none;stroke:#ff0000;stroke-width:0.132283;stroke-dasharray:none;stroke-opacity:1"
     id="path30-7-7-1-9"
     sodipodi:nodetypes="sss" /><path
     d="m 1690.4248,466.91252 c 0,-5.5433 -8.315,-5.5433 -8.315,0 0,5.54329 8.315,5.54329 8.315,0 z"
     style="display:inline;fill:none;stroke:#ff0000;stroke-width:0.132283;stroke-dasharray:none;stroke-opacity:1"
     id="path78-1-0-7-7"
     sodipodi:nodetypes="sss" /><path
     d="m 1402.46,480.42001 c 0,-5.54058 -8.3177,-5.54058 -8.315,0 0,5.54058 8.3177,5.54058 8.315,0 z"
     style="display:inline;fill:none;stroke:#ff0000;stroke-width:0.132283;stroke-dasharray:none;stroke-opacity:1"
     id="path112-4-3-1-5"
     sodipodi:nodetypes="sss" /><path
     d="m 1402.46,552.42 c 0,-5.54058 -8.3177,-5.54058 -8.315,0 0,5.54058 8.3177,5.54058 8.315,0 z"
     style="display:inline;fill:none;stroke:#ff0000;stroke-width:0.132283;stroke-dasharray:none;stroke-opacity:1"
     id="path120-4-9-8-6"
     sodipodi:nodetypes="sss" /></g></svg>
