<?xml version="1.0" encoding="UTF-8" standalone="no"?>
<svg
   xmlns:dc="http://purl.org/dc/elements/1.1/"
   xmlns:cc="http://creativecommons.org/ns#"
   xmlns:rdf="http://www.w3.org/1999/02/22-rdf-syntax-ns#"
   xmlns:svg="http://www.w3.org/2000/svg"
   xmlns="http://www.w3.org/2000/svg"
   xmlns:sodipodi="http://sodipodi.sourceforge.net/DTD/sodipodi-0.dtd"
   xmlns:inkscape="http://www.inkscape.org/namespaces/inkscape"
   sodipodi:docname="top-bottom.ai"
   id="svg207"
   version="1.2"
   viewBox="0 0 841.89 595.276"
   height="595.276pt"
   width="841.89pt">
  <metadata
     id="metadata213">
    <rdf:RDF>
      <cc:Work
         rdf:about="">
        <dc:format>image/svg+xml</dc:format>
        <dc:type
           rdf:resource="http://purl.org/dc/dcmitype/StillImage" />
      </cc:Work>
    </rdf:RDF>
  </metadata>
  <defs
     id="defs211" />
  <sodipodi:namedview
     id="namedview209"
     inkscape:window-height="480"
     inkscape:window-width="640"
     inkscape:pageshadow="2"
     inkscape:pageopacity="0"
     guidetolerance="10"
     gridtolerance="10"
     objecttolerance="10"
     borderopacity="1"
     bordercolor="#666666"
     pagecolor="#ffffff" />
  <g
     id="surface1">
    <path
       id="path2"
       d="M 70.5 173.375 C 70.546875 175.421875 68.636719 181.722656 63.851562 181.722656 C 62.484375 181.722656 61.179688 181.066406 60.445312 179.957031 C 59.71875 178.867188 59.441406 177.523438 59.441406 176 C 59.449219 172.683594 60.78125 168.332031 63.5625 163.398438 C 66.269531 158.628906 67.769531 154.472656 67.742188 151.359375 C 67.742188 149.722656 67.367188 148.390625 66.59375 147.246094 C 65.808594 146.101562 64.578125 145.097656 62.691406 144.285156 C 61.3125 143.691406 59.984375 143.425781 58.726562 143.425781 C 56.007812 143.425781 53.410156 144.648438 51.101562 146.816406 C 48.777344 148.984375 46.785156 152.085938 45.394531 155.621094 C 44.292969 158.390625 42.648438 164.179688 42.648438 170.140625 C 42.648438 172.550781 42.941406 174.972656 43.570312 177.257812 C 37.492188 168.703125 40.582031 157.179688 43.132812 151.851562 C 42.167969 151.460938 41.175781 151.261719 40.160156 151.261719 C 40.101562 151.261719 40.039062 151.261719 39.992188 151.269531 C 36.949219 151.335938 34.09375 153.199219 31.917969 156.480469 C 29.753906 159.753906 28.375 164.371094 28.386719 169.496094 L 28.386719 170.144531 C 28.460938 173.847656 29.257812 177.269531 30.527344 180.121094 C 27.515625 176.648438 24.277344 170.566406 25.835938 161.808594 C 25.4375 161.710938 25.050781 161.664062 24.664062 161.664062 L 24.640625 161.664062 C 24.398438 161.664062 24.167969 161.675781 23.925781 161.71875 C 22.1875 161.96875 20.652344 163.101562 19.453125 165.050781 C 18.285156 166.984375 17.558594 169.671875 17.558594 172.664062 C 17.558594 173.566406 17.617188 174.488281 17.75 175.433594 C 18.234375 178.816406 19.566406 181.765625 21.257812 183.796875 C 22.949219 185.839844 24.945312 186.902344 26.816406 186.902344 C 29.464844 186.902344 31.710938 185.367188 33.027344 184.273438 C 35.203125 186.988281 37.886719 188.488281 40.65625 188.488281 C 43.507812 188.488281 46.445312 186.8125 48.476562 185.285156 C 49.878906 186.503906 51.582031 187.554688 53.6875 188.378906 C 55.464844 189.074219 57.128906 189.375 58.691406 189.375 C 73.65625 189.375 72.335938 175.359375 70.5 173.375 "
       style=" stroke:none;fill-rule:nonzero;fill:rgb(0%,0%,0%);fill-opacity:1;" />
    <path
       id="path4"
       transform="matrix(1,0,0,-1,70.5005,173.3765)"
       d="M -0.0005 0.0015 C 0.046375 -2.045375 -1.863781 -8.346156 -6.648938 -8.346156 C -8.016125 -8.346156 -9.320813 -7.689906 -10.055188 -6.580531 C -10.78175 -5.490687 -11.059094 -4.146937 -11.059094 -2.6235 C -11.051281 0.692906 -9.71925 5.044469 -6.938 9.978063 C -4.230969 14.747594 -2.730969 18.903844 -2.758313 22.017125 C -2.758313 23.653844 -3.133313 24.985875 -3.90675 26.130406 C -4.691906 27.274938 -5.922375 28.278844 -7.809094 29.091344 C -9.188 29.685094 -10.516125 29.950719 -11.773938 29.950719 C -14.492688 29.950719 -17.090344 28.728063 -19.398938 26.560094 C -21.723156 24.392125 -23.715344 21.290563 -25.105969 17.755406 C -26.207531 14.985875 -27.852063 9.196813 -27.852063 3.235875 C -27.852063 0.825719 -27.559094 -1.596156 -26.930188 -3.881312 C -33.008313 4.673375 -29.918469 16.196813 -27.367688 21.524938 C -28.332531 21.915563 -29.324719 22.114781 -30.340344 22.114781 C -30.398938 22.114781 -30.461438 22.114781 -30.508313 22.106969 C -33.551281 22.040563 -36.40675 20.177281 -38.582531 16.896031 C -40.746594 13.622594 -42.1255 9.005406 -42.113781 3.880406 L -42.113781 3.231969 C -42.039563 -0.471156 -41.242688 -3.893031 -39.973156 -6.744594 C -42.984875 -3.271937 -46.223156 2.810094 -44.664563 11.567906 C -45.063 11.665563 -45.449719 11.712438 -45.836438 11.712438 L -45.859875 11.712438 C -46.102063 11.712438 -46.332531 11.700719 -46.574719 11.65775 C -48.313 11.40775 -49.848156 10.274938 -51.047375 8.325719 C -52.215344 6.392125 -52.941906 3.704625 -52.941906 0.712438 C -52.941906 -0.189906 -52.883313 -1.111781 -52.7505 -2.057094 C -52.266125 -5.439906 -50.934094 -8.389125 -49.242688 -10.420375 C -47.551281 -12.463344 -45.555188 -13.525844 -43.684094 -13.525844 C -41.035656 -13.525844 -38.789563 -11.990687 -37.473156 -10.896937 C -35.297375 -13.611781 -32.613781 -15.111781 -29.84425 -15.111781 C -26.992688 -15.111781 -24.055188 -13.436 -22.023938 -11.908656 C -20.621594 -13.127406 -18.918469 -14.178187 -16.813 -15.002406 C -15.035656 -15.697719 -13.371594 -15.9985 -11.809094 -15.9985 C 3.15575 -15.9985 1.835437 -1.982875 -0.0005 0.0015 Z M -0.0005 0.0015 "
       style="fill:none;stroke-width:0.283;stroke-linecap:butt;stroke-linejoin:miter;stroke:rgb(0%,0%,0%);stroke-opacity:1;stroke-miterlimit:10;" />
    <path
       id="path6"
       transform="matrix(1,0,0,-1,85.9293,158.9292)"
       d="M 0.0003875 -0.0004875 C -0.538675 1.96045 -2.206644 2.913575 -3.894144 2.913575 C -5.964456 2.913575 -8.081644 1.479981 -8.081644 -1.453612 C -8.081644 -4.410644 -5.987894 -5.844237 -3.874612 -5.844237 C -2.187112 -5.844237 -0.538675 -4.887206 0.0003875 -2.934081 "
       style="fill:none;stroke-width:1.417;stroke-linecap:butt;stroke-linejoin:miter;stroke:rgb(0%,0%,0%);stroke-opacity:1;stroke-miterlimit:10;" />
    <path
       id="path8"
       transform="matrix(1,0,0,-1,95.816,164.773)"
       d="M 0.00040625 -0.0004375 C 2.226969 -0.0277812 4.457437 1.456594 4.457437 4.370656 C 4.457437 7.284719 2.250406 8.757375 0.0629062 8.757375 C -2.167563 8.757375 -4.374594 7.30425 -4.374594 4.370656 C -4.374594 1.476125 -2.187094 0.0190938 0.00040625 -0.0004375 Z M 0.00040625 -0.0004375 "
       style="fill:none;stroke-width:1.417;stroke-linecap:butt;stroke-linejoin:miter;stroke:rgb(0%,0%,0%);stroke-opacity:1;stroke-miterlimit:10;" />
    <path
       id="path10"
       transform="matrix(1,0,0,-1,111.3575,156.1255)"
       d="M 0.001875 0.0005 C -2.537188 0.7505 -4.947344 -1.09325 -4.947344 -3.753406 L -4.947344 -8.827625 "
       style="fill:none;stroke-width:1.417;stroke-linecap:butt;stroke-linejoin:miter;stroke:rgb(0%,0%,0%);stroke-opacity:1;stroke-miterlimit:10;" />
    <path
       id="path12"
       transform="matrix(1,0,0,-1,121.9752,164.9527)"
       d="M 0.0013625 -0.000425 L 0.0013625 4.999575 C 0.0013625 7.304263 -0.592388 8.874575 -3.205669 8.917544 C -5.592388 8.964419 -6.9127 7.257388 -6.9127 5.097231 L -6.9127 -0.000425 "
       style="fill:none;stroke-width:1.417;stroke-linecap:butt;stroke-linejoin:miter;stroke:rgb(0%,0%,0%);stroke-opacity:1;stroke-miterlimit:10;" />
    <path
       id="path14"
       d="M 86.222656 170.746094 C 85.183594 170.746094 84.3125 171.089844 83.609375 171.777344 C 82.90625 172.464844 82.550781 173.3125 82.550781 174.320312 C 82.550781 175.582031 83.011719 176.621094 83.933594 177.4375 C 84.851562 178.253906 86.03125 178.660156 87.46875 178.660156 C 88.316406 178.660156 89.113281 178.5 89.855469 178.179688 C 90.601562 177.859375 91.210938 177.421875 91.691406 176.859375 C 91.785156 176.75 91.859375 176.671875 91.90625 176.632812 C 91.953125 176.59375 92.011719 176.574219 92.074219 176.574219 L 92.433594 176.574219 C 92.546875 176.574219 92.628906 176.617188 92.6875 176.707031 C 92.742188 176.792969 92.792969 176.964844 92.84375 177.222656 C 92.90625 177.539062 92.9375 177.898438 92.9375 178.300781 C 92.9375 179.785156 92.625 181.132812 92.003906 182.339844 C 91.378906 183.550781 90.5 184.511719 89.363281 185.230469 C 88.230469 185.953125 86.925781 186.3125 85.453125 186.3125 C 83.96875 186.3125 82.613281 185.960938 81.390625 185.257812 C 80.167969 184.550781 79.191406 183.542969 78.464844 182.234375 C 77.734375 180.921875 77.371094 179.425781 77.371094 177.75 C 77.371094 176.183594 77.699219 174.777344 78.355469 173.539062 C 79.011719 172.300781 79.945312 171.324219 81.160156 170.613281 C 82.375 169.902344 83.785156 169.546875 85.382812 169.546875 C 86.582031 169.546875 87.660156 169.742188 88.621094 170.132812 C 89.582031 170.523438 90.34375 171.082031 90.910156 171.800781 C 91.480469 172.519531 91.765625 173.34375 91.765625 174.269531 C 91.765625 175.34375 91.378906 176.203125 90.613281 176.847656 C 89.84375 177.496094 88.828125 177.820312 87.566406 177.820312 C 86.796875 177.820312 86.097656 177.671875 85.46875 177.375 C 84.835938 177.082031 84.332031 176.664062 83.957031 176.128906 C 83.578125 175.59375 83.390625 174.984375 83.390625 174.292969 C 83.390625 173.433594 83.6875 172.742188 84.28125 172.230469 C 84.871094 171.71875 85.671875 171.464844 86.679688 171.464844 C 86.773438 171.367188 86.824219 171.265625 86.824219 171.152344 C 86.824219 171.023438 86.765625 170.925781 86.65625 170.851562 C 86.542969 170.78125 86.398438 170.746094 86.222656 170.746094 "
       style=" stroke:none;fill-rule:nonzero;fill:rgb(0%,0%,0%);fill-opacity:1;" />
    <path
       id="path16"
       transform="matrix(1,0,0,-1,86.2227,170.7447)"
       d="M -0.00004375 -0.00139375 C -1.039106 -0.00139375 -1.9102 -0.345144 -2.613325 -1.032644 C -3.31645 -1.720144 -3.671919 -2.5678 -3.671919 -3.575612 C -3.671919 -4.837331 -3.210981 -5.876394 -2.289106 -6.6928 C -1.371137 -7.509206 -0.19145 -7.915456 1.24605 -7.915456 C 2.093706 -7.915456 2.890581 -7.7553 3.632769 -7.434987 C 4.378863 -7.114675 4.988238 -6.677175 5.468706 -6.114675 C 5.562456 -6.0053 5.636675 -5.927175 5.68355 -5.888112 C 5.730425 -5.84905 5.789019 -5.829519 5.851519 -5.829519 L 6.210894 -5.829519 C 6.324175 -5.829519 6.406206 -5.872487 6.4648 -5.962331 C 6.519488 -6.048269 6.570269 -6.220144 6.62105 -6.477956 C 6.68355 -6.794362 6.7148 -7.153737 6.7148 -7.556081 C 6.7148 -9.040456 6.4023 -10.388112 5.781206 -11.595144 C 5.156206 -12.806081 4.2773 -13.767019 3.140581 -14.485769 C 2.007769 -15.208425 0.703081 -15.5678 -0.769575 -15.5678 C -2.25395 -15.5678 -3.609419 -15.216237 -4.832075 -14.513112 C -6.054731 -13.806081 -7.031294 -12.798269 -7.757856 -11.489675 C -8.488325 -10.177175 -8.851606 -8.681081 -8.851606 -7.0053 C -8.851606 -5.438894 -8.523481 -4.032644 -7.867231 -2.794362 C -7.210981 -1.556081 -6.277387 -0.579519 -5.062544 0.131419 C -3.8477 0.842356 -2.437544 1.197825 -0.839887 1.197825 C 0.359331 1.197825 1.437456 1.002513 2.398394 0.611888 C 3.359331 0.221263 4.12105 -0.337331 4.687456 -1.056081 C 5.257769 -1.774831 5.542925 -2.59905 5.542925 -3.524831 C 5.542925 -4.59905 5.156206 -5.458425 4.390581 -6.102956 C 3.62105 -6.751394 2.605425 -7.075612 1.343706 -7.075612 C 0.574175 -7.075612 -0.125044 -6.927175 -0.75395 -6.6303 C -1.386762 -6.337331 -1.890669 -5.919362 -2.265669 -5.384206 C -2.644575 -4.84905 -2.832075 -4.239675 -2.832075 -3.548269 C -2.832075 -2.688894 -2.5352 -1.997487 -1.94145 -1.485769 C -1.351606 -0.97405 -0.550825 -0.720144 0.456988 -0.720144 C 0.550738 -0.622487 0.601519 -0.520925 0.601519 -0.407644 C 0.601519 -0.278737 0.542925 -0.181081 0.43355 -0.106862 C 0.320269 -0.03655 0.175738 -0.00139375 -0.00004375 -0.00139375 Z M -0.00004375 -0.00139375 "
       style="fill:none;stroke-width:0.283;stroke-linecap:butt;stroke-linejoin:miter;stroke:rgb(0%,0%,0%);stroke-opacity:1;stroke-miterlimit:10;" />
    <path
       id="path18"
       transform="matrix(1,0,0,-1,94.1378,171.6079)"
       d="M -0.00108125 -0.001475 C -0.00108125 0.561025 -0.0792062 0.986806 -0.239362 1.283681 C -0.399519 1.57665 -0.696394 1.853994 -1.126081 2.111806 C -1.239362 2.174306 -1.305769 2.225088 -1.329206 2.268056 C -1.35655 2.307119 -1.368269 2.3579 -1.368269 2.4204 L -1.368269 2.709463 C -1.368269 2.869619 -1.270612 2.95165 -1.079206 2.95165 L 5.131731 2.95165 C 5.436419 2.95165 5.647356 2.88915 5.76845 2.768056 C 5.889544 2.650869 5.948138 2.455556 5.948138 2.182119 L 5.948138 -3.286631 C 6.733294 -2.310069 7.819231 -1.821787 9.209856 -1.821787 C 10.3622 -1.821787 11.241106 -2.165537 11.850481 -2.853037 C 12.45595 -3.540537 12.760638 -4.5171 12.760638 -5.782725 L 12.760638 -13.528819 C 12.760638 -13.79835 12.698138 -13.993662 12.58095 -14.114756 C 12.459856 -14.23585 12.248919 -14.294444 11.944231 -14.294444 L 7.627825 -14.294444 C 7.323138 -14.294444 7.1122 -14.23585 6.991106 -14.114756 C 6.873919 -13.993662 6.811419 -13.79835 6.811419 -13.528819 L 6.811419 -5.278819 C 6.811419 -5.103037 6.772356 -4.958506 6.690325 -4.845225 C 6.6122 -4.731944 6.498919 -4.677256 6.354388 -4.677256 C 6.166888 -4.677256 6.026263 -4.739756 5.948138 -4.868662 L 5.948138 -13.528819 C 5.948138 -13.79835 5.889544 -13.993662 5.76845 -14.114756 C 5.647356 -14.23585 5.436419 -14.294444 5.131731 -14.294444 L 0.815325 -14.294444 C 0.510638 -14.294444 0.2997 -14.23585 0.178606 -14.114756 C 0.0614188 -13.993662 -0.00108125 -13.79835 -0.00108125 -13.528819 Z M -0.00108125 -0.001475 "
       style="fill-rule:nonzero;fill:rgb(0%,0%,0%);fill-opacity:1;stroke-width:0.283;stroke-linecap:butt;stroke-linejoin:miter;stroke:rgb(0%,0%,0%);stroke-opacity:1;stroke-miterlimit:10;" />
    <path
       id="path20"
       d="M 114.574219 178.707031 C 114.667969 178.835938 114.796875 178.898438 114.957031 178.898438 C 115.246094 178.898438 115.386719 178.742188 115.386719 178.421875 L 115.386719 175.015625 C 115.386719 174.695312 115.246094 174.535156 114.957031 174.535156 C 114.796875 174.535156 114.667969 174.597656 114.574219 174.726562 Z M 113.851562 180.363281 C 113.851562 180.730469 114.164062 181.070312 114.789062 181.382812 C 115.414062 181.695312 116.109375 181.851562 116.875 181.851562 C 118.394531 181.851562 119.640625 181.339844 120.617188 180.316406 C 120.714844 180.21875 120.78125 180.160156 120.820312 180.136719 C 120.859375 180.109375 120.921875 180.097656 121 180.097656 L 121.289062 180.097656 C 121.398438 180.097656 121.476562 180.140625 121.515625 180.21875 C 121.554688 180.300781 121.578125 180.441406 121.578125 180.652344 C 121.578125 181.640625 121.308594 182.558594 120.773438 183.398438 C 120.238281 184.238281 119.476562 184.914062 118.496094 185.421875 C 117.511719 185.933594 116.410156 186.191406 115.195312 186.191406 C 113.902344 186.191406 112.734375 185.925781 111.695312 185.398438 C 110.65625 184.871094 109.828125 184.121094 109.210938 183.144531 C 108.597656 182.167969 108.289062 181.058594 108.289062 179.8125 C 108.289062 178.582031 108.578125 177.484375 109.152344 176.523438 C 109.726562 175.566406 110.546875 174.808594 111.609375 174.257812 C 112.675781 173.707031 113.917969 173.429688 115.339844 173.429688 C 116.410156 173.429688 117.375 173.597656 118.230469 173.933594 C 119.085938 174.269531 119.761719 174.75 120.257812 175.375 C 120.753906 175.996094 121 176.71875 121 177.53125 C 121 178.570312 120.625 179.429688 119.875 180.109375 C 119.121094 180.789062 118.171875 181.128906 117.019531 181.128906 C 115.867188 181.128906 114.933594 180.746094 114.214844 179.976562 C 114.117188 179.976562 114.035156 180.015625 113.960938 180.085938 C 113.890625 180.160156 113.851562 180.25 113.851562 180.363281 "
       style=" stroke:none;fill-rule:nonzero;fill:rgb(0%,0%,0%);fill-opacity:1;" />
    <path
       id="path22"
       transform="matrix(1,0,0,-1,114.5733,178.7075)"
       d="M 0.00091875 0.00046875 C 0.0946688 -0.128437 0.223575 -0.190937 0.383731 -0.190937 C 0.672794 -0.190937 0.813419 -0.0346875 0.813419 0.285625 L 0.813419 3.691875 C 0.813419 4.012188 0.672794 4.172344 0.383731 4.172344 C 0.223575 4.172344 0.0946688 4.109844 0.00091875 3.980938 Z M -0.721737 -1.655781 C -0.721737 -2.022969 -0.409237 -2.362812 0.215763 -2.675312 C 0.840763 -2.987812 1.536075 -3.144062 2.3017 -3.144062 C 3.821231 -3.144062 5.067325 -2.632344 6.043888 -1.608906 C 6.141544 -1.51125 6.20795 -1.452656 6.247013 -1.429219 C 6.286075 -1.401875 6.348575 -1.390156 6.4267 -1.390156 L 6.715763 -1.390156 C 6.825138 -1.390156 6.903263 -1.433125 6.942325 -1.51125 C 6.981388 -1.593281 7.004825 -1.733906 7.004825 -1.944844 C 7.004825 -2.933125 6.735294 -3.851094 6.200138 -4.690937 C 5.664981 -5.530781 4.903263 -6.206562 3.922794 -6.714375 C 2.938419 -7.226094 1.836856 -7.483906 0.622013 -7.483906 C -0.670956 -7.483906 -1.838925 -7.218281 -2.877987 -6.690937 C -3.91705 -6.163594 -4.745175 -5.413594 -5.362362 -4.437031 C -5.975644 -3.460469 -6.284237 -2.351094 -6.284237 -1.105 C -6.284237 0.125469 -5.995175 1.223125 -5.420956 2.184063 C -4.846737 3.141094 -4.026425 3.898906 -2.963925 4.449688 C -1.897519 5.000469 -0.655331 5.277813 0.766544 5.277813 C 1.836856 5.277813 2.8017 5.109844 3.657169 4.773906 C 4.512638 4.437969 5.188419 3.9575 5.684513 3.3325 C 6.180606 2.711406 6.4267 1.98875 6.4267 1.17625 C 6.4267 0.137188 6.0517 -0.722187 5.3017 -1.401875 C 4.547794 -2.081562 3.598575 -2.421406 2.446231 -2.421406 C 1.293888 -2.421406 0.360294 -2.038594 -0.358456 -1.269062 C -0.456112 -1.269062 -0.538144 -1.308125 -0.612362 -1.378437 C -0.682675 -1.452656 -0.721737 -1.5425 -0.721737 -1.655781 Z M -0.721737 -1.655781 "
       style="fill:none;stroke-width:0.283;stroke-linecap:butt;stroke-linejoin:miter;stroke:rgb(0%,0%,0%);stroke-opacity:1;stroke-miterlimit:10;" />
    <path
       id="path24"
       transform="matrix(1,0,0,-1,123.4229,173.7193)"
       d="M -0.001025 0.00055 C 1.373975 0.00055 2.311475 -0.4057 2.807569 -1.222106 C 3.268506 -0.710387 3.791944 -0.331481 4.366163 -0.0814812 C 4.940381 0.164613 5.604444 0.289613 6.354444 0.289613 C 7.522413 0.289613 8.48335 -0.0307 9.23335 -0.671325 C 9.987256 -1.31195 10.362256 -2.128356 10.362256 -3.116637 C 10.362256 -3.948669 10.057569 -4.62445 9.4521 -5.143981 C 8.842725 -5.663512 8.057569 -5.925231 7.100538 -5.925231 C 6.155225 -5.925231 5.385694 -5.68695 4.784131 -5.206481 C 4.186475 -4.726012 3.885694 -4.116637 3.885694 -3.382262 C 3.885694 -2.757262 4.100538 -2.245544 4.534131 -1.847106 C 4.963819 -1.448669 5.518506 -1.245544 6.186475 -1.245544 C 6.237256 -1.167419 6.260694 -1.085387 6.260694 -1.007262 C 6.260694 -0.784606 6.092725 -0.671325 5.756788 -0.671325 C 5.053663 -0.671325 4.444288 -0.940856 3.932569 -1.476012 C 3.42085 -2.011169 3.166944 -2.6557 3.166944 -3.4057 C 3.166944 -4.046325 3.346631 -4.608825 3.706006 -5.097106 C 4.065381 -5.585387 4.581006 -5.972106 5.252881 -6.261169 C 5.475538 -6.354919 5.623975 -6.464294 5.698194 -6.585387 C 5.768506 -6.702575 5.803663 -6.909606 5.803663 -7.194762 L 5.803663 -11.417419 C 5.803663 -11.929137 5.534131 -12.18695 4.987256 -12.18695 L 0.120069 -12.18695 C -0.376025 -12.18695 -0.622119 -11.929137 -0.622119 -11.417419 L -0.622119 -2.948669 C -0.622119 -2.390075 -0.70415 -1.964294 -0.864306 -1.667419 C -1.024462 -1.370544 -1.317431 -1.097106 -1.751025 -0.839294 C -1.8604 -0.776794 -1.930712 -0.722106 -1.95415 -0.683044 C -1.977587 -0.643981 -1.989306 -0.5932 -1.989306 -0.526794 L -1.989306 -0.237731 C -1.989306 -0.0814812 -1.895556 0.00055 -1.700244 0.00055 Z M -0.001025 0.00055 "
       style="fill-rule:nonzero;fill:rgb(0%,0%,0%);fill-opacity:1;stroke-width:0.283;stroke-linecap:butt;stroke-linejoin:miter;stroke:rgb(0%,0%,0%);stroke-opacity:1;stroke-miterlimit:10;" />
    <path
       id="path26"
       transform="matrix(1,0,0,-1,135.4395,173.7193)"
       d="M 0.00190625 0.00055 C 1.376906 0.00055 2.3105 -0.4057 2.806594 -1.222106 C 3.271438 -0.710387 3.790969 -0.331481 4.365188 -0.0814812 C 4.939406 0.164613 5.603469 0.289613 6.357375 0.289613 C 7.521438 0.289613 8.482375 -0.0307 9.236281 -0.671325 C 9.986281 -1.31195 10.361281 -2.128356 10.361281 -3.116637 C 10.361281 -3.948669 10.056594 -4.62445 9.451125 -5.143981 C 8.84175 -5.663512 8.0605 -5.925231 7.099563 -5.925231 C 6.15425 -5.925231 5.384719 -5.68695 4.783156 -5.206481 C 4.1855 -4.726012 3.884719 -4.116637 3.884719 -3.382262 C 3.884719 -2.757262 4.103469 -2.245544 4.533156 -1.847106 C 4.96675 -1.448669 5.517531 -1.245544 6.189406 -1.245544 C 6.236281 -1.167419 6.259719 -1.085387 6.259719 -1.007262 C 6.259719 -0.784606 6.09175 -0.671325 5.755813 -0.671325 C 5.052688 -0.671325 4.443313 -0.940856 3.9355 -1.476012 C 3.423781 -2.011169 3.165969 -2.6557 3.165969 -3.4057 C 3.165969 -4.046325 3.345656 -4.608825 3.705031 -5.097106 C 4.064406 -5.585387 4.583938 -5.972106 5.251906 -6.261169 C 5.478469 -6.354919 5.626906 -6.464294 5.697219 -6.585387 C 5.767531 -6.702575 5.806594 -6.909606 5.806594 -7.194762 L 5.806594 -11.417419 C 5.806594 -11.929137 5.533156 -12.18695 4.990188 -12.18695 L 0.119094 -12.18695 C -0.373094 -12.18695 -0.623094 -11.929137 -0.623094 -11.417419 L -0.623094 -2.948669 C -0.623094 -2.390075 -0.705125 -1.964294 -0.861375 -1.667419 C -1.021531 -1.370544 -1.318406 -1.097106 -1.748094 -0.839294 C -1.861375 -0.776794 -1.931687 -0.722106 -1.955125 -0.683044 C -1.978562 -0.643981 -1.990281 -0.5932 -1.990281 -0.526794 L -1.990281 -0.237731 C -1.990281 -0.0814812 -1.892625 0.00055 -1.701219 0.00055 Z M 0.00190625 0.00055 "
       style="fill-rule:nonzero;fill:rgb(0%,0%,0%);fill-opacity:1;stroke-width:0.283;stroke-linecap:butt;stroke-linejoin:miter;stroke:rgb(0%,0%,0%);stroke-opacity:1;stroke-miterlimit:10;" />
    <path
       id="path28"
       transform="matrix(1,0,0,-1,146.3531,175.8062)"
       d="M -0.0015375 0.0015125 C -0.0952875 0.271044 -0.2281 0.497606 -0.396069 0.673388 C -0.564038 0.849169 -0.814038 1.040575 -1.149975 1.247606 C -1.310131 1.345263 -1.392163 1.446825 -1.392163 1.560106 L -1.392163 1.849169 C -1.392163 2.005419 -1.294506 2.08745 -1.1031 2.08745 L 2.639087 2.08745 C 3.725025 2.08745 4.529712 2.005419 5.049244 1.83745 C 5.568775 1.665575 5.975025 1.376513 6.2719 0.958544 C 6.568775 0.544481 6.853931 -0.0727062 7.123462 -0.885206 L 9.424244 -7.842237 C 9.506275 -7.924269 9.603931 -7.963331 9.713306 -7.963331 C 9.955494 -7.963331 10.072681 -7.826612 10.072681 -7.553175 C 10.072681 -7.396925 10.010181 -7.1313 9.881275 -6.764112 L 7.721119 -0.166456 C 7.514087 0.470263 7.330494 0.888231 7.170337 1.079638 C 7.029712 1.255419 6.935962 1.372606 6.8969 1.427294 C 6.857837 1.481981 6.8344 1.552294 6.8344 1.630419 L 6.8344 1.849169 C 6.8344 2.005419 6.932056 2.08745 7.123462 2.08745 L 13.912525 2.08745 C 14.486744 2.08745 14.775806 1.880419 14.775806 1.46245 C 14.775806 1.079638 14.36565 -0.232862 13.55315 -2.471144 C 12.736744 -4.709425 11.623462 -7.553175 10.217212 -11.010206 C 9.705494 -12.271925 9.201587 -13.252394 8.705494 -13.947706 C 8.2094 -14.643019 7.662525 -15.139112 7.064869 -15.435987 C 6.463306 -15.728956 5.756275 -15.877394 4.939869 -15.877394 C 3.756275 -15.877394 2.80315 -15.611769 2.076587 -15.084425 C 1.346119 -14.557081 0.982837 -13.861769 0.982837 -12.998487 C 0.982837 -12.248487 1.279712 -11.639112 1.869556 -11.178175 C 2.463306 -10.713331 3.228931 -10.482862 4.174244 -10.482862 C 5.05315 -10.482862 5.7719 -10.6938 6.330494 -11.115675 C 6.892994 -11.541456 7.170337 -12.088331 7.170337 -12.760206 C 7.170337 -13.271925 6.998462 -13.666456 6.654712 -13.947706 C 6.310962 -14.22505 5.826587 -14.365675 5.205494 -14.365675 C 5.170337 -14.432081 5.158619 -14.502394 5.158619 -14.580519 C 5.158619 -14.807081 5.342212 -14.916456 5.7094 -14.916456 C 6.330494 -14.916456 6.853931 -14.705519 7.267994 -14.283644 C 7.682056 -13.857862 7.892994 -13.326612 7.892994 -12.689894 C 7.892994 -11.935987 7.627369 -11.314894 7.100025 -10.830519 C 6.572681 -10.342237 5.80315 -10.010206 4.795337 -9.834425 C 4.221119 -9.736769 3.846119 -9.607862 3.670337 -9.451612 C 3.494556 -9.291456 3.310962 -8.939894 3.119556 -8.396925 Z M -0.0015375 0.0015125 "
       style="fill-rule:nonzero;fill:rgb(0%,0%,0%);fill-opacity:1;stroke-width:0.283;stroke-linecap:butt;stroke-linejoin:miter;stroke:rgb(0%,0%,0%);stroke-opacity:1;stroke-miterlimit:10;" />
    <path
       id="path30"
       transform="matrix(1,0,0,-1,125.8482,159.895)"
       d="M -0.00054375 0.00046875 L 7.936956 0.00046875 C 7.936956 2.004375 6.5268 3.879375 4.042425 3.879375 C 1.968206 3.879375 -0.141169 2.445781 -0.141169 -0.487812 C -0.141169 -3.444844 1.948675 -4.878437 4.061956 -4.878437 C 5.749456 -4.878437 7.397894 -3.921406 7.936956 -1.968281 "
       style="fill:none;stroke-width:1.417;stroke-linecap:butt;stroke-linejoin:miter;stroke:rgb(0%,0%,0%);stroke-opacity:1;stroke-miterlimit:10;" />
    <path
       id="path32"
       d="M 734.292969 477.277344 C 734.339844 479.320312 732.429688 485.621094 727.644531 485.621094 C 726.277344 485.621094 724.96875 484.964844 724.234375 483.859375 C 723.507812 482.765625 723.230469 481.421875 723.230469 479.898438 C 723.242188 476.582031 724.574219 472.230469 727.351562 467.296875 C 730.0625 462.53125 731.558594 458.371094 731.535156 455.261719 C 731.535156 453.621094 731.160156 452.292969 730.386719 451.144531 C 729.601562 450.003906 728.367188 449 726.484375 448.183594 C 725.105469 447.589844 723.773438 447.324219 722.519531 447.324219 C 719.796875 447.324219 717.199219 448.546875 714.890625 450.714844 C 712.570312 452.886719 710.574219 455.984375 709.183594 459.519531 C 708.085938 462.289062 706.441406 468.078125 706.441406 474.039062 C 706.441406 476.449219 706.730469 478.871094 707.359375 481.15625 C 701.28125 472.605469 704.375 461.082031 706.925781 455.75 C 705.957031 455.363281 704.964844 455.164062 703.953125 455.164062 C 703.894531 455.164062 703.828125 455.164062 703.78125 455.167969 C 700.738281 455.238281 697.882812 457.097656 695.707031 460.378906 C 693.542969 463.65625 692.167969 468.273438 692.179688 473.398438 L 692.179688 474.042969 C 692.25 477.75 693.050781 481.167969 694.320312 484.023438 C 691.308594 480.546875 688.070312 474.464844 689.628906 465.710938 C 689.230469 465.613281 688.84375 465.5625 688.457031 465.5625 L 688.429688 465.5625 C 688.191406 465.5625 687.960938 465.578125 687.71875 465.617188 C 685.980469 465.867188 684.441406 467 683.246094 468.949219 C 682.074219 470.882812 681.347656 473.570312 681.347656 476.5625 C 681.347656 477.464844 681.410156 478.390625 681.542969 479.332031 C 682.023438 482.714844 683.355469 485.664062 685.046875 487.695312 C 686.738281 489.738281 688.734375 490.800781 690.609375 490.800781 C 693.253906 490.800781 695.503906 489.269531 696.820312 488.175781 C 698.996094 490.886719 701.679688 492.386719 704.445312 492.386719 C 707.300781 492.386719 710.238281 490.714844 712.269531 489.183594 C 713.667969 490.402344 715.375 491.453125 717.476562 492.277344 C 719.253906 492.972656 720.921875 493.273438 722.480469 493.273438 C 737.445312 493.273438 736.128906 479.257812 734.292969 477.277344 "
       style=" stroke:none;fill-rule:nonzero;fill:rgb(0%,0%,0%);fill-opacity:1;" />
    <path
       id="path34"
       transform="matrix(1,0,0,-1,734.2916,477.2759)"
       d="M 0.00136875 -0.00144375 C 0.0482437 -2.044412 -1.861913 -8.345194 -6.647069 -8.345194 C -8.014256 -8.345194 -9.32285 -7.688944 -10.057225 -6.583475 C -10.783788 -5.489725 -11.061131 -4.145975 -11.061131 -2.622537 C -11.049413 0.693869 -9.717381 5.045431 -6.940038 9.979025 C -4.2291 14.74465 -2.733006 18.904806 -2.756444 22.014181 C -2.756444 23.654806 -3.131444 24.982931 -3.904881 26.131369 C -4.690038 27.271994 -5.924413 28.2759 -7.807225 29.092306 C -9.186131 29.686056 -10.518163 29.951681 -11.772069 29.951681 C -14.494725 29.951681 -17.092381 28.729025 -19.400975 26.561056 C -21.721288 24.389181 -23.717381 21.291525 -25.108006 17.756369 C -26.205663 14.986838 -27.850194 9.197775 -27.850194 3.236838 C -27.850194 0.826681 -27.561131 -1.595194 -26.932225 -3.88035 C -33.01035 4.670431 -29.9166 16.193869 -27.365819 21.5259 C -28.334569 21.912619 -29.326756 22.111838 -30.338475 22.111838 C -30.397069 22.111838 -30.463475 22.111838 -30.51035 22.107931 C -33.553319 22.037619 -36.408788 20.178244 -38.584569 16.896994 C -40.748631 13.61965 -42.123631 9.002463 -42.111913 3.877463 L -42.111913 3.232931 C -42.0416 -0.4741 -41.240819 -3.892069 -39.971288 -6.747537 C -42.983006 -3.270975 -46.221288 2.811056 -44.662694 11.564963 C -45.061131 11.662619 -45.44785 11.7134 -45.834569 11.7134 L -45.861913 11.7134 C -46.100194 11.7134 -46.330663 11.697775 -46.57285 11.658713 C -48.311131 11.408713 -49.850194 10.2759 -51.045506 8.326681 C -52.217381 6.393088 -52.943944 3.705588 -52.943944 0.7134 C -52.943944 -0.188944 -52.881444 -1.114725 -52.748631 -2.056131 C -52.268163 -5.438944 -50.936131 -8.388162 -49.244725 -10.419412 C -47.553319 -12.462381 -45.557225 -13.524881 -43.682225 -13.524881 C -41.037694 -13.524881 -38.787694 -11.993631 -37.471288 -10.899881 C -35.295506 -13.610819 -32.611913 -15.110819 -29.846288 -15.110819 C -26.990819 -15.110819 -24.053319 -13.438944 -22.022069 -11.907694 C -20.623631 -13.126444 -18.9166 -14.177225 -16.815038 -15.001444 C -15.037694 -15.696756 -13.369725 -15.997537 -11.811131 -15.997537 C 3.153712 -15.997537 1.837306 -1.981912 0.00136875 -0.00144375 Z M 0.00136875 -0.00144375 "
       style="fill:none;stroke-width:0.283;stroke-linecap:butt;stroke-linejoin:miter;stroke:rgb(0%,0%,0%);stroke-opacity:1;stroke-miterlimit:10;" />
    <path
       id="path36"
       transform="matrix(1,0,0,-1,749.7203,462.8286)"
       d="M -0.00155 0.000475 C -0.540613 1.961413 -2.208581 2.914538 -3.896081 2.914538 C -5.966394 2.914538 -8.079675 1.480944 -8.079675 -1.45265 C -8.079675 -4.409681 -5.985925 -5.843275 -3.87655 -5.843275 C -2.185144 -5.843275 -0.540613 -4.886244 -0.00155 -2.933119 "
       style="fill:none;stroke-width:1.417;stroke-linecap:butt;stroke-linejoin:miter;stroke:rgb(0%,0%,0%);stroke-opacity:1;stroke-miterlimit:10;" />
    <path
       id="path38"
       transform="matrix(1,0,0,-1,759.607,468.6724)"
       d="M -0.00153125 0.000525 C 2.228938 -0.0268187 4.459406 1.45365 4.459406 4.367713 C 4.459406 7.285681 2.248469 8.758338 0.0609688 8.758338 C -2.1695 8.758338 -4.376531 7.305213 -4.376531 4.367713 C -4.376531 1.477088 -2.189031 0.0200563 -0.00153125 0.000525 Z M -0.00153125 0.000525 "
       style="fill:none;stroke-width:1.417;stroke-linecap:butt;stroke-linejoin:miter;stroke:rgb(0%,0%,0%);stroke-opacity:1;stroke-miterlimit:10;" />
    <path
       id="path40"
       transform="matrix(1,0,0,-1,775.148,460.0249)"
       d="M 0.0004375 0.0014625 C -2.534719 0.747556 -4.948781 -1.096194 -4.948781 -3.752444 L -4.948781 -8.826662 "
       style="fill:none;stroke-width:1.417;stroke-linecap:butt;stroke-linejoin:miter;stroke:rgb(0%,0%,0%);stroke-opacity:1;stroke-miterlimit:10;" />
    <path
       id="path42"
       transform="matrix(1,0,0,-1,785.7662,468.8521)"
       d="M -0.000575 0.0005375 L -0.000575 5.000538 C -0.000575 7.301319 -0.594325 8.875538 -3.207606 8.918506 C -5.594325 8.965381 -6.914637 7.254444 -6.914637 5.094288 L -6.914637 0.0005375 "
       style="fill:none;stroke-width:1.417;stroke-linecap:butt;stroke-linejoin:miter;stroke:rgb(0%,0%,0%);stroke-opacity:1;stroke-miterlimit:10;" />
    <path
       id="path44"
       d="M 750.011719 474.644531 C 748.972656 474.644531 748.101562 474.988281 747.398438 475.675781 C 746.695312 476.363281 746.34375 477.210938 746.34375 478.21875 C 746.34375 479.480469 746.804688 480.519531 747.722656 481.335938 C 748.640625 482.152344 749.820312 482.558594 751.261719 482.558594 C 752.109375 482.558594 752.902344 482.398438 753.648438 482.082031 C 754.390625 481.761719 755.003906 481.320312 755.480469 480.761719 C 755.578125 480.648438 755.648438 480.574219 755.699219 480.53125 C 755.746094 480.492188 755.800781 480.472656 755.867188 480.472656 L 756.226562 480.472656 C 756.335938 480.472656 756.421875 480.515625 756.476562 480.605469 C 756.535156 480.691406 756.585938 480.863281 756.632812 481.121094 C 756.695312 481.441406 756.730469 481.800781 756.730469 482.199219 C 756.730469 483.6875 756.417969 485.035156 755.792969 486.242188 C 755.167969 487.449219 754.289062 488.410156 753.15625 489.132812 C 752.019531 489.851562 750.71875 490.210938 749.246094 490.210938 C 747.757812 490.210938 746.402344 489.859375 745.179688 489.15625 C 743.957031 488.453125 742.980469 487.445312 742.253906 486.132812 C 741.527344 484.820312 741.164062 483.328125 741.164062 481.648438 C 741.164062 480.082031 741.492188 478.675781 742.144531 477.4375 C 742.800781 476.199219 743.738281 475.222656 744.953125 474.511719 C 746.167969 473.800781 747.574219 473.445312 749.171875 473.445312 C 750.371094 473.445312 751.453125 473.640625 752.410156 474.03125 C 753.371094 474.425781 754.132812 474.980469 754.703125 475.699219 C 755.269531 476.417969 755.554688 477.242188 755.554688 478.171875 C 755.554688 479.242188 755.167969 480.101562 754.402344 480.75 C 753.636719 481.394531 752.621094 481.71875 751.355469 481.71875 C 750.589844 481.71875 749.890625 481.570312 749.257812 481.277344 C 748.625 480.980469 748.121094 480.566406 747.746094 480.03125 C 747.371094 479.492188 747.183594 478.882812 747.183594 478.195312 C 747.183594 477.332031 747.480469 476.644531 748.070312 476.132812 C 748.660156 475.621094 749.460938 475.363281 750.46875 475.363281 C 750.566406 475.269531 750.613281 475.164062 750.613281 475.050781 C 750.613281 474.925781 750.558594 474.824219 750.445312 474.753906 C 750.332031 474.679688 750.1875 474.644531 750.011719 474.644531 "
       style=" stroke:none;fill-rule:nonzero;fill:rgb(0%,0%,0%);fill-opacity:1;" />
    <path
       id="path46"
       transform="matrix(1,0,0,-1,750.0132,474.6441)"
       d="M -0.00148125 -0.00043125 C -1.040544 -0.00043125 -1.911637 -0.344181 -2.614762 -1.031681 C -3.317887 -1.719181 -3.66945 -2.566837 -3.66945 -3.57465 C -3.66945 -4.836369 -3.208512 -5.875431 -2.290544 -6.691837 C -1.372575 -7.508244 -0.192887 -7.914494 1.248519 -7.914494 C 2.096175 -7.914494 2.889144 -7.754337 3.635238 -7.437931 C 4.377425 -7.117619 4.990706 -6.676212 5.467269 -6.117619 C 5.564925 -6.004337 5.635238 -5.930119 5.686019 -5.88715 C 5.732894 -5.848087 5.787581 -5.828556 5.853988 -5.828556 L 6.213363 -5.828556 C 6.322738 -5.828556 6.408675 -5.871525 6.463363 -5.961369 C 6.521956 -6.047306 6.572738 -6.219181 6.619613 -6.476994 C 6.682113 -6.797306 6.717269 -7.156681 6.717269 -7.555119 C 6.717269 -9.0434 6.404769 -10.391056 5.779769 -11.598087 C 5.154769 -12.805119 4.275863 -13.766056 3.14305 -14.488712 C 2.006331 -15.207462 0.70555 -15.566837 -0.767106 -15.566837 C -2.255387 -15.566837 -3.610856 -15.215275 -4.833512 -14.51215 C -6.056169 -13.809025 -7.032731 -12.801212 -7.759294 -11.488712 C -8.485856 -10.176212 -8.849137 -8.684025 -8.849137 -7.004337 C -8.849137 -5.437931 -8.521012 -4.031681 -7.868669 -2.7934 C -7.212419 -1.555119 -6.274919 -0.578556 -5.060075 0.132381 C -3.845231 0.843319 -2.438981 1.198788 -0.841325 1.198788 C 0.357894 1.198788 1.439925 1.003475 2.396956 0.61285 C 3.357894 0.218319 4.119613 -0.336369 4.689925 -1.055119 C 5.256331 -1.773869 5.541488 -2.598087 5.541488 -3.527775 C 5.541488 -4.598087 5.154769 -5.457462 4.389144 -6.1059 C 3.623519 -6.750431 2.607894 -7.07465 1.342269 -7.07465 C 0.576644 -7.07465 -0.122575 -6.926212 -0.755387 -6.633244 C -1.3882 -6.336369 -1.892106 -5.922306 -2.267106 -5.38715 C -2.642106 -4.848087 -2.829606 -4.238712 -2.829606 -3.551212 C -2.829606 -2.687931 -2.532731 -2.000431 -1.942887 -1.488712 C -1.353044 -0.976994 -0.552262 -0.719181 0.45555 -0.719181 C 0.553206 -0.625431 0.600081 -0.519962 0.600081 -0.406681 C 0.600081 -0.281681 0.545394 -0.180119 0.432113 -0.109806 C 0.318831 -0.0355875 0.1743 -0.00043125 -0.00148125 -0.00043125 Z M -0.00148125 -0.00043125 "
       style="fill:none;stroke-width:0.283;stroke-linecap:butt;stroke-linejoin:miter;stroke:rgb(0%,0%,0%);stroke-opacity:1;stroke-miterlimit:10;" />
    <path
       id="path48"
       transform="matrix(1,0,0,-1,757.9283,475.5083)"
       d="M 0.0013875 0.0004875 C 0.0013875 0.559081 -0.0806438 0.988769 -0.2408 1.281738 C -0.39705 1.578613 -0.693925 1.855956 -1.127519 2.109863 C -1.2408 2.176269 -1.307206 2.22705 -1.330644 2.266113 C -1.354081 2.305175 -1.3658 2.359863 -1.3658 2.422363 L -1.3658 2.711425 C -1.3658 2.871581 -1.27205 2.949706 -1.080644 2.949706 L 5.1342 2.949706 C 5.438887 2.949706 5.649825 2.891113 5.770919 2.770019 C 5.888106 2.648925 5.9467 2.453613 5.9467 2.184081 L 5.9467 -3.284669 C 6.731856 -2.312012 7.817794 -1.823731 9.212325 -1.823731 C 10.360762 -1.823731 11.239669 -2.167481 11.849044 -2.854981 C 12.454512 -3.542481 12.7592 -4.515137 12.7592 -5.780762 L 12.7592 -13.526856 C 12.7592 -13.800294 12.700606 -13.995606 12.579512 -14.112794 C 12.462325 -14.233887 12.247481 -14.296387 11.9467 -14.296387 L 7.626387 -14.296387 C 7.3217 -14.296387 7.110762 -14.233887 6.993575 -14.112794 C 6.872481 -13.995606 6.813887 -13.800294 6.813887 -13.526856 L 6.813887 -5.276856 C 6.813887 -5.101075 6.770919 -4.956544 6.692794 -4.843262 C 6.610762 -4.733887 6.501387 -4.675294 6.356856 -4.675294 C 6.16545 -4.675294 6.028731 -4.7417 5.9467 -4.8667 L 5.9467 -13.526856 C 5.9467 -13.800294 5.888106 -13.995606 5.770919 -14.112794 C 5.649825 -14.233887 5.438887 -14.296387 5.1342 -14.296387 L 0.813887 -14.296387 C 0.513106 -14.296387 0.298262 -14.233887 0.181075 -14.112794 C 0.0599812 -13.995606 0.0013875 -13.800294 0.0013875 -13.526856 Z M 0.0013875 0.0004875 "
       style="fill-rule:nonzero;fill:rgb(0%,0%,0%);fill-opacity:1;stroke-width:0.283;stroke-linecap:butt;stroke-linejoin:miter;stroke:rgb(0%,0%,0%);stroke-opacity:1;stroke-miterlimit:10;" />
    <path
       id="path50"
       d="M 778.363281 482.609375 C 778.460938 482.734375 778.585938 482.800781 778.746094 482.800781 C 779.035156 482.800781 779.179688 482.640625 779.179688 482.320312 L 779.179688 478.914062 C 779.179688 478.59375 779.035156 478.433594 778.746094 478.433594 C 778.585938 478.433594 778.460938 478.5 778.363281 478.625 Z M 777.644531 484.261719 C 777.644531 484.628906 777.957031 484.96875 778.578125 485.28125 C 779.203125 485.59375 779.898438 485.75 780.664062 485.75 C 782.183594 485.75 783.433594 485.238281 784.40625 484.214844 C 784.503906 484.117188 784.570312 484.058594 784.613281 484.035156 C 784.652344 484.011719 784.710938 484 784.792969 484 L 785.078125 484 C 785.191406 484 785.265625 484.039062 785.308594 484.117188 C 785.347656 484.199219 785.367188 484.34375 785.367188 484.550781 C 785.367188 485.542969 785.097656 486.457031 784.5625 487.296875 C 784.027344 488.136719 783.269531 488.8125 782.285156 489.324219 C 781.300781 489.835938 780.203125 490.089844 778.988281 490.089844 C 777.691406 490.089844 776.523438 489.828125 775.484375 489.300781 C 774.445312 488.773438 773.617188 488.019531 773.003906 487.042969 C 772.386719 486.070312 772.078125 484.957031 772.078125 483.710938 C 772.078125 482.480469 772.367188 481.382812 772.941406 480.425781 C 773.519531 479.464844 774.339844 478.710938 775.402344 478.15625 C 776.464844 477.605469 777.707031 477.332031 779.132812 477.332031 C 780.203125 477.332031 781.164062 477.5 782.019531 477.835938 C 782.875 478.171875 783.550781 478.648438 784.046875 479.273438 C 784.542969 479.898438 784.792969 480.617188 784.792969 481.433594 C 784.792969 482.472656 784.414062 483.332031 783.664062 484.011719 C 782.914062 484.691406 781.960938 485.03125 780.808594 485.03125 C 779.660156 485.03125 778.722656 484.644531 778.003906 483.878906 C 777.910156 483.878906 777.824219 483.914062 777.753906 483.988281 C 777.679688 484.058594 777.644531 484.152344 777.644531 484.261719 "
       style=" stroke:none;fill-rule:nonzero;fill:rgb(0%,0%,0%);fill-opacity:1;" />
    <path
       id="path52"
       transform="matrix(1,0,0,-1,778.3638,482.6079)"
       d="M -0.00051875 -0.001475 C 0.0971375 -0.126475 0.222138 -0.192881 0.382294 -0.192881 C 0.671356 -0.192881 0.815888 -0.032725 0.815888 0.287588 L 0.815888 3.693838 C 0.815888 4.01415 0.671356 4.174306 0.382294 4.174306 C 0.222138 4.174306 0.0971375 4.1079 -0.00051875 3.9829 Z M -0.719269 -1.653819 C -0.719269 -2.021006 -0.406769 -2.36085 0.214325 -2.67335 C 0.839325 -2.98585 1.534638 -3.1421 2.300263 -3.1421 C 3.819794 -3.1421 5.069794 -2.630381 6.04245 -1.606944 C 6.140106 -1.509287 6.206513 -1.450694 6.249481 -1.427256 C 6.288544 -1.403819 6.347138 -1.3921 6.429169 -1.3921 L 6.714325 -1.3921 C 6.827606 -1.3921 6.901825 -1.431162 6.944794 -1.509287 C 6.983856 -1.591319 7.003388 -1.73585 7.003388 -1.942881 C 7.003388 -2.935069 6.733856 -3.849131 6.1987 -4.688975 C 5.663544 -5.528819 4.905731 -6.2046 3.921356 -6.716319 C 2.936981 -7.228037 1.839325 -7.481944 0.624481 -7.481944 C -0.672394 -7.481944 -1.840362 -7.220225 -2.879425 -6.692881 C -3.918487 -6.165537 -4.746612 -5.411631 -5.359894 -4.435069 C -5.977081 -3.462412 -6.285675 -2.349131 -6.285675 -1.103037 C -6.285675 0.127431 -5.996612 1.225088 -5.422394 2.182119 C -4.844269 3.143056 -4.023956 3.896963 -2.961456 4.45165 C -1.898956 5.002431 -0.656769 5.275869 0.769013 5.275869 C 1.839325 5.275869 2.800263 5.1079 3.655731 4.771963 C 4.5112 4.436025 5.186981 3.959463 5.683075 3.334463 C 6.179169 2.709463 6.429169 1.990713 6.429169 1.174306 C 6.429169 0.135244 6.050263 -0.724131 5.300263 -1.403819 C 4.550263 -2.083506 3.597138 -2.42335 2.444794 -2.42335 C 1.296356 -2.42335 0.358856 -2.036631 -0.359894 -1.271006 C -0.453644 -1.271006 -0.539581 -1.306162 -0.609894 -1.380381 C -0.684112 -1.450694 -0.719269 -1.544444 -0.719269 -1.653819 Z M -0.719269 -1.653819 "
       style="fill:none;stroke-width:0.283;stroke-linecap:butt;stroke-linejoin:miter;stroke:rgb(0%,0%,0%);stroke-opacity:1;stroke-miterlimit:10;" />
    <path
       id="path54"
       transform="matrix(1,0,0,-1,787.2134,477.6187)"
       d="M 0.00144375 0.0015125 C 1.376444 0.0015125 2.313944 -0.408644 2.806131 -1.22505 C 3.270975 -0.713331 3.790506 -0.330519 4.364725 -0.084425 C 4.94285 0.165575 5.603006 0.286669 6.356912 0.286669 C 7.524881 0.286669 8.481912 -0.0336437 9.235819 -0.670362 C 9.985819 -1.310987 10.360819 -2.127394 10.360819 -3.119581 C 10.360819 -3.947706 10.060037 -4.623487 9.450662 -5.146925 C 8.841287 -5.666456 8.060037 -5.924269 7.0991 -5.924269 C 6.157694 -5.924269 5.384256 -5.685987 4.7866 -5.205519 C 4.185037 -4.72505 3.884256 -4.119581 3.884256 -3.3813 C 3.884256 -2.7563 4.103006 -2.244581 4.532694 -1.846144 C 4.966287 -1.447706 5.517069 -1.248487 6.188944 -1.248487 C 6.235819 -1.166456 6.259256 -1.088331 6.259256 -1.0063 C 6.259256 -0.783644 6.091287 -0.670362 5.75535 -0.670362 C 5.052225 -0.670362 4.446756 -0.939894 3.935037 -1.47505 C 3.423319 -2.010206 3.165506 -2.654737 3.165506 -3.404737 C 3.165506 -4.045362 3.345194 -4.607862 3.704569 -5.096144 C 4.063944 -5.584425 4.579569 -5.971144 5.251444 -6.260206 C 5.478006 -6.353956 5.626444 -6.463331 5.696756 -6.584425 C 5.767069 -6.701612 5.806131 -6.908644 5.806131 -7.1938 L 5.806131 -11.416456 C 5.806131 -11.928175 5.532694 -12.185987 4.989725 -12.185987 L 0.118631 -12.185987 C -0.377463 -12.185987 -0.623556 -11.928175 -0.623556 -11.416456 L -0.623556 -2.951612 C -0.623556 -2.389112 -0.701681 -1.963331 -0.861838 -1.666456 C -1.021994 -1.369581 -1.318869 -1.096144 -1.752463 -0.838331 C -1.861838 -0.775831 -1.93215 -0.72505 -1.955588 -0.682081 C -1.979025 -0.643019 -1.990744 -0.592237 -1.990744 -0.525831 L -1.990744 -0.240675 C -1.990744 -0.0805187 -1.893088 0.0015125 -1.701681 0.0015125 Z M 0.00144375 0.0015125 "
       style="fill-rule:nonzero;fill:rgb(0%,0%,0%);fill-opacity:1;stroke-width:0.283;stroke-linecap:butt;stroke-linejoin:miter;stroke:rgb(0%,0%,0%);stroke-opacity:1;stroke-miterlimit:10;" />
    <path
       id="path56"
       transform="matrix(1,0,0,-1,799.23,477.6187)"
       d="M 0.00046875 0.0015125 C 1.375469 0.0015125 2.312969 -0.408644 2.805156 -1.22505 C 3.27 -0.713331 3.789531 -0.330519 4.36375 -0.084425 C 4.941875 0.165575 5.605937 0.286669 6.355937 0.286669 C 7.523906 0.286669 8.484844 -0.0336437 9.234844 -0.670362 C 9.984844 -1.310987 10.36375 -2.127394 10.36375 -3.119581 C 10.36375 -3.947706 10.059062 -4.623487 9.449687 -5.146925 C 8.844219 -5.666456 8.059062 -5.924269 7.098125 -5.924269 C 6.156719 -5.924269 5.383281 -5.685987 4.785625 -5.205519 C 4.184062 -4.72505 3.887187 -4.119581 3.887187 -3.3813 C 3.887187 -2.7563 4.102031 -2.244581 4.535625 -1.846144 C 4.965312 -1.447706 5.516094 -1.248487 6.187969 -1.248487 C 6.23875 -1.166456 6.262187 -1.088331 6.262187 -1.0063 C 6.262187 -0.783644 6.094219 -0.670362 5.758281 -0.670362 C 5.05125 -0.670362 4.445781 -0.939894 3.934062 -1.47505 C 3.422344 -2.010206 3.164531 -2.654737 3.164531 -3.404737 C 3.164531 -4.045362 3.348125 -4.607862 3.7075 -5.096144 C 4.066875 -5.584425 4.5825 -5.971144 5.254375 -6.260206 C 5.477031 -6.353956 5.625469 -6.463331 5.695781 -6.584425 C 5.77 -6.701612 5.805156 -6.908644 5.805156 -7.1938 L 5.805156 -11.416456 C 5.805156 -11.928175 5.531719 -12.185987 4.98875 -12.185987 L 0.121562 -12.185987 C -0.374531 -12.185987 -0.624531 -11.928175 -0.624531 -11.416456 L -0.624531 -2.951612 C -0.624531 -2.389112 -0.702656 -1.963331 -0.862813 -1.666456 C -1.022969 -1.369581 -1.319844 -1.096144 -1.749531 -0.838331 C -1.862813 -0.775831 -1.929219 -0.72505 -1.952656 -0.682081 C -1.98 -0.643019 -1.991719 -0.592237 -1.991719 -0.525831 L -1.991719 -0.240675 C -1.991719 -0.0805187 -1.894063 0.0015125 -1.702656 0.0015125 Z M 0.00046875 0.0015125 "
       style="fill-rule:nonzero;fill:rgb(0%,0%,0%);fill-opacity:1;stroke-width:0.283;stroke-linecap:butt;stroke-linejoin:miter;stroke:rgb(0%,0%,0%);stroke-opacity:1;stroke-miterlimit:10;" />
    <path
       id="path58"
       transform="matrix(1,0,0,-1,810.1441,479.7056)"
       d="M 0.00043125 -0.00143125 C -0.097225 0.272006 -0.230037 0.494663 -0.3941 0.670444 C -0.562069 0.846225 -0.815975 1.041538 -1.151912 1.248569 C -1.312069 1.342319 -1.390194 1.447788 -1.390194 1.561069 L -1.390194 1.846225 C -1.390194 2.006381 -1.296444 2.088413 -1.105037 2.088413 L 2.63715 2.088413 C 3.723088 2.088413 4.527775 2.002475 5.047306 1.834506 C 5.566838 1.666538 5.976994 1.373569 6.269963 0.959506 C 6.566838 0.545444 6.851994 -0.0717437 7.121525 -0.88815 L 9.426213 -7.841275 C 9.504338 -7.923306 9.601994 -7.962369 9.711369 -7.962369 C 9.953556 -7.962369 10.07465 -7.82565 10.07465 -7.556119 C 10.07465 -7.395962 10.008244 -7.130337 9.883244 -6.76315 L 7.723088 -0.1694 C 7.516056 0.471225 7.332463 0.889194 7.172306 1.0806 C 7.027775 1.256381 6.934025 1.369663 6.894963 1.428256 C 6.8559 1.482944 6.836369 1.54935 6.836369 1.631381 L 6.836369 1.846225 C 6.836369 2.006381 6.930119 2.088413 7.121525 2.088413 L 13.910588 2.088413 C 14.484806 2.088413 14.773869 1.877475 14.773869 1.463413 C 14.773869 1.0806 14.367619 -0.2319 13.551213 -2.470181 C 12.734806 -4.708462 11.625431 -7.556119 10.219181 -11.009244 C 9.703556 -12.270962 9.203556 -13.251431 8.707463 -13.946744 C 8.211369 -14.642056 7.664494 -15.13815 7.062931 -15.435025 C 6.465275 -15.727994 5.754338 -15.876431 4.941838 -15.876431 C 3.758244 -15.876431 2.801213 -15.614712 2.07465 -15.087369 C 1.348088 -14.560025 0.984806 -13.864712 0.984806 -13.001431 C 0.984806 -12.247525 1.277775 -11.642056 1.871525 -11.177212 C 2.461369 -10.712369 3.2309 -10.4819 4.172306 -10.4819 C 5.051213 -10.4819 5.769963 -10.692837 6.332463 -11.114712 C 6.891056 -11.540494 7.172306 -12.087369 7.172306 -12.759244 C 7.172306 -13.270962 7.000431 -13.665494 6.656681 -13.946744 C 6.312931 -14.227994 5.828556 -14.368619 5.203556 -14.368619 C 5.172306 -14.431119 5.156681 -14.501431 5.156681 -14.583462 C 5.156681 -14.806119 5.340275 -14.9194 5.707463 -14.9194 C 6.332463 -14.9194 6.851994 -14.704556 7.266056 -14.282681 C 7.684025 -13.860806 7.891056 -13.32565 7.891056 -12.688931 C 7.891056 -11.935025 7.625431 -11.317837 7.098088 -10.829556 C 6.570744 -10.341275 5.805119 -10.009244 4.797306 -9.833462 C 4.223088 -9.739712 3.844181 -9.610806 3.6684 -9.45065 C 3.492619 -9.290494 3.309025 -8.938931 3.117619 -8.395962 Z M 0.00043125 -0.00143125 "
       style="fill-rule:nonzero;fill:rgb(0%,0%,0%);fill-opacity:1;stroke-width:0.283;stroke-linecap:butt;stroke-linejoin:miter;stroke:rgb(0%,0%,0%);stroke-opacity:1;stroke-miterlimit:10;" />
    <path
       id="path60"
       transform="matrix(1,0,0,-1,789.6392,463.7944)"
       d="M 0.001425 0.00143125 L 7.938925 0.00143125 C 7.938925 2.005338 6.524863 3.880338 4.040488 3.880338 C 1.970175 3.880338 -0.143106 2.446744 -0.143106 -0.490756 C -0.143106 -3.443881 1.950644 -4.877475 4.063925 -4.877475 C 5.751425 -4.877475 7.395956 -3.920444 7.938925 -1.967319 "
       style="fill:none;stroke-width:1.417;stroke-linecap:butt;stroke-linejoin:miter;stroke:rgb(0%,0%,0%);stroke-opacity:1;stroke-miterlimit:10;" />
    <path
       id="path62"
       transform="matrix(1,0,0,-1,173.0723,194.3999)"
       d="M 0.00191875 0.0014625 C -0.267613 0.267088 -0.626988 0.415525 -1.001988 0.415525 L -156.919956 0.415525 C -157.701206 0.415525 -158.337925 1.048338 -158.337925 1.833494 L -158.337925 158.458494 C -158.337925 159.239744 -157.701206 159.876463 -156.919956 159.876463 L -52.029331 159.876463 C -51.248081 159.876463 -50.611363 160.509275 -50.611363 161.294431 L -50.611363 171.923338 C -50.611363 172.704588 -49.97855 173.341306 -49.193394 173.341306 L 1.83395 173.341306 C 2.6152 173.341306 3.251919 173.974119 3.251919 174.759275 L 3.251919 178.302244 C 3.251919 179.083494 3.884731 179.720213 4.665981 179.720213 L 52.861294 179.720213 C 53.642544 179.720213 54.275356 179.083494 54.275356 178.302244 L 54.275356 174.759275 C 54.275356 173.974119 54.912075 173.341306 55.693325 173.341306 L 106.720669 173.341306 C 107.505825 173.341306 108.138637 172.704588 108.138637 171.923338 L 108.138637 167.669431 C 108.138637 166.888181 108.775356 166.255369 109.556606 166.255369 L 160.58395 166.255369 C 161.3652 166.255369 162.001919 165.61865 162.001919 164.8374 L 162.001919 161.3374 C 162.08395 160.575681 162.665981 159.966306 163.419887 159.853025 L 219.408169 159.853025 C 220.193325 159.853025 220.826137 159.216306 220.826137 158.435056 L 220.826137 -8.697756 C 220.705044 -11.002444 220.009731 -13.240725 218.8027 -15.209475 L 181.279262 -80.518069 C 181.263637 -80.541506 181.251919 -80.561037 181.236294 -80.580569 C 180.447231 -81.69385 178.904262 -81.959475 177.790981 -81.170412 L 135.982387 -57.107912 C 135.724575 -57.018069 135.45895 -56.947756 135.185512 -56.900881 L 30.888637 -41.396975 C 30.52145 -41.361819 30.1777 -41.213381 29.89645 -40.9751 C 29.89645 -40.9751 -0.0098 0.0131813 0.00191875 0.0014625 Z M 0.00191875 0.0014625 "
       style="fill:none;stroke-width:0.283;stroke-linecap:round;stroke-linejoin:round;stroke:rgb(100%,0%,0%);stroke-opacity:1;stroke-miterlimit:10;" />
    <path
       id="path64"
       transform="matrix(1,0,0,-1,186.6505,189.7202)"
       d="M 0.00184375 0.00145 C 0.00184375 1.7202 1.396375 3.118638 3.119031 3.118638 C 4.841688 3.118638 6.236219 1.7202 6.236219 0.00145 C 6.236219 -1.721206 4.841688 -3.119644 3.119031 -3.119644 C 1.396375 -3.119644 0.00184375 -1.721206 0.00184375 0.00145 Z M 0.00184375 0.00145 "
       style="fill:none;stroke-width:0.283;stroke-linecap:round;stroke-linejoin:round;stroke:rgb(100%,0%,0%);stroke-opacity:1;stroke-miterlimit:10;" />
    <path
       id="path66"
       transform="matrix(1,0,0,-1,279.5655,77.0513)"
       d="M 0.00090625 0.00051875 C 0.00090625 1.723175 1.395438 3.117706 3.118094 3.117706 C 4.84075 3.117706 6.235281 1.723175 6.235281 0.00051875 C 6.235281 -1.722138 4.84075 -3.116669 3.118094 -3.116669 C 1.395438 -3.116669 0.00090625 -1.722138 0.00090625 0.00051875 Z M 0.00090625 0.00051875 "
       style="fill:none;stroke-width:0.283;stroke-linecap:round;stroke-linejoin:round;stroke:rgb(100%,0%,0%);stroke-opacity:1;stroke-miterlimit:10;" />
    <path
       id="path68"
       transform="matrix(1,0,0,-1,64.0704,87.3189)"
       d="M -0.0000875 -0.0014125 C -0.0000875 1.721244 1.394444 3.119681 3.1171 3.119681 C 4.839756 3.119681 6.238194 1.721244 6.238194 -0.0014125 C 6.238194 -1.724069 4.839756 -3.1186 3.1171 -3.1186 C 1.394444 -3.1186 -0.0000875 -1.724069 -0.0000875 -0.0014125 Z M -0.0000875 -0.0014125 "
       style="fill:none;stroke-width:0.283;stroke-linecap:round;stroke-linejoin:round;stroke:rgb(100%,0%,0%);stroke-opacity:1;stroke-miterlimit:10;" />
    <path
       id="path70"
       transform="matrix(1,0,0,-1,64.0455,141.2202)"
       d="M 0.001375 0.00145 C 0.001375 1.724106 1.395906 3.118638 3.118562 3.118638 C 4.841219 3.118638 6.23575 1.724106 6.23575 0.00145 C 6.23575 -1.721206 4.841219 -3.119644 3.118562 -3.119644 C 1.395906 -3.119644 0.001375 -1.721206 0.001375 0.00145 Z M 0.001375 0.00145 "
       style="fill:none;stroke-width:0.283;stroke-linecap:round;stroke-linejoin:round;stroke:rgb(100%,0%,0%);stroke-opacity:1;stroke-miterlimit:10;" />
    <path
       id="path72"
       transform="matrix(1,0,0,-1,318.5181,211.7017)"
       d="M 0.00143125 -0.001425 C 0.00143125 1.721231 1.395963 3.119669 3.118619 3.119669 C 4.841275 3.119669 6.235806 1.721231 6.235806 -0.001425 C 6.235806 -1.720175 4.841275 -3.118612 3.118619 -3.118612 C 1.395963 -3.118612 0.00143125 -1.720175 0.00143125 -0.001425 Z M 0.00143125 -0.001425 "
       style="fill:none;stroke-width:0.283;stroke-linecap:round;stroke-linejoin:round;stroke:rgb(100%,0%,0%);stroke-opacity:1;stroke-miterlimit:10;" />
    <path
       id="path74"
       transform="matrix(1,0,0,-1,598.023,201.3999)"
       d="M 0.0004375 0.0014625 C -0.265188 0.267088 -0.624563 0.415525 -1.003469 0.415525 L -156.917531 0.415525 C -157.702688 0.415525 -158.3355 1.048338 -158.3355 1.833494 L -158.3355 158.458494 C -158.3355 159.239744 -157.702688 159.876463 -156.917531 159.876463 L -52.030813 159.876463 C -51.245656 159.876463 -50.612844 160.509275 -50.612844 161.294431 L -50.612844 171.923338 C -50.612844 172.704588 -49.976125 173.341306 -49.194875 173.341306 L 1.832469 173.341306 C 2.613719 173.341306 3.250437 173.974119 3.250437 174.759275 L 3.250437 178.302244 C 3.250437 179.083494 3.88325 179.720213 4.668406 179.720213 L 52.859812 179.720213 C 53.641062 179.720213 54.277781 179.083494 54.277781 178.302244 L 54.277781 174.759275 C 54.277781 173.974119 54.910594 173.341306 55.69575 173.341306 L 106.723094 173.341306 C 107.504344 173.341306 108.141062 172.704588 108.141062 171.923338 L 108.141062 167.669431 C 108.141062 166.888181 108.773875 166.255369 109.555125 166.255369 L 160.582469 166.255369 C 161.367625 166.255369 162.000437 165.61865 162.000437 164.8374 L 162.000437 23.704588 C 162.230906 22.61865 162.809031 21.634275 163.641062 20.8999 L 217.715281 -10.389162 C 219.211375 -11.510256 219.672312 -13.553225 218.801219 -15.209475 L 181.277781 -80.518069 C 181.266062 -80.541506 181.250437 -80.561037 181.238719 -80.580569 C 180.449656 -81.69385 178.906687 -81.959475 177.793406 -81.170412 L 135.980906 -57.107912 C 135.723094 -57.018069 135.457469 -56.947756 135.187937 -56.900881 L 30.891062 -41.396975 C 30.523875 -41.361819 30.176219 -41.213381 29.898875 -40.9751 C 29.898875 -40.9751 -0.0112813 0.0131813 0.0004375 0.0014625 Z M 0.0004375 0.0014625 "
       style="fill:none;stroke-width:0.283;stroke-linecap:butt;stroke-linejoin:miter;stroke:rgb(100%,0%,0%);stroke-opacity:1;stroke-miterlimit:10;" />
    <path
       id="path76"
       transform="matrix(1,0,0,-1,704.5162,84.0474)"
       d="M -0.000575 0.000525 C -0.000575 1.723181 1.397863 3.117713 3.116613 3.117713 C 4.839269 3.117713 6.237706 1.723181 6.237706 0.000525 C 6.237706 -1.722131 4.839269 -3.116662 3.116613 -3.116662 C 1.397863 -3.116662 -0.000575 -1.722131 -0.000575 0.000525 Z M -0.000575 0.000525 "
       style="fill:none;stroke-width:0.283;stroke-linecap:round;stroke-linejoin:round;stroke:rgb(100%,0%,0%);stroke-opacity:1;stroke-miterlimit:10;" />
    <path
       id="path78"
       transform="matrix(1,0,0,-1,489.0211,94.315)"
       d="M -0.00156875 -0.00140625 C -0.00156875 1.72125 1.396869 3.119688 3.119525 3.119688 C 4.842181 3.119688 6.236713 1.72125 6.236713 -0.00140625 C 6.236713 -1.724062 4.842181 -3.118594 3.119525 -3.118594 C 1.396869 -3.118594 -0.00156875 -1.724062 -0.00156875 -0.00140625 Z M -0.00156875 -0.00140625 "
       style="fill:none;stroke-width:0.283;stroke-linecap:round;stroke-linejoin:round;stroke:rgb(100%,0%,0%);stroke-opacity:1;stroke-miterlimit:10;" />
    <path
       id="path80"
       transform="matrix(1,0,0,-1,488.9962,148.2163)"
       d="M -0.00010625 0.00145625 C -0.00010625 1.720206 1.394425 3.118644 3.117081 3.118644 C 4.839738 3.118644 6.238175 1.720206 6.238175 0.00145625 C 6.238175 -1.7212 4.839738 -3.119637 3.117081 -3.119637 C 1.394425 -3.119637 -0.00010625 -1.7212 -0.00010625 0.00145625 Z M -0.00010625 0.00145625 "
       style="fill:none;stroke-width:0.283;stroke-linecap:round;stroke-linejoin:round;stroke:rgb(100%,0%,0%);stroke-opacity:1;stroke-miterlimit:10;" />
    <path
       id="path82"
       transform="matrix(1,0,0,-1,743.4693,218.6978)"
       d="M -0.00055 -0.00141875 C -0.00055 1.721238 1.397888 3.119675 3.116638 3.119675 C 4.839294 3.119675 6.237731 1.721238 6.237731 -0.00141875 C 6.237731 -1.724075 4.839294 -3.118606 3.116638 -3.118606 C 1.397888 -3.118606 -0.00055 -1.724075 -0.00055 -0.00141875 Z M -0.00055 -0.00141875 "
       style="fill:none;stroke-width:0.283;stroke-linecap:round;stroke-linejoin:round;stroke:rgb(100%,0%,0%);stroke-opacity:1;stroke-miterlimit:10;" />
    <path
       id="path84"
       transform="matrix(1,0,0,-1,611.6011,196.7163)"
       d="M 0.0004625 0.00145625 C 0.0004625 1.720206 1.394994 3.118644 3.11765 3.118644 C 4.840306 3.118644 6.238744 1.720206 6.238744 0.00145625 C 6.238744 -1.7212 4.840306 -3.119637 3.11765 -3.119637 C 1.394994 -3.119637 0.0004625 -1.7212 0.0004625 0.00145625 Z M 0.0004625 0.00145625 "
       style="fill:none;stroke-width:0.283;stroke-linecap:round;stroke-linejoin:round;stroke:rgb(100%,0%,0%);stroke-opacity:1;stroke-miterlimit:10;" />
    <path
       id="path86"
       transform="matrix(1,0,0,-1,0,595.276)"
       d="M 445.554688 508.279906 L 484.816406 508.279906 L 484.816406 547.541625 L 445.554688 547.541625 Z M 445.554688 508.279906 "
       style="fill:none;stroke-width:0.283;stroke-linecap:round;stroke-linejoin:round;stroke:rgb(100%,0%,0%);stroke-opacity:1;stroke-miterlimit:10;" />
    <path
       id="path88"
       transform="matrix(1,0,0,-1,0,595.276)"
       d="M 445.554688 454.416625 L 484.816406 454.416625 L 484.816406 493.68225 L 445.554688 493.68225 Z M 445.554688 454.416625 "
       style="fill:none;stroke-width:0.283;stroke-linecap:round;stroke-linejoin:round;stroke:rgb(100%,0%,0%);stroke-opacity:1;stroke-miterlimit:10;" />
    <path
       id="path90"
       transform="matrix(1,0,0,-1,0,595.276)"
       d="M 445.554688 400.55725 L 484.816406 400.55725 L 484.816406 439.818969 L 445.554688 439.818969 Z M 445.554688 400.55725 "
       style="fill:none;stroke-width:0.283;stroke-linecap:round;stroke-linejoin:round;stroke:rgb(100%,0%,0%);stroke-opacity:1;stroke-miterlimit:10;" />
    <path
       id="path92"
       transform="matrix(1,0,0,-1,0,595.276)"
       d="M 499.417969 508.279906 L 538.679688 508.279906 L 538.679688 547.541625 L 499.417969 547.541625 Z M 499.417969 508.279906 "
       style="fill:none;stroke-width:0.283;stroke-linecap:round;stroke-linejoin:round;stroke:rgb(100%,0%,0%);stroke-opacity:1;stroke-miterlimit:10;" />
    <path
       id="path94"
       transform="matrix(1,0,0,-1,0,595.276)"
       d="M 499.417969 454.416625 L 538.679688 454.416625 L 538.679688 493.68225 L 499.417969 493.68225 Z M 499.417969 454.416625 "
       style="fill:none;stroke-width:0.283;stroke-linecap:round;stroke-linejoin:round;stroke:rgb(100%,0%,0%);stroke-opacity:1;stroke-miterlimit:10;" />
    <path
       id="path96"
       transform="matrix(1,0,0,-1,0,595.276)"
       d="M 499.417969 400.55725 L 538.679688 400.55725 L 538.679688 439.818969 L 499.417969 439.818969 Z M 499.417969 400.55725 "
       style="fill:none;stroke-width:0.283;stroke-linecap:round;stroke-linejoin:round;stroke:rgb(100%,0%,0%);stroke-opacity:1;stroke-miterlimit:10;" />
    <path
       id="path98"
       transform="matrix(1,0,0,-1,0,595.276)"
       d="M 553.277344 521.74475 L 592.542969 521.74475 L 592.542969 561.006469 L 553.277344 561.006469 Z M 553.277344 521.74475 "
       style="fill:none;stroke-width:0.283;stroke-linecap:round;stroke-linejoin:round;stroke:rgb(100%,0%,0%);stroke-opacity:1;stroke-miterlimit:10;" />
    <path
       id="path100"
       transform="matrix(1,0,0,-1,0,595.276)"
       d="M 553.277344 467.881469 L 592.542969 467.881469 L 592.542969 507.147094 L 553.277344 507.147094 Z M 553.277344 467.881469 "
       style="fill:none;stroke-width:0.283;stroke-linecap:round;stroke-linejoin:round;stroke:rgb(100%,0%,0%);stroke-opacity:1;stroke-miterlimit:10;" />
    <path
       id="path102"
       transform="matrix(1,0,0,-1,0,595.276)"
       d="M 553.277344 414.022094 L 592.542969 414.022094 L 592.542969 453.283813 L 553.277344 453.283813 Z M 553.277344 414.022094 "
       style="fill:none;stroke-width:0.283;stroke-linecap:round;stroke-linejoin:round;stroke:rgb(100%,0%,0%);stroke-opacity:1;stroke-miterlimit:10;" />
    <path
       id="path104"
       transform="matrix(1,0,0,-1,0,595.276)"
       d="M 607.140625 528.479125 L 646.402344 528.479125 L 646.402344 567.740844 L 607.140625 567.740844 Z M 607.140625 528.479125 "
       style="fill:none;stroke-width:0.283;stroke-linecap:round;stroke-linejoin:round;stroke:rgb(100%,0%,0%);stroke-opacity:1;stroke-miterlimit:10;" />
    <path
       id="path106"
       transform="matrix(1,0,0,-1,0,595.276)"
       d="M 607.140625 474.615844 L 646.402344 474.615844 L 646.402344 513.877563 L 607.140625 513.877563 Z M 607.140625 474.615844 "
       style="fill:none;stroke-width:0.283;stroke-linecap:round;stroke-linejoin:round;stroke:rgb(100%,0%,0%);stroke-opacity:1;stroke-miterlimit:10;" />
    <path
       id="path108"
       transform="matrix(1,0,0,-1,0,595.276)"
       d="M 607.140625 420.752563 L 646.402344 420.752563 L 646.402344 460.018188 L 607.140625 460.018188 Z M 607.140625 420.752563 "
       style="fill:none;stroke-width:0.283;stroke-linecap:round;stroke-linejoin:round;stroke:rgb(100%,0%,0%);stroke-opacity:1;stroke-miterlimit:10;" />
    <path
       id="path110"
       transform="matrix(1,0,0,-1,0,595.276)"
       d="M 661.003906 521.74475 L 700.265625 521.74475 L 700.265625 561.006469 L 661.003906 561.006469 Z M 661.003906 521.74475 "
       style="fill:none;stroke-width:0.283;stroke-linecap:round;stroke-linejoin:round;stroke:rgb(100%,0%,0%);stroke-opacity:1;stroke-miterlimit:10;" />
    <path
       id="path112"
       transform="matrix(1,0,0,-1,0,595.276)"
       d="M 661.003906 467.881469 L 700.265625 467.881469 L 700.265625 507.147094 L 661.003906 507.147094 Z M 661.003906 467.881469 "
       style="fill:none;stroke-width:0.283;stroke-linecap:round;stroke-linejoin:round;stroke:rgb(100%,0%,0%);stroke-opacity:1;stroke-miterlimit:10;" />
    <path
       id="path114"
       transform="matrix(1,0,0,-1,0,595.276)"
       d="M 661.003906 414.022094 L 700.265625 414.022094 L 700.265625 453.283813 L 661.003906 453.283813 Z M 661.003906 414.022094 "
       style="fill:none;stroke-width:0.283;stroke-linecap:round;stroke-linejoin:round;stroke:rgb(100%,0%,0%);stroke-opacity:1;stroke-miterlimit:10;" />
    <path
       id="path116"
       transform="matrix(1,0,0,-1,0,595.276)"
       d="M 714.863281 515.014281 L 754.128906 515.014281 L 754.128906 554.276 L 714.863281 554.276 Z M 714.863281 515.014281 "
       style="fill:none;stroke-width:0.283;stroke-linecap:round;stroke-linejoin:round;stroke:rgb(100%,0%,0%);stroke-opacity:1;stroke-miterlimit:10;" />
    <path
       id="path118"
       transform="matrix(1,0,0,-1,0,595.276)"
       d="M 714.863281 461.151 L 754.128906 461.151 L 754.128906 500.412719 L 714.863281 500.412719 Z M 714.863281 461.151 "
       style="fill:none;stroke-width:0.283;stroke-linecap:round;stroke-linejoin:round;stroke:rgb(100%,0%,0%);stroke-opacity:1;stroke-miterlimit:10;" />
    <path
       id="path120"
       transform="matrix(1,0,0,-1,0,595.276)"
       d="M 714.863281 407.287719 L 754.128906 407.287719 L 754.128906 446.549438 L 714.863281 446.549438 Z M 714.863281 407.287719 "
       style="fill:none;stroke-width:0.283;stroke-linecap:round;stroke-linejoin:round;stroke:rgb(100%,0%,0%);stroke-opacity:1;stroke-miterlimit:10;" />
    <path
       id="path122"
       transform="matrix(1,0,0,-1,0,595.276)"
       d="M 634.070312 358.389281 L 673.335938 358.389281 L 673.335938 397.651 L 634.070312 397.651 Z M 634.070312 358.389281 "
       style="fill:none;stroke-width:0.283;stroke-linecap:round;stroke-linejoin:round;stroke:rgb(100%,0%,0%);stroke-opacity:1;stroke-miterlimit:10;" />
    <path
       id="path124"
       transform="matrix(1,0,0,-1,699.3511,201.0259)"
       d="M 0.0004625 -0.00144375 L -10.124537 -37.935037 L 27.812963 -48.060037 L 37.934056 -10.122537 Z M 0.0004625 -0.00144375 "
       style="fill:none;stroke-width:0.283;stroke-linecap:round;stroke-linejoin:round;stroke:rgb(100%,0%,0%);stroke-opacity:1;stroke-miterlimit:10;" />
    <path
       id="path126"
       transform="matrix(1,0,0,-1,769.1197,208.854)"
       d="M 0.00139375 -0.00146875 L -19.607981 -34.017094 L 14.407644 -53.622562 L 34.017019 -19.606937 Z M 0.00139375 -0.00146875 "
       style="fill:none;stroke-width:0.283;stroke-linecap:round;stroke-linejoin:round;stroke:rgb(100%,0%,0%);stroke-opacity:1;stroke-miterlimit:10;" />
    <path
       id="path128"
       transform="matrix(1,0,0,-1,669.5904,498.9595)"
       d="M -0.00055625 -0.0014375 C 0.265069 0.264188 0.624444 0.416531 1.00335 0.416531 L 156.917412 0.416531 C 157.702569 0.416531 158.335381 1.049344 158.335381 1.830594 L 158.335381 158.4595 C 158.335381 159.24075 157.702569 159.873563 156.917412 159.873563 L 52.030694 159.873563 C 51.245537 159.873563 50.612725 160.510281 50.612725 161.291531 L 50.612725 171.924344 C 50.612725 172.705594 49.979912 173.342313 49.194756 173.342313 L -1.832588 173.342313 C -2.613838 173.342313 -3.250556 173.975125 -3.250556 174.756375 L -3.250556 178.30325 C -3.250556 179.0845 -3.883369 179.717313 -4.668525 179.717313 L -52.859931 179.717313 C -53.641181 179.717313 -54.2779 179.0845 -54.2779 178.30325 L -54.2779 174.756375 C -54.2779 173.975125 -54.910713 173.342313 -55.695869 173.342313 L -106.723213 173.342313 C -107.504463 173.342313 -108.141181 172.705594 -108.141181 171.924344 L -108.141181 167.670438 C -108.141181 166.889188 -108.773994 166.252469 -109.555244 166.252469 L -160.582588 166.252469 C -161.367744 166.252469 -162.000556 165.619656 -162.000556 164.8345 L -162.000556 161.3345 C -162.082588 160.576688 -162.664619 159.967313 -163.422431 159.854031 L -219.410713 159.854031 C -220.191963 159.854031 -220.828681 159.217313 -220.828681 158.436063 L -220.828681 -8.69675 C -220.703681 -11.001437 -220.008369 -13.243625 -218.801338 -15.208469 L -181.2779 -80.520969 C -181.266181 -80.5405 -181.250556 -80.560031 -181.238838 -80.579562 C -180.449775 -81.69675 -178.906806 -81.958469 -177.793525 -81.173312 L -135.981025 -57.106906 C -135.723213 -57.017062 -135.457588 -56.950656 -135.188056 -56.903781 L -30.891181 -41.399875 C -30.523994 -41.360812 -30.176338 -41.212375 -29.895088 -40.974094 C -29.895088 -40.974094 0.0111625 0.0141875 -0.00055625 -0.0014375 Z M -0.00055625 -0.0014375 "
       style="fill:none;stroke-width:0.283;stroke-linecap:round;stroke-linejoin:round;stroke:rgb(100%,0%,0%);stroke-opacity:1;stroke-miterlimit:10;" />
    <path
       id="path130"
       transform="matrix(1,0,0,-1,656.0123,494.2798)"
       d="M -0.00058125 -0.00145 C -0.00058125 1.721206 -1.395112 3.119644 -3.117769 3.119644 C -4.840425 3.119644 -6.238862 1.721206 -6.238862 -0.00145 C -6.238862 -1.724106 -4.840425 -3.118637 -3.117769 -3.118637 C -1.395112 -3.118637 -0.00058125 -1.724106 -0.00058125 -0.00145 Z M -0.00058125 -0.00145 "
       style="fill:none;stroke-width:0.283;stroke-linecap:round;stroke-linejoin:round;stroke:rgb(100%,0%,0%);stroke-opacity:1;stroke-miterlimit:10;" />
    <path
       id="path132"
       transform="matrix(1,0,0,-1,563.0972,381.6109)"
       d="M 0.00045625 0.001525 C 0.00045625 1.724181 -1.394075 3.118713 -3.120637 3.118713 C -4.839387 3.118713 -6.237825 1.724181 -6.237825 0.001525 C -6.237825 -1.721131 -4.839387 -3.119569 -3.120637 -3.119569 C -1.394075 -3.119569 0.00045625 -1.721131 0.00045625 0.001525 Z M 0.00045625 0.001525 "
       style="fill:none;stroke-width:0.283;stroke-linecap:round;stroke-linejoin:round;stroke:rgb(100%,0%,0%);stroke-opacity:1;stroke-miterlimit:10;" />
    <path
       id="path134"
       transform="matrix(1,0,0,-1,778.5923,391.8794)"
       d="M 0.00145 0.00049375 C 0.00145 1.72315 -1.396988 3.117681 -3.119644 3.117681 C -4.8423 3.117681 -6.236831 1.72315 -6.236831 0.00049375 C -6.236831 -1.722162 -4.8423 -3.116694 -3.119644 -3.116694 C -1.396988 -3.116694 0.00145 -1.722162 0.00145 0.00049375 Z M 0.00145 0.00049375 "
       style="fill:none;stroke-width:0.283;stroke-linecap:round;stroke-linejoin:round;stroke:rgb(100%,0%,0%);stroke-opacity:1;stroke-miterlimit:10;" />
    <path
       id="path136"
       transform="matrix(1,0,0,-1,778.6168,445.7798)"
       d="M 0.0003875 -0.00145 C 0.0003875 1.721206 -1.394144 3.119644 -3.1168 3.119644 C -4.839456 3.119644 -6.237894 1.721206 -6.237894 -0.00145 C -6.237894 -1.724106 -4.839456 -3.118637 -3.1168 -3.118637 C -1.394144 -3.118637 0.0003875 -1.724106 0.0003875 -0.00145 Z M 0.0003875 -0.00145 "
       style="fill:none;stroke-width:0.283;stroke-linecap:round;stroke-linejoin:round;stroke:rgb(100%,0%,0%);stroke-opacity:1;stroke-miterlimit:10;" />
    <path
       id="path138"
       transform="matrix(1,0,0,-1,524.1441,516.2612)"
       d="M 0.00043125 -0.00051875 C 0.00043125 1.722138 -1.3941 3.116669 -3.116756 3.116669 C -4.839412 3.116669 -6.23785 1.722138 -6.23785 -0.00051875 C -6.23785 -1.723175 -4.839412 -3.117706 -3.116756 -3.117706 C -1.3941 -3.117706 0.00043125 -1.723175 0.00043125 -0.00051875 Z M 0.00043125 -0.00051875 "
       style="fill:none;stroke-width:0.283;stroke-linecap:round;stroke-linejoin:round;stroke:rgb(100%,0%,0%);stroke-opacity:1;stroke-miterlimit:10;" />
    <path
       id="path140"
       transform="matrix(1,0,0,-1,244.6397,501.9595)"
       d="M 0.000925 -0.0014375 C 0.26655 0.264188 0.625925 0.416531 1.000925 0.416531 L 156.918894 0.416531 C 157.700144 0.416531 158.336863 1.049344 158.336863 1.830594 L 158.336863 158.4595 C 158.336863 159.24075 157.700144 159.873563 156.918894 159.873563 L 52.028269 159.873563 C 51.247019 159.873563 50.6103 160.510281 50.6103 161.291531 L 50.6103 171.924344 C 50.6103 172.705594 49.977488 173.342313 49.192331 173.342313 L -1.831106 173.342313 C -2.616262 173.342313 -3.249075 173.975125 -3.249075 174.756375 L -3.249075 178.30325 C -3.249075 179.0845 -3.885794 179.717313 -4.667044 179.717313 L -52.85845 179.717313 C -53.643606 179.717313 -54.276419 179.0845 -54.276419 178.30325 L -54.276419 174.756375 C -54.276419 173.975125 -54.913137 173.342313 -55.694387 173.342313 L -106.721731 173.342313 C -107.506887 173.342313 -108.1397 172.705594 -108.1397 171.924344 L -108.1397 167.670438 C -108.1397 166.889188 -108.772512 166.252469 -109.557669 166.252469 L -160.585012 166.252469 C -161.366262 166.252469 -161.999075 165.619656 -161.999075 164.8345 L -161.999075 23.705594 C -162.23345 22.61575 -162.807669 21.635281 -163.6397 20.897 L -217.717825 -10.388156 C -219.213919 -11.513156 -219.67095 -13.556125 -218.803762 -15.208469 L -181.280325 -80.520969 C -181.2647 -80.5405 -181.249075 -80.560031 -181.237356 -80.579562 C -180.448294 -81.69675 -178.905325 -81.958469 -177.792044 -81.173312 L -135.979544 -57.106906 C -135.721731 -57.017062 -135.456106 -56.950656 -135.186575 -56.903781 L -30.8897 -41.399875 C -30.522512 -41.360812 -30.178762 -41.212375 -29.897512 -40.974094 C -29.897512 -40.974094 0.0087375 0.0141875 0.000925 -0.0014375 Z M 0.000925 -0.0014375 "
       style="fill:none;stroke-width:0.283;stroke-linecap:butt;stroke-linejoin:miter;stroke:rgb(100%,0%,0%);stroke-opacity:1;stroke-miterlimit:10;" />
    <path
       id="path142"
       transform="matrix(1,0,0,-1,138.1465,384.6069)"
       d="M 0.0019375 0.00143125 C 0.0019375 1.724088 -1.3965 3.118619 -3.119156 3.118619 C -4.841812 3.118619 -6.236344 1.724088 -6.236344 0.00143125 C -6.236344 -1.721225 -4.841812 -3.119662 -3.119156 -3.119662 C -1.3965 -3.119662 0.0019375 -1.721225 0.0019375 0.00143125 Z M 0.0019375 0.00143125 "
       style="fill:none;stroke-width:0.283;stroke-linecap:round;stroke-linejoin:round;stroke:rgb(100%,0%,0%);stroke-opacity:1;stroke-miterlimit:10;" />
    <path
       id="path144"
       transform="matrix(1,0,0,-1,353.6412,394.8755)"
       d="M -0.000575 0.0005 C -0.000575 1.723156 -1.395106 3.117688 -3.117763 3.117688 C -4.840419 3.117688 -6.23495 1.723156 -6.23495 0.0005 C -6.23495 -1.722156 -4.840419 -3.116687 -3.117763 -3.116687 C -1.395106 -3.116687 -0.000575 -1.722156 -0.000575 0.0005 Z M -0.000575 0.0005 "
       style="fill:none;stroke-width:0.283;stroke-linecap:round;stroke-linejoin:round;stroke:rgb(100%,0%,0%);stroke-opacity:1;stroke-miterlimit:10;" />
    <path
       id="path146"
       transform="matrix(1,0,0,-1,353.6661,448.7759)"
       d="M 0.00186875 -0.00144375 C 0.00186875 1.721213 -1.396569 3.11965 -3.119225 3.11965 C -4.841881 3.11965 -6.236412 1.721213 -6.236412 -0.00144375 C -6.236412 -1.7241 -4.841881 -3.118631 -3.119225 -3.118631 C -1.396569 -3.118631 0.00186875 -1.7241 0.00186875 -0.00144375 Z M 0.00186875 -0.00144375 "
       style="fill:none;stroke-width:0.283;stroke-linecap:round;stroke-linejoin:round;stroke:rgb(100%,0%,0%);stroke-opacity:1;stroke-miterlimit:10;" />
    <path
       id="path148"
       transform="matrix(1,0,0,-1,99.1934,519.2573)"
       d="M 0.0019125 -0.0005125 C 0.0019125 1.722144 -1.396525 3.116675 -3.119181 3.116675 C -4.841837 3.116675 -6.236369 1.722144 -6.236369 -0.0005125 C -6.236369 -1.723169 -4.841837 -3.1177 -3.119181 -3.1177 C -1.396525 -3.1177 0.0019125 -1.723169 0.0019125 -0.0005125 Z M 0.0019125 -0.0005125 "
       style="fill:none;stroke-width:0.283;stroke-linecap:round;stroke-linejoin:round;stroke:rgb(100%,0%,0%);stroke-opacity:1;stroke-miterlimit:10;" />
    <path
       id="path150"
       transform="matrix(1,0,0,-1,231.0611,497.2759)"
       d="M 0.0014 -0.00144375 C 0.0014 1.721213 -1.397038 3.11965 -3.119694 3.11965 C -4.838444 3.11965 -6.236881 1.721213 -6.236881 -0.00144375 C -6.236881 -1.7241 -4.838444 -3.118631 -3.119694 -3.118631 C -1.397038 -3.118631 0.0014 -1.7241 0.0014 -0.00144375 Z M 0.0014 -0.00144375 "
       style="fill:none;stroke-width:0.283;stroke-linecap:round;stroke-linejoin:round;stroke:rgb(100%,0%,0%);stroke-opacity:1;stroke-miterlimit:10;" />
    <path
       id="path152"
       transform="matrix(1,0,0,-1,0,595.276)"
       d="M 397.109375 207.721313 L 357.847656 207.721313 L 357.847656 246.983031 L 397.109375 246.983031 Z M 397.109375 207.721313 "
       style="fill:none;stroke-width:0.283;stroke-linecap:round;stroke-linejoin:round;stroke:rgb(100%,0%,0%);stroke-opacity:1;stroke-miterlimit:10;" />
    <path
       id="path154"
       transform="matrix(1,0,0,-1,0,595.276)"
       d="M 397.109375 153.858031 L 357.847656 153.858031 L 357.847656 193.11975 L 397.109375 193.11975 Z M 397.109375 153.858031 "
       style="fill:none;stroke-width:0.283;stroke-linecap:round;stroke-linejoin:round;stroke:rgb(100%,0%,0%);stroke-opacity:1;stroke-miterlimit:10;" />
    <path
       id="path156"
       transform="matrix(1,0,0,-1,0,595.276)"
       d="M 397.109375 99.99475 L 357.847656 99.99475 L 357.847656 139.260375 L 397.109375 139.260375 Z M 397.109375 99.99475 "
       style="fill:none;stroke-width:0.283;stroke-linecap:round;stroke-linejoin:round;stroke:rgb(100%,0%,0%);stroke-opacity:1;stroke-miterlimit:10;" />
    <path
       id="path158"
       transform="matrix(1,0,0,-1,0,595.276)"
       d="M 343.246094 207.721313 L 303.984375 207.721313 L 303.984375 246.983031 L 343.246094 246.983031 Z M 343.246094 207.721313 "
       style="fill:none;stroke-width:0.283;stroke-linecap:round;stroke-linejoin:round;stroke:rgb(100%,0%,0%);stroke-opacity:1;stroke-miterlimit:10;" />
    <path
       id="path160"
       transform="matrix(1,0,0,-1,0,595.276)"
       d="M 343.246094 153.858031 L 303.984375 153.858031 L 303.984375 193.11975 L 343.246094 193.11975 Z M 343.246094 153.858031 "
       style="fill:none;stroke-width:0.283;stroke-linecap:round;stroke-linejoin:round;stroke:rgb(100%,0%,0%);stroke-opacity:1;stroke-miterlimit:10;" />
    <path
       id="path162"
       transform="matrix(1,0,0,-1,0,595.276)"
       d="M 343.246094 99.99475 L 303.984375 99.99475 L 303.984375 139.260375 L 343.246094 139.260375 Z M 343.246094 99.99475 "
       style="fill:none;stroke-width:0.283;stroke-linecap:round;stroke-linejoin:round;stroke:rgb(100%,0%,0%);stroke-opacity:1;stroke-miterlimit:10;" />
    <path
       id="path164"
       transform="matrix(1,0,0,-1,0,595.276)"
       d="M 289.382812 221.186156 L 250.121094 221.186156 L 250.121094 260.447875 L 289.382812 260.447875 Z M 289.382812 221.186156 "
       style="fill:none;stroke-width:0.283;stroke-linecap:round;stroke-linejoin:round;stroke:rgb(100%,0%,0%);stroke-opacity:1;stroke-miterlimit:10;" />
    <path
       id="path166"
       transform="matrix(1,0,0,-1,0,595.276)"
       d="M 289.382812 167.322875 L 250.121094 167.322875 L 250.121094 206.584594 L 289.382812 206.584594 Z M 289.382812 167.322875 "
       style="fill:none;stroke-width:0.283;stroke-linecap:round;stroke-linejoin:round;stroke:rgb(100%,0%,0%);stroke-opacity:1;stroke-miterlimit:10;" />
    <path
       id="path168"
       transform="matrix(1,0,0,-1,0,595.276)"
       d="M 289.382812 113.459594 L 250.121094 113.459594 L 250.121094 152.725219 L 289.382812 152.725219 Z M 289.382812 113.459594 "
       style="fill:none;stroke-width:0.283;stroke-linecap:round;stroke-linejoin:round;stroke:rgb(100%,0%,0%);stroke-opacity:1;stroke-miterlimit:10;" />
    <path
       id="path170"
       transform="matrix(1,0,0,-1,0,595.276)"
       d="M 235.523438 227.916625 L 196.257812 227.916625 L 196.257812 267.18225 L 235.523438 267.18225 Z M 235.523438 227.916625 "
       style="fill:none;stroke-width:0.283;stroke-linecap:round;stroke-linejoin:round;stroke:rgb(100%,0%,0%);stroke-opacity:1;stroke-miterlimit:10;" />
    <path
       id="path172"
       transform="matrix(1,0,0,-1,0,595.276)"
       d="M 235.523438 174.05725 L 196.257812 174.05725 L 196.257812 213.318969 L 235.523438 213.318969 Z M 235.523438 174.05725 "
       style="fill:none;stroke-width:0.283;stroke-linecap:round;stroke-linejoin:round;stroke:rgb(100%,0%,0%);stroke-opacity:1;stroke-miterlimit:10;" />
    <path
       id="path174"
       transform="matrix(1,0,0,-1,0,595.276)"
       d="M 235.523438 120.193969 L 196.257812 120.193969 L 196.257812 159.455688 L 235.523438 159.455688 Z M 235.523438 120.193969 "
       style="fill:none;stroke-width:0.283;stroke-linecap:round;stroke-linejoin:round;stroke:rgb(100%,0%,0%);stroke-opacity:1;stroke-miterlimit:10;" />
    <path
       id="path176"
       transform="matrix(1,0,0,-1,0,595.276)"
       d="M 181.660156 221.186156 L 142.398438 221.186156 L 142.398438 260.447875 L 181.660156 260.447875 Z M 181.660156 221.186156 "
       style="fill:none;stroke-width:0.283;stroke-linecap:round;stroke-linejoin:round;stroke:rgb(100%,0%,0%);stroke-opacity:1;stroke-miterlimit:10;" />
    <path
       id="path178"
       transform="matrix(1,0,0,-1,0,595.276)"
       d="M 181.660156 167.322875 L 142.398438 167.322875 L 142.398438 206.584594 L 181.660156 206.584594 Z M 181.660156 167.322875 "
       style="fill:none;stroke-width:0.283;stroke-linecap:round;stroke-linejoin:round;stroke:rgb(100%,0%,0%);stroke-opacity:1;stroke-miterlimit:10;" />
    <path
       id="path180"
       transform="matrix(1,0,0,-1,0,595.276)"
       d="M 181.660156 113.459594 L 142.398438 113.459594 L 142.398438 152.725219 L 181.660156 152.725219 Z M 181.660156 113.459594 "
       style="fill:none;stroke-width:0.283;stroke-linecap:round;stroke-linejoin:round;stroke:rgb(100%,0%,0%);stroke-opacity:1;stroke-miterlimit:10;" />
    <path
       id="path182"
       transform="matrix(1,0,0,-1,0,595.276)"
       d="M 127.796875 214.451781 L 88.535156 214.451781 L 88.535156 253.7135 L 127.796875 253.7135 Z M 127.796875 214.451781 "
       style="fill:none;stroke-width:0.283;stroke-linecap:round;stroke-linejoin:round;stroke:rgb(100%,0%,0%);stroke-opacity:1;stroke-miterlimit:10;" />
    <path
       id="path184"
       transform="matrix(1,0,0,-1,0,595.276)"
       d="M 127.796875 160.592406 L 88.535156 160.592406 L 88.535156 199.854125 L 127.796875 199.854125 Z M 127.796875 160.592406 "
       style="fill:none;stroke-width:0.283;stroke-linecap:round;stroke-linejoin:round;stroke:rgb(100%,0%,0%);stroke-opacity:1;stroke-miterlimit:10;" />
    <path
       id="path186"
       transform="matrix(1,0,0,-1,0,595.276)"
       d="M 127.796875 106.729125 L 88.535156 106.729125 L 88.535156 145.990844 L 127.796875 145.990844 Z M 127.796875 106.729125 "
       style="fill:none;stroke-width:0.283;stroke-linecap:round;stroke-linejoin:round;stroke:rgb(100%,0%,0%);stroke-opacity:1;stroke-miterlimit:10;" />
    <path
       id="path188"
       transform="matrix(1,0,0,-1,0,595.276)"
       d="M 208.589844 57.826781 L 169.328125 57.826781 L 169.328125 97.0885 L 208.589844 97.0885 Z M 208.589844 57.826781 "
       style="fill:none;stroke-width:0.283;stroke-linecap:round;stroke-linejoin:round;stroke:rgb(100%,0%,0%);stroke-opacity:1;stroke-miterlimit:10;" />
    <path
       id="path190"
       transform="matrix(1,0,0,-1,143.3111,501.5864)"
       d="M 0.0014 0.0004625 L 10.122494 -37.933131 L -27.8111 -48.058131 L -37.9361 -10.124537 Z M 0.0014 0.0004625 "
       style="fill:none;stroke-width:0.283;stroke-linecap:round;stroke-linejoin:round;stroke:rgb(100%,0%,0%);stroke-opacity:1;stroke-miterlimit:10;" />
    <path
       id="path192"
       transform="matrix(1,0,0,-1,73.543,509.4146)"
       d="M -0.00003125 0.0005375 L 19.609344 -34.015087 L -14.406281 -53.624462 L -34.015656 -19.608837 Z M -0.00003125 0.0005375 "
       style="fill:none;stroke-width:0.283;stroke-linecap:round;stroke-linejoin:round;stroke:rgb(100%,0%,0%);stroke-opacity:1;stroke-miterlimit:10;" />
    <path
       id="path194"
       transform="matrix(1,0,0,-1,769.1988,37.3569)"
       d="M 0.00041875 0.00143125 L 0.00041875 -134.240756 C 0.168387 -135.721225 0.83245 -136.4556 1.812919 -137.307162 L 55.215262 -168.0806 C 56.3637 -168.561069 57.684012 -168.022006 58.164481 -166.877475 C 58.234794 -166.7056 58.285575 -166.529819 58.312919 -166.350131 L 58.312919 -0.0298187 C 58.312919 0.751431 57.6762 1.38815 56.89495 1.38815 L 1.418387 1.4194 C 0.633231 1.4194 0.00041875 0.782681 0.00041875 0.00143125 "
       style="fill:none;stroke-width:0.283;stroke-linecap:round;stroke-linejoin:round;stroke:rgb(100%,0%,0%);stroke-opacity:1;stroke-miterlimit:10;" />
    <path
       id="path196"
       transform="matrix(1,0,0,-1,776.2213,170.5103)"
       d="M 0.00135625 -0.00141875 C 0.00135625 1.721238 1.395887 3.119675 3.118544 3.119675 C 4.8412 3.119675 6.235731 1.721238 6.235731 -0.00141875 C 6.235731 -1.720169 4.8412 -3.118606 3.118544 -3.118606 C 1.395887 -3.118606 0.00135625 -1.720169 0.00135625 -0.00141875 Z M 0.00135625 -0.00141875 "
       style="fill:none;stroke-width:0.283;stroke-linecap:round;stroke-linejoin:round;stroke:rgb(100%,0%,0%);stroke-opacity:1;stroke-miterlimit:10;" />
    <path
       id="path198"
       transform="matrix(1,0,0,-1,817.3257,194.606)"
       d="M -0.00148125 0.00053125 C -0.00148125 1.723188 1.396956 3.117719 3.119613 3.117719 C 4.842269 3.117719 6.2368 1.723188 6.2368 0.00053125 C 6.2368 -1.722125 4.842269 -3.116656 3.119613 -3.116656 C 1.396956 -3.116656 -0.00148125 -1.722125 -0.00148125 0.00053125 Z M -0.00148125 0.00053125 "
       style="fill:none;stroke-width:0.283;stroke-linecap:round;stroke-linejoin:round;stroke:rgb(100%,0%,0%);stroke-opacity:1;stroke-miterlimit:10;" />
    <path
       id="path200"
       transform="matrix(1,0,0,-1,72.0098,335.3677)"
       d="M 0.00191875 0.0005125 L 0.00191875 -134.237769 C -0.169956 -135.722144 -0.834019 -136.452612 -1.810581 -137.304175 L -55.216831 -168.081519 C -56.361362 -168.561987 -57.681675 -168.022925 -58.16605 -166.874487 C -58.236362 -166.706519 -58.287144 -166.530737 -58.314487 -166.347144 L -58.310581 -0.0307375 C -58.310581 0.754419 -57.677769 1.387231 -56.892612 1.387231 L -1.41605 1.418481 C -0.6348 1.418481 0.00191875 0.781763 0.00191875 0.0005125 "
       style="fill:none;stroke-width:0.283;stroke-linecap:round;stroke-linejoin:round;stroke:rgb(100%,0%,0%);stroke-opacity:1;stroke-miterlimit:10;" />
    <path
       id="path202"
       transform="matrix(1,0,0,-1,64.9879,468.521)"
       d="M 0.00038125 0.00146875 C 0.00038125 1.724125 -1.39415 3.118656 -3.116806 3.118656 C -4.839463 3.118656 -6.2379 1.724125 -6.2379 0.00146875 C -6.2379 -1.721187 -4.839463 -3.119625 -3.116806 -3.119625 C -1.39415 -3.119625 0.00038125 -1.721187 0.00038125 0.00146875 Z M 0.00038125 0.00146875 "
       style="fill:none;stroke-width:0.283;stroke-linecap:round;stroke-linejoin:round;stroke:rgb(100%,0%,0%);stroke-opacity:1;stroke-miterlimit:10;" />
    <path
       id="path204"
       transform="matrix(1,0,0,-1,23.8829,492.6167)"
       d="M -0.0000875 -0.0004875 C -0.0000875 1.722169 -1.394619 3.1167 -3.117275 3.1167 C -4.839931 3.1167 -6.238369 1.722169 -6.238369 -0.0004875 C -6.238369 -1.723144 -4.839931 -3.117675 -3.117275 -3.117675 C -1.394619 -3.117675 -0.0000875 -1.723144 -0.0000875 -0.0004875 Z M -0.0000875 -0.0004875 "
       style="fill:none;stroke-width:0.283;stroke-linecap:round;stroke-linejoin:round;stroke:rgb(100%,0%,0%);stroke-opacity:1;stroke-miterlimit:10;" />
  </g>
</svg>
