<?xml version="1.0" encoding="UTF-8" standalone="no"?>
<svg
   xmlns:dc="http://purl.org/dc/elements/1.1/"
   xmlns:cc="http://creativecommons.org/ns#"
   xmlns:rdf="http://www.w3.org/1999/02/22-rdf-syntax-ns#"
   xmlns:svg="http://www.w3.org/2000/svg"
   xmlns="http://www.w3.org/2000/svg"
   xmlns:sodipodi="http://sodipodi.sourceforge.net/DTD/sodipodi-0.dtd"
   xmlns:inkscape="http://www.inkscape.org/namespaces/inkscape"
   sodipodi:docname="imk_top-bottom.ai"
   id="svg87"
   version="1.2"
   viewBox="0 0 419.528 595.276"
   height="595.276pt"
   width="419.528pt">
  <metadata
     id="metadata93">
    <rdf:RDF>
      <cc:Work
         rdf:about="">
        <dc:format>image/svg+xml</dc:format>
        <dc:type
           rdf:resource="http://purl.org/dc/dcmitype/StillImage" />
      </cc:Work>
    </rdf:RDF>
  </metadata>
  <defs
     id="defs91" />
  <sodipodi:namedview
     id="namedview89"
     inkscape:window-height="480"
     inkscape:window-width="640"
     inkscape:pageshadow="2"
     inkscape:pageopacity="0"
     guidetolerance="10"
     gridtolerance="10"
     objecttolerance="10"
     borderopacity="1"
     bordercolor="#666666"
     pagecolor="#ffffff" />
  <g
     id="surface1">
    <path
       id="path2"
       d="M 306.027344 177.558594 C 306.074219 179.601562 304.164062 185.902344 299.382812 185.902344 C 298.015625 185.902344 296.707031 185.246094 295.972656 184.136719 C 295.246094 183.046875 294.96875 181.703125 294.96875 180.179688 C 294.980469 176.863281 296.308594 172.511719 299.089844 167.578125 C 301.796875 162.8125 303.296875 158.652344 303.273438 155.542969 C 303.273438 153.902344 302.898438 152.574219 302.125 151.425781 C 301.339844 150.285156 300.105469 149.28125 298.21875 148.464844 C 296.839844 147.871094 295.511719 147.605469 294.257812 147.605469 C 291.535156 147.605469 288.9375 148.828125 286.628906 150.996094 C 284.308594 153.164062 282.3125 156.265625 280.921875 159.800781 C 279.824219 162.570312 278.179688 168.359375 278.179688 174.320312 C 278.179688 176.730469 278.46875 179.152344 279.097656 181.4375 C 273.019531 172.886719 276.113281 161.363281 278.664062 156.03125 C 277.695312 155.644531 276.703125 155.445312 275.691406 155.445312 C 275.628906 155.445312 275.566406 155.445312 275.519531 155.453125 C 272.476562 155.519531 269.621094 157.378906 267.445312 160.660156 C 265.28125 163.9375 263.902344 168.554688 263.914062 173.679688 L 263.914062 174.324219 C 263.988281 178.03125 264.785156 181.453125 266.058594 184.304688 C 263.046875 180.828125 259.808594 174.746094 261.367188 165.992188 C 260.96875 165.894531 260.582031 165.84375 260.191406 165.84375 L 260.167969 165.84375 C 259.925781 165.84375 259.695312 165.859375 259.457031 165.898438 C 257.714844 166.148438 256.179688 167.28125 254.980469 169.230469 C 253.8125 171.164062 253.085938 173.851562 253.085938 176.84375 C 253.085938 177.746094 253.148438 178.671875 253.28125 179.613281 C 253.761719 182.996094 255.09375 185.945312 256.785156 187.976562 C 258.476562 190.019531 260.472656 191.082031 262.34375 191.082031 C 264.992188 191.082031 267.242188 189.550781 268.558594 188.457031 C 270.734375 191.167969 273.414062 192.667969 276.183594 192.667969 C 279.035156 192.667969 281.976562 190.996094 284.007812 189.464844 C 285.40625 190.683594 287.113281 191.734375 289.214844 192.558594 C 290.992188 193.253906 292.65625 193.554688 294.21875 193.554688 C 309.183594 193.554688 307.867188 179.539062 306.027344 177.558594 "
       style=" stroke:none;fill-rule:nonzero;fill:rgb(0%,0%,0%);fill-opacity:1;" />
    <path
       id="path4"
       d="M 321.75 174.925781 C 320.710938 174.925781 319.839844 175.269531 319.136719 175.957031 C 318.433594 176.644531 318.082031 177.492188 318.082031 178.5 C 318.082031 179.761719 318.539062 180.800781 319.460938 181.617188 C 320.378906 182.433594 321.558594 182.839844 323 182.839844 C 323.84375 182.839844 324.640625 182.679688 325.386719 182.359375 C 326.128906 182.039062 326.738281 181.601562 327.21875 181.042969 C 327.316406 180.929688 327.386719 180.855469 327.433594 180.8125 C 327.484375 180.773438 327.539062 180.753906 327.601562 180.753906 L 327.964844 180.753906 C 328.074219 180.753906 328.160156 180.796875 328.214844 180.886719 C 328.269531 180.972656 328.324219 181.144531 328.371094 181.402344 C 328.433594 181.722656 328.464844 182.082031 328.464844 182.480469 C 328.464844 183.96875 328.15625 185.316406 327.53125 186.523438 C 326.90625 187.730469 326.027344 188.691406 324.894531 189.414062 C 323.757812 190.132812 322.453125 190.492188 320.984375 190.492188 C 319.496094 190.492188 318.140625 190.140625 316.917969 189.4375 C 315.695312 188.734375 314.71875 187.726562 313.992188 186.414062 C 313.265625 185.101562 312.898438 183.609375 312.898438 181.929688 C 312.898438 180.363281 313.226562 178.957031 313.882812 177.71875 C 314.539062 176.480469 315.472656 175.503906 316.691406 174.792969 C 317.90625 174.082031 319.3125 173.726562 320.910156 173.726562 C 322.109375 173.726562 323.191406 173.921875 324.148438 174.3125 C 325.109375 174.707031 325.871094 175.261719 326.4375 175.980469 C 327.007812 176.699219 327.292969 177.523438 327.292969 178.453125 C 327.292969 179.523438 326.90625 180.382812 326.140625 181.03125 C 325.375 181.675781 324.355469 182 323.09375 182 C 322.324219 182 321.625 181.851562 320.996094 181.558594 C 320.363281 181.261719 319.859375 180.847656 319.484375 180.308594 C 319.109375 179.773438 318.921875 179.164062 318.921875 178.476562 C 318.921875 177.613281 319.214844 176.925781 319.808594 176.414062 C 320.398438 175.902344 321.199219 175.644531 322.207031 175.644531 C 322.300781 175.550781 322.351562 175.445312 322.351562 175.332031 C 322.351562 175.207031 322.292969 175.105469 322.183594 175.03125 C 322.070312 174.960938 321.925781 174.925781 321.75 174.925781 "
       style=" stroke:none;fill-rule:nonzero;fill:rgb(0%,0%,0%);fill-opacity:1;" />
    <path
       id="path6"
       d="M 329.664062 175.789062 C 329.664062 175.230469 329.585938 174.800781 329.425781 174.503906 C 329.265625 174.210938 328.96875 173.933594 328.539062 173.679688 C 328.425781 173.613281 328.359375 173.5625 328.335938 173.523438 C 328.3125 173.484375 328.296875 173.429688 328.296875 173.367188 L 328.296875 173.078125 C 328.296875 172.917969 328.394531 172.839844 328.585938 172.839844 L 334.796875 172.839844 C 335.101562 172.839844 335.316406 172.898438 335.433594 173.019531 C 335.554688 173.140625 335.613281 173.335938 335.613281 173.605469 L 335.613281 179.074219 C 336.398438 178.101562 337.484375 177.613281 338.875 177.613281 C 340.027344 177.613281 340.90625 177.957031 341.515625 178.644531 C 342.121094 179.332031 342.425781 180.304688 342.425781 181.570312 L 342.425781 189.316406 C 342.425781 189.589844 342.367188 189.785156 342.246094 189.902344 C 342.125 190.023438 341.914062 190.085938 341.609375 190.085938 L 337.292969 190.085938 C 336.988281 190.085938 336.777344 190.023438 336.65625 189.902344 C 336.539062 189.785156 336.476562 189.589844 336.476562 189.316406 L 336.476562 181.066406 C 336.476562 180.890625 336.4375 180.746094 336.359375 180.632812 C 336.277344 180.523438 336.164062 180.464844 336.023438 180.464844 C 335.832031 180.464844 335.695312 180.53125 335.613281 180.65625 L 335.613281 189.316406 C 335.613281 189.589844 335.554688 189.785156 335.433594 189.902344 C 335.316406 190.023438 335.101562 190.085938 334.796875 190.085938 L 330.480469 190.085938 C 330.175781 190.085938 329.964844 190.023438 329.84375 189.902344 C 329.726562 189.785156 329.664062 189.589844 329.664062 189.316406 Z M 329.664062 175.789062 "
       style=" stroke:none;fill-rule:nonzero;fill:rgb(0%,0%,0%);fill-opacity:1;" />
    <path
       id="path8"
       d="M 350.101562 182.886719 C 350.195312 183.015625 350.324219 183.082031 350.484375 183.082031 C 350.773438 183.082031 350.917969 182.921875 350.917969 182.601562 L 350.917969 179.195312 C 350.917969 178.875 350.773438 178.714844 350.484375 178.714844 C 350.324219 178.714844 350.195312 178.78125 350.101562 178.90625 Z M 349.382812 184.542969 C 349.382812 184.910156 349.691406 185.25 350.316406 185.5625 C 350.941406 185.875 351.636719 186.03125 352.402344 186.03125 C 353.921875 186.03125 355.171875 185.519531 356.144531 184.496094 C 356.242188 184.398438 356.308594 184.339844 356.347656 184.316406 C 356.390625 184.292969 356.449219 184.28125 356.527344 184.28125 L 356.816406 184.28125 C 356.929688 184.28125 357.003906 184.320312 357.046875 184.398438 C 357.085938 184.480469 357.105469 184.625 357.105469 184.832031 C 357.105469 185.824219 356.835938 186.738281 356.300781 187.578125 C 355.765625 188.417969 355.007812 189.09375 354.023438 189.605469 C 353.039062 190.117188 351.9375 190.371094 350.726562 190.371094 C 349.429688 190.371094 348.261719 190.109375 347.222656 189.582031 C 346.183594 189.054688 345.355469 188.300781 344.738281 187.324219 C 344.125 186.351562 343.816406 185.238281 343.816406 183.992188 C 343.816406 182.761719 344.105469 181.664062 344.679688 180.707031 C 345.257812 179.746094 346.074219 178.992188 347.140625 178.4375 C 348.203125 177.886719 349.445312 177.613281 350.871094 177.613281 C 351.9375 177.613281 352.902344 177.78125 353.757812 178.117188 C 354.613281 178.453125 355.289062 178.929688 355.785156 179.554688 C 356.28125 180.179688 356.527344 180.898438 356.527344 181.714844 C 356.527344 182.753906 356.152344 183.613281 355.402344 184.292969 C 354.648438 184.972656 353.699219 185.3125 352.546875 185.3125 C 351.394531 185.3125 350.460938 184.925781 349.742188 184.160156 C 349.644531 184.160156 349.5625 184.195312 349.488281 184.269531 C 349.417969 184.339844 349.382812 184.433594 349.382812 184.542969 "
       style=" stroke:none;fill-rule:nonzero;fill:rgb(0%,0%,0%);fill-opacity:1;" />
    <path
       id="path10"
       d="M 358.953125 177.898438 C 360.328125 177.898438 361.261719 178.308594 361.757812 179.125 C 362.222656 178.613281 362.742188 178.230469 363.316406 177.984375 C 363.890625 177.734375 364.554688 177.613281 365.304688 177.613281 C 366.472656 177.613281 367.433594 177.933594 368.183594 178.570312 C 368.9375 179.210938 369.3125 180.027344 369.3125 181.019531 C 369.3125 181.847656 369.007812 182.523438 368.402344 183.042969 C 367.792969 183.566406 367.011719 183.824219 366.050781 183.824219 C 365.105469 183.824219 364.335938 183.585938 363.734375 183.105469 C 363.136719 182.625 362.835938 182.015625 362.835938 181.28125 C 362.835938 180.65625 363.054688 180.144531 363.484375 179.746094 C 363.917969 179.347656 364.46875 179.148438 365.140625 179.148438 C 365.1875 179.066406 365.210938 178.988281 365.210938 178.90625 C 365.210938 178.683594 365.042969 178.570312 364.707031 178.570312 C 364.003906 178.570312 363.394531 178.839844 362.886719 179.375 C 362.375 179.910156 362.117188 180.554688 362.117188 181.304688 C 362.117188 181.945312 362.296875 182.507812 362.65625 182.996094 C 363.015625 183.484375 363.53125 183.871094 364.203125 184.160156 C 364.429688 184.253906 364.574219 184.363281 364.648438 184.484375 C 364.71875 184.601562 364.757812 184.808594 364.757812 185.09375 L 364.757812 189.316406 C 364.757812 189.828125 364.484375 190.085938 363.941406 190.085938 L 359.070312 190.085938 C 358.574219 190.085938 358.328125 189.828125 358.328125 189.316406 L 358.328125 180.847656 C 358.328125 180.289062 358.246094 179.863281 358.089844 179.566406 C 357.929688 179.269531 357.632812 178.996094 357.199219 178.738281 C 357.089844 178.675781 357.019531 178.625 356.996094 178.582031 C 356.972656 178.542969 356.960938 178.492188 356.960938 178.425781 L 356.960938 178.140625 C 356.960938 177.980469 357.054688 177.898438 357.25 177.898438 Z M 358.953125 177.898438 "
       style=" stroke:none;fill-rule:nonzero;fill:rgb(0%,0%,0%);fill-opacity:1;" />
    <path
       id="path12"
       d="M 370.96875 177.898438 C 372.34375 177.898438 373.277344 178.308594 373.773438 179.125 C 374.238281 178.613281 374.757812 178.230469 375.332031 177.984375 C 375.90625 177.734375 376.570312 177.613281 377.324219 177.613281 C 378.492188 177.613281 379.449219 177.933594 380.203125 178.570312 C 380.953125 179.210938 381.328125 180.027344 381.328125 181.019531 C 381.328125 181.847656 381.027344 182.523438 380.417969 183.042969 C 379.8125 183.566406 379.027344 183.824219 378.066406 183.824219 C 377.121094 183.824219 376.351562 183.585938 375.753906 183.105469 C 375.152344 182.625 374.855469 182.015625 374.855469 181.28125 C 374.855469 180.65625 375.070312 180.144531 375.5 179.746094 C 375.933594 179.347656 376.484375 179.148438 377.15625 179.148438 C 377.203125 179.066406 377.226562 178.988281 377.226562 178.90625 C 377.226562 178.683594 377.058594 178.570312 376.726562 178.570312 C 376.019531 178.570312 375.414062 178.839844 374.902344 179.375 C 374.390625 179.910156 374.132812 180.554688 374.132812 181.304688 C 374.132812 181.945312 374.316406 182.507812 374.675781 182.996094 C 375.03125 183.484375 375.550781 183.871094 376.222656 184.160156 C 376.445312 184.253906 376.59375 184.363281 376.664062 184.484375 C 376.738281 184.601562 376.773438 184.808594 376.773438 185.09375 L 376.773438 189.316406 C 376.773438 189.828125 376.5 190.085938 375.957031 190.085938 L 371.089844 190.085938 C 370.59375 190.085938 370.34375 189.828125 370.34375 189.316406 L 370.34375 180.847656 C 370.34375 180.289062 370.265625 179.863281 370.105469 179.566406 C 369.945312 179.269531 369.648438 178.996094 369.21875 178.738281 C 369.105469 178.675781 369.035156 178.625 369.015625 178.582031 C 368.988281 178.542969 368.976562 178.492188 368.976562 178.425781 L 368.976562 178.140625 C 368.976562 177.980469 369.074219 177.898438 369.265625 177.898438 Z M 370.96875 177.898438 "
       style=" stroke:none;fill-rule:nonzero;fill:rgb(0%,0%,0%);fill-opacity:1;" />
    <path
       id="path14"
       d="M 381.882812 179.988281 C 381.785156 179.714844 381.652344 179.492188 381.484375 179.316406 C 381.316406 179.140625 381.066406 178.945312 380.730469 178.738281 C 380.570312 178.644531 380.488281 178.539062 380.488281 178.425781 L 380.488281 178.140625 C 380.488281 177.980469 380.585938 177.898438 380.777344 177.898438 L 384.519531 177.898438 C 385.605469 177.898438 386.410156 177.984375 386.929688 178.152344 C 387.449219 178.320312 387.855469 178.613281 388.152344 179.027344 C 388.449219 179.441406 388.734375 180.058594 389.003906 180.875 L 391.308594 187.828125 C 391.386719 187.910156 391.484375 187.949219 391.59375 187.949219 C 391.835938 187.949219 391.953125 187.8125 391.953125 187.542969 C 391.953125 187.382812 391.890625 187.117188 391.765625 186.75 L 389.605469 180.15625 C 389.398438 179.515625 389.214844 179.097656 389.054688 178.90625 C 388.910156 178.730469 388.816406 178.617188 388.777344 178.558594 C 388.738281 178.503906 388.71875 178.4375 388.71875 178.355469 L 388.71875 178.140625 C 388.71875 177.980469 388.8125 177.898438 389.003906 177.898438 L 395.792969 177.898438 C 396.367188 177.898438 396.65625 178.109375 396.65625 178.523438 C 396.65625 178.90625 396.246094 180.21875 395.433594 182.457031 C 394.617188 184.695312 393.507812 187.542969 392.097656 190.996094 C 391.585938 192.257812 391.082031 193.238281 390.589844 193.933594 C 390.09375 194.628906 389.546875 195.125 388.945312 195.421875 C 388.34375 195.714844 387.636719 195.863281 386.820312 195.863281 C 385.640625 195.863281 384.683594 195.601562 383.957031 195.074219 C 383.226562 194.546875 382.863281 193.851562 382.863281 192.984375 C 382.863281 192.234375 383.160156 191.628906 383.753906 191.164062 C 384.34375 190.699219 385.109375 190.46875 386.054688 190.46875 C 386.933594 190.46875 387.652344 190.679688 388.214844 191.101562 C 388.773438 191.527344 389.054688 192.074219 389.054688 192.746094 C 389.054688 193.257812 388.882812 193.652344 388.535156 193.933594 C 388.191406 194.214844 387.710938 194.355469 387.085938 194.355469 C 387.054688 194.417969 387.039062 194.488281 387.039062 194.570312 C 387.039062 194.792969 387.222656 194.90625 387.589844 194.90625 C 388.214844 194.90625 388.734375 194.691406 389.148438 194.269531 C 389.566406 193.847656 389.773438 193.3125 389.773438 192.675781 C 389.773438 191.921875 389.507812 191.304688 388.980469 190.816406 C 388.453125 190.328125 387.6875 189.996094 386.679688 189.820312 C 386.101562 189.726562 385.726562 189.597656 385.550781 189.4375 C 385.375 189.277344 385.191406 188.925781 385 188.382812 Z M 381.882812 179.988281 "
       style=" stroke:none;fill-rule:nonzero;fill:rgb(0%,0%,0%);fill-opacity:1;" />
    <path
       id="path16"
       d="M 317.699219 169.761719 C 315.332031 169.761719 312.785156 168.167969 312.785156 164.664062 C 312.785156 161.328125 315.246094 159.585938 317.675781 159.585938 C 319.882812 159.585938 321.679688 160.933594 322.257812 163.019531 L 320.890625 163.398438 C 320.402344 161.632812 318.910156 161.003906 317.675781 161.003906 C 315.949219 161.003906 314.203125 162.136719 314.203125 164.664062 C 314.203125 167.207031 315.957031 168.34375 317.699219 168.34375 C 318.921875 168.34375 320.402344 167.71875 320.890625 165.957031 L 322.257812 166.332031 C 321.679688 168.414062 319.890625 169.761719 317.699219 169.761719 "
       style=" stroke:none;fill-rule:nonzero;fill:rgb(0%,0%,0%);fill-opacity:1;" />
    <path
       id="path18"
       d="M 331.519531 161.003906 C 329.664062 161.003906 327.792969 162.140625 327.792969 164.683594 C 327.792969 167.1875 329.636719 168.328125 331.464844 168.34375 L 331.46875 168.34375 C 332.492188 168.382812 333.519531 167.976562 334.203125 167.300781 C 334.859375 166.652344 335.210938 165.746094 335.210938 164.683594 C 335.210938 162.15625 333.296875 161.003906 331.519531 161.003906 M 331.519531 169.761719 L 331.449219 169.761719 C 328.929688 169.738281 326.375 167.984375 326.375 164.683594 C 326.375 161.335938 328.964844 159.585938 331.519531 159.585938 C 334.058594 159.585938 336.625 161.335938 336.625 164.683594 C 336.625 166.136719 336.132812 167.386719 335.199219 168.3125 C 334.265625 169.234375 332.925781 169.761719 331.519531 169.761719 "
       style=" stroke:none;fill-rule:nonzero;fill:rgb(0%,0%,0%);fill-opacity:1;" />
    <path
       id="path20"
       d="M 342.761719 169.234375 L 341.34375 169.234375 L 341.34375 164.160156 C 341.34375 162.652344 342.011719 161.289062 343.179688 160.417969 C 344.324219 159.5625 345.789062 159.308594 347.203125 159.726562 L 346.800781 161.085938 C 345.820312 160.792969 344.808594 160.964844 344.027344 161.554688 C 343.222656 162.152344 342.761719 163.101562 342.761719 164.160156 Z M 342.761719 169.234375 "
       style=" stroke:none;fill-rule:nonzero;fill:rgb(0%,0%,0%);fill-opacity:1;" />
    <path
       id="path22"
       d="M 358.328125 169.234375 L 356.910156 169.234375 L 356.910156 164.234375 C 356.910156 161.863281 356.277344 161.054688 354.398438 161.023438 C 353.53125 160.988281 352.8125 161.257812 352.289062 161.773438 C 351.722656 162.324219 351.414062 163.164062 351.414062 164.136719 L 351.414062 169.234375 L 349.996094 169.234375 L 349.996094 164.136719 C 349.996094 162.78125 350.457031 161.582031 351.296875 160.761719 C 352.089844 159.980469 353.183594 159.597656 354.425781 159.605469 C 357.921875 159.664062 358.328125 162.273438 358.328125 164.234375 Z M 358.328125 169.234375 "
       style=" stroke:none;fill-rule:nonzero;fill:rgb(0%,0%,0%);fill-opacity:1;" />
    <path
       id="path24"
       d="M 362.207031 163.464844 L 368.648438 163.464844 C 368.382812 162.179688 367.386719 161.003906 365.53125 161.003906 C 364.105469 161.003906 362.667969 161.773438 362.207031 163.464844 M 365.554688 169.761719 C 363.1875 169.761719 360.640625 168.167969 360.640625 164.664062 C 360.640625 161.332031 363.101562 159.585938 365.53125 159.585938 C 368.523438 159.585938 370.136719 161.949219 370.136719 164.175781 L 370.136719 164.882812 L 362.0625 164.882812 C 362.160156 167.273438 363.863281 168.34375 365.554688 168.34375 C 366.777344 168.34375 368.257812 167.71875 368.746094 165.957031 L 370.109375 166.332031 C 369.535156 168.417969 367.746094 169.761719 365.554688 169.761719 "
       style=" stroke:none;fill-rule:nonzero;fill:rgb(0%,0%,0%);fill-opacity:1;" />
    <path
       id="path26"
       d="M 75.328125 463.808594 C 75.375 465.851562 73.464844 472.15625 68.679688 472.15625 C 67.3125 472.15625 66.007812 471.5 65.273438 470.390625 C 64.546875 469.296875 64.269531 467.957031 64.269531 466.433594 C 64.277344 463.113281 65.609375 458.761719 68.390625 453.832031 C 71.097656 449.0625 72.597656 444.90625 72.574219 441.792969 C 72.574219 440.15625 72.195312 438.824219 71.421875 437.675781 C 70.636719 436.535156 69.40625 435.53125 67.519531 434.714844 C 66.140625 434.125 64.8125 433.859375 63.554688 433.859375 C 60.835938 433.859375 58.238281 435.078125 55.929688 437.246094 C 53.605469 439.417969 51.613281 442.519531 50.222656 446.054688 C 49.125 448.820312 47.480469 454.613281 47.480469 460.570312 C 47.480469 462.980469 47.769531 465.402344 48.398438 467.691406 C 42.320312 459.136719 45.410156 447.613281 47.964844 442.28125 C 46.996094 441.894531 46.003906 441.695312 44.992188 441.695312 C 44.929688 441.695312 44.867188 441.695312 44.820312 441.703125 C 41.777344 441.769531 38.921875 443.628906 36.746094 446.910156 C 34.582031 450.1875 33.203125 454.804688 33.214844 459.929688 L 33.214844 460.574219 C 33.289062 464.28125 34.085938 467.703125 35.355469 470.554688 C 32.347656 467.082031 29.105469 461 30.664062 452.242188 C 30.265625 452.144531 29.878906 452.097656 29.492188 452.097656 L 29.46875 452.097656 C 29.226562 452.097656 28.996094 452.109375 28.753906 452.152344 C 27.015625 452.398438 25.480469 453.535156 24.28125 455.480469 C 23.113281 457.414062 22.386719 460.105469 22.386719 463.097656 C 22.386719 464 22.445312 464.921875 22.578125 465.863281 C 23.0625 469.25 24.394531 472.199219 26.085938 474.230469 C 27.777344 476.273438 29.773438 477.335938 31.644531 477.335938 C 34.292969 477.335938 36.542969 475.800781 37.855469 474.707031 C 40.035156 477.417969 42.714844 478.917969 45.484375 478.917969 C 48.335938 478.917969 51.273438 477.246094 53.304688 475.714844 C 54.707031 476.9375 56.410156 477.988281 58.515625 478.808594 C 60.292969 479.503906 61.957031 479.808594 63.519531 479.808594 C 78.484375 479.808594 77.164062 465.792969 75.328125 463.808594 "
       style=" stroke:none;fill-rule:nonzero;fill:rgb(0%,0%,0%);fill-opacity:1;" />
    <path
       id="path28"
       d="M 91.050781 461.175781 C 90.011719 461.175781 89.140625 461.523438 88.4375 462.207031 C 87.734375 462.894531 87.382812 463.742188 87.382812 464.75 C 87.382812 466.015625 87.839844 467.054688 88.761719 467.867188 C 89.679688 468.683594 90.859375 469.09375 92.296875 469.09375 C 93.144531 469.09375 93.941406 468.933594 94.683594 468.613281 C 95.429688 468.292969 96.039062 467.855469 96.519531 467.292969 C 96.617188 467.183594 96.6875 467.105469 96.734375 467.066406 C 96.785156 467.027344 96.839844 467.003906 96.902344 467.003906 L 97.261719 467.003906 C 97.375 467.003906 97.457031 467.050781 97.515625 467.136719 C 97.570312 467.226562 97.625 467.398438 97.671875 467.65625 C 97.734375 467.972656 97.765625 468.332031 97.765625 468.730469 C 97.765625 470.21875 97.457031 471.566406 96.832031 472.773438 C 96.207031 473.980469 95.328125 474.945312 94.195312 475.664062 C 93.058594 476.382812 91.753906 476.742188 90.285156 476.742188 C 88.796875 476.742188 87.441406 476.390625 86.21875 475.6875 C 84.996094 474.984375 84.019531 473.976562 83.292969 472.667969 C 82.5625 471.355469 82.199219 469.859375 82.199219 468.179688 C 82.199219 466.613281 82.527344 465.210938 83.183594 463.972656 C 83.839844 462.730469 84.773438 461.757812 85.992188 461.046875 C 87.207031 460.335938 88.613281 459.976562 90.210938 459.976562 C 91.410156 459.976562 92.488281 460.175781 93.449219 460.566406 C 94.410156 460.957031 95.171875 461.511719 95.738281 462.234375 C 96.308594 462.953125 96.589844 463.777344 96.589844 464.703125 C 96.589844 465.773438 96.207031 466.632812 95.441406 467.28125 C 94.671875 467.929688 93.65625 468.253906 92.394531 468.253906 C 91.625 468.253906 90.925781 468.105469 90.296875 467.808594 C 89.664062 467.511719 89.160156 467.097656 88.785156 466.5625 C 88.410156 466.027344 88.21875 465.414062 88.21875 464.726562 C 88.21875 463.863281 88.515625 463.175781 89.109375 462.664062 C 89.699219 462.152344 90.5 461.898438 91.507812 461.898438 C 91.601562 461.800781 91.652344 461.699219 91.652344 461.585938 C 91.652344 461.457031 91.59375 461.355469 91.480469 461.285156 C 91.371094 461.214844 91.226562 461.175781 91.050781 461.175781 "
       style=" stroke:none;fill-rule:nonzero;fill:rgb(0%,0%,0%);fill-opacity:1;" />
    <path
       id="path30"
       d="M 98.964844 462.039062 C 98.964844 461.480469 98.886719 461.054688 98.726562 460.757812 C 98.566406 460.460938 98.269531 460.1875 97.839844 459.929688 C 97.726562 459.867188 97.660156 459.816406 97.636719 459.773438 C 97.609375 459.734375 97.597656 459.683594 97.597656 459.617188 L 97.597656 459.332031 C 97.597656 459.171875 97.695312 459.089844 97.886719 459.089844 L 104.097656 459.089844 C 104.402344 459.089844 104.613281 459.152344 104.734375 459.269531 C 104.855469 459.390625 104.914062 459.585938 104.914062 459.859375 L 104.914062 465.328125 C 105.699219 464.351562 106.785156 463.863281 108.175781 463.863281 C 109.328125 463.863281 110.207031 464.207031 110.816406 464.894531 C 111.421875 465.582031 111.726562 466.558594 111.726562 467.820312 L 111.726562 475.570312 C 111.726562 475.839844 111.664062 476.035156 111.546875 476.15625 C 111.425781 476.277344 111.214844 476.335938 110.910156 476.335938 L 106.59375 476.335938 C 106.289062 476.335938 106.078125 476.277344 105.957031 476.15625 C 105.839844 476.035156 105.777344 475.839844 105.777344 475.570312 L 105.777344 467.316406 C 105.777344 467.140625 105.738281 466.996094 105.65625 466.886719 C 105.578125 466.773438 105.464844 466.71875 105.320312 466.71875 C 105.132812 466.71875 104.992188 466.78125 104.914062 466.910156 L 104.914062 475.570312 C 104.914062 475.839844 104.855469 476.035156 104.734375 476.15625 C 104.613281 476.277344 104.402344 476.335938 104.097656 476.335938 L 99.78125 476.335938 C 99.476562 476.335938 99.265625 476.277344 99.144531 476.15625 C 99.027344 476.035156 98.964844 475.839844 98.964844 475.570312 Z M 98.964844 462.039062 "
       style=" stroke:none;fill-rule:nonzero;fill:rgb(0%,0%,0%);fill-opacity:1;" />
    <path
       id="path32"
       d="M 119.402344 469.140625 C 119.496094 469.269531 119.625 469.332031 119.785156 469.332031 C 120.074219 469.332031 120.214844 469.171875 120.214844 468.851562 L 120.214844 465.445312 C 120.214844 465.128906 120.074219 464.96875 119.785156 464.96875 C 119.625 464.96875 119.496094 465.03125 119.402344 465.160156 Z M 118.679688 470.796875 C 118.679688 471.164062 118.992188 471.503906 119.617188 471.816406 C 120.242188 472.125 120.9375 472.28125 121.703125 472.28125 C 123.222656 472.28125 124.46875 471.769531 125.445312 470.746094 C 125.542969 470.652344 125.609375 470.589844 125.648438 470.566406 C 125.691406 470.542969 125.75 470.53125 125.828125 470.53125 L 126.117188 470.53125 C 126.226562 470.53125 126.304688 470.570312 126.34375 470.652344 C 126.382812 470.730469 126.40625 470.875 126.40625 471.082031 C 126.40625 472.074219 126.136719 472.988281 125.601562 473.828125 C 125.066406 474.667969 124.304688 475.34375 123.324219 475.855469 C 122.339844 476.367188 121.238281 476.625 120.027344 476.625 C 118.730469 476.625 117.5625 476.359375 116.523438 475.832031 C 115.484375 475.304688 114.65625 474.554688 114.039062 473.578125 C 113.425781 472.601562 113.117188 471.492188 113.117188 470.246094 C 113.117188 469.011719 113.40625 467.917969 113.980469 466.957031 C 114.554688 466 115.375 465.242188 116.441406 464.691406 C 117.503906 464.140625 118.746094 463.863281 120.167969 463.863281 C 121.238281 463.863281 122.203125 464.03125 123.058594 464.367188 C 123.914062 464.703125 124.589844 465.183594 125.085938 465.804688 C 125.582031 466.429688 125.828125 467.148438 125.828125 467.964844 C 125.828125 469.003906 125.453125 469.863281 124.703125 470.542969 C 123.949219 471.222656 123 471.5625 121.847656 471.5625 C 120.695312 471.5625 119.761719 471.179688 119.042969 470.410156 C 118.945312 470.410156 118.863281 470.449219 118.789062 470.519531 C 118.71875 470.589844 118.679688 470.683594 118.679688 470.796875 "
       style=" stroke:none;fill-rule:nonzero;fill:rgb(0%,0%,0%);fill-opacity:1;" />
    <path
       id="path34"
       d="M 128.25 464.152344 C 129.625 464.152344 130.5625 464.558594 131.058594 465.375 C 131.519531 464.863281 132.042969 464.484375 132.617188 464.234375 C 133.191406 463.988281 133.855469 463.863281 134.605469 463.863281 C 135.773438 463.863281 136.734375 464.183594 137.484375 464.824219 C 138.238281 465.464844 138.613281 466.277344 138.613281 467.269531 C 138.613281 468.101562 138.308594 468.777344 137.703125 469.296875 C 137.09375 469.816406 136.308594 470.074219 135.351562 470.074219 C 134.40625 470.074219 133.636719 469.835938 133.035156 469.355469 C 132.4375 468.875 132.136719 468.269531 132.136719 467.535156 C 132.136719 466.910156 132.351562 466.398438 132.785156 466 C 133.214844 465.597656 133.769531 465.398438 134.4375 465.398438 C 134.488281 465.320312 134.511719 465.238281 134.511719 465.160156 C 134.511719 464.933594 134.34375 464.824219 134.007812 464.824219 C 133.304688 464.824219 132.695312 465.089844 132.183594 465.625 C 131.671875 466.164062 131.417969 466.804688 131.417969 467.558594 C 131.417969 468.195312 131.597656 468.761719 131.957031 469.246094 C 132.316406 469.734375 132.832031 470.125 133.503906 470.410156 C 133.726562 470.507812 133.875 470.617188 133.949219 470.734375 C 134.019531 470.855469 134.054688 471.058594 134.054688 471.347656 L 134.054688 475.570312 C 134.054688 476.078125 133.785156 476.335938 133.242188 476.335938 L 128.371094 476.335938 C 127.875 476.335938 127.628906 476.078125 127.628906 475.570312 L 127.628906 467.101562 C 127.628906 466.542969 127.546875 466.113281 127.386719 465.820312 C 127.226562 465.523438 126.933594 465.246094 126.5 464.992188 C 126.390625 464.925781 126.320312 464.875 126.296875 464.835938 C 126.273438 464.796875 126.261719 464.742188 126.261719 464.679688 L 126.261719 464.390625 C 126.261719 464.230469 126.355469 464.152344 126.550781 464.152344 Z M 128.25 464.152344 "
       style=" stroke:none;fill-rule:nonzero;fill:rgb(0%,0%,0%);fill-opacity:1;" />
    <path
       id="path36"
       d="M 140.269531 464.152344 C 141.644531 464.152344 142.578125 464.558594 143.074219 465.375 C 143.539062 464.863281 144.058594 464.484375 144.632812 464.234375 C 145.207031 463.988281 145.871094 463.863281 146.625 463.863281 C 147.789062 463.863281 148.75 464.183594 149.503906 464.824219 C 150.253906 465.464844 150.628906 466.277344 150.628906 467.269531 C 150.628906 468.101562 150.328125 468.777344 149.71875 469.296875 C 149.109375 469.816406 148.328125 470.074219 147.367188 470.074219 C 146.421875 470.074219 145.652344 469.835938 145.050781 469.355469 C 144.453125 468.875 144.152344 468.269531 144.152344 467.535156 C 144.152344 466.910156 144.371094 466.398438 144.800781 466 C 145.234375 465.597656 145.785156 465.398438 146.457031 465.398438 C 146.503906 465.320312 146.527344 465.238281 146.527344 465.160156 C 146.527344 464.933594 146.359375 464.824219 146.023438 464.824219 C 145.320312 464.824219 144.714844 465.089844 144.203125 465.625 C 143.691406 466.164062 143.433594 466.804688 143.433594 467.558594 C 143.433594 468.195312 143.613281 468.761719 143.976562 469.246094 C 144.332031 469.734375 144.851562 470.125 145.519531 470.410156 C 145.746094 470.507812 145.894531 470.617188 145.964844 470.734375 C 146.035156 470.855469 146.074219 471.058594 146.074219 471.347656 L 146.074219 475.570312 C 146.074219 476.078125 145.800781 476.335938 145.257812 476.335938 L 140.386719 476.335938 C 139.894531 476.335938 139.644531 476.078125 139.644531 475.570312 L 139.644531 467.101562 C 139.644531 466.542969 139.566406 466.113281 139.40625 465.820312 C 139.246094 465.523438 138.949219 465.246094 138.519531 464.992188 C 138.40625 464.925781 138.335938 464.875 138.3125 464.835938 C 138.289062 464.796875 138.277344 464.742188 138.277344 464.679688 L 138.277344 464.390625 C 138.277344 464.230469 138.375 464.152344 138.566406 464.152344 Z M 140.269531 464.152344 "
       style=" stroke:none;fill-rule:nonzero;fill:rgb(0%,0%,0%);fill-opacity:1;" />
    <path
       id="path38"
       d="M 151.179688 466.238281 C 151.085938 465.96875 150.953125 465.742188 150.785156 465.566406 C 150.617188 465.390625 150.367188 465.199219 150.03125 464.992188 C 149.871094 464.894531 149.789062 464.789062 149.789062 464.679688 L 149.789062 464.390625 C 149.789062 464.230469 149.886719 464.152344 150.078125 464.152344 L 153.820312 464.152344 C 154.90625 464.152344 155.710938 464.234375 156.230469 464.402344 C 156.75 464.570312 157.15625 464.863281 157.453125 465.277344 C 157.75 465.695312 158.035156 466.308594 158.304688 467.125 L 160.605469 474.082031 C 160.6875 474.160156 160.785156 474.199219 160.894531 474.199219 C 161.136719 474.199219 161.253906 474.066406 161.253906 473.792969 C 161.253906 473.632812 161.191406 473.371094 161.0625 473 L 158.90625 466.40625 C 158.695312 465.765625 158.511719 465.351562 158.351562 465.160156 C 158.210938 464.984375 158.117188 464.867188 158.078125 464.8125 C 158.039062 464.753906 158.015625 464.6875 158.015625 464.605469 L 158.015625 464.390625 C 158.015625 464.230469 158.113281 464.152344 158.304688 464.152344 L 165.09375 464.152344 C 165.667969 464.152344 165.957031 464.359375 165.957031 464.773438 C 165.957031 465.160156 165.546875 466.46875 164.734375 468.707031 C 163.917969 470.949219 162.804688 473.792969 161.398438 477.246094 C 160.886719 478.511719 160.382812 479.488281 159.886719 480.1875 C 159.390625 480.882812 158.84375 481.375 158.246094 481.671875 C 157.644531 481.96875 156.9375 482.117188 156.121094 482.117188 C 154.9375 482.117188 153.984375 481.851562 153.257812 481.324219 C 152.527344 480.796875 152.164062 480.101562 152.164062 479.238281 C 152.164062 478.484375 152.460938 477.878906 153.050781 477.414062 C 153.644531 476.949219 154.410156 476.71875 155.355469 476.71875 C 156.234375 476.71875 156.953125 476.929688 157.511719 477.355469 C 158.074219 477.777344 158.351562 478.328125 158.351562 479 C 158.351562 479.511719 158.179688 479.90625 157.835938 480.1875 C 157.492188 480.464844 157.007812 480.605469 156.386719 480.605469 C 156.351562 480.667969 156.339844 480.742188 156.339844 480.820312 C 156.339844 481.042969 156.523438 481.15625 156.890625 481.15625 C 157.511719 481.15625 158.035156 480.945312 158.449219 480.519531 C 158.863281 480.097656 159.074219 479.566406 159.074219 478.925781 C 159.074219 478.175781 158.808594 477.554688 158.28125 477.066406 C 157.753906 476.578125 156.984375 476.25 155.976562 476.074219 C 155.402344 475.976562 155.027344 475.847656 154.851562 475.6875 C 154.675781 475.527344 154.492188 475.175781 154.300781 474.632812 Z M 151.179688 466.238281 "
       style=" stroke:none;fill-rule:nonzero;fill:rgb(0%,0%,0%);fill-opacity:1;" />
    <path
       id="path40"
       d="M 87 456.011719 C 84.632812 456.011719 82.085938 454.417969 82.085938 450.914062 C 82.085938 447.582031 84.546875 445.835938 86.976562 445.835938 C 89.183594 445.835938 90.980469 447.183594 91.554688 449.273438 L 90.191406 449.648438 C 89.703125 447.882812 88.210938 447.253906 86.976562 447.253906 C 85.25 447.253906 83.503906 448.386719 83.503906 450.914062 C 83.503906 453.457031 85.257812 454.59375 87 454.59375 C 88.222656 454.59375 89.703125 453.96875 90.191406 452.207031 L 91.554688 452.582031 C 90.980469 454.667969 89.191406 456.011719 87 456.011719 "
       style=" stroke:none;fill-rule:nonzero;fill:rgb(0%,0%,0%);fill-opacity:1;" />
    <path
       id="path42"
       d="M 100.820312 447.253906 C 98.964844 447.253906 97.09375 448.390625 97.09375 450.9375 C 97.09375 453.441406 98.9375 454.578125 100.765625 454.59375 L 100.769531 454.59375 C 100.785156 454.597656 100.800781 454.597656 100.820312 454.597656 C 101.855469 454.597656 102.832031 454.21875 103.503906 453.554688 C 104.160156 452.902344 104.507812 452 104.507812 450.9375 C 104.507812 448.40625 102.597656 447.253906 100.820312 447.253906 M 100.820312 456.011719 L 100.75 456.011719 C 98.226562 455.988281 95.675781 454.238281 95.675781 450.9375 C 95.675781 447.589844 98.265625 445.835938 100.820312 445.835938 C 103.359375 445.835938 105.925781 447.589844 105.925781 450.9375 C 105.925781 452.386719 105.433594 453.640625 104.5 454.5625 C 103.5625 455.488281 102.226562 456.011719 100.820312 456.011719 "
       style=" stroke:none;fill-rule:nonzero;fill:rgb(0%,0%,0%);fill-opacity:1;" />
    <path
       id="path44"
       d="M 112.0625 455.484375 L 110.644531 455.484375 L 110.644531 450.410156 C 110.644531 448.902344 111.3125 447.539062 112.476562 446.667969 C 113.625 445.8125 115.089844 445.558594 116.503906 445.976562 L 116.101562 447.335938 C 115.121094 447.046875 114.109375 447.21875 113.324219 447.804688 C 112.523438 448.402344 112.0625 449.355469 112.0625 450.410156 Z M 112.0625 455.484375 "
       style=" stroke:none;fill-rule:nonzero;fill:rgb(0%,0%,0%);fill-opacity:1;" />
    <path
       id="path46"
       d="M 127.628906 455.484375 L 126.210938 455.484375 L 126.210938 450.484375 C 126.210938 448.117188 125.578125 447.304688 123.699219 447.273438 C 122.824219 447.242188 122.113281 447.511719 121.589844 448.023438 C 121.023438 448.574219 120.714844 449.414062 120.714844 450.390625 L 120.714844 455.484375 L 119.296875 455.484375 L 119.296875 450.390625 C 119.296875 449.03125 119.757812 447.832031 120.59375 447.011719 C 121.390625 446.230469 122.480469 445.855469 123.726562 445.855469 C 127.222656 445.914062 127.628906 448.527344 127.628906 450.484375 Z M 127.628906 455.484375 "
       style=" stroke:none;fill-rule:nonzero;fill:rgb(0%,0%,0%);fill-opacity:1;" />
    <path
       id="path48"
       d="M 131.507812 449.71875 L 137.949219 449.71875 C 137.683594 448.429688 136.683594 447.253906 134.832031 447.253906 C 133.40625 447.253906 131.964844 448.027344 131.507812 449.71875 M 134.855469 456.011719 C 132.488281 456.011719 129.941406 454.417969 129.941406 450.914062 C 129.941406 447.582031 132.402344 445.835938 134.832031 445.835938 C 137.824219 445.835938 139.4375 448.203125 139.4375 450.425781 L 139.4375 451.136719 L 131.363281 451.136719 C 131.460938 453.523438 133.164062 454.59375 134.855469 454.59375 C 136.078125 454.59375 137.558594 453.96875 138.046875 452.207031 L 139.410156 452.585938 C 138.835938 454.667969 137.046875 456.011719 134.855469 456.011719 "
       style=" stroke:none;fill-rule:nonzero;fill:rgb(0%,0%,0%);fill-opacity:1;" />
    <path
       id="path50"
       transform="matrix(1,0,0,-1,226.0987,192.9878)"
       d="M -0.00104375 -0.00048125 C -0.00104375 1.722175 -1.395575 3.116706 -3.118231 3.116706 C -4.840888 3.116706 -6.235419 1.722175 -6.235419 -0.00048125 C -6.235419 -1.723137 -4.840888 -3.117669 -3.118231 -3.117669 C -1.395575 -3.117669 -0.00104375 -1.723137 -0.00104375 -0.00048125 Z M -0.00104375 -0.00048125 "
       style="fill:none;stroke-width:0.283;stroke-linecap:round;stroke-linejoin:round;stroke:rgb(100%,0%,0%);stroke-opacity:1;stroke-miterlimit:10;" />
    <path
       id="path52"
       transform="matrix(1,0,0,-1,133.1837,80.3188)"
       d="M -0.00010625 -0.0015125 C -0.00010625 1.721144 -1.394637 3.119581 -3.117294 3.119581 C -4.83995 3.119581 -6.238387 1.721144 -6.238387 -0.0015125 C -6.238387 -1.720262 -4.83995 -3.1187 -3.117294 -3.1187 C -1.394637 -3.1187 -0.00010625 -1.720262 -0.00010625 -0.0015125 Z M -0.00010625 -0.0015125 "
       style="fill:none;stroke-width:0.283;stroke-linecap:round;stroke-linejoin:round;stroke:rgb(100%,0%,0%);stroke-opacity:1;stroke-miterlimit:10;" />
    <path
       id="path54"
       transform="matrix(1,0,0,-1,348.6788,90.5865)"
       d="M 0.0008875 0.0005625 C 0.0008875 1.723219 -1.39755 3.11775 -3.120206 3.11775 C -4.842863 3.11775 -6.237394 1.723219 -6.237394 0.0005625 C -6.237394 -1.722094 -4.842863 -3.120531 -3.120206 -3.120531 C -1.39755 -3.120531 0.0008875 -1.722094 0.0008875 0.0005625 Z M 0.0008875 0.0005625 "
       style="fill:none;stroke-width:0.283;stroke-linecap:round;stroke-linejoin:round;stroke:rgb(100%,0%,0%);stroke-opacity:1;stroke-miterlimit:10;" />
    <path
       id="path56"
       transform="matrix(1,0,0,-1,348.7037,144.4878)"
       d="M -0.000575 -0.00048125 C -0.000575 1.722175 -1.395106 3.116706 -3.117762 3.116706 C -4.840419 3.116706 -6.238856 1.722175 -6.238856 -0.00048125 C -6.238856 -1.723137 -4.840419 -3.117669 -3.117762 -3.117669 C -1.395106 -3.117669 -0.000575 -1.723137 -0.000575 -0.00048125 Z M -0.000575 -0.00048125 "
       style="fill:none;stroke-width:0.283;stroke-linecap:round;stroke-linejoin:round;stroke:rgb(100%,0%,0%);stroke-opacity:1;stroke-miterlimit:10;" />
    <path
       id="path58"
       transform="matrix(1,0,0,-1,94.2311,214.9693)"
       d="M -0.00063125 0.00055 C -0.00063125 1.723206 -1.395163 3.117738 -3.117819 3.117738 C -4.840475 3.117738 -6.238913 1.723206 -6.238913 0.00055 C -6.238913 -1.722106 -4.840475 -3.116637 -3.117819 -3.116637 C -1.395163 -3.116637 -0.00063125 -1.722106 -0.00063125 0.00055 Z M -0.00063125 0.00055 "
       style="fill:none;stroke-width:0.283;stroke-linecap:round;stroke-linejoin:round;stroke:rgb(100%,0%,0%);stroke-opacity:1;stroke-miterlimit:10;" />
    <path
       id="path60"
       transform="matrix(1,0,0,-1,60.4654,281.8433)"
       d="M -0.00055625 -0.00045 C -1.578681 -0.00045 -3.129463 0.737831 -4.109931 2.120644 C -4.129463 2.151894 -4.191963 2.245644 -4.211494 2.276894 C -4.234931 2.31205 -4.258369 2.347206 -4.2779 2.386269 L -41.801338 67.694863 C -43.188056 69.956581 -44.016181 72.620644 -44.164619 75.3433 C -44.164619 75.386269 -44.168525 75.433144 -44.168525 75.476113 L -44.164619 242.608925 C -44.164619 244.800331 -42.387275 246.577675 -40.199775 246.577675 L 14.6596 246.577675 L 14.6596 249.011269 C 14.6596 251.198769 16.44085 252.980019 18.62835 252.980019 L 68.522881 252.980019 L 68.522881 256.097206 C 68.522881 258.288613 70.300225 260.065956 72.491631 260.065956 L 122.6596 260.065956 L 122.6596 262.476113 C 122.6596 264.667519 124.44085 266.444863 126.62835 266.444863 L 174.265069 266.444863 C 176.452569 266.444863 178.233819 264.667519 178.233819 262.476113 L 178.233819 260.065956 L 228.405694 260.065956 C 230.593194 260.065956 232.374444 258.288613 232.374444 256.097206 L 232.374444 246.601113 L 336.12835 246.601113 C 338.319756 246.601113 340.0971 244.819863 340.0971 242.632363 L 340.0971 86.007363 C 340.0971 83.819863 338.319756 82.038613 336.12835 82.038613 L 180.811944 82.038613 C 177.038506 76.870644 151.374444 41.698769 151.374444 41.698769 C 151.257256 41.538613 151.124444 41.390175 150.9721 41.261269 C 150.311944 40.698769 149.511163 40.347206 148.651788 40.245644 L 44.397881 24.74955 C 44.362725 24.741738 44.31585 24.730019 44.261162 24.7183 L 2.776787 0.839394 C 1.925225 0.272988 0.960381 -0.00045 -0.00055625 -0.00045 Z M -0.00055625 -0.00045 "
       style="fill:none;stroke-width:0.283;stroke-linecap:butt;stroke-linejoin:miter;stroke:rgb(100%,0%,0%);stroke-opacity:1;stroke-miterlimit:10;" />
    <path
       id="path62"
       transform="matrix(1,0,0,-1,191.4928,478.4321)"
       d="M -0.0006125 -0.00149375 C -0.0006125 1.721163 1.397825 3.1196 3.116575 3.1196 C 4.839231 3.1196 6.237669 1.721163 6.237669 -0.00149375 C 6.237669 -1.72415 4.839231 -3.118681 3.116575 -3.118681 C 1.397825 -3.118681 -0.0006125 -1.72415 -0.0006125 -0.00149375 Z M -0.0006125 -0.00149375 "
       style="fill:none;stroke-width:0.283;stroke-linecap:round;stroke-linejoin:round;stroke:rgb(100%,0%,0%);stroke-opacity:1;stroke-miterlimit:10;" />
    <path
       id="path64"
       transform="matrix(1,0,0,-1,284.4073,365.7632)"
       d="M -0.00105 0.00148125 C -0.00105 1.724138 1.397388 3.118669 3.120044 3.118669 C 4.8427 3.118669 6.237231 1.724138 6.237231 0.00148125 C 6.237231 -1.721175 4.8427 -3.119612 3.120044 -3.119612 C 1.397388 -3.119612 -0.00105 -1.721175 -0.00105 0.00148125 Z M -0.00105 0.00148125 "
       style="fill:none;stroke-width:0.283;stroke-linecap:round;stroke-linejoin:round;stroke:rgb(100%,0%,0%);stroke-opacity:1;stroke-miterlimit:10;" />
    <path
       id="path66"
       transform="matrix(1,0,0,-1,68.9127,376.0308)"
       d="M 0.0013625 -0.00045 C 0.0013625 1.722206 1.395894 3.116738 3.11855 3.116738 C 4.841206 3.116738 6.235737 1.722206 6.235737 -0.00045 C 6.235737 -1.723106 4.841206 -3.117637 3.11855 -3.117637 C 1.395894 -3.117637 0.0013625 -1.723106 0.0013625 -0.00045 Z M 0.0013625 -0.00045 "
       style="fill:none;stroke-width:0.283;stroke-linecap:round;stroke-linejoin:round;stroke:rgb(100%,0%,0%);stroke-opacity:1;stroke-miterlimit:10;" />
    <path
       id="path68"
       transform="matrix(1,0,0,-1,68.8878,429.9321)"
       d="M -0.00108125 -0.00149375 C -0.00108125 1.721163 1.397356 3.1196 3.116106 3.1196 C 4.838763 3.1196 6.2372 1.721163 6.2372 -0.00149375 C 6.2372 -1.72415 4.838763 -3.118681 3.116106 -3.118681 C 1.397356 -3.118681 -0.00108125 -1.72415 -0.00108125 -0.00149375 Z M -0.00108125 -0.00149375 "
       style="fill:none;stroke-width:0.283;stroke-linecap:round;stroke-linejoin:round;stroke:rgb(100%,0%,0%);stroke-opacity:1;stroke-miterlimit:10;" />
    <path
       id="path70"
       transform="matrix(1,0,0,-1,323.3605,500.4136)"
       d="M -0.001125 -0.0004625 C -0.001125 1.722194 1.397312 3.116725 3.116062 3.116725 C 4.838719 3.116725 6.237156 1.722194 6.237156 -0.0004625 C 6.237156 -1.723119 4.838719 -3.11765 3.116062 -3.11765 C 1.397312 -3.11765 -0.001125 -1.723119 -0.001125 -0.0004625 Z M -0.001125 -0.0004625 "
       style="fill:none;stroke-width:0.283;stroke-linecap:round;stroke-linejoin:round;stroke:rgb(100%,0%,0%);stroke-opacity:1;stroke-miterlimit:10;" />
    <path
       id="path72"
       transform="matrix(1,0,0,-1,354.3478,566.4458)"
       d="M -0.00014375 0.0004875 L -41.484519 23.875488 C -41.5353 23.891113 -41.586081 23.902831 -41.621238 23.906738 L -145.871238 39.406738 C -146.734519 39.5083 -147.5353 39.855956 -148.195456 40.422363 C -148.343894 40.551269 -148.480613 40.6958 -148.5978 40.855956 C -148.5978 40.855956 -174.261863 76.027831 -178.031394 81.199706 L -333.351706 81.199706 C -335.539206 81.199706 -337.320456 82.97705 -337.320456 85.168456 L -337.320456 241.793456 C -337.320456 243.980956 -335.539206 245.7583 -333.351706 245.7583 L -229.5978 245.7583 L -229.5978 255.2583 C -229.5978 257.4458 -227.81655 259.22705 -225.62905 259.22705 L -175.445456 259.22705 L -175.445456 261.637206 C -175.445456 263.824706 -173.664206 265.60205 -171.476706 265.60205 L -123.871238 265.60205 C -121.683738 265.60205 -119.902488 263.824706 -119.902488 261.637206 L -119.902488 259.22705 L -69.711081 259.22705 C -67.523581 259.22705 -65.742331 257.4458 -65.742331 255.2583 L -65.742331 252.137206 L -15.851706 252.137206 C -13.6603 252.137206 -11.87905 250.359863 -11.87905 248.168456 L -11.87905 245.738769 L 42.976419 245.738769 C 45.163919 245.738769 46.945169 243.957519 46.945169 241.770019 L 46.945169 74.637206 C 46.945169 74.590331 46.941262 74.547363 46.941262 74.500488 C 46.796731 71.781738 45.968606 69.113769 44.577981 66.85205 L 7.05845 1.543456 C 7.035012 1.5083 7.015481 1.469238 6.988137 1.434081 C 6.972512 1.402831 6.906106 1.312988 6.886575 1.281738 C 5.910012 -0.101075 4.355325 -0.839356 2.7772 -0.839356 C 1.820169 -0.839356 0.851419 -0.565919 -0.00014375 0.0004875 Z M -0.00014375 0.0004875 "
       style="fill:none;stroke-width:0.283;stroke-linecap:butt;stroke-linejoin:miter;stroke:rgb(100%,0%,0%);stroke-opacity:1;stroke-miterlimit:10;" />
    <path
       id="path74"
       transform="matrix(1,0,0,-1,262.8649,228.0904)"
       d="M -0.00161875 0.00055625 C 1.721037 0.00055625 3.119475 -1.397881 3.119475 -3.116631 C 3.119475 -4.839287 1.721037 -6.237725 -0.00161875 -6.237725 C -1.720369 -6.237725 -3.118806 -4.839287 -3.118806 -3.116631 C -3.118806 -1.397881 -1.720369 0.00055625 -0.00161875 0.00055625 Z M -0.00161875 0.00055625 "
       style="fill:none;stroke-width:0.283;stroke-linecap:round;stroke-linejoin:round;stroke:rgb(100%,0%,0%);stroke-opacity:1;stroke-miterlimit:10;" />
    <path
       id="path76"
       transform="matrix(1,0,0,-1,238.7687,269.1958)"
       d="M 0.00083125 0.0004875 C 1.723488 0.0004875 3.118019 -1.39795 3.118019 -3.1167 C 3.118019 -4.839356 1.723488 -6.237794 0.00083125 -6.237794 C -1.721825 -6.237794 -3.116356 -4.839356 -3.116356 -3.1167 C -3.116356 -1.39795 -1.721825 0.0004875 0.00083125 0.0004875 Z M 0.00083125 0.0004875 "
       style="fill:none;stroke-width:0.283;stroke-linecap:round;stroke-linejoin:round;stroke:rgb(100%,0%,0%);stroke-opacity:1;stroke-miterlimit:10;" />
    <path
       id="path78"
       transform="matrix(1,0,0,-1,398.8683,221.0738)"
       d="M -0.0011125 -0.00041875 C 0.784044 -0.00041875 1.416856 -0.633231 1.420763 -1.418387 L 1.420763 -57.1762 C 1.420763 -59.367606 -0.356581 -61.14495 -2.551894 -61.14495 L -170.9308 -61.14495 C -171.110487 -61.117606 -171.286269 -61.066825 -171.454237 -60.996512 C -172.602675 -60.516044 -173.141737 -59.191825 -172.661269 -58.047294 L -140.157362 -1.812919 C -139.3058 -0.83245 -138.571425 -0.168387 -137.090956 -0.00041875 L -0.0011125 -0.00041875 "
       style="fill:none;stroke-width:0.283;stroke-linecap:round;stroke-linejoin:round;stroke:rgb(100%,0%,0%);stroke-opacity:1;stroke-miterlimit:10;" />
    <path
       id="path80"
       transform="matrix(1,0,0,-1,155.923,511.5122)"
       d="M -0.001125 0.00048125 C -1.723781 0.00048125 -3.118313 -1.39405 -3.118313 -3.116706 C -3.118313 -4.839362 -1.723781 -6.2378 -0.001125 -6.2378 C 1.721531 -6.2378 3.119969 -4.839362 3.119969 -3.116706 C 3.119969 -1.39405 1.721531 0.00048125 -0.001125 0.00048125 Z M -0.001125 0.00048125 "
       style="fill:none;stroke-width:0.283;stroke-linecap:round;stroke-linejoin:round;stroke:rgb(100%,0%,0%);stroke-opacity:1;stroke-miterlimit:10;" />
    <path
       id="path82"
       transform="matrix(1,0,0,-1,180.0191,552.6177)"
       d="M 0.00043125 0.0005125 C -1.722225 0.0005125 -3.116756 -1.397925 -3.116756 -3.116675 C -3.116756 -4.839331 -1.722225 -6.237769 0.00043125 -6.237769 C 1.723088 -6.237769 3.117619 -4.839331 3.117619 -3.116675 C 3.117619 -1.397925 1.723088 0.0005125 0.00043125 0.0005125 Z M 0.00043125 0.0005125 "
       style="fill:none;stroke-width:0.283;stroke-linecap:round;stroke-linejoin:round;stroke:rgb(100%,0%,0%);stroke-opacity:1;stroke-miterlimit:10;" />
    <path
       id="path84"
       transform="matrix(1,0,0,-1,19.9195,504.4956)"
       d="M -0.00153125 -0.00049375 C -0.782781 -0.00049375 -1.4195 -0.633306 -1.4195 -1.418462 L -1.4195 -57.176275 C -1.4195 -59.367681 0.357844 -61.145025 2.54925 -61.145025 L 170.928156 -61.145025 C 171.11175 -61.117681 171.287531 -61.0669 171.4555 -60.996587 C 172.603938 -60.516119 173.143 -59.1919 172.662531 -58.047369 L 140.154719 -1.812994 C 139.303156 -0.832525 138.572688 -0.168462 137.088313 -0.00049375 L -0.00153125 -0.00049375 "
       style="fill:none;stroke-width:0.283;stroke-linecap:round;stroke-linejoin:round;stroke:rgb(100%,0%,0%);stroke-opacity:1;stroke-miterlimit:10;" />
  </g>
</svg>
