<?xml version="1.0" encoding="UTF-8" standalone="no"?>
<svg
   xmlns:dc="http://purl.org/dc/elements/1.1/"
   xmlns:cc="http://creativecommons.org/ns#"
   xmlns:rdf="http://www.w3.org/1999/02/22-rdf-syntax-ns#"
   xmlns:svg="http://www.w3.org/2000/svg"
   xmlns="http://www.w3.org/2000/svg"
   xmlns:sodipodi="http://sodipodi.sourceforge.net/DTD/sodipodi-0.dtd"
   xmlns:inkscape="http://www.inkscape.org/namespaces/inkscape"
   sodipodi:docname="imk_bottom.svg"
   id="svg59"
   version="1.2"
   viewBox="0 0 419.528 595.276"
   height="595.276pt"
   width="419.528pt"
   inkscape:version="1.0.2-2 (e86c870879, 2021-01-15)">
  <metadata
     id="metadata65">
    <rdf:RDF>
      <cc:Work
         rdf:about="">
        <dc:format>image/svg+xml</dc:format>
        <dc:type
           rdf:resource="http://purl.org/dc/dcmitype/StillImage" />
        <dc:title></dc:title>
      </cc:Work>
    </rdf:RDF>
  </metadata>
  <defs
     id="defs63" />
  <sodipodi:namedview
     id="namedview61"
     inkscape:window-height="1057"
     inkscape:window-width="1920"
     inkscape:pageshadow="2"
     inkscape:pageopacity="0"
     guidetolerance="10"
     gridtolerance="10"
     objecttolerance="10"
     borderopacity="1"
     bordercolor="#666666"
     pagecolor="#ffffff"
     inkscape:document-rotation="0"
     showgrid="false"
     inkscape:zoom="0.79289905"
     inkscape:cx="274.74253"
     inkscape:cy="414.21225"
     inkscape:window-x="1912"
     inkscape:window-y="-8"
     inkscape:window-maximized="1"
     inkscape:current-layer="svg59" />
  <g
     id="surface1"
     style="stroke-width:0.99974999;stroke-miterlimit:4;stroke-dasharray:none">
    <path
       id="path2"
       transform="matrix(1,0,0,-1,228.4151,189.8384)"
       d="M -0.0010375 -0.00144375 C -0.0010375 1.721213 -1.395569 3.11965 -3.118225 3.11965 C -4.840881 3.11965 -6.235412 1.721213 -6.235412 -0.00144375 C -6.235412 -1.720194 -4.840881 -3.118631 -3.118225 -3.118631 C -1.395569 -3.118631 -0.0010375 -1.720194 -0.0010375 -0.00144375 Z M -0.0010375 -0.00144375 "
       style="fill:none;stroke-width:0.99974999;stroke-linecap:butt;stroke-linejoin:miter;stroke:rgb(100%, 0%, 0%);stroke-opacity:1;stroke-miterlimit:4;stroke-dasharray:none" />
    <path
       id="path4"
       transform="matrix(1,0,0,-1,135.5001,77.1685)"
       d="M -0.0001 0.00053125 C -0.0001 1.723188 -1.394631 3.117719 -3.117288 3.117719 C -4.839944 3.117719 -6.238381 1.723188 -6.238381 0.00053125 C -6.238381 -1.722125 -4.839944 -3.116656 -3.117288 -3.116656 C -1.394631 -3.116656 -0.0001 -1.722125 -0.0001 0.00053125 Z M -0.0001 0.00053125 "
       style="fill:none;stroke-width:0.99974999;stroke-linecap:butt;stroke-linejoin:miter;stroke:rgb(100%, 0%, 0%);stroke-opacity:1;stroke-miterlimit:4;stroke-dasharray:none" />
    <path
       id="path6"
       transform="matrix(1,0,0,-1,350.9952,87.437)"
       d="M 0.00089375 -0.0005 C 0.00089375 1.722156 -1.397544 3.116688 -3.1202 3.116688 C -4.842856 3.116688 -6.237387 1.722156 -6.237387 -0.0005 C -6.237387 -1.723156 -4.842856 -3.117687 -3.1202 -3.117687 C -1.397544 -3.117687 0.00089375 -1.723156 0.00089375 -0.0005 Z M 0.00089375 -0.0005 "
       style="fill:none;stroke-width:0.99974999;stroke-linecap:butt;stroke-linejoin:miter;stroke:rgb(100%, 0%, 0%);stroke-opacity:1;stroke-miterlimit:4;stroke-dasharray:none" />
    <path
       id="path8"
       transform="matrix(1,0,0,-1,351.0201,141.3384)"
       d="M -0.00056875 -0.00144375 C -0.00056875 1.721213 -1.3951 3.11965 -3.117756 3.11965 C -4.840412 3.11965 -6.23885 1.721213 -6.23885 -0.00144375 C -6.23885 -1.720194 -4.840412 -3.118631 -3.117756 -3.118631 C -1.3951 -3.118631 -0.00056875 -1.720194 -0.00056875 -0.00144375 Z M -0.00056875 -0.00144375 "
       style="fill:none;stroke-width:0.99974999;stroke-linecap:butt;stroke-linejoin:miter;stroke:rgb(100%, 0%, 0%);stroke-opacity:1;stroke-miterlimit:4;stroke-dasharray:none" />
    <path
       id="path10"
       transform="matrix(1,0,0,-1,96.5475,211.8189)"
       d="M -0.000625 -0.0014125 C -0.000625 1.721244 -1.395156 3.119681 -3.117813 3.119681 C -4.840469 3.119681 -6.238906 1.721244 -6.238906 -0.0014125 C -6.238906 -1.724069 -4.840469 -3.1186 -3.117813 -3.1186 C -1.395156 -3.1186 -0.000625 -1.724069 -0.000625 -0.0014125 Z M -0.000625 -0.0014125 "
       style="fill:none;stroke-width:0.99974999;stroke-linecap:butt;stroke-linejoin:miter;stroke:rgb(100%, 0%, 0%);stroke-opacity:1;stroke-miterlimit:4;stroke-dasharray:none" />
    <path
       id="path12"
       transform="matrix(1,0,0,-1,286.7238,362.6128)"
       d="M -0.00114375 -0.00048125 C -0.00114375 1.722175 1.397294 3.116706 3.11995 3.116706 C 4.842606 3.116706 6.237138 1.722175 6.237138 -0.00048125 C 6.237138 -1.723137 4.842606 -3.117669 3.11995 -3.117669 C 1.397294 -3.117669 -0.00114375 -1.723137 -0.00114375 -0.00048125 Z M -0.00114375 -0.00048125 "
       style="fill:none;stroke-width:0.99974999;stroke-linecap:butt;stroke-linejoin:miter;stroke:rgb(100%, 0%, 0%);stroke-opacity:1;stroke-miterlimit:4;stroke-dasharray:none" />
    <path
       id="path14"
       transform="matrix(1,0,0,-1,71.2291,372.8804)"
       d="M 0.00136875 0.00149375 C 0.00136875 1.720244 1.3959 3.118681 3.118556 3.118681 C 4.841212 3.118681 6.235744 1.720244 6.235744 0.00149375 C 6.235744 -1.721162 4.841212 -3.1196 3.118556 -3.1196 C 1.3959 -3.1196 0.00136875 -1.721162 0.00136875 0.00149375 Z M 0.00136875 0.00149375 "
       style="fill:none;stroke-width:0.99974999;stroke-linecap:butt;stroke-linejoin:miter;stroke:rgb(100%, 0%, 0%);stroke-opacity:1;stroke-miterlimit:4;stroke-dasharray:none" />
    <path
       id="path16"
       transform="matrix(1,0,0,-1,71.2042,426.7818)"
       d="M -0.001075 0.00055 C -0.001075 1.723206 1.397362 3.117738 3.116112 3.117738 C 4.838769 3.117738 6.237206 1.723206 6.237206 0.00055 C 6.237206 -1.722106 4.838769 -3.116637 3.116112 -3.116637 C 1.397362 -3.116637 -0.001075 -1.722106 -0.001075 0.00055 Z M -0.001075 0.00055 "
       style="fill:none;stroke-width:0.99974999;stroke-linecap:butt;stroke-linejoin:miter;stroke:rgb(100%, 0%, 0%);stroke-opacity:1;stroke-miterlimit:4;stroke-dasharray:none" />
    <path
       id="path18"
       transform="matrix(1,0,0,-1,325.6769,497.2632)"
       d="M -0.00111875 0.00148125 C -0.00111875 1.720231 1.397319 3.118669 3.116069 3.118669 C 4.838725 3.118669 6.237163 1.720231 6.237163 0.00148125 C 6.237163 -1.721175 4.838725 -3.119612 3.116069 -3.119612 C 1.397319 -3.119612 -0.00111875 -1.721175 -0.00111875 0.00148125 Z M -0.00111875 0.00148125 "
       style="fill:none;stroke-width:0.99974999;stroke-linecap:butt;stroke-linejoin:miter;stroke:rgb(100%, 0%, 0%);stroke-opacity:1;stroke-miterlimit:4;stroke-dasharray:none" />
    <path
       id="path20"
       transform="matrix(1,0,0,-1,160.7364,507.6118)"
       d="M 0.00188125 -0.00148125 C 1.720631 -0.00148125 3.119069 1.396956 3.119069 3.119613 C 3.119069 4.838363 1.720631 6.2368 0.00188125 6.2368 C -1.720775 6.2368 -3.119213 4.838363 -3.119213 3.119613 C -3.119213 1.396956 -1.720775 -0.00148125 0.00188125 -0.00148125 Z M 0.00188125 -0.00148125 "
       style="fill:none;stroke-width:0.99974999;stroke-linecap:butt;stroke-linejoin:miter;stroke:rgb(100%, 0%, 0%);stroke-opacity:1;stroke-miterlimit:4;stroke-dasharray:none" />
    <path
       id="path22"
       transform="matrix(1,0,0,-1,184.8819,548.5181)"
       d="M 0.0009125 -0.00143125 C 1.723569 -0.00143125 3.1181 1.397006 3.1181 3.119663 C 3.1181 4.838413 1.723569 6.23685 0.0009125 6.23685 C -1.721744 6.23685 -3.116275 4.838413 -3.116275 3.119663 C -3.116275 1.397006 -1.721744 -0.00143125 0.0009125 -0.00143125 Z M 0.0009125 -0.00143125 "
       style="fill:none;stroke-width:0.99974999;stroke-linecap:butt;stroke-linejoin:miter;stroke:rgb(100%, 0%, 0%);stroke-opacity:1;stroke-miterlimit:4;stroke-dasharray:none" />
    <path
       id="path24"
       transform="matrix(1,0,0,-1,196.9278,472.1636)"
       d="M 0.0018875 -0.0004625 C 1.720637 -0.0004625 3.119075 -1.394994 3.119075 -3.11765 C 3.119075 -4.840306 1.720637 -6.234837 0.0018875 -6.234837 C -1.720769 -6.234837 -3.119206 -4.840306 -3.119206 -3.11765 C -3.119206 -1.394994 -1.720769 -0.0004625 0.0018875 -0.0004625 Z M 0.0018875 -0.0004625 "
       style="fill:none;stroke-width:0.99974999;stroke-linecap:butt;stroke-linejoin:miter;stroke:rgb(100%, 0%, 0%);stroke-opacity:1;stroke-miterlimit:4;stroke-dasharray:none" />
    <path
       id="path26"
       transform="matrix(1,0,0,-1,255.9791,222.9536)"
       d="M 0.00136875 0.000475 C -1.721287 0.000475 -3.119725 1.395006 -3.119725 3.117663 C -3.119725 4.840319 -1.721287 6.23485 0.00136875 6.23485 C 1.720119 6.23485 3.118556 4.840319 3.118556 3.117663 C 3.118556 1.395006 1.720119 0.000475 0.00136875 0.000475 Z M 0.00136875 0.000475 "
       style="fill:none;stroke-width:0.99974999;stroke-linecap:butt;stroke-linejoin:miter;stroke:rgb(100%, 0%, 0%);stroke-opacity:1;stroke-miterlimit:4;stroke-dasharray:none" />
    <path
       id="path28"
       transform="matrix(1,0,0,-1,231.8336,263.8599)"
       d="M -0.00156875 0.000525 C -1.720319 0.000525 -3.118756 1.395056 -3.118756 3.117713 C -3.118756 4.840369 -1.720319 6.2349 -0.00156875 6.2349 C 1.721088 6.2349 3.119525 4.840369 3.119525 3.117713 C 3.119525 1.395056 1.721088 0.000525 -0.00156875 0.000525 Z M -0.00156875 0.000525 "
       style="fill:none;stroke-width:0.99974999;stroke-linecap:butt;stroke-linejoin:miter;stroke:rgb(100%, 0%, 0%);stroke-opacity:1;stroke-miterlimit:4;stroke-dasharray:none" />
    <path
       id="path30"
       transform="matrix(1,0,0,-1,62.7814,278.6929)"
       d="M -0.00015 0.00149375 C -1.578275 0.00149375 -3.129056 0.739775 -4.109525 2.122588 C -4.129056 2.153838 -4.191556 2.243681 -4.211087 2.274931 C -4.234525 2.310088 -4.257962 2.34915 -4.277494 2.384306 L -41.800931 67.6929 C -43.18765 69.954619 -44.019681 72.622588 -44.164212 75.341338 C -44.164212 75.388213 -44.168119 75.431181 -44.168119 75.478056 L -44.164212 242.610869 C -44.164212 244.798369 -42.386869 246.579619 -40.199369 246.579619 L 14.660006 246.579619 L 14.660006 249.009306 C 14.660006 251.200713 16.43735 252.978056 18.628756 252.978056 L 68.519381 252.978056 L 68.519381 256.09915 C 68.519381 258.28665 70.300631 260.0679 72.488131 260.0679 L 122.660006 260.0679 L 122.660006 262.478056 C 122.660006 264.665556 124.43735 266.4429 126.628756 266.4429 L 174.265475 266.4429 C 176.452975 266.4429 178.234225 264.665556 178.234225 262.478056 L 178.234225 260.0679 L 228.4061 260.0679 C 230.5936 260.0679 232.37485 258.28665 232.37485 256.09915 L 232.37485 246.59915 L 336.132662 246.59915 C 338.320162 246.59915 340.101412 244.821806 340.101412 242.634306 L 340.101412 86.009306 C 340.101412 83.8179 338.320162 82.040556 336.132662 82.040556 L 180.81235 82.040556 C 177.038913 76.868681 151.37485 41.696806 151.37485 41.696806 C 151.257663 41.53665 151.12485 41.392119 150.972506 41.263213 C 150.31235 40.696806 149.511569 40.34915 148.652194 40.247588 L 44.398288 24.747588 C 44.363131 24.743681 44.316256 24.731963 44.261569 24.716338 L 2.777194 0.841338 C 1.925631 0.274931 0.960788 0.00149375 -0.00015 0.00149375 Z M -0.00015 0.00149375 "
       style="fill:none;stroke-width:0.99974999;stroke-linecap:butt;stroke-linejoin:miter;stroke:rgb(0%, 0%, 100%);stroke-opacity:1;stroke-miterlimit:4;stroke-dasharray:none" />
    <path
       id="path32"
       transform="matrix(1,0,0,-1,356.6642,563.2964)"
       d="M -0.0001375 -0.000475 L -41.484513 23.878431 C -41.535294 23.89015 -41.586075 23.901869 -41.621231 23.909681 L -145.871231 39.405775 C -146.734513 39.507338 -147.535294 39.8589 -148.19545 40.4214 C -148.343888 40.550306 -148.480606 40.694838 -148.597794 40.854994 C -148.597794 40.854994 -174.261856 76.030775 -178.031388 81.198744 L -333.3517 81.198744 C -335.5392 81.198744 -337.32045 82.979994 -337.32045 85.167494 L -337.32045 241.792494 C -337.32045 243.979994 -335.5392 245.761244 -333.3517 245.761244 L -229.597794 245.761244 L -229.597794 255.257338 C -229.597794 257.444838 -227.816544 259.226088 -225.629044 259.226088 L -175.44545 259.226088 L -175.44545 261.636244 C -175.44545 263.823744 -173.6642 265.604994 -171.4767 265.604994 L -123.871231 265.604994 C -121.683731 265.604994 -119.902481 263.823744 -119.902481 261.636244 L -119.902481 259.226088 L -69.711075 259.226088 C -67.523575 259.226088 -65.742325 257.444838 -65.742325 255.257338 L -65.742325 252.14015 L -15.8517 252.14015 C -13.660294 252.14015 -11.88295 250.3589 -11.88295 248.1714 L -11.88295 245.737806 L 42.976425 245.737806 C 45.163925 245.737806 46.945175 243.956556 46.945175 241.769056 L 46.945175 74.636244 C 46.945175 74.593275 46.941269 74.5464 46.941269 74.499525 C 46.796737 71.780775 45.968612 69.112806 44.577987 66.854994 L 7.058456 1.542494 C 7.035019 1.507338 7.015487 1.472181 6.988144 1.433119 C 6.972519 1.401869 6.906112 1.312025 6.886581 1.280775 C 5.910019 -0.102037 4.355331 -0.840319 2.777206 -0.840319 C 1.820175 -0.840319 0.851425 -0.566881 -0.0001375 -0.000475 Z M -0.0001375 -0.000475 "
       style="fill:none;stroke-width:0.99974999;stroke-linecap:butt;stroke-linejoin:miter;stroke:rgb(0%, 0%, 100%);stroke-opacity:1;stroke-miterlimit:4;stroke-dasharray:none" />
    <path
       id="path34"
       transform="matrix(1,0,0,-1,23.3146,551.5357)"
       d="M 0.00180625 0.00054375 C 0.00180625 -2.190862 1.775244 -3.968206 3.96665 -3.968206 L 172.193212 -3.968206 C 173.283056 -3.968206 173.96665 -2.788519 173.419775 -1.843206 L 141.380712 53.840388 C 141.126806 54.277888 140.658056 54.547419 140.150244 54.547419 L 1.423681 54.547419 C 0.642431 54.547419 0.0057125 53.914606 0.0057125 53.133356 Z M 0.00180625 0.00054375 "
       style="fill:none;stroke-width:0.99974999;stroke-linecap:butt;stroke-linejoin:miter;stroke:rgb(0%, 0%, 100%);stroke-opacity:1;stroke-miterlimit:4;stroke-dasharray:none" />
    <path
       id="path36"
       transform="matrix(1,0,0,-1,393.4005,266.8775)"
       d="M 0.00184375 -0.00140625 C 0.00184375 -2.192812 -1.7755 -3.970156 -3.966906 -3.970156 L -172.193469 -3.970156 C -173.283312 -3.970156 -173.966906 -2.786562 -173.420031 -1.84125 L -141.377062 53.842344 C -141.127062 54.279844 -140.658312 54.549375 -140.1505 54.549375 L -1.423937 54.549375 C -0.642687 54.549375 -0.00596875 53.916563 -0.00596875 53.131406 Z M 0.00184375 -0.00140625 "
       style="fill:none;stroke-width:0.99974999;stroke-linecap:butt;stroke-linejoin:miter;stroke:rgb(0%, 0%, 100%);stroke-opacity:1;stroke-miterlimit:4;stroke-dasharray:none" />
    <path
       id="path38"
       d="M 139.171875 114.257812 C 139.171875 102.34375 145.519531 94.800781 155.089844 94.800781 C 159.460938 94.800781 162.789062 96.988281 164.714844 99.277344 L 163.515625 100.578125 C 161.488281 98.234375 158.628906 96.621094 155.089844 96.621094 C 146.453125 96.621094 141.199219 103.4375 141.199219 114.257812 C 141.199219 125.078125 146.453125 132.101562 154.882812 132.101562 C 158.835938 132.101562 161.800781 130.488281 164.664062 127.316406 L 165.859375 128.5625 C 162.996094 131.894531 159.667969 133.921875 154.777344 133.921875 C 145.464844 133.921875 139.171875 126.171875 139.171875 114.257812 "
       style="stroke:none;fill-rule:nonzero;fill:rgb(13%, 9%, 8%);fill-opacity:1;stroke-width:0.99974999;stroke-miterlimit:4;stroke-dasharray:none" />
    <path
       id="path40"
       d="M 200.039062 114.257812 C 200.039062 103.4375 194.679688 96.621094 186.722656 96.621094 C 178.761719 96.621094 173.402344 103.4375 173.402344 114.257812 C 173.402344 125.078125 178.761719 132.101562 186.722656 132.101562 C 194.679688 132.101562 200.039062 125.078125 200.039062 114.257812 M 171.375 114.257812 C 171.375 102.34375 177.773438 94.800781 186.722656 94.800781 C 195.667969 94.800781 202.066406 102.34375 202.066406 114.257812 C 202.066406 126.171875 195.667969 133.921875 186.722656 133.921875 C 177.773438 133.921875 171.375 126.171875 171.375 114.257812 "
       style="stroke:none;fill-rule:nonzero;fill:rgb(13%, 9%, 8%);fill-opacity:1;stroke-width:0.99974999;stroke-miterlimit:4;stroke-dasharray:none" />
    <path
       id="path42"
       d="M 220.796875 113.789062 C 227.714844 113.789062 231.566406 111.03125 231.566406 105.207031 C 231.566406 99.328125 227.714844 97.195312 220.796875 97.195312 L 212.941406 97.195312 L 212.941406 113.789062 Z M 231.980469 133.246094 L 221.316406 115.453125 L 212.941406 115.453125 L 212.941406 133.246094 L 211.015625 133.246094 L 211.015625 95.476562 L 221.472656 95.476562 C 228.914062 95.476562 233.648438 98.234375 233.648438 105.207031 C 233.648438 111.292969 229.796875 114.726562 223.554688 115.351562 L 234.21875 133.246094 Z M 231.980469 133.246094 "
       style="stroke:none;fill-rule:nonzero;fill:rgb(13%, 9%, 8%);fill-opacity:1;stroke-width:0.99974999;stroke-miterlimit:4;stroke-dasharray:none" />
    <path
       id="path44"
       d="M 241.660156 95.476562 L 243.6875 95.476562 L 260.335938 123 L 264.652344 130.4375 L 264.914062 130.4375 C 264.703125 126.796875 264.601562 123.308594 264.601562 119.773438 L 264.601562 95.476562 L 266.472656 95.476562 L 266.472656 133.246094 L 264.394531 133.246094 L 247.796875 105.726562 L 243.480469 98.289062 L 243.273438 98.289062 C 243.375 101.824219 243.480469 105.050781 243.480469 108.640625 L 243.480469 133.246094 L 241.660156 133.246094 Z M 241.660156 95.476562 "
       style="stroke:none;fill-rule:nonzero;fill:rgb(13%, 9%, 8%);fill-opacity:1;stroke-width:0.99974999;stroke-miterlimit:4;stroke-dasharray:none" />
    <path
       id="path46"
       d="M 277.867188 95.476562 L 298.15625 95.476562 L 298.15625 97.195312 L 279.792969 97.195312 L 279.792969 112.230469 L 295.191406 112.230469 L 295.191406 113.945312 L 279.792969 113.945312 L 279.792969 131.527344 L 298.730469 131.527344 L 298.730469 133.246094 L 277.867188 133.246094 Z M 277.867188 95.476562 "
       style="stroke:none;fill-rule:nonzero;fill:rgb(13%, 9%, 8%);fill-opacity:1;stroke-width:0.99974999;stroke-miterlimit:4;stroke-dasharray:none" />
    <path
       id="path48"
       d="M 139.265625 399.703125 C 139.265625 387.789062 145.613281 380.246094 155.183594 380.246094 C 159.554688 380.246094 162.882812 382.433594 164.808594 384.71875 L 163.613281 386.019531 C 161.582031 383.679688 158.722656 382.066406 155.183594 382.066406 C 146.550781 382.066406 141.296875 388.882812 141.296875 399.703125 C 141.296875 410.523438 146.550781 417.546875 154.976562 417.546875 C 158.933594 417.546875 161.898438 415.933594 164.757812 412.757812 L 165.953125 414.007812 C 163.09375 417.335938 159.765625 419.367188 154.875 419.367188 C 145.5625 419.367188 139.265625 411.617188 139.265625 399.703125 "
       style="stroke:none;fill-rule:nonzero;fill:rgb(13%, 9%, 8%);fill-opacity:1;stroke-width:0.99974999;stroke-miterlimit:4;stroke-dasharray:none" />
    <path
       id="path50"
       d="M 200.132812 399.703125 C 200.132812 388.882812 194.777344 382.066406 186.816406 382.066406 C 178.855469 382.066406 173.5 388.882812 173.5 399.703125 C 173.5 410.523438 178.855469 417.546875 186.816406 417.546875 C 194.777344 417.546875 200.132812 410.523438 200.132812 399.703125 M 171.46875 399.703125 C 171.46875 387.789062 177.867188 380.246094 186.816406 380.246094 C 195.765625 380.246094 202.164062 387.789062 202.164062 399.703125 C 202.164062 411.617188 195.765625 419.367188 186.816406 419.367188 C 177.867188 419.367188 171.46875 411.617188 171.46875 399.703125 "
       style="stroke:none;fill-rule:nonzero;fill:rgb(13%, 9%, 8%);fill-opacity:1;stroke-width:0.99974999;stroke-miterlimit:4;stroke-dasharray:none" />
    <path
       id="path52"
       d="M 220.890625 399.234375 C 227.8125 399.234375 231.660156 396.476562 231.660156 390.648438 C 231.660156 384.773438 227.8125 382.640625 220.890625 382.640625 L 213.039062 382.640625 L 213.039062 399.234375 Z M 232.078125 418.691406 L 221.414062 400.898438 L 213.039062 400.898438 L 213.039062 418.691406 L 211.113281 418.691406 L 211.113281 380.921875 L 221.566406 380.921875 C 229.007812 380.921875 233.742188 383.679688 233.742188 390.648438 C 233.742188 396.738281 229.890625 400.171875 223.648438 400.792969 L 234.3125 418.691406 Z M 232.078125 418.691406 "
       style="stroke:none;fill-rule:nonzero;fill:rgb(13%, 9%, 8%);fill-opacity:1;stroke-width:0.99974999;stroke-miterlimit:4;stroke-dasharray:none" />
    <path
       id="path54"
       d="M 241.753906 380.921875 L 243.78125 380.921875 L 260.429688 408.441406 L 264.746094 415.882812 L 265.007812 415.882812 C 264.800781 412.238281 264.695312 408.753906 264.695312 405.214844 L 264.695312 380.921875 L 266.566406 380.921875 L 266.566406 418.691406 L 264.488281 418.691406 L 247.894531 391.171875 L 243.574219 383.730469 L 243.367188 383.730469 C 243.472656 387.269531 243.574219 390.492188 243.574219 394.082031 L 243.574219 418.691406 L 241.753906 418.691406 Z M 241.753906 380.921875 "
       style="stroke:none;fill-rule:nonzero;fill:rgb(13%, 9%, 8%);fill-opacity:1;stroke-width:0.99974999;stroke-miterlimit:4;stroke-dasharray:none" />
    <path
       id="path56"
       d="M 277.964844 380.921875 L 298.253906 380.921875 L 298.253906 382.640625 L 279.886719 382.640625 L 279.886719 397.671875 L 295.285156 397.671875 L 295.285156 399.390625 L 279.886719 399.390625 L 279.886719 416.972656 L 298.824219 416.972656 L 298.824219 418.691406 L 277.964844 418.691406 Z M 277.964844 380.921875 "
       style="stroke:none;fill-rule:nonzero;fill:rgb(13%, 9%, 8%);fill-opacity:1;stroke-width:0.99974999;stroke-miterlimit:4;stroke-dasharray:none" />
  </g>
</svg>
