<?xml version="1.0" encoding="UTF-8" standalone="no"?>
<svg
   xmlns:dc="http://purl.org/dc/elements/1.1/"
   xmlns:cc="http://creativecommons.org/ns#"
   xmlns:rdf="http://www.w3.org/1999/02/22-rdf-syntax-ns#"
   xmlns:svg="http://www.w3.org/2000/svg"
   xmlns="http://www.w3.org/2000/svg"
   xmlns:sodipodi="http://sodipodi.sourceforge.net/DTD/sodipodi-0.dtd"
   xmlns:inkscape="http://www.inkscape.org/namespaces/inkscape"
   version="1.1"
   id="svg2"
   xml:space="preserve"
   width="1122.52"
   height="793.70135"
   viewBox="0 0 1122.52 793.70135"
   sodipodi:docname="tilting-tenting_top-bottom.svg"
   inkscape:version="1.0.2-2 (e86c870879, 2021-01-15)"><metadata
     id="metadata8"><rdf:RDF><cc:Work
         rdf:about=""><dc:format>image/svg+xml</dc:format><dc:type
           rdf:resource="http://purl.org/dc/dcmitype/StillImage" /><dc:title></dc:title></cc:Work></rdf:RDF></metadata><defs
     id="defs6"><clipPath
       clipPathUnits="userSpaceOnUse"
       id="clipPath18"><path
         d="M 0,595.276 H 841.89 V 0 H 0 Z"
         id="path16" /></clipPath><clipPath
       clipPathUnits="userSpaceOnUse"
       id="clipPath178"><path
         d="M 0,595.276 H 841.89 V 0 H 0 Z"
         id="path176" /></clipPath></defs><sodipodi:namedview
     pagecolor="#ffffff"
     bordercolor="#666666"
     borderopacity="1"
     objecttolerance="10"
     gridtolerance="10"
     guidetolerance="10"
     inkscape:pageopacity="0"
     inkscape:pageshadow="2"
     inkscape:window-width="1920"
     inkscape:window-height="1057"
     id="namedview4"
     showgrid="false"
     inkscape:zoom="1.0734775"
     inkscape:cx="561.26001"
     inkscape:cy="396.85068"
     inkscape:window-x="1912"
     inkscape:window-y="-8"
     inkscape:window-maximized="1"
     inkscape:current-layer="g10" /><g
     id="g10"
     inkscape:groupmode="layer"
     inkscape:label="tilting-tenting_top-bottom"
     transform="matrix(1.3333333,0,0,-1.3333333,0,793.70133)"><g
       id="g12"><g
         id="g14"
         clip-path="url(#clipPath18)"><g
           id="g20"
           transform="translate(305.7549,119.63)"><path
             d="m 0,0 c 0.047,-2.044 -1.863,-8.347 -6.648,-8.347 -1.367,0 -2.673,0.658 -3.41,1.766 -0.724,1.092 -1.003,2.435 -1.003,3.958 0.011,3.316 1.343,7.669 4.123,12.602 2.708,4.767 4.206,8.925 4.181,12.037 0,1.637 -0.375,2.968 -1.148,4.116 -0.786,1.141 -2.019,2.146 -3.904,2.961 -1.379,0.592 -2.708,0.858 -3.964,0.858 -2.72,0 -5.318,-1.221 -7.627,-3.389 -2.322,-2.17 -4.316,-5.272 -5.707,-8.807 -1.099,-2.768 -2.744,-8.558 -2.744,-14.518 0,-2.41 0.292,-4.832 0.92,-7.118 -6.079,8.553 -2.986,20.076 -0.435,25.407 -0.967,0.388 -1.96,0.587 -2.973,0.587 -0.06,0 -0.122,0 -0.17,-0.006 -3.045,-0.067 -5.898,-1.928 -8.074,-5.21 -2.164,-3.275 -3.542,-7.893 -3.53,-13.017 V 3.233 c 0.072,-3.706 0.871,-7.126 2.141,-9.978 -3.011,3.474 -6.25,9.556 -4.691,18.311 -0.399,0.098 -0.785,0.147 -1.172,0.147 h -0.026 c -0.241,0 -0.47,-0.014 -0.712,-0.055 -1.74,-0.249 -3.276,-1.384 -4.473,-3.33 -1.17,-1.933 -1.897,-4.624 -1.897,-7.616 0,-0.901 0.061,-1.825 0.194,-2.768 0.483,-3.383 1.813,-6.334 3.505,-8.364 1.691,-2.043 3.687,-3.106 5.56,-3.106 2.648,0 4.896,1.535 6.212,2.628 2.176,-2.711 4.859,-4.212 7.628,-4.212 2.852,0 5.79,1.673 7.821,3.202 1.401,-1.22 3.106,-2.271 5.209,-3.093 1.777,-0.695 3.443,-0.997 5.003,-0.997 C 3.154,-15.998 1.837,-1.982 0,0"
             style="fill:#000000;fill-opacity:1;fill-rule:nonzero;stroke:none"
             id="path22" /></g><g
           id="g24"
           transform="translate(305.7549,119.63)"><path
             d="m 0,0 c 0.047,-2.044 -1.863,-8.347 -6.648,-8.347 -1.367,0 -2.673,0.658 -3.41,1.766 -0.724,1.092 -1.003,2.435 -1.003,3.958 0.011,3.316 1.343,7.669 4.123,12.602 2.708,4.767 4.206,8.925 4.181,12.037 0,1.637 -0.375,2.968 -1.148,4.116 -0.786,1.141 -2.019,2.146 -3.904,2.961 -1.379,0.592 -2.708,0.858 -3.964,0.858 -2.72,0 -5.318,-1.221 -7.627,-3.389 -2.322,-2.17 -4.316,-5.272 -5.707,-8.807 -1.099,-2.768 -2.744,-8.558 -2.744,-14.518 0,-2.41 0.292,-4.832 0.92,-7.118 -6.079,8.553 -2.986,20.076 -0.435,25.407 -0.967,0.388 -1.96,0.587 -2.973,0.587 -0.06,0 -0.122,0 -0.17,-0.006 -3.045,-0.067 -5.898,-1.928 -8.074,-5.21 -2.164,-3.275 -3.542,-7.893 -3.53,-13.017 V 3.233 c 0.072,-3.706 0.871,-7.126 2.141,-9.978 -3.011,3.474 -6.25,9.556 -4.691,18.311 -0.399,0.098 -0.785,0.147 -1.172,0.147 h -0.026 c -0.241,0 -0.47,-0.014 -0.712,-0.055 -1.74,-0.249 -3.276,-1.384 -4.473,-3.33 -1.17,-1.933 -1.897,-4.624 -1.897,-7.616 0,-0.901 0.061,-1.825 0.194,-2.768 0.483,-3.383 1.813,-6.334 3.505,-8.364 1.691,-2.043 3.687,-3.106 5.56,-3.106 2.648,0 4.896,1.535 6.212,2.628 2.176,-2.711 4.859,-4.212 7.628,-4.212 2.852,0 5.79,1.673 7.821,3.202 1.401,-1.22 3.106,-2.271 5.209,-3.093 1.777,-0.695 3.443,-0.997 5.003,-0.997 C 3.154,-15.998 1.837,-1.982 0,0 Z"
             style="fill:none;stroke:#000000;stroke-width:0.283;stroke-linecap:butt;stroke-linejoin:miter;stroke-miterlimit:10;stroke-dasharray:none;stroke-opacity:1"
             id="path26" /></g><g
           id="g28"
           transform="translate(321.2989,133.9776)"><path
             d="m 0,0 c -0.54,1.96 -2.208,2.915 -3.896,2.915 -2.071,0 -4.184,-1.433 -4.184,-4.369 0,-2.956 2.093,-4.39 4.205,-4.39 1.689,0 3.335,0.956 3.875,2.909"
             style="fill:none;stroke:#000000;stroke-width:1.417;stroke-linecap:butt;stroke-linejoin:miter;stroke-miterlimit:10;stroke-dasharray:none;stroke-opacity:1"
             id="path30" /></g><g
           id="g32"
           transform="translate(331.1856,128.1339)"><path
             d="m 0,0 c 2.227,-0.026 4.458,1.456 4.458,4.369 0,2.915 -2.208,4.39 -4.396,4.39 -2.229,0 -4.437,-1.454 -4.437,-4.39 C -4.375,1.477 -2.189,0.021 0,0 Z"
             style="fill:none;stroke:#000000;stroke-width:1.417;stroke-linecap:butt;stroke-linejoin:miter;stroke-miterlimit:10;stroke-dasharray:none;stroke-opacity:1"
             id="path34" /></g><g
           id="g36"
           transform="translate(346.7271,136.7823)"><path
             d="M 0,0 C -2.537,0.749 -4.948,-1.095 -4.948,-3.754 V -8.828"
             style="fill:none;stroke:#000000;stroke-width:1.417;stroke-linecap:butt;stroke-linejoin:miter;stroke-miterlimit:10;stroke-dasharray:none;stroke-opacity:1"
             id="path38" /></g><g
           id="g40"
           transform="translate(357.3448,127.9542)"><path
             d="M 0,0 V 5 C 0,7.303 -0.594,8.875 -3.206,8.918 -5.594,8.965 -6.913,7.257 -6.913,5.096 V 0"
             style="fill:none;stroke:#000000;stroke-width:1.417;stroke-linecap:butt;stroke-linejoin:miter;stroke-miterlimit:10;stroke-dasharray:none;stroke-opacity:1"
             id="path42" /></g><g
           id="g44"
           transform="translate(321.4771,122.2618)"><path
             d="m 0,0 c -1.04,0 -1.911,-0.345 -2.614,-1.031 -0.704,-0.688 -1.056,-1.535 -1.056,-2.542 0,-1.264 0.46,-2.303 1.379,-3.118 0.92,-0.817 2.099,-1.224 3.538,-1.224 0.847,0 1.643,0.16 2.387,0.479 0.743,0.321 1.355,0.759 1.835,1.32 0.095,0.111 0.167,0.188 0.215,0.228 0.048,0.039 0.104,0.06 0.169,0.06 h 0.359 c 0.112,0 0.196,-0.045 0.252,-0.133 0.056,-0.087 0.108,-0.259 0.156,-0.516 0.064,-0.319 0.095,-0.678 0.095,-1.079 0,-1.486 -0.311,-2.834 -0.935,-4.041 -0.623,-1.207 -1.503,-2.171 -2.638,-2.89 -1.136,-0.719 -2.438,-1.079 -3.91,-1.079 -1.487,0 -2.842,0.351 -4.065,1.054 -1.223,0.704 -2.199,1.712 -2.926,3.023 -0.728,1.311 -1.092,2.806 -1.092,4.485 0,1.567 0.328,2.971 0.984,4.21 0.655,1.239 1.591,2.214 2.806,2.926 1.215,0.711 2.622,1.067 4.221,1.067 1.2,0 2.279,-0.196 3.238,-0.588 0.96,-0.391 1.723,-0.947 2.291,-1.667 0.567,-0.718 0.852,-1.543 0.852,-2.47 0,-1.072 -0.384,-1.931 -1.152,-2.578 -0.767,-0.648 -1.783,-0.971 -3.046,-0.971 -0.768,0 -1.467,0.147 -2.098,0.443 -0.633,0.296 -1.136,0.711 -1.512,1.247 -0.376,0.535 -0.564,1.148 -0.564,1.835 0,0.863 0.296,1.551 0.888,2.064 0.591,0.51 1.391,0.766 2.399,0.766 0.096,0.096 0.144,0.2 0.144,0.312 0,0.128 -0.057,0.228 -0.168,0.301 C 0.32,-0.036 0.176,0 0,0"
             style="fill:#000000;fill-opacity:1;fill-rule:nonzero;stroke:none"
             id="path46" /></g><g
           id="g48"
           transform="translate(321.4771,122.2618)"><path
             d="m 0,0 c -1.04,0 -1.911,-0.345 -2.614,-1.031 -0.704,-0.688 -1.056,-1.535 -1.056,-2.542 0,-1.264 0.46,-2.303 1.379,-3.118 0.92,-0.817 2.099,-1.224 3.538,-1.224 0.847,0 1.643,0.16 2.387,0.479 0.743,0.321 1.355,0.759 1.835,1.32 0.095,0.111 0.167,0.188 0.215,0.228 0.048,0.039 0.104,0.06 0.169,0.06 h 0.359 c 0.112,0 0.196,-0.045 0.252,-0.133 0.056,-0.087 0.108,-0.259 0.156,-0.516 0.064,-0.319 0.095,-0.678 0.095,-1.079 0,-1.486 -0.311,-2.834 -0.935,-4.041 -0.623,-1.207 -1.503,-2.171 -2.638,-2.89 -1.136,-0.719 -2.438,-1.079 -3.91,-1.079 -1.487,0 -2.842,0.351 -4.065,1.054 -1.223,0.704 -2.199,1.712 -2.926,3.023 -0.728,1.311 -1.092,2.806 -1.092,4.485 0,1.567 0.328,2.971 0.984,4.21 0.655,1.239 1.591,2.214 2.806,2.926 1.215,0.711 2.622,1.067 4.221,1.067 1.2,0 2.279,-0.196 3.238,-0.588 0.96,-0.391 1.723,-0.947 2.291,-1.667 0.567,-0.718 0.852,-1.543 0.852,-2.47 0,-1.072 -0.384,-1.931 -1.152,-2.578 -0.767,-0.648 -1.783,-0.971 -3.046,-0.971 -0.768,0 -1.467,0.147 -2.098,0.443 -0.633,0.296 -1.136,0.711 -1.512,1.247 -0.376,0.535 -0.564,1.148 -0.564,1.835 0,0.863 0.296,1.551 0.888,2.064 0.591,0.51 1.391,0.766 2.399,0.766 0.096,0.096 0.144,0.2 0.144,0.312 0,0.128 -0.057,0.228 -0.168,0.301 C 0.32,-0.036 0.176,0 0,0 Z"
             style="fill:none;stroke:#000000;stroke-width:0.283;stroke-linecap:butt;stroke-linejoin:miter;stroke-miterlimit:10;stroke-dasharray:none;stroke-opacity:1"
             id="path50" /></g><g
           id="g52"
           transform="translate(329.3922,121.3985)"><path
             d="M 0,0 C 0,0.56 -0.08,0.987 -0.24,1.283 -0.4,1.578 -0.695,1.854 -1.127,2.11 -1.239,2.174 -1.307,2.226 -1.332,2.267 -1.355,2.306 -1.367,2.358 -1.367,2.422 V 2.71 c 0,0.16 0.096,0.24 0.287,0.24 H 5.133 C 5.437,2.95 5.648,2.89 5.769,2.77 5.888,2.649 5.948,2.454 5.948,2.183 v -5.469 c 0.783,0.974 1.871,1.463 3.262,1.463 1.151,0 2.031,-0.344 2.639,-1.031 0.607,-0.688 0.911,-1.664 0.911,-2.926 v -7.748 c 0,-0.272 -0.06,-0.467 -0.18,-0.587 -0.12,-0.12 -0.332,-0.181 -0.635,-0.181 H 7.627 c -0.304,0 -0.516,0.061 -0.635,0.181 -0.12,0.12 -0.18,0.315 -0.18,0.587 v 8.252 c 0,0.174 -0.041,0.319 -0.121,0.43 -0.08,0.113 -0.191,0.168 -0.335,0.168 -0.192,0 -0.328,-0.063 -0.408,-0.191 v -8.659 c 0,-0.272 -0.06,-0.467 -0.179,-0.587 -0.121,-0.12 -0.332,-0.181 -0.636,-0.181 H 0.815 c -0.304,0 -0.515,0.061 -0.635,0.181 C 0.06,-13.995 0,-13.8 0,-13.528 Z"
             style="fill:#000000;fill-opacity:1;fill-rule:nonzero;stroke:none"
             id="path54" /></g><g
           id="g56"
           transform="translate(329.3922,121.3985)"><path
             d="M 0,0 C 0,0.56 -0.08,0.987 -0.24,1.283 -0.4,1.578 -0.695,1.854 -1.127,2.11 -1.239,2.174 -1.307,2.226 -1.332,2.267 -1.355,2.306 -1.367,2.358 -1.367,2.422 V 2.71 c 0,0.16 0.096,0.24 0.287,0.24 H 5.133 C 5.437,2.95 5.648,2.89 5.769,2.77 5.888,2.649 5.948,2.454 5.948,2.183 v -5.469 c 0.783,0.974 1.871,1.463 3.262,1.463 1.151,0 2.031,-0.344 2.639,-1.031 0.607,-0.688 0.911,-1.664 0.911,-2.926 v -7.748 c 0,-0.272 -0.06,-0.467 -0.18,-0.587 -0.12,-0.12 -0.332,-0.181 -0.635,-0.181 H 7.627 c -0.304,0 -0.516,0.061 -0.635,0.181 -0.12,0.12 -0.18,0.315 -0.18,0.587 v 8.252 c 0,0.174 -0.041,0.319 -0.121,0.43 -0.08,0.113 -0.191,0.168 -0.335,0.168 -0.192,0 -0.328,-0.063 -0.408,-0.191 v -8.659 c 0,-0.272 -0.06,-0.467 -0.179,-0.587 -0.121,-0.12 -0.332,-0.181 -0.636,-0.181 H 0.815 c -0.304,0 -0.515,0.061 -0.635,0.181 C 0.06,-13.995 0,-13.8 0,-13.528 Z"
             style="fill:none;stroke:#000000;stroke-width:0.283;stroke-linecap:butt;stroke-linejoin:miter;stroke-miterlimit:10;stroke-dasharray:none;stroke-opacity:1"
             id="path58" /></g><g
           id="g60"
           transform="translate(349.8277,114.2989)"><path
             d="m 0,0 c 0.096,-0.129 0.224,-0.192 0.384,-0.192 0.287,0 0.431,0.16 0.431,0.48 v 3.405 c 0,0.32 -0.144,0.48 -0.431,0.48 C 0.224,4.173 0.096,4.109 0,3.981 Z m -0.72,-1.655 c 0,-0.368 0.312,-0.707 0.935,-1.02 0.624,-0.311 1.319,-0.468 2.087,-0.468 1.519,0 2.767,0.512 3.742,1.536 0.096,0.095 0.164,0.156 0.204,0.18 0.04,0.024 0.1,0.035 0.18,0.035 h 0.288 c 0.111,0 0.187,-0.04 0.227,-0.12 0.04,-0.08 0.06,-0.223 0.06,-0.43 C 7.003,-2.935 6.735,-3.85 6.2,-4.689 5.664,-5.529 4.904,-6.205 3.921,-6.716 2.938,-7.228 1.838,-7.483 0.623,-7.483 c -1.295,0 -2.462,0.263 -3.502,0.791 -1.039,0.527 -1.867,1.279 -2.482,2.255 -0.616,0.975 -0.924,2.086 -0.924,3.333 0,1.232 0.288,2.327 0.864,3.287 0.576,0.959 1.395,1.714 2.459,2.266 1.063,0.552 2.306,0.827 3.73,0.827 1.07,0 2.034,-0.168 2.889,-0.503 C 4.512,4.437 5.188,3.957 5.685,3.334 6.179,2.71 6.428,1.99 6.428,1.176 c 0,-1.04 -0.376,-1.9 -1.127,-2.579 -0.752,-0.68 -1.703,-1.02 -2.855,-1.02 -1.151,0 -2.087,0.384 -2.806,1.152 -0.096,0 -0.18,-0.037 -0.252,-0.109 -0.072,-0.071 -0.108,-0.164 -0.108,-0.275"
             style="fill:#000000;fill-opacity:1;fill-rule:nonzero;stroke:none"
             id="path62" /></g><g
           id="g64"
           transform="translate(349.8277,114.2989)"><path
             d="m 0,0 c 0.096,-0.129 0.224,-0.192 0.384,-0.192 0.287,0 0.431,0.16 0.431,0.48 v 3.405 c 0,0.32 -0.144,0.48 -0.431,0.48 C 0.224,4.173 0.096,4.109 0,3.981 Z m -0.72,-1.655 c 0,-0.368 0.312,-0.707 0.935,-1.02 0.624,-0.311 1.319,-0.468 2.087,-0.468 1.519,0 2.767,0.512 3.742,1.536 0.096,0.095 0.164,0.156 0.204,0.18 0.04,0.024 0.1,0.035 0.18,0.035 h 0.288 c 0.111,0 0.187,-0.04 0.227,-0.12 0.04,-0.08 0.06,-0.223 0.06,-0.43 C 7.003,-2.935 6.735,-3.85 6.2,-4.689 5.664,-5.529 4.904,-6.205 3.921,-6.716 2.938,-7.228 1.838,-7.483 0.623,-7.483 c -1.295,0 -2.462,0.263 -3.502,0.791 -1.039,0.527 -1.867,1.279 -2.482,2.255 -0.616,0.975 -0.924,2.086 -0.924,3.333 0,1.232 0.288,2.327 0.864,3.287 0.576,0.959 1.395,1.714 2.459,2.266 1.063,0.552 2.306,0.827 3.73,0.827 1.07,0 2.034,-0.168 2.889,-0.503 C 4.512,4.437 5.188,3.957 5.685,3.334 6.179,2.71 6.428,1.99 6.428,1.176 c 0,-1.04 -0.376,-1.9 -1.127,-2.579 -0.752,-0.68 -1.703,-1.02 -2.855,-1.02 -1.151,0 -2.087,0.384 -2.806,1.152 -0.096,0 -0.18,-0.037 -0.252,-0.109 -0.072,-0.071 -0.108,-0.164 -0.108,-0.275 z"
             style="fill:none;stroke:#000000;stroke-width:0.283;stroke-linecap:butt;stroke-linejoin:miter;stroke-miterlimit:10;stroke-dasharray:none;stroke-opacity:1"
             id="path66" /></g><g
           id="g68"
           transform="translate(358.6773,119.2872)"><path
             d="m 0,0 c 1.375,0 2.311,-0.407 2.807,-1.223 0.463,0.511 0.983,0.891 1.558,1.14 0.576,0.247 1.239,0.371 1.991,0.371 1.167,0 2.127,-0.319 2.878,-0.96 0.752,-0.639 1.128,-1.455 1.128,-2.446 0,-0.831 -0.304,-1.507 -0.911,-2.027 C 8.842,-5.664 8.059,-5.924 7.1,-5.924 c -0.944,0 -1.715,0.239 -2.315,0.719 -0.599,0.48 -0.899,1.088 -0.899,1.823 0,0.624 0.216,1.136 0.648,1.535 0.431,0.401 0.983,0.601 1.654,0.601 0.049,0.079 0.072,0.159 0.072,0.239 0,0.224 -0.168,0.335 -0.503,0.335 -0.704,0 -1.312,-0.267 -1.823,-0.803 -0.513,-0.536 -0.768,-1.179 -0.768,-1.93 0,-0.64 0.18,-1.203 0.54,-1.692 0.359,-0.487 0.876,-0.875 1.547,-1.163 0.224,-0.095 0.372,-0.204 0.444,-0.324 0.072,-0.119 0.108,-0.323 0.108,-0.611 v -4.222 c 0,-0.511 -0.272,-0.768 -0.816,-0.768 H 0.12 c -0.495,0 -0.744,0.257 -0.744,0.768 v 8.468 c 0,0.558 -0.08,0.987 -0.239,1.282 -0.16,0.296 -0.456,0.571 -0.888,0.828 -0.112,0.064 -0.18,0.115 -0.204,0.155 -0.024,0.04 -0.035,0.092 -0.035,0.157 v 0.288 C -1.99,-0.08 -1.895,0 -1.703,0 Z"
             style="fill:#000000;fill-opacity:1;fill-rule:nonzero;stroke:none"
             id="path70" /></g><g
           id="g72"
           transform="translate(358.6773,119.2872)"><path
             d="m 0,0 c 1.375,0 2.311,-0.407 2.807,-1.223 0.463,0.511 0.983,0.891 1.558,1.14 0.576,0.247 1.239,0.371 1.991,0.371 1.167,0 2.127,-0.319 2.878,-0.96 0.752,-0.639 1.128,-1.455 1.128,-2.446 0,-0.831 -0.304,-1.507 -0.911,-2.027 C 8.842,-5.664 8.059,-5.924 7.1,-5.924 c -0.944,0 -1.715,0.239 -2.315,0.719 -0.599,0.48 -0.899,1.088 -0.899,1.823 0,0.624 0.216,1.136 0.648,1.535 0.431,0.401 0.983,0.601 1.654,0.601 0.049,0.079 0.072,0.159 0.072,0.239 0,0.224 -0.168,0.335 -0.503,0.335 -0.704,0 -1.312,-0.267 -1.823,-0.803 -0.513,-0.536 -0.768,-1.179 -0.768,-1.93 0,-0.64 0.18,-1.203 0.54,-1.692 0.359,-0.487 0.876,-0.875 1.547,-1.163 0.224,-0.095 0.372,-0.204 0.444,-0.324 0.072,-0.119 0.108,-0.323 0.108,-0.611 v -4.222 c 0,-0.511 -0.272,-0.768 -0.816,-0.768 H 0.12 c -0.495,0 -0.744,0.257 -0.744,0.768 v 8.468 c 0,0.558 -0.08,0.987 -0.239,1.282 -0.16,0.296 -0.456,0.571 -0.888,0.828 -0.112,0.064 -0.18,0.115 -0.204,0.155 -0.024,0.04 -0.035,0.092 -0.035,0.157 v 0.288 C -1.99,-0.08 -1.895,0 -1.703,0 Z"
             style="fill:none;stroke:#000000;stroke-width:0.283;stroke-linecap:butt;stroke-linejoin:miter;stroke-miterlimit:10;stroke-dasharray:none;stroke-opacity:1"
             id="path74" /></g><g
           id="g76"
           transform="translate(370.6939,119.2872)"><path
             d="m 0,0 c 1.375,0 2.311,-0.407 2.807,-1.223 0.463,0.511 0.983,0.891 1.558,1.14 0.576,0.247 1.239,0.371 1.991,0.371 1.167,0 2.127,-0.319 2.879,-0.96 0.751,-0.639 1.127,-1.455 1.127,-2.446 0,-0.831 -0.304,-1.507 -0.911,-2.027 C 8.843,-5.664 8.059,-5.924 7.1,-5.924 c -0.944,0 -1.715,0.239 -2.315,0.719 -0.599,0.48 -0.899,1.088 -0.899,1.823 0,0.624 0.216,1.136 0.648,1.535 0.431,0.401 0.983,0.601 1.654,0.601 0.049,0.079 0.072,0.159 0.072,0.239 0,0.224 -0.168,0.335 -0.503,0.335 -0.704,0 -1.312,-0.267 -1.823,-0.803 -0.512,-0.536 -0.767,-1.179 -0.767,-1.93 0,-0.64 0.179,-1.203 0.539,-1.692 0.36,-0.487 0.876,-0.875 1.547,-1.163 0.224,-0.095 0.372,-0.204 0.444,-0.324 0.072,-0.119 0.108,-0.323 0.108,-0.611 v -4.222 c 0,-0.511 -0.272,-0.768 -0.816,-0.768 H 0.12 c -0.495,0 -0.744,0.257 -0.744,0.768 v 8.468 c 0,0.558 -0.08,0.987 -0.239,1.282 -0.16,0.296 -0.456,0.571 -0.887,0.828 -0.112,0.064 -0.181,0.115 -0.204,0.155 -0.025,0.04 -0.036,0.092 -0.036,0.157 v 0.288 C -1.99,-0.08 -1.894,0 -1.702,0 Z"
             style="fill:#000000;fill-opacity:1;fill-rule:nonzero;stroke:none"
             id="path78" /></g><g
           id="g80"
           transform="translate(370.6939,119.2872)"><path
             d="m 0,0 c 1.375,0 2.311,-0.407 2.807,-1.223 0.463,0.511 0.983,0.891 1.558,1.14 0.576,0.247 1.239,0.371 1.991,0.371 1.167,0 2.127,-0.319 2.879,-0.96 0.751,-0.639 1.127,-1.455 1.127,-2.446 0,-0.831 -0.304,-1.507 -0.911,-2.027 C 8.843,-5.664 8.059,-5.924 7.1,-5.924 c -0.944,0 -1.715,0.239 -2.315,0.719 -0.599,0.48 -0.899,1.088 -0.899,1.823 0,0.624 0.216,1.136 0.648,1.535 0.431,0.401 0.983,0.601 1.654,0.601 0.049,0.079 0.072,0.159 0.072,0.239 0,0.224 -0.168,0.335 -0.503,0.335 -0.704,0 -1.312,-0.267 -1.823,-0.803 -0.512,-0.536 -0.767,-1.179 -0.767,-1.93 0,-0.64 0.179,-1.203 0.539,-1.692 0.36,-0.487 0.876,-0.875 1.547,-1.163 0.224,-0.095 0.372,-0.204 0.444,-0.324 0.072,-0.119 0.108,-0.323 0.108,-0.611 v -4.222 c 0,-0.511 -0.272,-0.768 -0.816,-0.768 H 0.12 c -0.495,0 -0.744,0.257 -0.744,0.768 v 8.468 c 0,0.558 -0.08,0.987 -0.239,1.282 -0.16,0.296 -0.456,0.571 -0.887,0.828 -0.112,0.064 -0.181,0.115 -0.204,0.155 -0.025,0.04 -0.036,0.092 -0.036,0.157 v 0.288 C -1.99,-0.08 -1.894,0 -1.702,0 Z"
             style="fill:none;stroke:#000000;stroke-width:0.283;stroke-linecap:butt;stroke-linejoin:miter;stroke-miterlimit:10;stroke-dasharray:none;stroke-opacity:1"
             id="path82" /></g><g
           id="g84"
           transform="translate(381.6075,117.2003)"><path
             d="m 0,0 c -0.096,0.272 -0.228,0.496 -0.396,0.672 -0.167,0.176 -0.419,0.368 -0.755,0.576 -0.16,0.096 -0.24,0.2 -0.24,0.312 v 0.288 c 0,0.159 0.096,0.239 0.288,0.239 H 2.638 C 3.726,2.087 4.529,2.004 5.049,1.836 5.568,1.667 5.976,1.375 6.272,0.96 6.568,0.544 6.852,-0.071 7.124,-0.887 l 2.302,-6.956 c 0.08,-0.08 0.176,-0.119 0.288,-0.119 0.24,0 0.36,0.135 0.36,0.407 0,0.16 -0.064,0.424 -0.192,0.792 L 7.723,-0.167 C 7.515,0.472 7.332,0.888 7.171,1.08 7.028,1.256 6.935,1.371 6.896,1.428 6.856,1.483 6.836,1.552 6.836,1.632 v 0.216 c 0,0.159 0.096,0.239 0.288,0.239 h 6.788 c 0.575,0 0.863,-0.208 0.863,-0.623 0,-0.384 -0.408,-1.695 -1.223,-3.934 -0.816,-2.239 -1.927,-5.085 -3.334,-8.539 -0.512,-1.262 -1.016,-2.242 -1.511,-2.938 -0.496,-0.696 -1.043,-1.191 -1.644,-1.487 -0.599,-0.295 -1.307,-0.444 -2.122,-0.444 -1.184,0 -2.139,0.265 -2.866,0.792 -0.728,0.527 -1.092,1.223 -1.092,2.087 0,0.752 0.296,1.359 0.888,1.823 0.591,0.464 1.359,0.695 2.302,0.695 0.88,0 1.599,-0.211 2.159,-0.635 0.56,-0.424 0.839,-0.972 0.839,-1.644 0,-0.511 -0.171,-0.907 -0.515,-1.187 -0.344,-0.28 -0.828,-0.42 -1.451,-0.42 -0.033,-0.064 -0.048,-0.135 -0.048,-0.215 0,-0.224 0.184,-0.336 0.551,-0.336 0.624,0 1.144,0.212 1.559,0.636 0.416,0.424 0.624,0.955 0.624,1.594 0,0.752 -0.264,1.372 -0.791,1.859 -0.528,0.488 -1.295,0.819 -2.303,0.995 -0.575,0.097 -0.951,0.225 -1.128,0.384 -0.175,0.16 -0.359,0.512 -0.551,1.055 z"
             style="fill:#000000;fill-opacity:1;fill-rule:nonzero;stroke:none"
             id="path86" /></g><g
           id="g88"
           transform="translate(381.6075,117.2003)"><path
             d="m 0,0 c -0.096,0.272 -0.228,0.496 -0.396,0.672 -0.167,0.176 -0.419,0.368 -0.755,0.576 -0.16,0.096 -0.24,0.2 -0.24,0.312 v 0.288 c 0,0.159 0.096,0.239 0.288,0.239 H 2.638 C 3.726,2.087 4.529,2.004 5.049,1.836 5.568,1.667 5.976,1.375 6.272,0.96 6.568,0.544 6.852,-0.071 7.124,-0.887 l 2.302,-6.956 c 0.08,-0.08 0.176,-0.119 0.288,-0.119 0.24,0 0.36,0.135 0.36,0.407 0,0.16 -0.064,0.424 -0.192,0.792 L 7.723,-0.167 C 7.515,0.472 7.332,0.888 7.171,1.08 7.028,1.256 6.935,1.371 6.896,1.428 6.856,1.483 6.836,1.552 6.836,1.632 v 0.216 c 0,0.159 0.096,0.239 0.288,0.239 h 6.788 c 0.575,0 0.863,-0.208 0.863,-0.623 0,-0.384 -0.408,-1.695 -1.223,-3.934 -0.816,-2.239 -1.927,-5.085 -3.334,-8.539 -0.512,-1.262 -1.016,-2.242 -1.511,-2.938 -0.496,-0.696 -1.043,-1.191 -1.644,-1.487 -0.599,-0.295 -1.307,-0.444 -2.122,-0.444 -1.184,0 -2.139,0.265 -2.866,0.792 -0.728,0.527 -1.092,1.223 -1.092,2.087 0,0.752 0.296,1.359 0.888,1.823 0.591,0.464 1.359,0.695 2.302,0.695 0.88,0 1.599,-0.211 2.159,-0.635 0.56,-0.424 0.839,-0.972 0.839,-1.644 0,-0.511 -0.171,-0.907 -0.515,-1.187 -0.344,-0.28 -0.828,-0.42 -1.451,-0.42 -0.033,-0.064 -0.048,-0.135 -0.048,-0.215 0,-0.224 0.184,-0.336 0.551,-0.336 0.624,0 1.144,0.212 1.559,0.636 0.416,0.424 0.624,0.955 0.624,1.594 0,0.752 -0.264,1.372 -0.791,1.859 -0.528,0.488 -1.295,0.819 -2.303,0.995 -0.575,0.097 -0.951,0.225 -1.128,0.384 -0.175,0.16 -0.359,0.512 -0.551,1.055 z"
             style="fill:none;stroke:#000000;stroke-width:0.283;stroke-linecap:butt;stroke-linejoin:miter;stroke-miterlimit:10;stroke-dasharray:none;stroke-opacity:1"
             id="path90" /></g><g
           id="g92"
           transform="translate(361.2178,133.0128)"><path
             d="m 0,0 h 7.937 c 0,2.003 -1.412,3.88 -3.895,3.88 -2.072,0 -4.185,-1.434 -4.185,-4.369 0,-2.956 2.093,-4.39 4.205,-4.39 1.689,0 3.334,0.956 3.875,2.909"
             style="fill:none;stroke:#000000;stroke-width:1.417;stroke-linecap:butt;stroke-linejoin:miter;stroke-miterlimit:10;stroke-dasharray:none;stroke-opacity:1"
             id="path94" /></g><g
           id="g96"
           transform="translate(497.1485,406.6544)"><path
             d="m 0,0 c 0.047,-2.044 -1.862,-8.348 -6.648,-8.348 -1.367,0 -2.673,0.658 -3.409,1.766 -0.724,1.092 -1.004,2.435 -1.004,3.958 0.011,3.317 1.343,7.669 4.123,12.603 2.708,4.767 4.206,8.924 4.181,12.037 0,1.637 -0.375,2.968 -1.148,4.115 -0.786,1.142 -2.019,2.146 -3.904,2.962 -1.379,0.592 -2.708,0.857 -3.964,0.857 -2.72,0 -5.318,-1.221 -7.627,-3.388 -2.322,-2.171 -4.316,-5.273 -5.707,-8.807 -1.099,-2.769 -2.744,-8.558 -2.744,-14.518 0,-2.41 0.292,-4.833 0.92,-7.118 -6.079,8.552 -2.986,20.075 -0.435,25.406 -0.967,0.388 -1.959,0.587 -2.973,0.587 -0.06,0 -0.122,0 -0.17,-0.006 -3.045,-0.067 -5.898,-1.927 -8.074,-5.21 -2.164,-3.275 -3.542,-7.893 -3.53,-13.017 V 3.232 c 0.072,-3.705 0.871,-7.126 2.141,-9.978 -3.011,3.475 -6.25,9.556 -4.691,18.312 -0.399,0.097 -0.785,0.146 -1.172,0.146 h -0.026 c -0.241,0 -0.47,-0.013 -0.712,-0.055 -1.74,-0.249 -3.276,-1.383 -4.473,-3.33 -1.17,-1.933 -1.897,-4.623 -1.897,-7.616 0,-0.901 0.061,-1.824 0.194,-2.768 0.483,-3.383 1.813,-6.333 3.506,-8.363 1.69,-2.044 3.686,-3.106 5.559,-3.106 2.648,0 4.896,1.534 6.212,2.628 2.176,-2.712 4.859,-4.213 7.628,-4.213 2.853,0 5.79,1.674 7.821,3.203 1.401,-1.22 3.106,-2.271 5.209,-3.094 1.778,-0.694 3.443,-0.997 5.003,-0.997 C 3.154,-15.999 1.837,-1.983 0,0"
             style="fill:#000000;fill-opacity:1;fill-rule:nonzero;stroke:none"
             id="path98" /></g><g
           id="g100"
           transform="translate(497.1485,406.6544)"><path
             d="m 0,0 c 0.047,-2.044 -1.862,-8.348 -6.648,-8.348 -1.367,0 -2.673,0.658 -3.409,1.766 -0.724,1.092 -1.004,2.435 -1.004,3.958 0.011,3.317 1.343,7.669 4.123,12.603 2.708,4.767 4.206,8.924 4.181,12.037 0,1.637 -0.375,2.968 -1.148,4.115 -0.786,1.142 -2.019,2.146 -3.904,2.962 -1.379,0.592 -2.708,0.857 -3.964,0.857 -2.72,0 -5.318,-1.221 -7.627,-3.388 -2.322,-2.171 -4.316,-5.273 -5.707,-8.807 -1.099,-2.769 -2.744,-8.558 -2.744,-14.518 0,-2.41 0.292,-4.833 0.92,-7.118 -6.079,8.552 -2.986,20.075 -0.435,25.406 -0.967,0.388 -1.959,0.587 -2.973,0.587 -0.06,0 -0.122,0 -0.17,-0.006 -3.045,-0.067 -5.898,-1.927 -8.074,-5.21 -2.164,-3.275 -3.542,-7.893 -3.53,-13.017 V 3.232 c 0.072,-3.705 0.871,-7.126 2.141,-9.978 -3.011,3.475 -6.25,9.556 -4.691,18.312 -0.399,0.097 -0.785,0.146 -1.172,0.146 h -0.026 c -0.241,0 -0.47,-0.013 -0.712,-0.055 -1.74,-0.249 -3.276,-1.383 -4.473,-3.33 -1.17,-1.933 -1.897,-4.623 -1.897,-7.616 0,-0.901 0.061,-1.824 0.194,-2.768 0.483,-3.383 1.813,-6.333 3.506,-8.363 1.69,-2.044 3.686,-3.106 5.559,-3.106 2.648,0 4.896,1.534 6.212,2.628 2.176,-2.712 4.859,-4.213 7.628,-4.213 2.853,0 5.79,1.674 7.821,3.203 1.401,-1.22 3.106,-2.271 5.209,-3.094 1.778,-0.694 3.443,-0.997 5.003,-0.997 C 3.154,-15.999 1.837,-1.983 0,0 Z"
             style="fill:none;stroke:#000000;stroke-width:0.283;stroke-linecap:butt;stroke-linejoin:miter;stroke-miterlimit:10;stroke-dasharray:none;stroke-opacity:1"
             id="path102" /></g><g
           id="g104"
           transform="translate(512.5772,421.1007)"><path
             d="m 0,0 c -0.54,1.96 -2.208,2.915 -3.895,2.915 -2.071,0 -4.185,-1.433 -4.185,-4.369 0,-2.956 2.093,-4.389 4.205,-4.389 1.689,0 3.335,0.956 3.875,2.908"
             style="fill:none;stroke:#000000;stroke-width:1.417;stroke-linecap:butt;stroke-linejoin:miter;stroke-miterlimit:10;stroke-dasharray:none;stroke-opacity:1"
             id="path106" /></g><g
           id="g108"
           transform="translate(522.4639,415.2579)"><path
             d="m 0,0 c 2.227,-0.027 4.458,1.455 4.458,4.368 0,2.916 -2.208,4.39 -4.396,4.39 -2.229,0 -4.437,-1.454 -4.437,-4.39 C -4.375,1.476 -2.189,0.021 0,0 Z"
             style="fill:none;stroke:#000000;stroke-width:1.417;stroke-linecap:butt;stroke-linejoin:miter;stroke-miterlimit:10;stroke-dasharray:none;stroke-opacity:1"
             id="path110" /></g><g
           id="g112"
           transform="translate(538.0054,423.9054)"><path
             d="M 0,0 C -2.537,0.749 -4.948,-1.095 -4.948,-3.754 V -8.827"
             style="fill:none;stroke:#000000;stroke-width:1.417;stroke-linecap:butt;stroke-linejoin:miter;stroke-miterlimit:10;stroke-dasharray:none;stroke-opacity:1"
             id="path114" /></g><g
           id="g116"
           transform="translate(548.6231,415.0782)"><path
             d="M 0,0 V 4.999 C 0,7.303 -0.593,8.874 -3.206,8.918 -5.594,8.964 -6.912,7.256 -6.912,5.095 V 0"
             style="fill:none;stroke:#000000;stroke-width:1.417;stroke-linecap:butt;stroke-linejoin:miter;stroke-miterlimit:10;stroke-dasharray:none;stroke-opacity:1"
             id="path118" /></g><g
           id="g120"
           transform="translate(512.8707,409.2852)"><path
             d="m 0,0 c -1.04,0 -1.911,-0.344 -2.614,-1.031 -0.704,-0.688 -1.056,-1.535 -1.056,-2.542 0,-1.263 0.46,-2.303 1.379,-3.118 0.92,-0.816 2.099,-1.223 3.538,-1.223 0.847,0 1.643,0.159 2.387,0.479 0.743,0.32 1.355,0.759 1.835,1.32 0.095,0.11 0.167,0.187 0.216,0.227 0.047,0.039 0.103,0.06 0.168,0.06 h 0.359 c 0.112,0 0.196,-0.044 0.252,-0.132 0.056,-0.088 0.108,-0.26 0.156,-0.516 0.064,-0.32 0.096,-0.679 0.096,-1.079 0,-1.487 -0.312,-2.834 -0.936,-4.042 -0.623,-1.207 -1.503,-2.17 -2.638,-2.889 -1.136,-0.72 -2.438,-1.079 -3.91,-1.079 -1.487,0 -2.842,0.351 -4.065,1.054 -1.223,0.703 -2.199,1.711 -2.926,3.022 -0.728,1.312 -1.092,2.807 -1.092,4.486 0,1.566 0.328,2.97 0.984,4.209 0.655,1.239 1.591,2.215 2.806,2.926 1.215,0.712 2.623,1.067 4.221,1.067 1.2,0 2.279,-0.195 3.238,-0.587 0.96,-0.392 1.723,-0.948 2.291,-1.667 0.567,-0.719 0.852,-1.544 0.852,-2.47 0,-1.072 -0.384,-1.931 -1.152,-2.579 -0.767,-0.647 -1.783,-0.971 -3.046,-0.971 -0.767,0 -1.467,0.147 -2.098,0.444 -0.632,0.295 -1.136,0.711 -1.512,1.246 -0.376,0.536 -0.564,1.148 -0.564,1.835 0,0.863 0.296,1.551 0.888,2.064 0.591,0.511 1.391,0.766 2.399,0.766 0.096,0.096 0.144,0.2 0.144,0.313 0,0.128 -0.057,0.227 -0.168,0.3 C 0.32,-0.035 0.176,0 0,0"
             style="fill:#000000;fill-opacity:1;fill-rule:nonzero;stroke:none"
             id="path122" /></g><g
           id="g124"
           transform="translate(512.8707,409.2852)"><path
             d="m 0,0 c -1.04,0 -1.911,-0.344 -2.614,-1.031 -0.704,-0.688 -1.056,-1.535 -1.056,-2.542 0,-1.263 0.46,-2.303 1.379,-3.118 0.92,-0.816 2.099,-1.223 3.538,-1.223 0.847,0 1.643,0.159 2.387,0.479 0.743,0.32 1.355,0.759 1.835,1.32 0.095,0.11 0.167,0.187 0.216,0.227 0.047,0.039 0.103,0.06 0.168,0.06 h 0.359 c 0.112,0 0.196,-0.044 0.252,-0.132 0.056,-0.088 0.108,-0.26 0.156,-0.516 0.064,-0.32 0.096,-0.679 0.096,-1.079 0,-1.487 -0.312,-2.834 -0.936,-4.042 -0.623,-1.207 -1.503,-2.17 -2.638,-2.889 -1.136,-0.72 -2.438,-1.079 -3.91,-1.079 -1.487,0 -2.842,0.351 -4.065,1.054 -1.223,0.703 -2.199,1.711 -2.926,3.022 -0.728,1.312 -1.092,2.807 -1.092,4.486 0,1.566 0.328,2.97 0.984,4.209 0.655,1.239 1.591,2.215 2.806,2.926 1.215,0.712 2.623,1.067 4.221,1.067 1.2,0 2.279,-0.195 3.238,-0.587 0.96,-0.392 1.723,-0.948 2.291,-1.667 0.567,-0.719 0.852,-1.544 0.852,-2.47 0,-1.072 -0.384,-1.931 -1.152,-2.579 -0.767,-0.647 -1.783,-0.971 -3.046,-0.971 -0.767,0 -1.467,0.147 -2.098,0.444 -0.632,0.295 -1.136,0.711 -1.512,1.246 -0.376,0.536 -0.564,1.148 -0.564,1.835 0,0.863 0.296,1.551 0.888,2.064 0.591,0.511 1.391,0.766 2.399,0.766 0.096,0.096 0.144,0.2 0.144,0.313 0,0.128 -0.057,0.227 -0.168,0.3 C 0.32,-0.035 0.176,0 0,0 Z"
             style="fill:none;stroke:#000000;stroke-width:0.283;stroke-linecap:butt;stroke-linejoin:miter;stroke-miterlimit:10;stroke-dasharray:none;stroke-opacity:1"
             id="path126" /></g><g
           id="g128"
           transform="translate(520.7857,408.422)"><path
             d="M 0,0 C 0,0.56 -0.08,0.987 -0.24,1.283 -0.4,1.579 -0.695,1.855 -1.127,2.111 -1.239,2.175 -1.307,2.227 -1.331,2.268 -1.355,2.307 -1.367,2.359 -1.367,2.423 V 2.71 c 0,0.16 0.096,0.24 0.288,0.24 H 5.133 C 5.437,2.95 5.648,2.891 5.769,2.771 5.888,2.65 5.948,2.455 5.948,2.183 v -5.468 c 0.784,0.974 1.871,1.462 3.262,1.462 1.151,0 2.031,-0.344 2.639,-1.031 0.608,-0.688 0.911,-1.663 0.911,-2.926 v -7.747 c 0,-0.273 -0.06,-0.468 -0.18,-0.588 -0.12,-0.12 -0.332,-0.18 -0.635,-0.18 H 7.627 c -0.304,0 -0.516,0.06 -0.635,0.18 -0.12,0.12 -0.18,0.315 -0.18,0.588 v 8.251 c 0,0.174 -0.04,0.319 -0.12,0.431 -0.08,0.112 -0.192,0.168 -0.336,0.168 -0.191,0 -0.328,-0.064 -0.408,-0.191 v -8.659 c 0,-0.273 -0.06,-0.468 -0.179,-0.588 -0.121,-0.12 -0.332,-0.18 -0.636,-0.18 H 0.815 c -0.303,0 -0.515,0.06 -0.635,0.18 C 0.06,-13.995 0,-13.8 0,-13.527 Z"
             style="fill:#000000;fill-opacity:1;fill-rule:nonzero;stroke:none"
             id="path130" /></g><g
           id="g132"
           transform="translate(520.7857,408.422)"><path
             d="M 0,0 C 0,0.56 -0.08,0.987 -0.24,1.283 -0.4,1.579 -0.695,1.855 -1.127,2.111 -1.239,2.175 -1.307,2.227 -1.331,2.268 -1.355,2.307 -1.367,2.359 -1.367,2.423 V 2.71 c 0,0.16 0.096,0.24 0.288,0.24 H 5.133 C 5.437,2.95 5.648,2.891 5.769,2.771 5.888,2.65 5.948,2.455 5.948,2.183 v -5.468 c 0.784,0.974 1.871,1.462 3.262,1.462 1.151,0 2.031,-0.344 2.639,-1.031 0.608,-0.688 0.911,-1.663 0.911,-2.926 v -7.747 c 0,-0.273 -0.06,-0.468 -0.18,-0.588 -0.12,-0.12 -0.332,-0.18 -0.635,-0.18 H 7.627 c -0.304,0 -0.516,0.06 -0.635,0.18 -0.12,0.12 -0.18,0.315 -0.18,0.588 v 8.251 c 0,0.174 -0.04,0.319 -0.12,0.431 -0.08,0.112 -0.192,0.168 -0.336,0.168 -0.191,0 -0.328,-0.064 -0.408,-0.191 v -8.659 c 0,-0.273 -0.06,-0.468 -0.179,-0.588 -0.121,-0.12 -0.332,-0.18 -0.636,-0.18 H 0.815 c -0.303,0 -0.515,0.06 -0.635,0.18 C 0.06,-13.995 0,-13.8 0,-13.527 Z"
             style="fill:none;stroke:#000000;stroke-width:0.283;stroke-linecap:butt;stroke-linejoin:miter;stroke-miterlimit:10;stroke-dasharray:none;stroke-opacity:1"
             id="path134" /></g><g
           id="g136"
           transform="translate(541.2213,401.3224)"><path
             d="m 0,0 c 0.096,-0.128 0.224,-0.191 0.384,-0.191 0.287,0 0.431,0.159 0.431,0.479 v 3.406 c 0,0.32 -0.144,0.48 -0.431,0.48 C 0.224,4.174 0.096,4.109 0,3.981 Z m -0.72,-1.654 c 0,-0.369 0.312,-0.708 0.935,-1.02 0.624,-0.312 1.32,-0.469 2.087,-0.469 1.519,0 2.767,0.512 3.742,1.537 0.096,0.095 0.164,0.155 0.204,0.179 0.04,0.024 0.1,0.036 0.18,0.036 h 0.288 c 0.111,0 0.188,-0.04 0.228,-0.12 0.039,-0.08 0.059,-0.224 0.059,-0.431 C 7.003,-2.935 6.735,-3.85 6.2,-4.689 5.664,-5.528 4.904,-6.204 3.921,-6.716 2.938,-7.228 1.838,-7.483 0.623,-7.483 c -1.295,0 -2.462,0.264 -3.501,0.792 -1.04,0.527 -1.868,1.279 -2.483,2.254 -0.616,0.975 -0.924,2.086 -0.924,3.334 0,1.231 0.288,2.327 0.864,3.286 0.576,0.96 1.395,1.714 2.459,2.267 1.063,0.551 2.306,0.826 3.73,0.826 1.07,0 2.034,-0.167 2.889,-0.503 C 4.512,4.437 5.188,3.958 5.685,3.334 6.18,2.71 6.428,1.991 6.428,1.176 c 0,-1.04 -0.376,-1.9 -1.127,-2.579 -0.752,-0.679 -1.703,-1.019 -2.855,-1.019 -1.151,0 -2.087,0.384 -2.806,1.151 -0.096,0 -0.18,-0.037 -0.252,-0.108 -0.072,-0.072 -0.108,-0.164 -0.108,-0.275"
             style="fill:#000000;fill-opacity:1;fill-rule:nonzero;stroke:none"
             id="path138" /></g><g
           id="g140"
           transform="translate(541.2213,401.3224)"><path
             d="m 0,0 c 0.096,-0.128 0.224,-0.191 0.384,-0.191 0.287,0 0.431,0.159 0.431,0.479 v 3.406 c 0,0.32 -0.144,0.48 -0.431,0.48 C 0.224,4.174 0.096,4.109 0,3.981 Z m -0.72,-1.654 c 0,-0.369 0.312,-0.708 0.935,-1.02 0.624,-0.312 1.32,-0.469 2.087,-0.469 1.519,0 2.767,0.512 3.742,1.537 0.096,0.095 0.164,0.155 0.204,0.179 0.04,0.024 0.1,0.036 0.18,0.036 h 0.288 c 0.111,0 0.188,-0.04 0.228,-0.12 0.039,-0.08 0.059,-0.224 0.059,-0.431 C 7.003,-2.935 6.735,-3.85 6.2,-4.689 5.664,-5.528 4.904,-6.204 3.921,-6.716 2.938,-7.228 1.838,-7.483 0.623,-7.483 c -1.295,0 -2.462,0.264 -3.501,0.792 -1.04,0.527 -1.868,1.279 -2.483,2.254 -0.616,0.975 -0.924,2.086 -0.924,3.334 0,1.231 0.288,2.327 0.864,3.286 0.576,0.96 1.395,1.714 2.459,2.267 1.063,0.551 2.306,0.826 3.73,0.826 1.07,0 2.034,-0.167 2.889,-0.503 C 4.512,4.437 5.188,3.958 5.685,3.334 6.18,2.71 6.428,1.991 6.428,1.176 c 0,-1.04 -0.376,-1.9 -1.127,-2.579 -0.752,-0.679 -1.703,-1.019 -2.855,-1.019 -1.151,0 -2.087,0.384 -2.806,1.151 -0.096,0 -0.18,-0.037 -0.252,-0.108 -0.072,-0.072 -0.108,-0.164 -0.108,-0.275 z"
             style="fill:none;stroke:#000000;stroke-width:0.283;stroke-linecap:butt;stroke-linejoin:miter;stroke-miterlimit:10;stroke-dasharray:none;stroke-opacity:1"
             id="path142" /></g><g
           id="g144"
           transform="translate(550.0709,406.3116)"><path
             d="m 0,0 c 1.375,0 2.311,-0.407 2.807,-1.224 0.463,0.512 0.983,0.892 1.558,1.14 0.576,0.248 1.239,0.371 1.991,0.371 1.167,0 2.127,-0.319 2.879,-0.959 0.751,-0.64 1.127,-1.455 1.127,-2.446 0,-0.831 -0.304,-1.507 -0.911,-2.028 C 8.843,-5.665 8.059,-5.925 7.1,-5.925 c -0.944,0 -1.715,0.24 -2.315,0.72 -0.599,0.479 -0.899,1.087 -0.899,1.823 0,0.624 0.216,1.135 0.648,1.535 0.431,0.4 0.983,0.6 1.654,0.6 0.049,0.079 0.072,0.159 0.072,0.239 0,0.224 -0.168,0.336 -0.503,0.336 -0.704,0 -1.312,-0.267 -1.823,-0.804 -0.512,-0.535 -0.767,-1.178 -0.767,-1.93 0,-0.64 0.18,-1.203 0.539,-1.691 0.36,-0.488 0.876,-0.875 1.547,-1.163 0.224,-0.095 0.372,-0.204 0.444,-0.324 0.072,-0.12 0.108,-0.324 0.108,-0.612 v -4.221 c 0,-0.512 -0.272,-0.768 -0.816,-0.768 H 0.12 c -0.495,0 -0.744,0.256 -0.744,0.768 v 8.467 c 0,0.559 -0.08,0.987 -0.239,1.283 -0.16,0.296 -0.456,0.571 -0.887,0.827 -0.112,0.065 -0.181,0.116 -0.204,0.156 -0.025,0.04 -0.036,0.092 -0.036,0.157 v 0.287 c 0,0.16 0.096,0.24 0.288,0.24 z"
             style="fill:#000000;fill-opacity:1;fill-rule:nonzero;stroke:none"
             id="path146" /></g><g
           id="g148"
           transform="translate(550.0709,406.3116)"><path
             d="m 0,0 c 1.375,0 2.311,-0.407 2.807,-1.224 0.463,0.512 0.983,0.892 1.558,1.14 0.576,0.248 1.239,0.371 1.991,0.371 1.167,0 2.127,-0.319 2.879,-0.959 0.751,-0.64 1.127,-1.455 1.127,-2.446 0,-0.831 -0.304,-1.507 -0.911,-2.028 C 8.843,-5.665 8.059,-5.925 7.1,-5.925 c -0.944,0 -1.715,0.24 -2.315,0.72 -0.599,0.479 -0.899,1.087 -0.899,1.823 0,0.624 0.216,1.135 0.648,1.535 0.431,0.4 0.983,0.6 1.654,0.6 0.049,0.079 0.072,0.159 0.072,0.239 0,0.224 -0.168,0.336 -0.503,0.336 -0.704,0 -1.312,-0.267 -1.823,-0.804 -0.512,-0.535 -0.767,-1.178 -0.767,-1.93 0,-0.64 0.18,-1.203 0.539,-1.691 0.36,-0.488 0.876,-0.875 1.547,-1.163 0.224,-0.095 0.372,-0.204 0.444,-0.324 0.072,-0.12 0.108,-0.324 0.108,-0.612 v -4.221 c 0,-0.512 -0.272,-0.768 -0.816,-0.768 H 0.12 c -0.495,0 -0.744,0.256 -0.744,0.768 v 8.467 c 0,0.559 -0.08,0.987 -0.239,1.283 -0.16,0.296 -0.456,0.571 -0.887,0.827 -0.112,0.065 -0.181,0.116 -0.204,0.156 -0.025,0.04 -0.036,0.092 -0.036,0.157 v 0.287 c 0,0.16 0.096,0.24 0.288,0.24 z"
             style="fill:none;stroke:#000000;stroke-width:0.283;stroke-linecap:butt;stroke-linejoin:miter;stroke-miterlimit:10;stroke-dasharray:none;stroke-opacity:1"
             id="path150" /></g><g
           id="g152"
           transform="translate(562.0875,406.3116)"><path
             d="m 0,0 c 1.375,0 2.311,-0.407 2.807,-1.224 0.463,0.512 0.983,0.892 1.558,1.14 0.576,0.248 1.239,0.371 1.991,0.371 1.167,0 2.127,-0.319 2.878,-0.959 0.751,-0.64 1.128,-1.455 1.128,-2.446 0,-0.831 -0.303,-1.507 -0.911,-2.028 C 8.843,-5.665 8.06,-5.925 7.1,-5.925 c -0.944,0 -1.715,0.24 -2.315,0.72 -0.599,0.479 -0.899,1.087 -0.899,1.823 0,0.624 0.216,1.135 0.648,1.535 0.431,0.4 0.983,0.6 1.654,0.6 0.048,0.079 0.072,0.159 0.072,0.239 0,0.224 -0.167,0.336 -0.503,0.336 -0.704,0 -1.312,-0.267 -1.823,-0.804 -0.512,-0.535 -0.768,-1.178 -0.768,-1.93 0,-0.64 0.181,-1.203 0.54,-1.691 0.359,-0.488 0.875,-0.875 1.547,-1.163 0.224,-0.095 0.371,-0.204 0.444,-0.324 0.072,-0.12 0.108,-0.324 0.108,-0.612 v -4.221 c 0,-0.512 -0.273,-0.768 -0.816,-0.768 H 0.12 c -0.495,0 -0.744,0.256 -0.744,0.768 v 8.467 c 0,0.559 -0.08,0.987 -0.239,1.283 -0.16,0.296 -0.456,0.571 -0.887,0.827 -0.112,0.065 -0.181,0.116 -0.204,0.156 -0.025,0.04 -0.036,0.092 -0.036,0.157 v 0.287 c 0,0.16 0.096,0.24 0.288,0.24 z"
             style="fill:#000000;fill-opacity:1;fill-rule:nonzero;stroke:none"
             id="path154" /></g><g
           id="g156"
           transform="translate(562.0875,406.3116)"><path
             d="m 0,0 c 1.375,0 2.311,-0.407 2.807,-1.224 0.463,0.512 0.983,0.892 1.558,1.14 0.576,0.248 1.239,0.371 1.991,0.371 1.167,0 2.127,-0.319 2.878,-0.959 0.751,-0.64 1.128,-1.455 1.128,-2.446 0,-0.831 -0.303,-1.507 -0.911,-2.028 C 8.843,-5.665 8.06,-5.925 7.1,-5.925 c -0.944,0 -1.715,0.24 -2.315,0.72 -0.599,0.479 -0.899,1.087 -0.899,1.823 0,0.624 0.216,1.135 0.648,1.535 0.431,0.4 0.983,0.6 1.654,0.6 0.048,0.079 0.072,0.159 0.072,0.239 0,0.224 -0.167,0.336 -0.503,0.336 -0.704,0 -1.312,-0.267 -1.823,-0.804 -0.512,-0.535 -0.768,-1.178 -0.768,-1.93 0,-0.64 0.181,-1.203 0.54,-1.691 0.359,-0.488 0.875,-0.875 1.547,-1.163 0.224,-0.095 0.371,-0.204 0.444,-0.324 0.072,-0.12 0.108,-0.324 0.108,-0.612 v -4.221 c 0,-0.512 -0.273,-0.768 -0.816,-0.768 H 0.12 c -0.495,0 -0.744,0.256 -0.744,0.768 v 8.467 c 0,0.559 -0.08,0.987 -0.239,1.283 -0.16,0.296 -0.456,0.571 -0.887,0.827 -0.112,0.065 -0.181,0.116 -0.204,0.156 -0.025,0.04 -0.036,0.092 -0.036,0.157 v 0.287 c 0,0.16 0.096,0.24 0.288,0.24 z"
             style="fill:none;stroke:#000000;stroke-width:0.283;stroke-linecap:butt;stroke-linejoin:miter;stroke-miterlimit:10;stroke-dasharray:none;stroke-opacity:1"
             id="path158" /></g><g
           id="g160"
           transform="translate(573.0005,404.2247)"><path
             d="m 0,0 c -0.096,0.271 -0.228,0.495 -0.396,0.672 -0.166,0.176 -0.418,0.367 -0.755,0.575 -0.16,0.096 -0.24,0.2 -0.24,0.313 v 0.287 c 0,0.16 0.096,0.24 0.288,0.24 h 3.742 c 1.087,0 1.89,-0.084 2.41,-0.252 0.52,-0.168 0.928,-0.46 1.223,-0.876 0.296,-0.415 0.581,-1.031 0.852,-1.847 l 2.303,-6.956 c 0.08,-0.08 0.176,-0.119 0.287,-0.119 0.24,0 0.36,0.136 0.36,0.407 0,0.16 -0.063,0.424 -0.191,0.792 L 7.724,-0.168 C 7.516,0.472 7.332,0.888 7.172,1.079 7.028,1.256 6.936,1.371 6.896,1.428 6.856,1.483 6.836,1.551 6.836,1.631 v 0.216 c 0,0.16 0.097,0.24 0.288,0.24 h 6.788 c 0.575,0 0.863,-0.208 0.863,-0.624 0,-0.384 -0.408,-1.695 -1.222,-3.933 -0.817,-2.239 -1.928,-5.086 -3.335,-8.539 -0.512,-1.263 -1.015,-2.243 -1.511,-2.938 -0.495,-0.696 -1.043,-1.192 -1.643,-1.488 -0.6,-0.294 -1.307,-0.443 -2.123,-0.443 -1.183,0 -2.138,0.264 -2.866,0.791 -0.727,0.527 -1.091,1.224 -1.091,2.087 0,0.752 0.295,1.359 0.887,1.823 0.592,0.464 1.359,0.696 2.303,0.696 0.88,0 1.598,-0.212 2.158,-0.636 0.561,-0.424 0.84,-0.972 0.84,-1.644 0,-0.51 -0.172,-0.906 -0.516,-1.186 -0.344,-0.281 -0.828,-0.42 -1.451,-0.42 -0.032,-0.064 -0.048,-0.136 -0.048,-0.216 0,-0.224 0.184,-0.336 0.552,-0.336 0.623,0 1.144,0.213 1.559,0.636 0.416,0.424 0.624,0.955 0.624,1.595 0,0.751 -0.264,1.371 -0.791,1.859 -0.529,0.487 -1.296,0.819 -2.304,0.995 -0.574,0.096 -0.951,0.225 -1.127,0.384 -0.176,0.16 -0.359,0.512 -0.552,1.055 z"
             style="fill:#000000;fill-opacity:1;fill-rule:nonzero;stroke:none"
             id="path162" /></g><g
           id="g164"
           transform="translate(573.0005,404.2247)"><path
             d="m 0,0 c -0.096,0.271 -0.228,0.495 -0.396,0.672 -0.166,0.176 -0.418,0.367 -0.755,0.575 -0.16,0.096 -0.24,0.2 -0.24,0.313 v 0.287 c 0,0.16 0.096,0.24 0.288,0.24 h 3.742 c 1.087,0 1.89,-0.084 2.41,-0.252 0.52,-0.168 0.928,-0.46 1.223,-0.876 0.296,-0.415 0.581,-1.031 0.852,-1.847 l 2.303,-6.956 c 0.08,-0.08 0.176,-0.119 0.287,-0.119 0.24,0 0.36,0.136 0.36,0.407 0,0.16 -0.063,0.424 -0.191,0.792 L 7.724,-0.168 C 7.516,0.472 7.332,0.888 7.172,1.079 7.028,1.256 6.936,1.371 6.896,1.428 6.856,1.483 6.836,1.551 6.836,1.631 v 0.216 c 0,0.16 0.097,0.24 0.288,0.24 h 6.788 c 0.575,0 0.863,-0.208 0.863,-0.624 0,-0.384 -0.408,-1.695 -1.222,-3.933 -0.817,-2.239 -1.928,-5.086 -3.335,-8.539 -0.512,-1.263 -1.015,-2.243 -1.511,-2.938 -0.495,-0.696 -1.043,-1.192 -1.643,-1.488 -0.6,-0.294 -1.307,-0.443 -2.123,-0.443 -1.183,0 -2.138,0.264 -2.866,0.791 -0.727,0.527 -1.091,1.224 -1.091,2.087 0,0.752 0.295,1.359 0.887,1.823 0.592,0.464 1.359,0.696 2.303,0.696 0.88,0 1.598,-0.212 2.158,-0.636 0.561,-0.424 0.84,-0.972 0.84,-1.644 0,-0.51 -0.172,-0.906 -0.516,-1.186 -0.344,-0.281 -0.828,-0.42 -1.451,-0.42 -0.032,-0.064 -0.048,-0.136 -0.048,-0.216 0,-0.224 0.184,-0.336 0.552,-0.336 0.623,0 1.144,0.213 1.559,0.636 0.416,0.424 0.624,0.955 0.624,1.595 0,0.751 -0.264,1.371 -0.791,1.859 -0.529,0.487 -1.296,0.819 -2.304,0.995 -0.574,0.096 -0.951,0.225 -1.127,0.384 -0.176,0.16 -0.359,0.512 -0.552,1.055 z"
             style="fill:none;stroke:#000000;stroke-width:0.283;stroke-linecap:butt;stroke-linejoin:miter;stroke-miterlimit:10;stroke-dasharray:none;stroke-opacity:1"
             id="path166" /></g><g
           id="g168"
           transform="translate(552.4962,420.1358)"><path
             d="m 0,0 h 7.937 c 0,2.004 -1.412,3.88 -3.895,3.88 -2.072,0 -4.185,-1.433 -4.185,-4.369 0,-2.956 2.093,-4.39 4.205,-4.39 1.689,0 3.334,0.957 3.875,2.909"
             style="fill:none;stroke:#000000;stroke-width:1.417;stroke-linecap:butt;stroke-linejoin:miter;stroke-miterlimit:10;stroke-dasharray:none;stroke-opacity:1"
             id="path170" /></g></g></g><g
       id="g172"><g
         id="g174"
         clip-path="url(#clipPath178)"><g
           id="g180"
           transform="translate(387.4307,83.3273)"><path
             d="m 0,0 h -134.239 c -1.482,-0.17 -2.215,-0.834 -3.067,-1.812 l -30.774,-53.403 c -0.482,-1.147 0.057,-2.469 1.204,-2.951 0.169,-0.07 0.346,-0.121 0.527,-0.148 l 166.32,0.002 c 0.782,0 1.417,0.635 1.417,1.417 l 0.03,55.477 C 1.417,-0.635 0.783,-0.001 0,0"
             style="fill:none;stroke:#ff0000;stroke-width:0.283;stroke-linecap:round;stroke-linejoin:round;stroke-miterlimit:10;stroke-dasharray:none;stroke-opacity:1"
             id="path182" /></g><g
           id="g184"
           transform="translate(254.2774,76.3048)"><path
             d="M 0,0 C 1.722,0 3.119,-1.396 3.119,-3.118 3.119,-4.84 1.722,-6.236 0,-6.236 c -1.722,0 -3.118,1.396 -3.118,3.118 C -3.118,-1.396 -1.722,0 0,0 Z"
             style="fill:none;stroke:#ff0000;stroke-width:0.283;stroke-linecap:round;stroke-linejoin:round;stroke-miterlimit:10;stroke-dasharray:none;stroke-opacity:1"
             id="path186" /></g><g
           id="g188"
           transform="translate(230.1812,35.2003)"><path
             d="m 0,0 c 1.722,0 3.119,-1.396 3.119,-3.119 0,-1.722 -1.397,-3.118 -3.119,-3.118 -1.722,0 -3.118,1.396 -3.118,3.118 C -3.118,-1.396 -1.722,0 0,0 Z"
             style="fill:none;stroke:#ff0000;stroke-width:0.283;stroke-linecap:round;stroke-linejoin:round;stroke-miterlimit:10;stroke-dasharray:none;stroke-opacity:1"
             id="path190" /></g><g
           id="g192"
           transform="translate(786.5504,84.3273)"><path
             d="m 0,0 h -134.239 c -1.482,-0.17 -2.214,-0.834 -3.067,-1.812 l -30.774,-53.403 c -0.482,-1.147 0.058,-2.469 1.204,-2.951 0.169,-0.07 0.347,-0.121 0.527,-0.148 l 166.32,0.002 c 0.783,0 1.418,0.635 1.418,1.417 l 0.03,55.477 C 1.418,-0.635 0.783,-0.001 0,0"
             style="fill:none;stroke:#ff0000;stroke-width:0.283;stroke-linecap:round;stroke-linejoin:round;stroke-miterlimit:10;stroke-dasharray:none;stroke-opacity:1"
             id="path194" /></g><g
           id="g196"
           transform="translate(653.397,77.3048)"><path
             d="M 0,0 C 1.723,0 3.119,-1.396 3.119,-3.118 3.119,-4.84 1.723,-6.236 0,-6.236 c -1.722,0 -3.118,1.396 -3.118,3.118 C -3.118,-1.396 -1.722,0 0,0 Z"
             style="fill:none;stroke:#ff0000;stroke-width:0.283;stroke-linecap:round;stroke-linejoin:round;stroke-miterlimit:10;stroke-dasharray:none;stroke-opacity:1"
             id="path198" /></g><g
           id="g200"
           transform="translate(629.3013,36.2003)"><path
             d="m 0,0 c 1.722,0 3.118,-1.396 3.118,-3.119 0,-1.722 -1.396,-3.118 -3.118,-3.118 -1.723,0 -3.118,1.396 -3.118,3.118 C -3.118,-1.396 -1.723,0 0,0 Z"
             style="fill:none;stroke:#ff0000;stroke-width:0.283;stroke-linecap:round;stroke-linejoin:round;stroke-miterlimit:10;stroke-dasharray:none;stroke-opacity:1"
             id="path202" /></g><g
           id="g204"
           transform="translate(308.2623,502.2823)"><path
             d="M 0,0 C 0,1.723 1.396,3.118 3.118,3.118 4.84,3.118 6.237,1.723 6.237,0 6.237,-1.722 4.84,-3.118 3.118,-3.118 1.396,-3.118 0,-1.722 0,0 Z"
             style="fill:none;stroke:#ff0000;stroke-width:0.283;stroke-linecap:round;stroke-linejoin:round;stroke-miterlimit:10;stroke-dasharray:none;stroke-opacity:1"
             id="path206" /></g><g
           id="g208"
           transform="translate(92.7672,492.0147)"><path
             d="M 0,0 C 0,1.722 1.396,3.118 3.119,3.118 4.841,3.118 6.237,1.722 6.237,0 6.237,-1.723 4.841,-3.119 3.119,-3.119 1.396,-3.119 0,-1.723 0,0 Z"
             style="fill:none;stroke:#ff0000;stroke-width:0.283;stroke-linecap:round;stroke-linejoin:round;stroke-miterlimit:10;stroke-dasharray:none;stroke-opacity:1"
             id="path210" /></g><g
           id="g212"
           transform="translate(92.7422,438.1134)"><path
             d="M 0,0 C 0,1.722 1.396,3.118 3.118,3.118 4.841,3.118 6.237,1.722 6.237,0 6.237,-1.723 4.841,-3.118 3.118,-3.118 1.396,-3.118 0,-1.723 0,0 Z"
             style="fill:none;stroke:#ff0000;stroke-width:0.283;stroke-linecap:round;stroke-linejoin:round;stroke-miterlimit:10;stroke-dasharray:none;stroke-opacity:1"
             id="path214" /></g><g
           id="g216"
           transform="translate(347.2149,367.6319)"><path
             d="M 0,0 C 0,1.722 1.396,3.118 3.119,3.118 4.841,3.118 6.237,1.722 6.237,0 6.237,-1.723 4.841,-3.118 3.119,-3.118 1.396,-3.118 0,-1.723 0,0 Z"
             style="fill:none;stroke:#ff0000;stroke-width:0.283;stroke-linecap:round;stroke-linejoin:round;stroke-miterlimit:10;stroke-dasharray:none;stroke-opacity:1"
             id="path218" /></g><g
           id="g220"
           transform="translate(215.3472,389.6134)"><path
             d="M 0,0 C 0,1.722 1.396,3.118 3.119,3.118 4.841,3.118 6.237,1.722 6.237,0 6.237,-1.723 4.841,-3.118 3.119,-3.118 1.396,-3.118 0,-1.723 0,0 Z"
             style="fill:none;stroke:#ff0000;stroke-width:0.283;stroke-linecap:round;stroke-linejoin:round;stroke-miterlimit:10;stroke-dasharray:none;stroke-opacity:1"
             id="path222" /></g><path
           d="m 49.299,499.333 h 39.263 v 39.263 H 49.299 Z"
           style="fill:none;stroke:#ff0000;stroke-width:0.283;stroke-linecap:round;stroke-linejoin:round;stroke-miterlimit:10;stroke-dasharray:none;stroke-opacity:1"
           id="path224" /><path
           d="m 49.299,445.472 h 39.263 v 39.263 H 49.299 Z"
           style="fill:none;stroke:#ff0000;stroke-width:0.283;stroke-linecap:round;stroke-linejoin:round;stroke-miterlimit:10;stroke-dasharray:none;stroke-opacity:1"
           id="path226" /><path
           d="m 49.299,391.609 h 39.263 v 39.263 H 49.299 Z"
           style="fill:none;stroke:#ff0000;stroke-width:0.283;stroke-linecap:round;stroke-linejoin:round;stroke-miterlimit:10;stroke-dasharray:none;stroke-opacity:1"
           id="path228" /><path
           d="m 103.163,499.333 h 39.263 v 39.263 h -39.263 z"
           style="fill:none;stroke:#ff0000;stroke-width:0.283;stroke-linecap:round;stroke-linejoin:round;stroke-miterlimit:10;stroke-dasharray:none;stroke-opacity:1"
           id="path230" /><path
           d="m 103.163,445.472 h 39.263 v 39.263 h -39.263 z"
           style="fill:none;stroke:#ff0000;stroke-width:0.283;stroke-linecap:round;stroke-linejoin:round;stroke-miterlimit:10;stroke-dasharray:none;stroke-opacity:1"
           id="path232" /><path
           d="m 103.163,391.609 h 39.263 v 39.263 h -39.263 z"
           style="fill:none;stroke:#ff0000;stroke-width:0.283;stroke-linecap:round;stroke-linejoin:round;stroke-miterlimit:10;stroke-dasharray:none;stroke-opacity:1"
           id="path234" /><path
           d="m 157.025,512.799 h 39.263 v 39.263 h -39.263 z"
           style="fill:none;stroke:#ff0000;stroke-width:0.283;stroke-linecap:round;stroke-linejoin:round;stroke-miterlimit:10;stroke-dasharray:none;stroke-opacity:1"
           id="path236" /><path
           d="m 157.025,458.937 h 39.263 V 498.2 h -39.263 z"
           style="fill:none;stroke:#ff0000;stroke-width:0.283;stroke-linecap:round;stroke-linejoin:round;stroke-miterlimit:10;stroke-dasharray:none;stroke-opacity:1"
           id="path238" /><path
           d="m 157.025,405.075 h 39.263 v 39.262 h -39.263 z"
           style="fill:none;stroke:#ff0000;stroke-width:0.283;stroke-linecap:round;stroke-linejoin:round;stroke-miterlimit:10;stroke-dasharray:none;stroke-opacity:1"
           id="path240" /><path
           d="m 210.887,519.531 h 39.262 v 39.263 h -39.262 z"
           style="fill:none;stroke:#ff0000;stroke-width:0.283;stroke-linecap:round;stroke-linejoin:round;stroke-miterlimit:10;stroke-dasharray:none;stroke-opacity:1"
           id="path242" /><path
           d="m 210.887,465.67 h 39.262 v 39.263 h -39.262 z"
           style="fill:none;stroke:#ff0000;stroke-width:0.283;stroke-linecap:round;stroke-linejoin:round;stroke-miterlimit:10;stroke-dasharray:none;stroke-opacity:1"
           id="path244" /><path
           d="m 210.887,411.808 h 39.262 v 39.263 h -39.262 z"
           style="fill:none;stroke:#ff0000;stroke-width:0.283;stroke-linecap:round;stroke-linejoin:round;stroke-miterlimit:10;stroke-dasharray:none;stroke-opacity:1"
           id="path246" /><path
           d="m 264.749,512.799 h 39.263 v 39.263 h -39.263 z"
           style="fill:none;stroke:#ff0000;stroke-width:0.283;stroke-linecap:round;stroke-linejoin:round;stroke-miterlimit:10;stroke-dasharray:none;stroke-opacity:1"
           id="path248" /><path
           d="m 264.749,458.937 h 39.263 V 498.2 h -39.263 z"
           style="fill:none;stroke:#ff0000;stroke-width:0.283;stroke-linecap:round;stroke-linejoin:round;stroke-miterlimit:10;stroke-dasharray:none;stroke-opacity:1"
           id="path250" /><path
           d="m 264.749,405.075 h 39.263 v 39.262 h -39.263 z"
           style="fill:none;stroke:#ff0000;stroke-width:0.283;stroke-linecap:round;stroke-linejoin:round;stroke-miterlimit:10;stroke-dasharray:none;stroke-opacity:1"
           id="path252" /><path
           d="m 318.611,506.066 h 39.263 v 39.263 h -39.263 z"
           style="fill:none;stroke:#ff0000;stroke-width:0.283;stroke-linecap:round;stroke-linejoin:round;stroke-miterlimit:10;stroke-dasharray:none;stroke-opacity:1"
           id="path254" /><path
           d="m 318.611,452.204 h 39.263 v 39.263 h -39.263 z"
           style="fill:none;stroke:#ff0000;stroke-width:0.283;stroke-linecap:round;stroke-linejoin:round;stroke-miterlimit:10;stroke-dasharray:none;stroke-opacity:1"
           id="path256" /><path
           d="m 318.611,398.342 h 39.263 v 39.263 h -39.263 z"
           style="fill:none;stroke:#ff0000;stroke-width:0.283;stroke-linecap:round;stroke-linejoin:round;stroke-miterlimit:10;stroke-dasharray:none;stroke-opacity:1"
           id="path258" /><path
           d="m 237.818,349.441 h 39.263 v 39.263 h -39.263 z"
           style="fill:none;stroke:#ff0000;stroke-width:0.283;stroke-linecap:round;stroke-linejoin:round;stroke-miterlimit:10;stroke-dasharray:none;stroke-opacity:1"
           id="path260" /><g
           id="g262"
           transform="translate(303.0977,385.3038)"><path
             d="m 0,0 -10.124,-37.936 37.936,-10.123 10.123,37.935 z"
             style="fill:none;stroke:#ff0000;stroke-width:0.283;stroke-linecap:round;stroke-linejoin:round;stroke-miterlimit:10;stroke-dasharray:none;stroke-opacity:1"
             id="path264" /></g><g
           id="g266"
           transform="translate(372.8658,377.4747)"><path
             d="m 0,0 -19.608,-34.016 34.016,-19.608 19.608,34.017 z"
             style="fill:none;stroke:#ff0000;stroke-width:0.283;stroke-linecap:round;stroke-linejoin:round;stroke-miterlimit:10;stroke-dasharray:none;stroke-opacity:1"
             id="path268" /></g><g
           id="g270"
           transform="translate(330.8726,565.0304)"><path
             d="m 0,0 c 0,4.07 3.299,7.37 7.37,7.37 4.07,0 7.37,-3.3 7.37,-7.37 0,-4.071 -3.3,-7.37 -7.37,-7.37 C 3.299,-7.37 0,-4.071 0,0 Z"
             style="fill:none;stroke:#ff0000;stroke-width:0.283;stroke-linecap:round;stroke-linejoin:round;stroke-miterlimit:10;stroke-dasharray:none;stroke-opacity:1"
             id="path272" /></g><g
           id="g274"
           transform="translate(29.5865,512.1613)"><path
             d="m 0,0 c -4.071,0 -7.37,3.3 -7.37,7.37 0,4.071 3.299,7.37 7.37,7.37 4.07,0 7.37,-3.299 7.37,-7.37 C 7.37,3.3 4.07,0 0,0 Z"
             style="fill:none;stroke:#ff0000;stroke-width:0.283;stroke-linecap:round;stroke-linejoin:round;stroke-miterlimit:10;stroke-dasharray:none;stroke-opacity:1"
             id="path276" /></g><g
           id="g278"
           transform="translate(417.1959,336.0001)"><path
             d="m 0,0 c 3.525,-2.035 4.732,-6.543 2.697,-10.068 -2.035,-3.525 -6.542,-4.733 -10.067,-2.698 -3.526,2.036 -4.733,6.543 -2.698,10.068 C -8.033,0.827 -3.525,2.035 0,0 Z"
             style="fill:none;stroke:#ff0000;stroke-width:0.283;stroke-linecap:round;stroke-linejoin:round;stroke-miterlimit:10;stroke-dasharray:none;stroke-opacity:1"
             id="path280" /></g><g
           id="g282"
           transform="translate(29.5591,404.3761)"><path
             d="m 0,0 c -4.07,0 -7.37,3.3 -7.37,7.37 0,4.07 3.3,7.37 7.37,7.37 4.07,0 7.37,-3.3 7.37,-7.37 C 7.37,3.3 4.07,0 0,0 Z"
             style="fill:none;stroke:#ff0000;stroke-width:0.283;stroke-linecap:round;stroke-linejoin:round;stroke-miterlimit:10;stroke-dasharray:none;stroke-opacity:1"
             id="path284" /></g><g
           id="g286"
           transform="translate(43.4058,434.4239)"><path
             d="m 0,0 c 0,-4.697 -3.808,-8.504 -8.504,-8.504 h -4.942 c -7.632,0 -14.199,-5.865 -14.557,-13.488 -0.384,-8.14 6.102,-14.859 14.156,-14.859 h 5.336 c 4.697,0 8.504,-3.806 8.504,-8.503 l 0.034,-2.307 c 0,-0.783 0.635,-1.418 1.417,-1.418 h 48.193 5.67 102.054 c 0.376,0 0.737,-0.15 1.002,-0.415 -0.01,0.014 29.898,-40.974 29.898,-40.974 0.28,-0.239 0.626,-0.387 0.992,-0.425 l 104.298,-15.503 c 0.269,-0.046 0.535,-0.115 0.794,-0.206 l 41.81,-24.064 c 1.115,-0.788 2.657,-0.523 3.446,0.592 l 7.197,12.541 c 2.35,4.095 7.585,5.491 11.662,3.112 l 4.558,-2.66 c 6.779,-3.914 15.447,-1.592 19.361,5.187 3.914,6.78 1.591,15.448 -5.188,19.362 l -4.683,2.746 c -4.021,2.357 -5.394,7.513 -3.08,11.558 l 7.737,13.524 c 0.869,1.655 0.41,3.697 -1.085,4.821 l -54.077,31.287 c -0.832,0.736 -1.407,1.72 -1.64,2.806 v 91.539 l 0.002,46.094 v 3.499 c 0,0.782 -0.634,1.417 -1.417,1.418 l -1.441,10e-4 c -4.694,0.004 -8.497,3.809 -8.497,8.504 v 5.341 c 0,8.055 -6.719,14.541 -14.859,14.157 -7.623,-0.359 -13.487,-6.926 -13.487,-14.557 v -4.94 c 0,-4.695 -3.805,-8.501 -8.499,-8.504 l -4.244,-0.002 c -0.783,-0.001 -1.419,0.634 -1.419,1.418 v 4.252 c 0,0.782 -0.634,1.417 -1.417,1.417 h -51.027 c -0.783,0 -1.417,0.634 -1.417,1.417 v 3.544 c 0,0.783 -0.635,1.417 -1.418,1.417 h -48.192 c -0.783,0 -1.418,-0.634 -1.418,-1.417 v -3.544 c 0,-0.783 -0.634,-1.417 -1.417,-1.417 h -51.028 c -0.782,0 -1.417,-0.635 -1.417,-1.417 v -10.631 c 0,-0.783 -0.634,-1.418 -1.418,-1.418 H 55.307 49.637 1.446 c -0.783,0 -1.418,-0.634 -1.419,-1.417 v -1.179 c 0,-4.696 -3.807,-8.504 -8.504,-8.504 h -4.942 c -7.632,0 -14.199,-5.865 -14.558,-13.488 -0.383,-8.139 6.102,-14.858 14.158,-14.858 h 5.335 c 4.697,0 8.504,-3.807 8.504,-8.503 z"
             style="fill:none;stroke:#ff0000;stroke-width:0.283;stroke-linecap:round;stroke-linejoin:round;stroke-miterlimit:10;stroke-dasharray:none;stroke-opacity:1"
             id="path288" /></g><g
           id="g290"
           transform="translate(729.4,566.0284)"><path
             d="m 0,0 c 0,4.07 3.3,7.37 7.37,7.37 4.07,0 7.37,-3.3 7.37,-7.37 0,-4.07 -3.3,-7.37 -7.37,-7.37 C 3.3,-7.37 0,-4.07 0,0 Z"
             style="fill:none;stroke:#ff0000;stroke-width:0.283;stroke-linecap:round;stroke-linejoin:round;stroke-miterlimit:10;stroke-dasharray:none;stroke-opacity:1"
             id="path292" /></g><g
           id="g294"
           transform="translate(428.1138,513.1603)"><path
             d="m 0,0 c -4.07,0 -7.37,3.299 -7.37,7.37 0,4.07 3.3,7.37 7.37,7.37 4.07,0 7.37,-3.3 7.37,-7.37 C 7.37,3.299 4.07,0 0,0 Z"
             style="fill:none;stroke:#ff0000;stroke-width:0.283;stroke-linecap:round;stroke-linejoin:round;stroke-miterlimit:10;stroke-dasharray:none;stroke-opacity:1"
             id="path296" /></g><g
           id="g298"
           transform="translate(815.7232,336.9981)"><path
             d="m 0,0 c 3.525,-2.035 4.732,-6.543 2.697,-10.068 -2.035,-3.525 -6.542,-4.733 -10.067,-2.698 -3.526,2.036 -4.733,6.543 -2.697,10.068 C -8.032,0.827 -3.525,2.035 0,0 Z"
             style="fill:none;stroke:#ff0000;stroke-width:0.283;stroke-linecap:round;stroke-linejoin:round;stroke-miterlimit:10;stroke-dasharray:none;stroke-opacity:1"
             id="path300" /></g><g
           id="g302"
           transform="translate(613.8648,390.6143)"><path
             d="M 0,0 C 0,1.722 1.396,3.118 3.118,3.118 4.84,3.118 6.236,1.722 6.236,0 6.236,-1.723 4.84,-3.118 3.118,-3.118 1.396,-3.118 0,-1.723 0,0 Z"
             style="fill:none;stroke:#ff0000;stroke-width:0.283;stroke-linecap:round;stroke-linejoin:round;stroke-miterlimit:10;stroke-dasharray:none;stroke-opacity:1"
             id="path304" /></g><g
           id="g306"
           transform="translate(706.7789,503.2833)"><path
             d="M 0,0 C 0,1.723 1.396,3.118 3.119,3.118 4.841,3.118 6.237,1.723 6.237,0 6.237,-1.722 4.841,-3.118 3.119,-3.118 1.396,-3.118 0,-1.722 0,0 Z"
             style="fill:none;stroke:#ff0000;stroke-width:0.283;stroke-linecap:round;stroke-linejoin:round;stroke-miterlimit:10;stroke-dasharray:none;stroke-opacity:1"
             id="path308" /></g><g
           id="g310"
           transform="translate(491.2842,493.0157)"><path
             d="M 0,0 C 0,1.722 1.396,3.118 3.119,3.118 4.841,3.118 6.237,1.722 6.237,0 6.237,-1.723 4.841,-3.119 3.119,-3.119 1.396,-3.119 0,-1.723 0,0 Z"
             style="fill:none;stroke:#ff0000;stroke-width:0.283;stroke-linecap:round;stroke-linejoin:round;stroke-miterlimit:10;stroke-dasharray:none;stroke-opacity:1"
             id="path312" /></g><g
           id="g314"
           transform="translate(491.2593,439.1143)"><path
             d="M 0,0 C 0,1.722 1.396,3.118 3.119,3.118 4.841,3.118 6.237,1.722 6.237,0 6.237,-1.723 4.841,-3.118 3.119,-3.118 1.396,-3.118 0,-1.723 0,0 Z"
             style="fill:none;stroke:#ff0000;stroke-width:0.283;stroke-linecap:round;stroke-linejoin:round;stroke-miterlimit:10;stroke-dasharray:none;stroke-opacity:1"
             id="path316" /></g><g
           id="g318"
           transform="translate(745.732,368.6329)"><path
             d="M 0,0 C 0,1.722 1.396,3.118 3.118,3.118 4.841,3.118 6.237,1.722 6.237,0 6.237,-1.723 4.841,-3.118 3.118,-3.118 1.396,-3.118 0,-1.723 0,0 Z"
             style="fill:none;stroke:#ff0000;stroke-width:0.283;stroke-linecap:round;stroke-linejoin:round;stroke-miterlimit:10;stroke-dasharray:none;stroke-opacity:1"
             id="path320" /></g><g
           id="g322"
           transform="translate(491.2696,439.1114)"><path
             d="M 0,0 C 0,1.722 1.396,3.118 3.119,3.118 4.841,3.118 6.237,1.722 6.237,0 6.237,-1.723 4.841,-3.118 3.119,-3.118 1.396,-3.118 0,-1.723 0,0 Z"
             style="fill:none;stroke:#ff0000;stroke-width:0.283;stroke-linecap:round;stroke-linejoin:round;stroke-miterlimit:10;stroke-dasharray:none;stroke-opacity:1"
             id="path324" /></g><g
           id="g326"
           transform="translate(428.087,405.3741)"><path
             d="m 0,0 c -4.071,0 -7.37,3.3 -7.37,7.37 0,4.07 3.299,7.37 7.37,7.37 4.07,0 7.37,-3.3 7.37,-7.37 C 7.37,3.3 4.07,0 0,0 Z"
             style="fill:none;stroke:#ff0000;stroke-width:0.283;stroke-linecap:round;stroke-linejoin:round;stroke-miterlimit:10;stroke-dasharray:none;stroke-opacity:1"
             id="path328" /></g><g
           id="g330"
           transform="translate(819.0982,370.7179)"><path
             d="m 0,0 -7.736,-13.523 c -2.315,-4.046 -0.942,-9.201 3.079,-11.559 l 4.683,-2.746 c 6.78,-3.914 9.102,-12.582 5.188,-19.361 -3.913,-6.779 -12.582,-9.102 -19.36,-5.188 l -4.559,2.66 c -4.077,2.379 -9.312,0.983 -11.661,-3.111 l -7.198,-12.542 c -0.789,-1.114 -2.332,-1.38 -3.446,-0.592 l -41.81,24.066 c -0.259,0.089 -0.525,0.158 -0.794,0.204 l -104.298,15.504 c -0.366,0.037 -0.712,0.185 -0.992,0.424 0,0 -29.908,40.988 -29.898,40.974 -0.265,0.266 -0.626,0.415 -1.002,0.415 h -102.054 -5.67 -48.192 c -0.783,0 -1.418,0.635 -1.418,1.418 l -0.034,2.308 c 0,4.696 -3.807,8.503 -8.504,8.503 h -5.335 c -8.055,0 -14.541,6.719 -14.157,14.858 0.358,7.623 6.925,13.488 14.557,13.488 h 4.942 c 4.697,0 8.504,3.808 8.504,8.504 l 0.02,62.432 c 0,4.696 -3.807,8.503 -8.503,8.503 h -5.336 c -8.055,0 -14.541,6.719 -14.158,14.858 0.359,7.623 6.926,13.488 14.558,13.488 h 4.942 c 4.697,0 8.504,3.808 8.504,8.504 v 1.179 c 10e-4,0.783 0.637,1.417 1.42,1.417 h 48.19 5.67 51.027 c 0.783,0 1.417,0.635 1.417,1.418 v 10.631 c 0,0.782 0.635,1.417 1.418,1.417 h 51.027 c 0.782,0 1.417,0.635 1.417,1.418 v 3.543 c 0,0.783 0.635,1.418 1.418,1.418 h 48.193 c 0.782,0 1.417,-0.635 1.417,-1.418 v -3.543 c 0,-0.783 0.634,-1.418 1.417,-1.418 h 51.027 c 0.783,0 1.418,-0.635 1.418,-1.417 v -4.252 c 0,-0.783 0.635,-1.419 1.419,-1.418 l 4.243,0.002 c 4.694,0.003 8.499,3.809 8.499,8.505 v 4.939 c 0,7.632 5.864,14.198 13.487,14.557 8.14,0.384 14.859,-6.102 14.859,-14.156 v -5.342 c 0,-4.695 3.803,-8.5 8.498,-8.504 l 1.44,-0.001 c 0.782,-0.001 1.417,-0.635 1.417,-1.418 l -0.011,-3.492 c 0.081,-0.761 0.665,-1.37 1.42,-1.485 H 0.598 c 0.782,0 1.417,-0.634 1.417,-1.417 V 6.519 C 1.893,4.214 1.196,1.976 -0.011,0.007"
             style="fill:none;stroke:#ff0000;stroke-width:0.283;stroke-linecap:round;stroke-linejoin:round;stroke-miterlimit:10;stroke-dasharray:none;stroke-opacity:1"
             id="path332" /></g><g
           id="g334"
           transform="translate(533.2242,214.0978)"><path
             d="m 0,0 c 0,1.723 -1.396,3.119 -3.119,3.119 -1.722,0 -3.118,-1.396 -3.118,-3.119 0,-1.722 1.396,-3.118 3.118,-3.118 C -1.396,-3.118 0,-1.722 0,0 Z"
             style="fill:none;stroke:#ff0000;stroke-width:0.283;stroke-linecap:round;stroke-linejoin:round;stroke-miterlimit:10;stroke-dasharray:none;stroke-opacity:1"
             id="path336" /></g><g
           id="g338"
           transform="translate(748.7193,203.8302)"><path
             d="m 0,0 c 0,1.722 -1.396,3.118 -3.119,3.118 -1.722,0 -3.118,-1.396 -3.118,-3.118 0,-1.723 1.396,-3.118 3.118,-3.118 C -1.396,-3.118 0,-1.723 0,0 Z"
             style="fill:none;stroke:#ff0000;stroke-width:0.283;stroke-linecap:round;stroke-linejoin:round;stroke-miterlimit:10;stroke-dasharray:none;stroke-opacity:1"
             id="path340" /></g><g
           id="g342"
           transform="translate(748.7437,149.9288)"><path
             d="m 0,0 c 0,1.722 -1.396,3.118 -3.118,3.118 -1.723,0 -3.118,-1.396 -3.118,-3.118 0,-1.723 1.395,-3.118 3.118,-3.118 C -1.396,-3.118 0,-1.723 0,0 Z"
             style="fill:none;stroke:#ff0000;stroke-width:0.283;stroke-linecap:round;stroke-linejoin:round;stroke-miterlimit:10;stroke-dasharray:none;stroke-opacity:1"
             id="path344" /></g><g
           id="g346"
           transform="translate(494.2711,79.4474)"><path
             d="M 0,0 C 0,1.723 -1.396,3.118 -3.118,3.118 -4.84,3.118 -6.237,1.723 -6.237,0 c 0,-1.723 1.397,-3.118 3.119,-3.118 C -1.396,-3.118 0,-1.723 0,0 Z"
             style="fill:none;stroke:#ff0000;stroke-width:0.283;stroke-linecap:round;stroke-linejoin:round;stroke-miterlimit:10;stroke-dasharray:none;stroke-opacity:1"
             id="path348" /></g><g
           id="g350"
           transform="translate(626.1392,101.4288)"><path
             d="m 0,0 c 0,1.722 -1.396,3.118 -3.119,3.118 -1.722,0 -3.118,-1.396 -3.118,-3.118 0,-1.723 1.396,-3.118 3.118,-3.118 C -1.396,-3.118 0,-1.723 0,0 Z"
             style="fill:none;stroke:#ff0000;stroke-width:0.283;stroke-linecap:round;stroke-linejoin:round;stroke-miterlimit:10;stroke-dasharray:none;stroke-opacity:1"
             id="path352" /></g><path
           d="m 792.187,211.15 h -39.263 v 39.262 h 39.263 z"
           style="fill:none;stroke:#ff0000;stroke-width:0.283;stroke-linecap:round;stroke-linejoin:round;stroke-miterlimit:10;stroke-dasharray:none;stroke-opacity:1"
           id="path354" /><path
           d="m 792.187,157.287 h -39.263 v 39.263 h 39.263 z"
           style="fill:none;stroke:#ff0000;stroke-width:0.283;stroke-linecap:round;stroke-linejoin:round;stroke-miterlimit:10;stroke-dasharray:none;stroke-opacity:1"
           id="path356" /><path
           d="m 792.187,103.425 h -39.263 v 39.263 h 39.263 z"
           style="fill:none;stroke:#ff0000;stroke-width:0.283;stroke-linecap:round;stroke-linejoin:round;stroke-miterlimit:10;stroke-dasharray:none;stroke-opacity:1"
           id="path358" /><path
           d="m 738.323,211.15 h -39.262 v 39.262 h 39.262 z"
           style="fill:none;stroke:#ff0000;stroke-width:0.283;stroke-linecap:round;stroke-linejoin:round;stroke-miterlimit:10;stroke-dasharray:none;stroke-opacity:1"
           id="path360" /><path
           d="m 738.323,157.287 h -39.262 v 39.263 h 39.262 z"
           style="fill:none;stroke:#ff0000;stroke-width:0.283;stroke-linecap:round;stroke-linejoin:round;stroke-miterlimit:10;stroke-dasharray:none;stroke-opacity:1"
           id="path362" /><path
           d="m 738.323,103.425 h -39.262 v 39.263 h 39.262 z"
           style="fill:none;stroke:#ff0000;stroke-width:0.283;stroke-linecap:round;stroke-linejoin:round;stroke-miterlimit:10;stroke-dasharray:none;stroke-opacity:1"
           id="path364" /><path
           d="m 684.461,224.614 h -39.263 v 39.263 h 39.263 z"
           style="fill:none;stroke:#ff0000;stroke-width:0.283;stroke-linecap:round;stroke-linejoin:round;stroke-miterlimit:10;stroke-dasharray:none;stroke-opacity:1"
           id="path366" /><path
           d="m 684.461,170.752 h -39.263 v 39.263 h 39.263 z"
           style="fill:none;stroke:#ff0000;stroke-width:0.283;stroke-linecap:round;stroke-linejoin:round;stroke-miterlimit:10;stroke-dasharray:none;stroke-opacity:1"
           id="path368" /><path
           d="m 684.461,116.891 h -39.263 v 39.263 h 39.263 z"
           style="fill:none;stroke:#ff0000;stroke-width:0.283;stroke-linecap:round;stroke-linejoin:round;stroke-miterlimit:10;stroke-dasharray:none;stroke-opacity:1"
           id="path370" /><path
           d="m 630.599,231.348 h -39.263 v 39.262 h 39.263 z"
           style="fill:none;stroke:#ff0000;stroke-width:0.283;stroke-linecap:round;stroke-linejoin:round;stroke-miterlimit:10;stroke-dasharray:none;stroke-opacity:1"
           id="path372" /><path
           d="m 630.599,177.485 h -39.263 v 39.263 h 39.263 z"
           style="fill:none;stroke:#ff0000;stroke-width:0.283;stroke-linecap:round;stroke-linejoin:round;stroke-miterlimit:10;stroke-dasharray:none;stroke-opacity:1"
           id="path374" /><path
           d="m 630.599,123.623 h -39.263 v 39.263 h 39.263 z"
           style="fill:none;stroke:#ff0000;stroke-width:0.283;stroke-linecap:round;stroke-linejoin:round;stroke-miterlimit:10;stroke-dasharray:none;stroke-opacity:1"
           id="path376" /><path
           d="m 576.737,224.614 h -39.263 v 39.263 h 39.263 z"
           style="fill:none;stroke:#ff0000;stroke-width:0.283;stroke-linecap:round;stroke-linejoin:round;stroke-miterlimit:10;stroke-dasharray:none;stroke-opacity:1"
           id="path378" /><path
           d="m 576.737,170.752 h -39.263 v 39.263 h 39.263 z"
           style="fill:none;stroke:#ff0000;stroke-width:0.283;stroke-linecap:round;stroke-linejoin:round;stroke-miterlimit:10;stroke-dasharray:none;stroke-opacity:1"
           id="path380" /><path
           d="m 576.737,116.891 h -39.263 v 39.263 h 39.263 z"
           style="fill:none;stroke:#ff0000;stroke-width:0.283;stroke-linecap:round;stroke-linejoin:round;stroke-miterlimit:10;stroke-dasharray:none;stroke-opacity:1"
           id="path382" /><path
           d="m 522.875,217.882 h -39.263 v 39.263 h 39.263 z"
           style="fill:none;stroke:#ff0000;stroke-width:0.283;stroke-linecap:round;stroke-linejoin:round;stroke-miterlimit:10;stroke-dasharray:none;stroke-opacity:1"
           id="path384" /><path
           d="m 522.875,164.02 h -39.263 v 39.263 h 39.263 z"
           style="fill:none;stroke:#ff0000;stroke-width:0.283;stroke-linecap:round;stroke-linejoin:round;stroke-miterlimit:10;stroke-dasharray:none;stroke-opacity:1"
           id="path386" /><path
           d="m 522.875,110.157 h -39.263 v 39.263 h 39.263 z"
           style="fill:none;stroke:#ff0000;stroke-width:0.283;stroke-linecap:round;stroke-linejoin:round;stroke-miterlimit:10;stroke-dasharray:none;stroke-opacity:1"
           id="path388" /><path
           d="m 603.668,61.257 h -39.262 v 39.262 h 39.262 z"
           style="fill:none;stroke:#ff0000;stroke-width:0.283;stroke-linecap:round;stroke-linejoin:round;stroke-miterlimit:10;stroke-dasharray:none;stroke-opacity:1"
           id="path390" /><g
           id="g392"
           transform="translate(538.3887,97.1192)"><path
             d="m 0,0 10.123,-37.936 -37.935,-10.123 -10.123,37.935 z"
             style="fill:none;stroke:#ff0000;stroke-width:0.283;stroke-linecap:round;stroke-linejoin:round;stroke-miterlimit:10;stroke-dasharray:none;stroke-opacity:1"
             id="path394" /></g><g
           id="g396"
           transform="translate(468.6207,89.2901)"><path
             d="m 0,0 19.608,-34.016 -34.016,-19.607 -19.608,34.016 z"
             style="fill:none;stroke:#ff0000;stroke-width:0.283;stroke-linecap:round;stroke-linejoin:round;stroke-miterlimit:10;stroke-dasharray:none;stroke-opacity:1"
             id="path398" /></g><g
           id="g400"
           transform="translate(510.6138,276.8458)"><path
             d="m 0,0 c 0,4.07 -3.3,7.37 -7.37,7.37 -4.07,0 -7.37,-3.3 -7.37,-7.37 0,-4.07 3.3,-7.37 7.37,-7.37 C -3.3,-7.37 0,-4.07 0,0 Z"
             style="fill:none;stroke:#ff0000;stroke-width:0.283;stroke-linecap:round;stroke-linejoin:round;stroke-miterlimit:10;stroke-dasharray:none;stroke-opacity:1"
             id="path402" /></g><g
           id="g404"
           transform="translate(811.9,223.9776)"><path
             d="m 0,0 c 4.07,0 7.37,3.299 7.37,7.37 0,4.07 -3.3,7.37 -7.37,7.37 -4.07,0 -7.37,-3.3 -7.37,-7.37 C -7.37,3.299 -4.07,0 0,0 Z"
             style="fill:none;stroke:#ff0000;stroke-width:0.283;stroke-linecap:round;stroke-linejoin:round;stroke-miterlimit:10;stroke-dasharray:none;stroke-opacity:1"
             id="path406" /></g><g
           id="g408"
           transform="translate(424.2906,47.8155)"><path
             d="m 0,0 c -3.525,-2.035 -4.733,-6.543 -2.698,-10.068 2.035,-3.525 6.543,-4.733 10.068,-2.698 3.525,2.036 4.733,6.543 2.697,10.068 C 8.032,0.827 3.525,2.035 0,0 Z"
             style="fill:none;stroke:#ff0000;stroke-width:0.283;stroke-linecap:round;stroke-linejoin:round;stroke-miterlimit:10;stroke-dasharray:none;stroke-opacity:1"
             id="path410" /></g><g
           id="g412"
           transform="translate(811.9273,116.1915)"><path
             d="m 0,0 c 4.07,0 7.369,3.3 7.369,7.37 0,4.07 -3.299,7.37 -7.369,7.37 -4.071,0 -7.37,-3.3 -7.37,-7.37 C -7.37,3.3 -4.071,0 0,0 Z"
             style="fill:none;stroke:#ff0000;stroke-width:0.283;stroke-linecap:round;stroke-linejoin:round;stroke-miterlimit:10;stroke-dasharray:none;stroke-opacity:1"
             id="path414" /></g><g
           id="g416"
           transform="translate(798.0806,146.2394)"><path
             d="m 0,0 c 0,-4.696 3.807,-8.504 8.504,-8.504 h 4.942 c 7.631,0 14.199,-5.865 14.557,-13.488 0.384,-8.139 -6.102,-14.859 -14.156,-14.859 H 8.511 c -4.697,0 -8.504,-3.806 -8.504,-8.503 l -0.034,-2.307 c 0,-0.783 -0.635,-1.418 -1.417,-1.418 h -48.193 -5.67 -102.054 c -0.376,0 -0.737,-0.15 -1.002,-0.415 0.009,0.014 -29.898,-40.974 -29.898,-40.974 -0.28,-0.239 -0.626,-0.387 -0.992,-0.425 l -104.298,-15.503 c -0.27,-0.046 -0.535,-0.115 -0.794,-0.205 l -41.81,-24.065 c -1.115,-0.788 -2.657,-0.522 -3.446,0.592 l -7.198,12.542 c -2.349,4.094 -7.584,5.49 -11.661,3.111 l -4.559,-2.66 c -6.778,-3.914 -15.447,-1.591 -19.36,5.187 -3.914,6.78 -1.592,15.448 5.187,19.362 l 4.684,2.746 c 4.021,2.358 5.394,7.513 3.08,11.558 l -7.737,13.524 c -0.87,1.656 -0.41,3.698 1.085,4.821 l 54.076,31.287 c 0.833,0.737 1.408,1.72 1.64,2.806 l 10e-4,91.539 -0.002,46.094 v 3.499 c 0,0.783 0.634,1.417 1.416,1.418 l 1.441,10e-4 c 4.695,0.004 8.498,3.809 8.498,8.504 v 5.341 c 0,8.055 6.719,14.54 14.858,14.157 7.623,-0.359 13.488,-6.925 13.488,-14.557 v -4.939 c 0,-4.696 3.805,-8.502 8.499,-8.505 l 4.244,-0.002 c 0.783,-0.001 1.418,0.635 1.418,1.418 v 4.252 c 0,0.782 0.635,1.417 1.418,1.417 h 51.026 c 0.784,0 1.418,0.634 1.418,1.417 v 3.544 c 0,0.783 0.635,1.418 1.417,1.418 h 48.193 c 0.783,0 1.418,-0.635 1.418,-1.418 v -3.544 c 0,-0.783 0.634,-1.417 1.417,-1.417 h 51.027 c 0.783,0 1.417,-0.635 1.417,-1.417 v -10.631 c 0,-0.783 0.635,-1.418 1.418,-1.418 h 51.027 5.67 48.191 c 0.783,0 1.418,-0.634 1.419,-1.417 v -1.179 c 0,-4.696 3.807,-8.504 8.504,-8.504 h 4.942 c 7.632,0 14.198,-5.865 14.558,-13.488 C 28.359,77.654 21.874,70.935 13.819,70.935 H 8.483 c -4.696,0 -8.504,-3.807 -8.504,-8.503 z"
             style="fill:none;stroke:#ff0000;stroke-width:0.283;stroke-linecap:round;stroke-linejoin:round;stroke-miterlimit:10;stroke-dasharray:none;stroke-opacity:1"
             id="path418" /></g><g
           id="g420"
           transform="translate(112.086,277.8438)"><path
             d="m 0,0 c 0,4.07 -3.299,7.37 -7.37,7.37 -4.07,0 -7.37,-3.3 -7.37,-7.37 0,-4.07 3.3,-7.37 7.37,-7.37 4.071,0 7.37,3.3 7.37,7.37 z"
             style="fill:none;stroke:#ff0000;stroke-width:0.283;stroke-linecap:round;stroke-linejoin:round;stroke-miterlimit:10;stroke-dasharray:none;stroke-opacity:1"
             id="path422" /></g><g
           id="g424"
           transform="translate(413.3721,224.9757)"><path
             d="m 0,0 c 4.071,0 7.37,3.3 7.37,7.37 0,4.07 -3.299,7.37 -7.37,7.37 -4.07,0 -7.37,-3.3 -7.37,-7.37 C -7.37,3.3 -4.07,0 0,0 Z"
             style="fill:none;stroke:#ff0000;stroke-width:0.283;stroke-linecap:round;stroke-linejoin:round;stroke-miterlimit:10;stroke-dasharray:none;stroke-opacity:1"
             id="path426" /></g><g
           id="g428"
           transform="translate(25.7628,48.8136)"><path
             d="m 0,0 c -3.525,-2.035 -4.732,-6.543 -2.697,-10.067 2.035,-3.526 6.542,-4.734 10.067,-2.699 3.526,2.036 4.733,6.543 2.698,10.069 C 8.033,0.827 3.525,2.035 0,0 Z"
             style="fill:none;stroke:#ff0000;stroke-width:0.283;stroke-linecap:round;stroke-linejoin:round;stroke-miterlimit:10;stroke-dasharray:none;stroke-opacity:1"
             id="path430" /></g><g
           id="g432"
           transform="translate(227.6216,102.4298)"><path
             d="m 0,0 c 0,1.722 -1.396,3.118 -3.118,3.118 -1.723,0 -3.119,-1.396 -3.119,-3.118 0,-1.723 1.396,-3.118 3.119,-3.118 C -1.396,-3.118 0,-1.723 0,0 Z"
             style="fill:none;stroke:#ff0000;stroke-width:0.283;stroke-linecap:round;stroke-linejoin:round;stroke-miterlimit:10;stroke-dasharray:none;stroke-opacity:1"
             id="path434" /></g><g
           id="g436"
           transform="translate(134.7066,215.0987)"><path
             d="M 0,0 C 0,1.723 -1.396,3.119 -3.118,3.119 -4.84,3.119 -6.236,1.723 -6.236,0 c 0,-1.722 1.396,-3.118 3.118,-3.118 C -1.396,-3.118 0,-1.722 0,0 Z"
             style="fill:none;stroke:#ff0000;stroke-width:0.283;stroke-linecap:round;stroke-linejoin:round;stroke-miterlimit:10;stroke-dasharray:none;stroke-opacity:1"
             id="path438" /></g><g
           id="g440"
           transform="translate(350.2017,204.8312)"><path
             d="M 0,0 C 0,1.722 -1.396,3.118 -3.118,3.118 -4.84,3.118 -6.237,1.722 -6.237,0 c 0,-1.723 1.397,-3.118 3.119,-3.118 C -1.396,-3.118 0,-1.723 0,0 Z"
             style="fill:none;stroke:#ff0000;stroke-width:0.283;stroke-linecap:round;stroke-linejoin:round;stroke-miterlimit:10;stroke-dasharray:none;stroke-opacity:1"
             id="path442" /></g><g
           id="g444"
           transform="translate(350.2266,150.9298)"><path
             d="M 0,0 C 0,1.722 -1.396,3.118 -3.118,3.118 -4.84,3.118 -6.237,1.722 -6.237,0 c 0,-1.723 1.397,-3.118 3.119,-3.118 C -1.396,-3.118 0,-1.723 0,0 Z"
             style="fill:none;stroke:#ff0000;stroke-width:0.283;stroke-linecap:round;stroke-linejoin:round;stroke-miterlimit:10;stroke-dasharray:none;stroke-opacity:1"
             id="path446" /></g><g
           id="g448"
           transform="translate(95.754,80.4483)"><path
             d="M 0,0 C 0,1.723 -1.396,3.118 -3.118,3.118 -4.84,3.118 -6.237,1.723 -6.237,0 c 0,-1.722 1.397,-3.118 3.119,-3.118 C -1.396,-3.118 0,-1.722 0,0 Z"
             style="fill:none;stroke:#ff0000;stroke-width:0.283;stroke-linecap:round;stroke-linejoin:round;stroke-miterlimit:10;stroke-dasharray:none;stroke-opacity:1"
             id="path450" /></g><g
           id="g452"
           transform="translate(350.2164,150.9269)"><path
             d="m 0,0 c 0,1.723 -1.396,3.118 -3.118,3.118 -1.723,0 -3.119,-1.395 -3.119,-3.118 0,-1.723 1.396,-3.118 3.119,-3.118 C -1.396,-3.118 0,-1.723 0,0 Z"
             style="fill:none;stroke:#ff0000;stroke-width:0.283;stroke-linecap:round;stroke-linejoin:round;stroke-miterlimit:10;stroke-dasharray:none;stroke-opacity:1"
             id="path454" /></g><g
           id="g456"
           transform="translate(413.3995,117.1905)"><path
             d="m 0,0 c 4.07,0 7.37,3.299 7.37,7.37 0,4.07 -3.3,7.369 -7.37,7.369 -4.07,0 -7.37,-3.299 -7.37,-7.369 C -7.37,3.299 -4.07,0 0,0 Z"
             style="fill:none;stroke:#ff0000;stroke-width:0.283;stroke-linecap:round;stroke-linejoin:round;stroke-miterlimit:10;stroke-dasharray:none;stroke-opacity:1"
             id="path458" /></g><g
           id="g460"
           transform="translate(22.3882,82.5333)"><path
             d="m 0,0 7.736,-13.523 c 2.315,-4.046 0.941,-9.201 -3.079,-11.559 l -4.684,-2.746 c -6.779,-3.914 -9.101,-12.582 -5.188,-19.361 3.914,-6.779 12.582,-9.102 19.361,-5.188 l 4.559,2.66 c 4.077,2.38 9.312,0.983 11.661,-3.111 l 7.198,-12.542 c 0.788,-1.114 2.331,-1.38 3.446,-0.592 l 41.81,24.066 c 0.259,0.089 0.524,0.158 0.794,0.204 l 104.298,15.504 c 0.366,0.037 0.712,0.185 0.992,0.424 0,0 29.908,40.988 29.897,40.974 0.266,0.266 0.627,0.415 1.003,0.415 h 102.054 5.67 48.192 c 0.783,0 1.418,0.635 1.418,1.418 l 0.033,2.308 c 0.001,4.696 3.808,8.503 8.504,8.503 h 5.336 c 8.055,0 14.54,6.719 14.157,14.858 -0.359,7.623 -6.925,13.488 -14.557,13.488 h -4.943 c -4.696,0 -8.503,3.808 -8.503,8.504 l -0.02,62.432 c 0,4.696 3.807,8.503 8.503,8.503 h 5.336 c 8.055,0 14.54,6.719 14.157,14.858 -0.359,7.623 -6.926,13.488 -14.557,13.488 h -4.942 c -4.697,0 -8.504,3.808 -8.504,8.504 v 1.179 c -10e-4,0.783 -0.637,1.417 -1.42,1.417 h -48.19 -5.67 -51.027 c -0.783,0 -1.417,0.635 -1.417,1.418 v 10.631 c 0,0.782 -0.635,1.417 -1.418,1.417 h -51.027 c -0.783,0 -1.418,0.635 -1.418,1.418 v 3.543 c 0,0.783 -0.634,1.418 -1.417,1.418 h -48.193 c -0.782,0 -1.417,-0.635 -1.417,-1.418 v -3.543 c 0,-0.783 -0.634,-1.418 -1.418,-1.418 H 112.08 c -0.784,0 -1.418,-0.635 -1.418,-1.417 v -4.252 c 0,-0.783 -0.635,-1.418 -1.419,-1.418 L 105,181.467 c -4.695,0.002 -8.499,3.808 -8.499,8.504 v 4.939 c 0,7.632 -5.865,14.198 -13.488,14.558 -8.139,0.383 -14.858,-6.103 -14.858,-14.157 v -5.342 c 0,-4.695 -3.804,-8.5 -8.498,-8.504 l -1.441,-0.001 C 57.434,181.463 56.8,180.829 56.8,180.047 l 0.01,-3.493 c -0.081,-0.761 -0.664,-1.37 -1.419,-1.485 H -0.598 c -0.782,0 -1.417,-0.634 -1.417,-1.417 V 6.52 C -1.893,4.214 -1.196,1.976 0.01,0.007"
             style="fill:none;stroke:#ff0000;stroke-width:0.283;stroke-linecap:round;stroke-linejoin:round;stroke-miterlimit:10;stroke-dasharray:none;stroke-opacity:1"
             id="path462" /></g><g
           id="g464"
           transform="translate(29.1109,360.6378)"><path
             d="M 0,0 C 0,4.105 3.357,7.427 7.475,7.369 11.389,7.315 14.685,4.02 14.74,0.105 14.797,-4.014 11.476,-7.37 7.37,-7.37 3.3,-7.37 0,-4.07 0,0 Z"
             style="fill:none;stroke:#ff0000;stroke-width:0.283;stroke-linecap:round;stroke-linejoin:round;stroke-miterlimit:10;stroke-dasharray:none;stroke-opacity:1"
             id="path466" /></g><g
           id="g468"
           transform="translate(50.961,348.3575)"><path
             d="M 0,0 C 1.13,0 1.833,1.275 1.181,2.198 0.738,2.827 0.347,3.561 0.076,4.408 -0.225,5.352 -0.31,6.223 -0.307,6.937 v 4.971 c 0,7.276 -5.329,13.658 -12.561,14.456 -8.549,0.944 -15.785,-5.724 -15.785,-14.084 V 6.944 c 0,-0.726 -0.095,-2.95 -1.689,-5.088 -0.571,-0.76 -0.028,-1.846 0.924,-1.846 z"
             style="fill:none;stroke:#ff0000;stroke-width:0.283;stroke-linecap:round;stroke-linejoin:round;stroke-miterlimit:10;stroke-dasharray:none;stroke-opacity:1"
             id="path470" /></g><g
           id="g472"
           transform="translate(70.2808,359.6915)"><path
             d="M 0,0 C 0,4.105 3.357,7.427 7.475,7.369 11.389,7.315 14.685,4.02 14.74,0.105 14.797,-4.014 11.476,-7.37 7.37,-7.37 3.3,-7.37 0,-4.07 0,0 Z"
             style="fill:none;stroke:#ff0000;stroke-width:0.283;stroke-linecap:round;stroke-linejoin:round;stroke-miterlimit:10;stroke-dasharray:none;stroke-opacity:1"
             id="path474" /></g><g
           id="g476"
           transform="translate(92.1309,347.4112)"><path
             d="M 0,0 C 1.13,0 1.833,1.275 1.181,2.198 0.738,2.827 0.347,3.561 0.076,4.408 -0.225,5.352 -0.31,6.223 -0.307,6.937 v 4.971 c 0,7.276 -5.329,13.658 -12.561,14.456 -8.549,0.944 -15.785,-5.725 -15.785,-14.084 V 6.944 c 0,-0.726 -0.095,-2.95 -1.689,-5.088 -0.571,-0.76 -0.028,-1.846 0.924,-1.846 z"
             style="fill:none;stroke:#ff0000;stroke-width:0.283;stroke-linecap:round;stroke-linejoin:round;stroke-miterlimit:10;stroke-dasharray:none;stroke-opacity:1"
             id="path478" /></g><g
           id="g480"
           transform="translate(111.8438,359.2188)"><path
             d="M 0,0 C 0,4.105 3.356,7.427 7.475,7.369 11.389,7.314 14.685,4.019 14.739,0.104 14.797,-4.014 11.476,-7.37 7.37,-7.37 3.3,-7.37 0,-4.07 0,0 Z"
             style="fill:none;stroke:#ff0000;stroke-width:0.283;stroke-linecap:round;stroke-linejoin:round;stroke-miterlimit:10;stroke-dasharray:none;stroke-opacity:1"
             id="path482" /></g><g
           id="g484"
           transform="translate(133.6939,346.9376)"><path
             d="M 0,0 C 1.13,0 1.833,1.275 1.181,2.199 0.738,2.827 0.347,3.561 0.076,4.409 -0.225,5.352 -0.31,6.224 -0.307,6.938 v 4.97 c 0,7.276 -5.33,13.659 -12.561,14.457 -8.549,0.944 -15.785,-5.725 -15.785,-14.084 V 6.945 C -28.654,6.219 -28.748,3.994 -30.342,1.857 -30.913,1.096 -30.37,0.011 -29.418,0.01 Z"
             style="fill:none;stroke:#ff0000;stroke-width:0.283;stroke-linecap:round;stroke-linejoin:round;stroke-miterlimit:10;stroke-dasharray:none;stroke-opacity:1"
             id="path486" /></g><g
           id="g488"
           transform="translate(153.0137,358.2726)"><path
             d="M 0,0 C 0,4.105 3.356,7.427 7.475,7.369 11.389,7.314 14.685,4.019 14.739,0.104 14.797,-4.014 11.476,-7.37 7.37,-7.37 3.3,-7.37 0,-4.07 0,0 Z"
             style="fill:none;stroke:#ff0000;stroke-width:0.283;stroke-linecap:round;stroke-linejoin:round;stroke-miterlimit:10;stroke-dasharray:none;stroke-opacity:1"
             id="path490" /></g><g
           id="g492"
           transform="translate(174.8638,345.9913)"><path
             d="M 0,0 C 1.13,0 1.833,1.275 1.181,2.199 0.738,2.827 0.347,3.561 0.076,4.409 -0.225,5.352 -0.31,6.224 -0.307,6.938 v 4.97 c 0,7.276 -5.33,13.659 -12.561,14.457 -8.549,0.944 -15.785,-5.725 -15.785,-14.084 V 6.945 C -28.654,6.219 -28.748,3.994 -30.342,1.857 -30.913,1.096 -30.37,0.011 -29.418,0.01 Z"
             style="fill:none;stroke:#ff0000;stroke-width:0.283;stroke-linecap:round;stroke-linejoin:round;stroke-miterlimit:10;stroke-dasharray:none;stroke-opacity:1"
             id="path494" /></g><g
           id="g496"
           transform="translate(28.4063,321.2413)"><path
             d="M 0,0 C 0,4.104 3.356,7.426 7.475,7.369 11.389,7.314 14.685,4.019 14.739,0.104 14.797,-4.014 11.476,-7.37 7.37,-7.37 3.3,-7.37 0,-4.071 0,0 Z"
             style="fill:none;stroke:#ff0000;stroke-width:0.283;stroke-linecap:round;stroke-linejoin:round;stroke-miterlimit:10;stroke-dasharray:none;stroke-opacity:1"
             id="path498" /></g><g
           id="g500"
           transform="translate(50.2559,308.9601)"><path
             d="M 0,0 C 1.131,0 1.833,1.275 1.181,2.199 0.738,2.827 0.347,3.561 0.076,4.409 -0.225,5.352 -0.31,6.224 -0.306,6.938 v 4.97 c 0,7.276 -5.33,13.659 -12.562,14.457 -8.549,0.944 -15.785,-5.725 -15.785,-14.084 V 6.945 c 0,-0.726 -0.095,-2.951 -1.689,-5.088 -0.57,-0.761 -0.027,-1.847 0.924,-1.847 z"
             style="fill:none;stroke:#ff0000;stroke-width:0.283;stroke-linecap:round;stroke-linejoin:round;stroke-miterlimit:10;stroke-dasharray:none;stroke-opacity:1"
             id="path502" /></g><g
           id="g504"
           transform="translate(69.5762,320.295)"><path
             d="M 0,0 C 0,4.104 3.356,7.426 7.475,7.369 11.389,7.314 14.685,4.019 14.739,0.104 14.797,-4.014 11.476,-7.37 7.37,-7.37 3.3,-7.37 0,-4.071 0,0 Z"
             style="fill:none;stroke:#ff0000;stroke-width:0.283;stroke-linecap:round;stroke-linejoin:round;stroke-miterlimit:10;stroke-dasharray:none;stroke-opacity:1"
             id="path506" /></g><g
           id="g508"
           transform="translate(91.4258,308.0138)"><path
             d="M 0,0 C 1.131,0 1.833,1.275 1.181,2.199 0.738,2.827 0.347,3.561 0.076,4.409 -0.225,5.352 -0.31,6.224 -0.306,6.938 v 4.97 c 0,7.276 -5.33,13.659 -12.562,14.457 -8.549,0.943 -15.785,-5.725 -15.785,-14.084 V 6.945 c 0,-0.726 -0.095,-2.951 -1.689,-5.088 -0.57,-0.761 -0.027,-1.847 0.924,-1.847 z"
             style="fill:none;stroke:#ff0000;stroke-width:0.283;stroke-linecap:round;stroke-linejoin:round;stroke-miterlimit:10;stroke-dasharray:none;stroke-opacity:1"
             id="path510" /></g><g
           id="g512"
           transform="translate(111.1392,319.8214)"><path
             d="M 0,0 C 0,4.105 3.356,7.427 7.475,7.369 11.389,7.314 14.685,4.019 14.739,0.104 14.796,-4.014 11.475,-7.37 7.37,-7.37 3.3,-7.37 0,-4.07 0,0 Z"
             style="fill:none;stroke:#ff0000;stroke-width:0.283;stroke-linecap:round;stroke-linejoin:round;stroke-miterlimit:10;stroke-dasharray:none;stroke-opacity:1"
             id="path514" /></g><g
           id="g516"
           transform="translate(132.9888,307.5411)"><path
             d="M 0,0 C 1.13,-0.001 1.833,1.274 1.181,2.198 0.738,2.826 0.347,3.561 0.076,4.408 -0.225,5.351 -0.31,6.223 -0.307,6.937 v 4.971 c 0,7.276 -5.329,13.658 -12.561,14.456 -8.549,0.944 -15.785,-5.725 -15.785,-14.084 V 6.944 c 0,-0.726 -0.095,-2.951 -1.689,-5.088 -0.571,-0.76 -0.027,-1.846 0.924,-1.846 z"
             style="fill:none;stroke:#ff0000;stroke-width:0.283;stroke-linecap:round;stroke-linejoin:round;stroke-miterlimit:10;stroke-dasharray:none;stroke-opacity:1"
             id="path518" /></g><g
           id="g520"
           transform="translate(152.3091,318.8751)"><path
             d="M 0,0 C 0,4.105 3.356,7.427 7.475,7.369 11.389,7.314 14.685,4.019 14.739,0.104 14.796,-4.014 11.475,-7.37 7.37,-7.37 3.3,-7.37 0,-4.07 0,0 Z"
             style="fill:none;stroke:#ff0000;stroke-width:0.283;stroke-linecap:round;stroke-linejoin:round;stroke-miterlimit:10;stroke-dasharray:none;stroke-opacity:1"
             id="path522" /></g><g
           id="g524"
           transform="translate(174.1588,306.5948)"><path
             d="M 0,0 C 1.13,-0.001 1.833,1.274 1.181,2.198 0.738,2.826 0.347,3.56 0.076,4.408 -0.225,5.351 -0.31,6.223 -0.307,6.937 v 4.971 c 0.001,7.276 -5.329,13.658 -12.561,14.456 -8.549,0.944 -15.785,-5.725 -15.785,-14.084 V 6.944 c 0,-0.726 -0.095,-2.951 -1.689,-5.088 -0.571,-0.76 -0.027,-1.846 0.924,-1.846 z"
             style="fill:none;stroke:#ff0000;stroke-width:0.283;stroke-linecap:round;stroke-linejoin:round;stroke-miterlimit:10;stroke-dasharray:none;stroke-opacity:1"
             id="path526" /></g><g
           id="g528"
           transform="translate(453.5401,355.4024)"><path
             d="M 0,0 C 0,4.105 3.356,7.427 7.475,7.37 11.389,7.315 14.685,4.02 14.739,0.105 14.796,-4.013 11.475,-7.369 7.37,-7.369 3.299,-7.369 0,-4.07 0,0 Z"
             style="fill:none;stroke:#ff0000;stroke-width:0.283;stroke-linecap:round;stroke-linejoin:round;stroke-miterlimit:10;stroke-dasharray:none;stroke-opacity:1"
             id="path530" /></g><g
           id="g532"
           transform="translate(475.3897,343.1222)"><path
             d="M 0,0 C 1.13,0 1.833,1.275 1.181,2.199 0.738,2.827 0.347,3.561 0.076,4.409 -0.225,5.352 -0.31,6.224 -0.307,6.938 v 4.97 c 0,7.276 -5.329,13.659 -12.561,14.457 -8.549,0.943 -15.785,-5.725 -15.785,-14.085 V 6.945 c 0,-0.726 -0.095,-2.951 -1.689,-5.088 -0.571,-0.761 -0.028,-1.847 0.924,-1.847 z"
             style="fill:none;stroke:#ff0000;stroke-width:0.283;stroke-linecap:round;stroke-linejoin:round;stroke-miterlimit:10;stroke-dasharray:none;stroke-opacity:1"
             id="path534" /></g><g
           id="g536"
           transform="translate(494.71,354.4561)"><path
             d="M 0,0 C 0,4.105 3.356,7.427 7.475,7.37 11.389,7.315 14.685,4.02 14.739,0.105 14.796,-4.013 11.475,-7.37 7.37,-7.37 3.299,-7.37 0,-4.07 0,0 Z"
             style="fill:none;stroke:#ff0000;stroke-width:0.283;stroke-linecap:round;stroke-linejoin:round;stroke-miterlimit:10;stroke-dasharray:none;stroke-opacity:1"
             id="path538" /></g><g
           id="g540"
           transform="translate(516.5596,342.1759)"><path
             d="M 0,0 C 1.13,0 1.833,1.275 1.181,2.199 0.738,2.827 0.347,3.561 0.076,4.409 -0.225,5.352 -0.31,6.224 -0.307,6.938 v 4.97 c 0,7.276 -5.329,13.659 -12.561,14.457 -8.549,0.943 -15.785,-5.725 -15.785,-14.085 V 6.945 c 0,-0.726 -0.095,-2.951 -1.689,-5.088 -0.571,-0.761 -0.028,-1.847 0.924,-1.847 z"
             style="fill:none;stroke:#ff0000;stroke-width:0.283;stroke-linecap:round;stroke-linejoin:round;stroke-miterlimit:10;stroke-dasharray:none;stroke-opacity:1"
             id="path542" /></g><g
           id="g544"
           transform="translate(536.2725,353.9835)"><path
             d="M 0,0 C 0,4.105 3.357,7.427 7.475,7.369 11.389,7.314 14.685,4.019 14.74,0.104 14.797,-4.014 11.476,-7.37 7.37,-7.37 3.3,-7.37 0,-4.07 0,0 Z"
             style="fill:none;stroke:#ff0000;stroke-width:0.283;stroke-linecap:round;stroke-linejoin:round;stroke-miterlimit:10;stroke-dasharray:none;stroke-opacity:1"
             id="path546" /></g><g
           id="g548"
           transform="translate(558.1226,341.7032)"><path
             d="M 0,0 C 1.13,-0.001 1.833,1.274 1.181,2.198 0.738,2.826 0.347,3.56 0.076,4.408 -0.225,5.351 -0.31,6.223 -0.307,6.937 v 4.971 c 0,7.276 -5.33,13.658 -12.561,14.456 -8.549,0.944 -15.785,-5.725 -15.785,-14.084 V 6.944 c -0.001,-0.726 -0.095,-2.951 -1.689,-5.088 -0.571,-0.76 -0.028,-1.846 0.924,-1.847 z"
             style="fill:none;stroke:#ff0000;stroke-width:0.283;stroke-linecap:round;stroke-linejoin:round;stroke-miterlimit:10;stroke-dasharray:none;stroke-opacity:1"
             id="path550" /></g><g
           id="g552"
           transform="translate(577.4429,353.0372)"><path
             d="M 0,0 C 0,4.105 3.356,7.427 7.475,7.369 11.389,7.314 14.685,4.019 14.739,0.104 14.797,-4.014 11.475,-7.37 7.37,-7.37 3.3,-7.37 0,-4.07 0,0 Z"
             style="fill:none;stroke:#ff0000;stroke-width:0.283;stroke-linecap:round;stroke-linejoin:round;stroke-miterlimit:10;stroke-dasharray:none;stroke-opacity:1"
             id="path554" /></g><g
           id="g556"
           transform="translate(599.2925,340.7569)"><path
             d="M 0,0 C 1.13,-0.001 1.833,1.274 1.181,2.198 0.737,2.826 0.347,3.56 0.076,4.408 -0.225,5.351 -0.31,6.223 -0.307,6.937 v 4.971 c 0,7.276 -5.33,13.658 -12.561,14.456 -8.549,0.944 -15.785,-5.725 -15.785,-14.084 V 6.944 c 0,-0.726 -0.095,-2.951 -1.69,-5.088 -0.569,-0.761 -0.026,-1.846 0.925,-1.847 z"
             style="fill:none;stroke:#ff0000;stroke-width:0.283;stroke-linecap:round;stroke-linejoin:round;stroke-miterlimit:10;stroke-dasharray:none;stroke-opacity:1"
             id="path558" /></g><g
           id="g560"
           transform="translate(452.835,316.006)"><path
             d="M 0,0 C 0,4.105 3.356,7.427 7.475,7.369 11.389,7.314 14.685,4.019 14.74,0.104 14.797,-4.014 11.476,-7.37 7.37,-7.37 3.3,-7.37 0,-4.07 0,0 Z"
             style="fill:none;stroke:#ff0000;stroke-width:0.283;stroke-linecap:round;stroke-linejoin:round;stroke-miterlimit:10;stroke-dasharray:none;stroke-opacity:1"
             id="path562" /></g><g
           id="g564"
           transform="translate(474.6851,303.7247)"><path
             d="M 0,0 C 1.13,0 1.833,1.275 1.181,2.199 0.738,2.827 0.347,3.561 0.076,4.409 -0.225,5.352 -0.31,6.224 -0.307,6.938 v 4.97 c 0,7.276 -5.33,13.659 -12.561,14.457 -8.549,0.944 -15.785,-5.725 -15.785,-14.084 V 6.945 C -28.654,6.219 -28.748,3.994 -30.342,1.857 -30.913,1.096 -30.37,0.011 -29.418,0.01 Z"
             style="fill:none;stroke:#ff0000;stroke-width:0.283;stroke-linecap:round;stroke-linejoin:round;stroke-miterlimit:10;stroke-dasharray:none;stroke-opacity:1"
             id="path566" /></g><g
           id="g568"
           transform="translate(494.0049,315.0597)"><path
             d="M 0,0 C 0,4.105 3.356,7.427 7.475,7.369 11.389,7.314 14.685,4.019 14.74,0.104 14.797,-4.014 11.476,-7.37 7.37,-7.37 3.3,-7.37 0,-4.07 0,0 Z"
             style="fill:none;stroke:#ff0000;stroke-width:0.283;stroke-linecap:round;stroke-linejoin:round;stroke-miterlimit:10;stroke-dasharray:none;stroke-opacity:1"
             id="path570" /></g><g
           id="g572"
           transform="translate(515.855,302.7784)"><path
             d="M 0,0 C 1.13,0 1.833,1.275 1.181,2.199 0.738,2.827 0.347,3.561 0.076,4.409 -0.225,5.352 -0.31,6.224 -0.307,6.938 v 4.97 c 0,7.276 -5.33,13.659 -12.561,14.457 -8.549,0.944 -15.785,-5.725 -15.785,-14.084 V 6.945 C -28.654,6.219 -28.748,3.994 -30.342,1.857 -30.913,1.096 -30.37,0.011 -29.418,0.01 Z"
             style="fill:none;stroke:#ff0000;stroke-width:0.283;stroke-linecap:round;stroke-linejoin:round;stroke-miterlimit:10;stroke-dasharray:none;stroke-opacity:1"
             id="path574" /></g><g
           id="g576"
           transform="translate(535.5679,314.586)"><path
             d="M 0,0 C 0,4.105 3.356,7.427 7.475,7.369 11.389,7.315 14.685,4.02 14.739,0.105 14.797,-4.014 11.475,-7.37 7.37,-7.37 3.3,-7.37 0,-4.07 0,0 Z"
             style="fill:none;stroke:#ff0000;stroke-width:0.283;stroke-linecap:round;stroke-linejoin:round;stroke-miterlimit:10;stroke-dasharray:none;stroke-opacity:1"
             id="path578" /></g><g
           id="g580"
           transform="translate(557.4175,302.3058)"><path
             d="M 0,0 C 1.131,0 1.833,1.275 1.181,2.198 0.738,2.826 0.347,3.561 0.076,4.408 -0.225,5.352 -0.31,6.223 -0.306,6.937 v 4.971 c 0,7.276 -5.33,13.658 -12.562,14.456 -8.549,0.944 -15.785,-5.725 -15.785,-14.084 V 6.944 c 0,-0.726 -0.095,-2.95 -1.689,-5.088 -0.57,-0.76 -0.027,-1.846 0.924,-1.846 z"
             style="fill:none;stroke:#ff0000;stroke-width:0.283;stroke-linecap:round;stroke-linejoin:round;stroke-miterlimit:10;stroke-dasharray:none;stroke-opacity:1"
             id="path582" /></g><g
           id="g584"
           transform="translate(576.7379,313.6397)"><path
             d="M 0,0 C 0,4.105 3.356,7.427 7.475,7.369 11.389,7.315 14.685,4.02 14.739,0.105 14.797,-4.014 11.476,-7.37 7.37,-7.37 3.3,-7.37 0,-4.07 0,0 Z"
             style="fill:none;stroke:#ff0000;stroke-width:0.283;stroke-linecap:round;stroke-linejoin:round;stroke-miterlimit:10;stroke-dasharray:none;stroke-opacity:1"
             id="path586" /></g><g
           id="g588"
           transform="translate(598.5875,301.3595)"><path
             d="M 0,0 C 1.131,0 1.833,1.274 1.182,2.198 0.738,2.826 0.347,3.561 0.076,4.408 -0.225,5.351 -0.31,6.223 -0.307,6.937 v 4.971 c 0,7.276 -5.329,13.658 -12.561,14.456 -8.549,0.944 -15.784,-5.725 -15.784,-14.084 V 6.944 c -10e-4,-0.726 -0.095,-2.951 -1.69,-5.088 -0.57,-0.76 -0.027,-1.846 0.924,-1.846 z"
             style="fill:none;stroke:#ff0000;stroke-width:0.283;stroke-linecap:round;stroke-linejoin:round;stroke-miterlimit:10;stroke-dasharray:none;stroke-opacity:1"
             id="path590" /></g></g></g></g></svg>
