<?xml version="1.0" encoding="UTF-8" standalone="no"?>
<!-- Generator: Adobe Illustrator 26.0.2, SVG Export Plug-In . SVG Version: 6.00 Build 0)  -->

<svg
   version="1.1"
   x="0px"
   y="0px"
   viewBox="0 0 1889.7638 755.90547"
   xml:space="preserve"
   id="svg2217"
   sodipodi:docname="corne-mini-foam.svg"
   width="500mm"
   height="200mm"
   inkscape:version="1.3 (0e150ed, 2023-07-21)"
   xmlns:inkscape="http://www.inkscape.org/namespaces/inkscape"
   xmlns:sodipodi="http://sodipodi.sourceforge.net/DTD/sodipodi-0.dtd"
   xmlns="http://www.w3.org/2000/svg"
   xmlns:svg="http://www.w3.org/2000/svg"><defs
   id="defs2221" /><sodipodi:namedview
   id="namedview2219"
   pagecolor="#ffffff"
   bordercolor="#666666"
   borderopacity="1.0"
   inkscape:pageshadow="2"
   inkscape:pageopacity="0.0"
   inkscape:pagecheckerboard="0"
   showgrid="false"
   units="mm"
   width="500mm"
   inkscape:zoom="2.0000001"
   inkscape:cx="735.99998"
   inkscape:cy="450.49999"
   inkscape:window-width="3616"
   inkscape:window-height="1955"
   inkscape:window-x="104"
   inkscape:window-y="137"
   inkscape:window-maximized="0"
   inkscape:current-layer="layer2"
   inkscape:document-units="mm"
   inkscape:showpageshadow="2"
   inkscape:deskcolor="#d1d1d1"
   showguides="true" />&#10;<style
   type="text/css"
   id="style2">&#10;	.st0{fill:none;stroke:#0000FF;stroke-width:1.000000e-03;stroke-miterlimit:10;}&#10;	.st1{fill:none;stroke:#FF0000;stroke-width:3.000000e-03;stroke-linecap:round;stroke-linejoin:round;stroke-miterlimit:10;}&#10;	.st2{fill:none;stroke:#FF0000;stroke-width:3.000000e-03;stroke-miterlimit:11.339;}&#10;	.st3{display:none;}&#10;	.st4{display:inline;}&#10;	.st5{fill:#FF0000;}&#10;	.st6{fill:#0000FF;}&#10;	.st7{fill:#336699;}&#10;	.st8{fill:#00FFFF;}&#10;	.st9{fill:#00FF00;}&#10;	.st10{fill:none;stroke:#000000;stroke-miterlimit:10;}&#10;</style>&#10;&#10;&#10;&#10;&#10;&#10;&#10;<g
   inkscape:groupmode="layer"
   id="layer2"
   inkscape:label="CUT2"
   inkscape:highlight-color="#0000ff"
   style="display:inline"><path
     d="m 333.27692,28.227123 c 0.68748,0.21529 1.33246,0.57652 1.87608,1.03193 0.50836,0.42588 1.00772,0.9875 1.39052,1.72458 0.31466,0.60588 0.47049,1.19742 0.54457,1.66951 0.0889,0.56637 0.0822,1.0322 0.082,1.3517 l -1.9e-4,2.96891 65.95309,-0.001 c 0.4592,-10e-4 1.244,-0.018 2.1539,0.26697 0.6875,0.21529 1.3325,0.57651 1.8761,1.03193 0.5084,0.42588 1.0077,0.98749 1.3905,1.72458 0.3147,0.60587 0.4705,1.19741 0.5446,1.66951 0.089,0.56636 0.082,1.0322 0.082,1.35063 l -1e-4,2.95784 18.0284,-10e-4 c 2.0874,-10e-4 3.7796,1.69069 3.7796,3.77807 0,2.08737 1.6921,3.77952 3.7795,3.78146 h 24.5669 c 2.0874,-0.002 3.7795,-1.69409 3.7795,-3.78146 0,-2.08738 1.6922,-3.77953 3.7796,-3.77807 h 8.2992 c 0.4592,-10e-4 1.244,-0.018 2.1539,0.26697 0.6875,0.21529 1.3325,0.57651 1.8761,1.03193 0.5084,0.42588 1.0077,0.98749 1.3905,1.72458 0.3147,0.60587 0.4705,1.19741 0.5446,1.66951 0.089,0.56636 0.082,1.0322 0.082,1.35063 V 231.04472 c 0,2.08742 -1.6922,3.77957 -3.7795,3.77976 h -3.7796 c -2.0873,-1.9e-4 -3.7795,1.69196 -3.7795,3.77976 v 13.98212 c 0,2.08908 1.6921,3.78123 3.7795,3.77977 h 3.7796 c 2.0873,10e-4 3.7795,1.69361 3.7795,3.77976 v 15.69858 c 0,0.23805 0.01,0.70245 -0.1112,1.25508 -0.1169,0.55264 -0.3101,0.97499 -0.4065,1.19397 l -43.5362,98.33285 c -0.1859,0.42161 -0.4885,1.14587 -1.1174,1.86254 -0.4752,0.54147 -1.0666,0.985 -1.7031,1.29772 -0.5952,0.29243 -1.3109,0.52168 -2.1399,0.57332 -0.6814,0.0424 -1.2853,-0.0545 -1.747,-0.17792 -0.5539,-0.14801 -0.9771,-0.34272 -1.2703,-0.47493 l -64.6737,-28.63335 -141.361,-14.78056 c -0.43634,-0.0462 -1.31376,-0.12109 -2.25108,-0.59776 -0.43788,-0.22269 -1.02549,-0.61113 -1.54589,-1.20876 -0.41983,-0.48214 -0.66846,-0.93503 -0.82479,-1.21056 l -34.27121,-59.97236 -140.361984,-3e-5 c -3.33977,-3e-5 -6.04722,-2.70747 -6.04712,-6.04862 V 52.012563 c -1.1e-4,-3.34098 2.70733,-6.04843 6.04712,-6.04862 l 65.922984,-1.9e-4 -1.2e-4,-11.95116 c -1.2e-4,-0.46037 -0.0166,-1.24513 0.26831,-2.15505 0.21529,-0.68747 0.57652,-1.33246 1.03193,-1.87607 0.42589,-0.50837 0.9875,-1.00773 1.72458,-1.39053 0.60588,-0.31465 1.19742,-0.47049 1.66951,-0.54457 0.56637,-0.0889 1.0322,-0.0822 1.3528,-0.0824 l 65.95299,-2.1e-4 -1.2e-4,-2.9512 c -1.2e-4,-0.46041 -0.0166,-1.24517 0.26831,-2.15509 0.21529,-0.68748 0.57652,-1.33246 1.03193,-1.87607 0.42589,-0.50837 0.9875,-1.00773 1.72458,-1.39053 0.60588,-0.31465 1.19742,-0.47049 1.66951,-0.54457 0.56637,-0.0889 1.0322,-0.0822 1.3528,-0.0824 l 71.24404,1e-5 c 0.45927,1.9e-4 1.24403,-0.0163 2.15395,0.26862 0.68748,0.21528 1.33246,0.57651 1.87608,1.03193 0.50836,0.42588 1.00772,0.98749 1.39052,1.72458 0.31466,0.60587 0.47049,1.19741 0.54457,1.6695 0.0889,0.56637 0.0822,1.0322 0.082,1.35399 l -1.9e-4,2.9412 65.95305,0.002 c 0.45927,0.002 1.24403,-0.014 2.15395,0.2709 z"
     style="display:inline;fill:none;stroke:#0000ff;stroke-opacity:1;stroke-width:0.132283;stroke-dasharray:none"
     id="path264"
     sodipodi:nodetypes="sssscccsssscccccccccsssscccccccccccccsssscccssccccccccsssscccssssccsssscccs" /><path
     d="m 333.27692,387.28223 c 0.68748,0.21529 1.33246,0.57652 1.87608,1.03193 0.50836,0.42588 1.00772,0.9875 1.39052,1.72458 0.31466,0.60588 0.47049,1.19742 0.54457,1.66951 0.0889,0.56637 0.0822,1.0322 0.082,1.3517 l -1.9e-4,2.96891 65.95309,-0.001 c 0.4592,-10e-4 1.244,-0.018 2.1539,0.26697 0.6875,0.21529 1.3325,0.57651 1.8761,1.03193 0.5084,0.42588 1.0077,0.98749 1.3905,1.72458 0.3147,0.60587 0.4705,1.19741 0.5446,1.66951 0.089,0.56636 0.082,1.0322 0.082,1.35063 l -1e-4,2.95784 18.0284,-10e-4 c 2.0874,-0.001 3.7796,1.69069 3.7796,3.77807 0,2.08737 1.6921,3.77952 3.7795,3.78146 h 24.5669 c 2.0874,-0.002 3.7795,-1.69409 3.7795,-3.78146 0,-2.08738 1.6922,-3.77953 3.7796,-3.77807 h 8.2992 c 0.4592,-0.001 1.244,-0.018 2.1539,0.26697 0.6875,0.21529 1.3325,0.57651 1.8761,1.03193 0.5084,0.42588 1.0077,0.98749 1.3905,1.72458 0.3147,0.60587 0.4705,1.19741 0.5446,1.66951 0.089,0.56636 0.082,1.0322 0.082,1.35063 v 179.02789 c 0,2.08742 -1.6922,3.77957 -3.7795,3.77976 h -3.7796 c -2.0873,-1.9e-4 -3.7795,1.69196 -3.7795,3.77976 v 13.98212 c 0,2.08908 1.6921,3.78123 3.7795,3.77977 h 3.7796 c 2.0873,10e-4 3.7795,1.69361 3.7795,3.77976 v 15.69858 c 0,0.23805 0.01,0.70245 -0.1112,1.25508 -0.1169,0.55264 -0.3101,0.97499 -0.4065,1.19397 l -43.5362,98.33285 c -0.1859,0.42161 -0.4885,1.14587 -1.1174,1.86254 -0.4752,0.54147 -1.0666,0.985 -1.7031,1.29772 -0.5952,0.29243 -1.3109,0.52168 -2.1399,0.57332 -0.6814,0.0424 -1.2853,-0.0545 -1.747,-0.17792 -0.5539,-0.14801 -0.9771,-0.34272 -1.2703,-0.47493 l -64.6737,-28.63335 -141.361,-14.78056 c -0.43634,-0.0462 -1.31376,-0.12109 -2.25108,-0.59776 -0.43788,-0.22269 -1.02549,-0.61113 -1.54589,-1.20876 -0.41983,-0.48214 -0.66846,-0.93503 -0.82479,-1.21056 l -34.27121,-59.97236 -140.361984,-3e-5 c -3.33977,-3e-5 -6.04722,-2.70747 -6.04712,-6.04862 V 411.06767 c -1.1e-4,-3.34098 2.70733,-6.04843 6.04712,-6.04862 l 65.922984,-1.9e-4 -1.2e-4,-11.95116 c -1.2e-4,-0.46037 -0.0166,-1.24513 0.26831,-2.15505 0.21529,-0.68747 0.57652,-1.33246 1.03193,-1.87607 0.42589,-0.50837 0.9875,-1.00773 1.72458,-1.39053 0.60588,-0.31465 1.19742,-0.47049 1.66951,-0.54457 0.56637,-0.0889 1.0322,-0.0822 1.3528,-0.0824 l 65.95299,-2.1e-4 -1.2e-4,-2.9512 c -1.2e-4,-0.46041 -0.0166,-1.24517 0.26831,-2.15509 0.21529,-0.68748 0.57652,-1.33246 1.03193,-1.87607 0.42589,-0.50837 0.9875,-1.00773 1.72458,-1.39053 0.60588,-0.31465 1.19742,-0.47049 1.66951,-0.54457 0.56637,-0.0889 1.0322,-0.0822 1.3528,-0.0824 l 71.24404,1e-5 c 0.45927,1.9e-4 1.24403,-0.0163 2.15395,0.26862 0.68748,0.21528 1.33246,0.57651 1.87608,1.03193 0.50836,0.42588 1.00772,0.98749 1.39052,1.72458 0.31466,0.60587 0.47049,1.19741 0.54457,1.6695 0.0889,0.56637 0.0822,1.0322 0.082,1.35399 l -1.9e-4,2.9412 65.95305,0.002 c 0.45927,0.002 1.24403,-0.014 2.15395,0.2709 z"
     style="display:inline;fill:none;stroke:#0000ff;stroke-opacity:1;stroke-width:0.132283;stroke-dasharray:none"
     id="path264-2"
     sodipodi:nodetypes="sssscccsssscccccccccsssscccccccccccccsssscccssccccccccsssscccssssccsssscccs" /><path
     d="m 956.89894,28.227123 c 0.68748,0.21529 1.33246,0.57652 1.87608,1.03193 0.50836,0.42588 1.00772,0.9875 1.39052,1.72458 0.31466,0.60588 0.47049,1.19742 0.54457,1.66951 0.0889,0.56637 0.0822,1.0322 0.082,1.3517 l -1.9e-4,2.96891 65.95308,-0.001 c 0.4592,-10e-4 1.244,-0.018 2.1539,0.26697 0.6875,0.21529 1.3325,0.57651 1.8761,1.03193 0.5084,0.42588 1.0077,0.98749 1.3905,1.72458 0.3147,0.60587 0.4705,1.19741 0.5446,1.66951 0.089,0.56636 0.082,1.0322 0.082,1.35063 l -10e-5,2.95784 18.0284,-10e-4 c 2.0874,-10e-4 3.7796,1.69069 3.7796,3.77807 0,2.08737 1.6921,3.77952 3.7795,3.78146 h 24.5669 c 2.0874,-0.002 3.7795,-1.69409 3.7795,-3.78146 0,-2.08738 1.6922,-3.77953 3.7796,-3.77807 h 8.2992 c 0.4592,-10e-4 1.244,-0.018 2.1539,0.26697 0.6875,0.21529 1.3325,0.57651 1.8761,1.03193 0.5084,0.42588 1.0077,0.98749 1.3905,1.72458 0.3147,0.60587 0.4705,1.19741 0.5446,1.66951 0.089,0.56636 0.082,1.0322 0.082,1.35063 V 231.04472 c 0,2.08742 -1.6922,3.77957 -3.7795,3.77976 h -3.7796 c -2.0873,-1.9e-4 -3.7795,1.69196 -3.7795,3.77976 v 13.98212 c 0,2.08908 1.6921,3.78123 3.7795,3.77977 h 3.7796 c 2.0873,10e-4 3.7795,1.69361 3.7795,3.77976 v 15.69858 c 0,0.23805 0.01,0.70245 -0.1112,1.25508 -0.1169,0.55264 -0.3101,0.97499 -0.4065,1.19397 l -43.5362,98.33285 c -0.1859,0.42161 -0.4885,1.14587 -1.1174,1.86254 -0.4752,0.54147 -1.0666,0.985 -1.7031,1.29772 -0.5952,0.29243 -1.3109,0.52168 -2.1399,0.57332 -0.6814,0.0424 -1.2853,-0.0545 -1.747,-0.17792 -0.5539,-0.14801 -0.9771,-0.34272 -1.2703,-0.47493 l -64.67369,-28.63335 -141.361,-14.78056 c -0.43634,-0.0462 -1.31376,-0.12109 -2.25108,-0.59776 -0.43788,-0.22269 -1.02549,-0.61113 -1.54589,-1.20876 -0.41983,-0.48214 -0.66846,-0.93503 -0.82479,-1.21056 l -34.27121,-59.97236 -140.36198,-3e-5 c -3.33977,-3e-5 -6.04722,-2.70747 -6.04712,-6.04862 V 52.012563 c -1.1e-4,-3.34098 2.70733,-6.04843 6.04712,-6.04862 l 65.92298,-1.9e-4 -1.2e-4,-11.95116 c -1.2e-4,-0.46037 -0.0166,-1.24513 0.26831,-2.15505 0.21529,-0.68747 0.57652,-1.33246 1.03193,-1.87607 0.42589,-0.50837 0.9875,-1.00773 1.72458,-1.39053 0.60588,-0.31465 1.19742,-0.47049 1.66951,-0.54457 0.56637,-0.0889 1.0322,-0.0822 1.3528,-0.0824 l 65.95299,-2.1e-4 -1.2e-4,-2.9512 c -1.2e-4,-0.46041 -0.0166,-1.24517 0.26831,-2.15509 0.21529,-0.68748 0.57652,-1.33246 1.03193,-1.87607 0.42589,-0.50837 0.9875,-1.00773 1.72458,-1.39053 0.60588,-0.31465 1.19742,-0.47049 1.66951,-0.54457 0.56637,-0.0889 1.0322,-0.0822 1.3528,-0.0824 l 71.24404,1e-5 c 0.45927,1.9e-4 1.24403,-0.0163 2.15395,0.26862 0.68748,0.21528 1.33246,0.57651 1.87608,1.03193 0.50836,0.42588 1.00772,0.98749 1.39052,1.72458 0.31466,0.60587 0.47049,1.19741 0.54457,1.6695 0.0889,0.56637 0.0822,1.0322 0.082,1.35399 l -1.9e-4,2.9412 65.95305,0.002 c 0.45927,0.002 1.24403,-0.014 2.15395,0.2709 z"
     style="display:inline;fill:none;stroke:#0000ff;stroke-opacity:1;stroke-width:0.132283;stroke-dasharray:none"
     id="path264-3"
     sodipodi:nodetypes="sssscccsssscccccccccsssscccccccccccccsssscccssccccccccsssscccssssccsssscccs" /><path
     d="m 956.89894,387.28223 c 0.68748,0.21529 1.33246,0.57652 1.87608,1.03193 0.50836,0.42588 1.00772,0.9875 1.39052,1.72458 0.31466,0.60588 0.47049,1.19742 0.54457,1.66951 0.0889,0.56637 0.0822,1.0322 0.082,1.3517 l -1.9e-4,2.96891 65.95308,-0.001 c 0.4592,-10e-4 1.244,-0.018 2.1539,0.26697 0.6875,0.21529 1.3325,0.57651 1.8761,1.03193 0.5084,0.42588 1.0077,0.98749 1.3905,1.72458 0.3147,0.60587 0.4705,1.19741 0.5446,1.66951 0.089,0.56636 0.082,1.0322 0.082,1.35063 l -10e-5,2.95784 18.0284,-10e-4 c 2.0874,-0.001 3.7796,1.69069 3.7796,3.77807 0,2.08737 1.6921,3.77952 3.7795,3.78146 h 24.5669 c 2.0874,-0.002 3.7795,-1.69409 3.7795,-3.78146 0,-2.08738 1.6922,-3.77953 3.7796,-3.77807 h 8.2992 c 0.4592,-0.001 1.244,-0.018 2.1539,0.26697 0.6875,0.21529 1.3325,0.57651 1.8761,1.03193 0.5084,0.42588 1.0077,0.98749 1.3905,1.72458 0.3147,0.60587 0.4705,1.19741 0.5446,1.66951 0.089,0.56636 0.082,1.0322 0.082,1.35063 v 179.02789 c 0,2.08742 -1.6922,3.77957 -3.7795,3.77976 h -3.7796 c -2.0873,-1.9e-4 -3.7795,1.69196 -3.7795,3.77976 v 13.98212 c 0,2.08908 1.6921,3.78123 3.7795,3.77977 h 3.7796 c 2.0873,10e-4 3.7795,1.69361 3.7795,3.77976 v 15.69858 c 0,0.23805 0.01,0.70245 -0.1112,1.25508 -0.1169,0.55264 -0.3101,0.97499 -0.4065,1.19397 l -43.5362,98.33285 c -0.1859,0.42161 -0.4885,1.14587 -1.1174,1.86254 -0.4752,0.54147 -1.0666,0.985 -1.7031,1.29772 -0.5952,0.29243 -1.3109,0.52168 -2.1399,0.57332 -0.6814,0.0424 -1.2853,-0.0545 -1.747,-0.17792 -0.5539,-0.14801 -0.9771,-0.34272 -1.2703,-0.47493 l -64.67369,-28.63335 -141.361,-14.78056 c -0.43634,-0.0462 -1.31376,-0.12109 -2.25108,-0.59776 -0.43788,-0.22269 -1.02549,-0.61113 -1.54589,-1.20876 -0.41983,-0.48214 -0.66846,-0.93503 -0.82479,-1.21056 l -34.27121,-59.97236 -140.36198,-3e-5 c -3.33977,-3e-5 -6.04722,-2.70747 -6.04712,-6.04862 V 411.06767 c -1.1e-4,-3.34098 2.70733,-6.04843 6.04712,-6.04862 l 65.92298,-1.9e-4 -1.2e-4,-11.95116 c -1.2e-4,-0.46037 -0.0166,-1.24513 0.26831,-2.15505 0.21529,-0.68747 0.57652,-1.33246 1.03193,-1.87607 0.42589,-0.50837 0.9875,-1.00773 1.72458,-1.39053 0.60588,-0.31465 1.19742,-0.47049 1.66951,-0.54457 0.56637,-0.0889 1.0322,-0.0822 1.3528,-0.0824 l 65.95299,-2.1e-4 -1.2e-4,-2.9512 c -1.2e-4,-0.46041 -0.0166,-1.24517 0.26831,-2.15509 0.21529,-0.68748 0.57652,-1.33246 1.03193,-1.87607 0.42589,-0.50837 0.9875,-1.00773 1.72458,-1.39053 0.60588,-0.31465 1.19742,-0.47049 1.66951,-0.54457 0.56637,-0.0889 1.0322,-0.0822 1.3528,-0.0824 l 71.24404,1e-5 c 0.45927,1.9e-4 1.24403,-0.0163 2.15395,0.26862 0.68748,0.21528 1.33246,0.57651 1.87608,1.03193 0.50836,0.42588 1.00772,0.98749 1.39052,1.72458 0.31466,0.60587 0.47049,1.19741 0.54457,1.6695 0.0889,0.56637 0.0822,1.0322 0.082,1.35399 l -1.9e-4,2.9412 65.95305,0.002 c 0.45927,0.002 1.24403,-0.014 2.15395,0.2709 z"
     style="display:inline;fill:none;stroke:#0000ff;stroke-opacity:1;stroke-width:0.132283;stroke-dasharray:none"
     id="path264-2-8"
     sodipodi:nodetypes="sssscccsssscccccccccsssscccccccccccccsssscccssccccccccsssscccssssccsssscccs" /><path
     d="m 1618.3162,28.227123 c 0.6875,0.21529 1.3325,0.57652 1.8761,1.03193 0.5084,0.42588 1.0077,0.9875 1.3905,1.72458 0.3147,0.60588 0.4705,1.19742 0.5446,1.66951 0.089,0.56637 0.082,1.0322 0.082,1.3517 l -2e-4,2.96891 65.9531,-0.001 c 0.4592,-10e-4 1.244,-0.018 2.1539,0.26697 0.6875,0.21529 1.3325,0.57651 1.8761,1.03193 0.5084,0.42588 1.0077,0.98749 1.3905,1.72458 0.3147,0.60587 0.4705,1.19741 0.5446,1.66951 0.089,0.56636 0.082,1.0322 0.082,1.35063 l -10e-5,2.95784 18.0284,-10e-4 c 2.0874,-10e-4 3.7796,1.69069 3.7796,3.77807 0,2.08737 1.6921,3.77952 3.7795,3.78146 h 24.5669 c 2.0874,-0.002 3.7795,-1.69409 3.7795,-3.78146 0,-2.08738 1.6922,-3.77953 3.7796,-3.77807 h 8.2992 c 0.4592,-10e-4 1.244,-0.018 2.1539,0.26697 0.6875,0.21529 1.3325,0.57651 1.8761,1.03193 0.5084,0.42588 1.0077,0.98749 1.3905,1.72458 0.3147,0.60587 0.4705,1.19741 0.5446,1.66951 0.089,0.56636 0.082,1.0322 0.082,1.35063 V 231.04471 c 0,2.08743 -1.6922,3.77958 -3.7795,3.77977 h -3.7796 c -2.0873,-1.9e-4 -3.7795,1.69195 -3.7795,3.77976 v 13.98212 c 0,2.08908 1.6921,3.78123 3.7795,3.77977 h 3.7796 c 2.0873,10e-4 3.7795,1.69361 3.7795,3.77976 v 15.69858 c 0,0.23805 0.01,0.70245 -0.1112,1.25508 -0.1169,0.55264 -0.3101,0.97499 -0.4065,1.19397 l -43.5362,98.33285 c -0.1859,0.42161 -0.4885,1.14587 -1.1174,1.86254 -0.4752,0.54147 -1.0666,0.985 -1.7031,1.29772 -0.5952,0.29243 -1.3109,0.52168 -2.1399,0.57332 -0.6814,0.0424 -1.2853,-0.0545 -1.747,-0.17792 -0.5539,-0.14801 -0.9771,-0.34272 -1.2703,-0.47493 l -64.6737,-28.63335 -141.361,-14.78056 c -0.4363,-0.0462 -1.3138,-0.12109 -2.2511,-0.59776 -0.4379,-0.22269 -1.0255,-0.61113 -1.5459,-1.20876 -0.4198,-0.48214 -0.6684,-0.93503 -0.8248,-1.21056 l -34.2712,-59.97236 -140.362,-3e-5 c -3.3397,-3e-5 -6.0472,-2.70747 -6.0471,-6.04862 V 52.012563 c -10e-5,-3.34098 2.7073,-6.04843 6.0471,-6.04862 l 65.923,-1.9e-4 -10e-5,-11.95116 c -10e-5,-0.46037 -0.017,-1.24513 0.2683,-2.15505 0.2153,-0.68747 0.5765,-1.33246 1.0319,-1.87607 0.4259,-0.50837 0.9875,-1.00773 1.7246,-1.39053 0.6059,-0.31465 1.1974,-0.47049 1.6695,-0.54457 0.5664,-0.0889 1.0322,-0.0822 1.3528,-0.0824 l 65.953,-2.1e-4 -10e-5,-2.9512 c -10e-5,-0.46041 -0.017,-1.24517 0.2683,-2.15509 0.2153,-0.68748 0.5765,-1.33246 1.0319,-1.87607 0.4259,-0.50837 0.9875,-1.00773 1.7246,-1.39053 0.6059,-0.31465 1.1974,-0.47049 1.6695,-0.54457 0.5664,-0.0889 1.0322,-0.0822 1.3528,-0.0824 l 71.2441,1e-5 c 0.4592,1.9e-4 1.244,-0.0163 2.1539,0.26862 0.6875,0.21528 1.3325,0.57651 1.8761,1.03193 0.5084,0.42588 1.0077,0.98749 1.3905,1.72458 0.3147,0.60587 0.4705,1.19741 0.5446,1.6695 0.089,0.56637 0.082,1.0322 0.082,1.35399 l -2e-4,2.9412 65.9531,0.002 c 0.4592,0.002 1.244,-0.014 2.1539,0.2709 z"
     style="display:inline;fill:none;stroke:#0000ff;stroke-opacity:1;stroke-width:0.132283;stroke-dasharray:none"
     id="path264-7"
     sodipodi:nodetypes="sssscccsssscccccccccsssscccccccccccccsssscccssccccccccsssscccssssccsssscccs" /><path
     d="m 1618.3162,387.28223 c 0.6875,0.21529 1.3325,0.57652 1.8761,1.03193 0.5084,0.42588 1.0077,0.9875 1.3905,1.72458 0.3147,0.60588 0.4705,1.19742 0.5446,1.66951 0.089,0.56637 0.082,1.0322 0.082,1.3517 l -2e-4,2.96891 65.9531,-0.001 c 0.4592,-10e-4 1.244,-0.018 2.1539,0.26697 0.6875,0.21529 1.3325,0.57651 1.8761,1.03193 0.5084,0.42588 1.0077,0.98749 1.3905,1.72458 0.3147,0.60587 0.4705,1.19741 0.5446,1.66951 0.089,0.56636 0.082,1.0322 0.082,1.35063 l -10e-5,2.95784 18.0284,-10e-4 c 2.0874,-0.001 3.7796,1.69069 3.7796,3.77807 0,2.08737 1.6921,3.77952 3.7795,3.78146 h 24.5669 c 2.0874,-0.002 3.7795,-1.69409 3.7795,-3.78146 0,-2.08738 1.6922,-3.77953 3.7796,-3.77807 h 8.2992 c 0.4592,-0.001 1.244,-0.018 2.1539,0.26697 0.6875,0.21529 1.3325,0.57651 1.8761,1.03193 0.5084,0.42588 1.0077,0.98749 1.3905,1.72458 0.3147,0.60587 0.4705,1.19741 0.5446,1.66951 0.089,0.56636 0.082,1.0322 0.082,1.35063 v 179.02789 c 0,2.08742 -1.6922,3.77957 -3.7795,3.77976 h -3.7796 c -2.0873,-1.9e-4 -3.7795,1.69196 -3.7795,3.77976 v 13.98212 c 0,2.08908 1.6921,3.78123 3.7795,3.77977 h 3.7796 c 2.0873,10e-4 3.7795,1.69361 3.7795,3.77976 v 15.69858 c 0,0.23805 0.01,0.70245 -0.1112,1.25508 -0.1169,0.55264 -0.3101,0.97499 -0.4065,1.19397 l -43.5362,98.33285 c -0.1859,0.42161 -0.4885,1.14587 -1.1174,1.86254 -0.4752,0.54147 -1.0666,0.985 -1.7031,1.29772 -0.5952,0.29243 -1.3109,0.52168 -2.1399,0.57332 -0.6814,0.0424 -1.2853,-0.0545 -1.747,-0.17792 -0.5539,-0.14801 -0.9771,-0.34272 -1.2703,-0.47493 l -64.6737,-28.63335 -141.361,-14.78056 c -0.4363,-0.0462 -1.3138,-0.12109 -2.2511,-0.59776 -0.4379,-0.22269 -1.0255,-0.61113 -1.5459,-1.20876 -0.4198,-0.48214 -0.6684,-0.93503 -0.8248,-1.21056 l -34.2712,-59.97236 -140.362,-3e-5 c -3.3397,-3e-5 -6.0472,-2.70747 -6.0471,-6.04862 V 411.06767 c -10e-5,-3.34098 2.7073,-6.04843 6.0471,-6.04862 l 65.923,-1.9e-4 -10e-5,-11.95116 c -10e-5,-0.46038 -0.017,-1.24514 0.2683,-2.15506 0.2153,-0.68747 0.5765,-1.33246 1.0319,-1.87607 0.4259,-0.50837 0.9875,-1.00773 1.7246,-1.39053 0.6059,-0.31465 1.1974,-0.47049 1.6695,-0.54457 0.5664,-0.0889 1.0322,-0.0822 1.3528,-0.0824 l 65.953,-2.1e-4 -10e-5,-2.9512 c -10e-5,-0.46041 -0.017,-1.24517 0.2683,-2.15509 0.2153,-0.68748 0.5765,-1.33246 1.0319,-1.87607 0.4259,-0.50837 0.9875,-1.00773 1.7246,-1.39053 0.6059,-0.31465 1.1974,-0.47049 1.6695,-0.54457 0.5664,-0.0889 1.0322,-0.0822 1.3528,-0.0824 l 71.2441,10e-6 c 0.4592,1.9e-4 1.244,-0.0163 2.1539,0.26862 0.6875,0.21528 1.3325,0.57651 1.8761,1.03193 0.5084,0.42588 1.0077,0.98749 1.3905,1.72458 0.3147,0.60587 0.4705,1.19741 0.5446,1.6695 0.089,0.56637 0.082,1.0322 0.082,1.35399 l -2e-4,2.9412 65.9531,0.002 c 0.4592,0.002 1.244,-0.014 2.1539,0.2709 z"
     style="display:inline;fill:none;stroke:#0000ff;stroke-opacity:1;stroke-width:0.132283;stroke-dasharray:none"
     id="path264-2-5"
     sodipodi:nodetypes="sssscccsssscccccccccsssscccccccccccccsssscccssccccccccsssscccssssccsssscccs" /></g>&#10;&#10;<g
   inkscape:groupmode="layer"
   id="layer1"
   inkscape:label="CUT1"
   style="display:inline;fill:none;stroke:#ff0000;stroke-opacity:1"
   inkscape:highlight-color="#ff0000"><path
     d="m 52.099396,63.443923 c -1.04368,0 -1.88976,0.84608 -1.88976,1.88976 v 44.598427 c 0,1.04368 0.84608,1.88976 1.88976,1.88976 h 54.803154 c 1.04368,0 1.88976,-0.84608 1.88976,-1.88976 V 65.333683 c 0,-1.04368 -0.84608,-1.88976 -1.88976,-1.88976 z"
     style="display:inline;fill:none;stroke:#ff0000;stroke-width:0.132283;stroke-dasharray:none;stroke-opacity:1"
     id="path224"
     sodipodi:nodetypes="sssssssss" /><path
     d="m 124.0994,45.444513 c -1.04369,0 -1.88976,0.84608 -1.88976,1.88977 v 44.59842 c 0,1.04368 0.84608,1.88976 1.88976,1.88976 h 54.80315 c 1.04368,0 1.88976,-0.84608 1.88976,-1.88976 v -44.59842 c 0,-1.04369 -0.84607,-1.88977 -1.88976,-1.88977 z"
     style="display:inline;fill:none;stroke:#ff0000;stroke-width:0.132283;stroke-dasharray:none;stroke-opacity:1"
     id="path226"
     sodipodi:nodetypes="scsssscss" /><path
     d="m 52.159446,135.44542 c -1.04368,0 -1.88976,0.84608 -1.88976,1.88976 v 44.59843 c 0,1.04368 0.84608,1.88976 1.88976,1.88976 H 106.9626 c 1.04369,0 1.88977,-0.84607 1.88977,-1.88976 v -44.59843 c 0,-1.04369 -0.84608,-1.88976 -1.88977,-1.88976 z"
     style="display:inline;fill:none;stroke:#ff0000;stroke-width:0.132283;stroke-dasharray:none;stroke-opacity:1"
     id="path227"
     sodipodi:nodetypes="sssscsscs" /><path
     d="M 106.9626,255.82338 H 52.159446 c -1.04368,0 -1.88976,-0.84608 -1.88976,-1.88976 v -44.59843 c 0,-1.04368 0.84608,-1.88976 1.88976,-1.88976 H 106.9626 c 1.04369,0 1.88977,0.84607 1.88977,1.88976 v 44.59843 c 0,1.04369 -0.84608,1.88976 -1.88977,1.88976 z"
     style="display:inline;fill:none;stroke:#ff0000;stroke-width:0.132283;stroke-dasharray:none;stroke-opacity:1"
     id="path228"
     sodipodi:nodetypes="csssscssc" /><path
     d="m 196.0994,36.444433 c -1.04368,0 -1.88976,0.84608 -1.88976,1.88976 v 44.59843 c 0,1.04368 0.84608,1.88976 1.88976,1.88976 h 54.80315 c 1.04368,0 1.88976,-0.84608 1.88976,-1.88976 v -44.59843 c 0,-1.04368 -0.84608,-1.88976 -1.88976,-1.88976 z"
     style="display:inline;fill:none;stroke:#ff0000;stroke-width:0.132283;stroke-dasharray:none;stroke-opacity:1"
     id="path229"
     sodipodi:nodetypes="sssssssss" /><path
     d="m 124.15946,117.44541 c -1.04369,0 -1.88976,0.84608 -1.88976,1.88977 v 44.59842 c 0,1.04369 0.84607,1.88977 1.88976,1.88977 h 54.80315 c 1.04369,0 1.88977,-0.84608 1.88977,-1.88977 v -44.59842 c 0,-1.04369 -0.84608,-1.88977 -1.88977,-1.88977 z"
     style="display:inline;fill:none;stroke:#ff0000;stroke-width:0.132283;stroke-dasharray:none;stroke-opacity:1"
     id="path230"
     sodipodi:nodetypes="sccscsccs" /><path
     d="m 178.96261,237.82337 h -54.80315 c -1.04369,0 -1.88977,-0.84607 -1.88977,-1.88976 v -44.59843 c 0,-1.04369 0.84608,-1.88976 1.88977,-1.88976 h 54.80315 c 1.04368,0 1.88976,0.84608 1.88976,1.88976 v 44.59843 c 0,1.04368 -0.84608,1.88976 -1.88976,1.88976 z"
     style="display:inline;fill:none;stroke:#ff0000;stroke-width:0.132283;stroke-dasharray:none;stroke-opacity:1"
     id="path231"
     sodipodi:nodetypes="scsscssss" /><path
     d="m 252.85238,110.33518 v 44.59842 c 0,1.04369 -0.84608,1.88977 -1.88977,1.88977 h -54.80315 c -1.04369,0 -1.88976,-0.84608 -1.88976,-1.88977 v -44.59842 c 0,-1.04369 0.84607,-1.88977 1.88976,-1.88977 h 54.80315 c 1.04369,0 1.88977,0.84608 1.88977,1.88977 z"
     style="display:inline;fill:none;stroke:#ff0000;stroke-width:0.132283;stroke-dasharray:none;stroke-opacity:1"
     id="path232"
     sodipodi:nodetypes="sscsscscs" /><path
     d="m 268.14902,117.42471 c -1.04369,0 -1.88977,0.84608 -1.88977,1.88977 v 44.59842 c 0,1.04369 0.84608,1.88977 1.88977,1.88977 h 54.80315 c 1.04369,0 1.88976,-0.84608 1.88976,-1.88977 v -44.59842 c 0,-1.04369 -0.84607,-1.88977 -1.88976,-1.88977 z"
     style="display:inline;fill:none;stroke:#ff0000;stroke-width:0.132283;stroke-dasharray:none;stroke-opacity:1"
     id="path233"
     sodipodi:nodetypes="csscssssc" /><path
     d="m 396.79229,200.33472 v 44.59842 c 0,1.04369 -0.8461,1.88977 -1.8897,1.88977 H 340.0994 c -1.04369,0 -1.88976,-0.84608 -1.88976,-1.88977 v -44.59842 c 0,-1.04369 0.84607,-1.88977 1.88976,-1.88977 h 54.80319 c 1.0436,0 1.8897,0.84608 1.8897,1.88977 z"
     style="display:inline;fill:none;stroke:#ff0000;stroke-width:0.132283;stroke-dasharray:none;stroke-opacity:1"
     id="path234"
     sodipodi:nodetypes="sssssssss" /><path
     d="m 194.2697,226.9336 v -44.59842 c 0,-1.04369 0.84607,-1.88977 1.88976,-1.88977 h 54.80315 c 1.04369,0 1.88977,0.84608 1.88977,1.88977 v 44.59842 c 0,1.04369 -0.84608,1.88977 -1.88977,1.88977 h -54.80315 c -1.04369,0 -1.88976,-0.84608 -1.88976,-1.88977 z"
     style="display:inline;fill:none;stroke:#ff0000;stroke-width:0.132283;stroke-dasharray:none;stroke-opacity:1"
     id="path235"
     sodipodi:nodetypes="ssscsscss" /><path
     d="m 266.20964,91.927203 v -44.59843 c 0,-1.04368 0.84608,-1.88976 1.88976,-1.88976 h 54.80315 c 1.04368,0 1.88976,0.84608 1.88976,1.88976 v 44.59843 c 0,1.04368 -0.84608,1.88976 -1.88976,1.88976 H 268.0994 c -1.04368,0 -1.88976,-0.84608 -1.88976,-1.88976 z"
     style="display:inline;fill:none;stroke:#ff0000;stroke-width:0.132283;stroke-dasharray:none;stroke-opacity:1"
     id="path236"
     sodipodi:nodetypes="sssssssss" /><path
     d="m 340.15549,126.44738 h 54.8032 c 1.0436,0 1.8897,0.84607 1.8897,1.88976 v 44.59843 c 0,1.04369 -0.8461,1.88976 -1.8897,1.88976 h -54.8032 c -1.04368,0 -1.88976,-0.84608 -1.88976,-1.88976 v -44.59843 c 0,-1.04368 0.84608,-1.88976 1.88976,-1.88976 z"
     style="display:inline;fill:none;stroke:#ff0000;stroke-width:0.132283;stroke-dasharray:none;stroke-opacity:1"
     id="path237"
     sodipodi:nodetypes="scsscssss" /><path
     d="M 394.90259,102.8291 H 340.0994 c -1.04369,0 -1.88976,-0.84608 -1.88976,-1.88977 V 56.340913 c 0,-1.04369 0.84607,-1.88977 1.88976,-1.88977 h 54.80319 c 1.0437,0 1.8897,0.84608 1.8897,1.88977 v 44.598417 c 0,1.04369 -0.846,1.88977 -1.8897,1.88977 z"
     style="display:inline;fill:none;stroke:#ff0000;stroke-width:0.132283;stroke-dasharray:none;stroke-opacity:1"
     id="path238"
     sodipodi:nodetypes="sssssssss" /><path
     d="m 266.26947,235.93359 c 0,1.04369 0.84607,1.88977 1.88976,1.88977 h 54.80315 c 1.04369,0 1.88977,-0.84608 1.88977,-1.88977 v -44.59842 c 0,-1.04369 -0.84608,-1.88976 -1.88977,-1.88976 h -54.80315 c -1.04368,0 -1.88976,0.84608 -1.88976,1.88976 z"
     style="display:inline;fill:none;stroke:#ff0000;stroke-width:0.132283;stroke-dasharray:none;stroke-opacity:1"
     id="path239"
     sodipodi:nodetypes="sscsscsss" /><path
     d="m 410.26969,208.9336 c 0,1.04369 0.8461,1.88977 1.8898,1.88977 h 54.8031 c 1.0437,0 1.8898,-0.84608 1.8898,-1.88977 v -44.59842 c 0,-1.04369 -0.8461,-1.88977 -1.8898,-1.88977 h -54.8031 c -1.0437,0 -1.8898,0.84608 -1.8898,1.88977 z"
     style="display:inline;fill:none;stroke:#ff0000;stroke-width:0.132283;stroke-dasharray:none;stroke-opacity:1"
     id="path240"
     sodipodi:nodetypes="sssssssss" /><path
     d="m 410.26969,136.9336 c 0,1.04369 0.8461,1.88977 1.8898,1.88977 h 54.8031 c 1.0437,0 1.8898,-0.84608 1.8898,-1.88977 V 92.335183 c 0,-1.04369 -0.8461,-1.88977 -1.8898,-1.88977 h -54.8031 c -1.0437,0 -1.8898,0.84608 -1.8898,1.88977 z"
     style="display:inline;fill:none;stroke:#ff0000;stroke-width:0.132283;stroke-dasharray:none;stroke-opacity:1"
     id="path241"
     sodipodi:nodetypes="sscsscsss" /><path
     d="m 230.26947,316.93314 v -44.59842 c 0,-1.04369 0.84607,-1.88977 1.88976,-1.88977 h 54.80315 c 1.04369,0 1.88977,0.84608 1.88977,1.88977 v 44.59842 c 0,1.04369 -0.84608,1.88977 -1.88977,1.88977 h -54.80315 c -1.04369,0 -1.88976,-0.84608 -1.88976,-1.88977 z"
     style="display:inline;fill:none;stroke:#ff0000;stroke-width:0.132283;stroke-dasharray:none;stroke-opacity:1"
     id="path242"
     sodipodi:nodetypes="ssscsssss" /><path
     d="m 316.42559,273.52614 53.6175,11.33807 c 1.0211,0.21593 1.6738,1.21874 1.4579,2.23985 l -9.2269,43.63353 c -0.2159,1.0211 -1.2187,1.67383 -2.2398,1.45791 L 306.4168,320.85742 c -1.0211,-0.21593 -1.67383,-1.21873 -1.45791,-2.23984 l 9.22685,-43.63353 c 0.21593,-1.02111 1.21874,-1.67384 2.23985,-1.45791 z"
     style="display:inline;fill:none;stroke:#ff0000;stroke-width:0.132283;stroke-dasharray:none;stroke-opacity:1"
     id="path243"
     sodipodi:nodetypes="sssscssss" /><path
     d="m 429.31449,346.5377 c 0.9543,0.42251 2.0705,-0.009 2.493,-0.96297 l 22.1855,-50.11175 c 0.4225,-0.95434 -0.01,-2.0705 -0.9629,-2.49301 l -40.7806,-18.05444 c -0.9544,-0.42251 -2.0706,0.009 -2.4931,0.96297 l -22.1855,50.11175 c -0.4225,0.95434 0.01,2.0705 0.963,2.49301 z"
     style="display:inline;fill:none;stroke:#ff0000;stroke-width:0.132283;stroke-dasharray:none;stroke-opacity:1"
     id="path244"
     sodipodi:nodetypes="sssssssss" /><path
     d="m 339.27381,110.1269 c -0.003,-4.27724 -3.47079,-7.74321 -7.74803,-7.74321 -4.27724,0 -7.74537,3.46597 -7.74803,7.74321 0.003,4.27724 3.47079,7.74321 7.74803,7.74321 4.27724,0 7.74537,-3.46597 7.74803,-7.74321 z"
     style="display:inline;fill:none;stroke:#ff0000;stroke-width:0.132283;stroke-dasharray:none;stroke-opacity:1"
     id="path272"
     sodipodi:nodetypes="cscsc" /><path
     d="m 339.24901,258.63393 c 0,-4.27912 -3.46891,-7.74803 -7.74804,-7.74803 -4.27912,0 -7.74803,3.46891 -7.74803,7.74803 0,4.27912 3.46891,7.74803 7.74803,7.74803 4.27913,0 7.74804,-3.46891 7.74804,-7.74803 z"
     style="display:inline;fill:none;stroke:#ff0000;stroke-width:0.132283;stroke-dasharray:none;stroke-opacity:1"
     id="path273"
     sodipodi:nodetypes="sssss" /><path
     d="m 116.10907,123.63439 c -0.003,-4.27724 -3.47079,-7.74321 -7.74803,-7.74321 -4.27724,0 -7.74537,3.46597 -7.74803,7.74321 0.003,4.27724 3.47079,7.74321 7.74803,7.74321 4.27724,0 7.74537,-3.46597 7.74803,-7.74321 z"
     style="display:inline;fill:none;stroke:#ff0000;stroke-width:0.132283;stroke-dasharray:none;stroke-opacity:1"
     id="path293"
     sodipodi:nodetypes="cscsc" /><path
     d="m 116.10907,195.63439 c -0.003,-4.27724 -3.47079,-7.74321 -7.74803,-7.74321 -4.27724,0 -7.74537,3.46597 -7.74803,7.74321 0.003,4.27724 3.47079,7.74321 7.74803,7.74321 4.27724,0 7.74537,-3.46597 7.74803,-7.74321 z"
     style="display:inline;fill:none;stroke:#ff0000;stroke-width:0.132283;stroke-dasharray:none;stroke-opacity:1"
     id="path295"
     sodipodi:nodetypes="cscsc" /><path
     d="m 52.099396,422.49903 c -1.04368,0 -1.88976,0.84608 -1.88976,1.88976 v 44.59843 c 0,1.04368 0.84608,1.88976 1.88976,1.88976 h 54.803154 c 1.04368,0 1.88976,-0.84608 1.88976,-1.88976 v -44.59843 c 0,-1.04368 -0.84608,-1.88976 -1.88976,-1.88976 z"
     style="display:inline;fill:none;stroke:#ff0000;stroke-width:0.132283;stroke-dasharray:none;stroke-opacity:1"
     id="path224-4"
     sodipodi:nodetypes="sssssssss" /><path
     d="m 124.0994,404.49962 c -1.04369,0 -1.88976,0.84608 -1.88976,1.88977 v 44.59842 c 0,1.04368 0.84608,1.88976 1.88976,1.88976 h 54.80315 c 1.04368,0 1.88976,-0.84608 1.88976,-1.88976 v -44.59842 c 0,-1.04369 -0.84607,-1.88977 -1.88976,-1.88977 z"
     style="display:inline;fill:none;stroke:#ff0000;stroke-width:0.132283;stroke-dasharray:none;stroke-opacity:1"
     id="path226-8"
     sodipodi:nodetypes="scsssscss" /><path
     d="m 52.159446,494.50053 c -1.04368,0 -1.88976,0.84608 -1.88976,1.88976 v 44.59843 c 0,1.04368 0.84608,1.88976 1.88976,1.88976 H 106.9626 c 1.04369,0 1.88977,-0.84607 1.88977,-1.88976 v -44.59843 c 0,-1.04369 -0.84608,-1.88976 -1.88977,-1.88976 z"
     style="display:inline;fill:none;stroke:#ff0000;stroke-width:0.132283;stroke-dasharray:none;stroke-opacity:1"
     id="path227-3"
     sodipodi:nodetypes="sssscsscs" /><path
     d="M 106.9626,614.87849 H 52.159446 c -1.04368,0 -1.88976,-0.84608 -1.88976,-1.88976 V 568.3903 c 0,-1.04368 0.84608,-1.88976 1.88976,-1.88976 H 106.9626 c 1.04369,0 1.88977,0.84607 1.88977,1.88976 v 44.59843 c 0,1.04369 -0.84608,1.88976 -1.88977,1.88976 z"
     style="display:inline;fill:none;stroke:#ff0000;stroke-width:0.132283;stroke-dasharray:none;stroke-opacity:1"
     id="path228-9"
     sodipodi:nodetypes="csssscssc" /><path
     d="m 196.0994,395.49954 c -1.04368,0 -1.88976,0.84608 -1.88976,1.88976 v 44.59843 c 0,1.04368 0.84608,1.88976 1.88976,1.88976 h 54.80315 c 1.04368,0 1.88976,-0.84608 1.88976,-1.88976 V 397.3893 c 0,-1.04368 -0.84608,-1.88976 -1.88976,-1.88976 z"
     style="display:inline;fill:none;stroke:#ff0000;stroke-width:0.132283;stroke-dasharray:none;stroke-opacity:1"
     id="path229-0"
     sodipodi:nodetypes="sssssssss" /><path
     d="m 124.15946,476.50052 c -1.04369,0 -1.88976,0.84608 -1.88976,1.88977 v 44.59842 c 0,1.04369 0.84607,1.88977 1.88976,1.88977 h 54.80315 c 1.04369,0 1.88977,-0.84608 1.88977,-1.88977 v -44.59842 c 0,-1.04369 -0.84608,-1.88977 -1.88977,-1.88977 z"
     style="display:inline;fill:none;stroke:#ff0000;stroke-width:0.132283;stroke-dasharray:none;stroke-opacity:1"
     id="path230-5"
     sodipodi:nodetypes="sccscsccs" /><path
     d="m 178.96261,596.87848 h -54.80315 c -1.04369,0 -1.88977,-0.84607 -1.88977,-1.88976 v -44.59843 c 0,-1.04369 0.84608,-1.88976 1.88977,-1.88976 h 54.80315 c 1.04368,0 1.88976,0.84608 1.88976,1.88976 v 44.59843 c 0,1.04368 -0.84608,1.88976 -1.88976,1.88976 z"
     style="display:inline;fill:none;stroke:#ff0000;stroke-width:0.132283;stroke-dasharray:none;stroke-opacity:1"
     id="path231-2"
     sodipodi:nodetypes="scsscssss" /><path
     d="m 252.85238,469.39029 v 44.59842 c 0,1.04369 -0.84608,1.88977 -1.88977,1.88977 h -54.80315 c -1.04369,0 -1.88976,-0.84608 -1.88976,-1.88977 v -44.59842 c 0,-1.04369 0.84607,-1.88977 1.88976,-1.88977 h 54.80315 c 1.04369,0 1.88977,0.84608 1.88977,1.88977 z"
     style="display:inline;fill:none;stroke:#ff0000;stroke-width:0.132283;stroke-dasharray:none;stroke-opacity:1"
     id="path232-2"
     sodipodi:nodetypes="sscsscscs" /><path
     d="m 268.14902,476.47982 c -1.04369,0 -1.88977,0.84608 -1.88977,1.88977 v 44.59842 c 0,1.04369 0.84608,1.88977 1.88977,1.88977 h 54.80315 c 1.04369,0 1.88976,-0.84608 1.88976,-1.88977 v -44.59842 c 0,-1.04369 -0.84607,-1.88977 -1.88976,-1.88977 z"
     style="display:inline;fill:none;stroke:#ff0000;stroke-width:0.132283;stroke-dasharray:none;stroke-opacity:1"
     id="path233-7"
     sodipodi:nodetypes="csscssssc" /><path
     d="m 396.79229,559.38983 v 44.59842 c 0,1.04369 -0.8461,1.88977 -1.8897,1.88977 H 340.0994 c -1.04369,0 -1.88976,-0.84608 -1.88976,-1.88977 v -44.59842 c 0,-1.04369 0.84607,-1.88977 1.88976,-1.88977 h 54.80319 c 1.0436,0 1.8897,0.84608 1.8897,1.88977 z"
     style="display:inline;fill:none;stroke:#ff0000;stroke-width:0.132283;stroke-dasharray:none;stroke-opacity:1"
     id="path234-3"
     sodipodi:nodetypes="sssssssss" /><path
     d="m 194.2697,585.98871 v -44.59842 c 0,-1.04369 0.84607,-1.88977 1.88976,-1.88977 h 54.80315 c 1.04369,0 1.88977,0.84608 1.88977,1.88977 v 44.59842 c 0,1.04369 -0.84608,1.88977 -1.88977,1.88977 h -54.80315 c -1.04369,0 -1.88976,-0.84608 -1.88976,-1.88977 z"
     style="display:inline;fill:none;stroke:#ff0000;stroke-width:0.132283;stroke-dasharray:none;stroke-opacity:1"
     id="path235-7"
     sodipodi:nodetypes="ssscsscss" /><path
     d="m 266.20964,450.98231 v -44.59843 c 0,-1.04368 0.84608,-1.88976 1.88976,-1.88976 h 54.80315 c 1.04368,0 1.88976,0.84608 1.88976,1.88976 v 44.59843 c 0,1.04368 -0.84608,1.88976 -1.88976,1.88976 H 268.0994 c -1.04368,0 -1.88976,-0.84608 -1.88976,-1.88976 z"
     style="display:inline;fill:none;stroke:#ff0000;stroke-width:0.132283;stroke-dasharray:none;stroke-opacity:1"
     id="path236-9"
     sodipodi:nodetypes="sssssssss" /><path
     d="m 340.15549,485.50249 h 54.8032 c 1.0436,0 1.8897,0.84607 1.8897,1.88976 v 44.59843 c 0,1.04369 -0.8461,1.88976 -1.8897,1.88976 h -54.8032 c -1.04368,0 -1.88976,-0.84608 -1.88976,-1.88976 v -44.59843 c 0,-1.04368 0.84608,-1.88976 1.88976,-1.88976 z"
     style="display:inline;fill:none;stroke:#ff0000;stroke-width:0.132283;stroke-dasharray:none;stroke-opacity:1"
     id="path237-0"
     sodipodi:nodetypes="scsscssss" /><path
     d="M 394.90259,461.88421 H 340.0994 c -1.04369,0 -1.88976,-0.84608 -1.88976,-1.88977 v -44.59842 c 0,-1.04369 0.84607,-1.88977 1.88976,-1.88977 h 54.80319 c 1.0437,0 1.8897,0.84608 1.8897,1.88977 v 44.59842 c 0,1.04369 -0.846,1.88977 -1.8897,1.88977 z"
     style="display:inline;fill:none;stroke:#ff0000;stroke-width:0.132283;stroke-dasharray:none;stroke-opacity:1"
     id="path238-2"
     sodipodi:nodetypes="sssssssss" /><path
     d="m 266.26947,594.9887 c 0,1.04369 0.84607,1.88977 1.88976,1.88977 h 54.80315 c 1.04369,0 1.88977,-0.84608 1.88977,-1.88977 v -44.59842 c 0,-1.04369 -0.84608,-1.88976 -1.88977,-1.88976 h -54.80315 c -1.04368,0 -1.88976,0.84608 -1.88976,1.88976 z"
     style="display:inline;fill:none;stroke:#ff0000;stroke-width:0.132283;stroke-dasharray:none;stroke-opacity:1"
     id="path239-3"
     sodipodi:nodetypes="sscsscsss" /><path
     d="m 410.26969,567.98871 c 0,1.04369 0.8461,1.88977 1.8898,1.88977 h 54.8031 c 1.0437,0 1.8898,-0.84608 1.8898,-1.88977 v -44.59842 c 0,-1.04369 -0.8461,-1.88977 -1.8898,-1.88977 h -54.8031 c -1.0437,0 -1.8898,0.84608 -1.8898,1.88977 z"
     style="display:inline;fill:none;stroke:#ff0000;stroke-width:0.132283;stroke-dasharray:none;stroke-opacity:1"
     id="path240-9"
     sodipodi:nodetypes="sssssssss" /><path
     d="m 410.26969,495.98871 c 0,1.04369 0.8461,1.88977 1.8898,1.88977 h 54.8031 c 1.0437,0 1.8898,-0.84608 1.8898,-1.88977 v -44.59842 c 0,-1.04369 -0.8461,-1.88977 -1.8898,-1.88977 h -54.8031 c -1.0437,0 -1.8898,0.84608 -1.8898,1.88977 z"
     style="display:inline;fill:none;stroke:#ff0000;stroke-width:0.132283;stroke-dasharray:none;stroke-opacity:1"
     id="path241-9"
     sodipodi:nodetypes="sscsscsss" /><path
     d="m 230.26947,675.98825 v -44.59842 c 0,-1.04369 0.84607,-1.88977 1.88976,-1.88977 h 54.80315 c 1.04369,0 1.88977,0.84608 1.88977,1.88977 v 44.59842 c 0,1.04369 -0.84608,1.88977 -1.88977,1.88977 h -54.80315 c -1.04369,0 -1.88976,-0.84608 -1.88976,-1.88977 z"
     style="display:inline;fill:none;stroke:#ff0000;stroke-width:0.132283;stroke-dasharray:none;stroke-opacity:1"
     id="path242-7"
     sodipodi:nodetypes="ssscsssss" /><path
     d="m 316.42559,632.58125 53.6175,11.33807 c 1.0211,0.21593 1.6738,1.21874 1.4579,2.23985 l -9.2269,43.63353 c -0.2159,1.0211 -1.2187,1.67383 -2.2398,1.45791 L 306.4168,679.91253 c -1.0211,-0.21593 -1.67383,-1.21873 -1.45791,-2.23984 l 9.22685,-43.63353 c 0.21593,-1.02111 1.21874,-1.67384 2.23985,-1.45791 z"
     style="display:inline;fill:none;stroke:#ff0000;stroke-width:0.132283;stroke-dasharray:none;stroke-opacity:1"
     id="path243-0"
     sodipodi:nodetypes="sssscssss" /><path
     d="m 429.31449,705.59281 c 0.9543,0.42251 2.0705,-0.009 2.493,-0.96297 l 22.1855,-50.11175 c 0.4225,-0.95434 -0.01,-2.0705 -0.9629,-2.49301 l -40.7806,-18.05444 c -0.9544,-0.42251 -2.0706,0.009 -2.4931,0.96297 l -22.1855,50.11175 c -0.4225,0.95434 0.01,2.0705 0.963,2.49301 z"
     style="display:inline;fill:none;stroke:#ff0000;stroke-width:0.132283;stroke-dasharray:none;stroke-opacity:1"
     id="path244-3"
     sodipodi:nodetypes="sssssssss" /><path
     d="m 339.27381,469.18201 c -0.003,-4.27724 -3.47079,-7.74321 -7.74803,-7.74321 -4.27724,0 -7.74537,3.46597 -7.74803,7.74321 0.003,4.27724 3.47079,7.74321 7.74803,7.74321 4.27724,0 7.74537,-3.46597 7.74803,-7.74321 z"
     style="display:inline;fill:none;stroke:#ff0000;stroke-width:0.132283;stroke-dasharray:none;stroke-opacity:1"
     id="path272-9"
     sodipodi:nodetypes="cscsc" /><path
     d="m 339.24901,617.68904 c 0,-4.27912 -3.46891,-7.74803 -7.74804,-7.74803 -4.27912,0 -7.74803,3.46891 -7.74803,7.74803 0,4.27912 3.46891,7.74803 7.74803,7.74803 4.27913,0 7.74804,-3.46891 7.74804,-7.74803 z"
     style="display:inline;fill:none;stroke:#ff0000;stroke-width:0.132283;stroke-dasharray:none;stroke-opacity:1"
     id="path273-8"
     sodipodi:nodetypes="sssss" /><path
     d="m 116.10907,482.6895 c -0.003,-4.27724 -3.47079,-7.74321 -7.74803,-7.74321 -4.27724,0 -7.74537,3.46597 -7.74803,7.74321 0.003,4.27724 3.47079,7.74321 7.74803,7.74321 4.27724,0 7.74537,-3.46597 7.74803,-7.74321 z"
     style="display:inline;fill:none;stroke:#ff0000;stroke-width:0.132283;stroke-dasharray:none;stroke-opacity:1"
     id="path293-6"
     sodipodi:nodetypes="cscsc" /><path
     d="m 116.10907,554.6895 c -0.003,-4.27724 -3.47079,-7.74321 -7.74803,-7.74321 -4.27724,0 -7.74537,3.46597 -7.74803,7.74321 0.003,4.27724 3.47079,7.74321 7.74803,7.74321 4.27724,0 7.74537,-3.46597 7.74803,-7.74321 z"
     style="display:inline;fill:none;stroke:#ff0000;stroke-width:0.132283;stroke-dasharray:none;stroke-opacity:1"
     id="path295-5"
     sodipodi:nodetypes="cscsc" /><path
     d="m 675.72142,63.443923 c -1.04368,0 -1.88976,0.84608 -1.88976,1.88976 v 44.598427 c 0,1.04368 0.84608,1.88976 1.88976,1.88976 h 54.80315 c 1.04368,0 1.88976,-0.84608 1.88976,-1.88976 V 65.333683 c 0,-1.04368 -0.84608,-1.88976 -1.88976,-1.88976 z"
     style="display:inline;fill:none;stroke:#ff0000;stroke-width:0.132283;stroke-dasharray:none;stroke-opacity:1"
     id="path224-6"
     sodipodi:nodetypes="sssssssss" /><path
     d="m 747.72142,45.444513 c -1.04369,0 -1.88976,0.84608 -1.88976,1.88977 v 44.59842 c 0,1.04368 0.84608,1.88976 1.88976,1.88976 h 54.80315 c 1.04368,0 1.88976,-0.84608 1.88976,-1.88976 v -44.59842 c 0,-1.04369 -0.84607,-1.88977 -1.88976,-1.88977 z"
     style="display:inline;fill:none;stroke:#ff0000;stroke-width:0.132283;stroke-dasharray:none;stroke-opacity:1"
     id="path226-5"
     sodipodi:nodetypes="scsssscss" /><path
     d="m 675.78147,135.44542 c -1.04368,0 -1.88976,0.84608 -1.88976,1.88976 v 44.59843 c 0,1.04368 0.84608,1.88976 1.88976,1.88976 h 54.80315 c 1.04369,0 1.88977,-0.84607 1.88977,-1.88976 v -44.59843 c 0,-1.04369 -0.84608,-1.88976 -1.88977,-1.88976 z"
     style="display:inline;fill:none;stroke:#ff0000;stroke-width:0.132283;stroke-dasharray:none;stroke-opacity:1"
     id="path227-5"
     sodipodi:nodetypes="sssscsscs" /><path
     d="m 730.58462,255.82338 h -54.80315 c -1.04368,0 -1.88976,-0.84608 -1.88976,-1.88976 v -44.59843 c 0,-1.04368 0.84608,-1.88976 1.88976,-1.88976 h 54.80315 c 1.04369,0 1.88977,0.84607 1.88977,1.88976 v 44.59843 c 0,1.04369 -0.84608,1.88976 -1.88977,1.88976 z"
     style="display:inline;fill:none;stroke:#ff0000;stroke-width:0.132283;stroke-dasharray:none;stroke-opacity:1"
     id="path228-8"
     sodipodi:nodetypes="csssscssc" /><path
     d="m 819.72142,36.444433 c -1.04368,0 -1.88976,0.84608 -1.88976,1.88976 v 44.59843 c 0,1.04368 0.84608,1.88976 1.88976,1.88976 h 54.80315 c 1.04368,0 1.88976,-0.84608 1.88976,-1.88976 v -44.59843 c 0,-1.04368 -0.84608,-1.88976 -1.88976,-1.88976 z"
     style="display:inline;fill:none;stroke:#ff0000;stroke-width:0.132283;stroke-dasharray:none;stroke-opacity:1"
     id="path229-1"
     sodipodi:nodetypes="sssssssss" /><path
     d="m 747.78148,117.44541 c -1.04369,0 -1.88976,0.84608 -1.88976,1.88977 v 44.59842 c 0,1.04369 0.84607,1.88977 1.88976,1.88977 h 54.80315 c 1.04369,0 1.88977,-0.84608 1.88977,-1.88977 v -44.59842 c 0,-1.04369 -0.84608,-1.88977 -1.88977,-1.88977 z"
     style="display:inline;fill:none;stroke:#ff0000;stroke-width:0.132283;stroke-dasharray:none;stroke-opacity:1"
     id="path230-4"
     sodipodi:nodetypes="sccscsccs" /><path
     d="m 802.58463,237.82337 h -54.80315 c -1.04369,0 -1.88977,-0.84607 -1.88977,-1.88976 v -44.59843 c 0,-1.04369 0.84608,-1.88976 1.88977,-1.88976 h 54.80315 c 1.04368,0 1.88976,0.84608 1.88976,1.88976 v 44.59843 c 0,1.04368 -0.84608,1.88976 -1.88976,1.88976 z"
     style="display:inline;fill:none;stroke:#ff0000;stroke-width:0.132283;stroke-dasharray:none;stroke-opacity:1"
     id="path231-7"
     sodipodi:nodetypes="scsscssss" /><path
     d="m 876.4744,110.33518 v 44.59842 c 0,1.04369 -0.84608,1.88977 -1.88977,1.88977 h -54.80315 c -1.04369,0 -1.88976,-0.84608 -1.88976,-1.88977 v -44.59842 c 0,-1.04369 0.84607,-1.88977 1.88976,-1.88977 h 54.80315 c 1.04369,0 1.88977,0.84608 1.88977,1.88977 z"
     style="display:inline;fill:none;stroke:#ff0000;stroke-width:0.132283;stroke-dasharray:none;stroke-opacity:1"
     id="path232-1"
     sodipodi:nodetypes="sscsscscs" /><path
     d="m 891.77104,117.42471 c -1.04369,0 -1.88977,0.84608 -1.88977,1.88977 v 44.59842 c 0,1.04369 0.84608,1.88977 1.88977,1.88977 h 54.80315 c 1.04369,0 1.88976,-0.84608 1.88976,-1.88977 v -44.59842 c 0,-1.04369 -0.84607,-1.88977 -1.88976,-1.88977 z"
     style="display:inline;fill:none;stroke:#ff0000;stroke-width:0.132283;stroke-dasharray:none;stroke-opacity:1"
     id="path233-3"
     sodipodi:nodetypes="csscssssc" /><path
     d="m 1020.4143,200.33472 v 44.59842 c 0,1.04369 -0.8461,1.88977 -1.8897,1.88977 h -54.80318 c -1.04369,0 -1.88976,-0.84608 -1.88976,-1.88977 v -44.59842 c 0,-1.04369 0.84607,-1.88977 1.88976,-1.88977 h 54.80318 c 1.0436,0 1.8897,0.84608 1.8897,1.88977 z"
     style="display:inline;fill:none;stroke:#ff0000;stroke-width:0.132283;stroke-dasharray:none;stroke-opacity:1"
     id="path234-8"
     sodipodi:nodetypes="sssssssss" /><path
     d="m 817.89172,226.9336 v -44.59842 c 0,-1.04369 0.84607,-1.88977 1.88976,-1.88977 h 54.80315 c 1.04369,0 1.88977,0.84608 1.88977,1.88977 v 44.59842 c 0,1.04369 -0.84608,1.88977 -1.88977,1.88977 h -54.80315 c -1.04369,0 -1.88976,-0.84608 -1.88976,-1.88977 z"
     style="display:inline;fill:none;stroke:#ff0000;stroke-width:0.132283;stroke-dasharray:none;stroke-opacity:1"
     id="path235-4"
     sodipodi:nodetypes="ssscsscss" /><path
     d="m 889.83166,91.927203 v -44.59843 c 0,-1.04368 0.84608,-1.88976 1.88976,-1.88976 h 54.80315 c 1.04368,0 1.88976,0.84608 1.88976,1.88976 v 44.59843 c 0,1.04368 -0.84608,1.88976 -1.88976,1.88976 h -54.80315 c -1.04368,0 -1.88976,-0.84608 -1.88976,-1.88976 z"
     style="display:inline;fill:none;stroke:#ff0000;stroke-width:0.132283;stroke-dasharray:none;stroke-opacity:1"
     id="path236-8"
     sodipodi:nodetypes="sssssssss" /><path
     d="m 963.77751,126.44738 h 54.80319 c 1.0436,0 1.8897,0.84607 1.8897,1.88976 v 44.59843 c 0,1.04369 -0.8461,1.88976 -1.8897,1.88976 h -54.80319 c -1.04368,0 -1.88976,-0.84608 -1.88976,-1.88976 v -44.59843 c 0,-1.04368 0.84608,-1.88976 1.88976,-1.88976 z"
     style="display:inline;fill:none;stroke:#ff0000;stroke-width:0.132283;stroke-dasharray:none;stroke-opacity:1"
     id="path237-04"
     sodipodi:nodetypes="scsscssss" /><path
     d="m 1018.5246,102.8291 h -54.80318 c -1.04369,0 -1.88976,-0.84608 -1.88976,-1.88977 V 56.340913 c 0,-1.04369 0.84607,-1.88977 1.88976,-1.88977 h 54.80318 c 1.0437,0 1.8897,0.84608 1.8897,1.88977 v 44.598417 c 0,1.04369 -0.846,1.88977 -1.8897,1.88977 z"
     style="display:inline;fill:none;stroke:#ff0000;stroke-width:0.132283;stroke-dasharray:none;stroke-opacity:1"
     id="path238-6"
     sodipodi:nodetypes="sssssssss" /><path
     d="m 889.89149,235.93359 c 0,1.04369 0.84607,1.88977 1.88976,1.88977 h 54.80315 c 1.04369,0 1.88977,-0.84608 1.88977,-1.88977 v -44.59842 c 0,-1.04369 -0.84608,-1.88976 -1.88977,-1.88976 h -54.80315 c -1.04368,0 -1.88976,0.84608 -1.88976,1.88976 z"
     style="display:inline;fill:none;stroke:#ff0000;stroke-width:0.132283;stroke-dasharray:none;stroke-opacity:1"
     id="path239-0"
     sodipodi:nodetypes="sscsscsss" /><path
     d="m 853.89149,316.93314 v -44.59842 c 0,-1.04369 0.84607,-1.88977 1.88976,-1.88977 h 54.80315 c 1.04369,0 1.88977,0.84608 1.88977,1.88977 v 44.59842 c 0,1.04369 -0.84608,1.88977 -1.88977,1.88977 h -54.80315 c -1.04369,0 -1.88976,-0.84608 -1.88976,-1.88977 z"
     style="display:inline;fill:none;stroke:#ff0000;stroke-width:0.132283;stroke-dasharray:none;stroke-opacity:1"
     id="path242-6"
     sodipodi:nodetypes="ssscsssss" /><path
     d="m 940.04761,273.52614 53.6175,11.33807 c 1.0211,0.21593 1.6738,1.21874 1.4579,2.23985 l -9.2269,43.63353 c -0.2159,1.0211 -1.2187,1.67383 -2.2398,1.45791 l -53.61749,-11.33808 c -1.0211,-0.21593 -1.67383,-1.21873 -1.45791,-2.23984 l 9.22685,-43.63353 c 0.21593,-1.02111 1.21874,-1.67384 2.23985,-1.45791 z"
     style="display:inline;fill:none;stroke:#ff0000;stroke-width:0.132283;stroke-dasharray:none;stroke-opacity:1"
     id="path243-9"
     sodipodi:nodetypes="sssscssss" /><path
     d="m 1052.9365,346.5377 c 0.9543,0.42251 2.0705,-0.009 2.493,-0.96297 l 22.1855,-50.11175 c 0.4225,-0.95434 -0.01,-2.0705 -0.9629,-2.49301 l -40.7806,-18.05444 c -0.9544,-0.42251 -2.0706,0.009 -2.4931,0.96297 l -22.1855,50.11175 c -0.4225,0.95434 0.01,2.0705 0.963,2.49301 z"
     style="display:inline;fill:none;stroke:#ff0000;stroke-width:0.132283;stroke-dasharray:none;stroke-opacity:1"
     id="path244-4"
     sodipodi:nodetypes="sssssssss" /><path
     d="m 962.89583,110.1269 c -0.003,-4.27724 -3.47079,-7.74321 -7.74803,-7.74321 -4.27724,0 -7.74537,3.46597 -7.74803,7.74321 0.003,4.27724 3.47079,7.74321 7.74803,7.74321 4.27724,0 7.74537,-3.46597 7.74803,-7.74321 z"
     style="display:inline;fill:none;stroke:#ff0000;stroke-width:0.132283;stroke-dasharray:none;stroke-opacity:1"
     id="path272-1"
     sodipodi:nodetypes="cscsc" /><path
     d="m 962.87103,258.63393 c 0,-4.27912 -3.46891,-7.74803 -7.74804,-7.74803 -4.27912,0 -7.74803,3.46891 -7.74803,7.74803 0,4.27912 3.46891,7.74803 7.74803,7.74803 4.27913,0 7.74804,-3.46891 7.74804,-7.74803 z"
     style="display:inline;fill:none;stroke:#ff0000;stroke-width:0.132283;stroke-dasharray:none;stroke-opacity:1"
     id="path273-3"
     sodipodi:nodetypes="sssss" /><path
     d="m 739.73109,123.63439 c -0.003,-4.27724 -3.47079,-7.74321 -7.74803,-7.74321 -4.27724,0 -7.74537,3.46597 -7.74803,7.74321 0.003,4.27724 3.47079,7.74321 7.74803,7.74321 4.27724,0 7.74537,-3.46597 7.74803,-7.74321 z"
     style="display:inline;fill:none;stroke:#ff0000;stroke-width:0.132283;stroke-dasharray:none;stroke-opacity:1"
     id="path293-7"
     sodipodi:nodetypes="cscsc" /><path
     d="m 739.73109,195.63439 c -0.003,-4.27724 -3.47079,-7.74321 -7.74803,-7.74321 -4.27724,0 -7.74537,3.46597 -7.74803,7.74321 0.003,4.27724 3.47079,7.74321 7.74803,7.74321 4.27724,0 7.74537,-3.46597 7.74803,-7.74321 z"
     style="display:inline;fill:none;stroke:#ff0000;stroke-width:0.132283;stroke-dasharray:none;stroke-opacity:1"
     id="path295-8"
     sodipodi:nodetypes="cscsc" /><path
     d="m 675.72142,422.49903 c -1.04368,0 -1.88976,0.84608 -1.88976,1.88976 v 44.59843 c 0,1.04368 0.84608,1.88976 1.88976,1.88976 h 54.80315 c 1.04368,0 1.88976,-0.84608 1.88976,-1.88976 v -44.59843 c 0,-1.04368 -0.84608,-1.88976 -1.88976,-1.88976 z"
     style="display:inline;fill:none;stroke:#ff0000;stroke-width:0.132283;stroke-dasharray:none;stroke-opacity:1"
     id="path224-4-3"
     sodipodi:nodetypes="sssssssss" /><path
     d="m 747.72142,404.49962 c -1.04369,0 -1.88976,0.84608 -1.88976,1.88977 v 44.59842 c 0,1.04368 0.84608,1.88976 1.88976,1.88976 h 54.80315 c 1.04368,0 1.88976,-0.84608 1.88976,-1.88976 v -44.59842 c 0,-1.04369 -0.84607,-1.88977 -1.88976,-1.88977 z"
     style="display:inline;fill:none;stroke:#ff0000;stroke-width:0.132283;stroke-dasharray:none;stroke-opacity:1"
     id="path226-8-8"
     sodipodi:nodetypes="scsssscss" /><path
     d="m 675.78147,494.50053 c -1.04368,0 -1.88976,0.84608 -1.88976,1.88976 v 44.59843 c 0,1.04368 0.84608,1.88976 1.88976,1.88976 h 54.80315 c 1.04369,0 1.88977,-0.84607 1.88977,-1.88976 v -44.59843 c 0,-1.04369 -0.84608,-1.88976 -1.88977,-1.88976 z"
     style="display:inline;fill:none;stroke:#ff0000;stroke-width:0.132283;stroke-dasharray:none;stroke-opacity:1"
     id="path227-3-1"
     sodipodi:nodetypes="sssscsscs" /><path
     d="m 730.58462,614.87849 h -54.80315 c -1.04368,0 -1.88976,-0.84608 -1.88976,-1.88976 V 568.3903 c 0,-1.04368 0.84608,-1.88976 1.88976,-1.88976 h 54.80315 c 1.04369,0 1.88977,0.84607 1.88977,1.88976 v 44.59843 c 0,1.04369 -0.84608,1.88976 -1.88977,1.88976 z"
     style="display:inline;fill:none;stroke:#ff0000;stroke-width:0.132283;stroke-dasharray:none;stroke-opacity:1"
     id="path228-9-5"
     sodipodi:nodetypes="csssscssc" /><path
     d="m 819.72142,395.49954 c -1.04368,0 -1.88976,0.84608 -1.88976,1.88976 v 44.59843 c 0,1.04368 0.84608,1.88976 1.88976,1.88976 h 54.80315 c 1.04368,0 1.88976,-0.84608 1.88976,-1.88976 V 397.3893 c 0,-1.04368 -0.84608,-1.88976 -1.88976,-1.88976 z"
     style="display:inline;fill:none;stroke:#ff0000;stroke-width:0.132283;stroke-dasharray:none;stroke-opacity:1"
     id="path229-0-3"
     sodipodi:nodetypes="sssssssss" /><path
     d="m 747.78148,476.50052 c -1.04369,0 -1.88976,0.84608 -1.88976,1.88977 v 44.59842 c 0,1.04369 0.84607,1.88977 1.88976,1.88977 h 54.80315 c 1.04369,0 1.88977,-0.84608 1.88977,-1.88977 v -44.59842 c 0,-1.04369 -0.84608,-1.88977 -1.88977,-1.88977 z"
     style="display:inline;fill:none;stroke:#ff0000;stroke-width:0.132283;stroke-dasharray:none;stroke-opacity:1"
     id="path230-5-5"
     sodipodi:nodetypes="sccscsccs" /><path
     d="m 802.58463,596.87848 h -54.80315 c -1.04369,0 -1.88977,-0.84607 -1.88977,-1.88976 v -44.59843 c 0,-1.04369 0.84608,-1.88976 1.88977,-1.88976 h 54.80315 c 1.04368,0 1.88976,0.84608 1.88976,1.88976 v 44.59843 c 0,1.04368 -0.84608,1.88976 -1.88976,1.88976 z"
     style="display:inline;fill:none;stroke:#ff0000;stroke-width:0.132283;stroke-dasharray:none;stroke-opacity:1"
     id="path231-2-4"
     sodipodi:nodetypes="scsscssss" /><path
     d="m 876.4744,469.39029 v 44.59842 c 0,1.04369 -0.84608,1.88977 -1.88977,1.88977 h -54.80315 c -1.04369,0 -1.88976,-0.84608 -1.88976,-1.88977 v -44.59842 c 0,-1.04369 0.84607,-1.88977 1.88976,-1.88977 h 54.80315 c 1.04369,0 1.88977,0.84608 1.88977,1.88977 z"
     style="display:inline;fill:none;stroke:#ff0000;stroke-width:0.132283;stroke-dasharray:none;stroke-opacity:1"
     id="path232-2-3"
     sodipodi:nodetypes="sscsscscs" /><path
     d="m 891.77104,476.47982 c -1.04369,0 -1.88977,0.84608 -1.88977,1.88977 v 44.59842 c 0,1.04369 0.84608,1.88977 1.88977,1.88977 h 54.80315 c 1.04369,0 1.88976,-0.84608 1.88976,-1.88977 v -44.59842 c 0,-1.04369 -0.84607,-1.88977 -1.88976,-1.88977 z"
     style="display:inline;fill:none;stroke:#ff0000;stroke-width:0.132283;stroke-dasharray:none;stroke-opacity:1"
     id="path233-7-6"
     sodipodi:nodetypes="csscssssc" /><path
     d="m 1020.4143,559.38983 v 44.59842 c 0,1.04369 -0.8461,1.88977 -1.8897,1.88977 h -54.80318 c -1.04369,0 -1.88976,-0.84608 -1.88976,-1.88977 v -44.59842 c 0,-1.04369 0.84607,-1.88977 1.88976,-1.88977 h 54.80318 c 1.0436,0 1.8897,0.84608 1.8897,1.88977 z"
     style="display:inline;fill:none;stroke:#ff0000;stroke-width:0.132283;stroke-dasharray:none;stroke-opacity:1"
     id="path234-3-5"
     sodipodi:nodetypes="sssssssss" /><path
     d="m 817.89172,585.98871 v -44.59842 c 0,-1.04369 0.84607,-1.88977 1.88976,-1.88977 h 54.80315 c 1.04369,0 1.88977,0.84608 1.88977,1.88977 v 44.59842 c 0,1.04369 -0.84608,1.88977 -1.88977,1.88977 h -54.80315 c -1.04369,0 -1.88976,-0.84608 -1.88976,-1.88977 z"
     style="display:inline;fill:none;stroke:#ff0000;stroke-width:0.132283;stroke-dasharray:none;stroke-opacity:1"
     id="path235-7-9"
     sodipodi:nodetypes="ssscsscss" /><path
     d="m 889.83166,450.98231 v -44.59843 c 0,-1.04368 0.84608,-1.88976 1.88976,-1.88976 h 54.80315 c 1.04368,0 1.88976,0.84608 1.88976,1.88976 v 44.59843 c 0,1.04368 -0.84608,1.88976 -1.88976,1.88976 h -54.80315 c -1.04368,0 -1.88976,-0.84608 -1.88976,-1.88976 z"
     style="display:inline;fill:none;stroke:#ff0000;stroke-width:0.132283;stroke-dasharray:none;stroke-opacity:1"
     id="path236-9-5"
     sodipodi:nodetypes="sssssssss" /><path
     d="m 963.77751,485.50249 h 54.80319 c 1.0436,0 1.8897,0.84607 1.8897,1.88976 v 44.59843 c 0,1.04369 -0.8461,1.88976 -1.8897,1.88976 h -54.80319 c -1.04368,0 -1.88976,-0.84608 -1.88976,-1.88976 v -44.59843 c 0,-1.04368 0.84608,-1.88976 1.88976,-1.88976 z"
     style="display:inline;fill:none;stroke:#ff0000;stroke-width:0.132283;stroke-dasharray:none;stroke-opacity:1"
     id="path237-0-4"
     sodipodi:nodetypes="scsscssss" /><path
     d="m 1018.5246,461.88421 h -54.80318 c -1.04369,0 -1.88976,-0.84608 -1.88976,-1.88977 v -44.59842 c 0,-1.04369 0.84607,-1.88977 1.88976,-1.88977 h 54.80318 c 1.0437,0 1.8897,0.84608 1.8897,1.88977 v 44.59842 c 0,1.04369 -0.846,1.88977 -1.8897,1.88977 z"
     style="display:inline;fill:none;stroke:#ff0000;stroke-width:0.132283;stroke-dasharray:none;stroke-opacity:1"
     id="path238-2-9"
     sodipodi:nodetypes="sssssssss" /><path
     d="m 889.89149,594.9887 c 0,1.04369 0.84607,1.88977 1.88976,1.88977 h 54.80315 c 1.04369,0 1.88977,-0.84608 1.88977,-1.88977 v -44.59842 c 0,-1.04369 -0.84608,-1.88976 -1.88977,-1.88976 h -54.80315 c -1.04368,0 -1.88976,0.84608 -1.88976,1.88976 z"
     style="display:inline;fill:none;stroke:#ff0000;stroke-width:0.132283;stroke-dasharray:none;stroke-opacity:1"
     id="path239-3-1"
     sodipodi:nodetypes="sscsscsss" /><path
     d="m 853.89149,675.98825 v -44.59842 c 0,-1.04369 0.84607,-1.88977 1.88976,-1.88977 h 54.80315 c 1.04369,0 1.88977,0.84608 1.88977,1.88977 v 44.59842 c 0,1.04369 -0.84608,1.88977 -1.88977,1.88977 h -54.80315 c -1.04369,0 -1.88976,-0.84608 -1.88976,-1.88977 z"
     style="display:inline;fill:none;stroke:#ff0000;stroke-width:0.132283;stroke-dasharray:none;stroke-opacity:1"
     id="path242-7-5"
     sodipodi:nodetypes="ssscsssss" /><path
     d="m 940.04761,632.58125 53.6175,11.33807 c 1.0211,0.21593 1.6738,1.21874 1.4579,2.23985 l -9.2269,43.63353 c -0.2159,1.0211 -1.2187,1.67383 -2.2398,1.45791 l -53.61749,-11.33808 c -1.0211,-0.21593 -1.67383,-1.21873 -1.45791,-2.23984 l 9.22685,-43.63353 c 0.21593,-1.02111 1.21874,-1.67384 2.23985,-1.45791 z"
     style="display:inline;fill:none;stroke:#ff0000;stroke-width:0.132283;stroke-dasharray:none;stroke-opacity:1"
     id="path243-0-4"
     sodipodi:nodetypes="sssscssss" /><path
     d="m 1052.9365,705.59281 c 0.9543,0.42251 2.0705,-0.009 2.493,-0.96297 l 22.1855,-50.11175 c 0.4225,-0.95434 -0.01,-2.0705 -0.9629,-2.49301 l -40.7806,-18.05444 c -0.9544,-0.42251 -2.0706,0.009 -2.4931,0.96297 l -22.1855,50.11175 c -0.4225,0.95434 0.01,2.0705 0.963,2.49301 z"
     style="display:inline;fill:none;stroke:#ff0000;stroke-width:0.132283;stroke-dasharray:none;stroke-opacity:1"
     id="path244-3-1"
     sodipodi:nodetypes="sssssssss" /><path
     d="m 962.89583,469.18201 c -0.003,-4.27724 -3.47079,-7.74321 -7.74803,-7.74321 -4.27724,0 -7.74537,3.46597 -7.74803,7.74321 0.003,4.27724 3.47079,7.74321 7.74803,7.74321 4.27724,0 7.74537,-3.46597 7.74803,-7.74321 z"
     style="display:inline;fill:none;stroke:#ff0000;stroke-width:0.132283;stroke-dasharray:none;stroke-opacity:1"
     id="path272-9-8"
     sodipodi:nodetypes="cscsc" /><path
     d="m 962.87103,617.68904 c 0,-4.27912 -3.46891,-7.74803 -7.74804,-7.74803 -4.27912,0 -7.74803,3.46891 -7.74803,7.74803 0,4.27912 3.46891,7.74803 7.74803,7.74803 4.27913,0 7.74804,-3.46891 7.74804,-7.74803 z"
     style="display:inline;fill:none;stroke:#ff0000;stroke-width:0.132283;stroke-dasharray:none;stroke-opacity:1"
     id="path273-8-8"
     sodipodi:nodetypes="sssss" /><path
     d="m 739.73109,482.6895 c -0.003,-4.27724 -3.47079,-7.74321 -7.74803,-7.74321 -4.27724,0 -7.74537,3.46597 -7.74803,7.74321 0.003,4.27724 3.47079,7.74321 7.74803,7.74321 4.27724,0 7.74537,-3.46597 7.74803,-7.74321 z"
     style="display:inline;fill:none;stroke:#ff0000;stroke-width:0.132283;stroke-dasharray:none;stroke-opacity:1"
     id="path293-6-3"
     sodipodi:nodetypes="cscsc" /><path
     d="m 739.73109,554.6895 c -0.003,-4.27724 -3.47079,-7.74321 -7.74803,-7.74321 -4.27724,0 -7.74537,3.46597 -7.74803,7.74321 0.003,4.27724 3.47079,7.74321 7.74803,7.74321 4.27724,0 7.74537,-3.46597 7.74803,-7.74321 z"
     style="display:inline;fill:none;stroke:#ff0000;stroke-width:0.132283;stroke-dasharray:none;stroke-opacity:1"
     id="path295-5-5"
     sodipodi:nodetypes="cscsc" /><path
     d="m 1624.3131,110.1269 c 0,-4.27724 -3.4708,-7.74321 -7.748,-7.74321 -4.2773,0 -7.7454,3.46597 -7.748,7.74321 0,4.27724 3.4707,7.74321 7.748,7.74321 4.2772,0 7.7454,-3.46597 7.748,-7.74321 z"
     style="display:inline;fill:none;stroke:#ff0000;stroke-width:0.132283;stroke-dasharray:none;stroke-opacity:1"
     id="path272-8"
     sodipodi:nodetypes="cscsc" /><path
     d="m 1624.2883,258.63393 c 0,-4.27913 -3.4689,-7.74804 -7.748,-7.74804 -4.2791,0 -7.7481,3.46891 -7.7481,7.74804 0,4.27912 3.469,7.74803 7.7481,7.74803 4.2791,0 7.748,-3.46891 7.748,-7.74803 z"
     style="display:inline;fill:none;stroke:#ff0000;stroke-width:0.132283;stroke-dasharray:none;stroke-opacity:1"
     id="path273-30"
     sodipodi:nodetypes="sssss" /><path
     d="m 1401.1484,123.63439 c 0,-4.27724 -3.4708,-7.74321 -7.7481,-7.74321 -4.2772,0 -7.7453,3.46597 -7.748,7.74321 0,4.27724 3.4708,7.74321 7.748,7.74321 4.2773,0 7.7454,-3.46597 7.7481,-7.74321 z"
     style="display:inline;fill:none;stroke:#ff0000;stroke-width:0.132283;stroke-dasharray:none;stroke-opacity:1"
     id="path293-62"
     sodipodi:nodetypes="cscsc" /><path
     d="m 1401.1484,195.63439 c 0,-4.27725 -3.4708,-7.74322 -7.7481,-7.74322 -4.2772,0 -7.7453,3.46597 -7.748,7.74322 0,4.27724 3.4708,7.7432 7.748,7.7432 4.2773,0 7.7454,-3.46596 7.7481,-7.7432 z"
     style="display:inline;fill:none;stroke:#ff0000;stroke-width:0.132283;stroke-dasharray:none;stroke-opacity:1"
     id="path295-2"
     sodipodi:nodetypes="cscsc" /><path
     d="m 1624.3131,469.182 c 0,-4.27724 -3.4708,-7.7432 -7.748,-7.7432 -4.2773,0 -7.7454,3.46597 -7.748,7.7432 0,4.27725 3.4707,7.74321 7.748,7.74321 4.2772,0 7.7454,-3.46597 7.748,-7.74321 z"
     style="display:inline;fill:none;stroke:#ff0000;stroke-width:0.132283;stroke-dasharray:none;stroke-opacity:1"
     id="path272-9-9"
     sodipodi:nodetypes="cscsc" /><path
     d="m 1624.2883,617.68903 c 0,-4.27912 -3.4689,-7.74803 -7.748,-7.74803 -4.2791,0 -7.7481,3.46892 -7.7481,7.74803 0,4.27912 3.469,7.74803 7.7481,7.74803 4.2791,0 7.748,-3.46891 7.748,-7.74803 z"
     style="display:inline;fill:none;stroke:#ff0000;stroke-width:0.132283;stroke-dasharray:none;stroke-opacity:1"
     id="path273-8-4"
     sodipodi:nodetypes="sssss" /><path
     d="m 1401.1484,482.6895 c 0,-4.27724 -3.4708,-7.74321 -7.7481,-7.74321 -4.2772,0 -7.7453,3.46597 -7.748,7.74321 0,4.27724 3.4708,7.7432 7.748,7.7432 4.2773,0 7.7454,-3.46597 7.7481,-7.7432 z"
     style="display:inline;fill:none;stroke:#ff0000;stroke-width:0.132283;stroke-dasharray:none;stroke-opacity:1"
     id="path293-6-39"
     sodipodi:nodetypes="cscsc" /><path
     d="m 1401.1484,554.68949 c 0,-4.27724 -3.4708,-7.74321 -7.7481,-7.74321 -4.2772,0 -7.7453,3.46597 -7.748,7.74321 0,4.27724 3.4708,7.74321 7.748,7.74321 4.2773,0 7.7454,-3.46597 7.7481,-7.74321 z"
     style="display:inline;fill:none;stroke:#ff0000;stroke-width:0.132283;stroke-dasharray:none;stroke-opacity:1"
     id="path295-5-0"
     sodipodi:nodetypes="cscsc" /></g></svg>
