<?xml version="1.0" standalone="no"?>
 <!DOCTYPE svg PUBLIC "-//W3C//DTD SVG 1.1//EN" 
 "http://www.w3.org/Graphics/SVG/1.1/DTD/svg11.dtd"> 
<svg xmlns="http://www.w3.org/2000/svg" version="1.1" 
    width="29.7002cm" height="21.0007cm" viewBox="0 0 116930 82680 ">
<title>SVG Picture created as corne-cherry-F_SilkS.svg date 2020/11/03 18:14:09 </title>
  <desc>Picture generated by PCBNEW </desc>
<g style="fill:#000000; fill-opacity:1;stroke:#000000; stroke-opacity:1;
stroke-linecap:round; stroke-linejoin:round; "
 transform="translate(0 0) scale(1 1)">
</g>
<g style="fill:#000000; fill-opacity:0.0; 
stroke:#000000; stroke-width:-0.000393701; stroke-opacity:1; 
stroke-linecap:round; stroke-linejoin:round;">
</g>
<g style="fill:#000000; fill-opacity:0.0; 
stroke:#000000; stroke-width:49.2126; stroke-opacity:1; 
stroke-linecap:round; stroke-linejoin:round;">
<text x="83398.6" y="23161.4"
textLength="13912.5" font-size="524.934" lengthAdjust="spacingAndGlyphs"
text-anchor="start" opacity="0">Corne Cherry v3.0.1 PCB Designed by foostan</text>
<path d="M83749 23105
L83730 23123
L83674 23142
L83636 23142
L83580 23123
L83543 23086
L83524 23048
L83505 22973
L83505 22917
L83524 22842
L83543 22805
L83580 22767
L83636 22748
L83674 22748
L83730 22767
L83749 22786
" />
<path d="M83974 23142
L83936 23123
L83918 23105
L83899 23067
L83899 22955
L83918 22917
L83936 22898
L83974 22880
L84030 22880
L84068 22898
L84086 22917
L84105 22955
L84105 23067
L84086 23105
L84068 23123
L84030 23142
L83974 23142
" />
<path d="M84274 23142
L84274 22880
" />
<path d="M84274 22955
L84293 22917
L84311 22898
L84349 22880
L84386 22880
" />
<path d="M84517 22880
L84517 23142
" />
<path d="M84517 22917
L84536 22898
L84574 22880
L84630 22880
L84667 22898
L84686 22936
L84686 23142
" />
<path d="M85024 23123
L84986 23142
L84911 23142
L84874 23123
L84855 23086
L84855 22936
L84874 22898
L84911 22880
L84986 22880
L85024 22898
L85042 22936
L85042 22973
L84855 23011
" />
<path d="M85736 23105
L85717 23123
L85661 23142
L85624 23142
L85567 23123
L85530 23086
L85511 23048
L85492 22973
L85492 22917
L85511 22842
L85530 22805
L85567 22767
L85624 22748
L85661 22748
L85717 22767
L85736 22786
" />
<path d="M85905 23142
L85905 22748
" />
<path d="M86074 23142
L86074 22936
L86055 22898
L86017 22880
L85961 22880
L85924 22898
L85905 22917
" />
<path d="M86411 23123
L86373 23142
L86299 23142
L86261 23123
L86242 23086
L86242 22936
L86261 22898
L86299 22880
L86373 22880
L86411 22898
L86430 22936
L86430 22973
L86242 23011
" />
<path d="M86598 23142
L86598 22880
" />
<path d="M86598 22955
L86617 22917
L86636 22898
L86673 22880
L86711 22880
" />
<path d="M86842 23142
L86842 22880
" />
<path d="M86842 22955
L86861 22917
L86880 22898
L86917 22880
L86955 22880
" />
<path d="M87048 22880
L87142 23142
" />
<path d="M87236 22880
L87142 23142
L87105 23236
L87086 23255
L87048 23273
" />
<path d="M87648 22880
L87742 23142
L87836 22880
" />
<path d="M87948 22748
L88192 22748
L88061 22898
L88117 22898
L88155 22917
L88173 22936
L88192 22973
L88192 23067
L88173 23105
L88155 23123
L88117 23142
L88005 23142
L87967 23123
L87948 23105
" />
<path d="M88361 23105
L88379 23123
L88361 23142
L88342 23123
L88361 23105
L88361 23142
" />
<path d="M88623 22748
L88661 22748
L88698 22767
L88717 22786
L88736 22823
L88754 22898
L88754 22992
L88736 23067
L88717 23105
L88698 23123
L88661 23142
L88623 23142
L88586 23123
L88567 23105
L88548 23067
L88529 22992
L88529 22898
L88548 22823
L88567 22786
L88586 22767
L88623 22748
" />
<path d="M88923 23105
L88942 23123
L88923 23142
L88904 23123
L88923 23105
L88923 23142
" />
<path d="M89317 23142
L89092 23142
" />
<path d="M89204 23142
L89204 22748
L89167 22805
L89129 22842
L89092 22861
" />
<path d="M89786 23142
L89786 22748
L89936 22748
L89973 22767
L89992 22786
L90011 22823
L90011 22880
L89992 22917
L89973 22936
L89936 22955
L89786 22955
" />
<path d="M90404 23105
L90385 23123
L90329 23142
L90292 23142
L90236 23123
L90198 23086
L90179 23048
L90161 22973
L90161 22917
L90179 22842
L90198 22805
L90236 22767
L90292 22748
L90329 22748
L90385 22767
L90404 22786
" />
<path d="M90704 22936
L90760 22955
L90779 22973
L90798 23011
L90798 23067
L90779 23105
L90760 23123
L90723 23142
L90573 23142
L90573 22748
L90704 22748
L90742 22767
L90760 22786
L90779 22823
L90779 22861
L90760 22898
L90742 22917
L90704 22936
L90573 22936
" />
<path d="M91267 23142
L91267 22748
L91360 22748
L91417 22767
L91454 22805
L91473 22842
L91492 22917
L91492 22973
L91473 23048
L91454 23086
L91417 23123
L91360 23142
L91267 23142
" />
<path d="M91810 23123
L91773 23142
L91698 23142
L91660 23123
L91642 23086
L91642 22936
L91660 22898
L91698 22880
L91773 22880
L91810 22898
L91829 22936
L91829 22973
L91642 23011
" />
<path d="M91979 23123
L92017 23142
L92092 23142
L92129 23123
L92148 23086
L92148 23067
L92129 23030
L92092 23011
L92035 23011
L91998 22992
L91979 22955
L91979 22936
L91998 22898
L92035 22880
L92092 22880
L92129 22898
" />
<path d="M92316 23142
L92316 22880
" />
<path d="M92316 22748
L92298 22767
L92316 22786
L92335 22767
L92316 22748
L92316 22786
" />
<path d="M92673 22880
L92673 23198
L92654 23236
L92635 23255
L92598 23273
L92541 23273
L92504 23255
" />
<path d="M92673 23123
L92635 23142
L92560 23142
L92523 23123
L92504 23105
L92485 23067
L92485 22955
L92504 22917
L92523 22898
L92560 22880
L92635 22880
L92673 22898
" />
<path d="M92860 22880
L92860 23142
" />
<path d="M92860 22917
L92879 22898
L92916 22880
L92973 22880
L93010 22898
L93029 22936
L93029 23142
" />
<path d="M93366 23123
L93329 23142
L93254 23142
L93216 23123
L93198 23086
L93198 22936
L93216 22898
L93254 22880
L93329 22880
L93366 22898
L93385 22936
L93385 22973
L93198 23011
" />
<path d="M93723 23142
L93723 22748
" />
<path d="M93723 23123
L93685 23142
L93610 23142
L93573 23123
L93554 23105
L93535 23067
L93535 22955
L93554 22917
L93573 22898
L93610 22880
L93685 22880
L93723 22898
" />
<path d="M94210 23142
L94210 22748
" />
<path d="M94210 22898
L94248 22880
L94322 22880
L94360 22898
L94379 22917
L94397 22955
L94397 23067
L94379 23105
L94360 23123
L94322 23142
L94248 23142
L94210 23123
" />
<path d="M94529 22880
L94622 23142
" />
<path d="M94716 22880
L94622 23142
L94585 23236
L94566 23255
L94529 23273
" />
<path d="M95110 22880
L95260 22880
" />
<path d="M95166 23142
L95166 22805
L95185 22767
L95222 22748
L95260 22748
" />
<path d="M95447 23142
L95410 23123
L95391 23105
L95372 23067
L95372 22955
L95391 22917
L95410 22898
L95447 22880
L95504 22880
L95541 22898
L95560 22917
L95579 22955
L95579 23067
L95560 23105
L95541 23123
L95504 23142
L95447 23142
" />
<path d="M95804 23142
L95766 23123
L95747 23105
L95729 23067
L95729 22955
L95747 22917
L95766 22898
L95804 22880
L95860 22880
L95897 22898
L95916 22917
L95935 22955
L95935 23067
L95916 23105
L95897 23123
L95860 23142
L95804 23142
" />
<path d="M96085 23123
L96122 23142
L96197 23142
L96235 23123
L96254 23086
L96254 23067
L96235 23030
L96197 23011
L96141 23011
L96104 22992
L96085 22955
L96085 22936
L96104 22898
L96141 22880
L96197 22880
L96235 22898
" />
<path d="M96366 22880
L96516 22880
" />
<path d="M96422 22748
L96422 23086
L96441 23123
L96478 23142
L96516 23142
" />
<path d="M96816 23142
L96816 22936
L96797 22898
L96760 22880
L96685 22880
L96647 22898
" />
<path d="M96816 23123
L96778 23142
L96685 23142
L96647 23123
L96628 23086
L96628 23048
L96647 23011
L96685 22992
L96778 22992
L96816 22973
" />
<path d="M97003 22880
L97003 23142
" />
<path d="M97003 22917
L97022 22898
L97060 22880
L97116 22880
L97153 22898
L97172 22936
L97172 23142
" />
<text x="19796.3" y="23161.4"
textLength="13899.7" font-size="524.934" lengthAdjust="spacingAndGlyphs"
text-anchor="start" opacity="0">Corne Cherry v3.0.1 PCB Designed by foostan</text>
<path d="M20146 23105
L20128 23123
L20071 23142
L20034 23142
L19978 23123
L19940 23086
L19921 23048
L19903 22973
L19903 22917
L19921 22842
L19940 22805
L19978 22767
L20034 22748
L20071 22748
L20128 22767
L20146 22786
" />
<path d="M20371 23142
L20334 23123
L20315 23105
L20296 23067
L20296 22955
L20315 22917
L20334 22898
L20371 22880
L20428 22880
L20465 22898
L20484 22917
L20503 22955
L20503 23067
L20484 23105
L20465 23123
L20428 23142
L20371 23142
" />
<path d="M20671 23142
L20671 22880
" />
<path d="M20671 22955
L20690 22917
L20709 22898
L20746 22880
L20784 22880
" />
<path d="M20915 22880
L20915 23142
" />
<path d="M20915 22917
L20934 22898
L20971 22880
L21028 22880
L21065 22898
L21084 22936
L21084 23142
" />
<path d="M21421 23123
L21384 23142
L21309 23142
L21271 23123
L21253 23086
L21253 22936
L21271 22898
L21309 22880
L21384 22880
L21421 22898
L21440 22936
L21440 22973
L21253 23011
" />
<path d="M22134 23105
L22115 23123
L22059 23142
L22021 23142
L21965 23123
L21927 23086
L21909 23048
L21890 22973
L21890 22917
L21909 22842
L21927 22805
L21965 22767
L22021 22748
L22059 22748
L22115 22767
L22134 22786
" />
<path d="M22302 23142
L22302 22748
" />
<path d="M22471 23142
L22471 22936
L22452 22898
L22415 22880
L22359 22880
L22321 22898
L22302 22917
" />
<path d="M22809 23123
L22771 23142
L22696 23142
L22659 23123
L22640 23086
L22640 22936
L22659 22898
L22696 22880
L22771 22880
L22809 22898
L22827 22936
L22827 22973
L22640 23011
" />
<path d="M22996 23142
L22996 22880
" />
<path d="M22996 22955
L23015 22917
L23034 22898
L23071 22880
L23109 22880
" />
<path d="M23240 23142
L23240 22880
" />
<path d="M23240 22955
L23259 22917
L23277 22898
L23315 22880
L23352 22880
" />
<path d="M23446 22880
L23540 23142
" />
<path d="M23634 22880
L23540 23142
L23502 23236
L23484 23255
L23446 23273
" />
<path d="M24046 22880
L24140 23142
L24233 22880
" />
<path d="M24346 22748
L24590 22748
L24458 22898
L24515 22898
L24552 22917
L24571 22936
L24590 22973
L24590 23067
L24571 23105
L24552 23123
L24515 23142
L24402 23142
L24365 23123
L24346 23105
" />
<path d="M24758 23105
L24777 23123
L24758 23142
L24740 23123
L24758 23105
L24758 23142
" />
<path d="M25021 22748
L25058 22748
L25096 22767
L25115 22786
L25133 22823
L25152 22898
L25152 22992
L25133 23067
L25115 23105
L25096 23123
L25058 23142
L25021 23142
L24983 23123
L24965 23105
L24946 23067
L24927 22992
L24927 22898
L24946 22823
L24965 22786
L24983 22767
L25021 22748
" />
<path d="M25321 23105
L25340 23123
L25321 23142
L25302 23123
L25321 23105
L25321 23142
" />
<path d="M25715 23142
L25490 23142
" />
<path d="M25602 23142
L25602 22748
L25565 22805
L25527 22842
L25490 22861
" />
<path d="M26183 23142
L26183 22748
L26333 22748
L26371 22767
L26389 22786
L26408 22823
L26408 22880
L26389 22917
L26371 22936
L26333 22955
L26183 22955
" />
<path d="M26802 23105
L26783 23123
L26727 23142
L26689 23142
L26633 23123
L26596 23086
L26577 23048
L26558 22973
L26558 22917
L26577 22842
L26596 22805
L26633 22767
L26689 22748
L26727 22748
L26783 22767
L26802 22786
" />
<path d="M27102 22936
L27158 22955
L27177 22973
L27196 23011
L27196 23067
L27177 23105
L27158 23123
L27121 23142
L26971 23142
L26971 22748
L27102 22748
L27139 22767
L27158 22786
L27177 22823
L27177 22861
L27158 22898
L27139 22917
L27102 22936
L26971 22936
" />
<path d="M27664 23142
L27664 22748
L27758 22748
L27814 22767
L27852 22805
L27870 22842
L27889 22917
L27889 22973
L27870 23048
L27852 23086
L27814 23123
L27758 23142
L27664 23142
" />
<path d="M28208 23123
L28170 23142
L28095 23142
L28058 23123
L28039 23086
L28039 22936
L28058 22898
L28095 22880
L28170 22880
L28208 22898
L28227 22936
L28227 22973
L28039 23011
" />
<path d="M28377 23123
L28414 23142
L28489 23142
L28527 23123
L28545 23086
L28545 23067
L28527 23030
L28489 23011
L28433 23011
L28395 22992
L28377 22955
L28377 22936
L28395 22898
L28433 22880
L28489 22880
L28527 22898
" />
<path d="M28714 23142
L28714 22880
" />
<path d="M28714 22748
L28695 22767
L28714 22786
L28733 22767
L28714 22748
L28714 22786
" />
<path d="M29070 22880
L29070 23198
L29052 23236
L29033 23255
L28995 23273
L28939 23273
L28902 23255
" />
<path d="M29070 23123
L29033 23142
L28958 23142
L28920 23123
L28902 23105
L28883 23067
L28883 22955
L28902 22917
L28920 22898
L28958 22880
L29033 22880
L29070 22898
" />
<path d="M29258 22880
L29258 23142
" />
<path d="M29258 22917
L29277 22898
L29314 22880
L29370 22880
L29408 22898
L29427 22936
L29427 23142
" />
<path d="M29764 23123
L29727 23142
L29652 23142
L29614 23123
L29595 23086
L29595 22936
L29614 22898
L29652 22880
L29727 22880
L29764 22898
L29783 22936
L29783 22973
L29595 23011
" />
<path d="M30120 23142
L30120 22748
" />
<path d="M30120 23123
L30083 23142
L30008 23142
L29970 23123
L29951 23105
L29933 23067
L29933 22955
L29951 22917
L29970 22898
L30008 22880
L30083 22880
L30120 22898
" />
<path d="M30608 23142
L30608 22748
" />
<path d="M30608 22898
L30645 22880
L30720 22880
L30758 22898
L30776 22917
L30795 22955
L30795 23067
L30776 23105
L30758 23123
L30720 23142
L30645 23142
L30608 23123
" />
<path d="M30926 22880
L31020 23142
" />
<path d="M31114 22880
L31020 23142
L30983 23236
L30964 23255
L30926 23273
" />
<path d="M31508 22880
L31658 22880
" />
<path d="M31564 23142
L31564 22805
L31583 22767
L31620 22748
L31658 22748
" />
<path d="M31845 23142
L31808 23123
L31789 23105
L31770 23067
L31770 22955
L31789 22917
L31808 22898
L31845 22880
L31901 22880
L31939 22898
L31957 22917
L31976 22955
L31976 23067
L31957 23105
L31939 23123
L31901 23142
L31845 23142
" />
<path d="M32201 23142
L32164 23123
L32145 23105
L32126 23067
L32126 22955
L32145 22917
L32164 22898
L32201 22880
L32257 22880
L32295 22898
L32314 22917
L32332 22955
L32332 23067
L32314 23105
L32295 23123
L32257 23142
L32201 23142
" />
<path d="M32482 23123
L32520 23142
L32595 23142
L32632 23123
L32651 23086
L32651 23067
L32632 23030
L32595 23011
L32539 23011
L32501 22992
L32482 22955
L32482 22936
L32501 22898
L32539 22880
L32595 22880
L32632 22898
" />
<path d="M32764 22880
L32914 22880
" />
<path d="M32820 22748
L32820 23086
L32839 23123
L32876 23142
L32914 23142
" />
<path d="M33214 23142
L33214 22936
L33195 22898
L33157 22880
L33082 22880
L33045 22898
" />
<path d="M33214 23123
L33176 23142
L33082 23142
L33045 23123
L33026 23086
L33026 23048
L33045 23011
L33082 22992
L33176 22992
L33214 22973
" />
<path d="M33401 22880
L33401 23142
" />
<path d="M33401 22917
L33420 22898
L33457 22880
L33514 22880
L33551 22898
L33570 22936
L33570 23142
" />
</g>
<g style="fill:#000000; fill-opacity:0.0; 
stroke:#000000; stroke-width:59.0551; stroke-opacity:1; 
stroke-linecap:round; stroke-linejoin:round;">
<path d="M56520 24023
L56182 24023
" />
<path d="M49630 24023
L49965 24023
" />
<path d="M56520 23688
L56520 24023
" />
<path d="M49630 23669
L49630 24023
" />
<path d="M56520 12133
L56205 12133
" />
<path d="M49630 12133
L49965 12133
" />
<path d="M56520 12133
L56520 12468
" />
<path d="M49630 12133
L49630 12468
" />
<path d="M51599 9929
L51599 10440
" />
<path d="M51599 10440
L54552 10440
" />
<path d="M54552 10440
L54552 9929
" />
<path d="M54552 9929
L51599 9929
" />
<path d="M52878 10066
L53272 10066
" />
<path d="M53272 10066
L53075 10322
" />
<path d="M53075 10322
L52878 10066
" />
<path d="M52937 10125
L53213 10125
" />
<path d="M52977 10185
L53174 10185
" />
<path d="M53016 10244
L53134 10244
" />
<path d="M67219 24011
L66880 24011
" />
<path d="M60329 24011
L60664 24011
" />
<path d="M67219 23677
L67219 24011
" />
<path d="M60329 23657
L60329 24011
" />
<path d="M67219 12122
L66904 12122
" />
<path d="M60329 12122
L60664 12122
" />
<path d="M67219 12122
L67219 12456
" />
<path d="M60329 12122
L60329 12456
" />
<path d="M62298 9917
L62298 10429
" />
<path d="M62298 10429
L65250 10429
" />
<path d="M65250 10429
L65250 9917
" />
<path d="M65250 9917
L62298 9917
" />
<path d="M63577 10055
L63971 10055
" />
<path d="M63971 10055
L63774 10311
" />
<path d="M63774 10311
L63577 10055
" />
<path d="M63636 10114
L63912 10114
" />
<path d="M63676 10173
L63873 10173
" />
<path d="M63715 10232
L63833 10232
" />
<path d="M61379 27311
L61281 27311
" />
<path d="M61379 25067
L61379 27311
" />
<path d="M61379 25067
L61281 25067
" />
<path d="M60119 25067
L60218 25067
" />
<path d="M60119 27311
L60218 27311
" />
<path d="M60119 25067
L60119 27311
" />
<path d="M56702 27315
L56604 27315
" />
<path d="M56702 25071
L56702 27315
" />
<path d="M56702 25071
L56604 25071
" />
<path d="M55442 25071
L55541 25071
" />
<path d="M55442 27315
L55541 27315
" />
<path d="M55442 25071
L55442 27315
" />
<path d="M61821 26838
L61821 25933
" />
<path d="M65719 25933
L65719 26838
" />
<path d="M61821 25933
L65719 25933
" />
<path d="M61821 26838
L65719 26838
" />
<path d="M51101 26841
L51101 25936
" />
<path d="M54999 25936
L54999 26841
" />
<path d="M51101 25936
L54999 25936
" />
<path d="M51101 26841
L54999 26841
" />
<path d="M64739 30381
L60113 30381
" />
<path d="M64739 28098
L64739 30381
" />
<path d="M60113 28098
L64739 28098
" />
<path d="M60113 30381
L60113 28098
" />
<path d="M52060 28107
L56686 28107
" />
<path d="M52060 30390
L52060 28107
" />
<path d="M56686 30390
L52060 30390
" />
<path d="M56686 28107
L56686 30390
" />
</g>
<g style="fill:#000000; fill-opacity:1.0; 
stroke:#000000; stroke-width:3.93701; stroke-opacity:1; 
stroke-linecap:round; stroke-linejoin:round;">
<path style="fill:#000000; fill-opacity:1.0; 
stroke:#000000; stroke-width:3.93701; stroke-opacity:1; 
stroke-linecap:round; stroke-linejoin:round;fill-rule:evenodd;"
d="M 94873.8,31420.8
94910.9,31422.2
94938.6,31425.8
94962.3,31432.4
94987.4,31442.9
95008.8,31453.2
95076.1,31495.9
95128.6,31550.7
95166.9,31618.7
95191.8,31700.9
95196.3,31725.5
95199.2,31753.5
95201.7,31797.8
95203.9,31855.1
95205.5,31921.8
95206.5,31994.2
95206.8,32053
95206.9,32315.5
95036.9,32315.5
95036.9,32032.3
95036.7,31942.3
95035.9,31870
95034.4,31813.1
95032.3,31769.2
95029.2,31736.2
95025.2,31711.7
95022.1,31699.4
94996.6,31645
94956.9,31604.4
94903.6,31577.9
94837.3,31566.1
94815.9,31565.5
94751.9,31569.6
94700.7,31583.3
94656.6,31608.8
94625.1,31636.5
94603.8,31658.9
94586.7,31680.9
94573.4,31704.9
94563.5,31733.3
94556.3,31768.8
94551.6,31813.7
94548.7,31870.6
94547.3,31942
94546.9,32030.3
94546.9,32052.3
94546.9,32315.5
94376.9,32315.5
94376.9,31425.5
94546.9,31425.5
94546.9,31527
94579.3,31494.7
94613.3,31464.9
94649,31443.9
94690.7,31430.4
94742.8,31423.1
94809.6,31420.6
94822.1,31420.5
Z" /> 
<path style="fill:#000000; fill-opacity:1.0; 
stroke:#000000; stroke-width:3.93701; stroke-opacity:1; 
stroke-linecap:round; stroke-linejoin:round;fill-rule:evenodd;"
d="M 94219.4,31411.6
94276.9,31418.1
94276.9,31564.1
94224.4,31558.7
94151.9,31560.7
94085.2,31581.1
94026.7,31618.5
93978.8,31671.7
93959.6,31703.9
93926.9,31767.3
93926.9,32315.5
93756.9,32315.5
93756.9,31424.7
93839.4,31427.6
93921.9,31430.5
93931.9,31517.9
93951.9,31495.6
93998.4,31457.6
94058.2,31429.6
94126.4,31413.2
94198.2,31409.9
Z" /> 
<path style="fill:#000000; fill-opacity:1.0; 
stroke:#000000; stroke-width:3.93701; stroke-opacity:1; 
stroke-linecap:round; stroke-linejoin:round;fill-rule:evenodd;"
d="M 95870.7,31424.6
95958.2,31450.7
96036.3,31492.2
96103.2,31547.6
96157.3,31615.2
96197,31693.4
96220.6,31780.6
96226.9,31857.6
96226.9,31915.5
95476.9,31915.5
95476.9,31944.3
95485.9,31992.8
95510.9,32043
95548.7,32090.7
95596.1,32131.6
95631.3,32152.8
95684.7,32173.1
95748,32182.9
95753.1,32183.3
95824.9,32182.3
95885.4,32167.8
95939.6,32138
95984.7,32099
96038.2,32045.5
96118.2,32045.5
96157.8,32045.8
96181.1,32047.3
96191.9,32051.2
96193.9,32058.7
96191.6,32068
96176.5,32101.7
96151,32142.2
96119.6,32182.9
96087,32217.6
96075.1,32228
95996.8,32279
95909.2,32314.3
95816,32332.9
95721.1,32334.1
95637.9,32319.7
95550.9,32286.6
95474.2,32237.8
95409.8,32175.4
95359.6,32101.4
95325.6,32017.8
95318,31987.5
95306,31889.1
95311.4,31794.7
95316.2,31775.5
95477.4,31775.5
95762.1,31775.5
95845.8,31775.4
95911.6,31775
95961.6,31774.2
95997.8,31772.9
96022.3,31771
96037.3,31768.3
96044.8,31764.7
96046.9,31760.2
96046.9,31760.1
96038.9,31727.9
96017.3,31690.2
95986.1,31651.9
95948.9,31617.4
95909.6,31591.5
95908.4,31590.9
95853.7,31572.2
95789.1,31563.8
95721.8,31565.7
95659.2,31578
95623.1,31592.1
95565.4,31632.1
95518.6,31687.7
95486.9,31750.4
95477.4,31775.5
95316.2,31775.5
95333.4,31706.6
95371.1,31626.6
95423.7,31556.9
95490.2,31499.5
95534.6,31472.7
95611.3,31439.7
95688.9,31421.2
95775.3,31415.5
Z" /> 
<path style="fill:#000000; fill-opacity:1.0; 
stroke:#000000; stroke-width:3.93701; stroke-opacity:1; 
stroke-linecap:round; stroke-linejoin:round;fill-rule:evenodd;"
d="M 93196.8,31418
93296.6,31431.9
93386.4,31462.1
93465,31507.8
93531.2,31568.2
93583.8,31642.4
93609.2,31695.5
93621.7,31740.4
93629.6,31798.6
93633.1,31863.6
93631.9,31929.3
93626,31989.2
93615.3,32037.1
93614.1,32040.5
93576.2,32118.2
93521.4,32187.6
93451.8,32246.8
93369.8,32293.5
93340.3,32305.8
93288.3,32320.1
93224.1,32329.3
93155,32333.2
93088.2,32331.4
93030.9,32323.5
93018,32320.3
92933.8,32288
92857.1,32241.4
92791.4,32183.3
92740,32116.5
92720,32079.1
92704.9,32038.6
92691.4,31989.7
92683.5,31949.1
92680.6,31893.4
92847.7,31893.4
92853.3,31951.5
92861.2,31983.5
92882.2,32027.9
92913.9,32073.4
92950.9,32113.3
92987.9,32141.1
92990.5,32142.5
93068,32172.5
93148.7,32184.4
93228.8,32178
93273.1,32165.9
93342.9,32131.6
93399.8,32082.9
93442,32021.4
93443.7,32017.9
93464.6,31956.5
93473.2,31886.7
93469.5,31816.1
93453.4,31752.1
93448.5,31740.5
93410.2,31677.9
93359.9,31628.8
93300.6,31593.2
93235.1,31571.1
93166.4,31562.8
93097.3,31568.1
93030.8,31587.2
92969.7,31620.2
92916.9,31667.1
92875.6,31727.6
92859.2,31773.9
92849.8,31831.7
92847.7,31893.4
92680.6,31893.4
92678.4,31851.7
92691.2,31759.3
92720.8,31674
92766.3,31597.8
92826.6,31532.6
92900.9,31480.3
92918.3,31471.2
92986.9,31441.8
93054.3,31424.1
93127.5,31417
Z" /> 
<path style="fill:#000000; fill-opacity:1.0; 
stroke:#000000; stroke-width:3.93701; stroke-opacity:1; 
stroke-linecap:round; stroke-linejoin:round;fill-rule:evenodd;"
d="M 92258.7,31423.6
92303.8,31433.9
92390.9,31469.5
92466.3,31519.3
92528,31581.5
92574.3,31654.4
92588,31685.9
92601.4,31722.7
92605.9,31746
92599.1,31758.8
92578.4,31764.2
92541.2,31765.5
92522.7,31765.5
92438.4,31765.5
92426.3,31728.6
92400.1,31679.1
92358.1,31635.2
92304.5,31599.6
92243.3,31574.7
92178.4,31563.2
92161.9,31562.7
92090.1,31571.6
92023.1,31596.9
91964.2,31636.3
91916.9,31687.2
91884.7,31747.5
91882.2,31754.4
91869,31816.9
91866.8,31886
91874.9,31954.5
91893,32015.1
91902,32034.1
91943.7,32093.4
91996.8,32137.5
92054.8,32165.7
92125.1,32182.6
92195.8,32182.6
92263.4,32166.8
92324.7,32136.7
92376.4,32093.6
92415,32038.6
92423.5,32020.2
92441.9,31975.6
92524.4,31975.5
92564.8,31975.8
92589.3,31977.4
92601.8,31981.5
92606.3,31989.2
92606.9,31999.2
92600.8,32028.7
92584.4,32068
92560.8,32111.9
92532.8,32155.1
92503.5,32192.5
92488.2,32208.3
92417.4,32261.5
92335.2,32301.1
92245.9,32326
92153.9,32334.7
92076.9,32328.6
92000.8,32308.6
91926.9,32275.9
91860.1,32233.4
91805.3,32184
91778.9,32150.5
91746.9,32097.6
91724.9,32048.4
91711.3,31996.9
91704.4,31937.2
91702.7,31870.5
91703.3,31815
91705.6,31774.1
91710.2,31742.2
91717.8,31714
91725.5,31693
91767.1,31614.4
91824.7,31544.9
91895.2,31487.5
91975.6,31445.3
91976.9,31444.8
92038.3,31427.5
92110.7,31418.1
92186.7,31416.7
Z" /> 
<path style="fill:#000000; fill-opacity:1.0; 
stroke:#000000; stroke-width:3.93701; stroke-opacity:1; 
stroke-linecap:round; stroke-linejoin:round;fill-rule:evenodd;"
d="M 23806.9,31361.7
23843.9,31363.2
23871.6,31366.7
23895.4,31373.3
23920.5,31383.9
23941.8,31394.2
24009.2,31436.8
24061.6,31491.6
24100,31559.6
24124.9,31641.9
24129.4,31666.5
24132.2,31694.4
24134.8,31738.8
24137,31796.1
24138.6,31862.7
24139.6,31935.2
24139.9,31994
24140,32256.5
23970,32256.5
23970,31973.3
23969.7,31883.3
23968.9,31810.9
23967.5,31754
23965.3,31710.2
23962.3,31677.2
23958.3,31652.7
23955.2,31640.4
23929.7,31585.9
23890,31545.3
23836.7,31518.9
23770.4,31507.1
23748.9,31506.5
23685,31510.6
23633.8,31524.3
23589.7,31549.8
23558.2,31577.5
23536.9,31599.9
23519.8,31621.9
23506.5,31645.8
23496.5,31674.3
23489.4,31709.7
23484.6,31754.6
23481.8,31811.5
23480.4,31882.9
23480,31971.2
23480,31993.3
23480,32256.5
23310,32256.5
23310,31366.5
23480,31366.5
23480,31468
23512.3,31435.6
23546.4,31405.8
23582.1,31384.9
23623.8,31371.4
23675.9,31364
23742.7,31361.5
23755.2,31361.5
Z" /> 
<path style="fill:#000000; fill-opacity:1.0; 
stroke:#000000; stroke-width:3.93701; stroke-opacity:1; 
stroke-linecap:round; stroke-linejoin:round;fill-rule:evenodd;"
d="M 23152.5,31352.5
23210,31359
23210,31505
23157.5,31499.6
23085,31501.6
23018.3,31522
22959.8,31559.5
22911.9,31612.7
22892.7,31644.8
22860,31708.2
22860,32256.5
22690,32256.5
22690,31365.6
22772.5,31368.6
22855,31371.5
22865,31458.8
22884.9,31436.6
22931.5,31398.6
22991.3,31370.6
23059.5,31354.1
23131.3,31350.8
Z" /> 
<path style="fill:#000000; fill-opacity:1.0; 
stroke:#000000; stroke-width:3.93701; stroke-opacity:1; 
stroke-linecap:round; stroke-linejoin:round;fill-rule:evenodd;"
d="M 24803.8,31365.5
24891.3,31391.6
24969.3,31433.2
25036.3,31488.5
25090.4,31556.1
25130.1,31634.3
25153.7,31721.5
25160,31798.6
25160,31856.5
24410,31856.5
24410,31885.2
24419,31933.7
24444,31983.9
24481.7,32031.6
24529.2,32072.5
24564.3,32093.8
24617.8,32114
24681.1,32123.9
24686.2,32124.3
24757.9,32123.3
24818.4,32108.8
24872.6,32079
24917.8,32039.9
24971.3,31986.5
25051.3,31986.5
25090.9,31986.7
25114.2,31988.2
25125,31992.2
25126.9,31999.7
25124.7,32009
25109.6,32042.7
25084.1,32083.1
25052.7,32123.9
25020.1,32158.6
25008.2,32169
24929.9,32220
24842.2,32255.2
24749.1,32273.8
24654.2,32275
24571,32260.6
24484,32227.5
24407.3,32178.7
24342.8,32116.4
24292.7,32042.4
24258.7,31958.8
24251.1,31928.5
24239.1,31830
24244.5,31735.7
24249.3,31716.5
24410.5,31716.5
24695.2,31716.5
24778.9,31716.3
24844.7,31716
24894.6,31715.2
24930.8,31713.8
24955.4,31711.9
24970.4,31709.2
24977.9,31705.7
24980,31701.2
24980,31701.1
24971.9,31668.8
24950.4,31631.2
24919.2,31592.8
24882,31558.3
24842.7,31532.4
24841.5,31531.8
24786.8,31513.1
24722.1,31504.7
24654.9,31506.7
24592.2,31518.9
24556.1,31533
24498.4,31573
24451.6,31628.7
24420,31691.4
24410.5,31716.5
24249.3,31716.5
24266.5,31647.5
24304.2,31567.6
24356.7,31497.9
24423.3,31440.4
24467.7,31413.7
24544.3,31380.6
24622,31362.2
24708.4,31356.5
Z" /> 
<path style="fill:#000000; fill-opacity:1.0; 
stroke:#000000; stroke-width:3.93701; stroke-opacity:1; 
stroke-linecap:round; stroke-linejoin:round;fill-rule:evenodd;"
d="M 22129.9,31359
22229.7,31372.9
22319.5,31403.1
22398.1,31448.8
22464.3,31509.1
22516.9,31583.4
22542.3,31636.5
22554.7,31681.4
22562.7,31739.5
22566.2,31804.6
22565,31870.2
22559.1,31930.1
22548.4,31978.1
22547.2,31981.5
22509.3,32059.1
22454.4,32128.6
22384.9,32187.7
22302.9,32234.4
22273.4,32246.8
22221.4,32261
22157.2,32270.3
22088.1,32274.1
22021.3,32272.3
21964,32264.5
21951.1,32261.3
21866.9,32228.9
21790.2,32182.3
21724.5,32124.3
21673.1,32057.5
21653,32020
21637.9,31979.6
21624.5,31930.7
21616.6,31890
21613.7,31834.3
21780.7,31834.3
21786.4,31892.5
21794.3,31924.5
21815.3,31968.9
21846.9,32014.3
21883.9,32054.2
21920.9,32082
21923.6,32083.5
22001.1,32113.4
22081.8,32125.4
22161.9,32119
22206.2,32106.9
22276,32072.6
22332.8,32023.9
22375,31962.3
22376.8,31958.8
22397.6,31897.4
22406.3,31827.7
22402.6,31757.1
22386.5,31693.1
22381.6,31681.5
22343.3,31618.9
22293,31569.7
22233.7,31534.1
22168.2,31512.1
22099.5,31503.7
22030.4,31509
21963.8,31528.2
21902.7,31561.1
21850,31608
21808.6,31668.5
21792.3,31714.9
21782.8,31772.6
21780.7,31834.3
21613.7,31834.3
21611.5,31792.6
21624.3,31700.3
21653.9,31615
21699.4,31538.7
21759.7,31473.5
21834,31421.3
21851.3,31412.1
21920,31382.7
21987.4,31365.1
22060.6,31357.9
Z" /> 
<path style="fill:#000000; fill-opacity:1.0; 
stroke:#000000; stroke-width:3.93701; stroke-opacity:1; 
stroke-linecap:round; stroke-linejoin:round;fill-rule:evenodd;"
d="M 21191.8,31364.6
21236.9,31374.8
21324,31410.5
21399.3,31460.3
21461.1,31522.4
21507.4,31595.3
21521,31626.9
21534.4,31663.7
21539,31686.9
21532.2,31699.7
21511.5,31705.2
21474.2,31706.4
21455.7,31706.5
21371.5,31706.5
21359.3,31669.6
21333.1,31620
21291.2,31576.2
21237.6,31540.6
21176.3,31515.7
21111.5,31504.1
21095,31503.6
21023.2,31512.6
20956.1,31537.9
20897.3,31577.2
20850,31628.2
20817.8,31688.4
20815.3,31695.4
20802.1,31757.8
20799.8,31826.9
20808,31895.4
20826,31956
20835.1,31975
20876.7,32034.3
20929.8,32078.5
20987.8,32106.7
21058.2,32123.6
21128.8,32123.5
21196.5,32107.8
21257.8,32077.7
21309.4,32034.5
21348.1,31979.6
21356.6,31961.2
21375,31916.5
21457.5,31916.5
21497.9,31916.8
21522.4,31918.4
21534.8,31922.4
21539.4,31930.2
21540,31940.1
21533.8,31969.6
21517.5,32009
21493.8,32052.9
21465.9,32096.1
21436.6,32133.4
21421.3,32149.3
21350.5,32202.4
21268.3,32242.1
21179,32266.9
21086.9,32275.7
21010,32269.6
20933.9,32249.6
20860,32216.9
20793.2,32174.4
20738.3,32124.9
20712,32091.4
20680,32038.5
20658,31989.3
20644.4,31937.8
20637.5,31878.1
20635.8,31811.5
20636.4,31756
20638.6,31715
20643.2,31683.2
20650.9,31654.9
20658.6,31633.9
20700.2,31555.3
20757.8,31485.8
20828.3,31428.5
20908.7,31386.3
20910,31385.7
20971.4,31368.5
21043.8,31359
21119.8,31357.6
Z" /> 
</g>
<g style="fill:#000000; fill-opacity:0.0; 
stroke:#000000; stroke-width:3.93701; stroke-opacity:1; 
stroke-linecap:round; stroke-linejoin:round;">
</g>
<g style="fill:#000000; fill-opacity:0.0; 
stroke:#000000; stroke-width:49.2126; stroke-opacity:1; 
stroke-linecap:round; stroke-linejoin:round;">
<text x="51053.9" y="12723.2"
textLength="855.315" font-size="351.706" lengthAdjust="spacingAndGlyphs"
text-anchor="middle" opacity="0">RAW</text>
<path d="M50871 12709
L50783 12568
" />
<path d="M50721 12709
L50721 12413
L50821 12413
L50846 12427
L50859 12442
L50871 12470
L50871 12512
L50859 12540
L50846 12554
L50821 12568
L50721 12568
" />
<path d="M50972 12624
L51097 12624
" />
<path d="M50947 12709
L51035 12413
L51123 12709
" />
<path d="M51185 12413
L51248 12709
L51298 12498
L51349 12709
L51411 12413
" />
<text x="55026.6" y="15706.7"
textLength="867.876" font-size="351.706" lengthAdjust="spacingAndGlyphs"
text-anchor="middle" opacity="0">GND</text>
<path d="M54825 15411
L54800 15397
L54762 15397
L54725 15411
L54699 15439
L54687 15467
L54674 15523
L54674 15566
L54687 15622
L54699 15650
L54725 15678
L54762 15692
L54787 15692
L54825 15678
L54838 15664
L54838 15566
L54787 15566
" />
<path d="M54951 15692
L54951 15397
L55101 15692
L55101 15397
" />
<path d="M55227 15692
L55227 15397
L55290 15397
L55328 15411
L55353 15439
L55365 15467
L55378 15523
L55378 15566
L55365 15622
L55353 15650
L55328 15678
L55290 15692
L55227 15692
" />
<text x="51053.9" y="14748.2"
textLength="779.949" font-size="351.706" lengthAdjust="spacingAndGlyphs"
text-anchor="middle" opacity="0">RST</text>
<path d="M50909 14734
L50821 14593
" />
<path d="M50758 14734
L50758 14438
L50859 14438
L50884 14452
L50896 14467
L50909 14495
L50909 14537
L50896 14565
L50884 14579
L50859 14593
L50758 14593
" />
<path d="M51009 14720
L51047 14734
L51110 14734
L51135 14720
L51148 14706
L51160 14677
L51160 14649
L51148 14621
L51135 14607
L51110 14593
L51060 14579
L51035 14565
L51022 14551
L51009 14523
L51009 14495
L51022 14467
L51035 14452
L51060 14438
L51123 14438
L51160 14452
" />
<path d="M51236 14438
L51386 14438
" />
<path d="M51311 14734
L51311 14438
" />
<text x="51038.4" y="15700.8"
textLength="817.632" font-size="351.706" lengthAdjust="spacingAndGlyphs"
text-anchor="middle" opacity="0">VCC</text>
<path d="M50686 15391
L50774 15686
L50862 15391
" />
<path d="M51101 15658
L51088 15672
L51050 15686
L51025 15686
L50988 15672
L50963 15644
L50950 15616
L50937 15560
L50937 15517
L50950 15461
L50963 15433
L50988 15405
L51025 15391
L51050 15391
L51088 15405
L51101 15419
" />
<path d="M51364 15658
L51352 15672
L51314 15686
L51289 15686
L51251 15672
L51226 15644
L51214 15616
L51201 15560
L51201 15517
L51214 15461
L51226 15433
L51251 15405
L51289 15391
L51314 15391
L51352 15405
L51364 15419
" />
<text x="51345.5" y="16750"
textLength="1294.95" font-size="351.706" lengthAdjust="spacingAndGlyphs"
text-anchor="middle" opacity="0">A3/F4</text>
<path d="M50780 16651
L50905 16651
" />
<path d="M50755 16735
L50843 16440
L50930 16735
" />
<path d="M50993 16440
L51157 16440
L51069 16553
L51106 16553
L51131 16567
L51144 16581
L51157 16609
L51157 16679
L51144 16707
L51131 16721
L51106 16735
L51031 16735
L51006 16721
L50993 16707
" />
<path d="M51458 16426
L51232 16806
" />
<path d="M51634 16581
L51546 16581
" />
<path d="M51546 16735
L51546 16440
L51672 16440
" />
<path d="M51885 16539
L51885 16735
" />
<path d="M51822 16426
L51759 16637
L51923 16637
" />
<text x="51345.5" y="17734.3"
textLength="1294.95" font-size="351.706" lengthAdjust="spacingAndGlyphs"
text-anchor="middle" opacity="0">A2/F5</text>
<path d="M50780 17635
L50905 17635
" />
<path d="M50755 17720
L50843 17424
L50930 17720
" />
<path d="M51006 17453
L51018 17438
L51044 17424
L51106 17424
L51131 17438
L51144 17453
L51157 17481
L51157 17509
L51144 17551
L50993 17720
L51157 17720
" />
<path d="M51458 17410
L51232 17790
" />
<path d="M51634 17565
L51546 17565
" />
<path d="M51546 17720
L51546 17424
L51672 17424
" />
<path d="M51898 17424
L51772 17424
L51759 17565
L51772 17551
L51797 17537
L51860 17537
L51885 17551
L51898 17565
L51910 17593
L51910 17663
L51898 17692
L51885 17706
L51860 17720
L51797 17720
L51772 17706
L51759 17692
" />
<text x="51345.5" y="18718.5"
textLength="1294.95" font-size="351.706" lengthAdjust="spacingAndGlyphs"
text-anchor="middle" opacity="0">A1/F6</text>
<path d="M50780 18620
L50905 18620
" />
<path d="M50755 18704
L50843 18409
L50930 18704
" />
<path d="M51157 18704
L51006 18704
" />
<path d="M51081 18704
L51081 18409
L51056 18451
L51031 18479
L51006 18493
" />
<path d="M51458 18395
L51232 18774
" />
<path d="M51634 18549
L51546 18549
" />
<path d="M51546 18704
L51546 18409
L51672 18409
" />
<path d="M51885 18409
L51835 18409
L51810 18423
L51797 18437
L51772 18479
L51759 18535
L51759 18648
L51772 18676
L51785 18690
L51810 18704
L51860 18704
L51885 18690
L51898 18676
L51910 18648
L51910 18577
L51898 18549
L51885 18535
L51860 18521
L51810 18521
L51785 18535
L51772 18549
L51759 18577
" />
<text x="51345.5" y="19722.4"
textLength="1294.95" font-size="351.706" lengthAdjust="spacingAndGlyphs"
text-anchor="middle" opacity="0">A0/F7</text>
<path d="M50780 19624
L50905 19624
" />
<path d="M50755 19708
L50843 19413
L50930 19708
" />
<path d="M51069 19413
L51094 19413
L51119 19427
L51131 19441
L51144 19469
L51157 19525
L51157 19595
L51144 19652
L51131 19680
L51119 19694
L51094 19708
L51069 19708
L51044 19694
L51031 19680
L51018 19652
L51006 19595
L51006 19525
L51018 19469
L51031 19441
L51044 19427
L51069 19413
" />
<path d="M51458 19399
L51232 19778
" />
<path d="M51634 19553
L51546 19553
" />
<path d="M51546 19708
L51546 19413
L51672 19413
" />
<path d="M51747 19413
L51923 19413
L51810 19708
" />
<text x="51345.5" y="20726.4"
textLength="1357.75" font-size="351.706" lengthAdjust="spacingAndGlyphs"
text-anchor="middle" opacity="0">15/B1</text>
<path d="M50899 20712
L50748 20712
" />
<path d="M50824 20712
L50824 20417
L50799 20459
L50773 20487
L50748 20501
" />
<path d="M51138 20417
L51012 20417
L51000 20557
L51012 20543
L51037 20529
L51100 20529
L51125 20543
L51138 20557
L51150 20585
L51150 20656
L51138 20684
L51125 20698
L51100 20712
L51037 20712
L51012 20698
L51000 20684
" />
<path d="M51452 20402
L51226 20782
" />
<path d="M51628 20557
L51665 20571
L51678 20585
L51690 20613
L51690 20656
L51678 20684
L51665 20698
L51640 20712
L51540 20712
L51540 20417
L51628 20417
L51653 20431
L51665 20445
L51678 20473
L51678 20501
L51665 20529
L51653 20543
L51628 20557
L51540 20557
" />
<path d="M51942 20712
L51791 20712
" />
<path d="M51866 20712
L51866 20417
L51841 20459
L51816 20487
L51791 20501
" />
<text x="51345.5" y="21730.3"
textLength="1357.75" font-size="351.706" lengthAdjust="spacingAndGlyphs"
text-anchor="middle" opacity="0">14/B3</text>
<path d="M50899 21716
L50748 21716
" />
<path d="M50824 21716
L50824 21420
L50799 21463
L50773 21491
L50748 21505
" />
<path d="M51125 21519
L51125 21716
" />
<path d="M51062 21406
L51000 21617
L51163 21617
" />
<path d="M51452 21406
L51226 21786
" />
<path d="M51628 21561
L51665 21575
L51678 21589
L51690 21617
L51690 21660
L51678 21688
L51665 21702
L51640 21716
L51540 21716
L51540 21420
L51628 21420
L51653 21435
L51665 21449
L51678 21477
L51678 21505
L51665 21533
L51653 21547
L51628 21561
L51540 21561
" />
<path d="M51778 21420
L51942 21420
L51854 21533
L51891 21533
L51916 21547
L51929 21561
L51942 21589
L51942 21660
L51929 21688
L51916 21702
L51891 21716
L51816 21716
L51791 21702
L51778 21688
" />
<text x="51345.5" y="23718.5"
textLength="1357.75" font-size="351.706" lengthAdjust="spacingAndGlyphs"
text-anchor="middle" opacity="0">10/B6</text>
<path d="M50899 23704
L50748 23704
" />
<path d="M50824 23704
L50824 23409
L50799 23451
L50773 23479
L50748 23493
" />
<path d="M51062 23409
L51087 23409
L51113 23423
L51125 23437
L51138 23465
L51150 23521
L51150 23591
L51138 23648
L51125 23676
L51113 23690
L51087 23704
L51062 23704
L51037 23690
L51025 23676
L51012 23648
L51000 23591
L51000 23521
L51012 23465
L51025 23437
L51037 23423
L51062 23409
" />
<path d="M51452 23395
L51226 23774
" />
<path d="M51628 23549
L51665 23563
L51678 23577
L51690 23606
L51690 23648
L51678 23676
L51665 23690
L51640 23704
L51540 23704
L51540 23409
L51628 23409
L51653 23423
L51665 23437
L51678 23465
L51678 23493
L51665 23521
L51653 23535
L51628 23549
L51540 23549
" />
<path d="M51916 23409
L51866 23409
L51841 23423
L51829 23437
L51803 23479
L51791 23535
L51791 23648
L51803 23676
L51816 23690
L51841 23704
L51891 23704
L51916 23690
L51929 23676
L51942 23648
L51942 23577
L51929 23549
L51916 23535
L51891 23521
L51841 23521
L51816 23535
L51803 23549
L51791 23577
" />
<text x="51345.5" y="22734.3"
textLength="1357.75" font-size="351.706" lengthAdjust="spacingAndGlyphs"
text-anchor="middle" opacity="0">16/B2</text>
<path d="M50899 22720
L50748 22720
" />
<path d="M50824 22720
L50824 22424
L50799 22467
L50773 22495
L50748 22509
" />
<path d="M51125 22424
L51075 22424
L51050 22438
L51037 22453
L51012 22495
L51000 22551
L51000 22663
L51012 22692
L51025 22706
L51050 22720
L51100 22720
L51125 22706
L51138 22692
L51150 22663
L51150 22593
L51138 22565
L51125 22551
L51100 22537
L51050 22537
L51025 22551
L51012 22565
L51000 22593
" />
<path d="M51452 22410
L51226 22790
" />
<path d="M51628 22565
L51665 22579
L51678 22593
L51690 22621
L51690 22663
L51678 22692
L51665 22706
L51640 22720
L51540 22720
L51540 22424
L51628 22424
L51653 22438
L51665 22453
L51678 22481
L51678 22509
L51665 22537
L51653 22551
L51628 22565
L51540 22565
" />
<path d="M51791 22453
L51803 22438
L51829 22424
L51891 22424
L51916 22438
L51929 22453
L51942 22481
L51942 22509
L51929 22551
L51778 22720
L51942 22720
" />
<text x="54928.1" y="21671.3"
textLength="1081.41" font-size="351.706" lengthAdjust="spacingAndGlyphs"
text-anchor="middle" opacity="0">E6/7</text>
<path d="M54482 21502
L54570 21502
" />
<path d="M54607 21657
L54482 21657
L54482 21361
L54607 21361
" />
<path d="M54833 21361
L54783 21361
L54758 21375
L54746 21390
L54720 21432
L54708 21488
L54708 21600
L54720 21629
L54733 21643
L54758 21657
L54808 21657
L54833 21643
L54846 21629
L54859 21600
L54859 21530
L54846 21502
L54833 21488
L54808 21474
L54758 21474
L54733 21488
L54720 21502
L54708 21530
" />
<path d="M55160 21347
L54934 21727
" />
<path d="M55223 21361
L55399 21361
L55286 21657
" />
<text x="54928.1" y="20667.3"
textLength="1106.53" font-size="351.706" lengthAdjust="spacingAndGlyphs"
text-anchor="middle" opacity="0">D7/6</text>
<path d="M54469 20653
L54469 20357
L54532 20357
L54570 20372
L54595 20400
L54607 20428
L54620 20484
L54620 20526
L54607 20582
L54595 20611
L54570 20639
L54532 20653
L54469 20653
" />
<path d="M54708 20357
L54884 20357
L54771 20653
" />
<path d="M55173 20343
L54946 20723
" />
<path d="M55374 20357
L55323 20357
L55298 20372
L55286 20386
L55261 20428
L55248 20484
L55248 20597
L55261 20625
L55273 20639
L55298 20653
L55348 20653
L55374 20639
L55386 20625
L55399 20597
L55399 20526
L55386 20498
L55374 20484
L55348 20470
L55298 20470
L55273 20484
L55261 20498
L55248 20526
" />
<text x="55026.6" y="14742.1"
textLength="867.876" font-size="351.706" lengthAdjust="spacingAndGlyphs"
text-anchor="middle" opacity="0">GND</text>
<path d="M54825 14446
L54800 14432
L54762 14432
L54725 14446
L54699 14474
L54687 14503
L54674 14559
L54674 14601
L54687 14657
L54699 14685
L54725 14714
L54762 14728
L54787 14728
L54825 14714
L54838 14699
L54838 14601
L54787 14601
" />
<path d="M54951 14728
L54951 14432
L55101 14728
L55101 14432
" />
<path d="M55227 14728
L55227 14432
L55290 14432
L55328 14446
L55353 14474
L55365 14503
L55378 14559
L55378 14601
L55365 14657
L55353 14685
L55328 14714
L55290 14728
L55227 14728
" />
<text x="55026.6" y="15706.7"
textLength="867.876" font-size="351.706" lengthAdjust="spacingAndGlyphs"
text-anchor="middle" opacity="0">GND</text>
<path d="M54825 15411
L54800 15397
L54762 15397
L54725 15411
L54699 15439
L54687 15467
L54674 15523
L54674 15566
L54687 15622
L54699 15650
L54725 15678
L54762 15692
L54787 15692
L54825 15678
L54838 15664
L54838 15566
L54787 15566
" />
<path d="M54951 15692
L54951 15397
L55101 15692
L55101 15397
" />
<path d="M55227 15692
L55227 15397
L55290 15397
L55328 15411
L55353 15439
L55365 15467
L55378 15523
L55378 15566
L55365 15622
L55353 15650
L55328 15678
L55290 15692
L55227 15692
" />
<text x="54711.6" y="12734.3"
textLength="1558.73" font-size="351.706" lengthAdjust="spacingAndGlyphs"
text-anchor="middle" opacity="0">D3/TX0</text>
<path d="M54027 12720
L54027 12424
L54089 12424
L54127 12438
L54152 12467
L54165 12495
L54177 12551
L54177 12593
L54165 12649
L54152 12678
L54127 12706
L54089 12720
L54027 12720
" />
<path d="M54265 12424
L54428 12424
L54341 12537
L54378 12537
L54403 12551
L54416 12565
L54428 12593
L54428 12663
L54416 12692
L54403 12706
L54378 12720
L54303 12720
L54278 12706
L54265 12692
" />
<path d="M54730 12410
L54504 12790
" />
<path d="M54780 12424
L54931 12424
" />
<path d="M54856 12720
L54856 12424
" />
<path d="M54994 12424
L55170 12720
" />
<path d="M55170 12424
L54994 12720
" />
<path d="M55320 12424
L55345 12424
L55371 12438
L55383 12453
L55396 12481
L55408 12537
L55408 12607
L55396 12663
L55383 12692
L55371 12706
L55345 12720
L55320 12720
L55295 12706
L55283 12692
L55270 12663
L55258 12607
L55258 12537
L55270 12481
L55283 12453
L55295 12438
L55320 12424
" />
<text x="54928.1" y="18659.4"
textLength="1106.53" font-size="351.706" lengthAdjust="spacingAndGlyphs"
text-anchor="middle" opacity="0">D4/4</text>
<path d="M54469 18645
L54469 18350
L54532 18350
L54570 18364
L54595 18392
L54607 18420
L54620 18476
L54620 18518
L54607 18575
L54595 18603
L54570 18631
L54532 18645
L54469 18645
" />
<path d="M54846 18448
L54846 18645
" />
<path d="M54783 18336
L54720 18546
L54884 18546
" />
<path d="M55173 18336
L54946 18715
" />
<path d="M55374 18448
L55374 18645
" />
<path d="M55311 18336
L55248 18546
L55411 18546
" />
<text x="54436" y="16690.9"
textLength="2123.97" font-size="351.706" lengthAdjust="spacingAndGlyphs"
text-anchor="middle" opacity="0">SDA/D1/2</text>
<path d="M53456 16662
L53493 16676
L53556 16676
L53581 16662
L53594 16648
L53607 16620
L53607 16592
L53594 16564
L53581 16550
L53556 16536
L53506 16522
L53481 16508
L53468 16494
L53456 16465
L53456 16437
L53468 16409
L53481 16395
L53506 16381
L53569 16381
L53607 16395
" />
<path d="M53720 16676
L53720 16381
L53782 16381
L53820 16395
L53845 16423
L53858 16451
L53870 16508
L53870 16550
L53858 16606
L53845 16634
L53820 16662
L53782 16676
L53720 16676
" />
<path d="M53971 16592
L54096 16592
" />
<path d="M53946 16676
L54034 16381
L54122 16676
" />
<path d="M54398 16367
L54172 16747
" />
<path d="M54486 16676
L54486 16381
L54549 16381
L54586 16395
L54611 16423
L54624 16451
L54636 16508
L54636 16550
L54624 16606
L54611 16634
L54586 16662
L54549 16676
L54486 16676
" />
<path d="M54888 16676
L54737 16676
" />
<path d="M54812 16676
L54812 16381
L54787 16423
L54762 16451
L54737 16465
" />
<path d="M55189 16367
L54963 16747
" />
<path d="M55265 16409
L55277 16395
L55302 16381
L55365 16381
L55390 16395
L55403 16409
L55415 16437
L55415 16465
L55403 16508
L55252 16676
L55415 16676
" />
<text x="54436" y="17675.2"
textLength="2111.41" font-size="351.706" lengthAdjust="spacingAndGlyphs"
text-anchor="middle" opacity="0">SCL/D0/3</text>
<path d="M53462 17647
L53500 17661
L53563 17661
L53588 17647
L53600 17633
L53613 17604
L53613 17576
L53600 17548
L53588 17534
L53563 17520
L53512 17506
L53487 17492
L53475 17478
L53462 17450
L53462 17422
L53475 17393
L53487 17379
L53512 17365
L53575 17365
L53613 17379
" />
<path d="M53877 17633
L53864 17647
L53826 17661
L53801 17661
L53764 17647
L53738 17618
L53726 17590
L53713 17534
L53713 17492
L53726 17436
L53738 17408
L53764 17379
L53801 17365
L53826 17365
L53864 17379
L53877 17393
" />
<path d="M54115 17661
L53990 17661
L53990 17365
" />
<path d="M54392 17351
L54165 17731
" />
<path d="M54479 17661
L54479 17365
L54542 17365
L54580 17379
L54605 17408
L54618 17436
L54630 17492
L54630 17534
L54618 17590
L54605 17618
L54580 17647
L54542 17661
L54479 17661
" />
<path d="M54794 17365
L54819 17365
L54844 17379
L54856 17393
L54869 17422
L54881 17478
L54881 17548
L54869 17604
L54856 17633
L54844 17647
L54819 17661
L54794 17661
L54768 17647
L54756 17633
L54743 17604
L54731 17548
L54731 17478
L54743 17422
L54756 17393
L54768 17379
L54794 17365
" />
<path d="M55183 17351
L54957 17731
" />
<path d="M55246 17365
L55409 17365
L55321 17478
L55359 17478
L55384 17492
L55396 17506
L55409 17534
L55409 17604
L55396 17633
L55384 17647
L55359 17661
L55283 17661
L55258 17647
L55246 17633
" />
<text x="54928.1" y="19663.4"
textLength="1106.53" font-size="351.706" lengthAdjust="spacingAndGlyphs"
text-anchor="middle" opacity="0">C6/5</text>
<path d="M54620 19621
L54607 19635
L54570 19649
L54545 19649
L54507 19635
L54482 19607
L54469 19579
L54457 19522
L54457 19480
L54469 19424
L54482 19396
L54507 19368
L54545 19354
L54570 19354
L54607 19368
L54620 19382
" />
<path d="M54846 19354
L54796 19354
L54771 19368
L54758 19382
L54733 19424
L54720 19480
L54720 19593
L54733 19621
L54746 19635
L54771 19649
L54821 19649
L54846 19635
L54859 19621
L54871 19593
L54871 19522
L54859 19494
L54846 19480
L54821 19466
L54771 19466
L54746 19480
L54733 19494
L54720 19522
" />
<path d="M55173 19339
L54946 19719
" />
<path d="M55386 19354
L55261 19354
L55248 19494
L55261 19480
L55286 19466
L55348 19466
L55374 19480
L55386 19494
L55399 19522
L55399 19593
L55386 19621
L55374 19635
L55348 19649
L55286 19649
L55261 19635
L55248 19621
" />
<text x="54928.1" y="23659.4"
textLength="1106.53" font-size="351.706" lengthAdjust="spacingAndGlyphs"
text-anchor="middle" opacity="0">B5/9</text>
<path d="M54557 23490
L54595 23504
L54607 23518
L54620 23546
L54620 23589
L54607 23617
L54595 23631
L54570 23645
L54469 23645
L54469 23350
L54557 23350
L54582 23364
L54595 23378
L54607 23406
L54607 23434
L54595 23462
L54582 23476
L54557 23490
L54469 23490
" />
<path d="M54859 23350
L54733 23350
L54720 23490
L54733 23476
L54758 23462
L54821 23462
L54846 23476
L54859 23490
L54871 23518
L54871 23589
L54859 23617
L54846 23631
L54821 23645
L54758 23645
L54733 23631
L54720 23617
" />
<path d="M55173 23336
L54946 23715
" />
<path d="M55273 23645
L55323 23645
L55348 23631
L55361 23617
L55386 23575
L55399 23518
L55399 23406
L55386 23378
L55374 23364
L55348 23350
L55298 23350
L55273 23364
L55261 23378
L55248 23406
L55248 23476
L55261 23504
L55273 23518
L55298 23532
L55348 23532
L55374 23518
L55386 23504
L55399 23476
" />
<text x="54711.6" y="13738.2"
textLength="1621.53" font-size="351.706" lengthAdjust="spacingAndGlyphs"
text-anchor="middle" opacity="0">D2/RX1</text>
<path d="M53995 13724
L53995 13428
L54058 13428
L54096 13442
L54121 13471
L54133 13499
L54146 13555
L54146 13597
L54133 13653
L54121 13681
L54096 13710
L54058 13724
L53995 13724
" />
<path d="M54246 13456
L54259 13442
L54284 13428
L54347 13428
L54372 13442
L54385 13456
L54397 13485
L54397 13513
L54385 13555
L54234 13724
L54397 13724
" />
<path d="M54699 13414
L54472 13794
" />
<path d="M54937 13724
L54849 13583
" />
<path d="M54786 13724
L54786 13428
L54887 13428
L54912 13442
L54925 13456
L54937 13485
L54937 13527
L54925 13555
L54912 13569
L54887 13583
L54786 13583
" />
<path d="M55025 13428
L55201 13724
" />
<path d="M55201 13428
L55025 13724
" />
<path d="M55440 13724
L55289 13724
" />
<path d="M55364 13724
L55364 13428
L55339 13471
L55314 13499
L55289 13513
" />
<text x="54928.1" y="22675.2"
textLength="1106.53" font-size="351.706" lengthAdjust="spacingAndGlyphs"
text-anchor="middle" opacity="0">B4/8</text>
<path d="M54557 22506
L54595 22520
L54607 22534
L54620 22562
L54620 22604
L54607 22633
L54595 22647
L54570 22661
L54469 22661
L54469 22365
L54557 22365
L54582 22379
L54595 22393
L54607 22422
L54607 22450
L54595 22478
L54582 22492
L54557 22506
L54469 22506
" />
<path d="M54846 22464
L54846 22661
" />
<path d="M54783 22351
L54720 22562
L54884 22562
" />
<path d="M55173 22351
L54946 22731
" />
<path d="M55298 22492
L55273 22478
L55261 22464
L55248 22436
L55248 22422
L55261 22393
L55273 22379
L55298 22365
L55348 22365
L55374 22379
L55386 22393
L55399 22422
L55399 22436
L55386 22464
L55374 22478
L55348 22492
L55298 22492
L55273 22506
L55261 22520
L55248 22548
L55248 22604
L55261 22633
L55273 22647
L55298 22661
L55348 22661
L55374 22647
L55386 22633
L55399 22604
L55399 22548
L55386 22520
L55374 22506
L55348 22492
" />
<text x="53056.1" y="10962.6"
textLength="1910.43" font-size="351.706" lengthAdjust="spacingAndGlyphs"
text-anchor="middle" opacity="0">MicroUSB</text>
<path d="M52195 10948
L52195 10653
L52283 10864
L52371 10653
L52371 10948
" />
<path d="M52497 10948
L52497 10751
" />
<path d="M52497 10653
L52484 10667
L52497 10681
L52509 10667
L52497 10653
L52497 10681
" />
<path d="M52735 10934
L52710 10948
L52660 10948
L52635 10934
L52622 10920
L52610 10892
L52610 10807
L52622 10779
L52635 10765
L52660 10751
L52710 10751
L52735 10765
" />
<path d="M52848 10948
L52848 10751
" />
<path d="M52848 10807
L52861 10779
L52873 10765
L52899 10751
L52924 10751
" />
<path d="M53049 10948
L53024 10934
L53012 10920
L52999 10892
L52999 10807
L53012 10779
L53024 10765
L53049 10751
L53087 10751
L53112 10765
L53125 10779
L53137 10807
L53137 10892
L53125 10920
L53112 10934
L53087 10948
L53049 10948
" />
<path d="M53250 10653
L53250 10892
L53263 10920
L53275 10934
L53301 10948
L53351 10948
L53376 10934
L53388 10920
L53401 10892
L53401 10653
" />
<path d="M53514 10934
L53552 10948
L53615 10948
L53640 10934
L53652 10920
L53665 10892
L53665 10864
L53652 10836
L53640 10821
L53615 10807
L53564 10793
L53539 10779
L53527 10765
L53514 10737
L53514 10709
L53527 10681
L53539 10667
L53564 10653
L53627 10653
L53665 10667
" />
<path d="M53866 10793
L53903 10807
L53916 10821
L53929 10850
L53929 10892
L53916 10920
L53903 10934
L53878 10948
L53778 10948
L53778 10653
L53866 10653
L53891 10667
L53903 10681
L53916 10709
L53916 10737
L53903 10765
L53891 10779
L53866 10793
L53778 10793
" />
<text x="53056.1" y="10962.6"
textLength="1910.43" font-size="351.706" lengthAdjust="spacingAndGlyphs"
text-anchor="middle" opacity="0">MicroUSB</text>
<path d="M52195 10948
L52195 10653
L52283 10864
L52371 10653
L52371 10948
" />
<path d="M52497 10948
L52497 10751
" />
<path d="M52497 10653
L52484 10667
L52497 10681
L52509 10667
L52497 10653
L52497 10681
" />
<path d="M52735 10934
L52710 10948
L52660 10948
L52635 10934
L52622 10920
L52610 10892
L52610 10807
L52622 10779
L52635 10765
L52660 10751
L52710 10751
L52735 10765
" />
<path d="M52848 10948
L52848 10751
" />
<path d="M52848 10807
L52861 10779
L52873 10765
L52899 10751
L52924 10751
" />
<path d="M53049 10948
L53024 10934
L53012 10920
L52999 10892
L52999 10807
L53012 10779
L53024 10765
L53049 10751
L53087 10751
L53112 10765
L53125 10779
L53137 10807
L53137 10892
L53125 10920
L53112 10934
L53087 10948
L53049 10948
" />
<path d="M53250 10653
L53250 10892
L53263 10920
L53275 10934
L53301 10948
L53351 10948
L53376 10934
L53388 10920
L53401 10892
L53401 10653
" />
<path d="M53514 10934
L53552 10948
L53615 10948
L53640 10934
L53652 10920
L53665 10892
L53665 10864
L53652 10836
L53640 10821
L53615 10807
L53564 10793
L53539 10779
L53527 10765
L53514 10737
L53514 10709
L53527 10681
L53539 10667
L53564 10653
L53627 10653
L53665 10667
" />
<path d="M53866 10793
L53903 10807
L53916 10821
L53929 10850
L53929 10892
L53916 10920
L53903 10934
L53878 10948
L53778 10948
L53778 10653
L53866 10653
L53891 10667
L53903 10681
L53916 10709
L53916 10737
L53903 10765
L53891 10779
L53866 10793
L53778 10793
" />
<text x="51062" y="13722.4"
textLength="867.876" font-size="351.706" lengthAdjust="spacingAndGlyphs"
text-anchor="middle" opacity="0">GND</text>
<path d="M50861 13427
L50835 13413
L50798 13413
L50760 13427
L50735 13455
L50722 13483
L50710 13539
L50710 13581
L50722 13638
L50735 13666
L50760 13694
L50798 13708
L50823 13708
L50861 13694
L50873 13680
L50873 13581
L50823 13581
" />
<path d="M50986 13708
L50986 13413
L51137 13708
L51137 13413
" />
<path d="M51262 13708
L51262 13413
L51325 13413
L51363 13427
L51388 13455
L51401 13483
L51413 13539
L51413 13581
L51401 13638
L51388 13666
L51363 13694
L51325 13708
L51262 13708
" />
<text x="61674" y="12790.2"
textLength="855.315" font-size="351.706" lengthAdjust="spacingAndGlyphs"
text-anchor="middle" opacity="0">RAW</text>
<path d="M61491 12776
L61403 12635
" />
<path d="M61341 12776
L61341 12480
L61441 12480
L61466 12494
L61479 12508
L61491 12537
L61491 12579
L61479 12607
L61466 12621
L61441 12635
L61341 12635
" />
<path d="M61592 12691
L61717 12691
" />
<path d="M61567 12776
L61655 12480
L61743 12776
" />
<path d="M61805 12480
L61868 12776
L61918 12565
L61969 12776
L62032 12480
" />
<text x="65725.4" y="15694.9"
textLength="867.876" font-size="351.706" lengthAdjust="spacingAndGlyphs"
text-anchor="middle" opacity="0">GND</text>
<path d="M65524 15399
L65499 15385
L65461 15385
L65423 15399
L65398 15427
L65386 15455
L65373 15512
L65373 15554
L65386 15610
L65398 15638
L65423 15666
L65461 15680
L65486 15680
L65524 15666
L65536 15652
L65536 15554
L65486 15554
" />
<path d="M65650 15680
L65650 15385
L65800 15680
L65800 15385
" />
<path d="M65926 15680
L65926 15385
L65989 15385
L66026 15399
L66051 15427
L66064 15455
L66077 15512
L66077 15554
L66064 15610
L66051 15638
L66026 15666
L65989 15680
L65926 15680
" />
<text x="61674" y="14815.2"
textLength="779.949" font-size="351.706" lengthAdjust="spacingAndGlyphs"
text-anchor="middle" opacity="0">RST</text>
<path d="M61529 14801
L61441 14660
" />
<path d="M61378 14801
L61378 14505
L61479 14505
L61504 14519
L61517 14533
L61529 14562
L61529 14604
L61517 14632
L61504 14646
L61479 14660
L61378 14660
" />
<path d="M61630 14787
L61667 14801
L61730 14801
L61755 14787
L61768 14772
L61780 14744
L61780 14716
L61768 14688
L61755 14674
L61730 14660
L61680 14646
L61655 14632
L61642 14618
L61630 14590
L61630 14562
L61642 14533
L61655 14519
L61680 14505
L61743 14505
L61780 14519
" />
<path d="M61856 14505
L62006 14505
" />
<path d="M61931 14801
L61931 14505
" />
<text x="61674" y="15790.2"
textLength="817.632" font-size="351.706" lengthAdjust="spacingAndGlyphs"
text-anchor="middle" opacity="0">VCC</text>
<path d="M61322 15480
L61410 15776
L61498 15480
" />
<path d="M61736 15747
L61724 15762
L61686 15776
L61661 15776
L61623 15762
L61598 15733
L61586 15705
L61573 15649
L61573 15607
L61586 15551
L61598 15523
L61623 15494
L61661 15480
L61686 15480
L61724 15494
L61736 15508
" />
<path d="M62000 15747
L61988 15762
L61950 15776
L61925 15776
L61887 15762
L61862 15733
L61849 15705
L61837 15649
L61837 15607
L61849 15551
L61862 15523
L61887 15494
L61925 15480
L61950 15480
L61988 15494
L62000 15508
" />
<text x="62044.3" y="16738.2"
textLength="1294.95" font-size="351.706" lengthAdjust="spacingAndGlyphs"
text-anchor="middle" opacity="0">A3/F4</text>
<path d="M61479 16639
L61604 16639
" />
<path d="M61453 16724
L61541 16428
L61629 16724
" />
<path d="M61692 16428
L61855 16428
L61767 16541
L61805 16541
L61830 16555
L61843 16569
L61855 16597
L61855 16667
L61843 16696
L61830 16710
L61805 16724
L61730 16724
L61705 16710
L61692 16696
" />
<path d="M62157 16414
L61931 16794
" />
<path d="M62333 16569
L62245 16569
" />
<path d="M62245 16724
L62245 16428
L62370 16428
" />
<path d="M62584 16527
L62584 16724
" />
<path d="M62521 16414
L62458 16625
L62622 16625
" />
<text x="62044.3" y="17722.4"
textLength="1294.95" font-size="351.706" lengthAdjust="spacingAndGlyphs"
text-anchor="middle" opacity="0">A2/F5</text>
<path d="M61479 17624
L61604 17624
" />
<path d="M61453 17708
L61541 17413
L61629 17708
" />
<path d="M61705 17441
L61717 17427
L61742 17413
L61805 17413
L61830 17427
L61843 17441
L61855 17469
L61855 17497
L61843 17539
L61692 17708
L61855 17708
" />
<path d="M62157 17399
L61931 17778
" />
<path d="M62333 17553
L62245 17553
" />
<path d="M62245 17708
L62245 17413
L62370 17413
" />
<path d="M62596 17413
L62471 17413
L62458 17553
L62471 17539
L62496 17525
L62559 17525
L62584 17539
L62596 17553
L62609 17581
L62609 17652
L62596 17680
L62584 17694
L62559 17708
L62496 17708
L62471 17694
L62458 17680
" />
<text x="62044.3" y="18706.7"
textLength="1294.95" font-size="351.706" lengthAdjust="spacingAndGlyphs"
text-anchor="middle" opacity="0">A1/F6</text>
<path d="M61479 18608
L61604 18608
" />
<path d="M61453 18692
L61541 18397
L61629 18692
" />
<path d="M61855 18692
L61705 18692
" />
<path d="M61780 18692
L61780 18397
L61755 18439
L61730 18467
L61705 18481
" />
<path d="M62157 18383
L61931 18762
" />
<path d="M62333 18537
L62245 18537
" />
<path d="M62245 18692
L62245 18397
L62370 18397
" />
<path d="M62584 18397
L62534 18397
L62509 18411
L62496 18425
L62471 18467
L62458 18523
L62458 18636
L62471 18664
L62483 18678
L62509 18692
L62559 18692
L62584 18678
L62596 18664
L62609 18636
L62609 18566
L62596 18537
L62584 18523
L62559 18509
L62509 18509
L62483 18523
L62471 18537
L62458 18566
" />
<text x="62044.3" y="19710.6"
textLength="1294.95" font-size="351.706" lengthAdjust="spacingAndGlyphs"
text-anchor="middle" opacity="0">A0/F7</text>
<path d="M61479 19612
L61604 19612
" />
<path d="M61453 19696
L61541 19401
L61629 19696
" />
<path d="M61767 19401
L61793 19401
L61818 19415
L61830 19429
L61843 19457
L61855 19513
L61855 19584
L61843 19640
L61830 19668
L61818 19682
L61793 19696
L61767 19696
L61742 19682
L61730 19668
L61717 19640
L61705 19584
L61705 19513
L61717 19457
L61730 19429
L61742 19415
L61767 19401
" />
<path d="M62157 19387
L61931 19766
" />
<path d="M62333 19541
L62245 19541
" />
<path d="M62245 19696
L62245 19401
L62370 19401
" />
<path d="M62446 19401
L62622 19401
L62509 19696
" />
<text x="62044.3" y="20714.6"
textLength="1357.75" font-size="351.706" lengthAdjust="spacingAndGlyphs"
text-anchor="middle" opacity="0">15/B1</text>
<path d="M61598 20700
L61447 20700
" />
<path d="M61523 20700
L61523 20405
L61497 20447
L61472 20475
L61447 20489
" />
<path d="M61837 20405
L61711 20405
L61698 20545
L61711 20531
L61736 20517
L61799 20517
L61824 20531
L61837 20545
L61849 20573
L61849 20644
L61837 20672
L61824 20686
L61799 20700
L61736 20700
L61711 20686
L61698 20672
" />
<path d="M62151 20391
L61924 20770
" />
<path d="M62326 20545
L62364 20559
L62377 20573
L62389 20602
L62389 20644
L62377 20672
L62364 20686
L62339 20700
L62238 20700
L62238 20405
L62326 20405
L62352 20419
L62364 20433
L62377 20461
L62377 20489
L62364 20517
L62352 20531
L62326 20545
L62238 20545
" />
<path d="M62640 20700
L62490 20700
" />
<path d="M62565 20700
L62565 20405
L62540 20447
L62515 20475
L62490 20489
" />
<text x="62044.3" y="21718.5"
textLength="1357.75" font-size="351.706" lengthAdjust="spacingAndGlyphs"
text-anchor="middle" opacity="0">14/B3</text>
<path d="M61598 21704
L61447 21704
" />
<path d="M61523 21704
L61523 21409
L61497 21451
L61472 21479
L61447 21493
" />
<path d="M61824 21507
L61824 21704
" />
<path d="M61761 21395
L61698 21606
L61862 21606
" />
<path d="M62151 21395
L61924 21774
" />
<path d="M62326 21549
L62364 21563
L62377 21577
L62389 21606
L62389 21648
L62377 21676
L62364 21690
L62339 21704
L62238 21704
L62238 21409
L62326 21409
L62352 21423
L62364 21437
L62377 21465
L62377 21493
L62364 21521
L62352 21535
L62326 21549
L62238 21549
" />
<path d="M62477 21409
L62640 21409
L62553 21521
L62590 21521
L62615 21535
L62628 21549
L62640 21577
L62640 21648
L62628 21676
L62615 21690
L62590 21704
L62515 21704
L62490 21690
L62477 21676
" />
<text x="62044.3" y="23706.7"
textLength="1357.75" font-size="351.706" lengthAdjust="spacingAndGlyphs"
text-anchor="middle" opacity="0">10/B6</text>
<path d="M61598 23692
L61447 23692
" />
<path d="M61523 23692
L61523 23397
L61497 23439
L61472 23467
L61447 23481
" />
<path d="M61761 23397
L61786 23397
L61811 23411
L61824 23425
L61837 23453
L61849 23509
L61849 23580
L61837 23636
L61824 23664
L61811 23678
L61786 23692
L61761 23692
L61736 23678
L61723 23664
L61711 23636
L61698 23580
L61698 23509
L61711 23453
L61723 23425
L61736 23411
L61761 23397
" />
<path d="M62151 23383
L61924 23762
" />
<path d="M62326 23537
L62364 23552
L62377 23566
L62389 23594
L62389 23636
L62377 23664
L62364 23678
L62339 23692
L62238 23692
L62238 23397
L62326 23397
L62352 23411
L62364 23425
L62377 23453
L62377 23481
L62364 23509
L62352 23523
L62326 23537
L62238 23537
" />
<path d="M62615 23397
L62565 23397
L62540 23411
L62527 23425
L62502 23467
L62490 23523
L62490 23636
L62502 23664
L62515 23678
L62540 23692
L62590 23692
L62615 23678
L62628 23664
L62640 23636
L62640 23566
L62628 23537
L62615 23523
L62590 23509
L62540 23509
L62515 23523
L62502 23537
L62490 23566
" />
<text x="62044.3" y="22722.4"
textLength="1357.75" font-size="351.706" lengthAdjust="spacingAndGlyphs"
text-anchor="middle" opacity="0">16/B2</text>
<path d="M61598 22708
L61447 22708
" />
<path d="M61523 22708
L61523 22413
L61497 22455
L61472 22483
L61447 22497
" />
<path d="M61824 22413
L61774 22413
L61749 22427
L61736 22441
L61711 22483
L61698 22539
L61698 22652
L61711 22680
L61723 22694
L61749 22708
L61799 22708
L61824 22694
L61837 22680
L61849 22652
L61849 22581
L61837 22553
L61824 22539
L61799 22525
L61749 22525
L61723 22539
L61711 22553
L61698 22581
" />
<path d="M62151 22399
L61924 22778
" />
<path d="M62326 22553
L62364 22567
L62377 22581
L62389 22609
L62389 22652
L62377 22680
L62364 22694
L62339 22708
L62238 22708
L62238 22413
L62326 22413
L62352 22427
L62364 22441
L62377 22469
L62377 22497
L62364 22525
L62352 22539
L62326 22553
L62238 22553
" />
<path d="M62490 22441
L62502 22427
L62527 22413
L62590 22413
L62615 22427
L62628 22441
L62640 22469
L62640 22497
L62628 22539
L62477 22708
L62640 22708
" />
<text x="65627" y="21659.4"
textLength="1081.41" font-size="351.706" lengthAdjust="spacingAndGlyphs"
text-anchor="middle" opacity="0">E6/7</text>
<path d="M65181 21490
L65268 21490
" />
<path d="M65306 21645
L65181 21645
L65181 21350
L65306 21350
" />
<path d="M65532 21350
L65482 21350
L65457 21364
L65444 21378
L65419 21420
L65407 21476
L65407 21589
L65419 21617
L65432 21631
L65457 21645
L65507 21645
L65532 21631
L65545 21617
L65557 21589
L65557 21518
L65545 21490
L65532 21476
L65507 21462
L65457 21462
L65432 21476
L65419 21490
L65407 21518
" />
<path d="M65859 21336
L65633 21715
" />
<path d="M65922 21350
L66098 21350
L65984 21645
" />
<text x="65627" y="20655.5"
textLength="1106.53" font-size="351.706" lengthAdjust="spacingAndGlyphs"
text-anchor="middle" opacity="0">D7/6</text>
<path d="M65168 20641
L65168 20346
L65231 20346
L65268 20360
L65294 20388
L65306 20416
L65319 20472
L65319 20514
L65306 20571
L65294 20599
L65268 20627
L65231 20641
L65168 20641
" />
<path d="M65407 20346
L65583 20346
L65469 20641
" />
<path d="M65871 20332
L65645 20711
" />
<path d="M66072 20346
L66022 20346
L65997 20360
L65984 20374
L65959 20416
L65947 20472
L65947 20585
L65959 20613
L65972 20627
L65997 20641
L66047 20641
L66072 20627
L66085 20613
L66098 20585
L66098 20514
L66085 20486
L66072 20472
L66047 20458
L65997 20458
L65972 20472
L65959 20486
L65947 20514
" />
<text x="65725.4" y="14730.3"
textLength="867.876" font-size="351.706" lengthAdjust="spacingAndGlyphs"
text-anchor="middle" opacity="0">GND</text>
<path d="M65524 14435
L65499 14420
L65461 14420
L65423 14435
L65398 14463
L65386 14491
L65373 14547
L65373 14589
L65386 14645
L65398 14674
L65423 14702
L65461 14716
L65486 14716
L65524 14702
L65536 14688
L65536 14589
L65486 14589
" />
<path d="M65650 14716
L65650 14420
L65800 14716
L65800 14420
" />
<path d="M65926 14716
L65926 14420
L65989 14420
L66026 14435
L66051 14463
L66064 14491
L66077 14547
L66077 14589
L66064 14645
L66051 14674
L66026 14702
L65989 14716
L65926 14716
" />
<text x="65725.4" y="15694.9"
textLength="867.876" font-size="351.706" lengthAdjust="spacingAndGlyphs"
text-anchor="middle" opacity="0">GND</text>
<path d="M65524 15399
L65499 15385
L65461 15385
L65423 15399
L65398 15427
L65386 15455
L65373 15512
L65373 15554
L65386 15610
L65398 15638
L65423 15666
L65461 15680
L65486 15680
L65524 15666
L65536 15652
L65536 15554
L65486 15554
" />
<path d="M65650 15680
L65650 15385
L65800 15680
L65800 15385
" />
<path d="M65926 15680
L65926 15385
L65989 15385
L66026 15399
L66051 15427
L66064 15455
L66077 15512
L66077 15554
L66064 15610
L66051 15638
L66026 15666
L65989 15680
L65926 15680
" />
<text x="65410.4" y="12722.4"
textLength="1558.73" font-size="351.706" lengthAdjust="spacingAndGlyphs"
text-anchor="middle" opacity="0">D3/TX0</text>
<path d="M64725 12708
L64725 12413
L64788 12413
L64826 12427
L64851 12455
L64864 12483
L64876 12539
L64876 12581
L64864 12638
L64851 12666
L64826 12694
L64788 12708
L64725 12708
" />
<path d="M64964 12413
L65127 12413
L65039 12525
L65077 12525
L65102 12539
L65115 12553
L65127 12581
L65127 12652
L65115 12680
L65102 12694
L65077 12708
L65002 12708
L64977 12694
L64964 12680
" />
<path d="M65429 12399
L65203 12778
" />
<path d="M65479 12413
L65630 12413
" />
<path d="M65554 12708
L65554 12413
" />
<path d="M65693 12413
L65868 12708
" />
<path d="M65868 12413
L65693 12708
" />
<path d="M66019 12413
L66044 12413
L66069 12427
L66082 12441
L66095 12469
L66107 12525
L66107 12595
L66095 12652
L66082 12680
L66069 12694
L66044 12708
L66019 12708
L65994 12694
L65981 12680
L65969 12652
L65956 12595
L65956 12525
L65969 12469
L65981 12441
L65994 12427
L66019 12413
" />
<text x="65627" y="18647.6"
textLength="1106.53" font-size="351.706" lengthAdjust="spacingAndGlyphs"
text-anchor="middle" opacity="0">D4/4</text>
<path d="M65168 18633
L65168 18338
L65231 18338
L65268 18352
L65294 18380
L65306 18408
L65319 18464
L65319 18507
L65306 18563
L65294 18591
L65268 18619
L65231 18633
L65168 18633
" />
<path d="M65545 18436
L65545 18633
" />
<path d="M65482 18324
L65419 18535
L65583 18535
" />
<path d="M65871 18324
L65645 18703
" />
<path d="M66072 18436
L66072 18633
" />
<path d="M66010 18324
L65947 18535
L66110 18535
" />
<text x="65134.8" y="16679.1"
textLength="2123.97" font-size="351.706" lengthAdjust="spacingAndGlyphs"
text-anchor="middle" opacity="0">SDA/D1/2</text>
<path d="M64155 16651
L64192 16665
L64255 16665
L64280 16651
L64293 16636
L64305 16608
L64305 16580
L64293 16552
L64280 16538
L64255 16524
L64205 16510
L64180 16496
L64167 16482
L64155 16454
L64155 16426
L64167 16397
L64180 16383
L64205 16369
L64268 16369
L64305 16383
" />
<path d="M64418 16665
L64418 16369
L64481 16369
L64519 16383
L64544 16411
L64557 16440
L64569 16496
L64569 16538
L64557 16594
L64544 16622
L64519 16651
L64481 16665
L64418 16665
" />
<path d="M64670 16580
L64795 16580
" />
<path d="M64644 16665
L64732 16369
L64820 16665
" />
<path d="M65097 16355
L64871 16735
" />
<path d="M65185 16665
L65185 16369
L65247 16369
L65285 16383
L65310 16411
L65323 16440
L65335 16496
L65335 16538
L65323 16594
L65310 16622
L65285 16651
L65247 16665
L65185 16665
" />
<path d="M65587 16665
L65436 16665
" />
<path d="M65511 16665
L65511 16369
L65486 16411
L65461 16440
L65436 16454
" />
<path d="M65888 16355
L65662 16735
" />
<path d="M65963 16397
L65976 16383
L66001 16369
L66064 16369
L66089 16383
L66102 16397
L66114 16426
L66114 16454
L66102 16496
L65951 16665
L66114 16665
" />
<text x="65134.8" y="17663.4"
textLength="2111.41" font-size="351.706" lengthAdjust="spacingAndGlyphs"
text-anchor="middle" opacity="0">SCL/D0/3</text>
<path d="M64161 17635
L64199 17649
L64261 17649
L64286 17635
L64299 17621
L64312 17593
L64312 17564
L64299 17536
L64286 17522
L64261 17508
L64211 17494
L64186 17480
L64173 17466
L64161 17438
L64161 17410
L64173 17382
L64186 17368
L64211 17354
L64274 17354
L64312 17368
" />
<path d="M64575 17621
L64563 17635
L64525 17649
L64500 17649
L64462 17635
L64437 17607
L64425 17579
L64412 17522
L64412 17480
L64425 17424
L64437 17396
L64462 17368
L64500 17354
L64525 17354
L64563 17368
L64575 17382
" />
<path d="M64814 17649
L64688 17649
L64688 17354
" />
<path d="M65090 17339
L64864 17719
" />
<path d="M65178 17649
L65178 17354
L65241 17354
L65279 17368
L65304 17396
L65316 17424
L65329 17480
L65329 17522
L65316 17579
L65304 17607
L65279 17635
L65241 17649
L65178 17649
" />
<path d="M65492 17354
L65517 17354
L65543 17368
L65555 17382
L65568 17410
L65580 17466
L65580 17536
L65568 17593
L65555 17621
L65543 17635
L65517 17649
L65492 17649
L65467 17635
L65455 17621
L65442 17593
L65430 17536
L65430 17466
L65442 17410
L65455 17382
L65467 17368
L65492 17354
" />
<path d="M65882 17339
L65656 17719
" />
<path d="M65945 17354
L66108 17354
L66020 17466
L66058 17466
L66083 17480
L66095 17494
L66108 17522
L66108 17593
L66095 17621
L66083 17635
L66058 17649
L65982 17649
L65957 17635
L65945 17621
" />
<text x="65627" y="19651.6"
textLength="1106.53" font-size="351.706" lengthAdjust="spacingAndGlyphs"
text-anchor="middle" opacity="0">C6/5</text>
<path d="M65319 19609
L65306 19623
L65268 19637
L65243 19637
L65206 19623
L65181 19595
L65168 19567
L65155 19510
L65155 19468
L65168 19412
L65181 19384
L65206 19356
L65243 19342
L65268 19342
L65306 19356
L65319 19370
" />
<path d="M65545 19342
L65495 19342
L65469 19356
L65457 19370
L65432 19412
L65419 19468
L65419 19581
L65432 19609
L65444 19623
L65469 19637
L65520 19637
L65545 19623
L65557 19609
L65570 19581
L65570 19510
L65557 19482
L65545 19468
L65520 19454
L65469 19454
L65444 19468
L65432 19482
L65419 19510
" />
<path d="M65871 19328
L65645 19707
" />
<path d="M66085 19342
L65959 19342
L65947 19482
L65959 19468
L65984 19454
L66047 19454
L66072 19468
L66085 19482
L66098 19510
L66098 19581
L66085 19609
L66072 19623
L66047 19637
L65984 19637
L65959 19623
L65947 19609
" />
<text x="65627" y="23647.6"
textLength="1106.53" font-size="351.706" lengthAdjust="spacingAndGlyphs"
text-anchor="middle" opacity="0">B5/9</text>
<path d="M65256 23478
L65294 23492
L65306 23507
L65319 23535
L65319 23577
L65306 23605
L65294 23619
L65268 23633
L65168 23633
L65168 23338
L65256 23338
L65281 23352
L65294 23366
L65306 23394
L65306 23422
L65294 23450
L65281 23464
L65256 23478
L65168 23478
" />
<path d="M65557 23338
L65432 23338
L65419 23478
L65432 23464
L65457 23450
L65520 23450
L65545 23464
L65557 23478
L65570 23507
L65570 23577
L65557 23605
L65545 23619
L65520 23633
L65457 23633
L65432 23619
L65419 23605
" />
<path d="M65871 23324
L65645 23703
" />
<path d="M65972 23633
L66022 23633
L66047 23619
L66060 23605
L66085 23563
L66098 23507
L66098 23394
L66085 23366
L66072 23352
L66047 23338
L65997 23338
L65972 23352
L65959 23366
L65947 23394
L65947 23464
L65959 23492
L65972 23507
L65997 23521
L66047 23521
L66072 23507
L66085 23492
L66098 23464
" />
<text x="65410.4" y="13726.4"
textLength="1621.53" font-size="351.706" lengthAdjust="spacingAndGlyphs"
text-anchor="middle" opacity="0">D2/RX1</text>
<path d="M64694 13712
L64694 13417
L64757 13417
L64794 13431
L64820 13459
L64832 13487
L64845 13543
L64845 13585
L64832 13642
L64820 13670
L64794 13698
L64757 13712
L64694 13712
" />
<path d="M64945 13445
L64958 13431
L64983 13417
L65046 13417
L65071 13431
L65083 13445
L65096 13473
L65096 13501
L65083 13543
L64933 13712
L65096 13712
" />
<path d="M65397 13402
L65171 13782
" />
<path d="M65636 13712
L65548 13571
" />
<path d="M65485 13712
L65485 13417
L65586 13417
L65611 13431
L65623 13445
L65636 13473
L65636 13515
L65623 13543
L65611 13557
L65586 13571
L65485 13571
" />
<path d="M65724 13417
L65900 13712
" />
<path d="M65900 13417
L65724 13712
" />
<path d="M66138 13712
L65988 13712
" />
<path d="M66063 13712
L66063 13417
L66038 13459
L66013 13487
L65988 13501
" />
<text x="65627" y="22663.4"
textLength="1106.53" font-size="351.706" lengthAdjust="spacingAndGlyphs"
text-anchor="middle" opacity="0">B4/8</text>
<path d="M65256 22494
L65294 22508
L65306 22522
L65319 22550
L65319 22593
L65306 22621
L65294 22635
L65268 22649
L65168 22649
L65168 22354
L65256 22354
L65281 22368
L65294 22382
L65306 22410
L65306 22438
L65294 22466
L65281 22480
L65256 22494
L65168 22494
" />
<path d="M65545 22452
L65545 22649
" />
<path d="M65482 22339
L65419 22550
L65583 22550
" />
<path d="M65871 22339
L65645 22719
" />
<path d="M65997 22480
L65972 22466
L65959 22452
L65947 22424
L65947 22410
L65959 22382
L65972 22368
L65997 22354
L66047 22354
L66072 22368
L66085 22382
L66098 22410
L66098 22424
L66085 22452
L66072 22466
L66047 22480
L65997 22480
L65972 22494
L65959 22508
L65947 22536
L65947 22593
L65959 22621
L65972 22635
L65997 22649
L66047 22649
L66072 22635
L66085 22621
L66098 22593
L66098 22536
L66085 22508
L66072 22494
L66047 22480
" />
<text x="63754.9" y="10950.8"
textLength="1910.43" font-size="351.706" lengthAdjust="spacingAndGlyphs"
text-anchor="middle" opacity="0">MicroUSB</text>
<path d="M62894 10936
L62894 10641
L62982 10852
L63070 10641
L63070 10936
" />
<path d="M63195 10936
L63195 10739
" />
<path d="M63195 10641
L63183 10655
L63195 10669
L63208 10655
L63195 10641
L63195 10669
" />
<path d="M63434 10922
L63409 10936
L63359 10936
L63334 10922
L63321 10908
L63309 10880
L63309 10796
L63321 10767
L63334 10753
L63359 10739
L63409 10739
L63434 10753
" />
<path d="M63547 10936
L63547 10739
" />
<path d="M63547 10796
L63560 10767
L63572 10753
L63597 10739
L63623 10739
" />
<path d="M63748 10936
L63723 10922
L63710 10908
L63698 10880
L63698 10796
L63710 10767
L63723 10753
L63748 10739
L63786 10739
L63811 10753
L63824 10767
L63836 10796
L63836 10880
L63824 10908
L63811 10922
L63786 10936
L63748 10936
" />
<path d="M63949 10641
L63949 10880
L63962 10908
L63974 10922
L63999 10936
L64050 10936
L64075 10922
L64087 10908
L64100 10880
L64100 10641
" />
<path d="M64213 10922
L64251 10936
L64313 10936
L64339 10922
L64351 10908
L64364 10880
L64364 10852
L64351 10824
L64339 10810
L64313 10796
L64263 10782
L64238 10767
L64225 10753
L64213 10725
L64213 10697
L64225 10669
L64238 10655
L64263 10641
L64326 10641
L64364 10655
" />
<path d="M64565 10782
L64602 10796
L64615 10810
L64627 10838
L64627 10880
L64615 10908
L64602 10922
L64577 10936
L64477 10936
L64477 10641
L64565 10641
L64590 10655
L64602 10669
L64615 10697
L64615 10725
L64602 10753
L64590 10767
L64565 10782
L64477 10782
" />
<text x="63754.9" y="10950.8"
textLength="1910.43" font-size="351.706" lengthAdjust="spacingAndGlyphs"
text-anchor="middle" opacity="0">MicroUSB</text>
<path d="M62894 10936
L62894 10641
L62982 10852
L63070 10641
L63070 10936
" />
<path d="M63195 10936
L63195 10739
" />
<path d="M63195 10641
L63183 10655
L63195 10669
L63208 10655
L63195 10641
L63195 10669
" />
<path d="M63434 10922
L63409 10936
L63359 10936
L63334 10922
L63321 10908
L63309 10880
L63309 10796
L63321 10767
L63334 10753
L63359 10739
L63409 10739
L63434 10753
" />
<path d="M63547 10936
L63547 10739
" />
<path d="M63547 10796
L63560 10767
L63572 10753
L63597 10739
L63623 10739
" />
<path d="M63748 10936
L63723 10922
L63710 10908
L63698 10880
L63698 10796
L63710 10767
L63723 10753
L63748 10739
L63786 10739
L63811 10753
L63824 10767
L63836 10796
L63836 10880
L63824 10908
L63811 10922
L63786 10936
L63748 10936
" />
<path d="M63949 10641
L63949 10880
L63962 10908
L63974 10922
L63999 10936
L64050 10936
L64075 10922
L64087 10908
L64100 10880
L64100 10641
" />
<path d="M64213 10922
L64251 10936
L64313 10936
L64339 10922
L64351 10908
L64364 10880
L64364 10852
L64351 10824
L64339 10810
L64313 10796
L64263 10782
L64238 10767
L64225 10753
L64213 10725
L64213 10697
L64225 10669
L64238 10655
L64263 10641
L64326 10641
L64364 10655
" />
<path d="M64565 10782
L64602 10796
L64615 10810
L64627 10838
L64627 10880
L64615 10908
L64602 10922
L64577 10936
L64477 10936
L64477 10641
L64565 10641
L64590 10655
L64602 10669
L64615 10697
L64615 10725
L64602 10753
L64590 10767
L64565 10782
L64477 10782
" />
<text x="61719.5" y="13710.6"
textLength="867.876" font-size="351.706" lengthAdjust="spacingAndGlyphs"
text-anchor="middle" opacity="0">GND</text>
<path d="M61518 13415
L61493 13401
L61455 13401
L61418 13415
L61392 13443
L61380 13471
L61367 13527
L61367 13570
L61380 13626
L61392 13654
L61418 13682
L61455 13696
L61480 13696
L61518 13682
L61531 13668
L61531 13570
L61480 13570
" />
<path d="M61644 13696
L61644 13401
L61794 13696
L61794 13401
" />
<path d="M61920 13696
L61920 13401
L61983 13401
L62020 13415
L62046 13443
L62058 13471
L62071 13527
L62071 13570
L62058 13626
L62046 13654
L62020 13682
L61983 13696
L61920 13696
" />
</g>
<g style="fill:#000000; fill-opacity:0.0; 
stroke:#000000; stroke-width:59.0551; stroke-opacity:1; 
stroke-linecap:round; stroke-linejoin:round;">
<g transform="rotate(-90 60749.8 26189.8)">
<text x="60749.8" y="26386.6"
textLength="1845" font-size="524.934" lengthAdjust="spacingAndGlyphs"
text-anchor="middle" opacity="0">RESET</text>
</g>
<path d="M60927 26761
L60740 26892
" />
<path d="M60927 26986
L60534 26986
L60534 26836
L60552 26799
L60571 26780
L60609 26761
L60665 26761
L60702 26780
L60721 26799
L60740 26836
L60740 26986
" />
<path d="M60721 26592
L60721 26461
" />
<path d="M60927 26405
L60927 26592
L60534 26592
L60534 26405
" />
<path d="M60909 26255
L60927 26199
L60927 26105
L60909 26067
L60890 26049
L60852 26030
L60815 26030
L60777 26049
L60759 26067
L60740 26105
L60721 26180
L60702 26217
L60684 26236
L60646 26255
L60609 26255
L60571 26236
L60552 26217
L60534 26180
L60534 26086
L60552 26030
" />
<path d="M60721 25861
L60721 25730
" />
<path d="M60927 25674
L60927 25861
L60534 25861
L60534 25674
" />
<path d="M60534 25561
L60534 25336
" />
<path d="M60927 25449
L60534 25449
" />
<g transform="rotate(-90 56072.6 26193.3)">
<text x="56072.6" y="26390.2"
textLength="1857.8" font-size="524.934" lengthAdjust="spacingAndGlyphs"
text-anchor="middle" opacity="0">RESET</text>
</g>
<path d="M56250 26765
L56063 26896
" />
<path d="M56250 26990
L55857 26990
L55857 26840
L55875 26802
L55894 26783
L55932 26765
L55988 26765
L56025 26783
L56044 26802
L56063 26840
L56063 26990
" />
<path d="M56044 26596
L56044 26465
" />
<path d="M56250 26408
L56250 26596
L55857 26596
L55857 26408
" />
<path d="M56231 26258
L56250 26202
L56250 26108
L56231 26071
L56213 26052
L56175 26033
L56138 26033
L56100 26052
L56082 26071
L56063 26108
L56044 26183
L56025 26221
L56007 26240
L55969 26258
L55932 26258
L55894 26240
L55875 26221
L55857 26183
L55857 26090
L55875 26033
" />
<path d="M56044 25865
L56044 25733
" />
<path d="M56250 25677
L56250 25865
L55857 25865
L55857 25677
" />
<path d="M55857 25565
L55857 25340
" />
<path d="M56250 25452
L55857 25452
" />
<text x="63751" y="25720.5"
textLength="1557.84" font-size="524.934" lengthAdjust="spacingAndGlyphs"
text-anchor="middle" opacity="0">OLED</text>
<path d="M63179 25308
L63254 25308
L63291 25326
L63329 25364
L63347 25439
L63347 25570
L63329 25645
L63291 25682
L63254 25701
L63179 25701
L63141 25682
L63104 25645
L63085 25570
L63085 25439
L63104 25364
L63141 25326
L63179 25308
" />
<path d="M63704 25701
L63516 25701
L63516 25308
" />
<path d="M63835 25495
L63966 25495
" />
<path d="M64022 25701
L63835 25701
L63835 25308
L64022 25308
" />
<path d="M64191 25701
L64191 25308
L64285 25308
L64341 25326
L64379 25364
L64397 25401
L64416 25476
L64416 25532
L64397 25607
L64379 25645
L64341 25682
L64285 25701
L64191 25701
" />
<text x="53092.3" y="25686.6"
textLength="1557.84" font-size="524.934" lengthAdjust="spacingAndGlyphs"
text-anchor="middle" opacity="0">OLED</text>
<path d="M52520 25274
L52595 25274
L52633 25292
L52670 25330
L52689 25405
L52689 25536
L52670 25611
L52633 25649
L52595 25667
L52520 25667
L52483 25649
L52445 25611
L52426 25536
L52426 25405
L52445 25330
L52483 25292
L52520 25274
" />
<path d="M53045 25667
L52857 25667
L52857 25274
" />
<path d="M53176 25461
L53307 25461
" />
<path d="M53364 25667
L53176 25667
L53176 25274
L53364 25274
" />
<path d="M53532 25667
L53532 25274
L53626 25274
L53682 25292
L53720 25330
L53739 25367
L53757 25442
L53757 25499
L53739 25574
L53720 25611
L53682 25649
L53626 25667
L53532 25667
" />
<g transform="rotate(-90 62593.5 29535.4)">
<text x="62593.5" y="29732.3"
textLength="1539.09" font-size="524.934" lengthAdjust="spacingAndGlyphs"
text-anchor="middle" opacity="0">TRRS</text>
</g>
<path d="M62377 30229
L62377 30004
" />
<path d="M62771 30116
L62377 30116
" />
<path d="M62771 29647
L62584 29779
" />
<path d="M62771 29872
L62377 29872
L62377 29722
L62396 29685
L62415 29666
L62452 29647
L62509 29647
L62546 29666
L62565 29685
L62584 29722
L62584 29872
" />
<path d="M62771 29254
L62584 29385
" />
<path d="M62771 29479
L62377 29479
L62377 29329
L62396 29291
L62415 29272
L62452 29254
L62509 29254
L62546 29272
L62565 29291
L62584 29329
L62584 29479
" />
<path d="M62752 29104
L62771 29047
L62771 28954
L62752 28916
L62734 28898
L62696 28879
L62659 28879
L62621 28898
L62602 28916
L62584 28954
L62565 29029
L62546 29066
L62527 29085
L62490 29104
L62452 29104
L62415 29085
L62396 29066
L62377 29029
L62377 28935
L62396 28879
" />
<g transform="rotate(-90 54206.5 28953.5)">
<text x="54206.5" y="29150.4"
textLength="1539.09" font-size="524.934" lengthAdjust="spacingAndGlyphs"
text-anchor="middle" opacity="0">TRRS</text>
</g>
<path d="M53990 29647
L53990 29422
" />
<path d="M54384 29534
L53990 29534
" />
<path d="M54384 29066
L54197 29197
" />
<path d="M54384 29291
L53990 29291
L53990 29141
L54009 29103
L54028 29084
L54065 29066
L54122 29066
L54159 29084
L54178 29103
L54197 29141
L54197 29291
" />
<path d="M54384 28672
L54197 28803
" />
<path d="M54384 28897
L53990 28897
L53990 28747
L54009 28709
L54028 28691
L54065 28672
L54122 28672
L54159 28691
L54178 28709
L54197 28747
L54197 28897
" />
<path d="M54365 28522
L54384 28466
L54384 28372
L54365 28334
L54347 28316
L54309 28297
L54272 28297
L54234 28316
L54215 28334
L54197 28372
L54178 28447
L54159 28484
L54140 28503
L54103 28522
L54065 28522
L54028 28503
L54009 28484
L53990 28447
L53990 28353
L54009 28297
" />
<g >
</g>
</g> 
</svg>
