<?xml version="1.0" standalone="no"?>
 <!DOCTYPE svg PUBLIC "-//W3C//DTD SVG 1.1//EN" 
 "http://www.w3.org/Graphics/SVG/1.1/DTD/svg11.dtd"> 
<svg xmlns="http://www.w3.org/2000/svg" version="1.1" 
    width="29.7002cm" height="21.0007cm" viewBox="0 0 116930 82680 ">
<title>SVG Picture created as corne-cherry-Edge_Cuts.svg date 2020/11/03 18:14:09 </title>
  <desc>Picture generated by PCBNEW </desc>
<g style="fill:#000000; fill-opacity:1;stroke:#000000; stroke-opacity:1;
stroke-linecap:round; stroke-linejoin:round; "
 transform="translate(0 0) scale(1 1)">
</g>
<g style="fill:#000000; fill-opacity:0.0; 
stroke:#000000; stroke-width:-0.000393701; stroke-opacity:1; 
stroke-linecap:round; stroke-linejoin:round;">
</g>
<g style="fill:#000000; fill-opacity:0.0; 
stroke:#000000; stroke-width:78.7402; stroke-opacity:1; 
stroke-linecap:round; stroke-linejoin:round;">
<path d="M45380 40421
L45318 40404
" />
<path d="M45318 40404
L45253 40389
" />
<path d="M45253 40389
L45185 40377
" />
<path d="M45185 40377
L45122 40370
" />
<path d="M26395 32742
L26349 32708
" />
<path d="M26349 32708
L26290 32688
" />
<path d="M26290 32688
L26256 32685
" />
<path d="M30546 38434
L30591 38468
" />
<path d="M30591 38468
L30649 38488
" />
<path d="M30649 38488
L30685 38492
" />
<path d="M56973 34495
L57001 34442
" />
<path d="M57001 34442
L57024 34385
" />
<path d="M57024 34385
L57043 34323
" />
<path d="M57043 34323
L57056 34257
" />
<path d="M57056 34257
L57062 34185
" />
<path d="M57062 34185
L57063 34151
" />
<path d="M41412 9455
L41412 8865
" />
<path d="M48696 9652
L41609 9652
" />
<path d="M57063 10736
L57051 10669
" />
<path d="M57051 10669
L57023 10617
" />
<path d="M57023 10617
L56983 10578
" />
<path d="M56983 10578
L56932 10550
" />
<path d="M56932 10550
L56866 10539
" />
<path d="M57062 10735
L57062 34150
" />
<path d="M21936 32685
L8884 32685
" />
<path d="M4405 10736
L4404 32487
" />
<path d="M19168 10538
L4602 10539
" />
<path d="M33735 7782
L27042 7782
" />
<path d="M33932 8471
L33932 7979
" />
<path d="M41215 8668
L38806 8668
" />
<path d="M45380 40421
L51007 43673
" />
<path d="M48892 9849
L48893 10342
" />
<path d="M48893 9850
L48882 9783
" />
<path d="M48882 9783
L48854 9731
" />
<path d="M48854 9731
L48814 9692
" />
<path d="M48814 9692
L48763 9665
" />
<path d="M48763 9665
L48697 9653
" />
<path d="M19365 8865
L19365 10341
" />
<path d="M26648 8668
L23849 8668
" />
<path d="M26846 7980
L26845 8471
" />
<path d="M56865 10538
L49090 10539
" />
<path d="M4405 32488
L4417 32555
" />
<path d="M4417 32555
L4445 32606
" />
<path d="M4445 32606
L4484 32645
" />
<path d="M4484 32645
L4535 32673
" />
<path d="M4535 32673
L4602 32685
" />
<path d="M4602 32685
L4602 32685
" />
<path d="M4602 10539
L4535 10551
" />
<path d="M4535 10551
L4484 10579
" />
<path d="M4484 10579
L4444 10618
" />
<path d="M4444 10618
L4417 10669
" />
<path d="M4417 10669
L4405 10736
" />
<path d="M4405 10736
L4405 10736
" />
<path d="M19169 10539
L19236 10527
" />
<path d="M19236 10527
L19287 10499
" />
<path d="M19287 10499
L19327 10460
" />
<path d="M19327 10460
L19354 10409
" />
<path d="M19354 10409
L19366 10342
" />
<path d="M19366 10342
L19366 10342
" />
<path d="M19563 8669
L19495 8681
" />
<path d="M19495 8681
L19444 8708
" />
<path d="M19444 8708
L19405 8748
" />
<path d="M19405 8748
L19377 8800
" />
<path d="M19377 8800
L19366 8866
" />
<path d="M26649 8669
L26716 8657
" />
<path d="M26716 8657
L26768 8629
" />
<path d="M26768 8629
L26807 8590
" />
<path d="M26807 8590
L26835 8539
" />
<path d="M26835 8539
L26846 8472
" />
<path d="M26846 8472
L26846 8472
" />
<path d="M27043 7783
L26976 7795
" />
<path d="M26976 7795
L26925 7823
" />
<path d="M26925 7823
L26885 7862
" />
<path d="M26885 7862
L26858 7914
" />
<path d="M26858 7914
L26846 7980
" />
<path d="M26846 7980
L26846 7980
" />
<path d="M33933 7980
L33921 7913
" />
<path d="M33921 7913
L33893 7861
" />
<path d="M33893 7861
L33854 7822
" />
<path d="M33854 7822
L33802 7795
" />
<path d="M33802 7795
L33736 7783
" />
<path d="M33736 7783
L33736 7783
" />
<path d="M33933 8472
L33945 8539
" />
<path d="M33945 8539
L33972 8590
" />
<path d="M33972 8590
L34012 8630
" />
<path d="M34012 8630
L34063 8657
" />
<path d="M34063 8657
L34130 8669
" />
<path d="M34130 8669
L34130 8669
" />
<path d="M41413 8866
L41401 8799
" />
<path d="M41401 8799
L41373 8747
" />
<path d="M41373 8747
L41334 8708
" />
<path d="M41334 8708
L41282 8680
" />
<path d="M41282 8680
L41216 8669
" />
<path d="M41413 9456
L41425 9524
" />
<path d="M41425 9524
L41453 9575
" />
<path d="M41453 9575
L41492 9614
" />
<path d="M41492 9614
L41543 9642
" />
<path d="M41543 9642
L41610 9653
" />
<path d="M51766 43524
L56973 34495
" />
<path d="M51765 43526
L51766 43524
" />
<path d="M51007 43673
L51057 43703
" />
<path d="M51057 43703
L51111 43728
" />
<path d="M51111 43728
L51171 43748
" />
<path d="M51171 43748
L51237 43761
" />
<path d="M51237 43761
L51311 43766
" />
<path d="M51311 43766
L51386 43761
" />
<path d="M51386 43761
L51451 43748
" />
<path d="M51451 43748
L51511 43729
" />
<path d="M51511 43729
L51568 43703
" />
<path d="M51568 43703
L51617 43673
" />
<path d="M51617 43673
L51666 43637
" />
<path d="M51666 43637
L51707 43598
" />
<path d="M51707 43598
L51743 43556
" />
<path d="M51743 43556
L51765 43526
" />
<path d="M30685 38492
L45122 40370
" />
<path d="M26395 32742
L30546 38434
" />
<path d="M48893 10342
L48905 10409
" />
<path d="M48905 10409
L48933 10460
" />
<path d="M48933 10460
L48972 10500
" />
<path d="M48972 10500
L49024 10528
" />
<path d="M49024 10528
L49090 10539
" />
<path d="M49090 10539
L49090 10539
" />
<path d="M34130 8669
L36900 8669
" />
<path d="M19563 8669
L21975 8669
" />
<path d="M4602 32685
L7010 32685
" />
<path d="M26256 32685
L23841 32685
" />
<path d="M90631 32688
L93042 32688
" />
<path d="M112285 32688
L109873 32688
" />
<path d="M97324 8672
L94912 8672
" />
<path d="M82757 8672
L79987 8672
" />
<path d="M67797 10542
L67797 10542
" />
<path d="M67993 10345
L67982 10413
" />
<path d="M67982 10413
L67954 10464
" />
<path d="M67954 10464
L67914 10503
" />
<path d="M67914 10503
L67863 10531
" />
<path d="M67863 10531
L67797 10542
" />
<path d="M90492 32745
L86341 38437
" />
<path d="M86341 38437
L86296 38471
" />
<path d="M86296 38471
L86238 38492
" />
<path d="M86238 38492
L86202 38495
" />
<path d="M86202 38495
L71765 40373
" />
<path d="M65880 43676
L65830 43706
" />
<path d="M65830 43706
L65776 43731
" />
<path d="M65776 43731
L65716 43751
" />
<path d="M65716 43751
L65650 43764
" />
<path d="M65650 43764
L65576 43770
" />
<path d="M65576 43770
L65502 43765
" />
<path d="M65502 43765
L65436 43752
" />
<path d="M65436 43752
L65375 43732
" />
<path d="M65375 43732
L65321 43707
" />
<path d="M65321 43707
L65271 43678
" />
<path d="M65271 43678
L65225 43644
" />
<path d="M65225 43644
L65184 43605
" />
<path d="M65184 43605
L65146 43562
" />
<path d="M65146 43562
L65122 43529
" />
<path d="M65122 43529
L65120 43527
" />
<path d="M65120 43527
L59913 34498
" />
<path d="M75474 9459
L75462 9527
" />
<path d="M75462 9527
L75434 9578
" />
<path d="M75434 9578
L75394 9617
" />
<path d="M75394 9617
L75343 9645
" />
<path d="M75343 9645
L75277 9656
" />
<path d="M75474 8869
L75486 8802
" />
<path d="M75486 8802
L75513 8751
" />
<path d="M75513 8751
L75553 8711
" />
<path d="M75553 8711
L75605 8683
" />
<path d="M75605 8683
L75671 8672
" />
<path d="M82757 8672
L82757 8672
" />
<path d="M82954 8475
L82942 8542
" />
<path d="M82942 8542
L82915 8594
" />
<path d="M82915 8594
L82875 8633
" />
<path d="M82875 8633
L82824 8661
" />
<path d="M82824 8661
L82757 8672
" />
<path d="M83151 7786
L83151 7786
" />
<path d="M82954 7983
L82966 7916
" />
<path d="M82966 7916
L82994 7865
" />
<path d="M82994 7865
L83033 7825
" />
<path d="M83033 7825
L83084 7798
" />
<path d="M83084 7798
L83151 7786
" />
<path d="M90041 7983
L90041 7983
" />
<path d="M89844 7786
L89911 7798
" />
<path d="M89911 7798
L89962 7826
" />
<path d="M89962 7826
L90001 7865
" />
<path d="M90001 7865
L90029 7916
" />
<path d="M90029 7916
L90041 7983
" />
<path d="M90041 8475
L90041 8475
" />
<path d="M90238 8672
L90171 8660
" />
<path d="M90171 8660
L90119 8632
" />
<path d="M90119 8632
L90080 8593
" />
<path d="M90080 8593
L90052 8541
" />
<path d="M90052 8541
L90041 8475
" />
<path d="M97324 8672
L97391 8684
" />
<path d="M97391 8684
L97442 8712
" />
<path d="M97442 8712
L97482 8751
" />
<path d="M97482 8751
L97510 8803
" />
<path d="M97510 8803
L97521 8869
" />
<path d="M97521 10345
L97521 10345
" />
<path d="M97718 10542
L97651 10530
" />
<path d="M97651 10530
L97599 10502
" />
<path d="M97599 10502
L97560 10463
" />
<path d="M97560 10463
L97532 10411
" />
<path d="M97532 10411
L97521 10345
" />
<path d="M112482 10739
L112482 10739
" />
<path d="M112285 10542
L112352 10554
" />
<path d="M112352 10554
L112403 10582
" />
<path d="M112403 10582
L112443 10621
" />
<path d="M112443 10621
L112470 10673
" />
<path d="M112470 10673
L112482 10739
" />
<path d="M112285 32688
L112285 32688
" />
<path d="M112482 32491
L112470 32558
" />
<path d="M112470 32558
L112442 32609
" />
<path d="M112442 32609
L112402 32649
" />
<path d="M112402 32649
L112351 32676
" />
<path d="M112351 32676
L112285 32688
" />
<path d="M90492 32745
L90537 32712
" />
<path d="M90537 32712
L90595 32691
" />
<path d="M90595 32691
L90631 32688
" />
<path d="M60021 10541
L67797 10542
" />
<path d="M90041 7982
L90041 8474
" />
<path d="M90238 8671
L93038 8671
" />
<path d="M97521 8868
L97521 10344
" />
<path d="M67993 9853
L68005 9786
" />
<path d="M68005 9786
L68033 9735
" />
<path d="M68033 9735
L68073 9695
" />
<path d="M68073 9695
L68124 9668
" />
<path d="M68124 9668
L68190 9656
" />
<path d="M67994 9852
L67993 10345
" />
<path d="M71507 40424
L65880 43676
" />
<path d="M75671 8671
L78081 8671
" />
<path d="M82954 8474
L82954 7982
" />
<path d="M83151 7785
L89844 7785
" />
<path d="M97718 10541
L112285 10542
" />
<path d="M112482 10739
L112482 32490
" />
<path d="M94951 32687
L108002 32687
" />
<path d="M59824 10738
L59824 34153
" />
<path d="M59824 10739
L59836 10672
" />
<path d="M59836 10672
L59864 10621
" />
<path d="M59864 10621
L59904 10581
" />
<path d="M59904 10581
L59955 10553
" />
<path d="M59955 10553
L60021 10542
" />
<path d="M68190 9655
L75277 9655
" />
<path d="M75474 9458
L75474 8868
" />
<path d="M59914 34498
L59887 34446
" />
<path d="M59887 34446
L59863 34389
" />
<path d="M59863 34389
L59845 34328
" />
<path d="M59845 34328
L59832 34263
" />
<path d="M59832 34263
L59825 34191
" />
<path d="M59825 34191
L59824 34154
" />
<path d="M71507 40424
L71569 40407
" />
<path d="M71569 40407
L71634 40392
" />
<path d="M71634 40392
L71702 40381
" />
<path d="M71702 40381
L71765 40373
" />
<path d="M8882 32776
L8892 32864
" />
<path d="M8882 32774
L8882 32776
" />
<path d="M8884 32685
L8882 32774
" />
<path d="M7003 32869
L7003 32871
" />
<path d="M7003 32867
L7003 32869
" />
<path d="M7003 32867
L7003 32867
" />
<path d="M7003 32867
L7003 32867
" />
<path d="M7003 32867
L7003 32867
" />
<path d="M7012 32776
L7003 32867
" />
<path d="M7012 32776
L7012 32776
" />
<path d="M7012 32775
L7012 32776
" />
<path d="M7010 32685
L7012 32775
" />
<path d="M4207 33710
L4207 45864
" />
<path d="M112675 33703
L112675 45860
" />
<path d="M25913 44781
L25990 44822
" />
<path d="M77946 7207
L77878 7152
" />
<path d="M77878 7152
L77801 7111
" />
<path d="M112545 46177
L112600 46109
" />
<path d="M110355 33258
L110264 33249
" />
<path d="M23843 7529
L23849 8668
" />
<path d="M23852 7441
L23843 7529
" />
<path d="M23877 7357
L23852 7441
" />
<path d="M23918 7280
L23877 7357
" />
<path d="M23973 7213
L23918 7280
" />
<path d="M24040 7157
L23973 7213
" />
<path d="M24117 7115
L24040 7157
" />
<path d="M24201 7089
L24117 7115
" />
<path d="M24289 7080
L24201 7089
" />
<path d="M24291 7080
L24289 7080
" />
<path d="M36445 7080
L24291 7080
" />
<path d="M36533 7089
L36445 7080
" />
<path d="M36617 7114
L36533 7089
" />
<path d="M36694 7155
L36617 7114
" />
<path d="M36762 7210
L36694 7155
" />
<path d="M36818 7278
L36762 7210
" />
<path d="M36859 7355
L36818 7278
" />
<path d="M36885 7438
L36859 7355
" />
<path d="M36894 7526
L36885 7438
" />
<path d="M36894 7528
L36894 7526
" />
<path d="M36900 8669
L36894 7528
" />
<path d="M79988 7525
L79987 8672
" />
<path d="M79996 7438
L79988 7525
" />
<path d="M80022 7354
L79996 7438
" />
<path d="M80063 7277
L80022 7354
" />
<path d="M80118 7209
L80063 7277
" />
<path d="M80185 7153
L80118 7209
" />
<path d="M80262 7112
L80185 7153
" />
<path d="M80345 7086
L80262 7112
" />
<path d="M80433 7077
L80345 7086
" />
<path d="M80436 7077
L80433 7077
" />
<path d="M92590 7077
L80436 7077
" />
<path d="M92678 7085
L92590 7077
" />
<path d="M92762 7111
L92678 7085
" />
<path d="M92839 7152
L92762 7111
" />
<path d="M92906 7207
L92839 7152
" />
<path d="M92962 7274
L92906 7207
" />
<path d="M93004 7351
L92962 7274
" />
<path d="M93030 7434
L93004 7351
" />
<path d="M93039 7522
L93030 7434
" />
<path d="M93039 7525
L93039 7522
" />
<path d="M93038 8671
L93039 7525
" />
<path d="M21934 32773
L21936 32685
" />
<path d="M21925 32861
L21934 32773
" />
<path d="M21900 32945
L21925 32861
" />
<path d="M21859 33022
L21900 32945
" />
<path d="M21803 33090
L21859 33022
" />
<path d="M21736 33145
L21803 33090
" />
<path d="M21659 33187
L21736 33145
" />
<path d="M21576 33213
L21659 33187
" />
<path d="M21488 33222
L21576 33213
" />
<path d="M21486 33222
L21488 33222
" />
<path d="M9331 33222
L21486 33222
" />
<path d="M9243 33213
L9331 33222
" />
<path d="M9160 33188
L9243 33213
" />
<path d="M9082 33147
L9160 33188
" />
<path d="M9015 33092
L9082 33147
" />
<path d="M8959 33024
L9015 33092
" />
<path d="M8917 32948
L8959 33024
" />
<path d="M8892 32864
L8917 32948
" />
<path d="M107999 32770
L108002 32687
" />
<path d="M107991 32857
L107999 32770
" />
<path d="M107965 32941
L107991 32857
" />
<path d="M107925 33018
L107965 32941
" />
<path d="M107869 33086
L107925 33018
" />
<path d="M107802 33142
L107869 33086
" />
<path d="M107725 33183
L107802 33142
" />
<path d="M107642 33209
L107725 33183
" />
<path d="M107554 33218
L107642 33209
" />
<path d="M107552 33218
L107554 33218
" />
<path d="M95397 33218
L107552 33218
" />
<path d="M95309 33210
L95397 33218
" />
<path d="M95226 33185
L95309 33210
" />
<path d="M95149 33144
L95226 33185
" />
<path d="M95081 33088
L95149 33144
" />
<path d="M95025 33021
L95081 33088
" />
<path d="M94984 32944
L95025 33021
" />
<path d="M94958 32861
L94984 32944
" />
<path d="M94949 32773
L94958 32861
" />
<path d="M94949 32770
L94949 32773
" />
<path d="M94951 32687
L94949 32770
" />
<path d="M38804 7529
L38806 8668
" />
<path d="M38812 7441
L38804 7529
" />
<path d="M38837 7357
L38812 7441
" />
<path d="M38878 7280
L38837 7357
" />
<path d="M38934 7213
L38878 7280
" />
<path d="M39001 7157
L38934 7213
" />
<path d="M39078 7115
L39001 7157
" />
<path d="M39162 7089
L39078 7115
" />
<path d="M39249 7080
L39162 7089
" />
<path d="M39252 7080
L39249 7080
" />
<path d="M77630 7077
L39252 7080
" />
<path d="M77717 7085
L77630 7077
" />
<path d="M77801 7111
L77717 7085
" />
<path d="M78002 7274
L77946 7207
" />
<path d="M78043 7351
L78002 7274
" />
<path d="M78069 7434
L78043 7351
" />
<path d="M78078 7522
L78069 7434
" />
<path d="M78078 7525
L78078 7522
" />
<path d="M78081 8671
L78078 7525
" />
<path d="M93039 32770
L93042 32688
" />
<path d="M93030 32857
L93039 32770
" />
<path d="M93005 32941
L93030 32857
" />
<path d="M92964 33018
L93005 32941
" />
<path d="M92909 33086
L92964 33018
" />
<path d="M92841 33142
L92909 33086
" />
<path d="M92765 33183
L92841 33142
" />
<path d="M92681 33209
L92765 33183
" />
<path d="M92593 33218
L92681 33209
" />
<path d="M92591 33218
L92593 33218
" />
<path d="M92123 33218
L92591 33218
" />
<path d="M92123 33218
L92123 33218
" />
<path d="M92120 33218
L92123 33218
" />
<path d="M92119 33218
L92120 33218
" />
<path d="M92119 33218
L92119 33218
" />
<path d="M92118 33218
L92119 33218
" />
<path d="M92027 33228
L92118 33218
" />
<path d="M92026 33228
L92027 33228
" />
<path d="M92024 33229
L92026 33228
" />
<path d="M92024 33229
L92024 33229
" />
<path d="M92024 33229
L92024 33229
" />
<path d="M91937 33256
L92024 33229
" />
<path d="M91935 33257
L91937 33256
" />
<path d="M91933 33257
L91935 33257
" />
<path d="M91933 33257
L91933 33257
" />
<path d="M91933 33257
L91933 33257
" />
<path d="M91933 33257
L91933 33257
" />
<path d="M91853 33301
L91933 33257
" />
<path d="M91851 33302
L91853 33301
" />
<path d="M91850 33303
L91851 33302
" />
<path d="M91850 33303
L91850 33303
" />
<path d="M91779 33361
L91850 33303
" />
<path d="M91778 33362
L91779 33361
" />
<path d="M91777 33364
L91778 33362
" />
<path d="M91776 33364
L91777 33364
" />
<path d="M91719 33435
L91776 33364
" />
<path d="M91718 33436
L91719 33435
" />
<path d="M91717 33437
L91718 33436
" />
<path d="M91717 33438
L91717 33437
" />
<path d="M91717 33438
L91717 33438
" />
<path d="M91717 33438
L91717 33438
" />
<path d="M91674 33518
L91717 33438
" />
<path d="M91673 33520
L91674 33518
" />
<path d="M91673 33522
L91673 33520
" />
<path d="M91673 33522
L91673 33522
" />
<path d="M91646 33609
L91673 33522
" />
<path d="M91646 33611
L91646 33609
" />
<path d="M91645 33612
L91646 33611
" />
<path d="M91645 33613
L91645 33612
" />
<path d="M91645 33613
L91645 33613
" />
<path d="M91645 33613
L91645 33613
" />
<path d="M91636 33704
L91645 33613
" />
<path d="M91636 33704
L91636 33704
" />
<path d="M91636 33705
L91636 33704
" />
<path d="M91636 44403
L91636 33705
" />
<path d="M91628 44491
L91636 44403
" />
<path d="M91602 44575
L91628 44491
" />
<path d="M91562 44652
L91602 44575
" />
<path d="M91506 44720
L91562 44652
" />
<path d="M91439 44775
L91506 44720
" />
<path d="M91362 44817
L91439 44775
" />
<path d="M91278 44843
L91362 44817
" />
<path d="M91191 44852
L91278 44843
" />
<path d="M91188 44852
L91191 44852
" />
<path d="M26163 44855
L91188 44852
" />
<path d="M26074 44847
L26162 44856
" />
<path d="M25990 44822
L26074 44847
" />
<path d="M25845 44725
L25913 44781
" />
<path d="M25790 44658
L25845 44725
" />
<path d="M25748 44581
L25790 44658
" />
<path d="M25722 44498
L25748 44581
" />
<path d="M25713 44410
L25722 44498
" />
<path d="M25713 44408
L25713 44410
" />
<path d="M25713 33708
L25713 44408
" />
<path d="M25713 33708
L25713 33708
" />
<path d="M25713 33706
L25713 33708
" />
<path d="M25713 33705
L25713 33706
" />
<path d="M25713 33704
L25713 33705
" />
<path d="M25713 33704
L25713 33704
" />
<path d="M25703 33613
L25713 33704
" />
<path d="M25703 33611
L25703 33613
" />
<path d="M25703 33610
L25703 33611
" />
<path d="M25703 33609
L25703 33610
" />
<path d="M25676 33522
L25703 33609
" />
<path d="M25675 33520
L25676 33522
" />
<path d="M25674 33519
L25675 33520
" />
<path d="M25674 33519
L25674 33519
" />
<path d="M25674 33519
L25674 33519
" />
<path d="M25674 33519
L25674 33519
" />
<path d="M25631 33438
L25674 33519
" />
<path d="M25630 33437
L25631 33438
" />
<path d="M25629 33435
L25630 33437
" />
<path d="M25629 33435
L25629 33435
" />
<path d="M25570 33365
L25629 33435
" />
<path d="M25569 33364
L25570 33365
" />
<path d="M25568 33362
L25569 33364
" />
<path d="M25568 33362
L25568 33362
" />
<path d="M25497 33305
L25568 33362
" />
<path d="M25496 33303
L25497 33305
" />
<path d="M25494 33303
L25496 33303
" />
<path d="M25494 33302
L25494 33303
" />
<path d="M25494 33302
L25494 33302
" />
<path d="M25494 33302
L25494 33302
" />
<path d="M25413 33259
L25494 33302
" />
<path d="M25412 33259
L25413 33259
" />
<path d="M25410 33258
L25412 33259
" />
<path d="M25410 33258
L25410 33258
" />
<path d="M25322 33232
L25410 33258
" />
<path d="M25321 33231
L25322 33232
" />
<path d="M25319 33231
L25321 33231
" />
<path d="M25319 33231
L25319 33231
" />
<path d="M25319 33231
L25319 33231
" />
<path d="M25319 33231
L25319 33231
" />
<path d="M25228 33222
L25319 33231
" />
<path d="M25228 33222
L25228 33222
" />
<path d="M25227 33222
L25228 33222
" />
<path d="M24292 33222
L25227 33222
" />
<path d="M24204 33213
L24292 33222
" />
<path d="M24120 33188
L24204 33213
" />
<path d="M24043 33147
L24120 33188
" />
<path d="M23975 33092
L24043 33147
" />
<path d="M23920 33024
L23975 33092
" />
<path d="M23878 32948
L23920 33024
" />
<path d="M23852 32864
L23878 32948
" />
<path d="M23843 32776
L23852 32864
" />
<path d="M23843 32774
L23843 32776
" />
<path d="M23841 32685
L23843 32774
" />
<path d="M21973 7527
L21975 8669
" />
<path d="M21973 7527
L21973 7527
" />
<path d="M21973 7525
L21973 7527
" />
<path d="M21973 7524
L21973 7525
" />
<path d="M21973 7523
L21973 7524
" />
<path d="M21973 7523
L21973 7523
" />
<path d="M21963 7432
L21973 7523
" />
<path d="M21963 7430
L21963 7432
" />
<path d="M21963 7428
L21963 7430
" />
<path d="M21962 7428
L21963 7428
" />
<path d="M21936 7341
L21962 7428
" />
<path d="M21935 7339
L21936 7341
" />
<path d="M21934 7338
L21935 7339
" />
<path d="M21934 7338
L21934 7338
" />
<path d="M21934 7338
L21934 7338
" />
<path d="M21934 7338
L21934 7338
" />
<path d="M21891 7257
L21934 7338
" />
<path d="M21890 7256
L21891 7257
" />
<path d="M21889 7254
L21890 7256
" />
<path d="M21888 7254
L21889 7254
" />
<path d="M21830 7184
L21888 7254
" />
<path d="M21829 7182
L21830 7184
" />
<path d="M21828 7181
L21829 7182
" />
<path d="M21828 7181
L21828 7181
" />
<path d="M21757 7123
L21828 7181
" />
<path d="M21755 7122
L21757 7123
" />
<path d="M21754 7121
L21755 7122
" />
<path d="M21754 7121
L21754 7121
" />
<path d="M21754 7121
L21754 7121
" />
<path d="M21754 7121
L21754 7121
" />
<path d="M21673 7078
L21754 7121
" />
<path d="M21671 7078
L21673 7078
" />
<path d="M21670 7077
L21671 7078
" />
<path d="M21670 7077
L21670 7077
" />
<path d="M21582 7051
L21670 7077
" />
<path d="M21580 7050
L21582 7051
" />
<path d="M21579 7050
L21580 7050
" />
<path d="M21578 7050
L21579 7050
" />
<path d="M21578 7050
L21578 7050
" />
<path d="M21578 7050
L21578 7050
" />
<path d="M21488 7041
L21578 7050
" />
<path d="M21488 7041
L21488 7041
" />
<path d="M21487 7041
L21488 7041
" />
<path d="M4656 7041
L21487 7041
" />
<path d="M4568 7032
L4656 7041
" />
<path d="M4484 7007
L4568 7032
" />
<path d="M4407 6966
L4484 7007
" />
<path d="M4340 6911
L4407 6966
" />
<path d="M4284 6843
L4340 6911
" />
<path d="M4242 6767
L4284 6843
" />
<path d="M4216 6683
L4242 6767
" />
<path d="M4207 6595
L4216 6683
" />
<path d="M4207 6593
L4207 6595
" />
<path d="M4207 5191
L4207 6593
" />
<path d="M4216 5103
L4207 5191
" />
<path d="M4241 5020
L4216 5103
" />
<path d="M4282 4943
L4241 5020
" />
<path d="M4337 4875
L4282 4943
" />
<path d="M4405 4819
L4337 4875
" />
<path d="M4482 4778
L4405 4819
" />
<path d="M4565 4752
L4482 4778
" />
<path d="M4653 4743
L4565 4752
" />
<path d="M4655 4743
L4653 4743
" />
<path d="M112226 4739
L4655 4743
" />
<path d="M112314 4748
L112226 4739
" />
<path d="M112397 4773
L112314 4748
" />
<path d="M112475 4814
L112397 4773
" />
<path d="M112542 4869
L112475 4814
" />
<path d="M112598 4937
L112542 4869
" />
<path d="M112639 5013
L112598 4937
" />
<path d="M112665 5097
L112639 5013
" />
<path d="M112675 5185
L112665 5097
" />
<path d="M112675 5187
L112675 5185
" />
<path d="M112675 6589
L112675 5187
" />
<path d="M112666 6676
L112675 6589
" />
<path d="M112641 6760
L112666 6676
" />
<path d="M112600 6837
L112641 6760
" />
<path d="M112545 6905
L112600 6837
" />
<path d="M112477 6961
L112545 6905
" />
<path d="M112400 7002
L112477 6961
" />
<path d="M112317 7028
L112400 7002
" />
<path d="M112229 7037
L112317 7028
" />
<path d="M112227 7037
L112229 7037
" />
<path d="M95395 7037
L112227 7037
" />
<path d="M95395 7037
L95395 7037
" />
<path d="M95393 7037
L95395 7037
" />
<path d="M95392 7037
L95393 7037
" />
<path d="M95391 7037
L95392 7037
" />
<path d="M95391 7037
L95391 7037
" />
<path d="M95300 7047
L95391 7037
" />
<path d="M95299 7047
L95300 7047
" />
<path d="M95297 7048
L95299 7047
" />
<path d="M95296 7048
L95297 7048
" />
<path d="M95296 7048
L95296 7048
" />
<path d="M95209 7075
L95296 7048
" />
<path d="M95208 7075
L95209 7075
" />
<path d="M95206 7076
L95208 7075
" />
<path d="M95206 7076
L95206 7076
" />
<path d="M95206 7076
L95206 7076
" />
<path d="M95206 7076
L95206 7076
" />
<path d="M95125 7120
L95206 7076
" />
<path d="M95124 7121
L95125 7120
" />
<path d="M95123 7122
L95124 7121
" />
<path d="M95122 7122
L95123 7122
" />
<path d="M95052 7180
L95122 7122
" />
<path d="M95050 7181
L95052 7180
" />
<path d="M95049 7182
L95050 7181
" />
<path d="M95049 7183
L95049 7182
" />
<path d="M94991 7253
L95049 7183
" />
<path d="M94991 7255
L94991 7253
" />
<path d="M94989 7256
L94991 7255
" />
<path d="M94989 7257
L94989 7256
" />
<path d="M94989 7257
L94989 7257
" />
<path d="M94989 7257
L94989 7257
" />
<path d="M94947 7337
L94989 7257
" />
<path d="M94946 7339
L94947 7337
" />
<path d="M94945 7340
L94946 7339
" />
<path d="M94945 7341
L94945 7340
" />
<path d="M94919 7428
L94945 7341
" />
<path d="M94918 7430
L94919 7428
" />
<path d="M94918 7432
L94918 7430
" />
<path d="M94918 7432
L94918 7432
" />
<path d="M94918 7432
L94918 7432
" />
<path d="M94918 7432
L94918 7432
" />
<path d="M94909 7523
L94918 7432
" />
<path d="M94909 7524
L94909 7523
" />
<path d="M94912 8672
L94909 7524
" />
<path d="M109869 32772
L109873 32688
" />
<path d="M109870 32772
L109869 32772
" />
<path d="M109870 32774
L109870 32772
" />
<path d="M109870 32775
L109870 32774
" />
<path d="M109870 32775
L109870 32775
" />
<path d="M109870 32776
L109870 32775
" />
<path d="M109879 32867
L109870 32776
" />
<path d="M109880 32868
L109879 32867
" />
<path d="M109880 32870
L109880 32868
" />
<path d="M109880 32870
L109880 32870
" />
<path d="M109907 32957
L109880 32870
" />
<path d="M109908 32959
L109907 32957
" />
<path d="M109908 32961
L109908 32959
" />
<path d="M109908 32961
L109908 32961
" />
<path d="M109908 32961
L109908 32961
" />
<path d="M109908 32961
L109908 32961
" />
<path d="M109952 33041
L109908 32961
" />
<path d="M109953 33043
L109952 33041
" />
<path d="M109954 33044
L109953 33043
" />
<path d="M109954 33044
L109954 33044
" />
<path d="M110012 33115
L109954 33044
" />
<path d="M110013 33116
L110012 33115
" />
<path d="M110015 33117
L110013 33116
" />
<path d="M110015 33118
L110015 33117
" />
<path d="M110015 33118
L110015 33118
" />
<path d="M110015 33118
L110015 33118
" />
<path d="M110086 33175
L110015 33118
" />
<path d="M110087 33176
L110086 33175
" />
<path d="M110089 33177
L110087 33176
" />
<path d="M110089 33177
L110089 33177
" />
<path d="M110089 33177
L110089 33177
" />
<path d="M110169 33220
L110089 33177
" />
<path d="M110171 33221
L110169 33220
" />
<path d="M110173 33222
L110171 33221
" />
<path d="M110173 33222
L110173 33222
" />
<path d="M110260 33248
L110173 33222
" />
<path d="M110262 33248
L110260 33248
" />
<path d="M110264 33249
L110262 33248
" />
<path d="M110264 33249
L110264 33249
" />
<path d="M110264 33249
L110264 33249
" />
<path d="M110264 33249
L110264 33249
" />
<path d="M110355 33258
L110355 33258
" />
<path d="M110356 33258
L110355 33258
" />
<path d="M112226 33258
L110356 33258
" />
<path d="M112314 33266
L112226 33258
" />
<path d="M112397 33292
L112314 33266
" />
<path d="M112475 33333
L112397 33292
" />
<path d="M112542 33388
L112475 33333
" />
<path d="M112598 33455
L112542 33388
" />
<path d="M112639 33532
L112598 33455
" />
<path d="M112665 33616
L112639 33532
" />
<path d="M112675 33703
L112665 33616
" />
<path d="M112666 45948
L112675 45860
" />
<path d="M112641 46032
L112666 45948
" />
<path d="M112600 46109
L112641 46032
" />
<path d="M112477 46232
L112545 46177
" />
<path d="M112400 46274
L112477 46232
" />
<path d="M112317 46300
L112400 46274
" />
<path d="M112229 46309
L112317 46300
" />
<path d="M112227 46309
L112229 46309
" />
<path d="M4656 46312
L112227 46309
" />
<path d="M4568 46304
L4656 46312
" />
<path d="M4484 46279
L4568 46304
" />
<path d="M4407 46238
L4484 46279
" />
<path d="M4340 46182
L4407 46238
" />
<path d="M4284 46115
L4340 46182
" />
<path d="M4242 46038
L4284 46115
" />
<path d="M4216 45955
L4242 46038
" />
<path d="M4207 45867
L4216 45955
" />
<path d="M4207 45864
L4207 45867
" />
<path d="M4216 33622
L4207 33710
" />
<path d="M4241 33538
L4216 33622
" />
<path d="M4282 33461
L4241 33538
" />
<path d="M4337 33394
L4282 33461
" />
<path d="M4405 33338
L4337 33394
" />
<path d="M4482 33296
L4405 33338
" />
<path d="M4565 33270
L4482 33296
" />
<path d="M4653 33261
L4565 33270
" />
<path d="M4655 33261
L4653 33261
" />
<path d="M6526 33261
L4655 33261
" />
<path d="M6526 33261
L6526 33261
" />
<path d="M6528 33261
L6526 33261
" />
<path d="M6529 33261
L6528 33261
" />
<path d="M6530 33261
L6529 33261
" />
<path d="M6530 33261
L6530 33261
" />
<path d="M6621 33251
L6530 33261
" />
<path d="M6623 33251
L6621 33251
" />
<path d="M6625 33251
L6623 33251
" />
<path d="M6625 33251
L6625 33251
" />
<path d="M6712 33224
L6625 33251
" />
<path d="M6714 33223
L6712 33224
" />
<path d="M6715 33223
L6714 33223
" />
<path d="M6716 33222
L6715 33223
" />
<path d="M6716 33222
L6716 33222
" />
<path d="M6716 33222
L6716 33222
" />
<path d="M6796 33179
L6716 33222
" />
<path d="M6797 33178
L6796 33179
" />
<path d="M6799 33177
L6797 33178
" />
<path d="M6799 33177
L6799 33177
" />
<path d="M6869 33119
L6799 33177
" />
<path d="M6871 33118
L6869 33119
" />
<path d="M6872 33116
L6871 33118
" />
<path d="M6872 33116
L6872 33116
" />
<path d="M6872 33116
L6872 33116
" />
<path d="M6872 33116
L6872 33116
" />
<path d="M6930 33045
L6872 33116
" />
<path d="M6931 33044
L6930 33045
" />
<path d="M6932 33042
L6931 33044
" />
<path d="M6932 33042
L6932 33042
" />
<path d="M6975 32962
L6932 33042
" />
<path d="M6975 32960
L6975 32962
" />
<path d="M6976 32958
L6975 32960
" />
<path d="M6976 32958
L6976 32958
" />
<path d="M7003 32871
L6976 32958
" />
</g>
<g style="fill:#000000; fill-opacity:0.0; 
stroke:#000000; stroke-width:47.2441; stroke-opacity:1; 
stroke-linecap:round; stroke-linejoin:round;">
<path d="M42407 38565
L41038 38198
" />
<path d="M42723 37386
L42407 38565
" />
<path d="M41354 37019
L42723 37386
" />
<path d="M41038 38198
L41354 37019
" />
<path d="M8625 16566
L7207 16566
" />
<path d="M8625 15346
L8625 16566
" />
<path d="M7207 15346
L8625 15346
" />
<path d="M7207 16566
L7207 15346
" />
<path d="M16105 16566
L14687 16566
" />
<path d="M16105 15346
L16105 16566
" />
<path d="M14687 15346
L16105 15346
" />
<path d="M14687 16566
L14687 15346
" />
<path d="M23585 14696
L22168 14696
" />
<path d="M23585 13476
L23585 14696
" />
<path d="M22168 13476
L23585 13476
" />
<path d="M22168 14696
L22168 13476
" />
<path d="M31065 13761
L29648 13761
" />
<path d="M31065 12541
L31065 13761
" />
<path d="M29648 12541
L31065 12541
" />
<path d="M29648 13761
L29648 12541
" />
<path d="M38546 14696
L37128 14696
" />
<path d="M38546 13476
L38546 14696
" />
<path d="M37128 13476
L38546 13476
" />
<path d="M37128 14696
L37128 13476
" />
<path d="M46026 15631
L44609 15631
" />
<path d="M46026 14411
L46026 15631
" />
<path d="M44609 14411
L46026 14411
" />
<path d="M44609 15631
L44609 14411
" />
<path d="M8625 24047
L7207 24047
" />
<path d="M8625 22826
L8625 24047
" />
<path d="M7207 22826
L8625 22826
" />
<path d="M7207 24047
L7207 22826
" />
<path d="M16105 24047
L14687 24047
" />
<path d="M16105 22826
L16105 24047
" />
<path d="M14687 22826
L16105 22826
" />
<path d="M14687 24047
L14687 22826
" />
<path d="M23585 22177
L22168 22177
" />
<path d="M23585 20956
L23585 22177
" />
<path d="M22168 20956
L23585 20956
" />
<path d="M22168 22177
L22168 20956
" />
<path d="M31065 21242
L29648 21242
" />
<path d="M31065 20021
L31065 21242
" />
<path d="M29648 20021
L31065 20021
" />
<path d="M29648 21242
L29648 20021
" />
<path d="M38546 22177
L37128 22177
" />
<path d="M38546 20956
L38546 22177
" />
<path d="M37128 20956
L38546 20956
" />
<path d="M37128 22177
L37128 20956
" />
<path d="M46026 23112
L44609 23112
" />
<path d="M46026 21891
L46026 23112
" />
<path d="M44609 21891
L46026 21891
" />
<path d="M44609 23112
L44609 21891
" />
<path d="M8625 31527
L7207 31527
" />
<path d="M8625 30307
L8625 31527
" />
<path d="M7207 30307
L8625 30307
" />
<path d="M7207 31527
L7207 30307
" />
<path d="M16105 31527
L14687 31527
" />
<path d="M16105 30307
L16105 31527
" />
<path d="M14687 30307
L16105 30307
" />
<path d="M14687 31527
L14687 30307
" />
<path d="M23585 29657
L22168 29657
" />
<path d="M23585 28437
L23585 29657
" />
<path d="M22168 28437
L23585 28437
" />
<path d="M22168 29657
L22168 28437
" />
<path d="M31065 28722
L29648 28722
" />
<path d="M31065 27501
L31065 28722
" />
<path d="M29648 27501
L31065 27501
" />
<path d="M29648 28722
L29648 27501
" />
<path d="M46026 30592
L44609 30592
" />
<path d="M46026 29372
L46026 30592
" />
<path d="M44609 29372
L46026 29372
" />
<path d="M44609 30592
L44609 29372
" />
<path d="M34806 37383
L33388 37383
" />
<path d="M34806 36163
L34806 37383
" />
<path d="M33388 36163
L34806 36163
" />
<path d="M33388 37383
L33388 36163
" />
<path d="M53627 38089
L52918 39316
" />
<path d="M52570 37478
L53627 38089
" />
<path d="M51861 38706
L52570 37478
" />
<path d="M52918 39316
L51861 38706
" />
<path d="M87168 21242
L85750 21242
" />
<path d="M87168 20021
L87168 21242
" />
<path d="M85750 20021
L87168 20021
" />
<path d="M85750 21242
L85750 20021
" />
<path d="M79687 22177
L78270 22177
" />
<path d="M79687 20956
L79687 22177
" />
<path d="M78270 20956
L79687 20956
" />
<path d="M78270 22177
L78270 20956
" />
<path d="M72207 23112
L70790 23112
" />
<path d="M72207 21891
L72207 23112
" />
<path d="M70790 21891
L72207 21891
" />
<path d="M70790 23112
L70790 21891
" />
<path d="M109609 31527
L108191 31527
" />
<path d="M109609 30307
L109609 31527
" />
<path d="M108191 30307
L109609 30307
" />
<path d="M108191 31527
L108191 30307
" />
<path d="M102128 31527
L100711 31527
" />
<path d="M102128 30307
L102128 31527
" />
<path d="M100711 30307
L102128 30307
" />
<path d="M100711 31527
L100711 30307
" />
<path d="M94648 29657
L93231 29657
" />
<path d="M94648 28437
L94648 29657
" />
<path d="M93231 28437
L94648 28437
" />
<path d="M93231 29657
L93231 28437
" />
<path d="M87168 28722
L85750 28722
" />
<path d="M87168 27501
L87168 28722
" />
<path d="M85750 27501
L87168 27501
" />
<path d="M85750 28722
L85750 27501
" />
<path d="M79687 29657
L78270 29657
" />
<path d="M79687 28437
L79687 29657
" />
<path d="M78270 28437
L79687 28437
" />
<path d="M78270 29657
L78270 28437
" />
<path d="M72207 30592
L70790 30592
" />
<path d="M72207 29372
L72207 30592
" />
<path d="M70790 29372
L72207 29372
" />
<path d="M70790 30592
L70790 29372
" />
<path d="M83428 37383
L82010 37383
" />
<path d="M83428 36163
L83428 37383
" />
<path d="M82010 36163
L83428 36163
" />
<path d="M82010 37383
L82010 36163
" />
<path d="M75780 38196
L74411 38563
" />
<path d="M75465 37017
L75780 38196
" />
<path d="M74096 37384
L75465 37017
" />
<path d="M74411 38563
L74096 37384
" />
<path d="M63901 39314
L63192 38087
" />
<path d="M64957 38704
L63901 39314
" />
<path d="M64249 37476
L64957 38704
" />
<path d="M63192 38087
L64249 37476
" />
<path d="M38546 29657
L37128 29657
" />
<path d="M38546 28437
L38546 29657
" />
<path d="M37128 28437
L38546 28437
" />
<path d="M37128 29657
L37128 28437
" />
<path d="M109609 16566
L108191 16566
" />
<path d="M109609 15346
L109609 16566
" />
<path d="M108191 15346
L109609 15346
" />
<path d="M108191 16566
L108191 15346
" />
<path d="M102128 16566
L100711 16566
" />
<path d="M102128 15346
L102128 16566
" />
<path d="M100711 15346
L102128 15346
" />
<path d="M100711 16566
L100711 15346
" />
<path d="M94648 14696
L93231 14696
" />
<path d="M94648 13476
L94648 14696
" />
<path d="M93231 13476
L94648 13476
" />
<path d="M93231 14696
L93231 13476
" />
<path d="M87168 13761
L85750 13761
" />
<path d="M87168 12541
L87168 13761
" />
<path d="M85750 12541
L87168 12541
" />
<path d="M85750 13761
L85750 12541
" />
<path d="M79687 14696
L78270 14696
" />
<path d="M79687 13476
L79687 14696
" />
<path d="M78270 13476
L79687 13476
" />
<path d="M78270 14696
L78270 13476
" />
<path d="M72207 15631
L70790 15631
" />
<path d="M72207 14411
L72207 15631
" />
<path d="M70790 14411
L72207 14411
" />
<path d="M70790 15631
L70790 14411
" />
<path d="M109609 24047
L108191 24047
" />
<path d="M109609 22826
L109609 24047
" />
<path d="M108191 22826
L109609 22826
" />
<path d="M108191 24047
L108191 22826
" />
<path d="M102128 24047
L100711 24047
" />
<path d="M102128 22826
L102128 24047
" />
<path d="M100711 22826
L102128 22826
" />
<path d="M100711 24047
L100711 22826
" />
<path d="M94648 22177
L93231 22177
" />
<path d="M94648 20956
L94648 22177
" />
<path d="M93231 20956
L94648 20956
" />
<path d="M93231 22177
L93231 20956
" />
<g >
</g>
<g >
</g>
<g >
</g>
<g >
</g>
<g >
</g>
<g >
</g>
<g >
</g>
<g >
</g>
<g >
</g>
<g >
</g>
<g >
</g>
<g >
</g>
<g >
</g>
<g >
</g>
<g >
</g>
<g >
</g>
<g >
</g>
<g >
</g>
<g >
</g>
<g >
</g>
<g >
</g>
<g >
</g>
<g >
</g>
<g >
</g>
<g >
</g>
<g >
</g>
<g >
</g>
<g >
</g>
<g >
</g>
<g >
</g>
<g >
</g>
<g >
</g>
<g >
</g>
<g >
</g>
<g >
</g>
<g >
</g>
<g >
</g>
<g >
</g>
<g >
</g>
<g >
</g>
<g >
</g>
<g >
</g>
<g >
</g>
<g >
</g>
<g >
</g>
<g >
</g>
<g >
</g>
<g >
</g>
<g >
</g>
<g >
</g>
<g >
</g>
<g >
</g>
<g >
</g>
<g >
</g>
<g >
</g>
<g >
</g>
<g >
</g>
<g >
</g>
<g >
</g>
<g >
</g>
<g >
</g>
<g >
</g>
<g >
</g>
<g >
</g>
<g >
</g>
<g >
</g>
<g >
</g>
<g >
</g>
<g >
</g>
<g >
</g>
<g >
</g>
<g >
</g>
<g >
</g>
<g >
</g>
<g >
</g>
<g >
</g>
<g >
</g>
<g >
</g>
<g >
</g>
<g >
</g>
<g >
</g>
<g >
</g>
<g >
</g>
<g >
</g>
<g >
</g>
<g >
</g>
<g >
</g>
<g >
</g>
<g >
</g>
<g >
</g>
<g >
</g>
<g >
</g>
<g >
</g>
<g >
</g>
<g >
</g>
<g >
</g>
<g >
</g>
<g >
</g>
<g >
</g>
<g >
</g>
<g >
</g>
<g >
</g>
<g >
</g>
<g >
</g>
<g >
</g>
<g >
</g>
<g >
</g>
<g >
</g>
<g >
</g>
<g >
</g>
<g >
</g>
<g >
</g>
<g >
</g>
<g >
</g>
<g >
</g>
<g >
</g>
<g >
</g>
<g >
</g>
<g >
</g>
<g >
</g>
<g >
</g>
<g >
</g>
<g >
</g>
<g >
</g>
<g >
</g>
<g >
</g>
<g >
</g>
<g >
</g>
<g >
</g>
<g >
</g>
<g >
</g>
<g >
</g>
<g >
</g>
<g >
</g>
<g >
</g>
<g >
</g>
<g >
</g>
<g >
</g>
<g >
</g>
<g >
</g>
<g >
</g>
<g >
</g>
<g >
</g>
<g >
</g>
<g >
</g>
<g >
</g>
<g >
</g>
<g >
</g>
<g >
</g>
<g >
</g>
<g >
</g>
<g >
</g>
<g >
</g>
<g >
</g>
<g >
</g>
<g >
</g>
<g >
</g>
<g >
</g>
<g >
</g>
<g >
</g>
<g >
</g>
<g >
</g>
<g >
</g>
<g >
</g>
<g >
</g>
<g >
</g>
<g >
</g>
<g >
</g>
<g >
</g>
<g >
</g>
<g >
</g>
<g >
</g>
<g >
</g>
</g> 
</svg>
