<?xml version="1.0" encoding="UTF-8" standalone="no"?>
<!-- Generator: Adobe Illustrator 26.0.2, SVG Export Plug-In . SVG Version: 6.00 Build 0)  -->

<svg
   version="1.1"
   x="0px"
   y="0px"
   viewBox="0 0 1889.7638 755.90547"
   xml:space="preserve"
   id="svg2217"
   sodipodi:docname="corne-mini-plate.svg"
   width="500mm"
   height="200mm"
   inkscape:version="1.3 (0e150ed, 2023-07-21)"
   xmlns:inkscape="http://www.inkscape.org/namespaces/inkscape"
   xmlns:sodipodi="http://sodipodi.sourceforge.net/DTD/sodipodi-0.dtd"
   xmlns="http://www.w3.org/2000/svg"
   xmlns:svg="http://www.w3.org/2000/svg"><defs
   id="defs2221" /><sodipodi:namedview
   id="namedview2219"
   pagecolor="#ffffff"
   bordercolor="#666666"
   borderopacity="1.0"
   inkscape:pageshadow="2"
   inkscape:pageopacity="0.0"
   inkscape:pagecheckerboard="0"
   showgrid="false"
   units="mm"
   width="500mm"
   inkscape:zoom="2.0000001"
   inkscape:cx="743.49998"
   inkscape:cy="432.49999"
   inkscape:window-width="3616"
   inkscape:window-height="1955"
   inkscape:window-x="104"
   inkscape:window-y="165"
   inkscape:window-maximized="0"
   inkscape:current-layer="layer2"
   inkscape:document-units="mm"
   inkscape:showpageshadow="2"
   inkscape:deskcolor="#d1d1d1"
   showguides="true" />&#10;<style
   type="text/css"
   id="style2">&#10;	.st0{fill:none;stroke:#0000FF;stroke-width:1.000000e-03;stroke-miterlimit:10;}&#10;	.st1{fill:none;stroke:#FF0000;stroke-width:3.000000e-03;stroke-linecap:round;stroke-linejoin:round;stroke-miterlimit:10;}&#10;	.st2{fill:none;stroke:#FF0000;stroke-width:3.000000e-03;stroke-miterlimit:11.339;}&#10;	.st3{display:none;}&#10;	.st4{display:inline;}&#10;	.st5{fill:#FF0000;}&#10;	.st6{fill:#0000FF;}&#10;	.st7{fill:#336699;}&#10;	.st8{fill:#00FFFF;}&#10;	.st9{fill:#00FF00;}&#10;	.st10{fill:none;stroke:#000000;stroke-miterlimit:10;}&#10;</style>&#10;&#10;&#10;&#10;&#10;&#10;&#10;<g
   inkscape:groupmode="layer"
   id="layer2"
   inkscape:label="CUT2"
   inkscape:highlight-color="#0000ff"
   style="display:inline"><path
     style="display:inline;fill:none;stroke:#0000ff;stroke-opacity:1;stroke-width:0.132283;stroke-dasharray:none"
     d="m 404.63455,45.964252 1e-4,-5.21784 c 0,-0.31843 0,-0.65011 -0.055,-0.99909 -0.046,-0.29096 -0.1341,-0.62414 -0.3168,-0.97588 -0.2222,-0.42785 -0.5273,-0.77423 -0.8343,-1.03143 -0.3337,-0.27955 -0.6964,-0.48058 -1.0975,-0.60616 -0.5263,-0.16481 -1.017,-0.16481 -1.4762,-0.1672 l -68.2201,-0.002 -1.7e-4,-5.22891 c -1.6e-4,-0.3195 -1.6e-4,-0.65117 -0.055,-1.00016 -0.0457,-0.29096 -0.1341,-0.62414 -0.31677,-0.97587 -0.2222,-0.42786 -0.5273,-0.77424 -0.83431,-1.03144 -0.33369,-0.27954 -0.69644,-0.48057 -1.09748,-0.60616 -0.52627,-0.1648 -1.01699,-0.1648 -1.47626,-0.16613 l -68.22005,-10e-4 -1.7e-4,-5.2112 c -1.6e-4,-0.32179 -1.6e-4,-0.65346 -0.055,-1.00244 -0.0457,-0.29096 -0.1341,-0.62414 -0.31677,-0.97588 -0.2222,-0.42785 -0.5273,-0.77423 -0.83431,-1.03143 -0.33369,-0.27955 -0.69644,-0.48058 -1.09748,-0.60617 -0.52627,-0.1648 -1.01699,-0.1648 -1.47626,-0.16384 l -71.24404,-2e-5 c -0.3206,-9.8e-4 -0.65227,-9.8e-4 -1.00126,0.0538 -0.29096,0.0457 -0.62413,0.1341 -0.97587,0.31677 -0.42786,0.2222 -0.77424,0.5273 -1.03143,0.83431 -0.27955,0.33369 -0.48058,0.69644 -0.60617,1.09748 -0.1648,0.52627 -0.1648,1.01699 -0.16504,1.4774 l -2.4e-4,5.2212 -68.21999,-9.4e-4 c -0.3206,-9.3e-4 -0.65227,-9.3e-4 -1.00126,0.0539 -0.29096,0.0456 -0.62413,0.13409 -0.97587,0.31676 -0.42786,0.2222 -0.77424,0.5273 -1.03143,0.83431 -0.27955,0.33369 -0.48058,0.69644 -0.60617,1.09748 -0.1648,0.52627 -0.1648,1.01699 -0.16504,1.47736 l -2.4e-4,14.22116 -68.189984,-9.5e-4 c -2.08736,-9.5e-4 -3.77951,1.69121 -3.77927,3.77976 l 1e-5,215.242538 c -2.4e-4,2.08872 1.69192,3.78087 3.77926,3.77976 l 141.677984,-10e-4 34.92418,61.1198 c 0.15628,0.27299 0.32314,0.56498 0.56602,0.84391 0.30268,0.34759 0.61161,0.54844 0.86365,0.67662 0.52121,0.26503 1.02264,0.31753 1.45905,0.3614 l 141.71608,14.81827 65.0007,28.78064 c 0.2932,0.13042 0.5965,0.26469 0.9377,0.35589 0.2846,0.076 0.625,0.13002 1.0206,0.10542 0.4812,-0.03 0.9214,-0.16873 1.2809,-0.34534 0.3907,-0.19195 0.7214,-0.44227 0.9986,-0.75813 0.3637,-0.4145 0.5624,-0.86321 0.7483,-1.2808 l 43.5362,-98.33784 c 0.096,-0.218 0.1993,-0.45025 0.2614,-0.74413 0.062,-0.29387 0.062,-0.54786 0.062,-0.78591 V 49.747262 c 10e-5,-0.31843 10e-5,-0.65011 -0.055,-0.99909 -0.046,-0.29096 -0.1341,-0.62414 -0.3167,-0.97588 -0.2222,-0.42785 -0.5273,-0.77423 -0.8343,-1.03143 -0.3337,-0.27955 -0.6965,-0.48058 -1.0975,-0.60616 -0.5263,-0.16481 -1.017,-0.16481 -1.4762,-0.1672 z"
     id="path221"
     sodipodi:nodetypes="ccsssscccsssscccssssccsssscccssssccccccccsscccssssccsccsssscc" /><path
     style="display:inline;fill:none;stroke:#0000ff;stroke-opacity:1;stroke-width:0.132283;stroke-dasharray:none"
     d="m 404.63455,405.01936 1e-4,-5.21784 c 0,-0.31843 0,-0.65011 -0.055,-0.99909 -0.046,-0.29096 -0.1341,-0.62414 -0.3168,-0.97588 -0.2222,-0.42785 -0.5273,-0.77423 -0.8343,-1.03143 -0.3337,-0.27955 -0.6964,-0.48058 -1.0975,-0.60616 -0.5263,-0.16481 -1.017,-0.16481 -1.4762,-0.1672 l -68.2201,-0.002 -1.7e-4,-5.22891 c -1.6e-4,-0.3195 -1.6e-4,-0.65117 -0.055,-1.00016 -0.0457,-0.29096 -0.1341,-0.62414 -0.31677,-0.97587 -0.2222,-0.42786 -0.5273,-0.77424 -0.83431,-1.03144 -0.33369,-0.27954 -0.69644,-0.48057 -1.09748,-0.60616 -0.52627,-0.1648 -1.01699,-0.1648 -1.47626,-0.16613 l -68.22005,-0.001 -1.7e-4,-5.2112 c -1.6e-4,-0.32179 -1.6e-4,-0.65346 -0.055,-1.00244 -0.0457,-0.29096 -0.1341,-0.62414 -0.31677,-0.97588 -0.2222,-0.42785 -0.5273,-0.77423 -0.83431,-1.03143 -0.33369,-0.27955 -0.69644,-0.48058 -1.09748,-0.60617 -0.52627,-0.1648 -1.01699,-0.1648 -1.47626,-0.16384 l -71.24404,-2e-5 c -0.3206,-9.8e-4 -0.65227,-9.8e-4 -1.00126,0.0538 -0.29096,0.0457 -0.62413,0.1341 -0.97587,0.31677 -0.42786,0.2222 -0.77424,0.5273 -1.03143,0.83431 -0.27955,0.33369 -0.48058,0.69644 -0.60617,1.09748 -0.1648,0.52627 -0.1648,1.01699 -0.16504,1.4774 l -2.4e-4,5.2212 -68.21999,-9.4e-4 c -0.3206,-9.3e-4 -0.65227,-9.3e-4 -1.00126,0.0539 -0.29096,0.0456 -0.62413,0.13409 -0.97587,0.31676 -0.42786,0.2222 -0.77424,0.5273 -1.03143,0.83431 -0.27955,0.33369 -0.48058,0.69644 -0.60617,1.09748 -0.1648,0.52627 -0.1648,1.01699 -0.16504,1.47736 l -2.4e-4,14.22116 -68.189984,-9.5e-4 c -2.08736,-9.5e-4 -3.77951,1.69121 -3.77927,3.77976 l 1e-5,215.24254 c -2.4e-4,2.08872 1.69192,3.78087 3.77926,3.77976 l 141.677984,-10e-4 34.92418,61.1198 c 0.15628,0.27299 0.32314,0.56498 0.56602,0.84391 0.30268,0.34759 0.61161,0.54844 0.86365,0.67662 0.52121,0.26503 1.02264,0.31753 1.45905,0.3614 l 141.71608,14.81827 65.0007,28.78064 c 0.2932,0.13042 0.5965,0.26469 0.9377,0.35589 0.2846,0.076 0.625,0.13002 1.0206,0.10542 0.4812,-0.03 0.9214,-0.16873 1.2809,-0.34534 0.3907,-0.19195 0.7214,-0.44227 0.9986,-0.75813 0.3637,-0.4145 0.5624,-0.86321 0.7483,-1.2808 l 43.5362,-98.33784 c 0.096,-0.218 0.1993,-0.45025 0.2614,-0.74413 0.062,-0.29387 0.062,-0.54786 0.062,-0.78591 V 408.80237 c 10e-5,-0.31843 10e-5,-0.65011 -0.055,-0.99909 -0.046,-0.29096 -0.1341,-0.62414 -0.3167,-0.97588 -0.2222,-0.42785 -0.5273,-0.77423 -0.8343,-1.03143 -0.3337,-0.27955 -0.6965,-0.48058 -1.0975,-0.60616 -0.5263,-0.16481 -1.017,-0.16481 -1.4762,-0.1672 z"
     id="path221-2"
     sodipodi:nodetypes="ccsssscccsssscccssssccsssscccssssccccccccsscccssssccsccsssscc" /><path
     style="display:inline;fill:none;stroke:#0000ff;stroke-opacity:1;stroke-width:0.132283;stroke-dasharray:none"
     d="m 1028.2566,45.964249 10e-5,-5.21784 c 0,-0.31843 0,-0.65011 -0.055,-0.99909 -0.046,-0.29096 -0.1341,-0.62414 -0.3168,-0.97588 -0.2222,-0.42785 -0.5273,-0.77423 -0.8343,-1.03143 -0.3337,-0.27955 -0.6964,-0.48058 -1.0975,-0.60616 -0.5263,-0.16481 -1.017,-0.16481 -1.4762,-0.1672 l -68.22013,-0.002 -1.7e-4,-5.228907 c -1.6e-4,-0.3195 -1.6e-4,-0.65117 -0.055,-1.00016 -0.0457,-0.29096 -0.1341,-0.62414 -0.31677,-0.97587 -0.2222,-0.42786 -0.5273,-0.77424 -0.83431,-1.03144 -0.33369,-0.27954 -0.69644,-0.48057 -1.09748,-0.60616 -0.52627,-0.1648 -1.01699,-0.1648 -1.47626,-0.16613 l -68.22005,-10e-4 -1.7e-4,-5.2112 c -1.6e-4,-0.32179 -1.6e-4,-0.65346 -0.055,-1.00244 -0.0457,-0.29096 -0.1341,-0.62414 -0.31677,-0.97588 -0.2222,-0.42785 -0.5273,-0.77423 -0.83431,-1.03143 -0.33369,-0.27955 -0.69644,-0.48058 -1.09748,-0.60617 -0.52627,-0.1648 -1.01699,-0.1648 -1.47626,-0.16384 l -71.24404,-2e-5 c -0.3206,-9.8e-4 -0.65227,-9.8e-4 -1.00126,0.0538 -0.29096,0.0457 -0.62413,0.1341 -0.97587,0.31677 -0.42786,0.2222 -0.77424,0.5273 -1.03143,0.83431 -0.27955,0.33369 -0.48058,0.69644 -0.60617,1.09748 -0.1648,0.52627 -0.1648,1.01699 -0.16504,1.4774 l -2.4e-4,5.2212 -68.21999,-9.4e-4 c -0.3206,-9.3e-4 -0.65227,-9.3e-4 -1.00126,0.0539 -0.29096,0.0456 -0.62413,0.13409 -0.97587,0.31676 -0.42786,0.2222 -0.77424,0.5273 -1.03143,0.83431 -0.27955,0.33369 -0.48058,0.69644 -0.60617,1.09748 -0.1648,0.52627 -0.1648,1.01699 -0.16504,1.47736 l -2.4e-4,14.221157 -68.18998,-9.5e-4 c -2.08736,-9.5e-4 -3.77951,1.69121 -3.77927,3.77976 l 10e-6,215.242541 c -2.4e-4,2.08872 1.69192,3.78087 3.77926,3.77976 l 141.67798,-10e-4 34.92418,61.1198 c 0.15628,0.27299 0.32314,0.56498 0.56602,0.84391 0.30268,0.34759 0.61161,0.54844 0.86365,0.67662 0.52121,0.26503 1.02264,0.31753 1.45905,0.3614 l 141.71608,14.81827 65.00073,28.78064 c 0.2932,0.13042 0.5965,0.26469 0.9377,0.35589 0.2846,0.076 0.625,0.13002 1.0206,0.10542 0.4812,-0.03 0.9214,-0.16873 1.2809,-0.34534 0.3907,-0.19195 0.7214,-0.44227 0.9986,-0.75813 0.3637,-0.4145 0.5624,-0.86321 0.7483,-1.2808 l 43.5362,-98.33784 c 0.096,-0.218 0.1993,-0.45025 0.2614,-0.74413 0.062,-0.29387 0.062,-0.54786 0.062,-0.78591 V 49.747259 c 10e-5,-0.31843 10e-5,-0.65011 -0.055,-0.99909 -0.046,-0.29096 -0.1341,-0.62414 -0.3167,-0.97588 -0.2222,-0.42785 -0.5273,-0.77423 -0.8343,-1.03143 -0.3337,-0.27955 -0.6965,-0.48058 -1.0975,-0.60616 -0.5263,-0.16481 -1.017,-0.16481 -1.4762,-0.1672 z"
     id="path221-3"
     sodipodi:nodetypes="ccsssscccsssscccssssccsssscccssssccccccccsscccssssccsccsssscc" /><path
     style="display:inline;fill:none;stroke:#0000ff;stroke-opacity:1;stroke-width:0.132283;stroke-dasharray:none"
     d="m 1028.2566,405.01936 10e-5,-5.21784 c 0,-0.31843 0,-0.65011 -0.055,-0.99909 -0.046,-0.29096 -0.1341,-0.62414 -0.3168,-0.97588 -0.2222,-0.42785 -0.5273,-0.77423 -0.8343,-1.03143 -0.3337,-0.27955 -0.6964,-0.48058 -1.0975,-0.60616 -0.5263,-0.16481 -1.017,-0.16481 -1.4762,-0.1672 l -68.22013,-0.002 -1.7e-4,-5.22891 c -1.6e-4,-0.3195 -1.6e-4,-0.65117 -0.055,-1.00016 -0.0457,-0.29096 -0.1341,-0.62414 -0.31677,-0.97587 -0.2222,-0.42786 -0.5273,-0.77424 -0.83431,-1.03144 -0.33369,-0.27954 -0.69644,-0.48057 -1.09748,-0.60616 -0.52627,-0.1648 -1.01699,-0.1648 -1.47626,-0.16613 l -68.22005,-0.001 -1.7e-4,-5.2112 c -1.6e-4,-0.32179 -1.6e-4,-0.65346 -0.055,-1.00244 -0.0457,-0.29096 -0.1341,-0.62414 -0.31677,-0.97588 -0.2222,-0.42785 -0.5273,-0.77423 -0.83431,-1.03143 -0.33369,-0.27955 -0.69644,-0.48058 -1.09748,-0.60617 -0.52627,-0.1648 -1.01699,-0.1648 -1.47626,-0.16384 l -71.24404,-2e-5 c -0.3206,-9.8e-4 -0.65227,-9.8e-4 -1.00126,0.0538 -0.29096,0.0457 -0.62413,0.1341 -0.97587,0.31677 -0.42786,0.2222 -0.77424,0.5273 -1.03143,0.83431 -0.27955,0.33369 -0.48058,0.69644 -0.60617,1.09748 -0.1648,0.52627 -0.1648,1.01699 -0.16504,1.4774 l -2.4e-4,5.2212 -68.21999,-9.4e-4 c -0.3206,-9.3e-4 -0.65227,-9.3e-4 -1.00126,0.0539 -0.29096,0.0456 -0.62413,0.13409 -0.97587,0.31676 -0.42786,0.2222 -0.77424,0.5273 -1.03143,0.83431 -0.27955,0.33369 -0.48058,0.69644 -0.60617,1.09748 -0.1648,0.52627 -0.1648,1.01699 -0.16504,1.47736 l -2.4e-4,14.22116 -68.18998,-9.5e-4 c -2.08736,-9.5e-4 -3.77951,1.69121 -3.77927,3.77976 l 10e-6,215.24254 c -2.4e-4,2.08872 1.69192,3.78087 3.77926,3.77976 l 141.67798,-10e-4 34.92418,61.1198 c 0.15628,0.27299 0.32314,0.56498 0.56602,0.84391 0.30268,0.34759 0.61161,0.54844 0.86365,0.67662 0.52121,0.26503 1.02264,0.31753 1.45905,0.3614 l 141.71608,14.81827 65.00073,28.78064 c 0.2932,0.13042 0.5965,0.26469 0.9377,0.35589 0.2846,0.076 0.625,0.13002 1.0206,0.10542 0.4812,-0.03 0.9214,-0.16873 1.2809,-0.34534 0.3907,-0.19195 0.7214,-0.44227 0.9986,-0.75813 0.3637,-0.4145 0.5624,-0.86321 0.7483,-1.2808 l 43.5362,-98.33784 c 0.096,-0.218 0.1993,-0.45025 0.2614,-0.74413 0.062,-0.29387 0.062,-0.54786 0.062,-0.78591 V 408.80237 c 10e-5,-0.31843 10e-5,-0.65011 -0.055,-0.99909 -0.046,-0.29096 -0.1341,-0.62414 -0.3167,-0.97588 -0.2222,-0.42785 -0.5273,-0.77423 -0.8343,-1.03143 -0.3337,-0.27955 -0.6965,-0.48058 -1.0975,-0.60616 -0.5263,-0.16481 -1.017,-0.16481 -1.4762,-0.1672 z"
     id="path221-2-8"
     sodipodi:nodetypes="ccsssscccsssscccssssccsssscccssssccccccccsscccssssccsccsssscc" /><path
     style="display:inline;fill:none;stroke:#0000ff;stroke-opacity:1;stroke-width:0.132283;stroke-dasharray:none"
     d="m 1689.6739,45.964252 10e-5,-5.21784 c 0,-0.31843 0,-0.65011 -0.055,-0.99909 -0.046,-0.29096 -0.1341,-0.62414 -0.3169,-0.97588 -0.2221,-0.42785 -0.5273,-0.77423 -0.8343,-1.03143 -0.3336,-0.27955 -0.6963,-0.48058 -1.0974,-0.60616 -0.5263,-0.16481 -1.017,-0.16481 -1.4762,-0.1672 l -68.2201,-0.002 -2e-4,-5.22891 c -2e-4,-0.3195 -2e-4,-0.65117 -0.055,-1.00016 -0.046,-0.29096 -0.1341,-0.62414 -0.3168,-0.97587 -0.2222,-0.42786 -0.5273,-0.77424 -0.8343,-1.03144 -0.3337,-0.27954 -0.6964,-0.48057 -1.0975,-0.60616 -0.5263,-0.1648 -1.017,-0.1648 -1.4762,-0.16613 l -68.2201,-10e-4 -2e-4,-5.2112 c -10e-5,-0.32179 -10e-5,-0.65346 -0.055,-1.00244 -0.046,-0.29096 -0.1341,-0.62414 -0.3167,-0.97588 -0.2222,-0.42785 -0.5273,-0.77423 -0.8343,-1.03143 -0.3337,-0.27955 -0.6965,-0.48058 -1.0975,-0.60617 -0.5263,-0.1648 -1.017,-0.1648 -1.4763,-0.16384 l -71.244,-2e-5 c -0.3206,-9.8e-4 -0.6523,-9.8e-4 -1.0013,0.0538 -0.2909,0.0457 -0.6241,0.1341 -0.9759,0.31677 -0.4278,0.2222 -0.7742,0.5273 -1.0314,0.83431 -0.2795,0.33369 -0.4806,0.69644 -0.6062,1.09748 -0.1648,0.52627 -0.1648,1.01699 -0.165,1.4774 l -2e-4,5.2212 -68.22,-9.4e-4 c -0.3206,-9.3e-4 -0.6523,-9.3e-4 -1.0013,0.0539 -0.2909,0.0456 -0.6241,0.13409 -0.9759,0.31676 -0.4278,0.2222 -0.7742,0.5273 -1.0314,0.83431 -0.2795,0.33369 -0.4806,0.69644 -0.6062,1.09748 -0.1648,0.52627 -0.1648,1.01699 -0.165,1.47736 l -2e-4,14.22116 -68.19,-9.5e-4 c -2.0874,-9.5e-4 -3.7795,1.69121 -3.7793,3.77976 V 264.98634 c -2e-4,2.08872 1.6919,3.78087 3.7793,3.77976 l 141.678,-10e-4 34.9241,61.11981 c 0.1563,0.27299 0.3232,0.56498 0.5661,0.84391 0.3026,0.34759 0.6116,0.54844 0.8636,0.67662 0.5212,0.26503 1.0227,0.31753 1.4591,0.3614 l 141.716,14.81827 65.0007,28.78064 c 0.2932,0.13042 0.5965,0.26468 0.9377,0.35589 0.2846,0.076 0.625,0.13002 1.0206,0.10541 0.4812,-0.03 0.9214,-0.16872 1.2809,-0.34534 0.3907,-0.19195 0.7214,-0.44227 0.9986,-0.75813 0.3637,-0.41449 0.5624,-0.86321 0.7483,-1.2808 l 43.5362,-98.33784 c 0.096,-0.218 0.1993,-0.45025 0.2614,-0.74413 0.062,-0.29387 0.062,-0.54786 0.062,-0.78591 V 49.747262 c 10e-5,-0.31843 10e-5,-0.65011 -0.055,-0.99909 -0.046,-0.29096 -0.1341,-0.62414 -0.3167,-0.97588 -0.2222,-0.42785 -0.5273,-0.77423 -0.8343,-1.03143 -0.3337,-0.27955 -0.6965,-0.48058 -1.0975,-0.60616 -0.5263,-0.16481 -1.017,-0.16481 -1.4762,-0.1672 z"
     id="path221-7"
     sodipodi:nodetypes="ccsssscccsssscccssssccsssscccssssccccccccsscccssssccsccsssscc" /><path
     style="display:inline;fill:none;stroke:#0000ff;stroke-opacity:1;stroke-width:0.132283;stroke-dasharray:none"
     d="m 1689.6739,405.01937 10e-5,-5.21785 c 0,-0.31842 0,-0.6501 -0.055,-0.99909 -0.046,-0.29096 -0.1341,-0.62414 -0.3169,-0.97588 -0.2221,-0.42785 -0.5273,-0.77423 -0.8343,-1.03143 -0.3336,-0.27955 -0.6963,-0.48058 -1.0974,-0.60616 -0.5263,-0.16481 -1.017,-0.16481 -1.4762,-0.1672 l -68.2201,-0.002 -2e-4,-5.22891 c -2e-4,-0.3195 -2e-4,-0.65116 -0.055,-1.00016 -0.046,-0.29095 -0.1341,-0.62414 -0.3168,-0.97586 -0.2222,-0.42787 -0.5273,-0.77425 -0.8343,-1.03144 -0.3337,-0.27954 -0.6964,-0.48057 -1.0975,-0.60616 -0.5263,-0.1648 -1.017,-0.1648 -1.4762,-0.16613 l -68.2201,-10e-4 -2e-4,-5.2112 c -10e-5,-0.32179 -10e-5,-0.65346 -0.055,-1.00244 -0.046,-0.29096 -0.1341,-0.62414 -0.3167,-0.97588 -0.2222,-0.42785 -0.5273,-0.77423 -0.8343,-1.03143 -0.3337,-0.27955 -0.6965,-0.48058 -1.0975,-0.60617 -0.5263,-0.1648 -1.017,-0.1648 -1.4763,-0.16384 l -71.244,-2e-5 c -0.3206,-9.9e-4 -0.6523,-9.9e-4 -1.0013,0.0538 -0.2909,0.0457 -0.6241,0.1341 -0.9759,0.31677 -0.4278,0.2222 -0.7742,0.5273 -1.0314,0.83431 -0.2795,0.33369 -0.4806,0.69644 -0.6062,1.09748 -0.1648,0.52627 -0.1648,1.01699 -0.165,1.4774 l -2e-4,5.2212 -68.22,-9.4e-4 c -0.3206,-9.3e-4 -0.6523,-9.3e-4 -1.0013,0.0539 -0.2909,0.0456 -0.6241,0.13409 -0.9759,0.31676 -0.4278,0.2222 -0.7742,0.5273 -1.0314,0.83431 -0.2795,0.33369 -0.4806,0.69644 -0.6062,1.09748 -0.1648,0.52627 -0.1648,1.01699 -0.165,1.47736 l -2e-4,14.22116 -68.19,-9.5e-4 c -2.0874,-9.5e-4 -3.7795,1.69121 -3.7793,3.77976 v 215.24254 c -2e-4,2.08871 1.6919,3.78087 3.7793,3.77976 l 141.678,-0.001 34.9241,61.11979 c 0.1563,0.273 0.3232,0.56498 0.5661,0.84392 0.3026,0.34758 0.6116,0.54844 0.8636,0.67661 0.5212,0.26504 1.0227,0.31754 1.4591,0.3614 l 141.716,14.81827 65.0007,28.78064 c 0.2932,0.13042 0.5965,0.26469 0.9377,0.35589 0.2846,0.076 0.625,0.13002 1.0206,0.10542 0.4812,-0.03 0.9214,-0.16873 1.2809,-0.34534 0.3907,-0.19195 0.7214,-0.44227 0.9986,-0.75813 0.3637,-0.4145 0.5624,-0.86321 0.7483,-1.2808 l 43.5362,-98.33784 c 0.096,-0.218 0.1993,-0.45025 0.2614,-0.74413 0.062,-0.29387 0.062,-0.54786 0.062,-0.78591 V 408.80238 c 10e-5,-0.31843 10e-5,-0.65011 -0.055,-0.9991 -0.046,-0.29096 -0.1341,-0.62414 -0.3167,-0.97588 -0.2222,-0.42785 -0.5273,-0.77423 -0.8343,-1.03143 -0.3337,-0.27955 -0.6965,-0.48058 -1.0975,-0.60616 -0.5263,-0.16481 -1.017,-0.16481 -1.4762,-0.1672 z"
     id="path221-2-5"
     sodipodi:nodetypes="ccsssscccsssscccssssccsssscccssssccccccccsscccssssccsccsssscc" /></g>&#10;&#10;<g
   inkscape:groupmode="layer"
   id="layer1"
   inkscape:label="CUT1"
   style="display:inline;fill:none;stroke:#ff0000;stroke-opacity:1"
   inkscape:highlight-color="#ff0000"><path
     d="m 333.39051,256.36443 c -0.003,-5.54058 -8.31768,-5.54058 -8.31496,0 0.003,5.54058 8.31768,5.54058 8.31496,0 z"
     style="display:inline;fill:none;stroke:#ff0000;stroke-width:0.132283;stroke-dasharray:none;stroke-opacity:1"
     id="path30"
     sodipodi:nodetypes="sss" /><path
     d="m 333.41532,107.8574 c 0,-5.5433 -8.31496,-5.5433 -8.31496,0 0,5.5433 8.31496,5.5433 8.31496,0 z"
     style="display:inline;fill:none;stroke:#ff0000;stroke-width:0.132283;stroke-dasharray:none;stroke-opacity:1"
     id="path78"
     sodipodi:nodetypes="sss" /><path
     d="m 49.831456,61.174422 c -1.04368,0 -1.88976,0.84608 -1.88976,1.88976 v 44.598428 c 0,1.04368 0.84608,1.88976 1.88976,1.88976 h 54.803154 c 1.04368,0 1.88976,-0.84608 1.88976,-1.88976 V 63.064182 c 0,-1.04368 -0.84608,-1.88976 -1.88976,-1.88976 z"
     style="display:inline;fill:none;stroke:#ff0000;stroke-width:0.132283;stroke-dasharray:none;stroke-opacity:1"
     id="path224"
     sodipodi:nodetypes="sssssssss" /><path
     d="m 121.83146,43.175012 c -1.04369,0 -1.88976,0.84608 -1.88976,1.88977 v 44.59842 c 0,1.04368 0.84608,1.88976 1.88976,1.88976 h 54.80315 c 1.04368,0 1.88976,-0.84608 1.88976,-1.88976 v -44.59842 c 0,-1.04369 -0.84607,-1.88977 -1.88976,-1.88977 z"
     style="display:inline;fill:none;stroke:#ff0000;stroke-width:0.132283;stroke-dasharray:none;stroke-opacity:1"
     id="path226"
     sodipodi:nodetypes="scsssscss" /><path
     d="m 49.891506,133.17592 c -1.04368,0 -1.88976,0.84608 -1.88976,1.88976 v 44.59843 c 0,1.04368 0.84608,1.88976 1.88976,1.88976 h 54.803154 c 1.04369,0 1.88977,-0.84607 1.88977,-1.88976 v -44.59843 c 0,-1.04369 -0.84608,-1.88976 -1.88977,-1.88976 z"
     style="display:inline;fill:none;stroke:#ff0000;stroke-width:0.132283;stroke-dasharray:none;stroke-opacity:1"
     id="path227"
     sodipodi:nodetypes="sssscsscs" /><path
     d="M 104.69466,253.55388 H 49.891506 c -1.04368,0 -1.88976,-0.84608 -1.88976,-1.88976 v -44.59843 c 0,-1.04368 0.84608,-1.88976 1.88976,-1.88976 h 54.803154 c 1.04369,0 1.88977,0.84607 1.88977,1.88976 v 44.59843 c 0,1.04369 -0.84608,1.88976 -1.88977,1.88976 z"
     style="display:inline;fill:none;stroke:#ff0000;stroke-width:0.132283;stroke-dasharray:none;stroke-opacity:1"
     id="path228"
     sodipodi:nodetypes="csssscssc" /><path
     d="m 193.83146,34.174932 c -1.04368,0 -1.88976,0.84608 -1.88976,1.88976 v 44.59843 c 0,1.04368 0.84608,1.88976 1.88976,1.88976 h 54.80315 c 1.04368,0 1.88976,-0.84608 1.88976,-1.88976 v -44.59843 c 0,-1.04368 -0.84608,-1.88976 -1.88976,-1.88976 z"
     style="display:inline;fill:none;stroke:#ff0000;stroke-width:0.132283;stroke-dasharray:none;stroke-opacity:1"
     id="path229"
     sodipodi:nodetypes="sssssssss" /><path
     d="m 121.89152,115.17591 c -1.04369,0 -1.88976,0.84608 -1.88976,1.88977 v 44.59842 c 0,1.04369 0.84607,1.88977 1.88976,1.88977 h 54.80315 c 1.04369,0 1.88977,-0.84608 1.88977,-1.88977 v -44.59842 c 0,-1.04369 -0.84608,-1.88977 -1.88977,-1.88977 z"
     style="display:inline;fill:none;stroke:#ff0000;stroke-width:0.132283;stroke-dasharray:none;stroke-opacity:1"
     id="path230"
     sodipodi:nodetypes="sccscsccs" /><path
     d="m 176.69467,235.55387 h -54.80315 c -1.04369,0 -1.88977,-0.84607 -1.88977,-1.88976 v -44.59843 c 0,-1.04369 0.84608,-1.88976 1.88977,-1.88976 h 54.80315 c 1.04368,0 1.88976,0.84608 1.88976,1.88976 v 44.59843 c 0,1.04368 -0.84608,1.88976 -1.88976,1.88976 z"
     style="display:inline;fill:none;stroke:#ff0000;stroke-width:0.132283;stroke-dasharray:none;stroke-opacity:1"
     id="path231"
     sodipodi:nodetypes="scsscssss" /><path
     d="m 250.58444,108.06568 v 44.59842 c 0,1.04369 -0.84608,1.88977 -1.88977,1.88977 h -54.80315 c -1.04369,0 -1.88976,-0.84608 -1.88976,-1.88977 v -44.59842 c 0,-1.04369 0.84607,-1.88977 1.88976,-1.88977 h 54.80315 c 1.04369,0 1.88977,0.84608 1.88977,1.88977 z"
     style="display:inline;fill:none;stroke:#ff0000;stroke-width:0.132283;stroke-dasharray:none;stroke-opacity:1"
     id="path232"
     sodipodi:nodetypes="sscsscscs" /><path
     d="m 265.88108,115.15521 c -1.04369,0 -1.88977,0.84608 -1.88977,1.88977 v 44.59842 c 0,1.04369 0.84608,1.88977 1.88977,1.88977 h 54.80315 c 1.04369,0 1.88976,-0.84608 1.88976,-1.88977 v -44.59842 c 0,-1.04369 -0.84607,-1.88977 -1.88976,-1.88977 z"
     style="display:inline;fill:none;stroke:#ff0000;stroke-width:0.132283;stroke-dasharray:none;stroke-opacity:1"
     id="path233"
     sodipodi:nodetypes="csscssssc" /><path
     d="m 394.52435,198.06522 v 44.59842 c 0,1.04369 -0.8461,1.88977 -1.8897,1.88977 h -54.80319 c -1.04369,0 -1.88976,-0.84608 -1.88976,-1.88977 v -44.59842 c 0,-1.04369 0.84607,-1.88977 1.88976,-1.88977 h 54.80319 c 1.0436,0 1.8897,0.84608 1.8897,1.88977 z"
     style="display:inline;fill:none;stroke:#ff0000;stroke-width:0.132283;stroke-dasharray:none;stroke-opacity:1"
     id="path234"
     sodipodi:nodetypes="sssssssss" /><path
     d="m 192.00176,224.6641 v -44.59842 c 0,-1.04369 0.84607,-1.88977 1.88976,-1.88977 h 54.80315 c 1.04369,0 1.88977,0.84608 1.88977,1.88977 v 44.59842 c 0,1.04369 -0.84608,1.88977 -1.88977,1.88977 h -54.80315 c -1.04369,0 -1.88976,-0.84608 -1.88976,-1.88977 z"
     style="display:inline;fill:none;stroke:#ff0000;stroke-width:0.132283;stroke-dasharray:none;stroke-opacity:1"
     id="path235"
     sodipodi:nodetypes="ssscsscss" /><path
     d="m 263.9417,89.657702 v -44.59843 c 0,-1.04368 0.84608,-1.88976 1.88976,-1.88976 h 54.80315 c 1.04368,0 1.88976,0.84608 1.88976,1.88976 v 44.59843 c 0,1.04368 -0.84608,1.88976 -1.88976,1.88976 h -54.80315 c -1.04368,0 -1.88976,-0.84608 -1.88976,-1.88976 z"
     style="display:inline;fill:none;stroke:#ff0000;stroke-width:0.132283;stroke-dasharray:none;stroke-opacity:1"
     id="path236"
     sodipodi:nodetypes="sssssssss" /><path
     d="m 337.88755,124.17788 h 54.8032 c 1.0436,0 1.8897,0.84607 1.8897,1.88976 v 44.59843 c 0,1.04369 -0.8461,1.88976 -1.8897,1.88976 h -54.8032 c -1.04368,0 -1.88976,-0.84608 -1.88976,-1.88976 v -44.59843 c 0,-1.04368 0.84608,-1.88976 1.88976,-1.88976 z"
     style="display:inline;fill:none;stroke:#ff0000;stroke-width:0.132283;stroke-dasharray:none;stroke-opacity:1"
     id="path237"
     sodipodi:nodetypes="scsscssss" /><path
     d="m 392.63465,100.5596 h -54.80319 c -1.04369,0 -1.88976,-0.846081 -1.88976,-1.889771 V 54.071412 c 0,-1.04369 0.84607,-1.88977 1.88976,-1.88977 h 54.80319 c 1.0437,0 1.8897,0.84608 1.8897,1.88977 v 44.598417 c 0,1.04369 -0.846,1.889771 -1.8897,1.889771 z"
     style="display:inline;fill:none;stroke:#ff0000;stroke-width:0.132283;stroke-dasharray:none;stroke-opacity:1"
     id="path238"
     sodipodi:nodetypes="sssssssss" /><path
     d="m 264.00153,233.66409 c 0,1.04369 0.84607,1.88977 1.88976,1.88977 h 54.80315 c 1.04369,0 1.88977,-0.84608 1.88977,-1.88977 v -44.59842 c 0,-1.04369 -0.84608,-1.88976 -1.88977,-1.88976 h -54.80315 c -1.04368,0 -1.88976,0.84608 -1.88976,1.88976 z"
     style="display:inline;fill:none;stroke:#ff0000;stroke-width:0.132283;stroke-dasharray:none;stroke-opacity:1"
     id="path239"
     sodipodi:nodetypes="sscsscsss" /><path
     d="m 408.00175,206.6641 c 0,1.04369 0.8461,1.88977 1.8898,1.88977 h 54.8031 c 1.0437,0 1.8898,-0.84608 1.8898,-1.88977 v -44.59842 c 0,-1.04369 -0.8461,-1.88977 -1.8898,-1.88977 h -54.8031 c -1.0437,0 -1.8898,0.84608 -1.8898,1.88977 z"
     style="display:inline;fill:none;stroke:#ff0000;stroke-width:0.132283;stroke-dasharray:none;stroke-opacity:1"
     id="path240"
     sodipodi:nodetypes="sssssssss" /><path
     d="m 408.00175,134.6641 c 0,1.04369 0.8461,1.88977 1.8898,1.88977 h 54.8031 c 1.0437,0 1.8898,-0.84608 1.8898,-1.88977 V 90.065682 c 0,-1.04369 -0.8461,-1.88977 -1.8898,-1.88977 h -54.8031 c -1.0437,0 -1.8898,0.84608 -1.8898,1.88977 z"
     style="display:inline;fill:none;stroke:#ff0000;stroke-width:0.132283;stroke-dasharray:none;stroke-opacity:1"
     id="path241"
     sodipodi:nodetypes="sscsscsss" /><path
     d="m 228.00153,314.66364 v -44.59842 c 0,-1.04369 0.84607,-1.88977 1.88976,-1.88977 h 54.80315 c 1.04369,0 1.88977,0.84608 1.88977,1.88977 v 44.59842 c 0,1.04369 -0.84608,1.88977 -1.88977,1.88977 h -54.80315 c -1.04369,0 -1.88976,-0.84608 -1.88976,-1.88977 z"
     style="display:inline;fill:none;stroke:#ff0000;stroke-width:0.132283;stroke-dasharray:none;stroke-opacity:1"
     id="path242"
     sodipodi:nodetypes="ssscsssss" /><path
     d="m 314.15765,271.25664 53.6175,11.33807 c 1.0211,0.21593 1.6738,1.21874 1.4579,2.23985 l -9.2269,43.63353 c -0.2159,1.0211 -1.2187,1.67383 -2.2398,1.45791 l -53.61749,-11.33808 c -1.0211,-0.21593 -1.67383,-1.21873 -1.45791,-2.23984 l 9.22685,-43.63353 c 0.21593,-1.02111 1.21874,-1.67384 2.23985,-1.45791 z"
     style="display:inline;fill:none;stroke:#ff0000;stroke-width:0.132283;stroke-dasharray:none;stroke-opacity:1"
     id="path243"
     sodipodi:nodetypes="sssscssss" /><path
     d="m 427.04655,344.2682 c 0.9543,0.42251 2.0705,-0.009 2.493,-0.96297 l 22.1855,-50.11175 c 0.4225,-0.95434 -0.01,-2.0705 -0.9629,-2.49301 l -40.7806,-18.05444 c -0.9544,-0.42251 -2.0706,0.009 -2.4931,0.96297 l -22.1855,50.11175 c -0.4225,0.95434 0.01,2.0705 0.963,2.49301 z"
     style="display:inline;fill:none;stroke:#ff0000;stroke-width:0.132283;stroke-dasharray:none;stroke-opacity:1"
     id="path244"
     sodipodi:nodetypes="sssssssss" /><path
     d="m 110.25058,121.36489 c -0.003,-5.54058 -8.31768,-5.54058 -8.31496,0 0.003,5.54058 8.31768,5.54058 8.31496,0 z"
     style="display:inline;fill:none;stroke:#ff0000;stroke-width:0.132283;stroke-dasharray:none;stroke-opacity:1"
     id="path292"
     sodipodi:nodetypes="sss" /><path
     d="m 110.25058,193.36489 c -0.003,-5.54058 -8.31768,-5.54058 -8.31496,0 0.003,5.54058 8.31768,5.54058 8.31496,0 z"
     style="display:inline;fill:none;stroke:#ff0000;stroke-width:0.132283;stroke-dasharray:none;stroke-opacity:1"
     id="path294"
     sodipodi:nodetypes="sss" /><path
     d="m 333.39051,615.41954 c -0.003,-5.54058 -8.31768,-5.54058 -8.31496,0 0.003,5.54058 8.31768,5.54058 8.31496,0 z"
     style="display:inline;fill:none;stroke:#ff0000;stroke-width:0.132283;stroke-dasharray:none;stroke-opacity:1"
     id="path30-4"
     sodipodi:nodetypes="sss" /><path
     d="m 333.41532,466.91251 c 0,-5.5433 -8.31496,-5.5433 -8.31496,0 0,5.5433 8.31496,5.5433 8.31496,0 z"
     style="display:inline;fill:none;stroke:#ff0000;stroke-width:0.132283;stroke-dasharray:none;stroke-opacity:1"
     id="path78-8"
     sodipodi:nodetypes="sss" /><path
     d="m 49.831456,420.22953 c -1.04368,0 -1.88976,0.84608 -1.88976,1.88976 v 44.59843 c 0,1.04368 0.84608,1.88976 1.88976,1.88976 h 54.803154 c 1.04368,0 1.88976,-0.84608 1.88976,-1.88976 v -44.59843 c 0,-1.04368 -0.84608,-1.88976 -1.88976,-1.88976 z"
     style="display:inline;fill:none;stroke:#ff0000;stroke-width:0.132283;stroke-dasharray:none;stroke-opacity:1"
     id="path224-3"
     sodipodi:nodetypes="sssssssss" /><path
     d="m 121.83146,402.23012 c -1.04369,0 -1.88976,0.84608 -1.88976,1.88977 v 44.59842 c 0,1.04368 0.84608,1.88976 1.88976,1.88976 h 54.80315 c 1.04368,0 1.88976,-0.84608 1.88976,-1.88976 v -44.59842 c 0,-1.04369 -0.84607,-1.88977 -1.88976,-1.88977 z"
     style="display:inline;fill:none;stroke:#ff0000;stroke-width:0.132283;stroke-dasharray:none;stroke-opacity:1"
     id="path226-9"
     sodipodi:nodetypes="scsssscss" /><path
     d="m 49.891506,492.23103 c -1.04368,0 -1.88976,0.84608 -1.88976,1.88976 v 44.59843 c 0,1.04368 0.84608,1.88976 1.88976,1.88976 h 54.803154 c 1.04369,0 1.88977,-0.84607 1.88977,-1.88976 v -44.59843 c 0,-1.04369 -0.84608,-1.88976 -1.88977,-1.88976 z"
     style="display:inline;fill:none;stroke:#ff0000;stroke-width:0.132283;stroke-dasharray:none;stroke-opacity:1"
     id="path227-0"
     sodipodi:nodetypes="sssscsscs" /><path
     d="M 104.69466,612.60899 H 49.891506 c -1.04368,0 -1.88976,-0.84608 -1.88976,-1.88976 V 566.1208 c 0,-1.04368 0.84608,-1.88976 1.88976,-1.88976 h 54.803154 c 1.04369,0 1.88977,0.84607 1.88977,1.88976 v 44.59843 c 0,1.04369 -0.84608,1.88976 -1.88977,1.88976 z"
     style="display:inline;fill:none;stroke:#ff0000;stroke-width:0.132283;stroke-dasharray:none;stroke-opacity:1"
     id="path228-5"
     sodipodi:nodetypes="csssscssc" /><path
     d="m 193.83146,393.23004 c -1.04368,0 -1.88976,0.84608 -1.88976,1.88976 v 44.59843 c 0,1.04368 0.84608,1.88976 1.88976,1.88976 h 54.80315 c 1.04368,0 1.88976,-0.84608 1.88976,-1.88976 V 395.1198 c 0,-1.04368 -0.84608,-1.88976 -1.88976,-1.88976 z"
     style="display:inline;fill:none;stroke:#ff0000;stroke-width:0.132283;stroke-dasharray:none;stroke-opacity:1"
     id="path229-2"
     sodipodi:nodetypes="sssssssss" /><path
     d="m 121.89152,474.23102 c -1.04369,0 -1.88976,0.84608 -1.88976,1.88977 v 44.59842 c 0,1.04369 0.84607,1.88977 1.88976,1.88977 h 54.80315 c 1.04369,0 1.88977,-0.84608 1.88977,-1.88977 v -44.59842 c 0,-1.04369 -0.84608,-1.88977 -1.88977,-1.88977 z"
     style="display:inline;fill:none;stroke:#ff0000;stroke-width:0.132283;stroke-dasharray:none;stroke-opacity:1"
     id="path230-2"
     sodipodi:nodetypes="sccscsccs" /><path
     d="m 176.69467,594.60898 h -54.80315 c -1.04369,0 -1.88977,-0.84607 -1.88977,-1.88976 v -44.59843 c 0,-1.04369 0.84608,-1.88976 1.88977,-1.88976 h 54.80315 c 1.04368,0 1.88976,0.84608 1.88976,1.88976 v 44.59843 c 0,1.04368 -0.84608,1.88976 -1.88976,1.88976 z"
     style="display:inline;fill:none;stroke:#ff0000;stroke-width:0.132283;stroke-dasharray:none;stroke-opacity:1"
     id="path231-7"
     sodipodi:nodetypes="scsscssss" /><path
     d="m 250.58444,467.12079 v 44.59842 c 0,1.04369 -0.84608,1.88977 -1.88977,1.88977 h -54.80315 c -1.04369,0 -1.88976,-0.84608 -1.88976,-1.88977 v -44.59842 c 0,-1.04369 0.84607,-1.88977 1.88976,-1.88977 h 54.80315 c 1.04369,0 1.88977,0.84608 1.88977,1.88977 z"
     style="display:inline;fill:none;stroke:#ff0000;stroke-width:0.132283;stroke-dasharray:none;stroke-opacity:1"
     id="path232-3"
     sodipodi:nodetypes="sscsscscs" /><path
     d="m 265.88108,474.21032 c -1.04369,0 -1.88977,0.84608 -1.88977,1.88977 v 44.59842 c 0,1.04369 0.84608,1.88977 1.88977,1.88977 h 54.80315 c 1.04369,0 1.88976,-0.84608 1.88976,-1.88977 v -44.59842 c 0,-1.04369 -0.84607,-1.88977 -1.88976,-1.88977 z"
     style="display:inline;fill:none;stroke:#ff0000;stroke-width:0.132283;stroke-dasharray:none;stroke-opacity:1"
     id="path233-7"
     sodipodi:nodetypes="csscssssc" /><path
     d="m 394.52435,557.12033 v 44.59842 c 0,1.04369 -0.8461,1.88977 -1.8897,1.88977 h -54.80319 c -1.04369,0 -1.88976,-0.84608 -1.88976,-1.88977 v -44.59842 c 0,-1.04369 0.84607,-1.88977 1.88976,-1.88977 h 54.80319 c 1.0436,0 1.8897,0.84608 1.8897,1.88977 z"
     style="display:inline;fill:none;stroke:#ff0000;stroke-width:0.132283;stroke-dasharray:none;stroke-opacity:1"
     id="path234-9"
     sodipodi:nodetypes="sssssssss" /><path
     d="m 192.00176,583.71921 v -44.59842 c 0,-1.04369 0.84607,-1.88977 1.88976,-1.88977 h 54.80315 c 1.04369,0 1.88977,0.84608 1.88977,1.88977 v 44.59842 c 0,1.04369 -0.84608,1.88977 -1.88977,1.88977 h -54.80315 c -1.04369,0 -1.88976,-0.84608 -1.88976,-1.88977 z"
     style="display:inline;fill:none;stroke:#ff0000;stroke-width:0.132283;stroke-dasharray:none;stroke-opacity:1"
     id="path235-0"
     sodipodi:nodetypes="ssscsscss" /><path
     d="m 263.9417,448.71281 v -44.59843 c 0,-1.04368 0.84608,-1.88976 1.88976,-1.88976 h 54.80315 c 1.04368,0 1.88976,0.84608 1.88976,1.88976 v 44.59843 c 0,1.04368 -0.84608,1.88976 -1.88976,1.88976 h -54.80315 c -1.04368,0 -1.88976,-0.84608 -1.88976,-1.88976 z"
     style="display:inline;fill:none;stroke:#ff0000;stroke-width:0.132283;stroke-dasharray:none;stroke-opacity:1"
     id="path236-2"
     sodipodi:nodetypes="sssssssss" /><path
     d="m 337.88755,483.23299 h 54.8032 c 1.0436,0 1.8897,0.84607 1.8897,1.88976 v 44.59843 c 0,1.04369 -0.8461,1.88976 -1.8897,1.88976 h -54.8032 c -1.04368,0 -1.88976,-0.84608 -1.88976,-1.88976 v -44.59843 c 0,-1.04368 0.84608,-1.88976 1.88976,-1.88976 z"
     style="display:inline;fill:none;stroke:#ff0000;stroke-width:0.132283;stroke-dasharray:none;stroke-opacity:1"
     id="path237-3"
     sodipodi:nodetypes="scsscssss" /><path
     d="m 392.63465,459.61471 h -54.80319 c -1.04369,0 -1.88976,-0.84608 -1.88976,-1.88977 v -44.59842 c 0,-1.04369 0.84607,-1.88977 1.88976,-1.88977 h 54.80319 c 1.0437,0 1.8897,0.84608 1.8897,1.88977 v 44.59842 c 0,1.04369 -0.846,1.88977 -1.8897,1.88977 z"
     style="display:inline;fill:none;stroke:#ff0000;stroke-width:0.132283;stroke-dasharray:none;stroke-opacity:1"
     id="path238-9"
     sodipodi:nodetypes="sssssssss" /><path
     d="m 264.00153,592.7192 c 0,1.04369 0.84607,1.88977 1.88976,1.88977 h 54.80315 c 1.04369,0 1.88977,-0.84608 1.88977,-1.88977 v -44.59842 c 0,-1.04369 -0.84608,-1.88976 -1.88977,-1.88976 h -54.80315 c -1.04368,0 -1.88976,0.84608 -1.88976,1.88976 z"
     style="display:inline;fill:none;stroke:#ff0000;stroke-width:0.132283;stroke-dasharray:none;stroke-opacity:1"
     id="path239-9"
     sodipodi:nodetypes="sscsscsss" /><path
     d="m 408.00175,565.71921 c 0,1.04369 0.8461,1.88977 1.8898,1.88977 h 54.8031 c 1.0437,0 1.8898,-0.84608 1.8898,-1.88977 v -44.59842 c 0,-1.04369 -0.8461,-1.88977 -1.8898,-1.88977 h -54.8031 c -1.0437,0 -1.8898,0.84608 -1.8898,1.88977 z"
     style="display:inline;fill:none;stroke:#ff0000;stroke-width:0.132283;stroke-dasharray:none;stroke-opacity:1"
     id="path240-7"
     sodipodi:nodetypes="sssssssss" /><path
     d="m 408.00175,493.71921 c 0,1.04369 0.8461,1.88977 1.8898,1.88977 h 54.8031 c 1.0437,0 1.8898,-0.84608 1.8898,-1.88977 v -44.59842 c 0,-1.04369 -0.8461,-1.88977 -1.8898,-1.88977 h -54.8031 c -1.0437,0 -1.8898,0.84608 -1.8898,1.88977 z"
     style="display:inline;fill:none;stroke:#ff0000;stroke-width:0.132283;stroke-dasharray:none;stroke-opacity:1"
     id="path241-0"
     sodipodi:nodetypes="sscsscsss" /><path
     d="m 228.00153,673.71875 v -44.59842 c 0,-1.04369 0.84607,-1.88977 1.88976,-1.88977 h 54.80315 c 1.04369,0 1.88977,0.84608 1.88977,1.88977 v 44.59842 c 0,1.04369 -0.84608,1.88977 -1.88977,1.88977 h -54.80315 c -1.04369,0 -1.88976,-0.84608 -1.88976,-1.88977 z"
     style="display:inline;fill:none;stroke:#ff0000;stroke-width:0.132283;stroke-dasharray:none;stroke-opacity:1"
     id="path242-3"
     sodipodi:nodetypes="ssscsssss" /><path
     d="m 314.15765,630.31175 53.6175,11.33807 c 1.0211,0.21593 1.6738,1.21874 1.4579,2.23985 l -9.2269,43.63353 c -0.2159,1.0211 -1.2187,1.67383 -2.2398,1.45791 l -53.61749,-11.33808 c -1.0211,-0.21593 -1.67383,-1.21873 -1.45791,-2.23984 l 9.22685,-43.63353 c 0.21593,-1.02111 1.21874,-1.67384 2.23985,-1.45791 z"
     style="display:inline;fill:none;stroke:#ff0000;stroke-width:0.132283;stroke-dasharray:none;stroke-opacity:1"
     id="path243-9"
     sodipodi:nodetypes="sssscssss" /><path
     d="m 427.04655,703.32331 c 0.9543,0.42251 2.0705,-0.009 2.493,-0.96297 l 22.1855,-50.11175 c 0.4225,-0.95434 -0.01,-2.0705 -0.9629,-2.49301 l -40.7806,-18.05444 c -0.9544,-0.42251 -2.0706,0.009 -2.4931,0.96297 l -22.1855,50.11175 c -0.4225,0.95434 0.01,2.0705 0.963,2.49301 z"
     style="display:inline;fill:none;stroke:#ff0000;stroke-width:0.132283;stroke-dasharray:none;stroke-opacity:1"
     id="path244-8"
     sodipodi:nodetypes="sssssssss" /><path
     d="m 110.25058,480.42 c -0.003,-5.54058 -8.31768,-5.54058 -8.31496,0 0.003,5.54058 8.31768,5.54058 8.31496,0 z"
     style="display:inline;fill:none;stroke:#ff0000;stroke-width:0.132283;stroke-dasharray:none;stroke-opacity:1"
     id="path292-6"
     sodipodi:nodetypes="sss" /><path
     d="m 110.25058,552.42 c -0.003,-5.54058 -8.31768,-5.54058 -8.31496,0 0.003,5.54058 8.31768,5.54058 8.31496,0 z"
     style="display:inline;fill:none;stroke:#ff0000;stroke-width:0.132283;stroke-dasharray:none;stroke-opacity:1"
     id="path294-5"
     sodipodi:nodetypes="sss" /><path
     d="m 957.01253,256.36443 c -0.003,-5.54058 -8.31768,-5.54058 -8.31496,0 0.003,5.54058 8.31768,5.54058 8.31496,0 z"
     style="display:inline;fill:none;stroke:#ff0000;stroke-width:0.132283;stroke-dasharray:none;stroke-opacity:1"
     id="path30-6"
     sodipodi:nodetypes="sss" /><path
     d="m 957.03734,107.8574 c 0,-5.5433 -8.31496,-5.5433 -8.31496,0 0,5.5433 8.31496,5.5433 8.31496,0 z"
     style="display:inline;fill:none;stroke:#ff0000;stroke-width:0.132283;stroke-dasharray:none;stroke-opacity:1"
     id="path78-5"
     sodipodi:nodetypes="sss" /><path
     d="m 673.45348,61.174419 c -1.04368,0 -1.88976,0.84608 -1.88976,1.88976 v 44.598431 c 0,1.04368 0.84608,1.88976 1.88976,1.88976 h 54.80315 c 1.04368,0 1.88976,-0.84608 1.88976,-1.88976 V 63.064179 c 0,-1.04368 -0.84608,-1.88976 -1.88976,-1.88976 z"
     style="display:inline;fill:none;stroke:#ff0000;stroke-width:0.132283;stroke-dasharray:none;stroke-opacity:1"
     id="path224-5"
     sodipodi:nodetypes="sssssssss" /><path
     d="m 745.45348,43.175009 c -1.04369,0 -1.88976,0.84608 -1.88976,1.88977 v 44.59842 c 0,1.04368 0.84608,1.88976 1.88976,1.88976 h 54.80315 c 1.04368,0 1.88976,-0.84608 1.88976,-1.88976 v -44.59842 c 0,-1.04369 -0.84607,-1.88977 -1.88976,-1.88977 z"
     style="display:inline;fill:none;stroke:#ff0000;stroke-width:0.132283;stroke-dasharray:none;stroke-opacity:1"
     id="path226-8"
     sodipodi:nodetypes="scsssscss" /><path
     d="m 673.51353,133.17592 c -1.04368,0 -1.88976,0.84608 -1.88976,1.88976 v 44.59843 c 0,1.04368 0.84608,1.88976 1.88976,1.88976 h 54.80315 c 1.04369,0 1.88977,-0.84607 1.88977,-1.88976 v -44.59843 c 0,-1.04369 -0.84608,-1.88976 -1.88977,-1.88976 z"
     style="display:inline;fill:none;stroke:#ff0000;stroke-width:0.132283;stroke-dasharray:none;stroke-opacity:1"
     id="path227-1"
     sodipodi:nodetypes="sssscsscs" /><path
     d="m 728.31668,253.55388 h -54.80315 c -1.04368,0 -1.88976,-0.84608 -1.88976,-1.88976 v -44.59843 c 0,-1.04368 0.84608,-1.88976 1.88976,-1.88976 h 54.80315 c 1.04369,0 1.88977,0.84607 1.88977,1.88976 v 44.59843 c 0,1.04369 -0.84608,1.88976 -1.88977,1.88976 z"
     style="display:inline;fill:none;stroke:#ff0000;stroke-width:0.132283;stroke-dasharray:none;stroke-opacity:1"
     id="path228-4"
     sodipodi:nodetypes="csssscssc" /><path
     d="m 817.45348,34.174929 c -1.04368,0 -1.88976,0.84608 -1.88976,1.88976 v 44.59843 c 0,1.04368 0.84608,1.88976 1.88976,1.88976 h 54.80315 c 1.04368,0 1.88976,-0.84608 1.88976,-1.88976 v -44.59843 c 0,-1.04368 -0.84608,-1.88976 -1.88976,-1.88976 z"
     style="display:inline;fill:none;stroke:#ff0000;stroke-width:0.132283;stroke-dasharray:none;stroke-opacity:1"
     id="path229-7"
     sodipodi:nodetypes="sssssssss" /><path
     d="m 745.51354,115.17591 c -1.04369,0 -1.88976,0.84608 -1.88976,1.88977 v 44.59842 c 0,1.04369 0.84607,1.88977 1.88976,1.88977 h 54.80315 c 1.04369,0 1.88977,-0.84608 1.88977,-1.88977 v -44.59842 c 0,-1.04369 -0.84608,-1.88977 -1.88977,-1.88977 z"
     style="display:inline;fill:none;stroke:#ff0000;stroke-width:0.132283;stroke-dasharray:none;stroke-opacity:1"
     id="path230-1"
     sodipodi:nodetypes="sccscsccs" /><path
     d="m 800.31669,235.55387 h -54.80315 c -1.04369,0 -1.88977,-0.84607 -1.88977,-1.88976 v -44.59843 c 0,-1.04369 0.84608,-1.88976 1.88977,-1.88976 h 54.80315 c 1.04368,0 1.88976,0.84608 1.88976,1.88976 v 44.59843 c 0,1.04368 -0.84608,1.88976 -1.88976,1.88976 z"
     style="display:inline;fill:none;stroke:#ff0000;stroke-width:0.132283;stroke-dasharray:none;stroke-opacity:1"
     id="path231-3"
     sodipodi:nodetypes="scsscssss" /><path
     d="m 874.20646,108.06568 v 44.59842 c 0,1.04369 -0.84608,1.88977 -1.88977,1.88977 h -54.80315 c -1.04369,0 -1.88976,-0.84608 -1.88976,-1.88977 v -44.59842 c 0,-1.04369 0.84607,-1.88977 1.88976,-1.88977 h 54.80315 c 1.04369,0 1.88977,0.84608 1.88977,1.88977 z"
     style="display:inline;fill:none;stroke:#ff0000;stroke-width:0.132283;stroke-dasharray:none;stroke-opacity:1"
     id="path232-8"
     sodipodi:nodetypes="sscsscscs" /><path
     d="m 889.5031,115.15521 c -1.04369,0 -1.88977,0.84608 -1.88977,1.88977 v 44.59842 c 0,1.04369 0.84608,1.88977 1.88977,1.88977 h 54.80315 c 1.04369,0 1.88976,-0.84608 1.88976,-1.88977 v -44.59842 c 0,-1.04369 -0.84607,-1.88977 -1.88976,-1.88977 z"
     style="display:inline;fill:none;stroke:#ff0000;stroke-width:0.132283;stroke-dasharray:none;stroke-opacity:1"
     id="path233-4"
     sodipodi:nodetypes="csscssssc" /><path
     d="m 1018.1464,198.06522 v 44.59842 c 0,1.04369 -0.8461,1.88977 -1.8897,1.88977 h -54.80322 c -1.04369,0 -1.88976,-0.84608 -1.88976,-1.88977 v -44.59842 c 0,-1.04369 0.84607,-1.88977 1.88976,-1.88977 h 54.80322 c 1.0436,0 1.8897,0.84608 1.8897,1.88977 z"
     style="display:inline;fill:none;stroke:#ff0000;stroke-width:0.132283;stroke-dasharray:none;stroke-opacity:1"
     id="path234-8"
     sodipodi:nodetypes="sssssssss" /><path
     d="m 815.62378,224.6641 v -44.59842 c 0,-1.04369 0.84607,-1.88977 1.88976,-1.88977 h 54.80315 c 1.04369,0 1.88977,0.84608 1.88977,1.88977 v 44.59842 c 0,1.04369 -0.84608,1.88977 -1.88977,1.88977 h -54.80315 c -1.04369,0 -1.88976,-0.84608 -1.88976,-1.88977 z"
     style="display:inline;fill:none;stroke:#ff0000;stroke-width:0.132283;stroke-dasharray:none;stroke-opacity:1"
     id="path235-04"
     sodipodi:nodetypes="ssscsscss" /><path
     d="m 887.56372,89.657699 v -44.59843 c 0,-1.04368 0.84608,-1.88976 1.88976,-1.88976 h 54.80315 c 1.04368,0 1.88976,0.84608 1.88976,1.88976 v 44.59843 c 0,1.04368 -0.84608,1.88976 -1.88976,1.88976 h -54.80315 c -1.04368,0 -1.88976,-0.84608 -1.88976,-1.88976 z"
     style="display:inline;fill:none;stroke:#ff0000;stroke-width:0.132283;stroke-dasharray:none;stroke-opacity:1"
     id="path236-6"
     sodipodi:nodetypes="sssssssss" /><path
     d="m 961.50957,124.17788 h 54.80323 c 1.0436,0 1.8897,0.84607 1.8897,1.88976 v 44.59843 c 0,1.04369 -0.8461,1.88976 -1.8897,1.88976 h -54.80323 c -1.04368,0 -1.88976,-0.84608 -1.88976,-1.88976 v -44.59843 c 0,-1.04368 0.84608,-1.88976 1.88976,-1.88976 z"
     style="display:inline;fill:none;stroke:#ff0000;stroke-width:0.132283;stroke-dasharray:none;stroke-opacity:1"
     id="path237-0"
     sodipodi:nodetypes="scsscssss" /><path
     d="m 1016.2567,100.5596 h -54.80322 c -1.04369,0 -1.88976,-0.846081 -1.88976,-1.889771 v -44.59842 c 0,-1.04369 0.84607,-1.88977 1.88976,-1.88977 h 54.80322 c 1.0437,0 1.8897,0.84608 1.8897,1.88977 v 44.59842 c 0,1.04369 -0.846,1.889771 -1.8897,1.889771 z"
     style="display:inline;fill:none;stroke:#ff0000;stroke-width:0.132283;stroke-dasharray:none;stroke-opacity:1"
     id="path238-3"
     sodipodi:nodetypes="sssssssss" /><path
     d="m 887.62355,233.66409 c 0,1.04369 0.84607,1.88977 1.88976,1.88977 h 54.80315 c 1.04369,0 1.88977,-0.84608 1.88977,-1.88977 v -44.59842 c 0,-1.04369 -0.84608,-1.88976 -1.88977,-1.88976 h -54.80315 c -1.04368,0 -1.88976,0.84608 -1.88976,1.88976 z"
     style="display:inline;fill:none;stroke:#ff0000;stroke-width:0.132283;stroke-dasharray:none;stroke-opacity:1"
     id="path239-2"
     sodipodi:nodetypes="sscsscsss" /><path
     d="m 851.62355,314.66364 v -44.59842 c 0,-1.04369 0.84607,-1.88977 1.88976,-1.88977 h 54.80315 c 1.04369,0 1.88977,0.84608 1.88977,1.88977 v 44.59842 c 0,1.04369 -0.84608,1.88977 -1.88977,1.88977 h -54.80315 c -1.04369,0 -1.88976,-0.84608 -1.88976,-1.88977 z"
     style="display:inline;fill:none;stroke:#ff0000;stroke-width:0.132283;stroke-dasharray:none;stroke-opacity:1"
     id="path242-4"
     sodipodi:nodetypes="ssscsssss" /><path
     d="m 937.77967,271.25664 53.6175,11.33807 c 1.0211,0.21593 1.6738,1.21874 1.4579,2.23985 l -9.2269,43.63353 c -0.2159,1.0211 -1.2187,1.67383 -2.2398,1.45791 l -53.61749,-11.33808 c -1.0211,-0.21593 -1.67383,-1.21873 -1.45791,-2.23984 l 9.22685,-43.63353 c 0.21593,-1.02111 1.21874,-1.67384 2.23985,-1.45791 z"
     style="display:inline;fill:none;stroke:#ff0000;stroke-width:0.132283;stroke-dasharray:none;stroke-opacity:1"
     id="path243-1"
     sodipodi:nodetypes="sssscssss" /><path
     d="m 1050.6686,344.2682 c 0.9543,0.42251 2.0705,-0.009 2.493,-0.96297 l 22.1855,-50.11175 c 0.4225,-0.95434 -0.01,-2.0705 -0.9629,-2.49301 l -40.7806,-18.05444 c -0.9544,-0.42251 -2.0706,0.009 -2.4931,0.96297 l -22.1855,50.11175 c -0.4225,0.95434 0.01,2.0705 0.963,2.49301 z"
     style="display:inline;fill:none;stroke:#ff0000;stroke-width:0.132283;stroke-dasharray:none;stroke-opacity:1"
     id="path244-3"
     sodipodi:nodetypes="sssssssss" /><path
     d="m 733.8726,121.36489 c -0.003,-5.54058 -8.31768,-5.54058 -8.31496,0 0.003,5.54058 8.31768,5.54058 8.31496,0 z"
     style="display:inline;fill:none;stroke:#ff0000;stroke-width:0.132283;stroke-dasharray:none;stroke-opacity:1"
     id="path292-7"
     sodipodi:nodetypes="sss" /><path
     d="m 733.8726,193.36489 c -0.003,-5.54058 -8.31768,-5.54058 -8.31496,0 0.003,5.54058 8.31768,5.54058 8.31496,0 z"
     style="display:inline;fill:none;stroke:#ff0000;stroke-width:0.132283;stroke-dasharray:none;stroke-opacity:1"
     id="path294-8"
     sodipodi:nodetypes="sss" /><path
     d="m 957.01253,615.41954 c -0.003,-5.54058 -8.31768,-5.54058 -8.31496,0 0.003,5.54058 8.31768,5.54058 8.31496,0 z"
     style="display:inline;fill:none;stroke:#ff0000;stroke-width:0.132283;stroke-dasharray:none;stroke-opacity:1"
     id="path30-4-3"
     sodipodi:nodetypes="sss" /><path
     d="m 957.03734,466.91251 c 0,-5.5433 -8.31496,-5.5433 -8.31496,0 0,5.5433 8.31496,5.5433 8.31496,0 z"
     style="display:inline;fill:none;stroke:#ff0000;stroke-width:0.132283;stroke-dasharray:none;stroke-opacity:1"
     id="path78-8-8"
     sodipodi:nodetypes="sss" /><path
     d="m 673.45348,420.22953 c -1.04368,0 -1.88976,0.84608 -1.88976,1.88976 v 44.59843 c 0,1.04368 0.84608,1.88976 1.88976,1.88976 h 54.80315 c 1.04368,0 1.88976,-0.84608 1.88976,-1.88976 v -44.59843 c 0,-1.04368 -0.84608,-1.88976 -1.88976,-1.88976 z"
     style="display:inline;fill:none;stroke:#ff0000;stroke-width:0.132283;stroke-dasharray:none;stroke-opacity:1"
     id="path224-3-1"
     sodipodi:nodetypes="sssssssss" /><path
     d="m 745.45348,402.23012 c -1.04369,0 -1.88976,0.84608 -1.88976,1.88977 v 44.59842 c 0,1.04368 0.84608,1.88976 1.88976,1.88976 h 54.80315 c 1.04368,0 1.88976,-0.84608 1.88976,-1.88976 v -44.59842 c 0,-1.04369 -0.84607,-1.88977 -1.88976,-1.88977 z"
     style="display:inline;fill:none;stroke:#ff0000;stroke-width:0.132283;stroke-dasharray:none;stroke-opacity:1"
     id="path226-9-5"
     sodipodi:nodetypes="scsssscss" /><path
     d="m 673.51353,492.23103 c -1.04368,0 -1.88976,0.84608 -1.88976,1.88976 v 44.59843 c 0,1.04368 0.84608,1.88976 1.88976,1.88976 h 54.80315 c 1.04369,0 1.88977,-0.84607 1.88977,-1.88976 v -44.59843 c 0,-1.04369 -0.84608,-1.88976 -1.88977,-1.88976 z"
     style="display:inline;fill:none;stroke:#ff0000;stroke-width:0.132283;stroke-dasharray:none;stroke-opacity:1"
     id="path227-0-3"
     sodipodi:nodetypes="sssscsscs" /><path
     d="m 728.31668,612.60899 h -54.80315 c -1.04368,0 -1.88976,-0.84608 -1.88976,-1.88976 V 566.1208 c 0,-1.04368 0.84608,-1.88976 1.88976,-1.88976 h 54.80315 c 1.04369,0 1.88977,0.84607 1.88977,1.88976 v 44.59843 c 0,1.04369 -0.84608,1.88976 -1.88977,1.88976 z"
     style="display:inline;fill:none;stroke:#ff0000;stroke-width:0.132283;stroke-dasharray:none;stroke-opacity:1"
     id="path228-5-5"
     sodipodi:nodetypes="csssscssc" /><path
     d="m 817.45348,393.23004 c -1.04368,0 -1.88976,0.84608 -1.88976,1.88976 v 44.59843 c 0,1.04368 0.84608,1.88976 1.88976,1.88976 h 54.80315 c 1.04368,0 1.88976,-0.84608 1.88976,-1.88976 V 395.1198 c 0,-1.04368 -0.84608,-1.88976 -1.88976,-1.88976 z"
     style="display:inline;fill:none;stroke:#ff0000;stroke-width:0.132283;stroke-dasharray:none;stroke-opacity:1"
     id="path229-2-4"
     sodipodi:nodetypes="sssssssss" /><path
     d="m 745.51354,474.23102 c -1.04369,0 -1.88976,0.84608 -1.88976,1.88977 v 44.59842 c 0,1.04369 0.84607,1.88977 1.88976,1.88977 h 54.80315 c 1.04369,0 1.88977,-0.84608 1.88977,-1.88977 v -44.59842 c 0,-1.04369 -0.84608,-1.88977 -1.88977,-1.88977 z"
     style="display:inline;fill:none;stroke:#ff0000;stroke-width:0.132283;stroke-dasharray:none;stroke-opacity:1"
     id="path230-2-3"
     sodipodi:nodetypes="sccscsccs" /><path
     d="m 800.31669,594.60898 h -54.80315 c -1.04369,0 -1.88977,-0.84607 -1.88977,-1.88976 v -44.59843 c 0,-1.04369 0.84608,-1.88976 1.88977,-1.88976 h 54.80315 c 1.04368,0 1.88976,0.84608 1.88976,1.88976 v 44.59843 c 0,1.04368 -0.84608,1.88976 -1.88976,1.88976 z"
     style="display:inline;fill:none;stroke:#ff0000;stroke-width:0.132283;stroke-dasharray:none;stroke-opacity:1"
     id="path231-7-6"
     sodipodi:nodetypes="scsscssss" /><path
     d="m 874.20646,467.12079 v 44.59842 c 0,1.04369 -0.84608,1.88977 -1.88977,1.88977 h -54.80315 c -1.04369,0 -1.88976,-0.84608 -1.88976,-1.88977 v -44.59842 c 0,-1.04369 0.84607,-1.88977 1.88976,-1.88977 h 54.80315 c 1.04369,0 1.88977,0.84608 1.88977,1.88977 z"
     style="display:inline;fill:none;stroke:#ff0000;stroke-width:0.132283;stroke-dasharray:none;stroke-opacity:1"
     id="path232-3-5"
     sodipodi:nodetypes="sscsscscs" /><path
     d="m 889.5031,474.21032 c -1.04369,0 -1.88977,0.84608 -1.88977,1.88977 v 44.59842 c 0,1.04369 0.84608,1.88977 1.88977,1.88977 h 54.80315 c 1.04369,0 1.88976,-0.84608 1.88976,-1.88977 v -44.59842 c 0,-1.04369 -0.84607,-1.88977 -1.88976,-1.88977 z"
     style="display:inline;fill:none;stroke:#ff0000;stroke-width:0.132283;stroke-dasharray:none;stroke-opacity:1"
     id="path233-7-9"
     sodipodi:nodetypes="csscssssc" /><path
     d="m 1018.1464,557.12033 v 44.59842 c 0,1.04369 -0.8461,1.88977 -1.8897,1.88977 h -54.80322 c -1.04369,0 -1.88976,-0.84608 -1.88976,-1.88977 v -44.59842 c 0,-1.04369 0.84607,-1.88977 1.88976,-1.88977 h 54.80322 c 1.0436,0 1.8897,0.84608 1.8897,1.88977 z"
     style="display:inline;fill:none;stroke:#ff0000;stroke-width:0.132283;stroke-dasharray:none;stroke-opacity:1"
     id="path234-9-5"
     sodipodi:nodetypes="sssssssss" /><path
     d="m 815.62378,583.71921 v -44.59842 c 0,-1.04369 0.84607,-1.88977 1.88976,-1.88977 h 54.80315 c 1.04369,0 1.88977,0.84608 1.88977,1.88977 v 44.59842 c 0,1.04369 -0.84608,1.88977 -1.88977,1.88977 h -54.80315 c -1.04369,0 -1.88976,-0.84608 -1.88976,-1.88977 z"
     style="display:inline;fill:none;stroke:#ff0000;stroke-width:0.132283;stroke-dasharray:none;stroke-opacity:1"
     id="path235-0-4"
     sodipodi:nodetypes="ssscsscss" /><path
     d="m 887.56372,448.71281 v -44.59843 c 0,-1.04368 0.84608,-1.88976 1.88976,-1.88976 h 54.80315 c 1.04368,0 1.88976,0.84608 1.88976,1.88976 v 44.59843 c 0,1.04368 -0.84608,1.88976 -1.88976,1.88976 h -54.80315 c -1.04368,0 -1.88976,-0.84608 -1.88976,-1.88976 z"
     style="display:inline;fill:none;stroke:#ff0000;stroke-width:0.132283;stroke-dasharray:none;stroke-opacity:1"
     id="path236-2-9"
     sodipodi:nodetypes="sssssssss" /><path
     d="m 961.50957,483.23299 h 54.80323 c 1.0436,0 1.8897,0.84607 1.8897,1.88976 v 44.59843 c 0,1.04369 -0.8461,1.88976 -1.8897,1.88976 h -54.80323 c -1.04368,0 -1.88976,-0.84608 -1.88976,-1.88976 v -44.59843 c 0,-1.04368 0.84608,-1.88976 1.88976,-1.88976 z"
     style="display:inline;fill:none;stroke:#ff0000;stroke-width:0.132283;stroke-dasharray:none;stroke-opacity:1"
     id="path237-3-1"
     sodipodi:nodetypes="scsscssss" /><path
     d="m 1016.2567,459.61471 h -54.80322 c -1.04369,0 -1.88976,-0.84608 -1.88976,-1.88977 v -44.59842 c 0,-1.04369 0.84607,-1.88977 1.88976,-1.88977 h 54.80322 c 1.0437,0 1.8897,0.84608 1.8897,1.88977 v 44.59842 c 0,1.04369 -0.846,1.88977 -1.8897,1.88977 z"
     style="display:inline;fill:none;stroke:#ff0000;stroke-width:0.132283;stroke-dasharray:none;stroke-opacity:1"
     id="path238-9-7"
     sodipodi:nodetypes="sssssssss" /><path
     d="m 887.62355,592.7192 c 0,1.04369 0.84607,1.88977 1.88976,1.88977 h 54.80315 c 1.04369,0 1.88977,-0.84608 1.88977,-1.88977 v -44.59842 c 0,-1.04369 -0.84608,-1.88976 -1.88977,-1.88976 h -54.80315 c -1.04368,0 -1.88976,0.84608 -1.88976,1.88976 z"
     style="display:inline;fill:none;stroke:#ff0000;stroke-width:0.132283;stroke-dasharray:none;stroke-opacity:1"
     id="path239-9-5"
     sodipodi:nodetypes="sscsscsss" /><path
     d="m 851.62355,673.71875 v -44.59842 c 0,-1.04369 0.84607,-1.88977 1.88976,-1.88977 h 54.80315 c 1.04369,0 1.88977,0.84608 1.88977,1.88977 v 44.59842 c 0,1.04369 -0.84608,1.88977 -1.88977,1.88977 h -54.80315 c -1.04369,0 -1.88976,-0.84608 -1.88976,-1.88977 z"
     style="display:inline;fill:none;stroke:#ff0000;stroke-width:0.132283;stroke-dasharray:none;stroke-opacity:1"
     id="path242-3-1"
     sodipodi:nodetypes="ssscsssss" /><path
     d="m 937.77967,630.31175 53.6175,11.33807 c 1.0211,0.21593 1.6738,1.21874 1.4579,2.23985 l -9.2269,43.63353 c -0.2159,1.0211 -1.2187,1.67383 -2.2398,1.45791 l -53.61749,-11.33808 c -1.0211,-0.21593 -1.67383,-1.21873 -1.45791,-2.23984 l 9.22685,-43.63353 c 0.21593,-1.02111 1.21874,-1.67384 2.23985,-1.45791 z"
     style="display:inline;fill:none;stroke:#ff0000;stroke-width:0.132283;stroke-dasharray:none;stroke-opacity:1"
     id="path243-9-8"
     sodipodi:nodetypes="sssscssss" /><path
     d="m 1050.6686,703.32331 c 0.9543,0.42251 2.0705,-0.009 2.493,-0.96297 l 22.1855,-50.11175 c 0.4225,-0.95434 -0.01,-2.0705 -0.9629,-2.49301 l -40.7806,-18.05444 c -0.9544,-0.42251 -2.0706,0.009 -2.4931,0.96297 l -22.1855,50.11175 c -0.4225,0.95434 0.01,2.0705 0.963,2.49301 z"
     style="display:inline;fill:none;stroke:#ff0000;stroke-width:0.132283;stroke-dasharray:none;stroke-opacity:1"
     id="path244-8-8"
     sodipodi:nodetypes="sssssssss" /><path
     d="m 733.8726,480.42 c -0.003,-5.54058 -8.31768,-5.54058 -8.31496,0 0.003,5.54058 8.31768,5.54058 8.31496,0 z"
     style="display:inline;fill:none;stroke:#ff0000;stroke-width:0.132283;stroke-dasharray:none;stroke-opacity:1"
     id="path292-6-3"
     sodipodi:nodetypes="sss" /><path
     d="m 733.8726,552.42 c -0.003,-5.54058 -8.31768,-5.54058 -8.31496,0 0.003,5.54058 8.31768,5.54058 8.31496,0 z"
     style="display:inline;fill:none;stroke:#ff0000;stroke-width:0.132283;stroke-dasharray:none;stroke-opacity:1"
     id="path294-5-5"
     sodipodi:nodetypes="sss" /><path
     d="m 1618.4298,256.36444 c 0,-5.54058 -8.3177,-5.54058 -8.3149,0 0,5.54057 8.3176,5.54057 8.3149,0 z"
     style="display:inline;fill:none;stroke:#ff0000;stroke-width:0.132283;stroke-dasharray:none;stroke-opacity:1"
     id="path30-1"
     sodipodi:nodetypes="sss" /><path
     d="m 1618.4546,107.8574 c 0,-5.5433 -8.3149,-5.5433 -8.3149,0 0,5.5433 8.3149,5.5433 8.3149,0 z"
     style="display:inline;fill:none;stroke:#ff0000;stroke-width:0.132283;stroke-dasharray:none;stroke-opacity:1"
     id="path78-87"
     sodipodi:nodetypes="sss" /><path
     d="m 1395.2899,121.36489 c 0,-5.54058 -8.3177,-5.54058 -8.315,0 0,5.54058 8.3177,5.54058 8.315,0 z"
     style="display:inline;fill:none;stroke:#ff0000;stroke-width:0.132283;stroke-dasharray:none;stroke-opacity:1"
     id="path292-62"
     sodipodi:nodetypes="sss" /><path
     d="m 1395.2899,193.36489 c 0,-5.54058 -8.3177,-5.54058 -8.315,0 0,5.54058 8.3177,5.54058 8.315,0 z"
     style="display:inline;fill:none;stroke:#ff0000;stroke-width:0.132283;stroke-dasharray:none;stroke-opacity:1"
     id="path294-2"
     sodipodi:nodetypes="sss" /><path
     d="m 1618.4298,615.41954 c 0,-5.54058 -8.3177,-5.54058 -8.3149,0 0,5.54058 8.3176,5.54058 8.3149,0 z"
     style="display:inline;fill:none;stroke:#ff0000;stroke-width:0.132283;stroke-dasharray:none;stroke-opacity:1"
     id="path30-4-2"
     sodipodi:nodetypes="sss" /><path
     d="m 1618.4546,466.91252 c 0,-5.5433 -8.3149,-5.5433 -8.3149,0 0,5.54329 8.3149,5.54329 8.3149,0 z"
     style="display:inline;fill:none;stroke:#ff0000;stroke-width:0.132283;stroke-dasharray:none;stroke-opacity:1"
     id="path78-8-2"
     sodipodi:nodetypes="sss" /><path
     d="m 1395.2899,480.42001 c 0,-5.54058 -8.3177,-5.54058 -8.315,0 0,5.54058 8.3177,5.54058 8.315,0 z"
     style="display:inline;fill:none;stroke:#ff0000;stroke-width:0.132283;stroke-dasharray:none;stroke-opacity:1"
     id="path292-6-39"
     sodipodi:nodetypes="sss" /><path
     d="m 1395.2899,552.42 c 0,-5.54058 -8.3177,-5.54058 -8.315,0 0,5.54058 8.3177,5.54058 8.315,0 z"
     style="display:inline;fill:none;stroke:#ff0000;stroke-width:0.132283;stroke-dasharray:none;stroke-opacity:1"
     id="path294-5-0"
     sodipodi:nodetypes="sss" /></g></svg>
