<?xml version="1.0" encoding="UTF-8" standalone="no"?>
<!-- Generator: Adobe Illustrator 26.0.2, SVG Export Plug-In . SVG Version: 6.00 Build 0)  -->

<svg
   version="1.1"
   x="0px"
   y="0px"
   viewBox="0 0 1889.7638 755.90547"
   xml:space="preserve"
   id="svg2217"
   sodipodi:docname="corne-foam.svg"
   width="500mm"
   height="200mm"
   inkscape:version="1.3 (0e150ed, 2023-07-21)"
   xmlns:inkscape="http://www.inkscape.org/namespaces/inkscape"
   xmlns:sodipodi="http://sodipodi.sourceforge.net/DTD/sodipodi-0.dtd"
   xmlns="http://www.w3.org/2000/svg"
   xmlns:svg="http://www.w3.org/2000/svg"><defs
   id="defs2221" /><sodipodi:namedview
   id="namedview2219"
   pagecolor="#ffffff"
   bordercolor="#666666"
   borderopacity="1.0"
   inkscape:pageshadow="2"
   inkscape:pageopacity="0.0"
   inkscape:pagecheckerboard="0"
   showgrid="false"
   units="mm"
   width="500mm"
   inkscape:zoom="1.4142136"
   inkscape:cx="1076.2165"
   inkscape:cy="502.04581"
   inkscape:window-width="3616"
   inkscape:window-height="1955"
   inkscape:window-x="20"
   inkscape:window-y="114"
   inkscape:window-maximized="0"
   inkscape:current-layer="layer1"
   inkscape:document-units="mm"
   inkscape:showpageshadow="2"
   inkscape:deskcolor="#d1d1d1"
   showguides="true" />&#10;<style
   type="text/css"
   id="style2">&#10;	.st0{fill:none;stroke:#0000FF;stroke-width:1.000000e-03;stroke-miterlimit:10;}&#10;	.st1{fill:none;stroke:#FF0000;stroke-width:3.000000e-03;stroke-linecap:round;stroke-linejoin:round;stroke-miterlimit:10;}&#10;	.st2{fill:none;stroke:#FF0000;stroke-width:3.000000e-03;stroke-miterlimit:11.339;}&#10;	.st3{display:none;}&#10;	.st4{display:inline;}&#10;	.st5{fill:#FF0000;}&#10;	.st6{fill:#0000FF;}&#10;	.st7{fill:#336699;}&#10;	.st8{fill:#00FFFF;}&#10;	.st9{fill:#00FF00;}&#10;	.st10{fill:none;stroke:#000000;stroke-miterlimit:10;}&#10;</style>&#10;&#10;&#10;&#10;&#10;&#10;&#10;<g
   inkscape:groupmode="layer"
   id="layer2"
   inkscape:label="CUT2"
   inkscape:highlight-color="#0000ff"
   style="display:inline"><path
     style="display:inline;fill:none;stroke:#0000ff;stroke-opacity:1;stroke-width:0.132283;stroke-dasharray:none"
     d="m 405.24675,28.227145 c 0.68748,0.21529 1.33247,0.57651 1.87608,1.03193 0.50836,0.42588 1.00772,0.9875 1.39052,1.72458 0.31466,0.60588 0.47049,1.19742 0.54457,1.66951 0.0889,0.56637 0.0822,1.0322 0.082,1.3517 l -1.8e-4,2.96891 65.95311,-0.001 c 0.45922,-10e-4 1.24398,-0.018 2.15389,0.26697 0.68748,0.21529 1.33247,0.57651 1.87608,1.03193 0.50836,0.42588 1.00772,0.98749 1.39052,1.72458 0.31466,0.60587 0.47049,1.19741 0.54457,1.6695 0.0889,0.56637 0.0822,1.03221 0.0822,1.35064 l -4e-5,2.95784 18.0284,-10e-4 c 2.08737,-0.001 3.77952,1.69069 3.77952,3.77806 0,2.08738 1.69215,3.77953 3.77955,3.78146 h 24.56692 c 2.08737,-0.002 3.77952,-1.69408 3.77952,-3.78146 0,-2.08737 1.69216,-3.77952 3.77951,-3.77806 h 8.29927 c 0.45922,-0.001 1.24397,-0.018 2.15389,0.26697 0.68748,0.21529 1.33246,0.57651 1.87608,1.03193 0.50836,0.42588 1.00772,0.98749 1.39052,1.72458 0.31466,0.60587 0.47049,1.19741 0.54457,1.6695 0.0889,0.56637 0.0822,1.03221 0.0822,1.35064 l -10e-6,179.027885 c 0,2.08742 -1.69216,3.77957 -3.77953,3.77976 h -3.77951 c -2.08739,-1.9e-4 -3.77954,1.69197 -3.77957,3.77977 l 10e-6,13.98212 c 2e-5,2.08907 1.69217,3.78123 3.77956,3.77977 h 3.77951 c 2.08738,0.001 3.77953,1.69361 3.77953,3.77976 v 15.69858 c 0,0.23805 0.006,0.70245 -0.11121,1.25508 -0.11686,0.55264 -0.31004,0.97499 -0.40648,1.19397 L 509.1461,376.6264 c -0.18589,0.42161 -0.48848,1.14587 -1.1174,1.86254 -0.47516,0.54147 -1.06657,0.985 -1.70307,1.29771 -0.59523,0.29244 -1.31092,0.52169 -2.13987,0.57333 -0.68139,0.0424 -1.28538,-0.0545 -1.74704,-0.17792 -0.55387,-0.14801 -0.97711,-0.34272 -1.27025,-0.47493 L 436.49475,351.07378 295.13372,336.29322 c -0.43633,-0.0462 -1.31376,-0.12109 -2.25108,-0.59777 -0.43788,-0.22268 -1.02548,-0.61112 -1.54588,-1.20875 -0.41984,-0.48214 -0.66847,-0.93503 -0.82479,-1.21057 l -34.27122,-59.97235 -212.331978,-3e-5 c -0.45919,-3e-5 -1.24394,0.0165 -2.15386,-0.26846 -0.68748,-0.21529 -1.33246,-0.57651 -1.87608,-1.03193 -0.50836,-0.42588 -1.00772,-0.98749 -1.39052,-1.72458 -0.31466,-0.60587 -0.47049,-1.19741 -0.54457,-1.6695 -0.0889,-0.56637 -0.0822,-1.03221 -0.0821,-1.35415 l -1e-5,-215.242345 c -1e-4,-0.46021 -0.0166,-1.24496 0.26833,-2.15488 0.21528,-0.68748 0.57651,-1.33246 1.03193,-1.87608 0.42588,-0.50836 0.98749,-1.00772 1.72458,-1.39052 0.60586,-0.31465 1.1974,-0.47049 1.66948,-0.54457 0.56636,-0.0889 1.03219,-0.0822 1.35278,-0.0826 l 137.893008,-3.8e-4 -1.2e-4,-11.95116 c -1.1e-4,-0.46037 -0.0166,-1.24513 0.26832,-2.15505 0.21529,-0.68748 0.57651,-1.33246 1.03193,-1.87607 0.42588,-0.50837 0.98749,-1.00773 1.72458,-1.39053 0.60587,-0.31465 1.19741,-0.47049 1.6695,-0.54457 0.56637,-0.0889 1.03221,-0.0822 1.3528,-0.0824 l 65.95299,-2.1e-4 -1.2e-4,-2.9512 c -1.1e-4,-0.46041 -0.0166,-1.24517 0.26832,-2.15509 0.21529,-0.68748 0.57651,-1.33246 1.03193,-1.87608 0.42588,-0.50836 0.98749,-1.00772 1.72458,-1.39052 0.60587,-0.31465 1.19741,-0.47049 1.6695,-0.54457 0.56637,-0.0889 1.03221,-0.0822 1.3528,-0.0824 l 71.24405,10e-6 c 0.45927,1.8e-4 1.24403,-0.0163 2.15394,0.26862 0.68748,0.21528 1.33247,0.57651 1.87608,1.03192 0.50836,0.42589 1.00772,0.9875 1.39052,1.72459 0.31466,0.60587 0.47049,1.19741 0.54457,1.6695 0.0889,0.56637 0.0822,1.0322 0.082,1.354 l -1.8e-4,2.94119 65.95306,0.002 c 0.45927,0.002 1.24403,-0.014 2.15394,0.2709 z"
     id="path258-5"
     sodipodi:nodetypes="sssscccsssscccccccccsssscccccccccccccsssscccsscccssssccsssscccsssscccssssccsssscccs" /><path
     style="display:inline;fill:none;stroke:#0000ff;stroke-opacity:1;stroke-width:0.132283;stroke-dasharray:none"
     d="m 405.24675,387.28225 c 0.68748,0.21529 1.33247,0.57651 1.87608,1.03193 0.50836,0.42588 1.00772,0.9875 1.39052,1.72458 0.31466,0.60589 0.47049,1.19743 0.54457,1.66951 0.0889,0.56637 0.0822,1.0322 0.082,1.3517 l -1.8e-4,2.96891 65.95311,-9.9e-4 c 0.45922,-0.001 1.24398,-0.018 2.15389,0.26697 0.68748,0.21528 1.33247,0.57651 1.87608,1.03193 0.50836,0.42588 1.00772,0.98748 1.39052,1.72458 0.31466,0.60586 0.47049,1.1974 0.54457,1.66949 0.0889,0.56637 0.0822,1.03221 0.0822,1.35064 l -4e-5,2.95785 18.0284,-0.001 c 2.08737,-9.9e-4 3.77952,1.69069 3.77952,3.77807 0,2.08738 1.69215,3.77952 3.77955,3.78145 h 24.56692 c 2.08737,-0.002 3.77952,-1.69407 3.77952,-3.78145 0,-2.08738 1.69216,-3.77952 3.77951,-3.77806 h 8.29927 c 0.45922,-0.001 1.24397,-0.018 2.15389,0.26696 0.68748,0.2153 1.33246,0.57652 1.87608,1.03194 0.50836,0.42587 1.00772,0.98749 1.39052,1.72457 0.31466,0.60588 0.47049,1.19742 0.54457,1.66951 0.0889,0.56637 0.0822,1.03221 0.0822,1.35064 l -10e-6,179.02788 c 0,2.08742 -1.69216,3.77957 -3.77953,3.77976 h -3.77951 c -2.08739,-1.9e-4 -3.77954,1.69197 -3.77957,3.77977 l 10e-6,13.98212 c 2e-5,2.08907 1.69217,3.78123 3.77956,3.77977 h 3.77951 c 2.08738,10e-4 3.77953,1.69361 3.77953,3.77976 v 15.69858 c 0,0.23805 0.006,0.70245 -0.11121,1.25508 -0.11686,0.55264 -0.31004,0.97499 -0.40648,1.19397 l -43.53622,98.33285 c -0.18589,0.42161 -0.48848,1.14587 -1.1174,1.86254 -0.47516,0.54147 -1.06657,0.985 -1.70307,1.29771 -0.59523,0.29244 -1.31092,0.52169 -2.13987,0.57333 -0.68139,0.0424 -1.28538,-0.0545 -1.74704,-0.17792 -0.55387,-0.14801 -0.97711,-0.34272 -1.27025,-0.47493 L 436.49475,710.12889 295.13372,695.34833 c -0.43633,-0.0462 -1.31376,-0.12109 -2.25108,-0.59777 -0.43788,-0.22268 -1.02548,-0.61112 -1.54588,-1.20875 -0.41984,-0.48214 -0.66847,-0.93503 -0.82479,-1.21057 l -34.27122,-59.97235 -212.331978,-3e-5 c -0.45919,-3e-5 -1.24394,0.0165 -2.15386,-0.26846 -0.68748,-0.21529 -1.33246,-0.57651 -1.87608,-1.03193 -0.50836,-0.42588 -1.00772,-0.98749 -1.39052,-1.72458 -0.31466,-0.60587 -0.47049,-1.19741 -0.54457,-1.6695 -0.0889,-0.56637 -0.0822,-1.03221 -0.0821,-1.35415 l -1e-5,-215.24235 c -1e-4,-0.46021 -0.0166,-1.24496 0.26833,-2.15488 0.21528,-0.68748 0.57651,-1.33246 1.03193,-1.87608 0.42588,-0.50836 0.98749,-1.00772 1.72458,-1.39052 0.60586,-0.31465 1.1974,-0.47049 1.66948,-0.54457 0.56636,-0.0889 1.03219,-0.0822 1.35278,-0.0826 l 137.893008,-3.8e-4 -1.2e-4,-11.95116 c -1.1e-4,-0.46037 -0.0166,-1.24513 0.26832,-2.15505 0.21529,-0.68748 0.57651,-1.33246 1.03193,-1.87607 0.42588,-0.50837 0.98749,-1.00773 1.72458,-1.39053 0.60587,-0.31465 1.19741,-0.47049 1.6695,-0.54457 0.56637,-0.0889 1.03221,-0.0822 1.3528,-0.0824 l 65.95299,-2.1e-4 -1.2e-4,-2.9512 c -1.1e-4,-0.46041 -0.0166,-1.24517 0.26832,-2.15509 0.21529,-0.68748 0.57651,-1.33246 1.03193,-1.87608 0.42588,-0.50836 0.98749,-1.00772 1.72458,-1.39052 0.60587,-0.31465 1.19741,-0.47049 1.6695,-0.54457 0.56637,-0.0889 1.03221,-0.0822 1.3528,-0.0824 l 71.24405,1e-5 c 0.45927,1.8e-4 1.24403,-0.0163 2.15394,0.26862 0.68748,0.21528 1.33247,0.57651 1.87608,1.03192 0.50836,0.42589 1.00772,0.9875 1.39052,1.72459 0.31466,0.60587 0.47049,1.19741 0.54457,1.6695 0.0889,0.56637 0.0822,1.0322 0.082,1.354 l -1.8e-4,2.94119 65.95306,0.002 c 0.45927,0.002 1.24403,-0.014 2.15394,0.2709 z"
     id="path258-5-0"
     sodipodi:nodetypes="sssscccsssscccccccccsssscccccccccccccsssscccsscccssssccsssscccsssscccssssccsssscccs" /><path
     style="display:inline;fill:none;stroke:#0000ff;stroke-opacity:1;stroke-width:0.132283;stroke-dasharray:none"
     d="m 1028.8688,28.227145 c 0.6875,0.21529 1.3325,0.57651 1.8761,1.03193 0.5083,0.42588 1.0077,0.9875 1.3905,1.72458 0.3146,0.60588 0.4705,1.19742 0.5446,1.66951 0.089,0.56637 0.082,1.0322 0.082,1.3517 l -2e-4,2.96891 65.9531,-0.001 c 0.4592,-10e-4 1.244,-0.018 2.1539,0.26697 0.6875,0.21529 1.3324,0.57651 1.8761,1.03193 0.5083,0.42588 1.0077,0.98749 1.3905,1.72458 0.3146,0.60587 0.4705,1.19741 0.5445,1.6695 0.089,0.56637 0.082,1.03221 0.082,1.35064 v 2.95784 l 18.0284,-10e-4 c 2.0874,-0.001 3.7795,1.69069 3.7795,3.77806 0,2.08738 1.6922,3.77953 3.7796,3.78146 h 24.5669 c 2.0873,-0.002 3.7795,-1.69408 3.7795,-3.78146 0,-2.08737 1.6922,-3.77952 3.7795,-3.77806 h 8.2993 c 0.4592,-0.001 1.2439,-0.018 2.1539,0.26697 0.6874,0.21529 1.3324,0.57651 1.876,1.03193 0.5084,0.42588 1.0078,0.98749 1.3906,1.72458 0.3146,0.60587 0.4705,1.19741 0.5445,1.6695 0.089,0.56637 0.082,1.03221 0.082,1.35064 V 231.04474 c 0,2.08742 -1.6921,3.77957 -3.7795,3.77976 h -3.7795 c -2.0874,-1.9e-4 -3.7796,1.69197 -3.7796,3.77977 v 13.98212 c 0,2.08907 1.6922,3.78123 3.7796,3.77977 h 3.7795 c 2.0874,0.001 3.7795,1.69361 3.7795,3.77976 v 15.69858 c 0,0.23805 0.01,0.70245 -0.1112,1.25508 -0.1169,0.55264 -0.31,0.97499 -0.4065,1.19397 l -43.5362,98.33285 c -0.1859,0.42161 -0.4884,1.14587 -1.1174,1.86254 -0.4751,0.54147 -1.0665,0.985 -1.703,1.29771 -0.5953,0.29244 -1.311,0.52169 -2.1399,0.57333 -0.6814,0.0424 -1.2854,-0.0545 -1.747,-0.17792 -0.5539,-0.14801 -0.9772,-0.34272 -1.2703,-0.47493 l -64.6735,-28.63335 -141.36105,-14.78056 c -0.43633,-0.0462 -1.31376,-0.12109 -2.25108,-0.59777 -0.43788,-0.22268 -1.02548,-0.61112 -1.54588,-1.20875 -0.41984,-0.48214 -0.66847,-0.93503 -0.82479,-1.21057 l -34.27122,-59.97235 -212.33198,-3e-5 c -0.45919,-3e-5 -1.24394,0.0165 -2.15386,-0.26846 -0.68748,-0.21529 -1.33246,-0.57651 -1.87608,-1.03193 -0.50836,-0.42588 -1.00772,-0.98749 -1.39052,-1.72458 -0.31466,-0.60587 -0.47049,-1.19741 -0.54457,-1.6695 -0.0889,-0.56637 -0.0822,-1.03221 -0.0821,-1.35415 l -10e-6,-215.242345 c -1e-4,-0.46021 -0.0166,-1.24496 0.26833,-2.15488 0.21528,-0.68748 0.57651,-1.33246 1.03193,-1.87608 0.42588,-0.50836 0.98749,-1.00772 1.72458,-1.39052 0.60586,-0.31465 1.1974,-0.47049 1.66948,-0.54457 0.56636,-0.0889 1.03219,-0.0822 1.35278,-0.0826 l 137.89301,-3.8e-4 -1.2e-4,-11.95116 c -1.1e-4,-0.46037 -0.0166,-1.24513 0.26832,-2.15505 0.21529,-0.68748 0.57651,-1.33246 1.03193,-1.87607 0.42588,-0.50837 0.98749,-1.00773 1.72458,-1.39053 0.60587,-0.31465 1.19741,-0.47049 1.6695,-0.54457 0.56637,-0.0889 1.03221,-0.0822 1.3528,-0.0824 l 65.95299,-2.1e-4 -1.2e-4,-2.9512 c -1.1e-4,-0.46041 -0.0166,-1.24517 0.26832,-2.15509 0.21529,-0.68748 0.57651,-1.33246 1.03193,-1.87608 0.42588,-0.50836 0.98749,-1.00772 1.72458,-1.39052 0.60587,-0.31465 1.19741,-0.47049 1.6695,-0.54457 0.56637,-0.0889 1.03221,-0.0822 1.3528,-0.0824 l 71.24405,10e-6 c 0.45927,1.8e-4 1.24403,-0.0163 2.15394,0.26862 0.68748,0.21528 1.33247,0.57651 1.87608,1.03192 0.50836,0.42589 1.00772,0.9875 1.39052,1.72459 0.31466,0.60587 0.47049,1.19741 0.54457,1.6695 0.0889,0.56637 0.0822,1.0322 0.082,1.354 l -1.8e-4,2.94119 65.95304,0.002 c 0.4593,0.002 1.2441,-0.014 2.154,0.2709 z"
     id="path258-5-1"
     sodipodi:nodetypes="sssscccsssscccccccccsssscccccccccccccsssscccsscccssssccsssscccsssscccssssccsssscccs" /><path
     style="display:inline;fill:none;stroke:#0000ff;stroke-opacity:1;stroke-width:0.132283;stroke-dasharray:none"
     d="m 1028.8688,387.28225 c 0.6875,0.21529 1.3325,0.57651 1.8761,1.03193 0.5083,0.42588 1.0077,0.9875 1.3905,1.72458 0.3146,0.60589 0.4705,1.19743 0.5446,1.66951 0.089,0.56637 0.082,1.0322 0.082,1.3517 l -2e-4,2.96891 65.9531,-9.9e-4 c 0.4592,-0.001 1.244,-0.018 2.1539,0.26697 0.6875,0.21528 1.3324,0.57651 1.8761,1.03193 0.5083,0.42588 1.0077,0.98748 1.3905,1.72458 0.3146,0.60586 0.4705,1.1974 0.5445,1.66949 0.089,0.56637 0.082,1.03221 0.082,1.35064 v 2.95785 l 18.0284,-0.001 c 2.0874,-9.9e-4 3.7795,1.69069 3.7795,3.77807 0,2.08738 1.6922,3.77952 3.7796,3.78145 h 24.5669 c 2.0873,-0.002 3.7795,-1.69407 3.7795,-3.78145 0,-2.08738 1.6922,-3.77952 3.7795,-3.77806 h 8.2993 c 0.4592,-0.001 1.2439,-0.018 2.1539,0.26696 0.6874,0.2153 1.3324,0.57652 1.876,1.03194 0.5084,0.42587 1.0078,0.98749 1.3906,1.72457 0.3146,0.60588 0.4705,1.19742 0.5445,1.66951 0.089,0.56637 0.082,1.03221 0.082,1.35064 v 179.02788 c 0,2.08742 -1.6921,3.77957 -3.7795,3.77976 h -3.7795 c -2.0874,-1.9e-4 -3.7796,1.69197 -3.7796,3.77977 v 13.98212 c 0,2.08907 1.6922,3.78123 3.7796,3.77977 h 3.7795 c 2.0874,10e-4 3.7795,1.69361 3.7795,3.77976 v 15.69858 c 0,0.23805 0.01,0.70245 -0.1112,1.25508 -0.1169,0.55264 -0.31,0.97499 -0.4065,1.19397 l -43.5362,98.33285 c -0.1859,0.42161 -0.4884,1.14587 -1.1174,1.86254 -0.4751,0.54147 -1.0665,0.985 -1.703,1.29771 -0.5953,0.29244 -1.311,0.52169 -2.1399,0.57333 -0.6814,0.0424 -1.2854,-0.0545 -1.747,-0.17792 -0.5539,-0.14801 -0.9772,-0.34272 -1.2703,-0.47493 l -64.6735,-28.63336 -141.36105,-14.78056 c -0.43633,-0.0462 -1.31376,-0.12109 -2.25108,-0.59777 -0.43788,-0.22268 -1.02548,-0.61112 -1.54588,-1.20875 -0.41984,-0.48214 -0.66847,-0.93503 -0.82479,-1.21057 l -34.27122,-59.97235 -212.33198,-3e-5 c -0.45919,-3e-5 -1.24394,0.0165 -2.15386,-0.26846 -0.68748,-0.21529 -1.33246,-0.57651 -1.87608,-1.03193 -0.50836,-0.42588 -1.00772,-0.98749 -1.39052,-1.72458 -0.31466,-0.60587 -0.47049,-1.19741 -0.54457,-1.6695 -0.0889,-0.56637 -0.0822,-1.03221 -0.0821,-1.35415 l -10e-6,-215.24235 c -1e-4,-0.46021 -0.0166,-1.24496 0.26833,-2.15488 0.21528,-0.68748 0.57651,-1.33246 1.03193,-1.87608 0.42588,-0.50836 0.98749,-1.00772 1.72458,-1.39052 0.60586,-0.31465 1.1974,-0.47049 1.66948,-0.54457 0.56636,-0.0889 1.03219,-0.0822 1.35278,-0.0826 l 137.89301,-3.8e-4 -1.2e-4,-11.95116 c -1.1e-4,-0.46037 -0.0166,-1.24513 0.26832,-2.15505 0.21529,-0.68748 0.57651,-1.33246 1.03193,-1.87607 0.42588,-0.50837 0.98749,-1.00773 1.72458,-1.39053 0.60587,-0.31465 1.19741,-0.47049 1.6695,-0.54457 0.56637,-0.0889 1.03221,-0.0822 1.3528,-0.0824 l 65.95299,-2.1e-4 -1.2e-4,-2.9512 c -1.1e-4,-0.46041 -0.0166,-1.24517 0.26832,-2.15509 0.21529,-0.68748 0.57651,-1.33246 1.03193,-1.87608 0.42588,-0.50836 0.98749,-1.00772 1.72458,-1.39052 0.60587,-0.31465 1.19741,-0.47049 1.6695,-0.54457 0.56637,-0.0889 1.03221,-0.0822 1.3528,-0.0824 l 71.24405,1e-5 c 0.45927,1.8e-4 1.24403,-0.0163 2.15394,0.26862 0.68748,0.21528 1.33247,0.57651 1.87608,1.03192 0.50836,0.42589 1.00772,0.9875 1.39052,1.72459 0.31466,0.60587 0.47049,1.19741 0.54457,1.6695 0.0889,0.56637 0.0822,1.0322 0.082,1.354 l -1.8e-4,2.94119 65.95304,0.002 c 0.4593,0.002 1.2441,-0.014 2.154,0.2709 z"
     id="path258-5-0-7"
     sodipodi:nodetypes="sssscccsssscccccccccsssscccccccccccccsssscccsscccssssccsssscccsssscccssssccsssscccs" /><path
     style="display:inline;fill:none;stroke:#0000ff;stroke-opacity:1;stroke-width:0.132283;stroke-dasharray:none"
     d="m 1690.2865,28.227145 c 0.6874,0.21529 1.3324,0.57651 1.876,1.03193 0.5084,0.42588 1.0078,0.9875 1.3906,1.72458 0.3146,0.60588 0.4704,1.19742 0.5445,1.66951 0.089,0.56637 0.082,1.0322 0.082,1.3517 l -2e-4,2.96891 65.9532,-0.001 c 0.4592,-10e-4 1.2439,-0.018 2.1538,0.26697 0.6875,0.21529 1.3325,0.57651 1.8761,1.03193 0.5084,0.42588 1.0077,0.98749 1.3905,1.72458 0.3147,0.60587 0.4705,1.19741 0.5446,1.6695 0.089,0.56637 0.082,1.03221 0.082,1.35064 v 2.95784 l 18.0284,-10e-4 c 2.0873,-0.001 3.7795,1.69069 3.7795,3.77806 0,2.08738 1.6921,3.77953 3.7795,3.78146 h 24.567 c 2.0873,-0.002 3.7795,-1.69408 3.7795,-3.78146 0,-2.08737 1.6921,-3.77952 3.7795,-3.77806 h 8.2993 c 0.4592,-0.001 1.2439,-0.018 2.1539,0.26697 0.6874,0.21529 1.3324,0.57651 1.876,1.03193 0.5084,0.42588 1.0077,0.98749 1.3906,1.72458 0.3146,0.60587 0.4704,1.19741 0.5445,1.6695 0.089,0.56637 0.082,1.03221 0.082,1.35064 V 231.04474 c 0,2.08742 -1.6921,3.77957 -3.7795,3.77976 h -3.7795 c -2.0874,-1.9e-4 -3.7796,1.69197 -3.7796,3.77977 v 13.98212 c 0,2.08907 1.6922,3.78123 3.7796,3.77977 h 3.7795 c 2.0874,0.001 3.7795,1.69361 3.7795,3.77976 v 15.69858 c 0,0.23805 0.01,0.70245 -0.1112,1.25508 -0.1169,0.55264 -0.31,0.97499 -0.4065,1.19397 l -43.5362,98.33285 c -0.1859,0.42161 -0.4885,1.14587 -1.1174,1.86254 -0.4752,0.54147 -1.0666,0.985 -1.7031,1.29771 -0.5952,0.29244 -1.3109,0.52169 -2.1398,0.57333 -0.6814,0.0424 -1.2854,-0.0545 -1.7471,-0.17792 -0.5538,-0.14801 -0.9771,-0.34272 -1.2702,-0.47493 l -64.6737,-28.63335 -141.3611,-14.78056 c -0.4363,-0.0462 -1.3137,-0.12109 -2.2511,-0.59777 -0.4378,-0.22268 -1.0254,-0.61112 -1.5458,-1.20875 -0.4199,-0.48214 -0.6685,-0.93503 -0.8248,-1.21057 l -34.2712,-59.97235 -212.332,-3e-5 c -0.4592,-3e-5 -1.244,0.0165 -2.1539,-0.26846 -0.6875,-0.21529 -1.3324,-0.57651 -1.8761,-1.03193 -0.5083,-0.42588 -1.0077,-0.98749 -1.3905,-1.72458 -0.3146,-0.60587 -0.4705,-1.19741 -0.5446,-1.6695 -0.089,-0.56637 -0.082,-1.03221 -0.082,-1.35415 V 52.012785 c -10e-5,-0.46021 -0.017,-1.24496 0.2684,-2.15488 0.2152,-0.68748 0.5765,-1.33246 1.0319,-1.87608 0.4259,-0.50836 0.9875,-1.00772 1.7246,-1.39052 0.6058,-0.31465 1.1974,-0.47049 1.6695,-0.54457 0.5663,-0.0889 1.0321,-0.0822 1.3527,-0.0826 l 137.893,-3.8e-4 -1e-4,-11.95116 c -10e-5,-0.46037 -0.017,-1.24513 0.2683,-2.15505 0.2153,-0.68748 0.5766,-1.33246 1.032,-1.87607 0.4259,-0.50837 0.9875,-1.00773 1.7245,-1.39053 0.6059,-0.31465 1.1975,-0.47049 1.6696,-0.54457 0.5663,-0.0889 1.0322,-0.0822 1.3527,-0.0824 l 65.953,-2.1e-4 -1e-4,-2.9512 c -10e-5,-0.46041 -0.017,-1.24517 0.2683,-2.15509 0.2153,-0.68748 0.5766,-1.33246 1.032,-1.87608 0.4259,-0.50836 0.9875,-1.00772 1.7245,-1.39052 0.6059,-0.31465 1.1975,-0.47049 1.6695,-0.54457 0.5664,-0.0889 1.0323,-0.0822 1.3528,-0.0824 l 71.2441,10e-6 c 0.4593,1.8e-4 1.244,-0.0163 2.1539,0.26862 0.6875,0.21528 1.3325,0.57651 1.8761,1.03192 0.5084,0.42589 1.0077,0.9875 1.3905,1.72459 0.3147,0.60587 0.4705,1.19741 0.5446,1.6695 0.089,0.56637 0.082,1.0322 0.082,1.354 l -2e-4,2.94119 65.9531,0.002 c 0.4593,0.002 1.244,-0.014 2.1539,0.2709 z"
     id="path258-5-2"
     sodipodi:nodetypes="sssscccsssscccccccccsssscccccccccccccsssscccsscccssssccsssscccsssscccssssccsssscccs" /><path
     style="display:inline;fill:none;stroke:#0000ff;stroke-opacity:1;stroke-width:0.132283;stroke-dasharray:none"
     d="m 1690.2865,387.28225 c 0.6874,0.21529 1.3324,0.57651 1.876,1.03193 0.5084,0.42588 1.0078,0.9875 1.3906,1.72458 0.3146,0.60589 0.4704,1.19743 0.5445,1.66951 0.089,0.56637 0.082,1.0322 0.082,1.3517 l -2e-4,2.96891 65.9532,-9.9e-4 c 0.4592,-0.001 1.2439,-0.018 2.1538,0.26697 0.6875,0.21528 1.3325,0.57651 1.8761,1.03193 0.5084,0.42588 1.0077,0.98748 1.3905,1.72458 0.3147,0.60586 0.4705,1.1974 0.5446,1.66949 0.089,0.56637 0.082,1.03221 0.082,1.35064 v 2.95785 l 18.0284,-0.001 c 2.0873,-9.9e-4 3.7795,1.69069 3.7795,3.77807 0,2.08738 1.6921,3.77952 3.7795,3.78145 h 24.567 c 2.0873,-0.002 3.7795,-1.69407 3.7795,-3.78145 0,-2.08738 1.6921,-3.77952 3.7795,-3.77806 h 8.2993 c 0.4592,-0.001 1.2439,-0.018 2.1539,0.26696 0.6874,0.2153 1.3324,0.57652 1.876,1.03194 0.5084,0.42587 1.0077,0.98749 1.3906,1.72457 0.3146,0.60588 0.4704,1.19742 0.5445,1.66951 0.089,0.56637 0.082,1.03221 0.082,1.35064 v 179.02788 c 0,2.08742 -1.6921,3.77957 -3.7795,3.77976 h -3.7795 c -2.0874,-1.9e-4 -3.7796,1.69197 -3.7796,3.77977 v 13.98212 c 0,2.08907 1.6922,3.78123 3.7796,3.77977 h 3.7795 c 2.0874,10e-4 3.7795,1.69361 3.7795,3.77976 v 15.69858 c 0,0.23805 0.01,0.70245 -0.1112,1.25508 -0.1169,0.55264 -0.31,0.97499 -0.4065,1.19397 l -43.5362,98.33285 c -0.1859,0.42161 -0.4885,1.14587 -1.1174,1.86254 -0.4752,0.54147 -1.0666,0.985 -1.7031,1.29771 -0.5952,0.29244 -1.3109,0.52169 -2.1398,0.57333 -0.6814,0.0424 -1.2854,-0.0545 -1.7471,-0.17792 -0.5538,-0.14801 -0.9771,-0.34272 -1.2702,-0.47493 l -64.6737,-28.63336 -141.3611,-14.78056 c -0.4363,-0.0462 -1.3137,-0.12109 -2.2511,-0.59777 -0.4378,-0.22268 -1.0254,-0.61112 -1.5458,-1.20875 -0.4199,-0.48214 -0.6685,-0.93503 -0.8248,-1.21057 l -34.2712,-59.97235 -212.332,-3e-5 c -0.4592,-3e-5 -1.244,0.0165 -2.1539,-0.26846 -0.6875,-0.21529 -1.3324,-0.57651 -1.8761,-1.03193 -0.5083,-0.42588 -1.0077,-0.98749 -1.3905,-1.72458 -0.3146,-0.60587 -0.4705,-1.19741 -0.5446,-1.6695 -0.089,-0.56637 -0.082,-1.03221 -0.082,-1.35415 V 411.06789 c -10e-5,-0.46021 -0.017,-1.24496 0.2684,-2.15488 0.2152,-0.68748 0.5765,-1.33246 1.0319,-1.87608 0.4259,-0.50836 0.9875,-1.00772 1.7246,-1.39052 0.6058,-0.31465 1.1974,-0.47049 1.6695,-0.54457 0.5663,-0.0889 1.0321,-0.0822 1.3527,-0.0826 l 137.893,-3.8e-4 -1e-4,-11.95116 c -10e-5,-0.46037 -0.017,-1.24513 0.2683,-2.15505 0.2153,-0.68748 0.5766,-1.33246 1.032,-1.87607 0.4259,-0.50837 0.9875,-1.00773 1.7245,-1.39053 0.6059,-0.31465 1.1975,-0.47049 1.6696,-0.54457 0.5663,-0.0889 1.0322,-0.0822 1.3527,-0.0824 l 65.953,-2.1e-4 -1e-4,-2.9512 c -10e-5,-0.46041 -0.017,-1.24517 0.2683,-2.15509 0.2153,-0.68748 0.5766,-1.33246 1.032,-1.87608 0.4259,-0.50836 0.9875,-1.00772 1.7245,-1.39052 0.6059,-0.31465 1.1975,-0.47049 1.6695,-0.54457 0.5664,-0.0889 1.0323,-0.0822 1.3528,-0.0824 l 71.2441,1e-5 c 0.4593,1.8e-4 1.244,-0.0163 2.1539,0.26862 0.6875,0.21528 1.3325,0.57651 1.8761,1.03192 0.5084,0.42589 1.0077,0.9875 1.3905,1.72459 0.3147,0.60587 0.4705,1.19741 0.5446,1.6695 0.089,0.56637 0.082,1.0322 0.082,1.354 l -2e-4,2.94119 65.9531,0.002 c 0.4593,0.002 1.244,-0.014 2.1539,0.2709 z"
     id="path258-5-0-3"
     sodipodi:nodetypes="sssscccsssscccccccccsssscccccccccccccsssscccsscccssssccsssscccsssscccssssccsssscccs" /></g>&#10;&#10;<g
   inkscape:groupmode="layer"
   id="layer1"
   inkscape:label="CUT1"
   style="display:inline;fill:none;stroke:#ff0000;stroke-opacity:1"
   inkscape:highlight-color="#ff0000"><path
     d="m 52.129282,207.44545 h 54.803148 c 1.04368,0 1.88976,0.84608 1.88976,1.88976 v 44.59843 c 0,1.04368 -0.84608,1.88976 -1.88976,1.88976 H 52.129282 c -1.04368,0 -1.88976,-0.84607 -1.88976,-1.88976 v -44.59843 c 0,-1.04369 0.84608,-1.88976 1.88976,-1.88976 z"
     style="display:inline;fill:none;stroke:#ff0000;stroke-width:0.132283;stroke-dasharray:none;stroke-opacity:1"
     id="path222-8"
     sodipodi:nodetypes="sssssssss" /><path
     d="M 50.239502,109.93296 V 65.334535 c 0,-1.04369 0.84608,-1.88977 1.88977,-1.88977 h 54.803148 c 1.04369,0 1.88976,0.84608 1.88976,1.88977 v 44.598425 c 0,1.04368 -0.84608,1.88976 -1.88976,1.88976 H 52.129272 c -1.04369,0 -1.88976,-0.84607 -1.88977,-1.88976 z"
     style="display:inline;fill:none;stroke:#ff0000;stroke-width:0.132283;stroke-dasharray:none;stroke-opacity:1"
     id="path223-0"
     sodipodi:nodetypes="scsccscss" /><path
     d="m 124.06923,63.443945 c -1.04368,0 -1.88976,0.84608 -1.88976,1.88976 v 44.598435 c 0,1.04368 0.84608,1.88976 1.88976,1.88976 h 54.80315 c 1.04369,0 1.88977,-0.84607 1.88977,-1.88976 V 65.333705 c 0,-1.04369 -0.84608,-1.88976 -1.88977,-1.88976 z"
     style="display:inline;fill:none;stroke:#ff0000;stroke-width:0.132283;stroke-dasharray:none;stroke-opacity:1"
     id="path224-6"
     sodipodi:nodetypes="cssccsscc" /><path
     d="m 52.129292,135.44544 c -1.04369,0 -1.88976,0.84607 -1.88977,1.88976 v 44.59843 c 10e-6,1.04369 0.84608,1.88976 1.88977,1.88976 h 54.803148 c 1.04368,0 1.88976,-0.84608 1.88976,-1.88976 V 137.3352 c 0,-1.04368 -0.84608,-1.88976 -1.88976,-1.88976 z"
     style="display:inline;fill:none;stroke:#ff0000;stroke-width:0.132283;stroke-dasharray:none;stroke-opacity:1"
     id="path225-5"
     sodipodi:nodetypes="sssscsscs" /><path
     d="m 196.06923,45.444535 c -1.04368,0 -1.88976,0.84608 -1.88976,1.88976 v 44.59843 c 0,1.04368 0.84608,1.88976 1.88976,1.88976 h 54.80315 c 1.04369,0 1.88977,-0.84607 1.88977,-1.88976 v -44.59843 c 0,-1.04369 -0.84608,-1.88976 -1.88977,-1.88976 z"
     style="display:inline;fill:none;stroke:#ff0000;stroke-width:0.132283;stroke-dasharray:none;stroke-opacity:1"
     id="path226-7"
     sodipodi:nodetypes="cssccsscc" /><path
     d="m 124.12929,135.44545 c -1.04369,0 -1.88977,0.84607 -1.88977,1.88976 v 44.59843 c 0,1.04369 0.84608,1.88976 1.88977,1.88976 h 54.80315 c 1.04368,0 1.88976,-0.84608 1.88976,-1.88976 v -44.59843 c 0,-1.04368 -0.84608,-1.88976 -1.88976,-1.88976 z"
     style="display:inline;fill:none;stroke:#ff0000;stroke-width:0.132283;stroke-dasharray:none;stroke-opacity:1"
     id="path227-3"
     sodipodi:nodetypes="csscssscc" /><path
     d="m 178.93244,255.82341 h -54.80315 c -1.04369,0 -1.88977,-0.84607 -1.88977,-1.88976 v -44.59843 c 0,-1.04369 0.84608,-1.88976 1.88977,-1.88976 h 54.80315 c 1.04368,0 1.88976,0.84608 1.88976,1.88976 v 44.59843 c 0,1.04368 -0.84608,1.88976 -1.88976,1.88976 z"
     style="display:inline;fill:none;stroke:#ff0000;stroke-width:0.132283;stroke-dasharray:none;stroke-opacity:1"
     id="path228-4"
     sodipodi:nodetypes="scsscssss" /><path
     d="m 268.06923,36.444455 c -1.04368,0 -1.88976,0.84608 -1.88976,1.88976 v 44.59843 c 0,1.04368 0.84608,1.88976 1.88976,1.88976 h 54.80315 c 1.04369,0 1.88977,-0.84607 1.88977,-1.88976 v -44.59843 c 0,-1.04369 -0.84608,-1.88976 -1.88977,-1.88976 z"
     style="display:inline;fill:none;stroke:#ff0000;stroke-width:0.132283;stroke-dasharray:none;stroke-opacity:1"
     id="path229-3"
     sodipodi:nodetypes="cssccsscc" /><path
     d="m 196.1293,117.44544 c -1.04369,0 -1.88977,0.84608 -1.88977,1.88977 v 44.59842 c 0,1.04369 0.84608,1.88976 1.88977,1.88976 h 54.80315 c 1.04368,0 1.88976,-0.84608 1.88976,-1.88976 v -44.59842 c 0,-1.04369 -0.84607,-1.88977 -1.88976,-1.88977 z"
     style="display:inline;fill:none;stroke:#ff0000;stroke-width:0.132283;stroke-dasharray:none;stroke-opacity:1"
     id="path230-0"
     sodipodi:nodetypes="ccscssccc" /><path
     d="m 250.93244,237.8234 h -54.80315 c -1.04368,0 -1.88976,-0.84608 -1.88976,-1.88976 v -44.59843 c 0,-1.04368 0.84608,-1.88976 1.88976,-1.88976 h 54.80315 c 1.04368,0 1.88976,0.84608 1.88976,1.88976 v 44.59843 c 0,1.04368 -0.84608,1.88976 -1.88976,1.88976 z"
     style="display:inline;fill:none;stroke:#ff0000;stroke-width:0.132283;stroke-dasharray:none;stroke-opacity:1"
     id="path231-4"
     sodipodi:nodetypes="sssssssss" /><path
     d="m 324.82221,110.33521 v 44.59842 c 0,1.04368 -0.84608,1.88976 -1.88976,1.88976 H 268.1293 c -1.04369,0 -1.88977,-0.84607 -1.88977,-1.88976 v -44.59842 c 0,-1.04369 0.84608,-1.88977 1.88977,-1.88977 h 54.80315 c 1.04369,0 1.88976,0.84608 1.88976,1.88977 z"
     style="display:inline;fill:none;stroke:#ff0000;stroke-width:0.132283;stroke-dasharray:none;stroke-opacity:1"
     id="path232-8"
     sodipodi:nodetypes="csscsccsc" /><path
     d="m 340.11885,117.42474 c -1.04369,0 -1.88976,0.84608 -1.88976,1.88977 v 44.59842 c 0,1.04368 0.84608,1.88976 1.88976,1.88976 H 394.922 c 1.04368,0 1.88976,-0.84608 1.88976,-1.88976 v -44.59842 c 0,-1.04369 -0.84607,-1.88977 -1.88976,-1.88977 z"
     style="display:inline;fill:none;stroke:#ff0000;stroke-width:0.132283;stroke-dasharray:none;stroke-opacity:1"
     id="path233-7"
     sodipodi:nodetypes="scsssscss" /><path
     d="m 468.76215,200.33475 v 44.59842 c 0,1.04369 -0.84608,1.88977 -1.88977,1.88977 h -54.80315 c -1.04369,0 -1.88976,-0.84608 -1.88976,-1.88977 v -44.59842 c 0,-1.04369 0.84607,-1.88977 1.88976,-1.88977 h 54.80315 c 1.04369,0 1.88977,0.84608 1.88977,1.88977 z"
     style="display:inline;fill:none;stroke:#ff0000;stroke-width:0.132283;stroke-dasharray:none;stroke-opacity:1"
     id="path234-5"
     sodipodi:nodetypes="sscsssscs" /><path
     d="m 266.23953,226.93363 v -44.59842 c 0,-1.04369 0.84608,-1.88977 1.88977,-1.88977 h 54.80315 c 1.04369,0 1.88976,0.84608 1.88976,1.88977 v 44.59842 c 0,1.04368 -0.84608,1.88976 -1.88976,1.88976 H 268.1293 c -1.04369,0 -1.88977,-0.84607 -1.88977,-1.88976 z"
     style="display:inline;fill:none;stroke:#ff0000;stroke-width:0.132283;stroke-dasharray:none;stroke-opacity:1"
     id="path235-9"
     sodipodi:nodetypes="sccscsscs" /><path
     d="m 338.17947,91.927215 v -44.59842 c 0,-1.04368 0.84608,-1.88976 1.88976,-1.88976 h 54.80315 c 1.04369,0 1.88977,0.84607 1.88977,1.88976 v 44.59842 c 0,1.04369 -0.84608,1.88977 -1.88977,1.88977 h -54.80315 c -1.04369,0 -1.88976,-0.84608 -1.88976,-1.88977 z"
     style="display:inline;fill:none;stroke:#ff0000;stroke-width:0.132283;stroke-dasharray:none;stroke-opacity:1"
     id="path236-5"
     sodipodi:nodetypes="csccsccsc" /><path
     d="m 412.12533,126.44741 h 54.80315 c 1.04368,0 1.88976,0.84608 1.88976,1.88976 v 44.59843 c 0,1.04368 -0.84608,1.88976 -1.88976,1.88976 h -54.80315 c -1.04368,0 -1.88976,-0.84608 -1.88976,-1.88976 v -44.59843 c 0,-1.04368 0.84608,-1.88976 1.88976,-1.88976 z"
     style="display:inline;fill:none;stroke:#ff0000;stroke-width:0.132283;stroke-dasharray:none;stroke-opacity:1"
     id="path237-3"
     sodipodi:nodetypes="sssssssss" /><path
     d="m 466.87238,102.82912 h -54.80315 c -1.04368,0 -1.88976,-0.84608 -1.88976,-1.88976 V 56.340935 c 0,-1.04369 0.84607,-1.88977 1.88976,-1.88977 h 54.80315 c 1.04369,0 1.88977,0.84608 1.88977,1.88977 v 44.598425 c 0,1.04369 -0.84608,1.88976 -1.88977,1.88976 z"
     style="display:inline;fill:none;stroke:#ff0000;stroke-width:0.132283;stroke-dasharray:none;stroke-opacity:1"
     id="path238-2"
     sodipodi:nodetypes="csscsccsc" /><path
     d="m 338.2393,235.93362 c 0,1.04369 0.84608,1.88977 1.88977,1.88977 h 54.80315 c 1.04369,0 1.88976,-0.84608 1.88976,-1.88977 V 191.3352 c 0,-1.04369 -0.84607,-1.88977 -1.88976,-1.88977 h -54.80315 c -1.04369,0 -1.88977,0.84608 -1.88977,1.88977 z"
     style="display:inline;fill:none;stroke:#ff0000;stroke-width:0.132283;stroke-dasharray:none;stroke-opacity:1"
     id="path239-7"
     sodipodi:nodetypes="ccssssccc" /><path
     d="m 482.23953,208.93363 c 0,1.04369 0.84608,1.88976 1.88977,1.88976 h 54.80315 c 1.04368,0 1.88976,-0.84608 1.88976,-1.88976 v -44.59842 c 0,-1.04369 -0.84607,-1.88977 -1.88976,-1.88977 H 484.1293 c -1.04369,0 -1.88977,0.84608 -1.88977,1.88977 z"
     style="display:inline;fill:none;stroke:#ff0000;stroke-width:0.132283;stroke-dasharray:none;stroke-opacity:1"
     id="path240-3"
     sodipodi:nodetypes="scsssscss" /><path
     d="m 482.23953,136.93363 c 0,1.04369 0.84608,1.88976 1.88977,1.88976 h 54.80315 c 1.04368,0 1.88976,-0.84608 1.88976,-1.88976 V 92.335205 c 0,-1.04369 -0.84607,-1.88977 -1.88976,-1.88977 H 484.1293 c -1.04369,0 -1.88977,0.84608 -1.88977,1.88977 z"
     style="display:inline;fill:none;stroke:#ff0000;stroke-width:0.132283;stroke-dasharray:none;stroke-opacity:1"
     id="path241-9"
     sodipodi:nodetypes="scssssccs" /><path
     d="m 302.2393,316.93317 v -44.59842 c 0,-1.04369 0.84608,-1.88977 1.88977,-1.88977 h 54.80315 c 1.04369,0 1.88976,0.84608 1.88976,1.88977 v 44.59842 c 0,1.04369 -0.84607,1.88977 -1.88976,1.88977 h -54.80315 c -1.04369,0 -1.88977,-0.84608 -1.88977,-1.88977 z"
     style="display:inline;fill:none;stroke:#ff0000;stroke-width:0.132283;stroke-dasharray:none;stroke-opacity:1"
     id="path242-7"
     sodipodi:nodetypes="sscsssscs" /><path
     d="m 388.39542,273.52617 53.61747,11.33807 c 1.02111,0.21593 1.67384,1.21874 1.45791,2.23985 l -9.22684,43.63353 c -0.21593,1.02111 -1.21874,1.67384 -2.23985,1.45791 l -53.61747,-11.33808 c -1.0211,-0.21593 -1.67383,-1.21873 -1.45791,-2.23984 l 9.22685,-43.63353 c 0.21593,-1.0211 1.21873,-1.67383 2.23984,-1.45791 z"
     style="display:inline;fill:none;stroke:#ff0000;stroke-width:0.132283;stroke-dasharray:none;stroke-opacity:1"
     id="path243-7"
     sodipodi:nodetypes="csssssssc" /><path
     d="m 501.28429,346.53773 c 0.95434,0.42251 2.0705,-0.009 2.49301,-0.96297 l 22.18554,-50.11175 c 0.42251,-0.95434 -0.009,-2.0705 -0.96297,-2.49301 l -40.78059,-18.05444 c -0.95434,-0.42251 -2.0705,0.009 -2.49301,0.96297 l -22.18554,50.11175 c -0.42251,0.95434 0.009,2.0705 0.96297,2.49301 z"
     style="display:inline;fill:none;stroke:#ff0000;stroke-width:0.132283;stroke-dasharray:none;stroke-opacity:1"
     id="path244-9"
     sodipodi:nodetypes="sssssssss" /><path
     d="m 411.24365,110.12693 c -0.003,-4.27724 -3.47079,-7.74321 -7.74803,-7.74321 -4.27724,0 -7.74537,3.46597 -7.74803,7.74321 0.003,4.27724 3.47079,7.74321 7.74803,7.74321 4.27724,0 7.74537,-3.46597 7.74803,-7.74321 z"
     style="display:inline;fill:none;stroke:#ff0000;stroke-width:0.132283;stroke-dasharray:none;stroke-opacity:1"
     id="path272-3"
     sodipodi:nodetypes="cscsc" /><path
     d="m 411.21884,258.63396 c -0.003,-4.27724 -3.47079,-7.74321 -7.74803,-7.74321 -4.27724,0 -7.74537,3.46597 -7.74803,7.74321 0.003,4.27724 3.47079,7.74321 7.74803,7.74321 4.27724,0 7.74537,-3.46597 7.74803,-7.74321 z"
     style="display:inline;fill:none;stroke:#ff0000;stroke-width:0.132283;stroke-dasharray:none;stroke-opacity:1"
     id="path273-3"
     sodipodi:nodetypes="cscsc" /><path
     d="m 123.2789,123.63442 c -0.003,-4.27724 -3.47079,-7.74321 -7.74804,-7.74321 -4.27724,0 -7.74537,3.46597 -7.74803,7.74321 0.003,4.27724 3.47079,7.74321 7.74803,7.74321 4.27725,0 7.74538,-3.46597 7.74804,-7.74321 z"
     style="display:inline;fill:none;stroke:#ff0000;stroke-width:0.132283;stroke-dasharray:none;stroke-opacity:1"
     id="path274-3"
     sodipodi:nodetypes="cscsc" /><path
     d="m 123.27891,195.63442 c 0,-4.27912 -3.46891,-7.74803 -7.74805,-7.74803 -4.27912,0 -7.74803,3.46891 -7.74803,7.74803 0,4.27912 3.46891,7.74803 7.74803,7.74803 4.27914,0 7.74805,-3.46891 7.74805,-7.74803 z"
     style="display:inline;fill:none;stroke:#ff0000;stroke-width:0.132283;stroke-dasharray:none;stroke-opacity:1"
     id="path275-8"
     sodipodi:nodetypes="sssss" /><path
     d="m 52.129282,566.50056 h 54.803148 c 1.04368,0 1.88976,0.84608 1.88976,1.88976 v 44.59843 c 0,1.04368 -0.84608,1.88976 -1.88976,1.88976 H 52.129282 c -1.04368,0 -1.88976,-0.84607 -1.88976,-1.88976 v -44.59843 c 0,-1.04369 0.84608,-1.88976 1.88976,-1.88976 z"
     style="display:inline;fill:none;stroke:#ff0000;stroke-width:0.132283;stroke-dasharray:none;stroke-opacity:1"
     id="path222-8-3"
     sodipodi:nodetypes="sssssssss" /><path
     d="m 50.239502,468.98807 v -44.59842 c 0,-1.0437 0.84608,-1.88977 1.88977,-1.88977 h 54.803148 c 1.04369,0 1.88976,0.84607 1.88976,1.88977 v 44.59842 c 0,1.04368 -0.84608,1.88976 -1.88976,1.88976 H 52.129272 c -1.04369,0 -1.88976,-0.84607 -1.88977,-1.88976 z"
     style="display:inline;fill:none;stroke:#ff0000;stroke-width:0.132283;stroke-dasharray:none;stroke-opacity:1"
     id="path223-0-9"
     sodipodi:nodetypes="scsccscss" /><path
     d="m 124.06923,422.49905 c -1.04368,0 -1.88976,0.84609 -1.88976,1.88976 v 44.59844 c 0,1.04368 0.84608,1.88976 1.88976,1.88976 h 54.80315 c 1.04369,0 1.88977,-0.84607 1.88977,-1.88976 v -44.59844 c 0,-1.04369 -0.84608,-1.88976 -1.88977,-1.88976 z"
     style="display:inline;fill:none;stroke:#ff0000;stroke-width:0.132283;stroke-dasharray:none;stroke-opacity:1"
     id="path224-6-9"
     sodipodi:nodetypes="cssccsscc" /><path
     d="m 52.129292,494.50055 c -1.04369,0 -1.88976,0.84607 -1.88977,1.88976 v 44.59843 c 10e-6,1.04369 0.84608,1.88976 1.88977,1.88976 h 54.803148 c 1.04368,0 1.88976,-0.84608 1.88976,-1.88976 v -44.59843 c 0,-1.04368 -0.84608,-1.88976 -1.88976,-1.88976 z"
     style="display:inline;fill:none;stroke:#ff0000;stroke-width:0.132283;stroke-dasharray:none;stroke-opacity:1"
     id="path225-5-9"
     sodipodi:nodetypes="sssscsscs" /><path
     d="m 196.06923,404.49964 c -1.04368,0 -1.88976,0.84608 -1.88976,1.88976 v 44.59843 c 0,1.04368 0.84608,1.88977 1.88976,1.88977 h 54.80315 c 1.04369,0 1.88977,-0.84608 1.88977,-1.88977 V 406.3894 c 0,-1.04368 -0.84608,-1.88976 -1.88977,-1.88976 z"
     style="display:inline;fill:none;stroke:#ff0000;stroke-width:0.132283;stroke-dasharray:none;stroke-opacity:1"
     id="path226-7-1"
     sodipodi:nodetypes="cssccsscc" /><path
     d="m 124.12929,494.50056 c -1.04369,0 -1.88977,0.84607 -1.88977,1.88976 v 44.59843 c 0,1.04369 0.84608,1.88976 1.88977,1.88976 h 54.80315 c 1.04368,0 1.88976,-0.84608 1.88976,-1.88976 v -44.59843 c 0,-1.04368 -0.84608,-1.88976 -1.88976,-1.88976 z"
     style="display:inline;fill:none;stroke:#ff0000;stroke-width:0.132283;stroke-dasharray:none;stroke-opacity:1"
     id="path227-3-7"
     sodipodi:nodetypes="csscssscc" /><path
     d="m 178.93244,614.87852 h -54.80315 c -1.04369,0 -1.88977,-0.84607 -1.88977,-1.88976 v -44.59843 c 0,-1.04369 0.84608,-1.88976 1.88977,-1.88976 h 54.80315 c 1.04368,0 1.88976,0.84608 1.88976,1.88976 v 44.59843 c 0,1.04368 -0.84608,1.88976 -1.88976,1.88976 z"
     style="display:inline;fill:none;stroke:#ff0000;stroke-width:0.132283;stroke-dasharray:none;stroke-opacity:1"
     id="path228-4-2"
     sodipodi:nodetypes="scsscssss" /><path
     d="m 268.06923,395.49956 c -1.04368,0 -1.88976,0.84608 -1.88976,1.88976 v 44.59843 c 0,1.04368 0.84608,1.88976 1.88976,1.88976 h 54.80315 c 1.04369,0 1.88977,-0.84607 1.88977,-1.88976 v -44.59842 c 0,-1.0437 -0.84608,-1.88977 -1.88977,-1.88977 z"
     style="display:inline;fill:none;stroke:#ff0000;stroke-width:0.132283;stroke-dasharray:none;stroke-opacity:1"
     id="path229-3-3"
     sodipodi:nodetypes="cssccsscc" /><path
     d="m 196.1293,476.50055 c -1.04369,0 -1.88977,0.84608 -1.88977,1.88977 v 44.59842 c 0,1.04369 0.84608,1.88976 1.88977,1.88976 h 54.80315 c 1.04368,0 1.88976,-0.84608 1.88976,-1.88976 v -44.59842 c 0,-1.04369 -0.84607,-1.88977 -1.88976,-1.88977 z"
     style="display:inline;fill:none;stroke:#ff0000;stroke-width:0.132283;stroke-dasharray:none;stroke-opacity:1"
     id="path230-0-6"
     sodipodi:nodetypes="ccscssccc" /><path
     d="m 250.93244,596.87851 h -54.80315 c -1.04368,0 -1.88976,-0.84608 -1.88976,-1.88976 v -44.59843 c 0,-1.04368 0.84608,-1.88976 1.88976,-1.88976 h 54.80315 c 1.04368,0 1.88976,0.84608 1.88976,1.88976 v 44.59843 c 0,1.04368 -0.84608,1.88976 -1.88976,1.88976 z"
     style="display:inline;fill:none;stroke:#ff0000;stroke-width:0.132283;stroke-dasharray:none;stroke-opacity:1"
     id="path231-4-5"
     sodipodi:nodetypes="sssssssss" /><path
     d="m 324.82221,469.39032 v 44.59842 c 0,1.04368 -0.84608,1.88976 -1.88976,1.88976 H 268.1293 c -1.04369,0 -1.88977,-0.84607 -1.88977,-1.88976 v -44.59842 c 0,-1.04369 0.84608,-1.88977 1.88977,-1.88977 h 54.80315 c 1.04369,0 1.88976,0.84608 1.88976,1.88977 z"
     style="display:inline;fill:none;stroke:#ff0000;stroke-width:0.132283;stroke-dasharray:none;stroke-opacity:1"
     id="path232-8-5"
     sodipodi:nodetypes="csscsccsc" /><path
     d="m 340.11885,476.47985 c -1.04369,0 -1.88976,0.84608 -1.88976,1.88977 v 44.59842 c 0,1.04368 0.84608,1.88976 1.88976,1.88976 H 394.922 c 1.04368,0 1.88976,-0.84608 1.88976,-1.88976 v -44.59842 c 0,-1.04369 -0.84607,-1.88977 -1.88976,-1.88977 z"
     style="display:inline;fill:none;stroke:#ff0000;stroke-width:0.132283;stroke-dasharray:none;stroke-opacity:1"
     id="path233-7-8"
     sodipodi:nodetypes="scsssscss" /><path
     d="m 468.76215,559.38986 v 44.59842 c 0,1.04369 -0.84608,1.88977 -1.88977,1.88977 h -54.80315 c -1.04369,0 -1.88976,-0.84608 -1.88976,-1.88977 v -44.59842 c 0,-1.04369 0.84607,-1.88977 1.88976,-1.88977 h 54.80315 c 1.04369,0 1.88977,0.84608 1.88977,1.88977 z"
     style="display:inline;fill:none;stroke:#ff0000;stroke-width:0.132283;stroke-dasharray:none;stroke-opacity:1"
     id="path234-5-1"
     sodipodi:nodetypes="sscsssscs" /><path
     d="m 266.23953,585.98874 v -44.59842 c 0,-1.04369 0.84608,-1.88977 1.88977,-1.88977 h 54.80315 c 1.04369,0 1.88976,0.84608 1.88976,1.88977 v 44.59842 c 0,1.04368 -0.84608,1.88976 -1.88976,1.88976 H 268.1293 c -1.04369,0 -1.88977,-0.84607 -1.88977,-1.88976 z"
     style="display:inline;fill:none;stroke:#ff0000;stroke-width:0.132283;stroke-dasharray:none;stroke-opacity:1"
     id="path235-9-4"
     sodipodi:nodetypes="sccscsscs" /><path
     d="m 338.17947,450.98232 v -44.59841 c 0,-1.04368 0.84608,-1.88977 1.88976,-1.88977 h 54.80315 c 1.04369,0 1.88977,0.84607 1.88977,1.88977 v 44.59841 c 0,1.0437 -0.84608,1.88977 -1.88977,1.88977 h -54.80315 c -1.04369,0 -1.88976,-0.84607 -1.88976,-1.88977 z"
     style="display:inline;fill:none;stroke:#ff0000;stroke-width:0.132283;stroke-dasharray:none;stroke-opacity:1"
     id="path236-5-7"
     sodipodi:nodetypes="csccsccsc" /><path
     d="m 412.12533,485.50252 h 54.80315 c 1.04368,0 1.88976,0.84608 1.88976,1.88976 v 44.59843 c 0,1.04368 -0.84608,1.88976 -1.88976,1.88976 h -54.80315 c -1.04368,0 -1.88976,-0.84608 -1.88976,-1.88976 v -44.59843 c 0,-1.04368 0.84608,-1.88976 1.88976,-1.88976 z"
     style="display:inline;fill:none;stroke:#ff0000;stroke-width:0.132283;stroke-dasharray:none;stroke-opacity:1"
     id="path237-3-1"
     sodipodi:nodetypes="sssssssss" /><path
     d="m 466.87238,461.88423 h -54.80315 c -1.04368,0 -1.88976,-0.84608 -1.88976,-1.88976 v -44.59843 c 0,-1.04369 0.84607,-1.88977 1.88976,-1.88977 h 54.80315 c 1.04369,0 1.88977,0.84608 1.88977,1.88977 v 44.59843 c 0,1.04369 -0.84608,1.88976 -1.88977,1.88976 z"
     style="display:inline;fill:none;stroke:#ff0000;stroke-width:0.132283;stroke-dasharray:none;stroke-opacity:1"
     id="path238-2-3"
     sodipodi:nodetypes="csscsccsc" /><path
     d="m 338.2393,594.98873 c 0,1.04369 0.84608,1.88977 1.88977,1.88977 h 54.80315 c 1.04369,0 1.88976,-0.84608 1.88976,-1.88977 v -44.59842 c 0,-1.04369 -0.84607,-1.88977 -1.88976,-1.88977 h -54.80315 c -1.04369,0 -1.88977,0.84608 -1.88977,1.88977 z"
     style="display:inline;fill:none;stroke:#ff0000;stroke-width:0.132283;stroke-dasharray:none;stroke-opacity:1"
     id="path239-7-8"
     sodipodi:nodetypes="ccssssccc" /><path
     d="m 482.23953,567.98874 c 0,1.04369 0.84608,1.88976 1.88977,1.88976 h 54.80315 c 1.04368,0 1.88976,-0.84608 1.88976,-1.88976 v -44.59842 c 0,-1.04369 -0.84607,-1.88977 -1.88976,-1.88977 H 484.1293 c -1.04369,0 -1.88977,0.84608 -1.88977,1.88977 z"
     style="display:inline;fill:none;stroke:#ff0000;stroke-width:0.132283;stroke-dasharray:none;stroke-opacity:1"
     id="path240-3-4"
     sodipodi:nodetypes="scsssscss" /><path
     d="m 482.23953,495.98874 c 0,1.04369 0.84608,1.88976 1.88977,1.88976 h 54.80315 c 1.04368,0 1.88976,-0.84608 1.88976,-1.88976 v -44.59843 c 0,-1.04369 -0.84607,-1.88977 -1.88976,-1.88977 H 484.1293 c -1.04369,0 -1.88977,0.84608 -1.88977,1.88977 z"
     style="display:inline;fill:none;stroke:#ff0000;stroke-width:0.132283;stroke-dasharray:none;stroke-opacity:1"
     id="path241-9-8"
     sodipodi:nodetypes="scssssccs" /><path
     d="m 302.2393,675.98828 v -44.59842 c 0,-1.04369 0.84608,-1.88977 1.88977,-1.88977 h 54.80315 c 1.04369,0 1.88976,0.84608 1.88976,1.88977 v 44.59842 c 0,1.04369 -0.84607,1.88977 -1.88976,1.88977 h -54.80315 c -1.04369,0 -1.88977,-0.84608 -1.88977,-1.88977 z"
     style="display:inline;fill:none;stroke:#ff0000;stroke-width:0.132283;stroke-dasharray:none;stroke-opacity:1"
     id="path242-7-0"
     sodipodi:nodetypes="sscsssscs" /><path
     d="m 388.39542,632.58128 53.61747,11.33807 c 1.02111,0.21593 1.67384,1.21874 1.45791,2.23985 l -9.22684,43.63353 c -0.21593,1.02111 -1.21874,1.67384 -2.23985,1.45791 l -53.61747,-11.33808 c -1.0211,-0.21593 -1.67383,-1.21873 -1.45791,-2.23984 l 9.22685,-43.63353 c 0.21593,-1.0211 1.21873,-1.67383 2.23984,-1.45791 z"
     style="display:inline;fill:none;stroke:#ff0000;stroke-width:0.132283;stroke-dasharray:none;stroke-opacity:1"
     id="path243-7-4"
     sodipodi:nodetypes="csssssssc" /><path
     d="m 501.28429,705.59284 c 0.95434,0.42251 2.0705,-0.009 2.49301,-0.96297 l 22.18554,-50.11175 c 0.42251,-0.95434 -0.009,-2.0705 -0.96297,-2.49301 l -40.78059,-18.05444 c -0.95434,-0.42251 -2.0705,0.009 -2.49301,0.96297 l -22.18554,50.11175 c -0.42251,0.95434 0.009,2.0705 0.96297,2.49301 z"
     style="display:inline;fill:none;stroke:#ff0000;stroke-width:0.132283;stroke-dasharray:none;stroke-opacity:1"
     id="path244-9-6"
     sodipodi:nodetypes="sssssssss" /><path
     d="m 411.24365,469.18204 c -0.003,-4.27724 -3.47079,-7.74321 -7.74803,-7.74321 -4.27724,0 -7.74537,3.46597 -7.74803,7.74321 0.003,4.27724 3.47079,7.74321 7.74803,7.74321 4.27724,0 7.74537,-3.46597 7.74803,-7.74321 z"
     style="display:inline;fill:none;stroke:#ff0000;stroke-width:0.132283;stroke-dasharray:none;stroke-opacity:1"
     id="path272-3-0"
     sodipodi:nodetypes="cscsc" /><path
     d="m 411.21884,617.68907 c -0.003,-4.27724 -3.47079,-7.74321 -7.74803,-7.74321 -4.27724,0 -7.74537,3.46597 -7.74803,7.74321 0.003,4.27724 3.47079,7.74321 7.74803,7.74321 4.27724,0 7.74537,-3.46597 7.74803,-7.74321 z"
     style="display:inline;fill:none;stroke:#ff0000;stroke-width:0.132283;stroke-dasharray:none;stroke-opacity:1"
     id="path273-3-3"
     sodipodi:nodetypes="cscsc" /><path
     d="m 123.2789,482.68953 c -0.003,-4.27724 -3.47079,-7.74321 -7.74804,-7.74321 -4.27724,0 -7.74537,3.46597 -7.74803,7.74321 0.003,4.27724 3.47079,7.74321 7.74803,7.74321 4.27725,0 7.74538,-3.46597 7.74804,-7.74321 z"
     style="display:inline;fill:none;stroke:#ff0000;stroke-width:0.132283;stroke-dasharray:none;stroke-opacity:1"
     id="path274-3-2"
     sodipodi:nodetypes="cscsc" /><path
     d="m 123.27891,554.68953 c 0,-4.27912 -3.46891,-7.74803 -7.74805,-7.74803 -4.27912,0 -7.74803,3.46891 -7.74803,7.74803 0,4.27912 3.46891,7.74803 7.74803,7.74803 4.27914,0 7.74805,-3.46891 7.74805,-7.74803 z"
     style="display:inline;fill:none;stroke:#ff0000;stroke-width:0.132283;stroke-dasharray:none;stroke-opacity:1"
     id="path275-8-6"
     sodipodi:nodetypes="sssss" /><path
     d="m 675.75131,207.44545 h 54.80315 c 1.04368,0 1.88976,0.84608 1.88976,1.88976 v 44.59843 c 0,1.04368 -0.84608,1.88976 -1.88976,1.88976 h -54.80315 c -1.04368,0 -1.88976,-0.84607 -1.88976,-1.88976 v -44.59843 c 0,-1.04369 0.84608,-1.88976 1.88976,-1.88976 z"
     style="display:inline;fill:none;stroke:#ff0000;stroke-width:0.132283;stroke-dasharray:none;stroke-opacity:1"
     id="path222-8-5"
     sodipodi:nodetypes="sssssssss" /><path
     d="M 673.86153,109.93296 V 65.334535 c 0,-1.04369 0.84608,-1.88977 1.88977,-1.88977 h 54.80315 c 1.04369,0 1.88976,0.84608 1.88976,1.88977 v 44.598425 c 0,1.04368 -0.84608,1.88976 -1.88976,1.88976 H 675.7513 c -1.04369,0 -1.88976,-0.84607 -1.88977,-1.88976 z"
     style="display:inline;fill:none;stroke:#ff0000;stroke-width:0.132283;stroke-dasharray:none;stroke-opacity:1"
     id="path223-0-3"
     sodipodi:nodetypes="scsccscss" /><path
     d="m 747.69126,63.443945 c -1.04368,0 -1.88976,0.84608 -1.88976,1.88976 v 44.598435 c 0,1.04368 0.84608,1.88976 1.88976,1.88976 h 54.80315 c 1.04369,0 1.88977,-0.84607 1.88977,-1.88976 V 65.333705 c 0,-1.04369 -0.84608,-1.88976 -1.88977,-1.88976 z"
     style="display:inline;fill:none;stroke:#ff0000;stroke-width:0.132283;stroke-dasharray:none;stroke-opacity:1"
     id="path224-6-5"
     sodipodi:nodetypes="cssccsscc" /><path
     d="m 675.75132,135.44544 c -1.04369,0 -1.88976,0.84607 -1.88977,1.88976 v 44.59843 c 1e-5,1.04369 0.84608,1.88976 1.88977,1.88976 h 54.80315 c 1.04368,0 1.88976,-0.84608 1.88976,-1.88976 V 137.3352 c 0,-1.04368 -0.84608,-1.88976 -1.88976,-1.88976 z"
     style="display:inline;fill:none;stroke:#ff0000;stroke-width:0.132283;stroke-dasharray:none;stroke-opacity:1"
     id="path225-5-4"
     sodipodi:nodetypes="sssscsscs" /><path
     d="m 819.69126,45.444535 c -1.04368,0 -1.88976,0.84608 -1.88976,1.88976 v 44.59843 c 0,1.04368 0.84608,1.88976 1.88976,1.88976 h 54.80315 c 1.04369,0 1.88977,-0.84607 1.88977,-1.88976 v -44.59843 c 0,-1.04369 -0.84608,-1.88976 -1.88977,-1.88976 z"
     style="display:inline;fill:none;stroke:#ff0000;stroke-width:0.132283;stroke-dasharray:none;stroke-opacity:1"
     id="path226-7-3"
     sodipodi:nodetypes="cssccsscc" /><path
     d="m 747.75132,135.44545 c -1.04369,0 -1.88977,0.84607 -1.88977,1.88976 v 44.59843 c 0,1.04369 0.84608,1.88976 1.88977,1.88976 h 54.80315 c 1.04368,0 1.88976,-0.84608 1.88976,-1.88976 v -44.59843 c 0,-1.04368 -0.84608,-1.88976 -1.88976,-1.88976 z"
     style="display:inline;fill:none;stroke:#ff0000;stroke-width:0.132283;stroke-dasharray:none;stroke-opacity:1"
     id="path227-3-6"
     sodipodi:nodetypes="csscssscc" /><path
     d="m 802.55447,255.82341 h -54.80315 c -1.04369,0 -1.88977,-0.84607 -1.88977,-1.88976 v -44.59843 c 0,-1.04369 0.84608,-1.88976 1.88977,-1.88976 h 54.80315 c 1.04368,0 1.88976,0.84608 1.88976,1.88976 v 44.59843 c 0,1.04368 -0.84608,1.88976 -1.88976,1.88976 z"
     style="display:inline;fill:none;stroke:#ff0000;stroke-width:0.132283;stroke-dasharray:none;stroke-opacity:1"
     id="path228-4-5"
     sodipodi:nodetypes="scsscssss" /><path
     d="m 891.69126,36.444455 c -1.04368,0 -1.88976,0.84608 -1.88976,1.88976 v 44.59843 c 0,1.04368 0.84608,1.88976 1.88976,1.88976 h 54.80315 c 1.04369,0 1.88977,-0.84607 1.88977,-1.88976 v -44.59843 c 0,-1.04369 -0.84608,-1.88976 -1.88977,-1.88976 z"
     style="display:inline;fill:none;stroke:#ff0000;stroke-width:0.132283;stroke-dasharray:none;stroke-opacity:1"
     id="path229-3-9"
     sodipodi:nodetypes="cssccsscc" /><path
     d="m 819.75133,117.44544 c -1.04369,0 -1.88977,0.84608 -1.88977,1.88977 v 44.59842 c 0,1.04369 0.84608,1.88976 1.88977,1.88976 h 54.80315 c 1.04368,0 1.88976,-0.84608 1.88976,-1.88976 v -44.59842 c 0,-1.04369 -0.84607,-1.88977 -1.88976,-1.88977 z"
     style="display:inline;fill:none;stroke:#ff0000;stroke-width:0.132283;stroke-dasharray:none;stroke-opacity:1"
     id="path230-0-5"
     sodipodi:nodetypes="ccscssccc" /><path
     d="m 874.55447,237.8234 h -54.80315 c -1.04368,0 -1.88976,-0.84608 -1.88976,-1.88976 v -44.59843 c 0,-1.04368 0.84608,-1.88976 1.88976,-1.88976 h 54.80315 c 1.04368,0 1.88976,0.84608 1.88976,1.88976 v 44.59843 c 0,1.04368 -0.84608,1.88976 -1.88976,1.88976 z"
     style="display:inline;fill:none;stroke:#ff0000;stroke-width:0.132283;stroke-dasharray:none;stroke-opacity:1"
     id="path231-4-4"
     sodipodi:nodetypes="sssssssss" /><path
     d="m 948.44424,110.33521 v 44.59842 c 0,1.04368 -0.84608,1.88976 -1.88976,1.88976 h -54.80315 c -1.04369,0 -1.88977,-0.84607 -1.88977,-1.88976 v -44.59842 c 0,-1.04369 0.84608,-1.88977 1.88977,-1.88977 h 54.80315 c 1.04369,0 1.88976,0.84608 1.88976,1.88977 z"
     style="display:inline;fill:none;stroke:#ff0000;stroke-width:0.132283;stroke-dasharray:none;stroke-opacity:1"
     id="path232-8-9"
     sodipodi:nodetypes="csscsccsc" /><path
     d="m 963.74088,117.42474 c -1.04369,0 -1.88976,0.84608 -1.88976,1.88977 v 44.59842 c 0,1.04368 0.84608,1.88976 1.88976,1.88976 h 54.80312 c 1.0437,0 1.8898,-0.84608 1.8898,-1.88976 v -44.59842 c 0,-1.04369 -0.8461,-1.88977 -1.8898,-1.88977 z"
     style="display:inline;fill:none;stroke:#ff0000;stroke-width:0.132283;stroke-dasharray:none;stroke-opacity:1"
     id="path233-7-1"
     sodipodi:nodetypes="scsssscss" /><path
     d="m 1092.3842,200.33475 v 44.59842 c 0,1.04369 -0.8461,1.88977 -1.8898,1.88977 h -54.8031 c -1.0437,0 -1.8898,-0.84608 -1.8898,-1.88977 v -44.59842 c 0,-1.04369 0.8461,-1.88977 1.8898,-1.88977 h 54.8031 c 1.0437,0 1.8898,0.84608 1.8898,1.88977 z"
     style="display:inline;fill:none;stroke:#ff0000;stroke-width:0.132283;stroke-dasharray:none;stroke-opacity:1"
     id="path234-5-7"
     sodipodi:nodetypes="sscsssscs" /><path
     d="m 889.86156,226.93363 v -44.59842 c 0,-1.04369 0.84608,-1.88977 1.88977,-1.88977 h 54.80315 c 1.04369,0 1.88976,0.84608 1.88976,1.88977 v 44.59842 c 0,1.04368 -0.84608,1.88976 -1.88976,1.88976 h -54.80315 c -1.04369,0 -1.88977,-0.84607 -1.88977,-1.88976 z"
     style="display:inline;fill:none;stroke:#ff0000;stroke-width:0.132283;stroke-dasharray:none;stroke-opacity:1"
     id="path235-9-5"
     sodipodi:nodetypes="sccscsscs" /><path
     d="m 961.8015,91.927215 v -44.59842 c 0,-1.04368 0.84608,-1.88976 1.88976,-1.88976 h 54.80314 c 1.0437,0 1.8898,0.84607 1.8898,1.88976 v 44.59842 c 0,1.04369 -0.8461,1.88977 -1.8898,1.88977 h -54.80314 c -1.04369,0 -1.88976,-0.84608 -1.88976,-1.88977 z"
     style="display:inline;fill:none;stroke:#ff0000;stroke-width:0.132283;stroke-dasharray:none;stroke-opacity:1"
     id="path236-5-5"
     sodipodi:nodetypes="csccsccsc" /><path
     d="m 1035.7474,126.44741 h 54.8031 c 1.0437,0 1.8898,0.84608 1.8898,1.88976 v 44.59843 c 0,1.04368 -0.8461,1.88976 -1.8898,1.88976 h -54.8031 c -1.0437,0 -1.8898,-0.84608 -1.8898,-1.88976 v -44.59843 c 0,-1.04368 0.8461,-1.88976 1.8898,-1.88976 z"
     style="display:inline;fill:none;stroke:#ff0000;stroke-width:0.132283;stroke-dasharray:none;stroke-opacity:1"
     id="path237-3-4"
     sodipodi:nodetypes="sssssssss" /><path
     d="m 1090.4944,102.82912 h -54.8031 c -1.0437,0 -1.8898,-0.84608 -1.8898,-1.88976 V 56.340935 c 0,-1.04369 0.8461,-1.88977 1.8898,-1.88977 h 54.8031 c 1.0437,0 1.8898,0.84608 1.8898,1.88977 v 44.598425 c 0,1.04369 -0.8461,1.88976 -1.8898,1.88976 z"
     style="display:inline;fill:none;stroke:#ff0000;stroke-width:0.132283;stroke-dasharray:none;stroke-opacity:1"
     id="path238-2-1"
     sodipodi:nodetypes="csscsccsc" /><path
     d="m 961.86133,235.93362 c 0,1.04369 0.84608,1.88977 1.88977,1.88977 h 54.8032 c 1.0436,0 1.8897,-0.84608 1.8897,-1.88977 V 191.3352 c 0,-1.04369 -0.8461,-1.88977 -1.8897,-1.88977 h -54.8032 c -1.04369,0 -1.88977,0.84608 -1.88977,1.88977 z"
     style="display:inline;fill:none;stroke:#ff0000;stroke-width:0.132283;stroke-dasharray:none;stroke-opacity:1"
     id="path239-7-88"
     sodipodi:nodetypes="ccssssccc" /><path
     d="m 925.86133,316.93317 v -44.59842 c 0,-1.04369 0.84608,-1.88977 1.88977,-1.88977 h 54.80315 c 1.04369,0 1.88976,0.84608 1.88976,1.88977 v 44.59842 c 0,1.04369 -0.84607,1.88977 -1.88976,1.88977 H 927.7511 c -1.04369,0 -1.88977,-0.84608 -1.88977,-1.88977 z"
     style="display:inline;fill:none;stroke:#ff0000;stroke-width:0.132283;stroke-dasharray:none;stroke-opacity:1"
     id="path242-7-2"
     sodipodi:nodetypes="sscsssscs" /><path
     d="m 1012.0175,273.52617 53.6174,11.33807 c 1.0211,0.21593 1.6739,1.21874 1.4579,2.23985 l -9.2268,43.63353 c -0.2159,1.02111 -1.2187,1.67384 -2.2399,1.45791 l -53.6174,-11.33808 c -1.0211,-0.21593 -1.6739,-1.21873 -1.4579,-2.23984 l 9.2268,-43.63353 c 0.2159,-1.0211 1.2187,-1.67383 2.2399,-1.45791 z"
     style="display:inline;fill:none;stroke:#ff0000;stroke-width:0.132283;stroke-dasharray:none;stroke-opacity:1"
     id="path243-7-2"
     sodipodi:nodetypes="csssssssc" /><path
     d="m 1124.9063,346.53773 c 0.9544,0.42251 2.0705,-0.009 2.493,-0.96297 l 22.1855,-50.11175 c 0.4226,-0.95434 -0.01,-2.0705 -0.9629,-2.49301 l -40.7806,-18.05444 c -0.9543,-0.42251 -2.0705,0.009 -2.493,0.96297 l -22.1855,50.11175 c -0.4225,0.95434 0.01,2.0705 0.9629,2.49301 z"
     style="display:inline;fill:none;stroke:#ff0000;stroke-width:0.132283;stroke-dasharray:none;stroke-opacity:1"
     id="path244-9-66"
     sodipodi:nodetypes="sssssssss" /><path
     d="m 1034.8657,110.12693 c 0,-4.27724 -3.4708,-7.74321 -7.748,-7.74321 -4.2773,0 -7.7454,3.46597 -7.7481,7.74321 0,4.27724 3.4708,7.74321 7.7481,7.74321 4.2772,0 7.7453,-3.46597 7.748,-7.74321 z"
     style="display:inline;fill:none;stroke:#ff0000;stroke-width:0.132283;stroke-dasharray:none;stroke-opacity:1"
     id="path272-3-7"
     sodipodi:nodetypes="cscsc" /><path
     d="m 1034.8409,258.63396 c 0,-4.27724 -3.4708,-7.74321 -7.7481,-7.74321 -4.2772,0 -7.7453,3.46597 -7.748,7.74321 0,4.27724 3.4708,7.74321 7.748,7.74321 4.2773,0 7.7454,-3.46597 7.7481,-7.74321 z"
     style="display:inline;fill:none;stroke:#ff0000;stroke-width:0.132283;stroke-dasharray:none;stroke-opacity:1"
     id="path273-3-8"
     sodipodi:nodetypes="cscsc" /><path
     d="m 746.90093,123.63442 c -0.003,-4.27724 -3.47079,-7.74321 -7.74804,-7.74321 -4.27724,0 -7.74537,3.46597 -7.74803,7.74321 0.003,4.27724 3.47079,7.74321 7.74803,7.74321 4.27725,0 7.74538,-3.46597 7.74804,-7.74321 z"
     style="display:inline;fill:none;stroke:#ff0000;stroke-width:0.132283;stroke-dasharray:none;stroke-opacity:1"
     id="path274-3-4"
     sodipodi:nodetypes="cscsc" /><path
     d="m 746.90094,195.63442 c 0,-4.27912 -3.46891,-7.74803 -7.74805,-7.74803 -4.27912,0 -7.74803,3.46891 -7.74803,7.74803 0,4.27912 3.46891,7.74803 7.74803,7.74803 4.27914,0 7.74805,-3.46891 7.74805,-7.74803 z"
     style="display:inline;fill:none;stroke:#ff0000;stroke-width:0.132283;stroke-dasharray:none;stroke-opacity:1"
     id="path275-8-1"
     sodipodi:nodetypes="sssss" /><path
     d="m 675.75131,566.50056 h 54.80315 c 1.04368,0 1.88976,0.84608 1.88976,1.88976 v 44.59843 c 0,1.04368 -0.84608,1.88976 -1.88976,1.88976 h -54.80315 c -1.04368,0 -1.88976,-0.84607 -1.88976,-1.88976 v -44.59843 c 0,-1.04369 0.84608,-1.88976 1.88976,-1.88976 z"
     style="display:inline;fill:none;stroke:#ff0000;stroke-width:0.132283;stroke-dasharray:none;stroke-opacity:1"
     id="path222-8-3-1"
     sodipodi:nodetypes="sssssssss" /><path
     d="m 673.86153,468.98807 v -44.59842 c 0,-1.0437 0.84608,-1.88977 1.88977,-1.88977 h 54.80315 c 1.04369,0 1.88976,0.84607 1.88976,1.88977 v 44.59842 c 0,1.04368 -0.84608,1.88976 -1.88976,1.88976 H 675.7513 c -1.04369,0 -1.88976,-0.84607 -1.88977,-1.88976 z"
     style="display:inline;fill:none;stroke:#ff0000;stroke-width:0.132283;stroke-dasharray:none;stroke-opacity:1"
     id="path223-0-9-8"
     sodipodi:nodetypes="scsccscss" /><path
     d="m 747.69126,422.49905 c -1.04368,0 -1.88976,0.84609 -1.88976,1.88976 v 44.59844 c 0,1.04368 0.84608,1.88976 1.88976,1.88976 h 54.80315 c 1.04369,0 1.88977,-0.84607 1.88977,-1.88976 v -44.59844 c 0,-1.04369 -0.84608,-1.88976 -1.88977,-1.88976 z"
     style="display:inline;fill:none;stroke:#ff0000;stroke-width:0.132283;stroke-dasharray:none;stroke-opacity:1"
     id="path224-6-9-7"
     sodipodi:nodetypes="cssccsscc" /><path
     d="m 675.75132,494.50055 c -1.04369,0 -1.88976,0.84607 -1.88977,1.88976 v 44.59843 c 1e-5,1.04369 0.84608,1.88976 1.88977,1.88976 h 54.80315 c 1.04368,0 1.88976,-0.84608 1.88976,-1.88976 v -44.59843 c 0,-1.04368 -0.84608,-1.88976 -1.88976,-1.88976 z"
     style="display:inline;fill:none;stroke:#ff0000;stroke-width:0.132283;stroke-dasharray:none;stroke-opacity:1"
     id="path225-5-9-8"
     sodipodi:nodetypes="sssscsscs" /><path
     d="m 819.69126,404.49964 c -1.04368,0 -1.88976,0.84608 -1.88976,1.88976 v 44.59843 c 0,1.04368 0.84608,1.88977 1.88976,1.88977 h 54.80315 c 1.04369,0 1.88977,-0.84608 1.88977,-1.88977 V 406.3894 c 0,-1.04368 -0.84608,-1.88976 -1.88977,-1.88976 z"
     style="display:inline;fill:none;stroke:#ff0000;stroke-width:0.132283;stroke-dasharray:none;stroke-opacity:1"
     id="path226-7-1-7"
     sodipodi:nodetypes="cssccsscc" /><path
     d="m 747.75132,494.50056 c -1.04369,0 -1.88977,0.84607 -1.88977,1.88976 v 44.59843 c 0,1.04369 0.84608,1.88976 1.88977,1.88976 h 54.80315 c 1.04368,0 1.88976,-0.84608 1.88976,-1.88976 v -44.59843 c 0,-1.04368 -0.84608,-1.88976 -1.88976,-1.88976 z"
     style="display:inline;fill:none;stroke:#ff0000;stroke-width:0.132283;stroke-dasharray:none;stroke-opacity:1"
     id="path227-3-7-7"
     sodipodi:nodetypes="csscssscc" /><path
     d="m 802.55447,614.87852 h -54.80315 c -1.04369,0 -1.88977,-0.84607 -1.88977,-1.88976 v -44.59843 c 0,-1.04369 0.84608,-1.88976 1.88977,-1.88976 h 54.80315 c 1.04368,0 1.88976,0.84608 1.88976,1.88976 v 44.59843 c 0,1.04368 -0.84608,1.88976 -1.88976,1.88976 z"
     style="display:inline;fill:none;stroke:#ff0000;stroke-width:0.132283;stroke-dasharray:none;stroke-opacity:1"
     id="path228-4-2-4"
     sodipodi:nodetypes="scsscssss" /><path
     d="m 891.69126,395.49956 c -1.04368,0 -1.88976,0.84608 -1.88976,1.88976 v 44.59843 c 0,1.04368 0.84608,1.88976 1.88976,1.88976 h 54.80315 c 1.04369,0 1.88977,-0.84607 1.88977,-1.88976 v -44.59842 c 0,-1.0437 -0.84608,-1.88977 -1.88977,-1.88977 z"
     style="display:inline;fill:none;stroke:#ff0000;stroke-width:0.132283;stroke-dasharray:none;stroke-opacity:1"
     id="path229-3-3-4"
     sodipodi:nodetypes="cssccsscc" /><path
     d="m 819.75133,476.50055 c -1.04369,0 -1.88977,0.84608 -1.88977,1.88977 v 44.59842 c 0,1.04369 0.84608,1.88976 1.88977,1.88976 h 54.80315 c 1.04368,0 1.88976,-0.84608 1.88976,-1.88976 v -44.59842 c 0,-1.04369 -0.84607,-1.88977 -1.88976,-1.88977 z"
     style="display:inline;fill:none;stroke:#ff0000;stroke-width:0.132283;stroke-dasharray:none;stroke-opacity:1"
     id="path230-0-6-9"
     sodipodi:nodetypes="ccscssccc" /><path
     d="m 874.55447,596.87851 h -54.80315 c -1.04368,0 -1.88976,-0.84608 -1.88976,-1.88976 v -44.59843 c 0,-1.04368 0.84608,-1.88976 1.88976,-1.88976 h 54.80315 c 1.04368,0 1.88976,0.84608 1.88976,1.88976 v 44.59843 c 0,1.04368 -0.84608,1.88976 -1.88976,1.88976 z"
     style="display:inline;fill:none;stroke:#ff0000;stroke-width:0.132283;stroke-dasharray:none;stroke-opacity:1"
     id="path231-4-5-1"
     sodipodi:nodetypes="sssssssss" /><path
     d="m 948.44424,469.39032 v 44.59842 c 0,1.04368 -0.84608,1.88976 -1.88976,1.88976 h -54.80315 c -1.04369,0 -1.88977,-0.84607 -1.88977,-1.88976 v -44.59842 c 0,-1.04369 0.84608,-1.88977 1.88977,-1.88977 h 54.80315 c 1.04369,0 1.88976,0.84608 1.88976,1.88977 z"
     style="display:inline;fill:none;stroke:#ff0000;stroke-width:0.132283;stroke-dasharray:none;stroke-opacity:1"
     id="path232-8-5-5"
     sodipodi:nodetypes="csscsccsc" /><path
     d="m 963.74088,476.47985 c -1.04369,0 -1.88976,0.84608 -1.88976,1.88977 v 44.59842 c 0,1.04368 0.84608,1.88976 1.88976,1.88976 h 54.80312 c 1.0437,0 1.8898,-0.84608 1.8898,-1.88976 v -44.59842 c 0,-1.04369 -0.8461,-1.88977 -1.8898,-1.88977 z"
     style="display:inline;fill:none;stroke:#ff0000;stroke-width:0.132283;stroke-dasharray:none;stroke-opacity:1"
     id="path233-7-8-5"
     sodipodi:nodetypes="scsssscss" /><path
     d="m 1092.3842,559.38986 v 44.59842 c 0,1.04369 -0.8461,1.88977 -1.8898,1.88977 h -54.8031 c -1.0437,0 -1.8898,-0.84608 -1.8898,-1.88977 v -44.59842 c 0,-1.04369 0.8461,-1.88977 1.8898,-1.88977 h 54.8031 c 1.0437,0 1.8898,0.84608 1.8898,1.88977 z"
     style="display:inline;fill:none;stroke:#ff0000;stroke-width:0.132283;stroke-dasharray:none;stroke-opacity:1"
     id="path234-5-1-5"
     sodipodi:nodetypes="sscsssscs" /><path
     d="m 889.86156,585.98874 v -44.59842 c 0,-1.04369 0.84608,-1.88977 1.88977,-1.88977 h 54.80315 c 1.04369,0 1.88976,0.84608 1.88976,1.88977 v 44.59842 c 0,1.04368 -0.84608,1.88976 -1.88976,1.88976 h -54.80315 c -1.04369,0 -1.88977,-0.84607 -1.88977,-1.88976 z"
     style="display:inline;fill:none;stroke:#ff0000;stroke-width:0.132283;stroke-dasharray:none;stroke-opacity:1"
     id="path235-9-4-8"
     sodipodi:nodetypes="sccscsscs" /><path
     d="m 961.8015,450.98232 v -44.59841 c 0,-1.04368 0.84608,-1.88977 1.88976,-1.88977 h 54.80314 c 1.0437,0 1.8898,0.84607 1.8898,1.88977 v 44.59841 c 0,1.0437 -0.8461,1.88977 -1.8898,1.88977 h -54.80314 c -1.04369,0 -1.88976,-0.84607 -1.88976,-1.88977 z"
     style="display:inline;fill:none;stroke:#ff0000;stroke-width:0.132283;stroke-dasharray:none;stroke-opacity:1"
     id="path236-5-7-2"
     sodipodi:nodetypes="csccsccsc" /><path
     d="m 1035.7474,485.50252 h 54.8031 c 1.0437,0 1.8898,0.84608 1.8898,1.88976 v 44.59843 c 0,1.04368 -0.8461,1.88976 -1.8898,1.88976 h -54.8031 c -1.0437,0 -1.8898,-0.84608 -1.8898,-1.88976 v -44.59843 c 0,-1.04368 0.8461,-1.88976 1.8898,-1.88976 z"
     style="display:inline;fill:none;stroke:#ff0000;stroke-width:0.132283;stroke-dasharray:none;stroke-opacity:1"
     id="path237-3-1-9"
     sodipodi:nodetypes="sssssssss" /><path
     d="m 1090.4944,461.88423 h -54.8031 c -1.0437,0 -1.8898,-0.84608 -1.8898,-1.88976 v -44.59843 c 0,-1.04369 0.8461,-1.88977 1.8898,-1.88977 h 54.8031 c 1.0437,0 1.8898,0.84608 1.8898,1.88977 v 44.59843 c 0,1.04369 -0.8461,1.88976 -1.8898,1.88976 z"
     style="display:inline;fill:none;stroke:#ff0000;stroke-width:0.132283;stroke-dasharray:none;stroke-opacity:1"
     id="path238-2-3-8"
     sodipodi:nodetypes="csscsccsc" /><path
     d="m 961.86133,594.98873 c 0,1.04369 0.84608,1.88977 1.88977,1.88977 h 54.8032 c 1.0436,0 1.8897,-0.84608 1.8897,-1.88977 v -44.59842 c 0,-1.04369 -0.8461,-1.88977 -1.8897,-1.88977 h -54.8032 c -1.04369,0 -1.88977,0.84608 -1.88977,1.88977 z"
     style="display:inline;fill:none;stroke:#ff0000;stroke-width:0.132283;stroke-dasharray:none;stroke-opacity:1"
     id="path239-7-8-2"
     sodipodi:nodetypes="ccssssccc" /><path
     d="m 925.86133,675.98828 v -44.59842 c 0,-1.04369 0.84608,-1.88977 1.88977,-1.88977 h 54.80315 c 1.04369,0 1.88976,0.84608 1.88976,1.88977 v 44.59842 c 0,1.04369 -0.84607,1.88977 -1.88976,1.88977 H 927.7511 c -1.04369,0 -1.88977,-0.84608 -1.88977,-1.88977 z"
     style="display:inline;fill:none;stroke:#ff0000;stroke-width:0.132283;stroke-dasharray:none;stroke-opacity:1"
     id="path242-7-0-4"
     sodipodi:nodetypes="sscsssscs" /><path
     d="m 1012.0175,632.58128 53.6174,11.33807 c 1.0211,0.21593 1.6739,1.21874 1.4579,2.23985 l -9.2268,43.63353 c -0.2159,1.02111 -1.2187,1.67384 -2.2399,1.45791 l -53.6174,-11.33808 c -1.0211,-0.21593 -1.6739,-1.21873 -1.4579,-2.23984 l 9.2268,-43.63353 c 0.2159,-1.0211 1.2187,-1.67383 2.2399,-1.45791 z"
     style="display:inline;fill:none;stroke:#ff0000;stroke-width:0.132283;stroke-dasharray:none;stroke-opacity:1"
     id="path243-7-4-8"
     sodipodi:nodetypes="csssssssc" /><path
     d="m 1124.9063,705.59284 c 0.9544,0.42251 2.0705,-0.009 2.493,-0.96297 l 22.1855,-50.11175 c 0.4226,-0.95434 -0.01,-2.0705 -0.9629,-2.49301 l -40.7806,-18.05444 c -0.9543,-0.42251 -2.0705,0.009 -2.493,0.96297 l -22.1855,50.11175 c -0.4225,0.95434 0.01,2.0705 0.9629,2.49301 z"
     style="display:inline;fill:none;stroke:#ff0000;stroke-width:0.132283;stroke-dasharray:none;stroke-opacity:1"
     id="path244-9-6-5"
     sodipodi:nodetypes="sssssssss" /><path
     d="m 1034.8657,469.18204 c 0,-4.27724 -3.4708,-7.74321 -7.748,-7.74321 -4.2773,0 -7.7454,3.46597 -7.7481,7.74321 0,4.27724 3.4708,7.74321 7.7481,7.74321 4.2772,0 7.7453,-3.46597 7.748,-7.74321 z"
     style="display:inline;fill:none;stroke:#ff0000;stroke-width:0.132283;stroke-dasharray:none;stroke-opacity:1"
     id="path272-3-0-8"
     sodipodi:nodetypes="cscsc" /><path
     d="m 1034.8409,617.68907 c 0,-4.27724 -3.4708,-7.74321 -7.7481,-7.74321 -4.2772,0 -7.7453,3.46597 -7.748,7.74321 0,4.27724 3.4708,7.74321 7.748,7.74321 4.2773,0 7.7454,-3.46597 7.7481,-7.74321 z"
     style="display:inline;fill:none;stroke:#ff0000;stroke-width:0.132283;stroke-dasharray:none;stroke-opacity:1"
     id="path273-3-3-3"
     sodipodi:nodetypes="cscsc" /><path
     d="m 746.90093,482.68953 c -0.003,-4.27724 -3.47079,-7.74321 -7.74804,-7.74321 -4.27724,0 -7.74537,3.46597 -7.74803,7.74321 0.003,4.27724 3.47079,7.74321 7.74803,7.74321 4.27725,0 7.74538,-3.46597 7.74804,-7.74321 z"
     style="display:inline;fill:none;stroke:#ff0000;stroke-width:0.132283;stroke-dasharray:none;stroke-opacity:1"
     id="path274-3-2-0"
     sodipodi:nodetypes="cscsc" /><path
     d="m 746.90094,554.68953 c 0,-4.27912 -3.46891,-7.74803 -7.74805,-7.74803 -4.27912,0 -7.74803,3.46891 -7.74803,7.74803 0,4.27912 3.46891,7.74803 7.74803,7.74803 4.27914,0 7.74805,-3.46891 7.74805,-7.74803 z"
     style="display:inline;fill:none;stroke:#ff0000;stroke-width:0.132283;stroke-dasharray:none;stroke-opacity:1"
     id="path275-8-6-6"
     sodipodi:nodetypes="sssss" /><path
     d="m 1696.2834,110.12693 c 0,-4.27724 -3.4708,-7.74321 -7.7481,-7.74321 -4.2772,0 -7.7453,3.46597 -7.748,7.74321 0,4.27724 3.4708,7.74321 7.748,7.74321 4.2773,0 7.7454,-3.46597 7.7481,-7.74321 z"
     style="display:inline;fill:none;stroke:#ff0000;stroke-width:0.132283;stroke-dasharray:none;stroke-opacity:1"
     id="path272-3-6"
     sodipodi:nodetypes="cscsc" /><path
     d="m 1696.2585,258.63396 c 0,-4.27724 -3.4707,-7.74321 -7.748,-7.74321 -4.2772,0 -7.7454,3.46597 -7.748,7.74321 0,4.27724 3.4708,7.74321 7.748,7.74321 4.2773,0 7.7454,-3.46597 7.748,-7.74321 z"
     style="display:inline;fill:none;stroke:#ff0000;stroke-width:0.132283;stroke-dasharray:none;stroke-opacity:1"
     id="path273-3-4"
     sodipodi:nodetypes="cscsc" /><path
     d="m 1408.3186,123.63442 c 0,-4.27724 -3.4708,-7.74321 -7.748,-7.74321 -4.2773,0 -7.7454,3.46597 -7.7481,7.74321 0,4.27724 3.4708,7.74321 7.7481,7.74321 4.2772,0 7.7453,-3.46597 7.748,-7.74321 z"
     style="display:inline;fill:none;stroke:#ff0000;stroke-width:0.132283;stroke-dasharray:none;stroke-opacity:1"
     id="path274-3-6"
     sodipodi:nodetypes="cscsc" /><path
     d="m 1408.3186,195.63442 c 0,-4.27912 -3.4689,-7.74803 -7.748,-7.74803 -4.2792,0 -7.7481,3.46891 -7.7481,7.74803 0,4.27912 3.4689,7.74803 7.7481,7.74803 4.2791,0 7.748,-3.46891 7.748,-7.74803 z"
     style="display:inline;fill:none;stroke:#ff0000;stroke-width:0.132283;stroke-dasharray:none;stroke-opacity:1"
     id="path275-8-4"
     sodipodi:nodetypes="sssss" /><path
     d="m 1696.2834,469.18204 c 0,-4.27724 -3.4708,-7.74321 -7.7481,-7.74321 -4.2772,0 -7.7453,3.46597 -7.748,7.74321 0,4.27724 3.4708,7.74321 7.748,7.74321 4.2773,0 7.7454,-3.46597 7.7481,-7.74321 z"
     style="display:inline;fill:none;stroke:#ff0000;stroke-width:0.132283;stroke-dasharray:none;stroke-opacity:1"
     id="path272-3-0-1"
     sodipodi:nodetypes="cscsc" /><path
     d="m 1696.2585,617.68907 c 0,-4.27724 -3.4707,-7.74321 -7.748,-7.74321 -4.2772,0 -7.7454,3.46597 -7.748,7.74321 0,4.27724 3.4708,7.74321 7.748,7.74321 4.2773,0 7.7454,-3.46597 7.748,-7.74321 z"
     style="display:inline;fill:none;stroke:#ff0000;stroke-width:0.132283;stroke-dasharray:none;stroke-opacity:1"
     id="path273-3-3-9"
     sodipodi:nodetypes="cscsc" /><path
     d="m 1408.3186,482.68953 c 0,-4.27724 -3.4708,-7.74321 -7.748,-7.74321 -4.2773,0 -7.7454,3.46597 -7.7481,7.74321 0,4.27724 3.4708,7.74321 7.7481,7.74321 4.2772,0 7.7453,-3.46597 7.748,-7.74321 z"
     style="display:inline;fill:none;stroke:#ff0000;stroke-width:0.132283;stroke-dasharray:none;stroke-opacity:1"
     id="path274-3-2-2"
     sodipodi:nodetypes="cscsc" /><path
     d="m 1408.3186,554.68953 c 0,-4.27912 -3.4689,-7.74803 -7.748,-7.74803 -4.2792,0 -7.7481,3.46891 -7.7481,7.74803 0,4.27912 3.4689,7.74803 7.7481,7.74803 4.2791,0 7.748,-3.46891 7.748,-7.74803 z"
     style="display:inline;fill:none;stroke:#ff0000;stroke-width:0.132283;stroke-dasharray:none;stroke-opacity:1"
     id="path275-8-6-4"
     sodipodi:nodetypes="sssss" /></g></svg>
