<?xml version="1.0" encoding="UTF-8" standalone="no"?>
<svg
   sodipodi:docname="top.svg"
   id="svg255"
   version="1.2"
   viewBox="0 0 420.945 595.276"
   height="595.276pt"
   width="420.945pt"
   inkscape:version="1.1 (c68e22c387, 2021-05-23)"
   xmlns:inkscape="http://www.inkscape.org/namespaces/inkscape"
   xmlns:sodipodi="http://sodipodi.sourceforge.net/DTD/sodipodi-0.dtd"
   xmlns="http://www.w3.org/2000/svg"
   xmlns:svg="http://www.w3.org/2000/svg"
   xmlns:rdf="http://www.w3.org/1999/02/22-rdf-syntax-ns#"
   xmlns:cc="http://creativecommons.org/ns#"
   xmlns:dc="http://purl.org/dc/elements/1.1/">
  <metadata
     id="metadata261">
    <rdf:RDF>
      <cc:Work
         rdf:about="">
        <dc:format>image/svg+xml</dc:format>
        <dc:type
           rdf:resource="http://purl.org/dc/dcmitype/StillImage" />
        <dc:title />
      </cc:Work>
    </rdf:RDF>
  </metadata>
  <defs
     id="defs259" />
  <sodipodi:namedview
     id="namedview257"
     inkscape:window-height="1017"
     inkscape:window-width="1920"
     inkscape:pageshadow="2"
     inkscape:pageopacity="0"
     guidetolerance="10"
     gridtolerance="10"
     objecttolerance="10"
     borderopacity="1"
     bordercolor="#666666"
     pagecolor="#ffffff"
     inkscape:document-rotation="0"
     showgrid="false"
     inkscape:zoom="0.70710678"
     inkscape:cx="222.73864"
     inkscape:cy="362.74578"
     inkscape:window-x="1912"
     inkscape:window-y="-8"
     inkscape:window-maximized="1"
     inkscape:current-layer="svg255"
     inkscape:pagecheckerboard="0"
     inkscape:document-units="pt" />
  <g
     id="g13931">
    <g
       id="g13861">
      <g
         id="g13826">
        <path
           id="path2"
           d="M 403.20312,41.394531 V 207.9375 c 0,1.08984 -1.17968,1.77344 -2.125,1.22656 l -53.05859,-30.62109 c -0.44141,-0.25391 -0.71094,-0.72266 -0.71094,-1.22656 V 41.398437 c 0,-0.78125 0.63672,-1.414062 1.41797,-1.417968 l 53.0625,-0.0039 c 0.78125,0 1.41406,0.632813 1.41406,1.417969 z"
           style="fill:none;stroke:#0000ff;stroke-width:0.99975;stroke-linecap:butt;stroke-linejoin:miter;stroke-miterlimit:4;stroke-dasharray:none;stroke-opacity:1"
           sodipodi:nodetypes="csccssccsc" />
        <path
           id="path142"
           d="m 357.93359,174.57812 c 0,1.72266 -1.39453,3.11719 -3.11718,3.11719 -1.72266,0 -3.11719,-1.39453 -3.11719,-3.11719 0,-1.72265 1.39453,-3.12109 3.11719,-3.12109 1.72265,0 3.11718,1.39844 3.11718,3.12109 z m 0,0"
           style="fill:none;stroke:#ff0000;stroke-width:0.99975;stroke-linecap:butt;stroke-linejoin:miter;stroke-miterlimit:4;stroke-dasharray:none;stroke-opacity:1" />
        <path
           id="path144"
           d="m 398.84375,198.73047 c 0,1.72265 -1.39453,3.11719 -3.11719,3.11719 -1.72265,0 -3.11719,-1.39454 -3.11719,-3.11719 0,-1.72266 1.39454,-3.11719 3.11719,-3.11719 1.72266,0 3.11719,1.39453 3.11719,3.11719 z m 0,0"
           style="fill:none;stroke:#ff0000;stroke-width:0.99975;stroke-linecap:butt;stroke-linejoin:miter;stroke-miterlimit:4;stroke-dasharray:none;stroke-opacity:1" />
      </g>
      <g
         id="g13821">
        <g
           id="g4026">
          <path
             id="path68"
             style="fill:none;stroke:#0000ff;stroke-width:0.99975;stroke-linecap:butt;stroke-linejoin:miter;stroke-miterlimit:4;stroke-dasharray:none;stroke-opacity:1"
             d="m 337.92778,39.447265 c 0.002,-0.779296 -0.63086,-1.416015 -1.41409,-1.417968 h -51.02541 c -0.78125,0.002 -1.41406,-0.63086 -1.41602,-1.416016 v -4.251953 c 0.002,-0.779297 -0.63476,-1.416016 -1.41991,-1.417969 h -51.01954 c -0.78515,0.002 -1.41797,-0.630859 -1.41992,-1.417969 v -3.542968 c 0.002,-0.779297 -0.63086,-1.416016 -1.41797,-1.417969 h -48.1875 c -0.7832,0.002 -1.41601,0.638672 -1.41797,1.417969 v 3.542969 c 0.002,0.787109 -0.63476,1.419921 -1.41797,1.417968 H 126.75 c -0.78125,0.002 -1.41797,0.638672 -1.41797,1.417969 v 10.628906 c 0,0.78711 -0.63281,1.419922 -1.41992,1.417969 H 19.033203 c -0.783203,0.002 -1.416016,0.638672 -1.417969,1.417969 V 202.43945 c 0.002,0.78711 0.634766,1.41992 1.416014,1.41797 H 174.9375 c 0.37891,0.002 0.73828,0.15039 1.00195,0.41211 l 29.88677,40.98247 c 0.26763,0.26762 0.627,0.41996 1.002,0.41796 l 103.94727,13.51949 c 0.63086,0.0644 1.25195,0.18945 1.85742,0.36718 l 40.51562,23.41601 c 1.80079,1.21876 4.2461,0.74219 5.46094,-1.05859 0,-0.004 0.004,-0.008 0.004,-0.0137 l 35.01944,-60.82228 c 1.21094,-1.79687 0.73828,-4.24218 -1.0625,-5.45312 l -0.0176,-0.0156 -53.63282,-30.95313 c -0.60351,-0.44141 -0.97464,-1.13672 -0.99819,-1.88672 z"
             sodipodi:nodetypes="ccccccccccccccccccccccccccccccccccccc" />
        </g>
        <path
           id="path146"
           d="m 73.175781,97.550781 c 0,1.722656 -1.394531,3.117189 -3.117187,3.117189 -1.722656,0 -3.121094,-1.394533 -3.121094,-3.117189 0,-1.722656 1.398438,-3.117187 3.121094,-3.117187 1.722656,0 3.117187,1.394531 3.117187,3.117187 z m 0,0"
           style="fill:none;stroke:#ff0000;stroke-width:0.99975;stroke-linecap:butt;stroke-linejoin:miter;stroke-miterlimit:4;stroke-dasharray:none;stroke-opacity:1" />
        <path
           id="path148"
           d="m 70.058594,147.58203 c 1.71875,0 3.117187,1.39453 3.117187,3.11719 0,1.72265 -1.398437,3.12109 -3.117187,3.12109 -1.722657,0 -3.121094,-1.39844 -3.121094,-3.12109 0,-1.72266 1.398437,-3.11719 3.121094,-3.11719 z m 0,0"
           style="fill:none;stroke:#ff0000;stroke-width:0.99975;stroke-linecap:butt;stroke-linejoin:miter;stroke-miterlimit:4;stroke-dasharray:none;stroke-opacity:1" />
        <path
           id="path150"
           d="m 285.49219,83.804687 c 1.71875,0 3.11718,1.394532 3.11718,3.117188 0,1.722656 -1.39843,3.117187 -3.11718,3.117187 -1.72266,0 -3.1211,-1.394531 -3.1211,-3.117187 0,-1.722656 1.39844,-3.117188 3.1211,-3.117188 z m 0,0"
           style="fill:none;stroke:#ff0000;stroke-width:0.99975;stroke-linecap:butt;stroke-linejoin:miter;stroke-miterlimit:4;stroke-dasharray:none;stroke-opacity:1" />
        <path
           id="path152"
           d="m 192.65625,196.48047 c 1.72266,0 3.11719,1.39844 3.11719,3.11719 0,1.72265 -1.39453,3.12109 -3.11719,3.12109 -1.72266,0 -3.11719,-1.39844 -3.11719,-3.12109 0,-1.71875 1.39453,-3.11719 3.11719,-3.11719 z m 0,0"
           style="fill:none;stroke:#ff0000;stroke-width:0.99975;stroke-linecap:butt;stroke-linejoin:miter;stroke-miterlimit:4;stroke-dasharray:none;stroke-opacity:1" />
        <path
           id="path154"
           d="m 324.46875,218.44922 c 1.71875,0 3.11719,1.39453 3.11719,3.11719 0,1.72265 -1.39844,3.11718 -3.11719,3.11718 -1.72266,0 -3.12109,-1.39453 -3.12109,-3.11718 0,-1.72266 1.39843,-3.11719 3.12109,-3.11719 z m 0,0"
           style="fill:none;stroke:#ff0000;stroke-width:0.99975;stroke-linecap:butt;stroke-linejoin:miter;stroke-miterlimit:4;stroke-dasharray:none;stroke-opacity:1" />
        <path
           id="path170"
           d="m 65.121094,88.41016 h -43.9375 V 52.125 h 43.9375 z m 0,0"
           style="fill:none;stroke:#ff0000;stroke-width:0.99975;stroke-linecap:butt;stroke-linejoin:miter;stroke-miterlimit:4;stroke-dasharray:none;stroke-opacity:1" />
        <path
           id="path172"
           d="m 65.121094,142.26563 h -43.9375 v -36.28125 h 43.9375 z m 0,0"
           style="fill:none;stroke:#ff0000;stroke-width:0.99975;stroke-linecap:butt;stroke-linejoin:miter;stroke-miterlimit:4;stroke-dasharray:none;stroke-opacity:1" />
        <path
           id="path174"
           d="m 65.121094,196.125 h -43.9375 v -36.28125 h 43.9375 z m 0,0"
           style="fill:none;stroke:#ff0000;stroke-width:0.99975;stroke-linecap:butt;stroke-linejoin:miter;stroke-miterlimit:4;stroke-dasharray:none;stroke-opacity:1" />
        <path
           id="path176"
           d="M 118.97656,88.40625 H 75.039062 V 52.125 h 43.937498 z m 0,0"
           style="fill:none;stroke:#ff0000;stroke-width:0.99975;stroke-linecap:butt;stroke-linejoin:miter;stroke-miterlimit:4;stroke-dasharray:none;stroke-opacity:1" />
        <path
           id="path178"
           d="M 118.97656,142.26563 H 75.039062 v -36.28516 h 43.937498 z m 0,0"
           style="fill:none;stroke:#ff0000;stroke-width:0.99975;stroke-linecap:butt;stroke-linejoin:miter;stroke-miterlimit:4;stroke-dasharray:none;stroke-opacity:1" />
        <path
           id="path180"
           d="M 118.97656,196.125 H 75.039062 v -36.28516 h 43.937498 z m 0,0"
           style="fill:none;stroke:#ff0000;stroke-width:0.99975;stroke-linecap:butt;stroke-linejoin:miter;stroke-miterlimit:4;stroke-dasharray:none;stroke-opacity:1" />
        <path
           id="path182"
           d="m 172.83594,74.95703 h -43.9375 V 38.67578 h 43.9375 z m 0,0"
           style="fill:none;stroke:#ff0000;stroke-width:0.99975;stroke-linecap:butt;stroke-linejoin:miter;stroke-miterlimit:4;stroke-dasharray:none;stroke-opacity:1" />
        <path
           id="path184"
           d="m 172.83594,128.81641 h -43.9375 V 92.53125 h 43.9375 z m 0,0"
           style="fill:none;stroke:#ff0000;stroke-width:0.99975;stroke-linecap:butt;stroke-linejoin:miter;stroke-miterlimit:4;stroke-dasharray:none;stroke-opacity:1" />
        <path
           id="path186"
           d="m 172.83594,182.67188 h -43.9375 v -36.28125 h 43.9375 z m 0,0"
           style="fill:none;stroke:#ff0000;stroke-width:0.99975;stroke-linecap:butt;stroke-linejoin:miter;stroke-miterlimit:4;stroke-dasharray:none;stroke-opacity:1" />
        <path
           id="path188"
           d="M 226.69531,68.21484 H 182.76172 V 31.92969 h 43.93359 z m 0,0"
           style="fill:none;stroke:#ff0000;stroke-width:0.99975;stroke-linecap:butt;stroke-linejoin:miter;stroke-miterlimit:4;stroke-dasharray:none;stroke-opacity:1" />
        <path
           id="path190"
           d="M 226.69531,122.07031 H 182.76172 V 85.78906 h 43.93359 z m 0,0"
           style="fill:none;stroke:#ff0000;stroke-width:0.99975;stroke-linecap:butt;stroke-linejoin:miter;stroke-miterlimit:4;stroke-dasharray:none;stroke-opacity:1" />
        <path
           id="path192"
           d="m 226.69531,175.92969 h -43.93359 v -36.28125 h 43.93359 z m 0,0"
           style="fill:none;stroke:#ff0000;stroke-width:0.99975;stroke-linecap:butt;stroke-linejoin:miter;stroke-miterlimit:4;stroke-dasharray:none;stroke-opacity:1" />
        <path
           id="path194"
           d="m 280.55859,74.94531 h -43.9375 V 38.66016 h 43.9375 z m 0,0"
           style="fill:none;stroke:#ff0000;stroke-width:0.99975;stroke-linecap:butt;stroke-linejoin:miter;stroke-miterlimit:4;stroke-dasharray:none;stroke-opacity:1" />
        <path
           id="path196"
           d="m 280.55859,128.80469 h -43.9375 V 92.51953 h 43.9375 z m 0,0"
           style="fill:none;stroke:#ff0000;stroke-width:0.99975;stroke-linecap:butt;stroke-linejoin:miter;stroke-miterlimit:4;stroke-dasharray:none;stroke-opacity:1" />
        <path
           id="path198"
           d="m 280.55859,182.66016 h -43.9375 v -36.28125 h 43.9375 z m 0,0"
           style="fill:none;stroke:#ff0000;stroke-width:0.99975;stroke-linecap:butt;stroke-linejoin:miter;stroke-miterlimit:4;stroke-dasharray:none;stroke-opacity:1" />
        <path
           id="path200"
           d="m 334.42187,81.70313 h -43.9375 V 45.42188 h 43.9375 z m 0,0"
           style="fill:none;stroke:#ff0000;stroke-width:0.99975;stroke-linecap:butt;stroke-linejoin:miter;stroke-miterlimit:4;stroke-dasharray:none;stroke-opacity:1" />
        <path
           id="path202"
           d="m 334.42187,135.5625 h -43.9375 V 99.28125 h 43.9375 z m 0,0"
           style="fill:none;stroke:#ff0000;stroke-width:0.99975;stroke-linecap:butt;stroke-linejoin:miter;stroke-miterlimit:4;stroke-dasharray:none;stroke-opacity:1" />
        <path
           id="path204"
           d="m 334.42187,189.42188 h -43.9375 v -36.28516 h 43.9375 z m 0,0"
           style="fill:none;stroke:#ff0000;stroke-width:0.99975;stroke-linecap:butt;stroke-linejoin:miter;stroke-miterlimit:4;stroke-dasharray:none;stroke-opacity:1" />
        <path
           id="path206"
           d="m 253.27344,238.38281 h -43.9375 v -36.28125 h 43.9375 z m 0,0"
           style="fill:none;stroke:#ff0000;stroke-width:0.99975;stroke-linecap:butt;stroke-linejoin:miter;stroke-miterlimit:4;stroke-dasharray:none;stroke-opacity:1" />
        <path
           id="path208"
           d="m 307.66016,251.13281 -42.44141,-11.37109 9.39062,-35.04688 42.44141,11.3711 z m 0,0"
           style="fill:none;stroke:#ff0000;stroke-width:0.99975;stroke-linecap:butt;stroke-linejoin:miter;stroke-miterlimit:4;stroke-dasharray:none;stroke-opacity:1" />
        <path
           id="path210"
           d="m 380.92578,228.57422 -21.96875,38.05078 -31.42187,-18.14453 21.96875,-38.05078 z m 0,0"
           style="fill:none;stroke:#ff0000;stroke-width:0.99975;stroke-linecap:butt;stroke-linejoin:miter;stroke-miterlimit:4;stroke-dasharray:none;stroke-opacity:1" />
      </g>
    </g>
    <g
       id="g13760">
      <g
         id="g13725">
        <path
           id="path72"
           d="m 19.074219,328.45703 v 166.54688 c 0,1.08984 1.179687,1.77343 2.125,1.22656 l 53.0625,-30.6211 c 0.4375,-0.2539 0.707031,-0.72265 0.707031,-1.23046 V 328.46484 c 0,-0.78125 -0.632813,-1.41797 -1.414063,-1.41797 l -53.0625,-0.008 c -0.78125,0 -1.417968,0.63672 -1.417968,1.41797 z m 0,0"
           style="fill:none;stroke:#0000ff;stroke-width:0.99975;stroke-linecap:butt;stroke-linejoin:miter;stroke-miterlimit:4;stroke-dasharray:none;stroke-opacity:1" />
        <path
           id="path156"
           d="m 64.34375,461.64062 c 0,1.72266 1.398438,3.1211 3.121094,3.1211 1.71875,0 3.117187,-1.39844 3.117187,-3.1211 0,-1.72265 -1.398437,-3.11718 -3.117187,-3.11718 -1.722656,0 -3.121094,1.39453 -3.121094,3.11718 z m 0,0"
           style="fill:none;stroke:#ff0000;stroke-width:0.99975;stroke-linecap:butt;stroke-linejoin:miter;stroke-miterlimit:4;stroke-dasharray:none;stroke-opacity:1" />
        <path
           id="path158"
           d="m 23.4375,485.79687 c 0,1.72266 1.394531,3.11719 3.117188,3.11719 1.722656,0 3.117187,-1.39453 3.117187,-3.11719 0,-1.72265 -1.394531,-3.12109 -3.117187,-3.12109 -1.722657,0 -3.117188,1.39844 -3.117188,3.12109 z m 0,0"
           style="fill:none;stroke:#ff0000;stroke-width:0.99975;stroke-linecap:butt;stroke-linejoin:miter;stroke-miterlimit:4;stroke-dasharray:none;stroke-opacity:1" />
      </g>
      <g
         id="g13720">
        <g
           id="g9145">
          <path
             id="path140"
             style="fill:none;stroke:#0000ff;stroke-width:0.99975;stroke-linecap:butt;stroke-linejoin:miter;stroke-miterlimit:4;stroke-dasharray:none;stroke-opacity:1"
             d="m 403.24804,490.92383 h -155.9082 c -0.375,0.002 -0.73437,0.15039 -1,0.4121 l -29.88672,40.98248 c -0.26562,0.26763 -0.625,0.41606 -1.0019,0.41406 l -103.94531,13.52339 c -0.63091,0.0644 -1.252,0.18555 -1.85742,0.36718 l -40.51758,23.41603 c -1.802785,1.21484 -4.248097,0.74218 -5.459035,-1.0586 -0.0039,-0.004 -0.0078,-0.0117 -0.0059,-0.0176 L 28.648437,508.14453 c -1.214843,-1.80078 -0.6702,-4.14692 1.0625,-5.45703 l 0.01563,-0.0118 53.632812,-30.95694 c 0.605469,-0.4375 0.972654,-1.13281 0.999994,-1.88476 l -0.0078,-143.32032 c -0.0039,-0.7832 0.628907,-1.41601 1.414063,-1.41992 h 51.025394 c 0.77929,0.004 1.41601,-0.62891 1.41797,-1.41797 v -4.24805 c -0.002,-0.7832 0.63085,-1.41601 1.41796,-1.41797 h 51.02149 c 0.78125,0.002 1.41797,-0.63476 1.41797,-1.41797 v -3.54297 c 0,-0.77929 0.63281,-1.41601 1.41601,-1.41796 h 48.1914 c 0.7793,0.002 1.41602,0.63867 1.41797,1.41796 v 3.54297 c -0.002,0.78712 0.63087,1.41993 1.41797,1.41797 h 51.02149 c 0.78125,0.002 1.41406,0.63477 1.41602,1.41797 v 10.62695 c -0.002,0.78516 0.63476,1.42188 1.41796,1.41993 h 104.88281 c 0.7793,0.002 1.41602,0.63476 1.41798,1.41796 l 2e-5,156.61328 c -0.002,0.7832 -0.63871,1.41992 -1.41801,1.41797 z"
             sodipodi:nodetypes="cccccccccccsccccccccccccccccccccccccc" />
        </g>
        <path
           id="path160"
           d="m 349.10547,384.61719 c 0,1.72265 1.39453,3.11718 3.11719,3.11718 1.72265,0 3.11718,-1.39453 3.11718,-3.11718 0,-1.72266 -1.39453,-3.1211 -3.11718,-3.1211 -1.72266,0 -3.11719,1.39844 -3.11719,3.1211 z m 0,0"
           style="fill:none;stroke:#ff0000;stroke-width:0.99975;stroke-linecap:butt;stroke-linejoin:miter;stroke-miterlimit:4;stroke-dasharray:none;stroke-opacity:1" />
        <path
           id="path162"
           d="m 352.22266,434.64844 c -1.72266,0 -3.11719,1.39453 -3.11719,3.11718 0,1.72266 1.39453,3.11719 3.11719,3.11719 1.72265,0 3.11718,-1.39453 3.11718,-3.11719 0,-1.72265 -1.39453,-3.11718 -3.11718,-3.11718 z m 0,0"
           style="fill:none;stroke:#ff0000;stroke-width:0.99975;stroke-linecap:butt;stroke-linejoin:miter;stroke-miterlimit:4;stroke-dasharray:none;stroke-opacity:1" />
        <path
           id="path164"
           d="m 136.78906,370.86719 c -1.72265,0 -3.11719,1.39843 -3.11719,3.12109 0,1.71875 1.39454,3.11719 3.11719,3.11719 1.72266,0 3.11719,-1.39844 3.11719,-3.11719 0,-1.72266 -1.39453,-3.12109 -3.11719,-3.12109 z m 0,0"
           style="fill:none;stroke:#ff0000;stroke-width:0.99975;stroke-linecap:butt;stroke-linejoin:miter;stroke-miterlimit:4;stroke-dasharray:none;stroke-opacity:1" />
        <path
           id="path166"
           d="m 229.625,483.54687 c -1.72266,0 -3.12109,1.39454 -3.12109,3.11719 0,1.72266 1.39843,3.11719 3.12109,3.11719 1.71875,0 3.11719,-1.39453 3.11719,-3.11719 0,-1.72265 -1.39844,-3.11719 -3.11719,-3.11719 z m 0,0"
           style="fill:none;stroke:#ff0000;stroke-width:0.99975;stroke-linecap:butt;stroke-linejoin:miter;stroke-miterlimit:4;stroke-dasharray:none;stroke-opacity:1" />
        <path
           id="path168"
           d="m 97.8125,505.51562 c -1.722656,0 -3.117188,1.39454 -3.117188,3.11719 0,1.72266 1.394532,3.11719 3.117188,3.11719 1.722656,0 3.11719,-1.39453 3.11719,-3.11719 0,-1.72265 -1.394534,-3.11719 -3.11719,-3.11719 z m 0,0"
           style="fill:none;stroke:#ff0000;stroke-width:0.99975;stroke-linecap:butt;stroke-linejoin:miter;stroke-miterlimit:4;stroke-dasharray:none;stroke-opacity:1" />
        <path
           id="path212"
           d="m 357.15625,375.47266 h 43.9375 v -36.28125 h -43.9375 z m 0,0"
           style="fill:none;stroke:#ff0000;stroke-width:0.99975;stroke-linecap:butt;stroke-linejoin:miter;stroke-miterlimit:4;stroke-dasharray:none;stroke-opacity:1" />
        <path
           id="path214"
           d="m 357.15625,429.33203 h 43.9375 v -36.28125 h -43.9375 z m 0,0"
           style="fill:none;stroke:#ff0000;stroke-width:0.99975;stroke-linecap:butt;stroke-linejoin:miter;stroke-miterlimit:4;stroke-dasharray:none;stroke-opacity:1" />
        <path
           id="path216"
           d="m 357.15625,483.19141 h 43.9375 v -36.28516 h -43.9375 z m 0,0"
           style="fill:none;stroke:#ff0000;stroke-width:0.99975;stroke-linecap:butt;stroke-linejoin:miter;stroke-miterlimit:4;stroke-dasharray:none;stroke-opacity:1" />
        <path
           id="path218"
           d="m 303.30469,375.47266 h 43.9375 V 339.1875 h -43.9375 z m 0,0"
           style="fill:none;stroke:#ff0000;stroke-width:0.99975;stroke-linecap:butt;stroke-linejoin:miter;stroke-miterlimit:4;stroke-dasharray:none;stroke-opacity:1" />
        <path
           id="path220"
           d="m 303.30469,429.32813 h 43.9375 v -36.28125 h -43.9375 z m 0,0"
           style="fill:none;stroke:#ff0000;stroke-width:0.99975;stroke-linecap:butt;stroke-linejoin:miter;stroke-miterlimit:4;stroke-dasharray:none;stroke-opacity:1" />
        <path
           id="path222"
           d="m 303.30469,483.1875 h 43.9375 v -36.28125 h -43.9375 z m 0,0"
           style="fill:none;stroke:#ff0000;stroke-width:0.99975;stroke-linecap:butt;stroke-linejoin:miter;stroke-miterlimit:4;stroke-dasharray:none;stroke-opacity:1" />
        <path
           id="path224"
           d="m 249.44531,362.02344 h 43.9375 v -36.28516 h -43.9375 z m 0,0"
           style="fill:none;stroke:#ff0000;stroke-width:0.99975;stroke-linecap:butt;stroke-linejoin:miter;stroke-miterlimit:4;stroke-dasharray:none;stroke-opacity:1" />
        <path
           id="path226"
           d="m 249.44531,415.87891 h 43.9375 v -36.28125 h -43.9375 z m 0,0"
           style="fill:none;stroke:#ff0000;stroke-width:0.99975;stroke-linecap:butt;stroke-linejoin:miter;stroke-miterlimit:4;stroke-dasharray:none;stroke-opacity:1" />
        <path
           id="path228"
           d="m 249.44531,469.73828 h 43.9375 v -36.28515 h -43.9375 z m 0,0"
           style="fill:none;stroke:#ff0000;stroke-width:0.99975;stroke-linecap:butt;stroke-linejoin:miter;stroke-miterlimit:4;stroke-dasharray:none;stroke-opacity:1" />
        <path
           id="path230"
           d="m 195.58203,355.27734 h 43.9375 v -36.28125 h -43.9375 z m 0,0"
           style="fill:none;stroke:#ff0000;stroke-width:0.99975;stroke-linecap:butt;stroke-linejoin:miter;stroke-miterlimit:4;stroke-dasharray:none;stroke-opacity:1" />
        <path
           id="path232"
           d="m 195.58203,409.13672 h 43.9375 v -36.28516 h -43.9375 z m 0,0"
           style="fill:none;stroke:#ff0000;stroke-width:0.99975;stroke-linecap:butt;stroke-linejoin:miter;stroke-miterlimit:4;stroke-dasharray:none;stroke-opacity:1" />
        <path
           id="path234"
           d="m 195.58203,462.99609 h 43.9375 v -36.28515 h -43.9375 z m 0,0"
           style="fill:none;stroke:#ff0000;stroke-width:0.99975;stroke-linecap:butt;stroke-linejoin:miter;stroke-miterlimit:4;stroke-dasharray:none;stroke-opacity:1" />
        <path
           id="path236"
           d="m 141.71875,362.00781 h 43.9375 v -36.28125 h -43.9375 z m 0,0"
           style="fill:none;stroke:#ff0000;stroke-width:0.99975;stroke-linecap:butt;stroke-linejoin:miter;stroke-miterlimit:4;stroke-dasharray:none;stroke-opacity:1" />
        <path
           id="path238"
           d="m 141.71875,415.86719 h 43.9375 v -36.28125 h -43.9375 z m 0,0"
           style="fill:none;stroke:#ff0000;stroke-width:0.99975;stroke-linecap:butt;stroke-linejoin:miter;stroke-miterlimit:4;stroke-dasharray:none;stroke-opacity:1" />
        <path
           id="path240"
           d="m 141.71875,469.72656 h 43.9375 v -36.28515 h -43.9375 z m 0,0"
           style="fill:none;stroke:#ff0000;stroke-width:0.99975;stroke-linecap:butt;stroke-linejoin:miter;stroke-miterlimit:4;stroke-dasharray:none;stroke-opacity:1" />
        <path
           id="path242"
           d="M 87.855469,368.76953 H 131.79297 V 332.48438 H 87.855469 Z m 0,0"
           style="fill:none;stroke:#ff0000;stroke-width:0.99975;stroke-linecap:butt;stroke-linejoin:miter;stroke-miterlimit:4;stroke-dasharray:none;stroke-opacity:1" />
        <path
           id="path244"
           d="M 87.855469,422.62891 H 131.79297 V 386.34375 H 87.855469 Z m 0,0"
           style="fill:none;stroke:#ff0000;stroke-width:0.99975;stroke-linecap:butt;stroke-linejoin:miter;stroke-miterlimit:4;stroke-dasharray:none;stroke-opacity:1" />
        <path
           id="path246"
           d="M 87.855469,476.48438 H 131.79297 V 440.20313 H 87.855469 Z m 0,0"
           style="fill:none;stroke:#ff0000;stroke-width:0.99975;stroke-linecap:butt;stroke-linejoin:miter;stroke-miterlimit:4;stroke-dasharray:none;stroke-opacity:1" />
        <path
           id="path248"
           d="m 169.00781,525.44922 h 43.9375 v -36.28516 h -43.9375 z m 0,0"
           style="fill:none;stroke:#ff0000;stroke-width:0.99975;stroke-linecap:butt;stroke-linejoin:miter;stroke-miterlimit:4;stroke-dasharray:none;stroke-opacity:1" />
        <path
           id="path250"
           d="m 114.62109,538.19922 42.4375,-11.3711 -9.39062,-35.04687 -42.44141,11.37109 z m 0,0"
           style="fill:none;stroke:#ff0000;stroke-width:0.99975;stroke-linecap:butt;stroke-linejoin:miter;stroke-miterlimit:4;stroke-dasharray:none;stroke-opacity:1" />
        <path
           id="path252"
           d="m 41.355469,515.63672 21.96875,38.05078 31.421875,-18.14063 -21.96875,-38.05078 z m 0,0"
           style="fill:none;stroke:#ff0000;stroke-width:0.99975;stroke-linecap:butt;stroke-linejoin:miter;stroke-miterlimit:4;stroke-dasharray:none;stroke-opacity:1" />
      </g>
    </g>
  </g>
</svg>
