<svg xmlns="http://www.w3.org/2000/svg" viewBox="0 0 842.17 595.56"><defs><style>.cls-1,.cls-2,.cls-3{fill:none;stroke:red;}.cls-1,.cls-3{stroke-miterlimit:10;}.cls-1{stroke-width:0.28px;}.cls-2{stroke-linecap:round;stroke-linejoin:round;}.cls-2,.cls-3{stroke-width:0.28px;}</style></defs><title>corne-classic</title><g id="ガイド"><rect class="cls-1" x="0.14" y="0.14" width="841.89" height="595.28"/></g><g id="彫刻パス"><path d="M67.15,175.28c0,1.92-1.74,7.82-6.23,7.82a3.82,3.82,0,0,1-3.19-1.65,6.56,6.56,0,0,1-.94-3.71c0-3.11,1.25-7.19,3.86-11.81,2.54-4.47,3.94-8.37,3.92-11.28a6.62,6.62,0,0,0-1.08-3.86A8.19,8.19,0,0,0,59.83,148a9.41,9.41,0,0,0-3.71-.8A10.45,10.45,0,0,0,49,150.39a22.69,22.69,0,0,0-5.35,8.25,40.16,40.16,0,0,0-2.57,13.61,25.22,25.22,0,0,0,.86,6.67c-5.7-8-2.8-18.82-.41-23.81a7.25,7.25,0,0,0-2.78-.55h-.16c-2.86.07-5.53,1.81-7.57,4.88a22.36,22.36,0,0,0-3.31,12.21v.6a24.33,24.33,0,0,0,2,9.35,20,20,0,0,1-4.4-17.16,4.61,4.61,0,0,0-1.1-.14h0a3.79,3.79,0,0,0-.67.06,6,6,0,0,0-4.19,3.12,14,14,0,0,0-1.78,7.13,17.89,17.89,0,0,0,.19,2.6A15.88,15.88,0,0,0,21,185.05,7,7,0,0,0,26.21,188,9.48,9.48,0,0,0,32,185.49c2,2.55,4.56,3.95,7.15,3.95s5.43-1.57,7.33-3a16.48,16.48,0,0,0,4.88,2.9,12.87,12.87,0,0,0,4.69.94C70.11,190.28,68.87,177.14,67.15,175.28Z" transform="translate(0.14 0.14)"/><path d="M89.08,181.3a6.87,6.87,0,0,1-7,5.55,7,7,0,0,1-7.34-7.23c0-4.86,3.64-7.24,7.3-7.24A6.88,6.88,0,0,1,89.08,178H86.46A4.46,4.46,0,0,0,82,174.64a5,5,0,0,0,0,10,4.44,4.44,0,0,0,4.42-3.32Z" transform="translate(0.14 0.14)"/><path d="M97.73,186.91c-3.78,0-7.53-2.44-7.53-7.27s3.79-7.26,7.6-7.26,7.53,2.44,7.53,7.26S101.54,186.91,97.73,186.91Zm0-2.29a5,5,0,1,0-5-5A4.82,4.82,0,0,0,97.73,184.62Z" transform="translate(0.14 0.14)"/><path d="M109.81,172.64v1.7c1.34-1.88,3.4-2.33,5.64-1.81v2.23a4.36,4.36,0,0,0-5.64,4.28v7.61h-2.52v-14Z" transform="translate(0.14 0.14)"/><path d="M119.67,172.61v1.73A4.76,4.76,0,0,1,124,172.4c4.28,0,6.09,2.67,6.09,6.69v7.56h-2.52v-7.52c0-2.63-.67-4.42-3.65-4.47-2.72,0-4.23,1.89-4.23,4.36v7.63h-2.55v-14Z" transform="translate(0.14 0.14)"/><path d="M146.17,180.24H134.28c0,2.75,2.62,4.41,4.72,4.41a4.55,4.55,0,0,0,4.19-2.33h2.62a7.3,7.3,0,0,1-14.07-2.68,7.25,7.25,0,0,1,14.48-.62A4.1,4.1,0,0,1,146.17,180.24Zm-2.63-2.1a4.25,4.25,0,0,0-4.51-3.5,4.43,4.43,0,0,0-4.65,3.5Z" transform="translate(0.14 0.14)"/><path d="M744.16,478.53c.05,1.91-1.74,7.82-6.23,7.82a3.82,3.82,0,0,1-3.19-1.65,6.6,6.6,0,0,1-.94-3.71c0-3.11,1.25-7.19,3.86-11.81s3.94-8.37,3.92-11.28A6.6,6.6,0,0,0,740.5,454a8.19,8.19,0,0,0-3.66-2.78,9.41,9.41,0,0,0-3.71-.8,10.48,10.48,0,0,0-7.15,3.17,23,23,0,0,0-5.35,8.26,40.15,40.15,0,0,0-2.57,13.6,25.35,25.35,0,0,0,.86,6.68c-5.7-8-2.8-18.82-.41-23.82a7.45,7.45,0,0,0-2.78-.55h-.16c-2.85.06-5.53,1.81-7.57,4.88a22.35,22.35,0,0,0-3.31,12.2v.61a24.33,24.33,0,0,0,2,9.35,20,20,0,0,1-4.4-17.16,4.61,4.61,0,0,0-1.1-.14h0a3.85,3.85,0,0,0-.67.05,6.05,6.05,0,0,0-4.19,3.12,14,14,0,0,0-1.78,7.14,17.89,17.89,0,0,0,.19,2.6,15.8,15.8,0,0,0,3.28,7.83,7,7,0,0,0,5.21,2.92,9.48,9.48,0,0,0,5.82-2.47c2,2.54,4.56,3.95,7.15,3.95s5.43-1.57,7.33-3a16.6,16.6,0,0,0,4.88,2.9,12.85,12.85,0,0,0,4.69.93C747.12,493.52,745.88,480.39,744.16,478.53Z" transform="translate(0.14 0.14)"/><path d="M766.09,484.55a6.86,6.86,0,0,1-7,5.55,7,7,0,0,1-7.34-7.24c0-4.85,3.64-7.23,7.3-7.23a6.87,6.87,0,0,1,7.08,5.58h-2.62a4.46,4.46,0,0,0-4.44-3.33,5,5,0,0,0,0,10,4.43,4.43,0,0,0,4.42-3.32Z" transform="translate(0.14 0.14)"/><path d="M774.74,490.16c-3.78,0-7.53-2.45-7.53-7.27s3.79-7.26,7.6-7.26,7.53,2.43,7.53,7.26S778.55,490.16,774.74,490.16Zm0-2.29a5,5,0,1,0-5-5A4.82,4.82,0,0,0,774.74,487.87Z" transform="translate(0.14 0.14)"/><path d="M786.82,475.89v1.7c1.34-1.88,3.4-2.33,5.64-1.81V478a4.36,4.36,0,0,0-5.64,4.28v7.61H784.3v-14Z" transform="translate(0.14 0.14)"/><path d="M796.68,475.86v1.73a4.76,4.76,0,0,1,4.31-1.94c4.28,0,6.09,2.67,6.09,6.69v7.56h-2.52v-7.53c0-2.62-.67-4.41-3.65-4.46-2.72-.06-4.23,1.89-4.23,4.35v7.64h-2.55v-14Z" transform="translate(0.14 0.14)"/><path d="M823.18,483.49H811.29c0,2.74,2.62,4.41,4.72,4.41a4.54,4.54,0,0,0,4.19-2.34h2.62a7.29,7.29,0,0,1-14.07-2.67c0-4.83,3.58-7.24,7.29-7.24a6.89,6.89,0,0,1,7.19,6.61A4.16,4.16,0,0,1,823.18,483.49Zm-2.63-2.1a4.25,4.25,0,0,0-4.51-3.51,4.43,4.43,0,0,0-4.65,3.51Z" transform="translate(0.14 0.14)"/></g><g id="切断パス"><g id="LWPOLYLINE"><path class="cls-2" d="M173.07,194.4a1.38,1.38,0,0,0-1-.42H16.15a1.41,1.41,0,0,1-1.41-1.41V35.94a1.42,1.42,0,0,1,1.41-1.42H121a1.41,1.41,0,0,0,1.42-1.41V22.48a1.41,1.41,0,0,1,1.42-1.42h51a1.42,1.42,0,0,0,1.42-1.42V16.1a1.42,1.42,0,0,1,1.42-1.42h48.19a1.42,1.42,0,0,1,1.42,1.42v3.54a1.42,1.42,0,0,0,1.42,1.42h51a1.41,1.41,0,0,1,1.42,1.42v4.25a1.43,1.43,0,0,0,1.42,1.42h51a1.41,1.41,0,0,1,1.41,1.41v3.5a1.7,1.7,0,0,0,1.42,1.49h56A1.42,1.42,0,0,1,393.9,36V203.1a13.82,13.82,0,0,1-2,6.51l-37.52,65.31,0,.06a2.48,2.48,0,0,1-3.45.59l-41.81-24.06a5.09,5.09,0,0,0-.79-.21L204,235.8a1.84,1.84,0,0,1-1-.43Z" transform="translate(0.14 0.14)"/></g><g id="LWPOLYLINE-2" data-name="LWPOLYLINE"><path class="cls-3" d="M603,194.4a1.38,1.38,0,0,0-1-.42H446.1a1.41,1.41,0,0,1-1.41-1.41V35.94a1.42,1.42,0,0,1,1.41-1.42H551a1.41,1.41,0,0,0,1.42-1.41V22.48a1.42,1.42,0,0,1,1.42-1.42h51a1.42,1.42,0,0,0,1.41-1.42V16.1a1.42,1.42,0,0,1,1.42-1.42h48.19a1.41,1.41,0,0,1,1.42,1.42v3.54a1.42,1.42,0,0,0,1.42,1.42h51a1.41,1.41,0,0,1,1.42,1.42v4.25a1.43,1.43,0,0,0,1.42,1.42h51A1.41,1.41,0,0,1,765,29.56V170.69a5.24,5.24,0,0,0,1.64,2.81l54.08,31.29a3.81,3.81,0,0,1,1.08,4.82L784.3,274.92l0,.06a2.48,2.48,0,0,1-3.45.59L739,251.51a5.09,5.09,0,0,0-.79-.21l-104.3-15.5a1.84,1.84,0,0,1-1-.43Z" transform="translate(0.14 0.14)"/></g><g id="LWPOLYLINE-3" data-name="LWPOLYLINE"><path class="cls-2" d="M772.46,31.15v135.1a5.09,5.09,0,0,0,1.79,4l50.67,29.78a2.25,2.25,0,0,0,3-1.21,2.38,2.38,0,0,0,.15-.52V31.18a1.42,1.42,0,0,0-1.42-1.41H773.88a1.41,1.41,0,0,0-1.42,1.41" transform="translate(0.14 0.14)"/></g><g id="CIRCLE"><path class="cls-2" d="M186.65,189.72a3.12,3.12,0,1,1,3.12,3.12,3.12,3.12,0,0,1-3.12-3.12Z" transform="translate(0.14 0.14)"/></g><g id="CIRCLE-2" data-name="CIRCLE"><path class="cls-2" d="M279.57,77.05a3.12,3.12,0,1,1,3.11,3.12,3.12,3.12,0,0,1-3.11-3.12Z" transform="translate(0.14 0.14)"/></g><g id="CIRCLE-3" data-name="CIRCLE"><path class="cls-2" d="M64.07,87.32a3.12,3.12,0,1,1,3.12,3.12,3.12,3.12,0,0,1-3.12-3.12Z" transform="translate(0.14 0.14)"/></g><g id="CIRCLE-4" data-name="CIRCLE"><path class="cls-2" d="M64.05,141.22a3.12,3.12,0,1,1,3.11,3.12,3.12,3.12,0,0,1-3.11-3.12Z" transform="translate(0.14 0.14)"/></g><g id="CIRCLE-5" data-name="CIRCLE"><path class="cls-2" d="M318.52,211.7a3.12,3.12,0,1,1,3.12,3.12,3.12,3.12,0,0,1-3.12-3.12Z" transform="translate(0.14 0.14)"/></g><g id="CIRCLE-6" data-name="CIRCLE"><path class="cls-2" d="M709.52,77.05a3.12,3.12,0,1,1,3.11,3.11,3.11,3.11,0,0,1-3.11-3.11Z" transform="translate(0.14 0.14)"/></g><g id="CIRCLE-7" data-name="CIRCLE"><path class="cls-2" d="M494,87.31a3.12,3.12,0,1,1,3.12,3.12A3.12,3.12,0,0,1,494,87.31Z" transform="translate(0.14 0.14)"/></g><g id="CIRCLE-8" data-name="CIRCLE"><path class="cls-2" d="M494,141.22a3.12,3.12,0,1,1,3.11,3.11,3.11,3.11,0,0,1-3.11-3.11Z" transform="translate(0.14 0.14)"/></g><g id="CIRCLE-9" data-name="CIRCLE"><path class="cls-2" d="M748.47,211.7a3.12,3.12,0,1,1,3.12,3.12,3.12,3.12,0,0,1-3.12-3.12Z" transform="translate(0.14 0.14)"/></g><g id="CIRCLE-10" data-name="CIRCLE"><path class="cls-2" d="M616.6,189.72a3.12,3.12,0,1,1,3.12,3.11,3.12,3.12,0,0,1-3.12-3.11Z" transform="translate(0.14 0.14)"/></g><g id="CIRCLE-11" data-name="CIRCLE"><path class="cls-2" d="M776.73,165.12a3.12,3.12,0,1,1,3.11,3.12,3.12,3.12,0,0,1-3.11-3.12Z" transform="translate(0.14 0.14)"/></g><g id="CIRCLE-12" data-name="CIRCLE"><path class="cls-2" d="M817.83,189.22a3.12,3.12,0,1,1,3.12,3.12,3.12,3.12,0,0,1-3.12-3.12Z" transform="translate(0.14 0.14)"/></g><g id="LWPOLYLINE-4" data-name="LWPOLYLINE"><rect class="cls-2" x="450.7" y="40.87" width="39.26" height="39.26"/></g><g id="LWPOLYLINE-5" data-name="LWPOLYLINE"><rect class="cls-2" x="450.7" y="94.74" width="39.26" height="39.26"/></g><g id="LWPOLYLINE-6" data-name="LWPOLYLINE"><rect class="cls-2" x="450.7" y="148.6" width="39.26" height="39.26"/></g><g id="LWPOLYLINE-7" data-name="LWPOLYLINE"><rect class="cls-2" x="504.56" y="40.87" width="39.26" height="39.26"/></g><g id="LWPOLYLINE-8" data-name="LWPOLYLINE"><rect class="cls-2" x="504.56" y="94.74" width="39.26" height="39.26"/></g><g id="LWPOLYLINE-9" data-name="LWPOLYLINE"><rect class="cls-2" x="504.56" y="148.6" width="39.26" height="39.26"/></g><g id="LWPOLYLINE-10" data-name="LWPOLYLINE"><rect class="cls-2" x="558.42" y="27.41" width="39.26" height="39.26"/></g><g id="LWPOLYLINE-11" data-name="LWPOLYLINE"><rect class="cls-2" x="558.42" y="81.27" width="39.26" height="39.26"/></g><g id="LWPOLYLINE-12" data-name="LWPOLYLINE"><rect class="cls-2" x="558.42" y="135.13" width="39.26" height="39.26"/></g><g id="LWPOLYLINE-13" data-name="LWPOLYLINE"><rect class="cls-2" x="612.28" y="20.68" width="39.26" height="39.26"/></g><g id="LWPOLYLINE-14" data-name="LWPOLYLINE"><rect class="cls-2" x="612.28" y="74.54" width="39.26" height="39.26"/></g><g id="LWPOLYLINE-15" data-name="LWPOLYLINE"><rect class="cls-2" x="612.28" y="128.4" width="39.26" height="39.26"/></g><g id="LWPOLYLINE-16" data-name="LWPOLYLINE"><rect class="cls-2" x="666.14" y="27.41" width="39.26" height="39.26"/></g><g id="LWPOLYLINE-17" data-name="LWPOLYLINE"><rect class="cls-2" x="666.14" y="81.27" width="39.26" height="39.26"/></g><g id="LWPOLYLINE-18" data-name="LWPOLYLINE"><rect class="cls-2" x="666.14" y="135.13" width="39.26" height="39.26"/></g><g id="LWPOLYLINE-19" data-name="LWPOLYLINE"><rect class="cls-2" x="720.01" y="34.14" width="39.26" height="39.26"/></g><g id="LWPOLYLINE-20" data-name="LWPOLYLINE"><rect class="cls-2" x="720.01" y="88" width="39.26" height="39.26"/></g><g id="LWPOLYLINE-21" data-name="LWPOLYLINE"><rect class="cls-2" x="720.01" y="141.87" width="39.26" height="39.26"/></g><g id="LWPOLYLINE-22" data-name="LWPOLYLINE"><rect class="cls-2" x="639.21" y="190.77" width="39.26" height="39.26"/></g><g id="LWPOLYLINE-23" data-name="LWPOLYLINE"><rect class="cls-2" x="698.63" y="198.42" width="39.26" height="39.26" transform="translate(322.52 855.95) rotate(-75.06)"/></g><g id="LWPOLYLINE-24" data-name="LWPOLYLINE"><rect class="cls-2" x="761.69" y="209.03" width="39.26" height="39.26" transform="translate(193.16 791.52) rotate(-60.04)"/></g><g id="LWPOLYLINE-25" data-name="LWPOLYLINE"><path class="cls-2" d="M669.59,499a1.42,1.42,0,0,1,1-.42H826.51a1.42,1.42,0,0,0,1.42-1.41V340.5a1.43,1.43,0,0,0-1.42-1.42H721.62a1.42,1.42,0,0,1-1.42-1.41V327a1.41,1.41,0,0,0-1.42-1.42h-51a1.42,1.42,0,0,1-1.42-1.42v-3.54a1.41,1.41,0,0,0-1.42-1.42H616.73a1.42,1.42,0,0,0-1.42,1.42v3.54a1.42,1.42,0,0,1-1.41,1.42h-51a1.42,1.42,0,0,0-1.42,1.42v4.25a1.42,1.42,0,0,1-1.42,1.42H509a1.41,1.41,0,0,0-1.42,1.41v3.5a1.7,1.7,0,0,1-1.42,1.49h-56a1.42,1.42,0,0,0-1.42,1.41V507.66a13.94,13.94,0,0,0,2,6.51l37.52,65.31,0,.06a2.48,2.48,0,0,0,3.45.59l41.81-24.06a5.41,5.41,0,0,1,.79-.21l104.3-15.5a1.81,1.81,0,0,0,1-.43Z" transform="translate(0.14 0.14)"/></g><g id="LWPOLYLINE-26" data-name="LWPOLYLINE"><path class="cls-3" d="M239.64,499a1.42,1.42,0,0,1,1-.42H396.56a1.42,1.42,0,0,0,1.42-1.41V340.5a1.43,1.43,0,0,0-1.42-1.42H291.67a1.42,1.42,0,0,1-1.42-1.41V327a1.41,1.41,0,0,0-1.42-1.42h-51a1.42,1.42,0,0,1-1.42-1.42v-3.54a1.42,1.42,0,0,0-1.42-1.42H186.78a1.42,1.42,0,0,0-1.42,1.42v3.54a1.42,1.42,0,0,1-1.42,1.42h-51A1.41,1.41,0,0,0,131.5,327v4.25a1.42,1.42,0,0,1-1.42,1.42h-51a1.41,1.41,0,0,0-1.42,1.41V475.25A5.17,5.17,0,0,1,76,478.06L21.92,509.35a3.81,3.81,0,0,0-1.08,4.82l37.52,65.31,0,.06a2.48,2.48,0,0,0,3.45.59l41.81-24.06a5.41,5.41,0,0,1,.79-.21l104.3-15.5a1.81,1.81,0,0,0,1-.43Z" transform="translate(0.14 0.14)"/></g><g id="LWPOLYLINE-27" data-name="LWPOLYLINE"><path class="cls-2" d="M70.2,335.71v135.1a5.12,5.12,0,0,1-1.79,4L17.74,504.61a2.26,2.26,0,0,1-2.95-1.21,2.38,2.38,0,0,1-.15-.52V335.74a1.42,1.42,0,0,1,1.42-1.41H68.79a1.41,1.41,0,0,1,1.41,1.41" transform="translate(0.14 0.14)"/></g><g id="CIRCLE-13" data-name="CIRCLE"><path class="cls-2" d="M656,494.28a3.12,3.12,0,1,0-3.12,3.12,3.12,3.12,0,0,0,3.12-3.12Z" transform="translate(0.14 0.14)"/></g><g id="CIRCLE-14" data-name="CIRCLE"><path class="cls-2" d="M563.1,381.61a3.12,3.12,0,1,0-3.12,3.12,3.12,3.12,0,0,0,3.12-3.12Z" transform="translate(0.14 0.14)"/></g><g id="CIRCLE-15" data-name="CIRCLE"><path class="cls-2" d="M778.59,391.88a3.12,3.12,0,1,0-3.12,3.12,3.12,3.12,0,0,0,3.12-3.12Z" transform="translate(0.14 0.14)"/></g><g id="CIRCLE-16" data-name="CIRCLE"><path class="cls-2" d="M778.62,445.78a3.12,3.12,0,1,0-3.12,3.12,3.12,3.12,0,0,0,3.12-3.12Z" transform="translate(0.14 0.14)"/></g><g id="CIRCLE-17" data-name="CIRCLE"><path class="cls-2" d="M524.14,516.26a3.12,3.12,0,1,0-3.11,3.12,3.12,3.12,0,0,0,3.11-3.12Z" transform="translate(0.14 0.14)"/></g><g id="CIRCLE-18" data-name="CIRCLE"><path class="cls-2" d="M133.15,381.61a3.12,3.12,0,1,0-3.12,3.11,3.12,3.12,0,0,0,3.12-3.11Z" transform="translate(0.14 0.14)"/></g><g id="CIRCLE-19" data-name="CIRCLE"><path class="cls-2" d="M348.64,391.87a3.12,3.12,0,1,0-3.12,3.12,3.11,3.11,0,0,0,3.12-3.12Z" transform="translate(0.14 0.14)"/></g><g id="CIRCLE-20" data-name="CIRCLE"><path class="cls-2" d="M348.67,445.78a3.12,3.12,0,1,0-3.12,3.11,3.12,3.12,0,0,0,3.12-3.11Z" transform="translate(0.14 0.14)"/></g><g id="CIRCLE-21" data-name="CIRCLE"><path class="cls-2" d="M94.19,516.26a3.12,3.12,0,1,0-3.11,3.12,3.12,3.12,0,0,0,3.11-3.12Z" transform="translate(0.14 0.14)"/></g><g id="CIRCLE-22" data-name="CIRCLE"><path class="cls-2" d="M226.06,494.28a3.12,3.12,0,1,0-3.12,3.11,3.11,3.11,0,0,0,3.12-3.11Z" transform="translate(0.14 0.14)"/></g><g id="CIRCLE-23" data-name="CIRCLE"><path class="cls-2" d="M65.94,469.68a3.12,3.12,0,1,0-3.12,3.12,3.12,3.12,0,0,0,3.12-3.12Z" transform="translate(0.14 0.14)"/></g><g id="CIRCLE-24" data-name="CIRCLE"><path class="cls-2" d="M24.83,493.78a3.12,3.12,0,1,0-3.12,3.12,3.11,3.11,0,0,0,3.12-3.12Z" transform="translate(0.14 0.14)"/></g><g id="LWPOLYLINE-28" data-name="LWPOLYLINE"><rect class="cls-2" x="352.99" y="345.43" width="39.26" height="39.26"/></g><g id="LWPOLYLINE-29" data-name="LWPOLYLINE"><rect class="cls-2" x="352.99" y="399.3" width="39.26" height="39.26"/></g><g id="LWPOLYLINE-30" data-name="LWPOLYLINE"><rect class="cls-2" x="352.99" y="453.16" width="39.26" height="39.26"/></g><g id="LWPOLYLINE-31" data-name="LWPOLYLINE"><rect class="cls-2" x="299.12" y="345.43" width="39.26" height="39.26"/></g><g id="LWPOLYLINE-32" data-name="LWPOLYLINE"><rect class="cls-2" x="299.12" y="399.3" width="39.26" height="39.26"/></g><g id="LWPOLYLINE-33" data-name="LWPOLYLINE"><rect class="cls-2" x="299.12" y="453.16" width="39.26" height="39.26"/></g><g id="LWPOLYLINE-34" data-name="LWPOLYLINE"><rect class="cls-2" x="245.26" y="331.97" width="39.26" height="39.26"/></g><g id="LWPOLYLINE-35" data-name="LWPOLYLINE"><rect class="cls-2" x="245.26" y="385.83" width="39.26" height="39.26"/></g><g id="LWPOLYLINE-36" data-name="LWPOLYLINE"><rect class="cls-2" x="245.26" y="439.69" width="39.26" height="39.26"/></g><g id="LWPOLYLINE-37" data-name="LWPOLYLINE"><rect class="cls-2" x="191.4" y="325.24" width="39.26" height="39.26"/></g><g id="LWPOLYLINE-38" data-name="LWPOLYLINE"><rect class="cls-2" x="191.4" y="379.1" width="39.26" height="39.26"/></g><g id="LWPOLYLINE-39" data-name="LWPOLYLINE"><rect class="cls-2" x="191.4" y="432.96" width="39.26" height="39.26"/></g><g id="LWPOLYLINE-40" data-name="LWPOLYLINE"><rect class="cls-2" x="137.54" y="331.97" width="39.26" height="39.26"/></g><g id="LWPOLYLINE-41" data-name="LWPOLYLINE"><rect class="cls-2" x="137.54" y="385.83" width="39.26" height="39.26"/></g><g id="LWPOLYLINE-42" data-name="LWPOLYLINE"><rect class="cls-2" x="137.54" y="439.69" width="39.26" height="39.26"/></g><g id="LWPOLYLINE-43" data-name="LWPOLYLINE"><rect class="cls-2" x="83.68" y="338.7" width="39.26" height="39.26"/></g><g id="LWPOLYLINE-44" data-name="LWPOLYLINE"><rect class="cls-2" x="83.68" y="392.56" width="39.26" height="39.26"/></g><g id="LWPOLYLINE-45" data-name="LWPOLYLINE"><rect class="cls-2" x="83.68" y="446.43" width="39.26" height="39.26"/></g><g id="LWPOLYLINE-46" data-name="LWPOLYLINE"><rect class="cls-2" x="164.47" y="495.33" width="39.26" height="39.26"/></g><g id="LWPOLYLINE-47" data-name="LWPOLYLINE"><rect class="cls-2" x="104.77" y="502.98" width="39.26" height="39.26" transform="translate(-130.4 49.89) rotate(-14.94)"/></g><g id="LWPOLYLINE-48" data-name="LWPOLYLINE"><rect class="cls-2" x="41.71" y="513.59" width="39.26" height="39.26" transform="translate(-257.96 102.03) rotate(-29.96)"/></g></g></svg>