<svg xmlns="http://www.w3.org/2000/svg" viewBox="0 0 811.15 565.37"><defs><style>.cls-1{fill:none;stroke:red;stroke-linecap:round;stroke-linejoin:round;stroke-width:0.28px;}</style></defs><title>corne-classic-tent</title><g id="彫刻パス"><path d="M497.08,189c.05,1.91-1.74,7.82-6.23,7.82a3.85,3.85,0,0,1-3.2-1.66,6.62,6.62,0,0,1-.94-3.7c0-3.11,1.26-7.19,3.87-11.82,2.54-4.46,3.94-8.36,3.92-11.28a6.59,6.59,0,0,0-1.08-3.85,8.17,8.17,0,0,0-3.66-2.78,9.45,9.45,0,0,0-3.71-.8,10.48,10.48,0,0,0-7.15,3.17,22.73,22.73,0,0,0-5.35,8.26,40.15,40.15,0,0,0-2.57,13.6,25.22,25.22,0,0,0,.86,6.67c-5.7-8-2.8-18.81-.41-23.81a7.45,7.45,0,0,0-2.78-.55h-.16c-2.86.06-5.53,1.81-7.57,4.88a22.35,22.35,0,0,0-3.31,12.2V186a24.33,24.33,0,0,0,2,9.35,20,20,0,0,1-4.4-17.16,4.61,4.61,0,0,0-1.1-.14h0a3.78,3.78,0,0,0-.67.05,6,6,0,0,0-4.19,3.12,14,14,0,0,0-1.78,7.14,19.23,19.23,0,0,0,.18,2.59,15.94,15.94,0,0,0,3.29,7.84,7,7,0,0,0,5.21,2.91,9.47,9.47,0,0,0,5.82-2.46c2,2.54,4.56,3.95,7.15,3.95s5.43-1.57,7.33-3a16.48,16.48,0,0,0,4.88,2.9A12.85,12.85,0,0,0,486,204C500,204,498.8,190.84,497.08,189Z" transform="translate(-15.2 -14.93)"/><path d="M519,195a6.85,6.85,0,0,1-7,5.55,7.24,7.24,0,1,1-.05-14.48,6.86,6.86,0,0,1,7.08,5.58h-2.61a4.47,4.47,0,0,0-4.44-3.32,5,5,0,0,0,0,10,4.44,4.44,0,0,0,4.42-3.32Z" transform="translate(-15.2 -14.93)"/><path d="M527.66,200.61c-3.78,0-7.53-2.45-7.53-7.27s3.79-7.27,7.6-7.27,7.53,2.44,7.53,7.27S531.47,200.61,527.66,200.61Zm0-2.29a5,5,0,1,0-5-5A4.82,4.82,0,0,0,527.66,198.32Z" transform="translate(-15.2 -14.93)"/><path d="M539.74,186.33V188c1.34-1.89,3.4-2.33,5.64-1.82v2.24a4.36,4.36,0,0,0-5.64,4.28v7.6h-2.52v-14Z" transform="translate(-15.2 -14.93)"/><path d="M549.6,186.31V188a4.76,4.76,0,0,1,4.31-1.94c4.28,0,6.09,2.67,6.09,6.69v7.55h-2.52v-7.52c0-2.62-.67-4.42-3.65-4.47-2.73,0-4.23,1.9-4.23,4.36v7.63h-2.55v-14Z" transform="translate(-15.2 -14.93)"/><path d="M576.1,193.93H564.21c0,2.75,2.62,4.42,4.72,4.42a4.54,4.54,0,0,0,4.19-2.34h2.62a7.29,7.29,0,0,1-14.07-2.67c0-4.83,3.58-7.24,7.29-7.24a6.89,6.89,0,0,1,7.19,6.61A4.44,4.44,0,0,1,576.1,193.93Zm-2.63-2.09a4.25,4.25,0,0,0-4.51-3.51,4.43,4.43,0,0,0-4.65,3.51Z" transform="translate(-15.2 -14.93)"/><path d="M311.34,474.28c0,1.91-1.75,7.82-6.24,7.82a3.82,3.82,0,0,1-3.19-1.65,6.58,6.58,0,0,1-.94-3.71c0-3.11,1.26-7.19,3.86-11.81s3.94-8.37,3.92-11.28a6.67,6.67,0,0,0-1.07-3.86A8.3,8.3,0,0,0,304,447a9.46,9.46,0,0,0-3.72-.8,10.47,10.47,0,0,0-7.15,3.18,22.8,22.8,0,0,0-5.34,8.25,40.11,40.11,0,0,0-2.58,13.6,25.35,25.35,0,0,0,.87,6.68c-5.7-8-2.8-18.82-.41-23.82a7.54,7.54,0,0,0-2.79-.55h-.16c-2.85.06-5.53,1.81-7.57,4.88a22.44,22.44,0,0,0-3.3,12.2v.61a24.15,24.15,0,0,0,2,9.35,20,20,0,0,1-4.39-17.16,4.74,4.74,0,0,0-1.1-.14h0a3.67,3.67,0,0,0-.66.05,6.09,6.09,0,0,0-4.2,3.12,14.12,14.12,0,0,0-1.77,7.14,17.86,17.86,0,0,0,.18,2.6,15.89,15.89,0,0,0,3.28,7.83,7,7,0,0,0,5.21,2.92,9.51,9.51,0,0,0,5.83-2.47c2,2.54,4.55,3.95,7.15,3.95s5.42-1.57,7.33-3a16.48,16.48,0,0,0,4.88,2.9,12.77,12.77,0,0,0,4.69.93C314.29,489.27,313.06,476.14,311.34,474.28Z" transform="translate(-15.2 -14.93)"/><path d="M333.26,480.3a6.86,6.86,0,0,1-7,5.55,7,7,0,0,1-7.35-7.24c0-4.85,3.64-7.23,7.3-7.23a6.87,6.87,0,0,1,7.08,5.58h-2.62a4.45,4.45,0,0,0-4.44-3.33,5,5,0,0,0,0,10,4.43,4.43,0,0,0,4.41-3.32Z" transform="translate(-15.2 -14.93)"/><path d="M341.92,485.91c-3.78,0-7.53-2.45-7.53-7.27s3.78-7.26,7.6-7.26,7.53,2.43,7.53,7.26S345.73,485.91,341.92,485.91Zm0-2.29a5,5,0,1,0-5-5A4.82,4.82,0,0,0,341.92,483.62Z" transform="translate(-15.2 -14.93)"/><path d="M354,471.64v1.7c1.35-1.88,3.4-2.33,5.64-1.81v2.23A4.36,4.36,0,0,0,354,478v7.61h-2.51v-14Z" transform="translate(-15.2 -14.93)"/><path d="M363.86,471.61v1.73a4.76,4.76,0,0,1,4.31-1.94c4.27,0,6.09,2.67,6.09,6.69v7.56h-2.52v-7.53c0-2.62-.68-4.41-3.66-4.46-2.72-.06-4.22,1.89-4.22,4.35v7.64H361.3v-14Z" transform="translate(-15.2 -14.93)"/><path d="M390.35,479.24H378.47c0,2.75,2.61,4.41,4.72,4.41a4.56,4.56,0,0,0,4.19-2.34H390a7.29,7.29,0,0,1-14.07-2.67c0-4.83,3.59-7.24,7.29-7.24A6.88,6.88,0,0,1,390.4,478,3.84,3.84,0,0,1,390.35,479.24Zm-2.62-2.1a4.26,4.26,0,0,0-4.52-3.51,4.44,4.44,0,0,0-4.65,3.51Z" transform="translate(-15.2 -14.93)"/></g><g id="レイヤー_3" data-name="レイヤー 3"><path class="cls-1" d="M531.39,9.47" transform="translate(-15.2 -14.93)"/><g id="LWPOLYLINE"><path class="cls-1" d="M781.62,524.5H646.52a5.09,5.09,0,0,0-4,1.78L612.73,577a2.24,2.24,0,0,0,1.2,2.95,2.46,2.46,0,0,0,.53.15H781.59a1.43,1.43,0,0,0,1.42-1.42V525.92a1.42,1.42,0,0,0-1.42-1.42" transform="translate(-15.2 -14.93)"/></g><g id="CIRCLE"><path class="cls-1" d="M647.65,528.76a3.12,3.12,0,1,1-3.11,3.12,3.12,3.12,0,0,1,3.11-3.12Z" transform="translate(-15.2 -14.93)"/></g><g id="CIRCLE-2" data-name="CIRCLE"><path class="cls-1" d="M623.56,569.87a3.12,3.12,0,1,1-3.12,3.12,3.12,3.12,0,0,1,3.12-3.12Z" transform="translate(-15.2 -14.93)"/></g><path class="cls-1" d="M425.6,258.38" transform="translate(-15.2 -14.93)"/><path class="cls-1" d="M411.42,282.93" transform="translate(-15.2 -14.93)"/><path class="cls-1" d="M409.31,256.16" transform="translate(-15.2 -14.93)"/><g id="LWPOLYLINE-2" data-name="LWPOLYLINE"><path class="cls-1" d="M389,520.88H253.86a5.13,5.13,0,0,0-4,1.79l-29.78,50.67a2.25,2.25,0,0,0,1.21,2.95,2.38,2.38,0,0,0,.52.15H388.93a1.42,1.42,0,0,0,1.42-1.42V522.3a1.43,1.43,0,0,0-1.42-1.42" transform="translate(-15.2 -14.93)"/></g><g id="CIRCLE-3" data-name="CIRCLE"><path class="cls-1" d="M255,525.15a3.12,3.12,0,1,1-3.12,3.12,3.12,3.12,0,0,1,3.12-3.12Z" transform="translate(-15.2 -14.93)"/></g><g id="CIRCLE-4" data-name="CIRCLE"><path class="cls-1" d="M230.89,566.25a3.12,3.12,0,1,1-3.11,3.12,3.12,3.12,0,0,1,3.11-3.12Z" transform="translate(-15.2 -14.93)"/></g><g id="CIRCLE-5" data-name="CIRCLE"><path class="cls-1" d="M729.4,29.25a7.37,7.37,0,1,1,7.37,7.37,7.37,7.37,0,0,1-7.37-7.37Z" transform="translate(-15.2 -14.93)"/></g><g id="CIRCLE-6" data-name="CIRCLE"><path class="cls-1" d="M428.11,82.12a7.37,7.37,0,1,1,7.37-7.37,7.37,7.37,0,0,1-7.37,7.37Z" transform="translate(-15.2 -14.93)"/></g><path class="cls-1" d="M819.1,224.56l-7.74,13.52a8.51,8.51,0,0,0,3.08,11.56l4.68,2.75h0A14.17,14.17,0,1,1,805,276.93l-4.56-2.66a8.51,8.51,0,0,0-11.66,3.12l-7.2,12.54a2.47,2.47,0,0,1-3.44.59l-41.81-24.07a5.51,5.51,0,0,0-.8-.2l-104.29-15.5a1.84,1.84,0,0,1-1-.43l-29.89-41a1.42,1.42,0,0,0-1-.42H443.38a1.41,1.41,0,0,1-1.42-1.41V97.42a8.5,8.5,0,0,0-8.5-8.5h-5.34A14.17,14.17,0,0,1,414,74.06a14.44,14.44,0,0,1,14.55-13.49h4.95a8.5,8.5,0,0,0,8.5-8.5V50.89h0a1.43,1.43,0,0,1,1.42-1.42H548.27a1.41,1.41,0,0,0,1.41-1.42V37.42A1.42,1.42,0,0,1,551.1,36h51a1.43,1.43,0,0,0,1.42-1.42V31.05A1.41,1.41,0,0,1,605,29.63h48.2a1.41,1.41,0,0,1,1.41,1.42v3.54A1.43,1.43,0,0,0,656,36h51a1.42,1.42,0,0,1,1.42,1.41v4.26a1.41,1.41,0,0,0,1.41,1.41h4.25a8.51,8.51,0,0,0,8.5-8.5V29.65a14.44,14.44,0,0,1,13.48-14.56,14.18,14.18,0,0,1,14.86,14.16v5.34a8.51,8.51,0,0,0,8.5,8.5h1.44a1.43,1.43,0,0,1,1.42,1.42V48a1.69,1.69,0,0,0,1.42,1.49h56a1.41,1.41,0,0,1,1.41,1.42V218a13.93,13.93,0,0,1-2,6.51" transform="translate(-15.2 -14.93)"/><g id="CIRCLE-7" data-name="CIRCLE"><path class="cls-1" d="M815.72,258.28a7.37,7.37,0,1,1-10.06,2.7,7.36,7.36,0,0,1,10.06-2.7Z" transform="translate(-15.2 -14.93)"/></g><g id="CIRCLE-8" data-name="CIRCLE"><path class="cls-1" d="M613.86,204.66a3.12,3.12,0,1,1,3.12,3.12,3.12,3.12,0,0,1-3.12-3.12Z" transform="translate(-15.2 -14.93)"/></g><g id="CIRCLE-9" data-name="CIRCLE"><path class="cls-1" d="M706.78,92a3.12,3.12,0,1,1,3.12,3.12A3.12,3.12,0,0,1,706.78,92Z" transform="translate(-15.2 -14.93)"/></g><g id="CIRCLE-10" data-name="CIRCLE"><path class="cls-1" d="M491.28,102.26a3.12,3.12,0,1,1,3.12,3.12,3.12,3.12,0,0,1-3.12-3.12Z" transform="translate(-15.2 -14.93)"/></g><g id="CIRCLE-11" data-name="CIRCLE"><path class="cls-1" d="M491.26,156.16a3.12,3.12,0,1,1,3.12,3.12,3.12,3.12,0,0,1-3.12-3.12Z" transform="translate(-15.2 -14.93)"/></g><g id="CIRCLE-12" data-name="CIRCLE"><path class="cls-1" d="M745.73,226.64a3.12,3.12,0,1,1,3.12,3.12,3.12,3.12,0,0,1-3.12-3.12Z" transform="translate(-15.2 -14.93)"/></g><path class="cls-1" d="M358.26,256.82" transform="translate(-15.2 -14.93)"/><path class="cls-1" d="M401.63,283.45" transform="translate(-15.2 -14.93)"/><path class="cls-1" d="M397.5,281.31" transform="translate(-15.2 -14.93)"/><g id="CIRCLE-13" data-name="CIRCLE"><path class="cls-1" d="M308.26,93a3.12,3.12,0,1,1,3.12,3.12A3.12,3.12,0,0,1,308.26,93Z" transform="translate(-15.2 -14.93)"/></g><g id="CIRCLE-14" data-name="CIRCLE"><path class="cls-1" d="M92.77,103.26a3.12,3.12,0,1,1,3.12,3.12,3.12,3.12,0,0,1-3.12-3.12Z" transform="translate(-15.2 -14.93)"/></g><g id="CIRCLE-15" data-name="CIRCLE"><path class="cls-1" d="M92.74,157.16a3.12,3.12,0,1,1,3.12,3.12,3.12,3.12,0,0,1-3.12-3.12Z" transform="translate(-15.2 -14.93)"/></g><g id="CIRCLE-16" data-name="CIRCLE"><path class="cls-1" d="M347.22,227.64a3.12,3.12,0,1,1,3.11,3.12,3.11,3.11,0,0,1-3.11-3.12Z" transform="translate(-15.2 -14.93)"/></g><g id="CIRCLE-17" data-name="CIRCLE"><path class="cls-1" d="M215.35,205.66a3.12,3.12,0,1,1,3.12,3.12,3.12,3.12,0,0,1-3.12-3.12Z" transform="translate(-15.2 -14.93)"/></g><g id="LWPOLYLINE-3" data-name="LWPOLYLINE"><rect class="cls-1" x="34.1" y="41.75" width="39.26" height="39.26"/></g><g id="LWPOLYLINE-4" data-name="LWPOLYLINE"><rect class="cls-1" x="34.1" y="95.61" width="39.26" height="39.26"/></g><g id="LWPOLYLINE-5" data-name="LWPOLYLINE"><rect class="cls-1" x="34.1" y="149.47" width="39.26" height="39.26"/></g><g id="LWPOLYLINE-6" data-name="LWPOLYLINE"><rect class="cls-1" x="87.96" y="41.75" width="39.26" height="39.26"/></g><g id="LWPOLYLINE-7" data-name="LWPOLYLINE"><rect class="cls-1" x="87.96" y="95.61" width="39.26" height="39.26"/></g><g id="LWPOLYLINE-8" data-name="LWPOLYLINE"><rect class="cls-1" x="87.96" y="149.47" width="39.26" height="39.26"/></g><g id="LWPOLYLINE-9" data-name="LWPOLYLINE"><rect class="cls-1" x="141.82" y="28.28" width="39.26" height="39.26"/></g><g id="LWPOLYLINE-10" data-name="LWPOLYLINE"><rect class="cls-1" x="141.82" y="82.14" width="39.26" height="39.26"/></g><g id="LWPOLYLINE-11" data-name="LWPOLYLINE"><rect class="cls-1" x="141.82" y="136.01" width="39.26" height="39.26"/></g><g id="LWPOLYLINE-12" data-name="LWPOLYLINE"><rect class="cls-1" x="195.69" y="21.55" width="39.26" height="39.26"/></g><g id="LWPOLYLINE-13" data-name="LWPOLYLINE"><rect class="cls-1" x="195.69" y="75.41" width="39.26" height="39.26"/></g><g id="LWPOLYLINE-14" data-name="LWPOLYLINE"><rect class="cls-1" x="195.69" y="129.27" width="39.26" height="39.26"/></g><g id="LWPOLYLINE-15" data-name="LWPOLYLINE"><rect class="cls-1" x="249.55" y="28.28" width="39.26" height="39.26"/></g><g id="LWPOLYLINE-16" data-name="LWPOLYLINE"><rect class="cls-1" x="249.55" y="82.14" width="39.26" height="39.26"/></g><g id="LWPOLYLINE-17" data-name="LWPOLYLINE"><rect class="cls-1" x="249.55" y="136.01" width="39.26" height="39.26"/></g><g id="LWPOLYLINE-18" data-name="LWPOLYLINE"><rect class="cls-1" x="303.41" y="35.01" width="39.26" height="39.26"/></g><g id="LWPOLYLINE-19" data-name="LWPOLYLINE"><rect class="cls-1" x="303.41" y="88.88" width="39.26" height="39.26"/></g><g id="LWPOLYLINE-20" data-name="LWPOLYLINE"><rect class="cls-1" x="303.41" y="142.74" width="39.26" height="39.26"/></g><g id="LWPOLYLINE-21" data-name="LWPOLYLINE"><rect class="cls-1" x="222.62" y="191.64" width="39.26" height="39.26"/></g><g id="LWPOLYLINE-22" data-name="LWPOLYLINE"><rect class="cls-1" x="297.37" y="214.37" width="39.26" height="39.26" transform="translate(-6.02 465.02) rotate(-75.06)"/></g><g id="LWPOLYLINE-23" data-name="LWPOLYLINE"><rect class="cls-1" x="360.44" y="224.98" width="39.26" height="39.26" transform="translate(-36.87 436.8) rotate(-60.04)"/></g><path class="cls-1" d="M319.93,44.08" transform="translate(-15.2 -14.93)"/><path class="cls-1" d="M356.56,44.08" transform="translate(-15.2 -14.93)"/><path class="cls-1" d="M324.07,30.25" transform="translate(-15.2 -14.93)"/><g id="CIRCLE-18" data-name="CIRCLE"><path class="cls-1" d="M330.87,30.25a7.37,7.37,0,1,1,7.37,7.37,7.37,7.37,0,0,1-7.37-7.37Z" transform="translate(-15.2 -14.93)"/></g><g id="CIRCLE-19" data-name="CIRCLE"><path class="cls-1" d="M29.59,83.11A7.37,7.37,0,1,1,37,75.74a7.37,7.37,0,0,1-7.37,7.37Z" transform="translate(-15.2 -14.93)"/></g><g id="CIRCLE-20" data-name="CIRCLE"><path class="cls-1" d="M29.59,89.92h0A14.18,14.18,0,0,1,15.43,75.06,14.44,14.44,0,0,1,30,61.57h4.94a8.5,8.5,0,0,0,8.5-8.5V51.89h0a1.42,1.42,0,0,1,1.42-1.42H149.74a1.42,1.42,0,0,0,1.42-1.42V38.42A1.41,1.41,0,0,1,152.57,37h51A1.43,1.43,0,0,0,205,35.59V32a1.41,1.41,0,0,1,1.42-1.41h48.19A1.42,1.42,0,0,1,256.05,32v3.55A1.42,1.42,0,0,0,257.46,37h51a1.42,1.42,0,0,1,1.42,1.41v4.25a1.41,1.41,0,0,0,1.42,1.42h4.24a8.5,8.5,0,0,0,8.5-8.5V30.65a14.43,14.43,0,0,1,13.49-14.56,14.18,14.18,0,0,1,14.86,14.16v5.34a8.5,8.5,0,0,0,8.49,8.5h1.44a1.42,1.42,0,0,1,1.42,1.42V186.64a5.21,5.21,0,0,0,1.64,2.81l54.08,31.28a3.83,3.83,0,0,1,1.08,4.83l-7.74,13.52a8.51,8.51,0,0,0,3.08,11.56l4.69,2.74h0a14.18,14.18,0,0,1-14.18,24.55l-4.55-2.66a8.52,8.52,0,0,0-11.67,3.11L383,290.93a2.48,2.48,0,0,1-3.45.59l-41.81-24.07a4.36,4.36,0,0,0-.79-.2l-104.3-15.51a1.73,1.73,0,0,1-1-.42l-29.9-41a1.42,1.42,0,0,0-1-.42H44.85a1.42,1.42,0,0,1-1.42-1.42V98.42a8.5,8.5,0,0,0-8.51-8.5Z" transform="translate(-15.2 -14.93)"/></g><g id="CIRCLE-21" data-name="CIRCLE"><path class="cls-1" d="M417.2,259.28A7.37,7.37,0,1,1,407.13,262a7.36,7.36,0,0,1,10.07-2.69Z" transform="translate(-15.2 -14.93)"/></g><g id="CIRCLE-22" data-name="CIRCLE"><path class="cls-1" d="M112.16,317.43a7.37,7.37,0,1,0-7.37,7.37,7.37,7.37,0,0,0,7.37-7.37Z" transform="translate(-15.2 -14.93)"/></g><g id="CIRCLE-23" data-name="CIRCLE"><path class="cls-1" d="M413.44,370.3a7.37,7.37,0,1,0-7.37-7.37,7.37,7.37,0,0,0,7.37,7.37Z" transform="translate(-15.2 -14.93)"/></g><path class="cls-1" d="M22.46,512.74l7.74,13.53a8.51,8.51,0,0,1-3.08,11.56l-4.69,2.74h0a14.18,14.18,0,1,0,14.18,24.55l4.55-2.66a8.52,8.52,0,0,1,11.67,3.11L60,578.11a2.48,2.48,0,0,0,3.45.6l41.81-24.07a4.36,4.36,0,0,1,.79-.2l104.3-15.51a1.73,1.73,0,0,0,1-.42l29.9-41a1.45,1.45,0,0,1,1-.41H398.18a1.43,1.43,0,0,0,1.42-1.42V385.61a8.5,8.5,0,0,1,8.51-8.5h5.33a14.18,14.18,0,0,0,14.16-14.86A14.44,14.44,0,0,0,413,348.76H408.1a8.5,8.5,0,0,1-8.5-8.51v-1.17h0a1.42,1.42,0,0,0-1.42-1.42H293.29a1.43,1.43,0,0,1-1.42-1.42V325.61a1.42,1.42,0,0,0-1.41-1.42h-51a1.42,1.42,0,0,1-1.42-1.41v-3.55a1.42,1.42,0,0,0-1.42-1.42H188.4a1.43,1.43,0,0,0-1.42,1.42v3.55a1.41,1.41,0,0,1-1.41,1.41h-51a1.43,1.43,0,0,0-1.42,1.42v4.25a1.41,1.41,0,0,1-1.42,1.42h-4.24a8.51,8.51,0,0,1-8.5-8.51v-4.94a14.43,14.43,0,0,0-13.49-14.55,14.17,14.17,0,0,0-14.86,14.15v5.35a8.5,8.5,0,0,1-8.49,8.5H80.68a1.42,1.42,0,0,0-1.42,1.42v3.49a1.67,1.67,0,0,1-1.42,1.48h-56a1.43,1.43,0,0,0-1.42,1.42V506.23a13.94,13.94,0,0,0,2,6.51" transform="translate(-15.2 -14.93)"/><g id="CIRCLE-24" data-name="CIRCLE"><path class="cls-1" d="M25.83,546.46a7.37,7.37,0,1,0,10.07,2.7,7.37,7.37,0,0,0-10.07-2.7Z" transform="translate(-15.2 -14.93)"/></g><g id="CIRCLE-25" data-name="CIRCLE"><path class="cls-1" d="M227.69,492.85a3.12,3.12,0,1,0-3.12,3.12,3.12,3.12,0,0,0,3.12-3.12Z" transform="translate(-15.2 -14.93)"/></g><g id="CIRCLE-26" data-name="CIRCLE"><path class="cls-1" d="M134.78,380.18a3.12,3.12,0,1,0-3.12,3.12,3.12,3.12,0,0,0,3.12-3.12Z" transform="translate(-15.2 -14.93)"/></g><g id="CIRCLE-27" data-name="CIRCLE"><path class="cls-1" d="M350.27,390.45a3.12,3.12,0,1,0-3.12,3.11,3.11,3.11,0,0,0,3.12-3.11Z" transform="translate(-15.2 -14.93)"/></g><g id="CIRCLE-28" data-name="CIRCLE"><path class="cls-1" d="M350.3,444.35a3.12,3.12,0,1,0-3.12,3.12,3.12,3.12,0,0,0,3.12-3.12Z" transform="translate(-15.2 -14.93)"/></g><g id="CIRCLE-29" data-name="CIRCLE"><path class="cls-1" d="M95.82,514.83A3.12,3.12,0,1,0,92.71,518a3.12,3.12,0,0,0,3.11-3.12Z" transform="translate(-15.2 -14.93)"/></g><g id="CIRCLE-30" data-name="CIRCLE"><path class="cls-1" d="M533.29,381.18a3.12,3.12,0,1,0-3.11,3.12,3.12,3.12,0,0,0,3.11-3.12Z" transform="translate(-15.2 -14.93)"/></g><g id="CIRCLE-31" data-name="CIRCLE"><path class="cls-1" d="M748.79,391.45a3.12,3.12,0,1,0-3.12,3.12,3.12,3.12,0,0,0,3.12-3.12Z" transform="translate(-15.2 -14.93)"/></g><g id="CIRCLE-32" data-name="CIRCLE"><path class="cls-1" d="M748.81,445.35a3.12,3.12,0,1,0-3.11,3.12,3.12,3.12,0,0,0,3.11-3.12Z" transform="translate(-15.2 -14.93)"/></g><g id="CIRCLE-33" data-name="CIRCLE"><path class="cls-1" d="M494.34,515.83a3.12,3.12,0,1,0-3.12,3.12,3.12,3.12,0,0,0,3.12-3.12Z" transform="translate(-15.2 -14.93)"/></g><g id="CIRCLE-34" data-name="CIRCLE"><path class="cls-1" d="M626.21,493.85a3.12,3.12,0,1,0-3.12,3.12,3.12,3.12,0,0,0,3.12-3.12Z" transform="translate(-15.2 -14.93)"/></g><g id="LWPOLYLINE-24" data-name="LWPOLYLINE"><rect class="cls-1" x="737.79" y="329.93" width="39.26" height="39.26"/></g><g id="LWPOLYLINE-25" data-name="LWPOLYLINE"><rect class="cls-1" x="737.79" y="383.8" width="39.26" height="39.26"/></g><g id="LWPOLYLINE-26" data-name="LWPOLYLINE"><rect class="cls-1" x="737.79" y="437.66" width="39.26" height="39.26"/></g><g id="LWPOLYLINE-27" data-name="LWPOLYLINE"><rect class="cls-1" x="683.93" y="329.93" width="39.26" height="39.26"/></g><g id="LWPOLYLINE-28" data-name="LWPOLYLINE"><rect class="cls-1" x="683.93" y="383.8" width="39.26" height="39.26"/></g><g id="LWPOLYLINE-29" data-name="LWPOLYLINE"><rect class="cls-1" x="683.93" y="437.66" width="39.26" height="39.26"/></g><g id="LWPOLYLINE-30" data-name="LWPOLYLINE"><rect class="cls-1" x="630.07" y="316.47" width="39.26" height="39.26"/></g><g id="LWPOLYLINE-31" data-name="LWPOLYLINE"><rect class="cls-1" x="630.07" y="370.33" width="39.26" height="39.26"/></g><g id="LWPOLYLINE-32" data-name="LWPOLYLINE"><rect class="cls-1" x="630.07" y="424.19" width="39.26" height="39.26"/></g><g id="LWPOLYLINE-33" data-name="LWPOLYLINE"><rect class="cls-1" x="576.21" y="309.73" width="39.26" height="39.26"/></g><g id="LWPOLYLINE-34" data-name="LWPOLYLINE"><rect class="cls-1" x="576.21" y="363.6" width="39.26" height="39.26"/></g><g id="LWPOLYLINE-35" data-name="LWPOLYLINE"><rect class="cls-1" x="576.21" y="417.46" width="39.26" height="39.26"/></g><g id="LWPOLYLINE-36" data-name="LWPOLYLINE"><rect class="cls-1" x="522.34" y="316.47" width="39.26" height="39.26"/></g><g id="LWPOLYLINE-37" data-name="LWPOLYLINE"><rect class="cls-1" x="522.34" y="370.33" width="39.26" height="39.26"/></g><g id="LWPOLYLINE-38" data-name="LWPOLYLINE"><rect class="cls-1" x="522.34" y="424.19" width="39.26" height="39.26"/></g><g id="LWPOLYLINE-39" data-name="LWPOLYLINE"><rect class="cls-1" x="468.48" y="323.2" width="39.26" height="39.26"/></g><g id="LWPOLYLINE-40" data-name="LWPOLYLINE"><rect class="cls-1" x="468.48" y="377.06" width="39.26" height="39.26"/></g><g id="LWPOLYLINE-41" data-name="LWPOLYLINE"><rect class="cls-1" x="468.48" y="430.92" width="39.26" height="39.26"/></g><g id="LWPOLYLINE-42" data-name="LWPOLYLINE"><rect class="cls-1" x="549.27" y="479.83" width="39.26" height="39.26"/></g><g id="LWPOLYLINE-43" data-name="LWPOLYLINE"><rect class="cls-1" x="504.92" y="502.56" width="39.26" height="39.26" transform="translate(-132.11 137.97) rotate(-14.94)"/></g><g id="LWPOLYLINE-44" data-name="LWPOLYLINE"><rect class="cls-1" x="441.86" y="513.17" width="39.26" height="39.26" transform="translate(-219.62 286.74) rotate(-29.96)"/></g><path class="cls-1" d="M521.63,332.27" transform="translate(-15.2 -14.93)"/><path class="cls-1" d="M485,332.27" transform="translate(-15.2 -14.93)"/><path class="cls-1" d="M517.49,318.43" transform="translate(-15.2 -14.93)"/><g id="CIRCLE-35" data-name="CIRCLE"><path class="cls-1" d="M510.68,318.43a7.37,7.37,0,1,0-7.37,7.37,7.37,7.37,0,0,0,7.37-7.37Z" transform="translate(-15.2 -14.93)"/></g><g id="CIRCLE-36" data-name="CIRCLE"><path class="cls-1" d="M812,371.3a7.37,7.37,0,1,0-7.37-7.37A7.37,7.37,0,0,0,812,371.3Z" transform="translate(-15.2 -14.93)"/></g><g id="CIRCLE-37" data-name="CIRCLE"><path class="cls-1" d="M812,378.1h0a14.18,14.18,0,0,0,14.16-14.86,14.44,14.44,0,0,0-14.56-13.48h-4.94a8.51,8.51,0,0,1-8.51-8.51v-1.18h0a1.41,1.41,0,0,0-1.42-1.41H691.82a1.42,1.42,0,0,1-1.42-1.42V326.61a1.42,1.42,0,0,0-1.42-1.42H638a1.41,1.41,0,0,1-1.42-1.42v-3.54a1.43,1.43,0,0,0-1.42-1.42H586.93a1.43,1.43,0,0,0-1.42,1.42v3.54a1.41,1.41,0,0,1-1.42,1.42h-51a1.42,1.42,0,0,0-1.42,1.42v4.25a1.43,1.43,0,0,1-1.42,1.42H526a8.51,8.51,0,0,1-8.5-8.51v-4.94A14.44,14.44,0,0,0,504,304.27a14.18,14.18,0,0,0-14.86,14.16v5.34a8.51,8.51,0,0,1-8.5,8.51H479.2a1.41,1.41,0,0,0-1.41,1.42V474.83a5.18,5.18,0,0,1-1.64,2.8l-54.08,31.29a3.82,3.82,0,0,0-1.08,4.82l7.73,13.53a8.49,8.49,0,0,1-3.08,11.55L421,541.57h0a14.17,14.17,0,1,0,14.17,24.55l4.56-2.66a8.5,8.5,0,0,1,11.66,3.11l7.2,12.54a2.47,2.47,0,0,0,3.45.59l41.81-24.06a5.41,5.41,0,0,1,.79-.21l104.3-15.5a1.83,1.83,0,0,0,1-.42l29.9-41a1.41,1.41,0,0,1,1-.41H796.71a1.42,1.42,0,0,0,1.41-1.42V386.61a8.51,8.51,0,0,1,8.51-8.51Z" transform="translate(-15.2 -14.93)"/></g><g id="CIRCLE-38" data-name="CIRCLE"><path class="cls-1" d="M424.36,547.46a7.37,7.37,0,1,0,10.07,2.7,7.38,7.38,0,0,0-10.07-2.7Z" transform="translate(-15.2 -14.93)"/></g></g></svg>