<?xml version="1.0" standalone="no"?>
 <!DOCTYPE svg PUBLIC "-//W3C//DTD SVG 1.1//EN" 
 "http://www.w3.org/Graphics/SVG/1.1/DTD/svg11.dtd"> 
<svg xmlns="http://www.w3.org/2000/svg" version="1.1" 
    width="29.7002cm" height="21.0007cm" viewBox="0 0 116930 82680 ">
<title>SVG Picture created as corne-light-Edge_Cuts.svg date 2020/11/14 09:44:46 </title>
  <desc>Picture generated by PCBNEW </desc>
<g style="fill:#000000; fill-opacity:1;stroke:#000000; stroke-opacity:1;
stroke-linecap:round; stroke-linejoin:round; "
 transform="translate(0 0) scale(1 1)">
</g>
<g style="fill:#000000; fill-opacity:0.0; 
stroke:#000000; stroke-width:-0.000393701; stroke-opacity:1; 
stroke-linecap:round; stroke-linejoin:round;">
</g>
<g style="fill:#000000; fill-opacity:0.0; 
stroke:#000000; stroke-width:78.7402; stroke-opacity:1; 
stroke-linecap:round; stroke-linejoin:round;">
<path d="M106069 36271
L106130 36234
" />
<path d="M106167 36160
L106180 36086
" />
<path d="M105798 36160
L105835 36234
" />
<path d="M105835 36234
L105909 36271
" />
<path d="M106167 36160
L106130 36234
" />
<path d="M105909 36271
L105983 36283
" />
<path d="M106069 36271
L105983 36283
" />
<path d="M105786 36086
L105798 36160
" />
<path d="M105897 30587
L105983 30574
" />
<path d="M106180 30771
L106167 30697
" />
<path d="M106057 30587
L105983 30574
" />
<path d="M105897 30587
L105835 30624
" />
<path d="M105798 30697
L105786 30771
" />
<path d="M106130 30624
L106057 30587
" />
<path d="M105798 30697
L105835 30624
" />
<path d="M106167 30697
L106130 30624
" />
<path d="M105798 27892
L105835 27966
" />
<path d="M105835 27966
L105909 28003
" />
<path d="M106167 27892
L106130 27966
" />
<path d="M105909 28003
L105983 28015
" />
<path d="M106069 28003
L106130 27966
" />
<path d="M105786 27818
L105798 27892
" />
<path d="M106167 27892
L106180 27818
" />
<path d="M106069 28003
L105983 28015
" />
<path d="M106180 23291
L106167 23217
" />
<path d="M105798 23217
L105835 23143
" />
<path d="M105897 23106
L105835 23143
" />
<path d="M106057 23106
L105983 23094
" />
<path d="M106167 23217
L106130 23143
" />
<path d="M106130 23143
L106057 23106
" />
<path d="M105798 23217
L105786 23291
" />
<path d="M105897 23106
L105983 23094
" />
<path d="M105786 20338
L105798 20412
" />
<path d="M105835 20486
L105909 20523
" />
<path d="M106167 20412
L106180 20338
" />
<path d="M106069 20523
L105983 20535
" />
<path d="M105909 20523
L105983 20535
" />
<path d="M105798 20412
L105835 20486
" />
<path d="M106069 20523
L106130 20486
" />
<path d="M106167 20412
L106130 20486
" />
<path d="M106130 14974
L106057 14937
" />
<path d="M105897 14937
L105983 14925
" />
<path d="M105798 15048
L105835 14974
" />
<path d="M105897 14937
L105835 14974
" />
<path d="M105798 15048
L105786 15122
" />
<path d="M106180 15122
L106167 15048
" />
<path d="M106167 15048
L106130 14974
" />
<path d="M106057 14937
L105983 14925
" />
<path d="M12331 36234
L12405 36271
" />
<path d="M12405 36271
L12479 36283
" />
<path d="M12294 36160
L12331 36234
" />
<path d="M12282 36086
L12294 36160
" />
<path d="M12663 36160
L12626 36234
" />
<path d="M12565 36271
L12479 36283
" />
<path d="M12565 36271
L12626 36234
" />
<path d="M12663 36160
L12676 36086
" />
<path d="M12393 30685
L12479 30673
" />
<path d="M12676 30870
L12663 30796
" />
<path d="M12294 30796
L12282 30870
" />
<path d="M12626 30722
L12553 30685
" />
<path d="M12553 30685
L12479 30673
" />
<path d="M12663 30796
L12626 30722
" />
<path d="M12294 30796
L12331 30722
" />
<path d="M12393 30685
L12331 30722
" />
<path d="M12282 27818
L12294 27892
" />
<path d="M12565 28003
L12479 28015
" />
<path d="M12331 27966
L12405 28003
" />
<path d="M12565 28003
L12626 27966
" />
<path d="M12294 27892
L12331 27966
" />
<path d="M12663 27892
L12626 27966
" />
<path d="M12663 27892
L12676 27818
" />
<path d="M12405 28003
L12479 28015
" />
<path d="M12626 23143
L12553 23106
" />
<path d="M12393 23106
L12479 23094
" />
<path d="M12294 23217
L12331 23143
" />
<path d="M12393 23106
L12331 23143
" />
<path d="M12294 23217
L12282 23291
" />
<path d="M12676 23291
L12663 23217
" />
<path d="M12663 23217
L12626 23143
" />
<path d="M12553 23106
L12479 23094
" />
<path d="M12331 20486
L12405 20523
" />
<path d="M12565 20523
L12479 20535
" />
<path d="M12663 20412
L12626 20486
" />
<path d="M12565 20523
L12626 20486
" />
<path d="M12663 20412
L12676 20338
" />
<path d="M12282 20338
L12294 20412
" />
<path d="M12294 20412
L12331 20486
" />
<path d="M12405 20523
L12479 20535
" />
<path d="M12676 15122
L12663 15048
" />
<path d="M12663 15048
L12626 14974
" />
<path d="M12294 15048
L12282 15122
" />
<path d="M12294 15048
L12331 14974
" />
<path d="M12626 14974
L12553 14937
" />
<path d="M12393 14937
L12331 14974
" />
<path d="M12553 14937
L12479 14925
" />
<path d="M12393 14937
L12479 14925
" />
<path d="M106180 36086
L106180 30771
" />
<path d="M105786 30771
L105786 36086
" />
<path d="M106180 27818
L106180 23291
" />
<path d="M105786 23291
L105786 27818
" />
<path d="M105786 15122
L105786 20338
" />
<path d="M106180 20338
L106180 15122
" />
<path d="M12676 23291
L12676 27818
" />
<path d="M12282 27818
L12282 23291
" />
<path d="M12676 30870
L12676 36086
" />
<path d="M12282 36086
L12282 30870
" />
<path d="M12282 20338
L12282 15122
" />
<path d="M12676 15122
L12676 20338
" />
<path d="M19914 14539
L5392 14539
" />
<path d="M7817 36871
L7790 36958
" />
<path d="M7790 36958
L7790 36958
" />
<path d="M7790 36958
L7789 36960
" />
<path d="M7789 36960
L7789 36962
" />
<path d="M7789 36962
L7746 37042
" />
<path d="M7746 37042
L7746 37042
" />
<path d="M7746 37042
L7745 37044
" />
<path d="M26308 37302
L26308 37302
" />
<path d="M26308 37302
L26308 37303
" />
<path d="M26308 37303
L26310 37303
" />
<path d="M26310 37303
L26311 37305
" />
<path d="M26311 37305
L26382 37362
" />
<path d="M26382 37362
L26382 37362
" />
<path d="M26382 37362
L26383 37364
" />
<path d="M26383 37364
L26384 37365
" />
<path d="M26384 37365
L26443 37435
" />
<path d="M26443 37435
L26443 37435
" />
<path d="M26443 37435
L26444 37437
" />
<path d="M26444 37437
L26445 37438
" />
<path d="M26445 37438
L26488 37519
" />
<path d="M26488 37519
L26488 37519
" />
<path d="M26488 37519
L26488 37519
" />
<path d="M26488 37519
L26488 37519
" />
<path d="M26488 37519
L26489 37520
" />
<path d="M26489 37520
L26490 37522
" />
<path d="M26490 37522
L26517 37609
" />
<path d="M26517 37609
L26517 37610
" />
<path d="M26517 37610
L26517 37611
" />
<path d="M26517 37611
L26517 37613
" />
<path d="M26517 37613
L26527 37704
" />
<path d="M26527 37704
L26527 37704
" />
<path d="M26527 37704
L26527 37705
" />
<path d="M26527 37705
L26527 37706
" />
<path d="M26527 37706
L26527 37708
" />
<path d="M26527 37708
L26527 37708
" />
<path d="M26527 37708
L26527 48408
" />
<path d="M26527 48408
L26527 48410
" />
<path d="M26527 48410
L26536 48498
" />
<path d="M26536 48498
L26562 48581
" />
<path d="M26562 48581
L26604 48658
" />
<path d="M26604 48658
L26659 48725
" />
<path d="M26659 48725
L26727 48781
" />
<path d="M26804 48822
L26888 48847
" />
<path d="M26888 48847
L26976 48856
" />
<path d="M26976 48856
L92002 48852
" />
<path d="M92002 48852
L92005 48852
" />
<path d="M92005 48852
L92092 48843
" />
<path d="M92092 48843
L92176 48817
" />
<path d="M92176 48817
L92253 48775
" />
<path d="M92253 48775
L92320 48720
" />
<path d="M92320 48720
L92376 48652
" />
<path d="M92376 48652
L92416 48575
" />
<path d="M92416 48575
L92442 48491
" />
<path d="M92442 48491
L92450 48403
" />
<path d="M92450 48403
L92450 37705
" />
<path d="M92450 37705
L92450 37704
" />
<path d="M92450 37704
L92450 37704
" />
<path d="M92450 37704
L92459 37613
" />
<path d="M92459 37613
L92459 37613
" />
<path d="M92459 37613
L92459 37613
" />
<path d="M92459 37613
L92459 37612
" />
<path d="M92459 37612
L92460 37611
" />
<path d="M92460 37611
L92460 37609
" />
<path d="M92460 37609
L92487 37522
" />
<path d="M92487 37522
L92487 37522
" />
<path d="M92487 37522
L92487 37520
" />
<path d="M92487 37520
L92488 37518
" />
<path d="M92488 37518
L92531 37438
" />
<path d="M92531 37438
L92531 37438
" />
<path d="M92531 37438
L92531 37438
" />
<path d="M92531 37438
L92531 37437
" />
<path d="M92531 37437
L92532 37436
" />
<path d="M92532 37436
L92533 37435
" />
<path d="M92533 37435
L92590 37364
" />
<path d="M92590 37364
L92591 37364
" />
<path d="M92591 37364
L92592 37362
" />
<path d="M92592 37362
L92593 37361
" />
<path d="M92593 37361
L92664 37303
" />
<path d="M92664 37303
L92664 37303
" />
<path d="M92664 37303
L92665 37302
" />
<path d="M92665 37302
L92667 37301
" />
<path d="M92667 37301
L92747 37257
" />
<path d="M92747 37257
L92747 37257
" />
<path d="M92747 37257
L92747 37257
" />
<path d="M92747 37257
L92747 37257
" />
<path d="M92747 37257
L92749 37257
" />
<path d="M92749 37257
L92751 37256
" />
<path d="M92751 37256
L92838 37229
" />
<path d="M92838 37229
L92838 37229
" />
<path d="M92838 37229
L92838 37229
" />
<path d="M92838 37229
L92840 37228
" />
<path d="M92840 37228
L92841 37228
" />
<path d="M92841 37228
L92932 37218
" />
<path d="M92932 37218
L92933 37218
" />
<path d="M92933 37218
L92933 37218
" />
<path d="M92933 37218
L92934 37218
" />
<path d="M92934 37218
L92937 37218
" />
<path d="M92937 37218
L92937 37218
" />
<path d="M92937 37218
L93405 37218
" />
<path d="M93405 37218
L93407 37218
" />
<path d="M93407 37218
L93495 37209
" />
<path d="M93495 37209
L93579 37183
" />
<path d="M93579 37183
L93655 37142
" />
<path d="M93655 37142
L93723 37086
" />
<path d="M93723 37086
L93778 37018
" />
<path d="M93778 37018
L93819 36941
" />
<path d="M93819 36941
L93844 36857
" />
<path d="M93844 36857
L93853 36770
" />
<path d="M93853 36770
L93856 36688
" />
<path d="M78895 12671
L78892 11525
" />
<path d="M78892 11525
L78892 11522
" />
<path d="M78892 11522
L78883 11434
" />
<path d="M78883 11434
L78857 11351
" />
<path d="M78857 11351
L78816 11274
" />
<path d="M78816 11274
L78760 11207
" />
<path d="M78615 11111
L78531 11085
" />
<path d="M78531 11085
L78444 11077
" />
<path d="M78444 11077
L40066 11080
" />
<path d="M40066 11080
L40063 11080
" />
<path d="M40063 11080
L39976 11089
" />
<path d="M39976 11089
L39892 11115
" />
<path d="M39892 11115
L39815 11157
" />
<path d="M39815 11157
L39748 11213
" />
<path d="M39748 11213
L39692 11280
" />
<path d="M39692 11280
L39651 11357
" />
<path d="M39651 11357
L39626 11441
" />
<path d="M39626 11441
L39618 11529
" />
<path d="M39618 11529
L39620 12669
" />
<path d="M95765 36687
L95763 36770
" />
<path d="M95763 36770
L95763 36773
" />
<path d="M95763 36773
L95772 36861
" />
<path d="M95772 36861
L95798 36944
" />
<path d="M95798 36944
L95839 37021
" />
<path d="M95839 37021
L95895 37088
" />
<path d="M95895 37088
L95963 37144
" />
<path d="M95963 37144
L96040 37185
" />
<path d="M96040 37185
L96123 37210
" />
<path d="M96123 37210
L96211 37218
" />
<path d="M96211 37218
L108366 37218
" />
<path d="M108366 37218
L108368 37218
" />
<path d="M108368 37218
L108456 37209
" />
<path d="M108456 37209
L108539 37183
" />
<path d="M108539 37183
L108616 37142
" />
<path d="M108616 37142
L108683 37086
" />
<path d="M108683 37086
L108739 37018
" />
<path d="M108739 37018
L108779 36941
" />
<path d="M108779 36941
L108805 36857
" />
<path d="M108805 36857
L108813 36770
" />
<path d="M108813 36770
L108816 36687
" />
<path d="M9706 36864
L9731 36948
" />
<path d="M9731 36948
L9773 37024
" />
<path d="M9773 37024
L9829 37092
" />
<path d="M9829 37092
L9896 37147
" />
<path d="M9896 37147
L9974 37188
" />
<path d="M9974 37188
L10057 37213
" />
<path d="M10057 37213
L10145 37222
" />
<path d="M10145 37222
L22300 37222
" />
<path d="M22300 37222
L22302 37222
" />
<path d="M22302 37222
L22390 37213
" />
<path d="M22390 37213
L22473 37187
" />
<path d="M22473 37187
L22550 37145
" />
<path d="M22550 37145
L22617 37090
" />
<path d="M22617 37090
L22673 37022
" />
<path d="M22673 37022
L22714 36945
" />
<path d="M22714 36945
L22739 36861
" />
<path d="M22739 36861
L22748 36773
" />
<path d="M22748 36773
L22750 36687
" />
<path d="M93852 12671
L93853 11525
" />
<path d="M93853 11525
L93853 11522
" />
<path d="M93853 11522
L93844 11434
" />
<path d="M93844 11434
L93818 11351
" />
<path d="M93818 11351
L93776 11274
" />
<path d="M93776 11274
L93720 11207
" />
<path d="M93720 11207
L93653 11152
" />
<path d="M93653 11152
L93576 11111
" />
<path d="M93576 11111
L93492 11085
" />
<path d="M93492 11085
L93404 11077
" />
<path d="M93404 11077
L81250 11077
" />
<path d="M81250 11077
L81247 11077
" />
<path d="M81247 11077
L81159 11086
" />
<path d="M81159 11086
L81076 11112
" />
<path d="M81076 11112
L80999 11153
" />
<path d="M80999 11153
L80932 11209
" />
<path d="M80932 11209
L80877 11277
" />
<path d="M80877 11277
L80836 11354
" />
<path d="M80836 11354
L80810 11438
" />
<path d="M80810 11438
L80802 11525
" />
<path d="M80802 11525
L80801 12672
" />
<path d="M37710 12669
L37708 11528
" />
<path d="M37708 11528
L37708 11526
" />
<path d="M37708 11526
L37699 11438
" />
<path d="M37699 11438
L37673 11355
" />
<path d="M37673 11355
L37632 11278
" />
<path d="M37632 11278
L37576 11210
" />
<path d="M37576 11210
L37508 11155
" />
<path d="M37508 11155
L37431 11114
" />
<path d="M37431 11114
L37347 11089
" />
<path d="M37347 11089
L37259 11080
" />
<path d="M37259 11080
L25105 11080
" />
<path d="M25105 11080
L25103 11080
" />
<path d="M25103 11080
L25015 11089
" />
<path d="M25015 11089
L24931 11115
" />
<path d="M24931 11115
L24854 11157
" />
<path d="M24854 11157
L24787 11213
" />
<path d="M24787 11213
L24732 11280
" />
<path d="M24732 11280
L24691 11357
" />
<path d="M24691 11357
L24666 11441
" />
<path d="M24666 11441
L24657 11529
" />
<path d="M24657 11529
L24659 12669
" />
<path d="M111169 37258
L111078 37249
" />
<path d="M113359 50177
L113414 50109
" />
<path d="M78692 11152
L78615 11111
" />
<path d="M78760 11207
L78692 11152
" />
<path d="M26727 48781
L26804 48822
" />
<path d="M113489 37703
L113489 49860
" />
<path d="M5021 37710
L5021 49864
" />
<path d="M7824 36685
L7826 36775
" />
<path d="M7826 36775
L7826 36776
" />
<path d="M7826 36776
L7826 36776
" />
<path d="M7826 36776
L7817 36867
" />
<path d="M7817 36867
L7817 36867
" />
<path d="M7817 36867
L7817 36867
" />
<path d="M7817 36867
L7817 36867
" />
<path d="M7817 36867
L7817 36869
" />
<path d="M7817 36869
L7817 36871
" />
<path d="M9698 36687
L9696 36774
" />
<path d="M9696 36774
L9696 36776
" />
<path d="M9696 36776
L9706 36864
" />
<path d="M45930 44378
L45867 44370
" />
<path d="M45998 44389
L45930 44378
" />
<path d="M46063 44404
L45998 44389
" />
<path d="M46125 44421
L46063 44404
" />
<path d="M57808 38185
L57808 38152
" />
<path d="M57801 38258
L57808 38185
" />
<path d="M57788 38324
L57801 38258
" />
<path d="M57769 38386
L57788 38324
" />
<path d="M57746 38442
L57769 38386
" />
<path d="M57719 38495
L57746 38442
" />
<path d="M42159 13457
L42159 12866
" />
<path d="M49442 13653
L42355 13653
" />
<path d="M57677 14551
L57611 14539
" />
<path d="M57729 14578
L57677 14551
" />
<path d="M57768 14618
L57729 14578
" />
<path d="M57796 14669
L57768 14618
" />
<path d="M57808 14736
L57796 14669
" />
<path d="M57808 14736
L57808 38152
" />
<path d="M7824 36685
L5348 36685
" />
<path d="M5151 14736
L5151 36488
" />
<path d="M34481 11783
L27788 11783
" />
<path d="M34678 12472
L34678 11980
" />
<path d="M37710 12669
L34875 12669
" />
<path d="M46125 44421
L51753 47674
" />
<path d="M49639 13850
L49639 14342
" />
<path d="M49508 13665
L49442 13653
" />
<path d="M49560 13693
L49508 13665
" />
<path d="M49599 13732
L49560 13693
" />
<path d="M49627 13783
L49599 13732
" />
<path d="M49639 13850
L49627 13783
" />
<path d="M20111 12866
L20111 14342
" />
<path d="M22789 12669
L20308 12669
" />
<path d="M27592 11980
L27591 12472
" />
<path d="M57611 14539
L49836 14539
" />
<path d="M27036 36688
L27001 36677
" />
<path d="M27094 36709
L27036 36688
" />
<path d="M27140 36743
L27094 36709
" />
<path d="M5281 36673
L5348 36685
" />
<path d="M5230 36646
L5281 36673
" />
<path d="M5190 36606
L5230 36646
" />
<path d="M5162 36555
L5190 36606
" />
<path d="M5151 36488
L5162 36555
" />
<path d="M5348 36685
L5348 36685
" />
<path d="M5162 14670
L5151 14736
" />
<path d="M5190 14619
L5162 14670
" />
<path d="M5229 14579
L5190 14619
" />
<path d="M5280 14551
L5229 14579
" />
<path d="M5392 14539
L5280 14551
" />
<path d="M5151 14736
L5151 14736
" />
<path d="M20100 14409
L20111 14343
" />
<path d="M20072 14460
L20100 14409
" />
<path d="M20033 14500
L20072 14460
" />
<path d="M19982 14528
L20033 14500
" />
<path d="M19914 14539
L19982 14528
" />
<path d="M20111 14343
L20111 14342
" />
<path d="M20123 12800
L20111 12866
" />
<path d="M20150 12749
L20123 12800
" />
<path d="M20190 12709
L20150 12749
" />
<path d="M20241 12681
L20190 12709
" />
<path d="M20308 12669
L20241 12681
" />
<path d="M27580 12539
L27592 12472
" />
<path d="M27553 12590
L27580 12539
" />
<path d="M27513 12630
L27553 12590
" />
<path d="M27462 12658
L27513 12630
" />
<path d="M27395 12669
L27462 12658
" />
<path d="M27592 12472
L27592 12472
" />
<path d="M27603 11914
L27592 11980
" />
<path d="M27631 11863
L27603 11914
" />
<path d="M27670 11823
L27631 11863
" />
<path d="M27721 11795
L27670 11823
" />
<path d="M27788 11783
L27721 11795
" />
<path d="M27592 11980
L27592 11980
" />
<path d="M34548 11795
L34481 11783
" />
<path d="M34599 11822
L34548 11795
" />
<path d="M34639 11862
L34599 11822
" />
<path d="M34667 11913
L34639 11862
" />
<path d="M34678 11980
L34667 11913
" />
<path d="M34481 11783
L34481 11783
" />
<path d="M34809 12658
L34875 12669
" />
<path d="M34757 12630
L34809 12658
" />
<path d="M34718 12591
L34757 12630
" />
<path d="M34690 12540
L34718 12591
" />
<path d="M34678 12472
L34690 12540
" />
<path d="M34875 12669
L34875 12669
" />
<path d="M42028 12681
L41962 12669
" />
<path d="M42079 12708
L42028 12681
" />
<path d="M42119 12748
L42079 12708
" />
<path d="M42147 12799
L42119 12748
" />
<path d="M42159 12866
L42147 12799
" />
<path d="M42289 13642
L42355 13653
" />
<path d="M42238 13614
L42289 13642
" />
<path d="M42198 13575
L42238 13614
" />
<path d="M42170 13524
L42198 13575
" />
<path d="M42159 13457
L42170 13524
" />
<path d="M52512 47524
L57719 38495
" />
<path d="M52511 47526
L52512 47524
" />
<path d="M52489 47556
L52511 47526
" />
<path d="M52452 47599
L52489 47556
" />
<path d="M52411 47637
L52452 47599
" />
<path d="M52363 47674
L52411 47637
" />
<path d="M52314 47703
L52363 47674
" />
<path d="M52257 47729
L52314 47703
" />
<path d="M52197 47749
L52257 47729
" />
<path d="M52131 47762
L52197 47749
" />
<path d="M52057 47767
L52131 47762
" />
<path d="M51983 47762
L52057 47767
" />
<path d="M51917 47748
L51983 47762
" />
<path d="M51857 47728
L51917 47748
" />
<path d="M51802 47703
L51857 47728
" />
<path d="M51753 47674
L51802 47703
" />
<path d="M31430 42492
L45867 44370
" />
<path d="M31395 42489
L31430 42492
" />
<path d="M31336 42468
L31395 42489
" />
<path d="M31291 42434
L31336 42468
" />
<path d="M27140 36743
L31291 42434
" />
<path d="M49769 14528
L49836 14539
" />
<path d="M49718 14500
L49769 14528
" />
<path d="M49678 14461
L49718 14500
" />
<path d="M49651 14410
L49678 14461
" />
<path d="M49639 14342
L49651 14410
" />
<path d="M49836 14539
L49836 14539
" />
<path d="M72516 44381
L72579 44373
" />
<path d="M72448 44392
L72516 44381
" />
<path d="M72383 44407
L72448 44392
" />
<path d="M72321 44424
L72383 44407
" />
<path d="M60639 38191
L60638 38154
" />
<path d="M60646 38263
L60639 38191
" />
<path d="M60659 38328
L60646 38263
" />
<path d="M60677 38389
L60659 38328
" />
<path d="M60701 38446
L60677 38389
" />
<path d="M60728 38498
L60701 38446
" />
<path d="M76288 13458
L76288 12868
" />
<path d="M69004 13655
L76091 13655
" />
<path d="M60769 14553
L60835 14542
" />
<path d="M60718 14581
L60769 14553
" />
<path d="M60678 14621
L60718 14581
" />
<path d="M60650 14672
L60678 14621
" />
<path d="M60638 14739
L60650 14672
" />
<path d="M60638 14738
L60638 38153
" />
<path d="M95765 36687
L108816 36687
" />
<path d="M113296 14739
L113296 36490
" />
<path d="M98532 14541
L113099 14542
" />
<path d="M83965 11785
L90658 11785
" />
<path d="M83768 12474
L83768 11982
" />
<path d="M76485 12671
L78895 12671
" />
<path d="M72321 44424
L66694 47676
" />
<path d="M68807 13853
L68807 14345
" />
<path d="M68938 13668
L69004 13656
" />
<path d="M68887 13695
L68938 13668
" />
<path d="M68847 13735
L68887 13695
" />
<path d="M68819 13786
L68847 13735
" />
<path d="M68807 13853
L68819 13786
" />
<path d="M98335 12868
L98335 14344
" />
<path d="M91052 12671
L93852 12671
" />
<path d="M90855 11982
L90855 12474
" />
<path d="M60835 14541
L68611 14542
" />
<path d="M91409 36691
L91445 36688
" />
<path d="M91351 36712
L91409 36691
" />
<path d="M91306 36745
L91351 36712
" />
<path d="M113165 36676
L113099 36688
" />
<path d="M113216 36649
L113165 36676
" />
<path d="M113256 36609
L113216 36649
" />
<path d="M113284 36558
L113256 36609
" />
<path d="M113296 36491
L113284 36558
" />
<path d="M113099 36688
L113099 36688
" />
<path d="M113284 14673
L113296 14739
" />
<path d="M113257 14621
L113284 14673
" />
<path d="M113217 14582
L113257 14621
" />
<path d="M113166 14554
L113217 14582
" />
<path d="M113099 14542
L113166 14554
" />
<path d="M113296 14739
L113296 14739
" />
<path d="M98346 14411
L98335 14345
" />
<path d="M98374 14463
L98346 14411
" />
<path d="M98413 14502
L98374 14463
" />
<path d="M98465 14530
L98413 14502
" />
<path d="M98532 14542
L98465 14530
" />
<path d="M98335 14345
L98335 14345
" />
<path d="M98324 12803
L98335 12869
" />
<path d="M98296 12751
L98324 12803
" />
<path d="M98256 12712
L98296 12751
" />
<path d="M98205 12684
L98256 12712
" />
<path d="M98138 12672
L98205 12684
" />
<path d="M90866 12541
L90855 12475
" />
<path d="M90894 12593
L90866 12541
" />
<path d="M90933 12632
L90894 12593
" />
<path d="M90985 12660
L90933 12632
" />
<path d="M91052 12672
L90985 12660
" />
<path d="M90855 12475
L90855 12475
" />
<path d="M90843 11916
L90855 11983
" />
<path d="M90815 11865
L90843 11916
" />
<path d="M90776 11826
L90815 11865
" />
<path d="M90725 11798
L90776 11826
" />
<path d="M90658 11786
L90725 11798
" />
<path d="M90855 11983
L90855 11983
" />
<path d="M83898 11798
L83965 11786
" />
<path d="M83847 11825
L83898 11798
" />
<path d="M83808 11865
L83847 11825
" />
<path d="M83780 11916
L83808 11865
" />
<path d="M83768 11983
L83780 11916
" />
<path d="M83965 11786
L83965 11786
" />
<path d="M83638 12661
L83571 12672
" />
<path d="M83689 12633
L83638 12661
" />
<path d="M83729 12594
L83689 12633
" />
<path d="M83756 12542
L83729 12594
" />
<path d="M83768 12475
L83756 12542
" />
<path d="M83571 12672
L83571 12672
" />
<path d="M76419 12683
L76485 12672
" />
<path d="M76367 12711
L76419 12683
" />
<path d="M76327 12751
L76367 12711
" />
<path d="M76300 12802
L76327 12751
" />
<path d="M76288 12869
L76300 12802
" />
<path d="M76157 13645
L76091 13656
" />
<path d="M76208 13617
L76157 13645
" />
<path d="M76248 13578
L76208 13617
" />
<path d="M76276 13527
L76248 13578
" />
<path d="M76288 13459
L76276 13527
" />
<path d="M65934 47527
L60727 38498
" />
<path d="M65936 47529
L65934 47527
" />
<path d="M65960 47562
L65936 47529
" />
<path d="M65998 47605
L65960 47562
" />
<path d="M66039 47644
L65998 47605
" />
<path d="M66085 47678
L66039 47644
" />
<path d="M66135 47707
L66085 47678
" />
<path d="M66189 47732
L66135 47707
" />
<path d="M66250 47752
L66189 47732
" />
<path d="M7745 37044
L7744 37045
" />
<path d="M7744 37045
L7686 37116
" />
<path d="M7686 37116
L7686 37116
" />
<path d="M7686 37116
L7686 37116
" />
<path d="M7686 37116
L7686 37116
" />
<path d="M7686 37116
L7685 37118
" />
<path d="M7685 37118
L7683 37119
" />
<path d="M7683 37119
L7613 37177
" />
<path d="M7613 37177
L7613 37177
" />
<path d="M7613 37177
L7611 37178
" />
<path d="M7611 37178
L7610 37179
" />
<path d="M7610 37179
L7530 37222
" />
<path d="M7530 37222
L7530 37222
" />
<path d="M7530 37222
L7530 37222
" />
<path d="M7530 37222
L7529 37223
" />
<path d="M7529 37223
L7528 37223
" />
<path d="M7528 37223
L7526 37224
" />
<path d="M7526 37224
L7439 37251
" />
<path d="M7439 37251
L7439 37251
" />
<path d="M7439 37251
L7437 37251
" />
<path d="M7437 37251
L7435 37251
" />
<path d="M7435 37251
L7344 37261
" />
<path d="M7344 37261
L7344 37261
" />
<path d="M7344 37261
L7343 37261
" />
<path d="M7343 37261
L7342 37261
" />
<path d="M7342 37261
L7340 37261
" />
<path d="M7340 37261
L7340 37261
" />
<path d="M7340 37261
L5469 37261
" />
<path d="M5469 37261
L5467 37261
" />
<path d="M5467 37261
L5379 37270
" />
<path d="M5379 37270
L5296 37296
" />
<path d="M5296 37296
L5219 37338
" />
<path d="M5219 37338
L5151 37394
" />
<path d="M5151 37394
L5096 37461
" />
<path d="M5096 37461
L5055 37538
" />
<path d="M5055 37538
L5030 37622
" />
<path d="M5030 37622
L5021 37710
" />
<path d="M5021 49864
L5021 49867
" />
<path d="M5021 49867
L5030 49955
" />
<path d="M5030 49955
L5056 50038
" />
<path d="M5056 50038
L5098 50115
" />
<path d="M5098 50115
L5154 50182
" />
<path d="M5154 50182
L5221 50238
" />
<path d="M5221 50238
L5298 50279
" />
<path d="M5298 50279
L5382 50304
" />
<path d="M5382 50304
L5470 50312
" />
<path d="M5470 50312
L113041 50309
" />
<path d="M113041 50309
L113043 50309
" />
<path d="M113043 50309
L113131 50300
" />
<path d="M113131 50300
L113214 50274
" />
<path d="M113214 50274
L113291 50232
" />
<path d="M113291 50232
L113359 50177
" />
<path d="M113414 50109
L113455 50032
" />
<path d="M113455 50032
L113480 49948
" />
<path d="M113480 49948
L113489 49860
" />
<path d="M113489 37703
L113479 37616
" />
<path d="M113479 37616
L113453 37532
" />
<path d="M113453 37532
L113412 37455
" />
<path d="M113412 37455
L113356 37388
" />
<path d="M113356 37388
L113289 37333
" />
<path d="M113289 37333
L113211 37292
" />
<path d="M113211 37292
L113128 37266
" />
<path d="M113128 37266
L113040 37258
" />
<path d="M113040 37258
L111170 37258
" />
<path d="M111170 37258
L111169 37258
" />
<path d="M111169 37258
L111169 37258
" />
<path d="M111078 37249
L111078 37249
" />
<path d="M111078 37249
L111078 37249
" />
<path d="M111078 37249
L111078 37249
" />
<path d="M111078 37249
L111076 37248
" />
<path d="M111076 37248
L111074 37248
" />
<path d="M111074 37248
L110987 37222
" />
<path d="M110987 37222
L110987 37222
" />
<path d="M110987 37222
L110985 37221
" />
<path d="M110985 37221
L110983 37220
" />
<path d="M110983 37220
L110903 37177
" />
<path d="M110903 37177
L110903 37177
" />
<path d="M110903 37177
L110903 37177
" />
<path d="M110903 37177
L110901 37176
" />
<path d="M110901 37176
L110900 37175
" />
<path d="M110900 37175
L110829 37118
" />
<path d="M110829 37118
L110829 37118
" />
<path d="M110829 37118
L110829 37118
" />
<path d="M110829 37118
L110829 37117
" />
<path d="M110829 37117
L110827 37116
" />
<path d="M110827 37116
L110826 37115
" />
<path d="M110826 37115
L110768 37044
" />
<path d="M110768 37044
L110768 37044
" />
<path d="M110768 37044
L110767 37043
" />
<path d="M110767 37043
L110766 37041
" />
<path d="M110766 37041
L110722 36961
" />
<path d="M110722 36961
L110722 36961
" />
<path d="M110722 36961
L110722 36961
" />
<path d="M110722 36961
L110722 36961
" />
<path d="M110722 36961
L110722 36959
" />
<path d="M110722 36959
L110721 36957
" />
<path d="M110721 36957
L110694 36870
" />
<path d="M110694 36870
L110694 36870
" />
<path d="M110694 36870
L110694 36868
" />
<path d="M110694 36868
L110693 36867
" />
<path d="M110693 36867
L110684 36776
" />
<path d="M110684 36776
L110684 36775
" />
<path d="M110684 36775
L110684 36775
" />
<path d="M110684 36775
L110684 36774
" />
<path d="M110684 36774
L110684 36772
" />
<path d="M110684 36772
L110683 36772
" />
<path d="M110683 36772
L110687 36688
" />
<path d="M95726 12672
L95723 11524
" />
<path d="M95723 11524
L95723 11523
" />
<path d="M95723 11523
L95732 11432
" />
<path d="M95732 11432
L95732 11432
" />
<path d="M95732 11432
L95732 11432
" />
<path d="M95732 11432
L95732 11432
" />
<path d="M95732 11432
L95732 11430
" />
<path d="M95732 11430
L95733 11428
" />
<path d="M95733 11428
L95759 11341
" />
<path d="M95759 11341
L95759 11340
" />
<path d="M95759 11340
L95760 11339
" />
<path d="M95760 11339
L95761 11337
" />
<path d="M95761 11337
L95803 11257
" />
<path d="M95803 11257
L95803 11257
" />
<path d="M95803 11257
L95803 11257
" />
<path d="M95803 11257
L95803 11256
" />
<path d="M95803 11256
L95805 11255
" />
<path d="M95805 11255
L95805 11253
" />
<path d="M95805 11253
L95863 11183
" />
<path d="M95863 11183
L95863 11182
" />
<path d="M95863 11182
L95864 11181
" />
<path d="M95864 11181
L95866 11180
" />
<path d="M95866 11180
L95936 11122
" />
<path d="M95936 11122
L95937 11122
" />
<path d="M95937 11122
L95938 11121
" />
<path d="M95938 11121
L95939 11120
" />
<path d="M95939 11120
L96020 11076
" />
<path d="M96020 11076
L96020 11076
" />
<path d="M96020 11076
L96020 11076
" />
<path d="M96020 11076
L96020 11076
" />
<path d="M96020 11076
L96022 11075
" />
<path d="M96022 11075
L96023 11075
" />
<path d="M96023 11075
L96110 11048
" />
<path d="M96110 11048
L96110 11048
" />
<path d="M96110 11048
L96111 11048
" />
<path d="M96111 11048
L96113 11047
" />
<path d="M96113 11047
L96114 11047
" />
<path d="M96114 11047
L96205 11037
" />
<path d="M96205 11037
L96205 11037
" />
<path d="M96205 11037
L96206 11037
" />
<path d="M96206 11037
L96207 11037
" />
<path d="M96207 11037
L96209 11037
" />
<path d="M96209 11037
L96209 11037
" />
<path d="M96209 11037
L113041 11037
" />
<path d="M113041 11037
L113043 11037
" />
<path d="M113043 11037
L113131 11028
" />
<path d="M113131 11028
L113214 11002
" />
<path d="M113214 11002
L113291 10961
" />
<path d="M113291 10961
L113359 10905
" />
<path d="M113359 10905
L113414 10837
" />
<path d="M113414 10837
L113455 10760
" />
<path d="M113455 10760
L113480 10676
" />
<path d="M113480 10676
L113489 10589
" />
<path d="M113489 10589
L113489 9187
" />
<path d="M113489 9187
L113489 9185
" />
<path d="M113489 9185
L113479 9097
" />
<path d="M113479 9097
L113453 9013
" />
<path d="M113453 9013
L113412 8937
" />
<path d="M113412 8937
L113356 8869
" />
<path d="M113356 8869
L113289 8814
" />
<path d="M113289 8814
L113211 8773
" />
<path d="M113211 8773
L113128 8748
" />
<path d="M113128 8748
L113040 8739
" />
<path d="M113040 8739
L5469 8743
" />
<path d="M5469 8743
L5467 8743
" />
<path d="M5467 8743
L5379 8752
" />
<path d="M5379 8752
L5296 8778
" />
<path d="M5296 8778
L5219 8819
" />
<path d="M5219 8819
L5151 8875
" />
<path d="M5151 8875
L5096 8943
" />
<path d="M5096 8943
L5055 9020
" />
<path d="M5055 9020
L5030 9103
" />
<path d="M5030 9103
L5021 9191
" />
<path d="M5021 9191
L5021 10593
" />
<path d="M5021 10593
L5021 10595
" />
<path d="M5021 10595
L5030 10683
" />
<path d="M5030 10683
L5056 10767
" />
<path d="M5056 10767
L5098 10843
" />
<path d="M5098 10843
L5154 10911
" />
<path d="M5154 10911
L5221 10966
" />
<path d="M5221 10966
L5298 11007
" />
<path d="M5298 11007
L5382 11032
" />
<path d="M5382 11032
L5470 11041
" />
<path d="M5470 11041
L22301 11041
" />
<path d="M22301 11041
L22302 11041
" />
<path d="M22302 11041
L22302 11041
" />
<path d="M22302 11041
L22392 11050
" />
<path d="M22392 11050
L22392 11050
" />
<path d="M22392 11050
L22392 11050
" />
<path d="M22392 11050
L22393 11050
" />
<path d="M22393 11050
L22394 11050
" />
<path d="M22394 11050
L22396 11051
" />
<path d="M22396 11051
L22484 11077
" />
<path d="M22484 11077
L22484 11077
" />
<path d="M22484 11077
L22485 11078
" />
<path d="M22485 11078
L22487 11078
" />
<path d="M22487 11078
L22568 11121
" />
<path d="M22568 11121
L22568 11121
" />
<path d="M22568 11121
L22568 11121
" />
<path d="M22568 11121
L22568 11121
" />
<path d="M22568 11121
L22569 11122
" />
<path d="M22569 11122
L22571 11123
" />
<path d="M22571 11123
L22642 11181
" />
<path d="M22642 11181
L22642 11181
" />
<path d="M22642 11181
L22643 11182
" />
<path d="M22643 11182
L22644 11184
" />
<path d="M22644 11184
L22702 11254
" />
<path d="M22702 11254
L22703 11254
" />
<path d="M22703 11254
L22704 11256
" />
<path d="M22704 11256
L22705 11257
" />
<path d="M22705 11257
L22748 11338
" />
<path d="M22748 11338
L22748 11338
" />
<path d="M22748 11338
L22748 11338
" />
<path d="M22748 11338
L22748 11338
" />
<path d="M22748 11338
L22749 11339
" />
<path d="M22749 11339
L22750 11341
" />
<path d="M22750 11341
L22776 11428
" />
<path d="M22776 11428
L22777 11428
" />
<path d="M22777 11428
L22777 11430
" />
<path d="M22777 11430
L22777 11432
" />
<path d="M22777 11432
L22787 11523
" />
<path d="M22787 11523
L22787 11523
" />
<path d="M22787 11523
L22787 11524
" />
<path d="M22787 11524
L22787 11525
" />
<path d="M22787 11525
L22787 11527
" />
<path d="M22787 11527
L22787 11527
" />
<path d="M22787 11527
L22789 12669
" />
<path d="M24655 36677
L24657 36774
" />
<path d="M24657 36774
L24657 36776
" />
<path d="M24657 36776
L24666 36864
" />
<path d="M24666 36864
L24692 36948
" />
<path d="M24692 36948
L24734 37024
" />
<path d="M24734 37024
L24789 37092
" />
<path d="M24789 37092
L24857 37147
" />
<path d="M24857 37147
L24934 37188
" />
<path d="M24934 37188
L25018 37213
" />
<path d="M25018 37213
L25106 37222
" />
<path d="M25106 37222
L26041 37222
" />
<path d="M26041 37222
L26042 37222
" />
<path d="M26042 37222
L26042 37222
" />
<path d="M26042 37222
L26133 37231
" />
<path d="M26133 37231
L26133 37231
" />
<path d="M26133 37231
L26133 37231
" />
<path d="M26133 37231
L26133 37231
" />
<path d="M26133 37231
L26135 37231
" />
<path d="M26135 37231
L26136 37232
" />
<path d="M26136 37232
L26224 37258
" />
<path d="M26224 37258
L26224 37258
" />
<path d="M26224 37258
L26226 37259
" />
<path d="M26226 37259
L26227 37259
" />
<path d="M26227 37259
L26308 37302
" />
<path d="M26308 37302
L26308 37302
" />
<path d="M91445 36688
L93856 36688
" />
<path d="M41962 12669
L39620 12669
" />
<path d="M113099 36688
L110687 36688
" />
<path d="M68768 14464
L68728 14503
" />
<path d="M68796 14413
L68768 14464
" />
<path d="M66644 47706
L66590 47731
" />
<path d="M66694 47676
L66644 47706
" />
<path d="M87016 42495
L72579 44373
" />
<path d="M87052 42492
L87016 42495
" />
<path d="M87110 42471
L87052 42492
" />
<path d="M87155 42437
L87110 42471
" />
<path d="M91306 36745
L87155 42437
" />
<path d="M68677 14531
L68611 14542
" />
<path d="M68728 14503
L68677 14531
" />
<path d="M9698 36687
L22750 36687
" />
<path d="M66316 47765
L66250 47752
" />
<path d="M66390 47770
L66316 47765
" />
<path d="M66464 47764
L66390 47770
" />
<path d="M66530 47751
L66464 47764
" />
<path d="M66590 47731
L66530 47751
" />
<path d="M68807 14345
L68796 14413
" />
<path d="M68611 14542
L68611 14542
" />
<path d="M98138 12672
L95726 12672
" />
<path d="M83571 12672
L80801 12672
" />
<path d="M27395 12669
L24659 12669
" />
<path d="M27001 36677
L24655 36677
" />
<g >
</g>
<g >
</g>
<g >
</g>
<g >
</g>
<g >
</g>
<g >
</g>
<g >
</g>
<g >
</g>
<g >
</g>
<g >
</g>
<g >
</g>
<g >
</g>
<g >
</g>
<g >
</g>
<g >
</g>
<g >
</g>
<g >
</g>
<g >
</g>
<g >
</g>
<g >
</g>
<g >
</g>
<g >
</g>
<g >
</g>
<g >
</g>
<g >
</g>
<g >
</g>
<g >
</g>
<g >
</g>
<g >
</g>
<g >
</g>
<g >
</g>
<g >
</g>
<g >
</g>
<g >
</g>
<g >
</g>
<g >
</g>
<g >
</g>
<g >
</g>
<g >
</g>
<g >
</g>
<g >
</g>
<g >
</g>
<g >
</g>
<g >
</g>
<g >
</g>
<g >
</g>
<g >
</g>
<g >
</g>
<g >
</g>
<g >
</g>
<g >
</g>
<g >
</g>
<g >
</g>
<g >
</g>
<g >
</g>
<g >
</g>
<g >
</g>
<g >
</g>
<g >
</g>
<g >
</g>
<g >
</g>
<g >
</g>
<g >
</g>
<g >
</g>
<g >
</g>
<g >
</g>
<g >
</g>
<g >
</g>
<g >
</g>
<g >
</g>
<g >
</g>
<g >
</g>
<g >
</g>
<g >
</g>
<g >
</g>
<g >
</g>
<g >
</g>
<g >
</g>
<g >
</g>
<g >
</g>
<g >
</g>
<g >
</g>
<g >
</g>
<g >
</g>
<g >
</g>
<g >
</g>
<g >
</g>
<g >
</g>
<g >
</g>
<g >
</g>
<g >
</g>
<g >
</g>
<g >
</g>
<g >
</g>
<g >
</g>
<g >
</g>
<g >
</g>
<g >
</g>
<g >
</g>
<g >
</g>
<g >
</g>
<g >
</g>
<g >
</g>
<g >
</g>
<g >
</g>
<g >
</g>
<g >
</g>
<g >
</g>
<g >
</g>
<g >
</g>
<g >
</g>
<g >
</g>
<g >
</g>
<g >
</g>
<g >
</g>
<g >
</g>
<g >
</g>
<g >
</g>
<g >
</g>
<g >
</g>
<g >
</g>
<g >
</g>
<g >
</g>
</g> 
</svg>
