<?xml version="1.0" standalone="no"?>
 <!DOCTYPE svg PUBLIC "-//W3C//DTD SVG 1.1//EN" 
 "http://www.w3.org/Graphics/SVG/1.1/DTD/svg11.dtd"> 
<svg xmlns="http://www.w3.org/2000/svg" version="1.1" 
    width="29.7002cm" height="21.0007cm" viewBox="0 0 116930 82680 ">
<title>SVG Picture created as corne-light-B_SilkS.svg date 2020/11/14 09:44:46 </title>
  <desc>Picture generated by PCBNEW </desc>
<g style="fill:#000000; fill-opacity:1;stroke:#000000; stroke-opacity:1;
stroke-linecap:round; stroke-linejoin:round; "
 transform="translate(0 0) scale(1 1)">
</g>
<g style="fill:#000000; fill-opacity:0.0; 
stroke:#000000; stroke-width:-0.000393701; stroke-opacity:1; 
stroke-linecap:round; stroke-linejoin:round;">
</g>
<g style="fill:#000000; fill-opacity:0.0; 
stroke:#000000; stroke-width:59.0551; stroke-opacity:1; 
stroke-linecap:round; stroke-linejoin:round;">
<path d="M12081 33234
L11687 33234
" />
<path d="M11687 32841
L11884 33195
" />
<path d="M12081 32841
L11687 32841
" />
<path d="M11884 33195
L12081 32841
" />
<path d="M13262 33236
L12869 33236
" />
<path d="M12869 32842
L13065 33196
" />
<path d="M13262 32842
L12869 32842
" />
<path d="M13065 33196
L13262 32842
" />
<path d="M106765 33236
L106371 33236
" />
<path d="M106371 32842
L106568 33197
" />
<path d="M106765 32842
L106371 32842
" />
<path d="M106568 33197
L106765 32842
" />
<path d="M43184 23787
L42790 23787
" />
<path d="M42790 23393
L42987 23748
" />
<path d="M43184 23393
L42790 23393
" />
<path d="M42987 23748
L43184 23393
" />
<path d="M75663 23787
L75269 23787
" />
<path d="M75269 23393
L75466 23748
" />
<path d="M75663 23393
L75269 23393
" />
<path d="M75466 23748
L75663 23393
" />
<path d="M76844 23787
L76450 23787
" />
<path d="M76450 23393
L76647 23748
" />
<path d="M76844 23393
L76450 23393
" />
<path d="M76647 23748
L76844 23393
" />
<path d="M90623 23785
L90230 23785
" />
<path d="M90230 23391
L90427 23746
" />
<path d="M90623 23391
L90230 23391
" />
<path d="M90427 23746
L90623 23391
" />
<path d="M91805 23787
L91411 23787
" />
<path d="M91411 23393
L91608 23748
" />
<path d="M91805 23393
L91411 23393
" />
<path d="M91608 23748
L91805 23393
" />
<path d="M105584 25756
L105190 25756
" />
<path d="M105190 25362
L105387 25716
" />
<path d="M105584 25362
L105190 25362
" />
<path d="M105387 25716
L105584 25362
" />
<path d="M106765 25756
L106371 25756
" />
<path d="M106371 25362
L106568 25716
" />
<path d="M106765 25362
L106371 25362
" />
<path d="M106568 25716
L106765 25362
" />
<path d="M75663 16307
L75269 16307
" />
<path d="M75269 15913
L75466 16267
" />
<path d="M75663 15913
L75269 15913
" />
<path d="M75466 16267
L75663 15913
" />
<path d="M76844 16307
L76450 16307
" />
<path d="M76450 15913
L76647 16267
" />
<path d="M76844 15913
L76450 15913
" />
<path d="M76647 16267
L76844 15913
" />
<path d="M90623 16305
L90230 16305
" />
<path d="M90230 15911
L90427 16265
" />
<path d="M90623 15911
L90230 15911
" />
<path d="M90427 16265
L90623 15911
" />
<path d="M91805 16307
L91411 16307
" />
<path d="M91411 15913
L91608 16267
" />
<path d="M91805 15913
L91411 15913
" />
<path d="M91608 16267
L91805 15913
" />
<path d="M105584 18275
L105190 18275
" />
<path d="M105190 17882
L105387 18236
" />
<path d="M105584 17882
L105190 17882
" />
<path d="M105387 18236
L105584 17882
" />
<path d="M106765 18275
L106371 18275
" />
<path d="M106371 17882
L106568 18236
" />
<path d="M106765 17882
L106371 17882
" />
<path d="M106568 18236
L106765 17882
" />
<path d="M79407 39139
L79013 39139
" />
<path d="M79013 38746
L79210 39100
" />
<path d="M79407 38746
L79013 38746
" />
<path d="M79210 39100
L79407 38746
" />
<path d="M80588 39139
L80194 39139
" />
<path d="M80194 38746
L80391 39100
" />
<path d="M80588 38746
L80194 38746
" />
<path d="M80391 39100
L80588 38746
" />
<path d="M86883 39145
L86490 39145
" />
<path d="M86490 38752
L86686 39106
" />
<path d="M86883 38752
L86490 38752
" />
<path d="M86686 39106
L86883 38752
" />
<path d="M75663 31267
L75269 31267
" />
<path d="M75269 30874
L75466 31228
" />
<path d="M75663 30874
L75269 30874
" />
<path d="M75466 31228
L75663 30874
" />
<path d="M76844 31267
L76450 31267
" />
<path d="M76450 30874
L76647 31228
" />
<path d="M76844 30874
L76450 30874
" />
<path d="M76647 31228
L76844 30874
" />
<path d="M90623 31265
L90230 31265
" />
<path d="M90230 30872
L90427 31226
" />
<path d="M90623 30872
L90230 30872
" />
<path d="M90427 31226
L90623 30872
" />
<path d="M91805 31267
L91411 31267
" />
<path d="M91411 30874
L91608 31228
" />
<path d="M91805 30874
L91411 30874
" />
<path d="M91608 31228
L91805 30874
" />
<path d="M105584 33236
L105190 33236
" />
<path d="M105190 32842
L105387 33197
" />
<path d="M105584 32842
L105190 32842
" />
<path d="M105387 33197
L105584 32842
" />
<path d="M12081 18274
L11687 18274
" />
<path d="M11687 17880
L11884 18234
" />
<path d="M12081 17880
L11687 17880
" />
<path d="M11884 18234
L12081 17880
" />
<path d="M13262 18275
L12869 18275
" />
<path d="M12869 17881
L13065 18236
" />
<path d="M13262 17881
L12869 17881
" />
<path d="M13065 18236
L13262 17881
" />
<path d="M27042 16307
L26648 16307
" />
<path d="M26648 15913
L26845 16267
" />
<path d="M27042 15913
L26648 15913
" />
<path d="M26845 16267
L27042 15913
" />
<path d="M28223 16305
L27829 16305
" />
<path d="M27829 15911
L28026 16265
" />
<path d="M28223 15911
L27829 15911
" />
<path d="M28026 16265
L28223 15911
" />
<path d="M42002 16307
L41609 16307
" />
<path d="M41609 15913
L41806 16267
" />
<path d="M42002 15913
L41609 15913
" />
<path d="M41806 16267
L42002 15913
" />
<path d="M43184 16307
L42790 16307
" />
<path d="M42790 15913
L42987 16267
" />
<path d="M43184 15913
L42790 15913
" />
<path d="M42987 16267
L43184 15913
" />
<path d="M12081 25754
L11687 25754
" />
<path d="M11687 25360
L11884 25715
" />
<path d="M12081 25360
L11687 25360
" />
<path d="M11884 25715
L12081 25360
" />
<path d="M13262 25755
L12869 25755
" />
<path d="M12869 25362
L13065 25716
" />
<path d="M13262 25362
L12869 25362
" />
<path d="M13065 25716
L13262 25362
" />
<path d="M27042 23787
L26648 23787
" />
<path d="M26648 23393
L26845 23748
" />
<path d="M27042 23393
L26648 23393
" />
<path d="M26845 23748
L27042 23393
" />
<path d="M28223 23785
L27829 23785
" />
<path d="M27829 23391
L28026 23746
" />
<path d="M28223 23391
L27829 23391
" />
<path d="M28026 23746
L28223 23391
" />
<path d="M42002 23787
L41609 23787
" />
<path d="M41609 23393
L41806 23748
" />
<path d="M42002 23393
L41609 23393
" />
<path d="M41806 23748
L42002 23393
" />
<path d="M27042 31267
L26648 31267
" />
<path d="M26648 30874
L26845 31228
" />
<path d="M27042 30874
L26648 30874
" />
<path d="M26845 31228
L27042 30874
" />
<path d="M28223 31265
L27829 31265
" />
<path d="M27829 30872
L28026 31226
" />
<path d="M28223 30872
L27829 30872
" />
<path d="M28026 31226
L28223 30872
" />
<path d="M42002 31267
L41609 31267
" />
<path d="M41609 30874
L41806 31228
" />
<path d="M42002 30874
L41609 30874
" />
<path d="M41806 31228
L42002 30874
" />
<path d="M43184 31267
L42790 31267
" />
<path d="M42790 30874
L42987 31228
" />
<path d="M43184 30874
L42790 30874
" />
<path d="M42987 31228
L43184 30874
" />
<path d="M31892 39137
L31499 39137
" />
<path d="M31499 38744
L31695 39098
" />
<path d="M31892 38744
L31499 38744
" />
<path d="M31695 39098
L31892 38744
" />
<path d="M38262 39135
L37869 39135
" />
<path d="M37869 38742
L38065 39096
" />
<path d="M38262 38742
L37869 38742
" />
<path d="M38065 39096
L38262 38742
" />
<path d="M39443 39135
L39050 39135
" />
<path d="M39050 38742
L39247 39096
" />
<path d="M39443 38742
L39050 38742
" />
<path d="M39247 39096
L39443 38742
" />
</g>
<g style="fill:#000000; fill-opacity:1.0; 
stroke:#000000; stroke-width:3.93701; stroke-opacity:1; 
stroke-linecap:round; stroke-linejoin:round;">
<path style="fill:#000000; fill-opacity:1.0; 
stroke:#000000; stroke-width:3.93701; stroke-opacity:1; 
stroke-linecap:round; stroke-linejoin:round;fill-rule:evenodd;"
d="M 93923.4,35346
93886.4,35347.4
93858.7,35351
93834.9,35357.6
93809.8,35368.1
93788.5,35378.4
93721.1,35421.1
93668.7,35475.9
93630.4,35543.8
93605.4,35626.1
93601,35650.7
93598.1,35678.6
93595.5,35723
93593.3,35780.3
93591.7,35847
93590.7,35919.4
93590.4,35978.2
93590.4,36240.7
93760.4,36240.7
93760.4,35957.5
93760.6,35867.5
93761.4,35795.2
93762.8,35738.3
93765,35694.4
93768,35661.4
93772,35636.9
93775.1,35624.6
93800.6,35570.2
93840.3,35529.6
93893.7,35503.1
93959.9,35491.3
93981.4,35490.7
94045.3,35494.8
94096.5,35508.5
94140.6,35534
94172.1,35561.7
94193.4,35584.1
94210.5,35606.1
94223.8,35630.1
94233.8,35658.5
94240.9,35694
94245.7,35738.9
94248.5,35795.8
94249.9,35867.2
94250.3,35955.5
94250.4,35977.5
94250.4,36240.7
94420.4,36240.7
94420.4,35350.7
94250.4,35350.7
94250.4,35452.2
94218,35419.9
94184,35390.1
94148.2,35369.1
94106.5,35355.6
94054.4,35348.3
93987.6,35345.8
93975.1,35345.7
Z" /> 
<path style="fill:#000000; fill-opacity:1.0; 
stroke:#000000; stroke-width:3.93701; stroke-opacity:1; 
stroke-linecap:round; stroke-linejoin:round;fill-rule:evenodd;"
d="M 94577.9,35336.8
94520.4,35343.3
94520.4,35489.3
94572.9,35483.9
94645.3,35485.9
94712,35506.3
94770.5,35543.7
94818.4,35596.9
94837.6,35629.1
94870.4,35692.5
94870.4,36240.7
95040.4,36240.7
95040.4,35349.9
94957.9,35352.8
94875.4,35355.7
94865.4,35443.1
94845.4,35420.8
94798.8,35382.8
94739.1,35354.8
94670.8,35338.4
94599.1,35335
Z" /> 
<path style="fill:#000000; fill-opacity:1.0; 
stroke:#000000; stroke-width:3.93701; stroke-opacity:1; 
stroke-linecap:round; stroke-linejoin:round;fill-rule:evenodd;"
d="M 92926.6,35349.8
92839,35375.9
92761,35417.4
92694.1,35472.8
92639.9,35540.4
92600.2,35618.6
92576.6,35705.8
92570.4,35782.8
92570.4,35840.7
93320.4,35840.7
93320.4,35869.5
93311.3,35918
93286.4,35968.2
93248.6,36015.9
93201.1,36056.8
93166,36078
93112.5,36098.3
93049.3,36108.1
93044.1,36108.5
92972.4,36107.5
92911.9,36093
92857.7,36063.2
92812.5,36024.2
92759.1,35970.7
92679,35970.7
92639.4,35971
92616.1,35972.5
92605.4,35976.4
92603.4,35983.9
92605.6,35993.2
92620.7,36026.9
92646.3,36067.4
92677.6,36108.1
92710.2,36142.8
92722.1,36153.2
92800.4,36204.2
92888.1,36239.5
92981.3,36258.1
93076.1,36259.3
93159.3,36244.9
93246.4,36211.8
93323.1,36163
93387.5,36100.6
93437.6,36026.6
93471.7,35943
93479.2,35912.7
93491.2,35814.3
93485.8,35719.9
93481,35700.7
93319.9,35700.7
93035.1,35700.7
92951.4,35700.6
92885.6,35700.2
92835.7,35699.4
92799.5,35698.1
92774.9,35696.2
92759.9,35693.5
92752.4,35689.9
92750.4,35685.4
92750.4,35685.3
92758.4,35653.1
92779.9,35615.4
92811.2,35577.1
92848.3,35542.6
92887.6,35516.7
92888.8,35516.1
92943.6,35497.4
93008.2,35489
93075.4,35490.9
93138.1,35503.2
93174.2,35517.3
93231.9,35557.3
93278.7,35612.9
93310.3,35675.6
93319.9,35700.7
93481,35700.7
93463.8,35631.8
93426.1,35551.8
93373.6,35482.1
93307,35424.7
93262.6,35397.9
93186,35364.9
93108.3,35346.4
93022,35340.7
Z" /> 
<path style="fill:#000000; fill-opacity:1.0; 
stroke:#000000; stroke-width:3.93701; stroke-opacity:1; 
stroke-linecap:round; stroke-linejoin:round;fill-rule:evenodd;"
d="M 95600.4,35343.2
95500.6,35357.1
95410.8,35387.3
95332.2,35433
95266,35493.4
95213.4,35567.6
95188,35620.7
95175.6,35665.6
95167.6,35723.8
95164.2,35788.8
95165.3,35854.5
95171.2,35914.4
95181.9,35962.3
95183.1,35965.7
95221.1,36043.4
95275.9,36112.8
95345.4,36172
95427.5,36218.7
95457,36231
95508.9,36245.3
95573.1,36254.5
95642.2,36258.4
95709,36256.6
95766.3,36248.7
95779.2,36245.5
95863.4,36213.2
95940.1,36166.6
96005.8,36108.5
96057.3,36041.7
96077.3,36004.3
96092.4,35963.8
96105.8,35914.9
96113.7,35874.3
96116.6,35818.6
95949.6,35818.6
95943.9,35876.7
95936,35908.7
95915,35953.1
95883.4,35998.6
95846.4,36038.5
95809.4,36066.3
95806.7,36067.7
95729.3,36097.7
95648.5,36109.6
95568.5,36103.2
95524.1,36091.1
95454.4,36056.8
95397.5,36008.1
95355.3,35946.6
95353.5,35943.1
95332.7,35881.7
95324,35811.9
95327.7,35741.3
95343.9,35677.3
95348.7,35665.7
95387,35603.1
95437.3,35554
95496.6,35518.4
95562.1,35496.3
95630.8,35487.9
95699.9,35493.3
95766.5,35512.4
95827.6,35545.4
95880.3,35592.3
95921.7,35652.8
95938,35699.1
95947.5,35756.9
95949.6,35818.6
96116.6,35818.6
96118.8,35776.9
96106,35684.5
96076.4,35599.2
96031,35523
95970.6,35457.8
95896.3,35405.5
95879,35396.4
95810.4,35366.9
95742.9,35349.3
95669.7,35342.2
Z" /> 
<path style="fill:#000000; fill-opacity:1.0; 
stroke:#000000; stroke-width:3.93701; stroke-opacity:1; 
stroke-linecap:round; stroke-linejoin:round;fill-rule:evenodd;"
d="M 96538.6,35348.8
96493.4,35359.1
96406.4,35394.7
96331,35444.5
96269.2,35506.7
96222.9,35579.6
96209.3,35611.1
96195.9,35647.9
96191.3,35671.2
96198.1,35684
96218.9,35689.4
96256.1,35690.7
96274.6,35690.7
96358.8,35690.7
96371,35653.8
96397.2,35604.3
96439.1,35560.4
96492.7,35524.8
96554,35499.9
96618.9,35488.4
96635.4,35487.9
96707.1,35496.8
96774.2,35522.1
96833.1,35561.5
96880.3,35612.4
96912.6,35672.7
96915,35679.6
96928.2,35742.1
96930.5,35811.2
96922.3,35879.7
96904.3,35940.3
96895.2,35959.3
96853.6,36018.6
96800.5,36062.7
96742.5,36090.9
96672.1,36107.8
96601.5,36107.8
96533.8,36092
96472.5,36061.9
96420.9,36018.7
96382.2,35963.8
96373.7,35945.4
96355.4,35900.8
96272.9,35900.7
96232.4,35901
96208,35902.6
96195.5,35906.7
96190.9,35914.4
96190.4,35924.4
96196.5,35953.9
96212.8,35993.2
96236.5,36037.1
96264.4,36080.3
96293.7,36117.7
96309,36133.5
96379.8,36186.7
96462,36226.3
96551.4,36251.1
96643.4,36259.9
96720.4,36253.8
96796.4,36233.8
96870.3,36201.1
96937.1,36158.6
96992,36109.2
97018.3,36075.7
97050.3,36022.8
97072.3,35973.6
97085.9,35922.1
97092.8,35862.4
97094.5,35795.7
97093.9,35740.2
97091.7,35699.3
97087.1,35667.4
97079.4,35639.2
97071.7,35618.2
97030.1,35539.6
96972.5,35470.1
96902,35412.7
96821.6,35370.5
96820.4,35370
96758.9,35352.7
96686.5,35343.3
96610.6,35341.9
Z" /> 
<path style="fill:#000000; fill-opacity:1.0; 
stroke:#000000; stroke-width:3.93701; stroke-opacity:1; 
stroke-linecap:round; stroke-linejoin:round;fill-rule:evenodd;"
d="M 25365.3,35317.3
25320.2,35327.6
25233.1,35363.2
25157.8,35413
25096,35475.2
25049.7,35548.1
25036,35579.6
25022.7,35616.4
25018.1,35639.7
25024.9,35652.5
25045.6,35657.9
25082.9,35659.2
25101.4,35659.2
25185.6,35659.2
25197.7,35622.3
25224,35572.8
25265.9,35528.9
25319.5,35493.3
25380.8,35468.4
25445.6,35456.9
25462.1,35456.4
25533.9,35465.3
25601,35490.6
25659.8,35530
25707.1,35580.9
25739.3,35641.2
25741.8,35648.1
25755,35710.6
25757.3,35779.7
25749.1,35848.2
25731.1,35908.8
25722,35927.8
25680.4,35987.1
25627.3,36031.2
25569.3,36059.4
25498.9,36076.3
25428.2,36076.3
25360.6,36060.5
25299.3,36030.4
25247.6,35987.3
25209,35932.3
25200.5,35913.9
25182.1,35869.3
25099.6,35869.2
25059.2,35869.5
25034.7,35871.1
25022.2,35875.2
25017.7,35882.9
25017.1,35892.9
25023.2,35922.4
25039.6,35961.7
25063.2,36005.6
25091.2,36048.8
25120.5,36086.2
25135.8,36102
25206.6,36155.2
25288.8,36194.8
25378.1,36219.7
25470.2,36228.4
25547.1,36222.3
25623.2,36202.3
25697.1,36169.6
25763.9,36127.1
25818.7,36077.7
25845.1,36044.2
25877.1,35991.3
25899.1,35942.1
25912.7,35890.6
25919.6,35830.9
25921.3,35764.2
25920.7,35708.7
25918.5,35667.8
25913.9,35635.9
25906.2,35607.7
25898.5,35586.7
25856.9,35508.1
25799.3,35438.6
25728.8,35381.2
25648.4,35339
25647.1,35338.5
25585.7,35321.2
25513.3,35311.8
25437.3,35310.4
Z" /> 
<path style="fill:#000000; fill-opacity:1.0; 
stroke:#000000; stroke-width:3.93701; stroke-opacity:1; 
stroke-linecap:round; stroke-linejoin:round;fill-rule:evenodd;"
d="M 24427.2,35311.7
24327.4,35325.6
24237.6,35355.8
24159,35401.5
24092.8,35461.9
24040.2,35536.1
24014.8,35589.2
24002.4,35634.1
23994.4,35692.3
23990.9,35757.3
23992.1,35823
23998,35882.9
24008.7,35930.8
24009.9,35934.2
24047.8,36011.9
24102.6,36081.3
24172.2,36140.5
24254.2,36187.2
24283.7,36199.5
24335.7,36213.8
24399.9,36223
24469,36226.9
24535.8,36225.1
24593.1,36217.2
24606,36214
24690.2,36181.7
24766.9,36135.1
24832.6,36077
24884,36010.2
24904.1,35972.8
24919.2,35932.3
24932.6,35883.4
24940.5,35842.8
24943.4,35787.1
24776.3,35787.1
24770.7,35845.2
24762.8,35877.2
24741.8,35921.6
24710.2,35967.1
24673.2,36007
24636.2,36034.8
24633.5,36036.2
24556,36066.2
24475.3,36078.1
24395.2,36071.7
24350.9,36059.6
24281.1,36025.3
24224.2,35976.6
24182.1,35915.1
24180.3,35911.6
24159.4,35850.2
24150.8,35780.4
24154.5,35709.8
24170.6,35645.8
24175.5,35634.2
24213.8,35571.6
24264.1,35522.5
24323.4,35486.9
24388.9,35464.8
24457.6,35456.5
24526.7,35461.8
24593.3,35480.9
24654.4,35513.9
24707.1,35560.8
24748.4,35621.3
24764.8,35667.6
24774.2,35725.4
24776.3,35787.1
24943.4,35787.1
24945.6,35745.4
24932.8,35653
24903.2,35567.7
24857.7,35491.5
24797.4,35426.3
24723.1,35374
24705.7,35364.9
24637.1,35335.5
24569.7,35317.8
24496.5,35310.7
Z" /> 
<path style="fill:#000000; fill-opacity:1.0; 
stroke:#000000; stroke-width:3.93701; stroke-opacity:1; 
stroke-linecap:round; stroke-linejoin:round;fill-rule:evenodd;"
d="M 21753.3,35318.3
21665.8,35344.4
21587.7,35385.9
21520.8,35441.3
21466.7,35508.9
21427,35587.1
21403.4,35674.3
21397.1,35751.3
21397.1,35809.2
22147.1,35809.2
22147.1,35838
22138.1,35886.5
22113.1,35936.7
22075.3,35984.4
22027.9,36025.3
21992.8,36046.6
21939.3,36066.8
21876,36076.6
21870.9,36077
21799.2,36076
21738.7,36061.5
21684.5,36031.7
21639.3,35992.7
21585.8,35939.2
21505.8,35939.2
21466.2,35939.5
21442.9,35941
21432.1,35944.9
21430.2,35952.4
21432.4,35961.7
21447.5,35995.4
21473,36035.9
21504.4,36076.6
21537,36111.3
21548.9,36121.7
21627.2,36172.7
21714.8,36208
21808,36226.6
21902.9,36227.8
21986.1,36213.4
22073.1,36180.3
22149.8,36131.5
22214.2,36069.1
22264.4,35995.1
22298.4,35911.5
22306,35881.2
22318,35782.8
22312.6,35688.4
22307.8,35669.2
22146.6,35669.2
21861.9,35669.2
21778.2,35669.1
21712.4,35668.7
21662.4,35667.9
21626.2,35666.6
21601.7,35664.7
21586.7,35662
21579.2,35658.4
21577.1,35653.9
21577.1,35653.8
21585.1,35621.6
21606.7,35583.9
21637.9,35545.6
21675.1,35511.1
21714.4,35485.2
21715.6,35484.6
21770.3,35465.9
21834.9,35457.5
21902.2,35459.4
21964.8,35471.7
22001,35485.8
22058.7,35525.8
22105.5,35581.4
22137.1,35644.1
22146.6,35669.2
22307.8,35669.2
22290.6,35600.3
22252.9,35520.3
22200.4,35450.6
22133.8,35393.2
22089.4,35366.4
22012.8,35333.4
21935.1,35314.9
21848.7,35309.2
Z" /> 
<path style="fill:#000000; fill-opacity:1.0; 
stroke:#000000; stroke-width:3.93701; stroke-opacity:1; 
stroke-linecap:round; stroke-linejoin:round;fill-rule:evenodd;"
d="M 23404.6,35305.3
23347.1,35311.8
23347.1,35457.8
23399.6,35452.4
23472.1,35454.4
23538.8,35474.8
23597.3,35512.2
23645.2,35565.4
23664.4,35597.6
23697.1,35661
23697.1,36209.2
23867.1,36209.2
23867.1,35318.4
23784.6,35321.3
23702.1,35324.2
23692.1,35411.6
23672.1,35389.3
23625.6,35351.3
23565.8,35323.3
23497.6,35306.9
23425.8,35303.6
Z" /> 
<path style="fill:#000000; fill-opacity:1.0; 
stroke:#000000; stroke-width:3.93701; stroke-opacity:1; 
stroke-linecap:round; stroke-linejoin:round;fill-rule:evenodd;"
d="M 22750.2,35314.5
22713.2,35315.9
22685.4,35319.5
22661.7,35326.1
22636.6,35336.6
22615.3,35346.9
22547.9,35389.6
22495.5,35444.4
22457.1,35512.4
22432.2,35594.6
22427.7,35619.2
22424.9,35647.2
22422.3,35691.5
22420.1,35748.8
22418.5,35815.5
22417.5,35887.9
22417.2,35946.7
22417.1,36209.2
22587.1,36209.2
22587.1,35926
22587.4,35836
22588.1,35763.7
22589.6,35706.8
22591.8,35662.9
22594.8,35629.9
22598.8,35605.4
22601.9,35593.1
22627.4,35538.7
22667.1,35498.1
22720.4,35471.6
22786.7,35459.8
22808.1,35459.2
22872.1,35463.3
22923.3,35477
22967.4,35502.5
22998.9,35530.2
23020.2,35552.7
23037.3,35574.6
23050.6,35598.6
23060.6,35627
23067.7,35662.5
23072.4,35707.4
23075.3,35764.3
23076.7,35835.7
23077.1,35924
23077.1,35946
23077.1,36209.2
23247.1,36209.2
23247.1,35319.2
23077.1,35319.2
23077.1,35420.8
23044.7,35388.4
23010.7,35358.6
22975,35337.6
22933.3,35324.1
22881.2,35316.8
22814.4,35314.3
22801.9,35314.2
Z" /> 
<g >
</g>
</g> 
</svg>
