<?xml version="1.0" standalone="no"?>
 <!DOCTYPE svg PUBLIC "-//W3C//DTD SVG 1.1//EN" 
 "http://www.w3.org/Graphics/SVG/1.1/DTD/svg11.dtd"> 
<svg xmlns="http://www.w3.org/2000/svg" version="1.1" 
    width="29.7002cm" height="21.0007cm" viewBox="0 0 116930 82680 ">
<title>SVG Picture created as corne-light-F_SilkS.svg date 2020/11/14 09:44:46 </title>
  <desc>Picture generated by PCBNEW </desc>
<g style="fill:#000000; fill-opacity:1;stroke:#000000; stroke-opacity:1;
stroke-linecap:round; stroke-linejoin:round; "
 transform="translate(0 0) scale(1 1)">
</g>
<g style="fill:#000000; fill-opacity:0.0; 
stroke:#000000; stroke-width:-0.000393701; stroke-opacity:1; 
stroke-linecap:round; stroke-linejoin:round;">
</g>
<g style="fill:#000000; fill-opacity:0.0; 
stroke:#000000; stroke-width:49.2126; stroke-opacity:1; 
stroke-linecap:round; stroke-linejoin:round;">
<text x="84754.9" y="27189"
textLength="12903.6" font-size="524.934" lengthAdjust="spacingAndGlyphs"
text-anchor="start" opacity="0">Corne Light v2.0 PCB Designed by foostan</text>
<path d="M85105 27132
L85086 27151
L85030 27170
L84993 27170
L84936 27151
L84899 27113
L84880 27076
L84861 27001
L84861 26945
L84880 26870
L84899 26832
L84936 26795
L84993 26776
L85030 26776
L85086 26795
L85105 26814
" />
<path d="M85330 27170
L85293 27151
L85274 27132
L85255 27095
L85255 26982
L85274 26945
L85293 26926
L85330 26907
L85386 26907
L85424 26926
L85443 26945
L85461 26982
L85461 27095
L85443 27132
L85424 27151
L85386 27170
L85330 27170
" />
<path d="M85630 27170
L85630 26907
" />
<path d="M85630 26982
L85649 26945
L85668 26926
L85705 26907
L85743 26907
" />
<path d="M85874 26907
L85874 27170
" />
<path d="M85874 26945
L85893 26926
L85930 26907
L85986 26907
L86024 26926
L86043 26964
L86043 27170
" />
<path d="M86380 27151
L86342 27170
L86267 27170
L86230 27151
L86211 27113
L86211 26964
L86230 26926
L86267 26907
L86342 26907
L86380 26926
L86399 26964
L86399 27001
L86211 27038
" />
<path d="M87055 27170
L86867 27170
L86867 26776
" />
<path d="M87186 27170
L87186 26907
" />
<path d="M87186 26776
L87167 26795
L87186 26814
L87205 26795
L87186 26776
L87186 26814
" />
<path d="M87542 26907
L87542 27226
L87524 27263
L87505 27282
L87467 27301
L87411 27301
L87374 27282
" />
<path d="M87542 27151
L87505 27170
L87430 27170
L87392 27151
L87374 27132
L87355 27095
L87355 26982
L87374 26945
L87392 26926
L87430 26907
L87505 26907
L87542 26926
" />
<path d="M87730 27170
L87730 26776
" />
<path d="M87899 27170
L87899 26964
L87880 26926
L87842 26907
L87786 26907
L87749 26926
L87730 26945
" />
<path d="M88030 26907
L88180 26907
" />
<path d="M88086 26776
L88086 27113
L88105 27151
L88142 27170
L88180 27170
" />
<path d="M88573 26907
L88667 27170
L88761 26907
" />
<path d="M88892 26814
L88911 26795
L88948 26776
L89042 26776
L89080 26795
L89098 26814
L89117 26851
L89117 26889
L89098 26945
L88873 27170
L89117 27170
" />
<path d="M89286 27132
L89305 27151
L89286 27170
L89267 27151
L89286 27132
L89286 27170
" />
<path d="M89548 26776
L89586 26776
L89623 26795
L89642 26814
L89661 26851
L89680 26926
L89680 27020
L89661 27095
L89642 27132
L89623 27151
L89586 27170
L89548 27170
L89511 27151
L89492 27132
L89473 27095
L89455 27020
L89455 26926
L89473 26851
L89492 26814
L89511 26795
L89548 26776
" />
<path d="M90148 27170
L90148 26776
L90298 26776
L90336 26795
L90354 26814
L90373 26851
L90373 26907
L90354 26945
L90336 26964
L90298 26982
L90148 26982
" />
<path d="M90767 27132
L90748 27151
L90692 27170
L90654 27170
L90598 27151
L90561 27113
L90542 27076
L90523 27001
L90523 26945
L90542 26870
L90561 26832
L90598 26795
L90654 26776
L90692 26776
L90748 26795
L90767 26814
" />
<path d="M91067 26964
L91123 26982
L91142 27001
L91161 27038
L91161 27095
L91142 27132
L91123 27151
L91086 27170
L90936 27170
L90936 26776
L91067 26776
L91104 26795
L91123 26814
L91142 26851
L91142 26889
L91123 26926
L91104 26945
L91067 26964
L90936 26964
" />
<path d="M91629 27170
L91629 26776
L91723 26776
L91779 26795
L91817 26832
L91836 26870
L91854 26945
L91854 27001
L91836 27076
L91817 27113
L91779 27151
L91723 27170
L91629 27170
" />
<path d="M92173 27151
L92135 27170
L92061 27170
L92023 27151
L92004 27113
L92004 26964
L92023 26926
L92061 26907
L92135 26907
L92173 26926
L92192 26964
L92192 27001
L92004 27038
" />
<path d="M92342 27151
L92379 27170
L92454 27170
L92492 27151
L92510 27113
L92510 27095
L92492 27057
L92454 27038
L92398 27038
L92360 27020
L92342 26982
L92342 26964
L92360 26926
L92398 26907
L92454 26907
L92492 26926
" />
<path d="M92679 27170
L92679 26907
" />
<path d="M92679 26776
L92660 26795
L92679 26814
L92698 26795
L92679 26776
L92679 26814
" />
<path d="M93035 26907
L93035 27226
L93017 27263
L92998 27282
L92960 27301
L92904 27301
L92867 27282
" />
<path d="M93035 27151
L92998 27170
L92923 27170
L92885 27151
L92867 27132
L92848 27095
L92848 26982
L92867 26945
L92885 26926
L92923 26907
L92998 26907
L93035 26926
" />
<path d="M93223 26907
L93223 27170
" />
<path d="M93223 26945
L93242 26926
L93279 26907
L93335 26907
L93373 26926
L93392 26964
L93392 27170
" />
<path d="M93729 27151
L93692 27170
L93617 27170
L93579 27151
L93560 27113
L93560 26964
L93579 26926
L93617 26907
L93692 26907
L93729 26926
L93748 26964
L93748 27001
L93560 27038
" />
<path d="M94085 27170
L94085 26776
" />
<path d="M94085 27151
L94048 27170
L93973 27170
L93935 27151
L93917 27132
L93898 27095
L93898 26982
L93917 26945
L93935 26926
L93973 26907
L94048 26907
L94085 26926
" />
<path d="M94573 27170
L94573 26776
" />
<path d="M94573 26926
L94610 26907
L94685 26907
L94723 26926
L94741 26945
L94760 26982
L94760 27095
L94741 27132
L94723 27151
L94685 27170
L94610 27170
L94573 27151
" />
<path d="M94891 26907
L94985 27170
" />
<path d="M95079 26907
L94985 27170
L94948 27263
L94929 27282
L94891 27301
" />
<path d="M95473 26907
L95623 26907
" />
<path d="M95529 27170
L95529 26832
L95548 26795
L95585 26776
L95623 26776
" />
<path d="M95810 27170
L95773 27151
L95754 27132
L95735 27095
L95735 26982
L95754 26945
L95773 26926
L95810 26907
L95866 26907
L95904 26926
L95923 26945
L95941 26982
L95941 27095
L95923 27132
L95904 27151
L95866 27170
L95810 27170
" />
<path d="M96166 27170
L96129 27151
L96110 27132
L96091 27095
L96091 26982
L96110 26945
L96129 26926
L96166 26907
L96222 26907
L96260 26926
L96279 26945
L96297 26982
L96297 27095
L96279 27132
L96260 27151
L96222 27170
L96166 27170
" />
<path d="M96447 27151
L96485 27170
L96560 27170
L96597 27151
L96616 27113
L96616 27095
L96597 27057
L96560 27038
L96504 27038
L96466 27020
L96447 26982
L96447 26964
L96466 26926
L96504 26907
L96560 26907
L96597 26926
" />
<path d="M96729 26907
L96879 26907
" />
<path d="M96785 26776
L96785 27113
L96804 27151
L96841 27170
L96879 27170
" />
<path d="M97179 27170
L97179 26964
L97160 26926
L97122 26907
L97047 26907
L97010 26926
" />
<path d="M97179 27151
L97141 27170
L97047 27170
L97010 27151
L96991 27113
L96991 27076
L97010 27038
L97047 27020
L97141 27020
L97179 27001
" />
<path d="M97366 26907
L97366 27170
" />
<path d="M97366 26945
L97385 26926
L97422 26907
L97479 26907
L97516 26926
L97535 26964
L97535 27170
" />
<text x="21168.3" y="27204.7"
textLength="12906.1" font-size="524.934" lengthAdjust="spacingAndGlyphs"
text-anchor="start" opacity="0">Corne Light v2.0 PCB Designed by foostan</text>
<path d="M21519 27148
L21500 27167
L21444 27185
L21406 27185
L21350 27167
L21312 27129
L21294 27092
L21275 27017
L21275 26961
L21294 26886
L21312 26848
L21350 26811
L21406 26792
L21444 26792
L21500 26811
L21519 26829
" />
<path d="M21743 27185
L21706 27167
L21687 27148
L21668 27110
L21668 26998
L21687 26961
L21706 26942
L21743 26923
L21800 26923
L21837 26942
L21856 26961
L21875 26998
L21875 27110
L21856 27148
L21837 27167
L21800 27185
L21743 27185
" />
<path d="M22043 27185
L22043 26923
" />
<path d="M22043 26998
L22062 26961
L22081 26942
L22118 26923
L22156 26923
" />
<path d="M22287 26923
L22287 27185
" />
<path d="M22287 26961
L22306 26942
L22343 26923
L22400 26923
L22437 26942
L22456 26979
L22456 27185
" />
<path d="M22793 27167
L22756 27185
L22681 27185
L22643 27167
L22625 27129
L22625 26979
L22643 26942
L22681 26923
L22756 26923
L22793 26942
L22812 26979
L22812 27017
L22625 27054
" />
<path d="M23468 27185
L23281 27185
L23281 26792
" />
<path d="M23599 27185
L23599 26923
" />
<path d="M23599 26792
L23581 26811
L23599 26829
L23618 26811
L23599 26792
L23599 26829
" />
<path d="M23956 26923
L23956 27242
L23937 27279
L23918 27298
L23881 27317
L23824 27317
L23787 27298
" />
<path d="M23956 27167
L23918 27185
L23843 27185
L23806 27167
L23787 27148
L23768 27110
L23768 26998
L23787 26961
L23806 26942
L23843 26923
L23918 26923
L23956 26942
" />
<path d="M24143 27185
L24143 26792
" />
<path d="M24312 27185
L24312 26979
L24293 26942
L24256 26923
L24199 26923
L24162 26942
L24143 26961
" />
<path d="M24443 26923
L24593 26923
" />
<path d="M24499 26792
L24499 27129
L24518 27167
L24556 27185
L24593 27185
" />
<path d="M24987 26923
L25081 27185
L25174 26923
" />
<path d="M25306 26829
L25324 26811
L25362 26792
L25456 26792
L25493 26811
L25512 26829
L25531 26867
L25531 26904
L25512 26961
L25287 27185
L25531 27185
" />
<path d="M25699 27148
L25718 27167
L25699 27185
L25680 27167
L25699 27148
L25699 27185
" />
<path d="M25962 26792
L25999 26792
L26037 26811
L26055 26829
L26074 26867
L26093 26942
L26093 27035
L26074 27110
L26055 27148
L26037 27167
L25999 27185
L25962 27185
L25924 27167
L25905 27148
L25887 27110
L25868 27035
L25868 26942
L25887 26867
L25905 26829
L25924 26811
L25962 26792
" />
<path d="M26562 27185
L26562 26792
L26712 26792
L26749 26811
L26768 26829
L26787 26867
L26787 26923
L26768 26961
L26749 26979
L26712 26998
L26562 26998
" />
<path d="M27180 27148
L27162 27167
L27105 27185
L27068 27185
L27012 27167
L26974 27129
L26955 27092
L26937 27017
L26937 26961
L26955 26886
L26974 26848
L27012 26811
L27068 26792
L27105 26792
L27162 26811
L27180 26829
" />
<path d="M27480 26979
L27537 26998
L27555 27017
L27574 27054
L27574 27110
L27555 27148
L27537 27167
L27499 27185
L27349 27185
L27349 26792
L27480 26792
L27518 26811
L27537 26829
L27555 26867
L27555 26904
L27537 26942
L27518 26961
L27480 26979
L27349 26979
" />
<path d="M28043 27185
L28043 26792
L28136 26792
L28193 26811
L28230 26848
L28249 26886
L28268 26961
L28268 27017
L28249 27092
L28230 27129
L28193 27167
L28136 27185
L28043 27185
" />
<path d="M28586 27167
L28549 27185
L28474 27185
L28436 27167
L28418 27129
L28418 26979
L28436 26942
L28474 26923
L28549 26923
L28586 26942
L28605 26979
L28605 27017
L28418 27054
" />
<path d="M28755 27167
L28793 27185
L28868 27185
L28905 27167
L28924 27129
L28924 27110
L28905 27073
L28868 27054
L28811 27054
L28774 27035
L28755 26998
L28755 26979
L28774 26942
L28811 26923
L28868 26923
L28905 26942
" />
<path d="M29093 27185
L29093 26923
" />
<path d="M29093 26792
L29074 26811
L29093 26829
L29111 26811
L29093 26792
L29093 26829
" />
<path d="M29449 26923
L29449 27242
L29430 27279
L29411 27298
L29374 27317
L29318 27317
L29280 27298
" />
<path d="M29449 27167
L29411 27185
L29336 27185
L29299 27167
L29280 27148
L29261 27110
L29261 26998
L29280 26961
L29299 26942
L29336 26923
L29411 26923
L29449 26942
" />
<path d="M29636 26923
L29636 27185
" />
<path d="M29636 26961
L29655 26942
L29692 26923
L29749 26923
L29786 26942
L29805 26979
L29805 27185
" />
<path d="M30142 27167
L30105 27185
L30030 27185
L29992 27167
L29974 27129
L29974 26979
L29992 26942
L30030 26923
L30105 26923
L30142 26942
L30161 26979
L30161 27017
L29974 27054
" />
<path d="M30499 27185
L30499 26792
" />
<path d="M30499 27167
L30461 27185
L30386 27185
L30349 27167
L30330 27148
L30311 27110
L30311 26998
L30330 26961
L30349 26942
L30386 26923
L30461 26923
L30499 26942
" />
<path d="M30986 27185
L30986 26792
" />
<path d="M30986 26942
L31024 26923
L31099 26923
L31136 26942
L31155 26961
L31174 26998
L31174 27110
L31155 27148
L31136 27167
L31099 27185
L31024 27185
L30986 27167
" />
<path d="M31305 26923
L31399 27185
" />
<path d="M31492 26923
L31399 27185
L31361 27279
L31342 27298
L31305 27317
" />
<path d="M31886 26923
L32036 26923
" />
<path d="M31942 27185
L31942 26848
L31961 26811
L31998 26792
L32036 26792
" />
<path d="M32223 27185
L32186 27167
L32167 27148
L32148 27110
L32148 26998
L32167 26961
L32186 26942
L32223 26923
L32280 26923
L32317 26942
L32336 26961
L32355 26998
L32355 27110
L32336 27148
L32317 27167
L32280 27185
L32223 27185
" />
<path d="M32580 27185
L32542 27167
L32523 27148
L32505 27110
L32505 26998
L32523 26961
L32542 26942
L32580 26923
L32636 26923
L32673 26942
L32692 26961
L32711 26998
L32711 27110
L32692 27148
L32673 27167
L32636 27185
L32580 27185
" />
<path d="M32861 27167
L32898 27185
L32973 27185
L33011 27167
L33030 27129
L33030 27110
L33011 27073
L32973 27054
L32917 27054
L32880 27035
L32861 26998
L32861 26979
L32880 26942
L32917 26923
L32973 26923
L33011 26942
" />
<path d="M33142 26923
L33292 26923
" />
<path d="M33198 26792
L33198 27129
L33217 27167
L33255 27185
L33292 27185
" />
<path d="M33592 27185
L33592 26979
L33573 26942
L33536 26923
L33461 26923
L33423 26942
" />
<path d="M33592 27167
L33555 27185
L33461 27185
L33423 27167
L33405 27129
L33405 27092
L33423 27054
L33461 27035
L33555 27035
L33592 27017
" />
<path d="M33779 26923
L33779 27185
" />
<path d="M33779 26961
L33798 26942
L33836 26923
L33892 26923
L33929 26942
L33948 26979
L33948 27185
" />
</g>
<g style="fill:#000000; fill-opacity:0.0; 
stroke:#000000; stroke-width:59.0551; stroke-opacity:1; 
stroke-linecap:round; stroke-linejoin:round;">
<path d="M62640 30889
L62640 29984
" />
<path d="M66538 29984
L66538 30889
" />
<path d="M62640 29984
L66538 29984
" />
<path d="M62640 30889
L66538 30889
" />
<path d="M51920 30833
L51920 29928
" />
<path d="M55818 29928
L55818 30833
" />
<path d="M51920 29928
L55818 29928
" />
<path d="M51920 30833
L55818 30833
" />
<path d="M65554 34435
L60928 34435
" />
<path d="M65554 32151
L65554 34435
" />
<path d="M60928 32151
L65554 32151
" />
<path d="M60928 34435
L60928 32151
" />
<path d="M52879 32099
L57505 32099
" />
<path d="M52879 34382
L52879 32099
" />
<path d="M57505 34382
L52879 34382
" />
<path d="M57505 32099
L57505 34382
" />
<path d="M62194 31365
L62096 31365
" />
<path d="M62194 29121
L62194 31365
" />
<path d="M62194 29121
L62096 29121
" />
<path d="M60934 29121
L61033 29121
" />
<path d="M60934 31365
L61033 31365
" />
<path d="M60934 29121
L60934 31365
" />
<path d="M57521 31307
L57423 31307
" />
<path d="M57521 29063
L57521 31307
" />
<path d="M57521 29063
L57423 29063
" />
<path d="M56261 29063
L56360 29063
" />
<path d="M56261 31307
L56360 31307
" />
<path d="M56261 29063
L56261 31307
" />
<path d="M68036 28065
L67697 28065
" />
<path d="M61146 28065
L61481 28065
" />
<path d="M68036 27730
L68036 28065
" />
<path d="M61146 27711
L61146 28065
" />
<path d="M68036 16175
L67721 16175
" />
<path d="M61146 16175
L61481 16175
" />
<path d="M68036 16175
L68036 16510
" />
<path d="M61146 16175
L61146 16510
" />
<path d="M63115 13971
L63115 14482
" />
<path d="M63115 14482
L66068 14482
" />
<path d="M66068 14482
L66068 13971
" />
<path d="M66068 13971
L63115 13971
" />
<path d="M64394 14108
L64788 14108
" />
<path d="M64788 14108
L64591 14364
" />
<path d="M64591 14364
L64394 14108
" />
<path d="M64453 14167
L64729 14167
" />
<path d="M64493 14226
L64690 14226
" />
<path d="M64532 14285
L64650 14285
" />
<path d="M57339 28015
L57000 28015
" />
<path d="M50449 28015
L50784 28015
" />
<path d="M57339 27681
L57339 28015
" />
<path d="M50449 27661
L50449 28015
" />
<path d="M57339 16125
L57024 16125
" />
<path d="M50449 16125
L50784 16125
" />
<path d="M57339 16125
L57339 16460
" />
<path d="M50449 16125
L50449 16460
" />
<path d="M52418 13921
L52418 14433
" />
<path d="M52418 14433
L55371 14433
" />
<path d="M55371 14433
L55371 13921
" />
<path d="M55371 13921
L52418 13921
" />
<path d="M53697 14059
L54091 14059
" />
<path d="M54091 14059
L53894 14314
" />
<path d="M53894 14314
L53697 14059
" />
<path d="M53756 14118
L54032 14118
" />
<path d="M53796 14177
L53993 14177
" />
<path d="M53835 14236
L53953 14236
" />
</g>
<g style="fill:#000000; fill-opacity:1.0; 
stroke:#000000; stroke-width:3.93701; stroke-opacity:1; 
stroke-linecap:round; stroke-linejoin:round;">
<path style="fill:#000000; fill-opacity:1.0; 
stroke:#000000; stroke-width:3.93701; stroke-opacity:1; 
stroke-linecap:round; stroke-linejoin:round;fill-rule:evenodd;"
d="M 93132.7,35348.8
93177.9,35359.1
93264.9,35394.7
93340.3,35444.5
93402.1,35506.7
93448.3,35579.6
93462,35611.1
93475.4,35647.9
93480,35671.2
93473.1,35684
93452.4,35689.4
93415.2,35690.7
93396.7,35690.7
93312.5,35690.7
93300.3,35653.8
93274.1,35604.3
93232.1,35560.4
93178.5,35524.8
93117.3,35499.9
93052.4,35488.4
93035.9,35487.9
92964.1,35496.8
92897.1,35522.1
92838.2,35561.5
92790.9,35612.4
92758.7,35672.7
92756.3,35679.6
92743.1,35742.1
92740.8,35811.2
92748.9,35879.7
92767,35940.3
92776.1,35959.3
92817.7,36018.6
92870.8,36062.7
92928.8,36090.9
92999.1,36107.8
93069.8,36107.8
93137.4,36092
93198.7,36061.9
93250.4,36018.7
93289,35963.8
93297.5,35945.4
93315.9,35900.8
93398.4,35900.7
93438.8,35901
93463.3,35902.6
93475.8,35906.7
93480.3,35914.4
93480.9,35924.4
93474.8,35953.9
93458.4,35993.2
93434.8,36037.1
93406.8,36080.3
93377.5,36117.7
93362.2,36133.5
93291.4,36186.7
93209.2,36226.3
93119.9,36251.1
93027.9,36259.9
92950.9,36253.8
92874.8,36233.8
92801,36201.1
92734.2,36158.6
92679.3,36109.2
92652.9,36075.7
92620.9,36022.8
92598.9,35973.6
92585.3,35922.1
92578.5,35862.4
92576.7,35795.7
92577.3,35740.2
92579.6,35699.3
92584.2,35667.4
92591.8,35639.2
92599.5,35618.2
92641.1,35539.6
92698.7,35470.1
92769.2,35412.7
92849.6,35370.5
92850.9,35370
92912.3,35352.7
92984.7,35343.3
93060.7,35341.9
Z" /> 
<path style="fill:#000000; fill-opacity:1.0; 
stroke:#000000; stroke-width:3.93701; stroke-opacity:1; 
stroke-linecap:round; stroke-linejoin:round;fill-rule:evenodd;"
d="M 94070.9,35343.2
94170.6,35357.1
94260.4,35387.3
94339,35433
94405.2,35493.4
94457.8,35567.6
94483.3,35620.7
94495.7,35665.6
94503.7,35723.8
94507.1,35788.8
94505.9,35854.5
94500,35914.4
94489.3,35962.3
94488.2,35965.7
94450.2,36043.4
94395.4,36112.8
94325.9,36172
94243.8,36218.7
94214.3,36231
94162.3,36245.3
94098.2,36254.5
94029,36258.4
93962.2,36256.6
93905,36248.7
93892,36245.5
93807.8,36213.2
93731.1,36166.6
93665.4,36108.5
93614,36041.7
93594,36004.3
93578.9,35963.8
93565.4,35914.9
93557.5,35874.3
93554.6,35818.6
93721.7,35818.6
93727.3,35876.7
93735.3,35908.7
93756.2,35953.1
93787.9,35998.6
93824.9,36038.5
93861.9,36066.3
93864.6,36067.7
93942,36097.7
94022.7,36109.6
94102.8,36103.2
94147.1,36091.1
94216.9,36056.8
94273.8,36008.1
94316,35946.6
94317.7,35943.1
94338.6,35881.7
94347.2,35811.9
94343.6,35741.3
94327.4,35677.3
94322.6,35665.7
94284.2,35603.1
94234,35554
94174.6,35518.4
94109.1,35496.3
94040.4,35487.9
93971.3,35493.3
93904.8,35512.4
93843.7,35545.4
93790.9,35592.3
93749.6,35652.8
93733.2,35699.1
93723.8,35756.9
93721.7,35818.6
93554.6,35818.6
93552.5,35776.9
93565.2,35684.5
93594.8,35599.2
93640.3,35523
93700.7,35457.8
93774.9,35405.5
93792.3,35396.4
93860.9,35366.9
93928.4,35349.3
94001.5,35342.2
Z" /> 
<path style="fill:#000000; fill-opacity:1.0; 
stroke:#000000; stroke-width:3.93701; stroke-opacity:1; 
stroke-linecap:round; stroke-linejoin:round;fill-rule:evenodd;"
d="M 96744.7,35349.8
96832.2,35375.9
96910.3,35417.4
96977.2,35472.8
97031.3,35540.4
97071,35618.6
97094.7,35705.8
97100.9,35782.8
97100.9,35840.7
96350.9,35840.7
96350.9,35869.5
96359.9,35918
96384.9,35968.2
96422.7,36015.9
96470.2,36056.8
96505.3,36078
96558.8,36098.3
96622,36108.1
96627.1,36108.5
96698.9,36107.5
96759.4,36093
96813.6,36063.2
96858.7,36024.2
96912.2,35970.7
96992.2,35970.7
97031.8,35971
97055.1,35972.5
97065.9,35976.4
97067.9,35983.9
97065.6,35993.2
97050.6,36026.9
97025,36067.4
96993.6,36108.1
96961,36142.8
96949.2,36153.2
96870.9,36204.2
96783.2,36239.5
96690,36258.1
96595.1,36259.3
96512,36244.9
96424.9,36211.8
96348.2,36163
96283.8,36100.6
96233.6,36026.6
96199.6,35943
96192.1,35912.7
96180,35814.3
96185.4,35719.9
96190.2,35700.7
96351.4,35700.7
96636.2,35700.7
96719.8,35700.6
96785.6,35700.2
96835.6,35699.4
96871.8,35698.1
96896.3,35696.2
96911.3,35693.5
96918.8,35689.9
96920.9,35685.4
96920.9,35685.3
96912.9,35653.1
96891.3,35615.4
96860.1,35577.1
96822.9,35542.6
96783.6,35516.7
96782.4,35516.1
96727.7,35497.4
96663.1,35489
96595.8,35490.9
96533.2,35503.2
96497.1,35517.3
96439.4,35557.3
96392.6,35612.9
96360.9,35675.6
96351.4,35700.7
96190.2,35700.7
96207.4,35631.8
96245.1,35551.8
96297.7,35482.1
96364.2,35424.7
96408.7,35397.9
96485.3,35364.9
96563,35346.4
96649.3,35340.7
Z" /> 
<path style="fill:#000000; fill-opacity:1.0; 
stroke:#000000; stroke-width:3.93701; stroke-opacity:1; 
stroke-linecap:round; stroke-linejoin:round;fill-rule:evenodd;"
d="M 95093.4,35336.8
95150.9,35343.3
95150.9,35489.3
95098.4,35483.9
95025.9,35485.9
94959.2,35506.3
94900.7,35543.7
94852.9,35596.9
94833.6,35629.1
94800.9,35692.5
94800.9,36240.7
94630.9,36240.7
94630.9,35349.9
94713.4,35352.8
94795.9,35355.7
94805.9,35443.1
94825.9,35420.8
94872.4,35382.8
94932.2,35354.8
95000.4,35338.4
95072.2,35335
Z" /> 
<path style="fill:#000000; fill-opacity:1.0; 
stroke:#000000; stroke-width:3.93701; stroke-opacity:1; 
stroke-linecap:round; stroke-linejoin:round;fill-rule:evenodd;"
d="M 95747.8,35346
95784.9,35347.4
95812.6,35351
95836.3,35357.6
95861.4,35368.1
95882.8,35378.4
95950.1,35421.1
96002.6,35475.9
96040.9,35543.8
96065.8,35626.1
96070.3,35650.7
96073.2,35678.6
96075.7,35723
96077.9,35780.3
96079.6,35847
96080.6,35919.4
96080.8,35978.2
96080.9,36240.7
95910.9,36240.7
95910.9,35957.5
95910.7,35867.5
95909.9,35795.2
95908.4,35738.3
95906.3,35694.4
95903.2,35661.4
95899.2,35636.9
95896.1,35624.6
95870.6,35570.2
95830.9,35529.6
95777.6,35503.1
95711.3,35491.3
95689.9,35490.7
95625.9,35494.8
95574.7,35508.5
95530.6,35534
95499.2,35561.7
95477.8,35584.1
95460.7,35606.1
95447.4,35630.1
95437.5,35658.5
95430.3,35694
95425.6,35738.9
95422.7,35795.8
95421.3,35867.2
95420.9,35955.5
95420.9,35977.5
95420.9,36240.7
95250.9,36240.7
95250.9,35350.7
95420.9,35350.7
95420.9,35452.2
95453.3,35419.9
95487.3,35390.1
95523,35369.1
95564.8,35355.6
95616.9,35348.3
95683.7,35345.8
95696.1,35345.7
Z" /> 
<path style="fill:#000000; fill-opacity:1.0; 
stroke:#000000; stroke-width:3.93701; stroke-opacity:1; 
stroke-linecap:round; stroke-linejoin:round;fill-rule:evenodd;"
d="M 24574.6,35314.5
24611.6,35315.9
24639.4,35319.5
24663.1,35326.1
24688.2,35336.6
24709.5,35346.9
24776.9,35389.6
24829.3,35444.4
24867.7,35512.4
24892.6,35594.6
24897.1,35619.2
24899.9,35647.2
24902.5,35691.5
24904.7,35748.8
24906.3,35815.5
24907.3,35887.9
24907.6,35946.7
24907.7,36209.2
24737.7,36209.2
24737.7,35926
24737.4,35836
24736.7,35763.7
24735.2,35706.8
24733,35662.9
24730,35629.9
24726,35605.4
24722.9,35593.1
24697.4,35538.7
24657.7,35498.1
24604.4,35471.6
24538.1,35459.8
24516.7,35459.2
24452.7,35463.3
24401.5,35477
24357.4,35502.5
24325.9,35530.2
24304.6,35552.7
24287.5,35574.6
24274.2,35598.6
24264.2,35627
24257.1,35662.5
24252.4,35707.4
24249.5,35764.3
24248.1,35835.7
24247.7,35924
24247.7,35946
24247.7,36209.2
24077.7,36209.2
24077.7,35319.2
24247.7,35319.2
24247.7,35420.8
24280.1,35388.4
24314.1,35358.6
24349.8,35337.6
24391.5,35324.1
24443.6,35316.8
24510.4,35314.3
24522.9,35314.2
Z" /> 
<path style="fill:#000000; fill-opacity:1.0; 
stroke:#000000; stroke-width:3.93701; stroke-opacity:1; 
stroke-linecap:round; stroke-linejoin:round;fill-rule:evenodd;"
d="M 23920.2,35305.3
23977.7,35311.8
23977.7,35457.8
23925.2,35452.4
23852.7,35454.4
23786,35474.8
23727.5,35512.2
23679.6,35565.4
23660.4,35597.6
23627.7,35661
23627.7,36209.2
23457.7,36209.2
23457.7,35318.4
23540.2,35321.3
23622.7,35324.2
23632.7,35411.6
23652.7,35389.3
23699.2,35351.3
23759,35323.3
23827.2,35306.9
23899,35303.6
Z" /> 
<path style="fill:#000000; fill-opacity:1.0; 
stroke:#000000; stroke-width:3.93701; stroke-opacity:1; 
stroke-linecap:round; stroke-linejoin:round;fill-rule:evenodd;"
d="M 25571.5,35318.3
25659,35344.4
25737.1,35385.9
25804,35441.3
25858.1,35508.9
25897.8,35587.1
25921.4,35674.3
25927.7,35751.3
25927.7,35809.2
25177.7,35809.2
25177.7,35838
25186.7,35886.5
25211.7,35936.7
25249.5,35984.4
25296.9,36025.3
25332,36046.6
25385.5,36066.8
25448.8,36076.6
25453.9,36077
25525.6,36076
25586.1,36061.5
25640.4,36031.7
25685.5,35992.7
25739,35939.2
25819,35939.2
25858.6,35939.5
25881.9,35941
25892.7,35944.9
25894.7,35952.4
25892.4,35961.7
25877.3,35995.4
25851.8,36035.9
25820.4,36076.6
25787.8,36111.3
25775.9,36121.7
25697.6,36172.7
25610,36208
25516.8,36226.6
25421.9,36227.8
25338.7,36213.4
25251.7,36180.3
25175,36131.5
25110.6,36069.1
25060.4,35995.1
25026.4,35911.5
25018.8,35881.2
25006.8,35782.8
25012.2,35688.4
25017,35669.2
25178.2,35669.2
25462.9,35669.2
25546.6,35669.1
25612.4,35668.7
25662.4,35667.9
25698.6,35666.6
25723.1,35664.7
25738.1,35662
25745.6,35658.4
25747.7,35653.9
25747.7,35653.8
25739.7,35621.6
25718.1,35583.9
25686.9,35545.6
25649.7,35511.1
25610.4,35485.2
25609.2,35484.6
25554.5,35465.9
25489.9,35457.5
25422.6,35459.4
25360,35471.7
25323.8,35485.8
25266.2,35525.8
25219.3,35581.4
25187.7,35644.1
25178.2,35669.2
25017,35669.2
25034.2,35600.3
25071.9,35520.3
25124.4,35450.6
25191,35393.2
25235.4,35366.4
25312,35333.4
25389.7,35314.9
25476.1,35309.2
Z" /> 
<path style="fill:#000000; fill-opacity:1.0; 
stroke:#000000; stroke-width:3.93701; stroke-opacity:1; 
stroke-linecap:round; stroke-linejoin:round;fill-rule:evenodd;"
d="M 22897.6,35311.7
22997.4,35325.6
23087.2,35355.8
23165.8,35401.5
23232,35461.9
23284.6,35536.1
23310,35589.2
23322.4,35634.1
23330.4,35692.3
23333.9,35757.3
23332.7,35823
23326.8,35882.9
23316.1,35930.8
23314.9,35934.2
23277,36011.9
23222.2,36081.3
23152.6,36140.5
23070.6,36187.2
23041.1,36199.5
22989.1,36213.8
22924.9,36223
22855.8,36226.9
22789,36225.1
22731.7,36217.2
22718.8,36214
22634.6,36181.7
22557.9,36135.1
22492.2,36077
22440.8,36010.2
22420.7,35972.8
22405.6,35932.3
22392.2,35883.4
22384.3,35842.8
22381.4,35787.1
22548.5,35787.1
22554.1,35845.2
22562,35877.2
22583,35921.6
22614.6,35967.1
22651.6,36007
22688.7,36034.8
22691.3,36036.2
22768.8,36066.2
22849.5,36078.1
22929.6,36071.7
22973.9,36059.6
23043.7,36025.3
23100.6,35976.6
23142.8,35915.1
23144.5,35911.6
23165.4,35850.2
23174,35780.4
23170.3,35709.8
23154.2,35645.8
23149.3,35634.2
23111,35571.6
23060.7,35522.5
23001.4,35486.9
22935.9,35464.8
22867.2,35456.5
22798.1,35461.8
22731.5,35480.9
22670.4,35513.9
22617.7,35560.8
22576.4,35621.3
22560,35667.6
22550.6,35725.4
22548.5,35787.1
22381.4,35787.1
22379.2,35745.4
22392,35653
22421.6,35567.7
22467.1,35491.5
22527.4,35426.3
22601.7,35374
22619.1,35364.9
22687.7,35335.5
22755.1,35317.8
22828.3,35310.7
Z" /> 
<path style="fill:#000000; fill-opacity:1.0; 
stroke:#000000; stroke-width:3.93701; stroke-opacity:1; 
stroke-linecap:round; stroke-linejoin:round;fill-rule:evenodd;"
d="M 21959.5,35317.3
22004.6,35327.6
22091.7,35363.2
22167,35413
22228.8,35475.2
22275.1,35548.1
22288.8,35579.6
22302.2,35616.4
22306.7,35639.7
22299.9,35652.5
22279.2,35657.9
22241.9,35659.2
22223.5,35659.2
22139.2,35659.2
22127.1,35622.3
22100.8,35572.8
22058.9,35528.9
22005.3,35493.3
21944,35468.4
21879.2,35456.9
21862.7,35456.4
21790.9,35465.3
21723.8,35490.6
21665,35530
21617.7,35580.9
21585.5,35641.2
21583,35648.1
21569.8,35710.6
21567.5,35779.7
21575.7,35848.2
21593.7,35908.8
21602.8,35927.8
21644.5,35987.1
21697.6,36031.2
21755.6,36059.4
21825.9,36076.3
21896.6,36076.3
21964.2,36060.5
22025.5,36030.4
22077.2,35987.3
22115.8,35932.3
22124.3,35913.9
22142.7,35869.3
22225.2,35869.2
22265.6,35869.5
22290.1,35871.1
22302.6,35875.2
22307.1,35882.9
22307.7,35892.9
22301.6,35922.4
22285.2,35961.7
22261.6,36005.6
22233.6,36048.8
22204.3,36086.2
22189,36102
22118.2,36155.2
22036,36194.8
21946.7,36219.7
21854.7,36228.4
21777.7,36222.3
21701.6,36202.3
21627.7,36169.6
21560.9,36127.1
21506.1,36077.7
21479.7,36044.2
21447.7,35991.3
21425.7,35942.1
21412.1,35890.6
21405.2,35830.9
21403.5,35764.2
21404.1,35708.7
21406.3,35667.8
21410.9,35635.9
21418.6,35607.7
21426.3,35586.7
21467.9,35508.1
21525.5,35438.6
21596,35381.2
21676.4,35339
21677.7,35338.5
21739.1,35321.2
21811.5,35311.8
21887.5,35310.4
Z" /> 
</g>
<g style="fill:#000000; fill-opacity:0.0; 
stroke:#000000; stroke-width:3.93701; stroke-opacity:1; 
stroke-linecap:round; stroke-linejoin:round;">
</g>
<g style="fill:#000000; fill-opacity:0.0; 
stroke:#000000; stroke-width:59.0551; stroke-opacity:1; 
stroke-linecap:round; stroke-linejoin:round;">
<text x="64546.3" y="29787.4"
textLength="1545.04" font-size="524.934" lengthAdjust="spacingAndGlyphs"
text-anchor="middle" opacity="0">OLED</text>
<path d="M63974 29374
L64049 29374
L64086 29393
L64124 29431
L64143 29506
L64143 29637
L64124 29712
L64086 29749
L64049 29768
L63974 29768
L63936 29749
L63899 29712
L63880 29637
L63880 29506
L63899 29431
L63936 29393
L63974 29374
" />
<path d="M64499 29768
L64311 29768
L64311 29374
" />
<path d="M64630 29562
L64761 29562
" />
<path d="M64818 29768
L64630 29768
L64630 29374
L64818 29374
" />
<path d="M64986 29768
L64986 29374
L65080 29374
L65136 29393
L65174 29431
L65193 29468
L65211 29543
L65211 29599
L65193 29674
L65174 29712
L65136 29749
L65080 29768
L64986 29768
" />
<text x="53911.2" y="29678.7"
textLength="1557.84" font-size="524.934" lengthAdjust="spacingAndGlyphs"
text-anchor="middle" opacity="0">OLED</text>
<path d="M53339 29266
L53414 29266
L53451 29285
L53489 29322
L53508 29397
L53508 29528
L53489 29603
L53451 29641
L53414 29659
L53339 29659
L53301 29641
L53264 29603
L53245 29528
L53245 29397
L53264 29322
L53301 29285
L53339 29266
" />
<path d="M53864 29659
L53676 29659
L53676 29266
" />
<path d="M53995 29453
L54126 29453
" />
<path d="M54183 29659
L53995 29659
L53995 29266
L54183 29266
" />
<path d="M54351 29659
L54351 29266
L54445 29266
L54501 29285
L54539 29322
L54558 29360
L54576 29435
L54576 29491
L54558 29566
L54539 29603
L54501 29641
L54445 29659
L54351 29659
" />
<g transform="rotate(-90 63408.6 33588.8)">
<text x="63408.6" y="33785.6"
textLength="1539.09" font-size="524.934" lengthAdjust="spacingAndGlyphs"
text-anchor="middle" opacity="0">TRRS</text>
</g>
<path d="M63193 34282
L63193 34057
" />
<path d="M63586 34169
L63193 34169
" />
<path d="M63586 33701
L63399 33832
" />
<path d="M63586 33926
L63193 33926
L63193 33776
L63211 33738
L63230 33719
L63267 33701
L63324 33701
L63361 33719
L63380 33738
L63399 33776
L63399 33926
" />
<path d="M63586 33307
L63399 33438
" />
<path d="M63586 33532
L63193 33532
L63193 33382
L63211 33345
L63230 33326
L63267 33307
L63324 33307
L63361 33326
L63380 33345
L63399 33382
L63399 33532
" />
<path d="M63567 33157
L63586 33101
L63586 33007
L63567 32970
L63549 32951
L63511 32932
L63474 32932
L63436 32951
L63417 32970
L63399 33007
L63380 33082
L63361 33120
L63342 33138
L63305 33157
L63267 33157
L63230 33138
L63211 33120
L63193 33082
L63193 32988
L63211 32932
" />
<g transform="rotate(-90 55025.4 32945.7)">
<text x="55025.4" y="33142.5"
textLength="1539.09" font-size="524.934" lengthAdjust="spacingAndGlyphs"
text-anchor="middle" opacity="0">TRRS</text>
</g>
<path d="M54809 33639
L54809 33414
" />
<path d="M55203 33526
L54809 33526
" />
<path d="M55203 33058
L55016 33189
" />
<path d="M55203 33283
L54809 33283
L54809 33133
L54828 33095
L54847 33076
L54884 33058
L54941 33058
L54978 33076
L54997 33095
L55016 33133
L55016 33283
" />
<path d="M55203 32664
L55016 32795
" />
<path d="M55203 32889
L54809 32889
L54809 32739
L54828 32701
L54847 32683
L54884 32664
L54941 32664
L54978 32683
L54997 32701
L55016 32739
L55016 32889
" />
<path d="M55184 32514
L55203 32458
L55203 32364
L55184 32326
L55166 32308
L55128 32289
L55091 32289
L55053 32308
L55034 32326
L55016 32364
L54997 32439
L54978 32476
L54959 32495
L54922 32514
L54884 32514
L54847 32495
L54828 32476
L54809 32439
L54809 32345
L54828 32289
" />
<g transform="rotate(-90 61564.9 30243.1)">
<text x="61564.9" y="30439.9"
textLength="1857.8" font-size="524.934" lengthAdjust="spacingAndGlyphs"
text-anchor="middle" opacity="0">RESET</text>
</g>
<path d="M61743 30814
L61555 30946
" />
<path d="M61743 31039
L61349 31039
L61349 30889
L61368 30852
L61386 30833
L61424 30814
L61480 30814
L61518 30833
L61536 30852
L61555 30889
L61555 31039
" />
<path d="M61536 30646
L61536 30514
" />
<path d="M61743 30458
L61743 30646
L61349 30646
L61349 30458
" />
<path d="M61724 30308
L61743 30252
L61743 30158
L61724 30121
L61705 30102
L61668 30083
L61630 30083
L61593 30102
L61574 30121
L61555 30158
L61536 30233
L61518 30271
L61499 30289
L61461 30308
L61424 30308
L61386 30289
L61368 30271
L61349 30233
L61349 30139
L61368 30083
" />
<path d="M61536 29914
L61536 29783
" />
<path d="M61743 29727
L61743 29914
L61349 29914
L61349 29727
" />
<path d="M61349 29615
L61349 29390
" />
<path d="M61743 29502
L61349 29502
" />
<g transform="rotate(-90 56891.5 30185.4)">
<text x="56891.5" y="30382.3"
textLength="1857.8" font-size="524.934" lengthAdjust="spacingAndGlyphs"
text-anchor="middle" opacity="0">RESET</text>
</g>
<path d="M57069 30757
L56882 30888
" />
<path d="M57069 30982
L56675 30982
L56675 30832
L56694 30794
L56713 30775
L56750 30757
L56807 30757
L56844 30775
L56863 30794
L56882 30832
L56882 30982
" />
<path d="M56863 30588
L56863 30457
" />
<path d="M57069 30401
L57069 30588
L56675 30588
L56675 30401
" />
<path d="M57050 30251
L57069 30194
L57069 30101
L57050 30063
L57032 30044
L56994 30026
L56957 30026
L56919 30044
L56900 30063
L56882 30101
L56863 30176
L56844 30213
L56825 30232
L56788 30251
L56750 30251
L56713 30232
L56694 30213
L56675 30176
L56675 30082
L56694 30026
" />
<path d="M56863 29857
L56863 29726
" />
<path d="M57069 29669
L57069 29857
L56675 29857
L56675 29669
" />
<path d="M56675 29557
L56675 29332
" />
<path d="M57069 29444
L56675 29444
" />
</g>
<g style="fill:#000000; fill-opacity:0.0; 
stroke:#000000; stroke-width:49.2126; stroke-opacity:1; 
stroke-linecap:round; stroke-linejoin:round;">
<text x="62625.1" y="16756.5"
textLength="868.11" font-size="351.706" lengthAdjust="spacingAndGlyphs"
text-anchor="middle" opacity="0">RAW</text>
<path d="M62443 16742
L62355 16601
" />
<path d="M62292 16742
L62292 16447
L62392 16447
L62417 16461
L62430 16475
L62443 16503
L62443 16545
L62430 16573
L62417 16587
L62392 16601
L62292 16601
" />
<path d="M62543 16658
L62669 16658
" />
<path d="M62518 16742
L62606 16447
L62694 16742
" />
<path d="M62757 16447
L62819 16742
L62870 16531
L62920 16742
L62983 16447
" />
<text x="62625.1" y="17760.4"
textLength="867.876" font-size="351.706" lengthAdjust="spacingAndGlyphs"
text-anchor="middle" opacity="0">GND</text>
<path d="M62424 17465
L62399 17451
L62361 17451
L62323 17465
L62298 17493
L62285 17521
L62273 17577
L62273 17619
L62285 17676
L62298 17704
L62323 17732
L62361 17746
L62386 17746
L62424 17732
L62436 17718
L62436 17619
L62386 17619
" />
<path d="M62549 17746
L62549 17451
L62700 17746
L62700 17451
" />
<path d="M62826 17746
L62826 17451
L62888 17451
L62926 17465
L62951 17493
L62964 17521
L62976 17577
L62976 17619
L62964 17676
L62951 17704
L62926 17732
L62888 17746
L62826 17746
" />
<text x="62625.1" y="18764.3"
textLength="779.949" font-size="351.706" lengthAdjust="spacingAndGlyphs"
text-anchor="middle" opacity="0">RST</text>
<path d="M62480 18750
L62392 18609
" />
<path d="M62329 18750
L62329 18455
L62430 18455
L62455 18469
L62468 18483
L62480 18511
L62480 18553
L62468 18581
L62455 18595
L62430 18609
L62329 18609
" />
<path d="M62581 18736
L62618 18750
L62681 18750
L62706 18736
L62719 18722
L62731 18694
L62731 18665
L62719 18637
L62706 18623
L62681 18609
L62631 18595
L62606 18581
L62593 18567
L62581 18539
L62581 18511
L62593 18483
L62606 18469
L62631 18455
L62694 18455
L62731 18469
" />
<path d="M62807 18455
L62958 18455
" />
<path d="M62882 18750
L62882 18455
" />
<text x="62625.1" y="19728.9"
textLength="817.632" font-size="351.706" lengthAdjust="spacingAndGlyphs"
text-anchor="middle" opacity="0">VCC</text>
<path d="M62273 19419
L62361 19714
L62449 19419
" />
<path d="M62687 19686
L62675 19700
L62637 19714
L62612 19714
L62574 19700
L62549 19672
L62537 19644
L62524 19588
L62524 19546
L62537 19489
L62549 19461
L62574 19433
L62612 19419
L62637 19419
L62675 19433
L62687 19447
" />
<path d="M62951 19686
L62939 19700
L62901 19714
L62876 19714
L62838 19700
L62813 19672
L62800 19644
L62788 19588
L62788 19546
L62800 19489
L62813 19461
L62838 19433
L62876 19419
L62901 19419
L62939 19433
L62951 19447
" />
<text x="62861.4" y="20791.9"
textLength="1294.95" font-size="351.706" lengthAdjust="spacingAndGlyphs"
text-anchor="middle" opacity="0">A3/F4</text>
<path d="M62296 20693
L62421 20693
" />
<path d="M62270 20777
L62358 20482
L62446 20777
" />
<path d="M62509 20482
L62672 20482
L62585 20595
L62622 20595
L62647 20609
L62660 20623
L62672 20651
L62672 20721
L62660 20749
L62647 20763
L62622 20777
L62547 20777
L62522 20763
L62509 20749
" />
<path d="M62974 20468
L62748 20848
" />
<path d="M63150 20623
L63062 20623
" />
<path d="M63062 20777
L63062 20482
L63187 20482
" />
<path d="M63401 20580
L63401 20777
" />
<path d="M63338 20468
L63275 20679
L63439 20679
" />
<text x="62861.4" y="21776.2"
textLength="1294.95" font-size="351.706" lengthAdjust="spacingAndGlyphs"
text-anchor="middle" opacity="0">A2/F5</text>
<path d="M62296 21677
L62421 21677
" />
<path d="M62270 21762
L62358 21466
L62446 21762
" />
<path d="M62522 21494
L62534 21480
L62559 21466
L62622 21466
L62647 21480
L62660 21494
L62672 21523
L62672 21551
L62660 21593
L62509 21762
L62672 21762
" />
<path d="M62974 21452
L62748 21832
" />
<path d="M63150 21607
L63062 21607
" />
<path d="M63062 21762
L63062 21466
L63187 21466
" />
<path d="M63414 21466
L63288 21466
L63275 21607
L63288 21593
L63313 21579
L63376 21579
L63401 21593
L63414 21607
L63426 21635
L63426 21705
L63414 21733
L63401 21748
L63376 21762
L63313 21762
L63288 21748
L63275 21733
" />
<text x="62861.4" y="22760.4"
textLength="1294.95" font-size="351.706" lengthAdjust="spacingAndGlyphs"
text-anchor="middle" opacity="0">A1/F6</text>
<path d="M62296 22661
L62421 22661
" />
<path d="M62270 22746
L62358 22451
L62446 22746
" />
<path d="M62672 22746
L62522 22746
" />
<path d="M62597 22746
L62597 22451
L62572 22493
L62547 22521
L62522 22535
" />
<path d="M62974 22437
L62748 22816
" />
<path d="M63150 22591
L63062 22591
" />
<path d="M63062 22746
L63062 22451
L63187 22451
" />
<path d="M63401 22451
L63351 22451
L63326 22465
L63313 22479
L63288 22521
L63275 22577
L63275 22690
L63288 22718
L63300 22732
L63326 22746
L63376 22746
L63401 22732
L63414 22718
L63426 22690
L63426 22619
L63414 22591
L63401 22577
L63376 22563
L63326 22563
L63300 22577
L63288 22591
L63275 22619
" />
<text x="62861.4" y="23764.3"
textLength="1294.95" font-size="351.706" lengthAdjust="spacingAndGlyphs"
text-anchor="middle" opacity="0">A0/F7</text>
<path d="M62296 23665
L62421 23665
" />
<path d="M62270 23750
L62358 23455
L62446 23750
" />
<path d="M62585 23455
L62610 23455
L62635 23469
L62647 23483
L62660 23511
L62672 23567
L62672 23637
L62660 23694
L62647 23722
L62635 23736
L62610 23750
L62585 23750
L62559 23736
L62547 23722
L62534 23694
L62522 23637
L62522 23567
L62534 23511
L62547 23483
L62559 23469
L62585 23455
" />
<path d="M62974 23440
L62748 23820
" />
<path d="M63150 23595
L63062 23595
" />
<path d="M63062 23750
L63062 23455
L63187 23455
" />
<path d="M63263 23455
L63439 23455
L63326 23750
" />
<text x="62861.4" y="24768.3"
textLength="1357.75" font-size="351.706" lengthAdjust="spacingAndGlyphs"
text-anchor="middle" opacity="0">15/B1</text>
<path d="M62415 24754
L62264 24754
" />
<path d="M62340 24754
L62340 24458
L62314 24501
L62289 24529
L62264 24543
" />
<path d="M62654 24458
L62528 24458
L62515 24599
L62528 24585
L62553 24571
L62616 24571
L62641 24585
L62654 24599
L62666 24627
L62666 24697
L62654 24726
L62641 24740
L62616 24754
L62553 24754
L62528 24740
L62515 24726
" />
<path d="M62968 24444
L62742 24824
" />
<path d="M63143 24599
L63181 24613
L63194 24627
L63206 24655
L63206 24697
L63194 24726
L63181 24740
L63156 24754
L63056 24754
L63056 24458
L63143 24458
L63169 24473
L63181 24487
L63194 24515
L63194 24543
L63181 24571
L63169 24585
L63143 24599
L63056 24599
" />
<path d="M63458 24754
L63307 24754
" />
<path d="M63382 24754
L63382 24458
L63357 24501
L63332 24529
L63307 24543
" />
<text x="62861.4" y="25772.2"
textLength="1357.75" font-size="351.706" lengthAdjust="spacingAndGlyphs"
text-anchor="middle" opacity="0">14/B3</text>
<path d="M62415 25758
L62264 25758
" />
<path d="M62340 25758
L62340 25462
L62314 25505
L62289 25533
L62264 25547
" />
<path d="M62641 25561
L62641 25758
" />
<path d="M62578 25448
L62515 25659
L62679 25659
" />
<path d="M62968 25448
L62742 25828
" />
<path d="M63143 25603
L63181 25617
L63194 25631
L63206 25659
L63206 25701
L63194 25730
L63181 25744
L63156 25758
L63056 25758
L63056 25462
L63143 25462
L63169 25476
L63181 25491
L63194 25519
L63194 25547
L63181 25575
L63169 25589
L63143 25603
L63056 25603
" />
<path d="M63294 25462
L63458 25462
L63370 25575
L63407 25575
L63432 25589
L63445 25603
L63458 25631
L63458 25701
L63445 25730
L63432 25744
L63407 25758
L63332 25758
L63307 25744
L63294 25730
" />
<text x="62861.4" y="27760.4"
textLength="1357.75" font-size="351.706" lengthAdjust="spacingAndGlyphs"
text-anchor="middle" opacity="0">10/B6</text>
<path d="M62415 27746
L62264 27746
" />
<path d="M62340 27746
L62340 27451
L62314 27493
L62289 27521
L62264 27535
" />
<path d="M62578 27451
L62603 27451
L62628 27465
L62641 27479
L62654 27507
L62666 27563
L62666 27633
L62654 27690
L62641 27718
L62628 27732
L62603 27746
L62578 27746
L62553 27732
L62541 27718
L62528 27690
L62515 27633
L62515 27563
L62528 27507
L62541 27479
L62553 27465
L62578 27451
" />
<path d="M62968 27437
L62742 27816
" />
<path d="M63143 27591
L63181 27605
L63194 27619
L63206 27647
L63206 27690
L63194 27718
L63181 27732
L63156 27746
L63056 27746
L63056 27451
L63143 27451
L63169 27465
L63181 27479
L63194 27507
L63194 27535
L63181 27563
L63169 27577
L63143 27591
L63056 27591
" />
<path d="M63432 27451
L63382 27451
L63357 27465
L63344 27479
L63319 27521
L63307 27577
L63307 27690
L63319 27718
L63332 27732
L63357 27746
L63407 27746
L63432 27732
L63445 27718
L63458 27690
L63458 27619
L63445 27591
L63432 27577
L63407 27563
L63357 27563
L63332 27577
L63319 27591
L63307 27619
" />
<text x="62861.4" y="26776.2"
textLength="1357.75" font-size="351.706" lengthAdjust="spacingAndGlyphs"
text-anchor="middle" opacity="0">16/B2</text>
<path d="M62415 26762
L62264 26762
" />
<path d="M62340 26762
L62340 26466
L62314 26509
L62289 26537
L62264 26551
" />
<path d="M62641 26466
L62591 26466
L62566 26480
L62553 26494
L62528 26537
L62515 26593
L62515 26705
L62528 26733
L62541 26748
L62566 26762
L62616 26762
L62641 26748
L62654 26733
L62666 26705
L62666 26635
L62654 26607
L62641 26593
L62616 26579
L62566 26579
L62541 26593
L62528 26607
L62515 26635
" />
<path d="M62968 26452
L62742 26832
" />
<path d="M63143 26607
L63181 26621
L63194 26635
L63206 26663
L63206 26705
L63194 26733
L63181 26748
L63156 26762
L63056 26762
L63056 26466
L63143 26466
L63169 26480
L63181 26494
L63194 26523
L63194 26551
L63181 26579
L63169 26593
L63143 26607
L63056 26607
" />
<path d="M63307 26494
L63319 26480
L63344 26466
L63407 26466
L63432 26480
L63445 26494
L63458 26523
L63458 26551
L63445 26593
L63294 26762
L63458 26762
" />
<text x="66444" y="25713.2"
textLength="1081.41" font-size="351.706" lengthAdjust="spacingAndGlyphs"
text-anchor="middle" opacity="0">E6/7</text>
<path d="M65998 25544
L66086 25544
" />
<path d="M66123 25699
L65998 25699
L65998 25403
L66123 25403
" />
<path d="M66349 25403
L66299 25403
L66274 25417
L66261 25431
L66236 25474
L66224 25530
L66224 25642
L66236 25670
L66249 25685
L66274 25699
L66324 25699
L66349 25685
L66362 25670
L66374 25642
L66374 25572
L66362 25544
L66349 25530
L66324 25516
L66274 25516
L66249 25530
L66236 25544
L66224 25572
" />
<path d="M66676 25389
L66450 25769
" />
<path d="M66739 25403
L66915 25403
L66802 25699
" />
<text x="66444" y="24709.2"
textLength="1106.53" font-size="351.706" lengthAdjust="spacingAndGlyphs"
text-anchor="middle" opacity="0">D7/6</text>
<path d="M65985 24695
L65985 24399
L66048 24399
L66086 24413
L66111 24442
L66123 24470
L66136 24526
L66136 24568
L66123 24624
L66111 24652
L66086 24681
L66048 24695
L65985 24695
" />
<path d="M66224 24399
L66400 24399
L66287 24695
" />
<path d="M66688 24385
L66462 24765
" />
<path d="M66889 24399
L66839 24399
L66814 24413
L66802 24428
L66776 24470
L66764 24526
L66764 24638
L66776 24667
L66789 24681
L66814 24695
L66864 24695
L66889 24681
L66902 24667
L66915 24638
L66915 24568
L66902 24540
L66889 24526
L66864 24512
L66814 24512
L66789 24526
L66776 24540
L66764 24568
" />
<text x="66542.5" y="18784"
textLength="867.876" font-size="351.706" lengthAdjust="spacingAndGlyphs"
text-anchor="middle" opacity="0">GND</text>
<path d="M66341 18488
L66316 18474
L66278 18474
L66240 18488
L66215 18516
L66203 18544
L66190 18601
L66190 18643
L66203 18699
L66215 18727
L66240 18755
L66278 18769
L66303 18769
L66341 18755
L66354 18741
L66354 18643
L66303 18643
" />
<path d="M66467 18769
L66467 18474
L66617 18769
L66617 18474
" />
<path d="M66743 18769
L66743 18474
L66806 18474
L66843 18488
L66869 18516
L66881 18544
L66894 18601
L66894 18643
L66881 18699
L66869 18727
L66843 18755
L66806 18769
L66743 18769
" />
<text x="66542.5" y="19748.6"
textLength="867.876" font-size="351.706" lengthAdjust="spacingAndGlyphs"
text-anchor="middle" opacity="0">GND</text>
<path d="M66341 19453
L66316 19439
L66278 19439
L66240 19453
L66215 19481
L66203 19509
L66190 19565
L66190 19607
L66203 19664
L66215 19692
L66240 19720
L66278 19734
L66303 19734
L66341 19720
L66354 19706
L66354 19607
L66303 19607
" />
<path d="M66467 19734
L66467 19439
L66617 19734
L66617 19439
" />
<path d="M66743 19734
L66743 19439
L66806 19439
L66843 19453
L66869 19481
L66881 19509
L66894 19565
L66894 19607
L66881 19664
L66869 19692
L66843 19720
L66806 19734
L66743 19734
" />
<text x="66227.5" y="16776.2"
textLength="1558.73" font-size="351.706" lengthAdjust="spacingAndGlyphs"
text-anchor="middle" opacity="0">D3/TX0</text>
<path d="M65542 16762
L65542 16466
L65605 16466
L65643 16480
L65668 16509
L65681 16537
L65693 16593
L65693 16635
L65681 16691
L65668 16719
L65643 16748
L65605 16762
L65542 16762
" />
<path d="M65781 16466
L65944 16466
L65856 16579
L65894 16579
L65919 16593
L65932 16607
L65944 16635
L65944 16705
L65932 16733
L65919 16748
L65894 16762
L65819 16762
L65794 16748
L65781 16733
" />
<path d="M66246 16452
L66020 16832
" />
<path d="M66296 16466
L66447 16466
" />
<path d="M66371 16762
L66371 16466
" />
<path d="M66510 16466
L66685 16762
" />
<path d="M66685 16466
L66510 16762
" />
<path d="M66836 16466
L66861 16466
L66886 16480
L66899 16494
L66912 16523
L66924 16579
L66924 16649
L66912 16705
L66899 16733
L66886 16748
L66861 16762
L66836 16762
L66811 16748
L66799 16733
L66786 16705
L66773 16649
L66773 16579
L66786 16523
L66799 16494
L66811 16480
L66836 16466
" />
<text x="66444" y="22701.4"
textLength="1106.53" font-size="351.706" lengthAdjust="spacingAndGlyphs"
text-anchor="middle" opacity="0">D4/4</text>
<path d="M65985 22687
L65985 22392
L66048 22392
L66086 22406
L66111 22434
L66123 22462
L66136 22518
L66136 22560
L66123 22616
L66111 22645
L66086 22673
L66048 22687
L65985 22687
" />
<path d="M66362 22490
L66362 22687
" />
<path d="M66299 22377
L66236 22588
L66400 22588
" />
<path d="M66688 22377
L66462 22757
" />
<path d="M66889 22490
L66889 22687
" />
<path d="M66827 22377
L66764 22588
L66927 22588
" />
<text x="65951.9" y="20732.8"
textLength="2123.97" font-size="351.706" lengthAdjust="spacingAndGlyphs"
text-anchor="middle" opacity="0">SDA/D1/2</text>
<path d="M64972 20704
L65009 20718
L65072 20718
L65097 20704
L65110 20690
L65122 20662
L65122 20634
L65110 20606
L65097 20592
L65072 20578
L65022 20564
L64997 20550
L64984 20535
L64972 20507
L64972 20479
L64984 20451
L64997 20437
L65022 20423
L65085 20423
L65122 20437
" />
<path d="M65235 20718
L65235 20423
L65298 20423
L65336 20437
L65361 20465
L65374 20493
L65386 20550
L65386 20592
L65374 20648
L65361 20676
L65336 20704
L65298 20718
L65235 20718
" />
<path d="M65487 20634
L65612 20634
" />
<path d="M65462 20718
L65549 20423
L65637 20718
" />
<path d="M65914 20409
L65688 20789
" />
<path d="M66002 20718
L66002 20423
L66064 20423
L66102 20437
L66127 20465
L66140 20493
L66152 20550
L66152 20592
L66140 20648
L66127 20676
L66102 20704
L66064 20718
L66002 20718
" />
<path d="M66404 20718
L66253 20718
" />
<path d="M66328 20718
L66328 20423
L66303 20465
L66278 20493
L66253 20507
" />
<path d="M66705 20409
L66479 20789
" />
<path d="M66780 20451
L66793 20437
L66818 20423
L66881 20423
L66906 20437
L66919 20451
L66931 20479
L66931 20507
L66919 20550
L66768 20718
L66931 20718
" />
<text x="65951.9" y="21717.1"
textLength="2111.41" font-size="351.706" lengthAdjust="spacingAndGlyphs"
text-anchor="middle" opacity="0">SCL/D0/3</text>
<path d="M64978 21688
L65016 21703
L65078 21703
L65104 21688
L65116 21674
L65129 21646
L65129 21618
L65116 21590
L65104 21576
L65078 21562
L65028 21548
L65003 21534
L64990 21520
L64978 21492
L64978 21464
L64990 21435
L65003 21421
L65028 21407
L65091 21407
L65129 21421
" />
<path d="M65392 21674
L65380 21688
L65342 21703
L65317 21703
L65279 21688
L65254 21660
L65242 21632
L65229 21576
L65229 21534
L65242 21478
L65254 21449
L65279 21421
L65317 21407
L65342 21407
L65380 21421
L65392 21435
" />
<path d="M65631 21703
L65505 21703
L65505 21407
" />
<path d="M65907 21393
L65681 21773
" />
<path d="M65995 21703
L65995 21407
L66058 21407
L66096 21421
L66121 21449
L66134 21478
L66146 21534
L66146 21576
L66134 21632
L66121 21660
L66096 21688
L66058 21703
L65995 21703
" />
<path d="M66309 21407
L66335 21407
L66360 21421
L66372 21435
L66385 21464
L66397 21520
L66397 21590
L66385 21646
L66372 21674
L66360 21688
L66335 21703
L66309 21703
L66284 21688
L66272 21674
L66259 21646
L66247 21590
L66247 21520
L66259 21464
L66272 21435
L66284 21421
L66309 21407
" />
<path d="M66699 21393
L66473 21773
" />
<path d="M66762 21407
L66925 21407
L66837 21520
L66875 21520
L66900 21534
L66912 21548
L66925 21576
L66925 21646
L66912 21674
L66900 21688
L66875 21703
L66799 21703
L66774 21688
L66762 21674
" />
<text x="66444" y="23705.3"
textLength="1106.53" font-size="351.706" lengthAdjust="spacingAndGlyphs"
text-anchor="middle" opacity="0">C6/5</text>
<path d="M66136 23663
L66123 23677
L66086 23691
L66060 23691
L66023 23677
L65998 23649
L65985 23620
L65972 23564
L65972 23522
L65985 23466
L65998 23438
L66023 23410
L66060 23395
L66086 23395
L66123 23410
L66136 23424
" />
<path d="M66362 23395
L66312 23395
L66287 23410
L66274 23424
L66249 23466
L66236 23522
L66236 23634
L66249 23663
L66261 23677
L66287 23691
L66337 23691
L66362 23677
L66374 23663
L66387 23634
L66387 23564
L66374 23536
L66362 23522
L66337 23508
L66287 23508
L66261 23522
L66249 23536
L66236 23564
" />
<path d="M66688 23381
L66462 23761
" />
<path d="M66902 23395
L66776 23395
L66764 23536
L66776 23522
L66802 23508
L66864 23508
L66889 23522
L66902 23536
L66915 23564
L66915 23634
L66902 23663
L66889 23677
L66864 23691
L66802 23691
L66776 23677
L66764 23663
" />
<text x="66444" y="27701.4"
textLength="1106.53" font-size="351.706" lengthAdjust="spacingAndGlyphs"
text-anchor="middle" opacity="0">B5/9</text>
<path d="M66073 27532
L66111 27546
L66123 27560
L66136 27588
L66136 27631
L66123 27659
L66111 27673
L66086 27687
L65985 27687
L65985 27392
L66073 27392
L66098 27406
L66111 27420
L66123 27448
L66123 27476
L66111 27504
L66098 27518
L66073 27532
L65985 27532
" />
<path d="M66374 27392
L66249 27392
L66236 27532
L66249 27518
L66274 27504
L66337 27504
L66362 27518
L66374 27532
L66387 27560
L66387 27631
L66374 27659
L66362 27673
L66337 27687
L66274 27687
L66249 27673
L66236 27659
" />
<path d="M66688 27377
L66462 27757
" />
<path d="M66789 27687
L66839 27687
L66864 27673
L66877 27659
L66902 27616
L66915 27560
L66915 27448
L66902 27420
L66889 27406
L66864 27392
L66814 27392
L66789 27406
L66776 27420
L66764 27448
L66764 27518
L66776 27546
L66789 27560
L66814 27574
L66864 27574
L66889 27560
L66902 27546
L66915 27518
" />
<text x="66227.5" y="17780.1"
textLength="1621.53" font-size="351.706" lengthAdjust="spacingAndGlyphs"
text-anchor="middle" opacity="0">D2/RX1</text>
<path d="M65511 17766
L65511 17470
L65574 17470
L65612 17484
L65637 17512
L65649 17541
L65662 17597
L65662 17639
L65649 17695
L65637 17723
L65612 17751
L65574 17766
L65511 17766
" />
<path d="M65762 17498
L65775 17484
L65800 17470
L65863 17470
L65888 17484
L65900 17498
L65913 17526
L65913 17555
L65900 17597
L65750 17766
L65913 17766
" />
<path d="M66214 17456
L65988 17836
" />
<path d="M66453 17766
L66365 17625
" />
<path d="M66302 17766
L66302 17470
L66403 17470
L66428 17484
L66441 17498
L66453 17526
L66453 17569
L66441 17597
L66428 17611
L66403 17625
L66302 17625
" />
<path d="M66541 17470
L66717 17766
" />
<path d="M66717 17470
L66541 17766
" />
<path d="M66956 17766
L66805 17766
" />
<path d="M66880 17766
L66880 17470
L66855 17512
L66830 17541
L66805 17555
" />
<text x="66444" y="26717.1"
textLength="1106.53" font-size="351.706" lengthAdjust="spacingAndGlyphs"
text-anchor="middle" opacity="0">B4/8</text>
<path d="M66073 26548
L66111 26562
L66123 26576
L66136 26604
L66136 26646
L66123 26674
L66111 26688
L66086 26703
L65985 26703
L65985 26407
L66073 26407
L66098 26421
L66111 26435
L66123 26464
L66123 26492
L66111 26520
L66098 26534
L66073 26548
L65985 26548
" />
<path d="M66362 26506
L66362 26703
" />
<path d="M66299 26393
L66236 26604
L66400 26604
" />
<path d="M66688 26393
L66462 26773
" />
<path d="M66814 26534
L66789 26520
L66776 26506
L66764 26478
L66764 26464
L66776 26435
L66789 26421
L66814 26407
L66864 26407
L66889 26421
L66902 26435
L66915 26464
L66915 26478
L66902 26506
L66889 26520
L66864 26534
L66814 26534
L66789 26548
L66776 26562
L66764 26590
L66764 26646
L66776 26674
L66789 26688
L66814 26703
L66864 26703
L66889 26688
L66902 26674
L66915 26646
L66915 26590
L66902 26562
L66889 26548
L66864 26534
" />
</g>
<g style="fill:#000000; fill-opacity:0.0; 
stroke:#000000; stroke-width:47.2441; stroke-opacity:1; 
stroke-linecap:round; stroke-linejoin:round;">
<text x="64572" y="15004.5"
textLength="2130.91" font-size="393.701" lengthAdjust="spacingAndGlyphs"
text-anchor="middle" opacity="0">MicroUSB</text>
<path d="M63608 14990
L63608 14695
L63707 14906
L63805 14695
L63805 14990
" />
<path d="M63946 14990
L63946 14793
" />
<path d="M63946 14695
L63932 14709
L63946 14723
L63960 14709
L63946 14695
L63946 14723
" />
<path d="M64213 14976
L64185 14990
L64129 14990
L64100 14976
L64086 14962
L64072 14934
L64072 14849
L64086 14821
L64100 14807
L64129 14793
L64185 14793
L64213 14807
" />
<path d="M64339 14990
L64339 14793
" />
<path d="M64339 14849
L64354 14821
L64368 14807
L64396 14793
L64424 14793
" />
<path d="M64564 14990
L64536 14976
L64522 14962
L64508 14934
L64508 14849
L64522 14821
L64536 14807
L64564 14793
L64607 14793
L64635 14807
L64649 14821
L64663 14849
L64663 14934
L64649 14962
L64635 14976
L64607 14990
L64564 14990
" />
<path d="M64789 14695
L64789 14934
L64803 14962
L64818 14976
L64846 14990
L64902 14990
L64930 14976
L64944 14962
L64958 14934
L64958 14695
" />
<path d="M65085 14976
L65127 14990
L65197 14990
L65225 14976
L65239 14962
L65253 14934
L65253 14906
L65239 14877
L65225 14863
L65197 14849
L65141 14835
L65113 14821
L65099 14807
L65085 14779
L65085 14751
L65099 14723
L65113 14709
L65141 14695
L65211 14695
L65253 14709
" />
<path d="M65478 14835
L65521 14849
L65535 14863
L65549 14892
L65549 14934
L65535 14962
L65521 14976
L65492 14990
L65380 14990
L65380 14695
L65478 14695
L65507 14709
L65521 14723
L65535 14751
L65535 14779
L65521 14807
L65507 14821
L65478 14835
L65380 14835
" />
<text x="64572" y="15004.5"
textLength="2128.35" font-size="393.701" lengthAdjust="spacingAndGlyphs"
text-anchor="middle" opacity="0">MicroUSB</text>
<path d="M63608 14990
L63608 14695
L63707 14906
L63805 14695
L63805 14990
" />
<path d="M63946 14990
L63946 14793
" />
<path d="M63946 14695
L63932 14709
L63946 14723
L63960 14709
L63946 14695
L63946 14723
" />
<path d="M64213 14976
L64185 14990
L64129 14990
L64100 14976
L64086 14962
L64072 14934
L64072 14849
L64086 14821
L64100 14807
L64129 14793
L64185 14793
L64213 14807
" />
<path d="M64339 14990
L64339 14793
" />
<path d="M64339 14849
L64354 14821
L64368 14807
L64396 14793
L64424 14793
" />
<path d="M64564 14990
L64536 14976
L64522 14962
L64508 14934
L64508 14849
L64522 14821
L64536 14807
L64564 14793
L64607 14793
L64635 14807
L64649 14821
L64663 14849
L64663 14934
L64649 14962
L64635 14976
L64607 14990
L64564 14990
" />
<path d="M64789 14695
L64789 14934
L64803 14962
L64818 14976
L64846 14990
L64902 14990
L64930 14976
L64944 14962
L64958 14934
L64958 14695
" />
<path d="M65085 14976
L65127 14990
L65197 14990
L65225 14976
L65239 14962
L65253 14934
L65253 14906
L65239 14877
L65225 14863
L65197 14849
L65141 14835
L65113 14821
L65099 14807
L65085 14779
L65085 14751
L65099 14723
L65113 14709
L65141 14695
L65211 14695
L65253 14709
" />
<path d="M65478 14835
L65521 14849
L65535 14863
L65549 14892
L65549 14934
L65535 14962
L65521 14976
L65492 14990
L65380 14990
L65380 14695
L65478 14695
L65507 14709
L65521 14723
L65535 14751
L65535 14779
L65521 14807
L65507 14821
L65478 14835
L65380 14835
" />
</g>
<g style="fill:#000000; fill-opacity:0.0; 
stroke:#000000; stroke-width:49.2126; stroke-opacity:1; 
stroke-linecap:round; stroke-linejoin:round;">
<text x="51928.1" y="16706.7"
textLength="852.756" font-size="351.706" lengthAdjust="spacingAndGlyphs"
text-anchor="middle" opacity="0">RAW</text>
<path d="M51746 16692
L51658 16552
" />
<path d="M51595 16692
L51595 16397
L51695 16397
L51720 16411
L51733 16425
L51746 16453
L51746 16495
L51733 16523
L51720 16537
L51695 16552
L51595 16552
" />
<path d="M51846 16608
L51972 16608
" />
<path d="M51821 16692
L51909 16397
L51997 16692
" />
<path d="M52060 16397
L52122 16692
L52173 16481
L52223 16692
L52286 16397
" />
<text x="51928.1" y="17710.6"
textLength="867.876" font-size="351.706" lengthAdjust="spacingAndGlyphs"
text-anchor="middle" opacity="0">GND</text>
<path d="M51727 17415
L51702 17401
L51664 17401
L51626 17415
L51601 17443
L51589 17471
L51576 17527
L51576 17570
L51589 17626
L51601 17654
L51626 17682
L51664 17696
L51689 17696
L51727 17682
L51739 17668
L51739 17570
L51689 17570
" />
<path d="M51852 17696
L51852 17401
L52003 17696
L52003 17401
" />
<path d="M52129 17696
L52129 17401
L52191 17401
L52229 17415
L52254 17443
L52267 17471
L52279 17527
L52279 17570
L52267 17626
L52254 17654
L52229 17682
L52191 17696
L52129 17696
" />
<text x="51928.1" y="18714.6"
textLength="779.949" font-size="351.706" lengthAdjust="spacingAndGlyphs"
text-anchor="middle" opacity="0">RST</text>
<path d="M51783 18700
L51695 18559
" />
<path d="M51632 18700
L51632 18405
L51733 18405
L51758 18419
L51771 18433
L51783 18461
L51783 18503
L51771 18531
L51758 18545
L51733 18559
L51632 18559
" />
<path d="M51884 18686
L51921 18700
L51984 18700
L52009 18686
L52022 18672
L52034 18644
L52034 18616
L52022 18588
L52009 18573
L51984 18559
L51934 18545
L51909 18531
L51896 18517
L51884 18489
L51884 18461
L51896 18433
L51909 18419
L51934 18405
L51997 18405
L52034 18419
" />
<path d="M52110 18405
L52261 18405
" />
<path d="M52185 18700
L52185 18405
" />
<text x="51928.1" y="19679.1"
textLength="817.632" font-size="351.706" lengthAdjust="spacingAndGlyphs"
text-anchor="middle" opacity="0">VCC</text>
<path d="M51576 19369
L51664 19665
L51752 19369
" />
<path d="M51990 19636
L51978 19651
L51940 19665
L51915 19665
L51877 19651
L51852 19622
L51840 19594
L51827 19538
L51827 19496
L51840 19440
L51852 19411
L51877 19383
L51915 19369
L51940 19369
L51978 19383
L51990 19397
" />
<path d="M52254 19636
L52242 19651
L52204 19665
L52179 19665
L52141 19651
L52116 19622
L52104 19594
L52091 19538
L52091 19496
L52104 19440
L52116 19411
L52141 19383
L52179 19369
L52204 19369
L52242 19383
L52254 19397
" />
<text x="52164.4" y="20742.1"
textLength="1294.95" font-size="351.706" lengthAdjust="spacingAndGlyphs"
text-anchor="middle" opacity="0">A3/F4</text>
<path d="M51599 20643
L51724 20643
" />
<path d="M51574 20728
L51661 20432
L51749 20728
" />
<path d="M51812 20432
L51975 20432
L51888 20545
L51925 20545
L51950 20559
L51963 20573
L51975 20601
L51975 20671
L51963 20699
L51950 20714
L51925 20728
L51850 20728
L51825 20714
L51812 20699
" />
<path d="M52277 20418
L52051 20798
" />
<path d="M52453 20573
L52365 20573
" />
<path d="M52365 20728
L52365 20432
L52490 20432
" />
<path d="M52704 20531
L52704 20728
" />
<path d="M52641 20418
L52578 20629
L52742 20629
" />
<text x="52164.4" y="21726.4"
textLength="1294.95" font-size="351.706" lengthAdjust="spacingAndGlyphs"
text-anchor="middle" opacity="0">A2/F5</text>
<path d="M51599 21627
L51724 21627
" />
<path d="M51574 21712
L51661 21417
L51749 21712
" />
<path d="M51825 21445
L51837 21431
L51862 21417
L51925 21417
L51950 21431
L51963 21445
L51975 21473
L51975 21501
L51963 21543
L51812 21712
L51975 21712
" />
<path d="M52277 21402
L52051 21782
" />
<path d="M52453 21557
L52365 21557
" />
<path d="M52365 21712
L52365 21417
L52490 21417
" />
<path d="M52717 21417
L52591 21417
L52578 21557
L52591 21543
L52616 21529
L52679 21529
L52704 21543
L52717 21557
L52729 21585
L52729 21656
L52717 21684
L52704 21698
L52679 21712
L52616 21712
L52591 21698
L52578 21684
" />
<text x="52164.4" y="22710.6"
textLength="1294.95" font-size="351.706" lengthAdjust="spacingAndGlyphs"
text-anchor="middle" opacity="0">A1/F6</text>
<path d="M51599 22612
L51724 22612
" />
<path d="M51574 22696
L51661 22401
L51749 22696
" />
<path d="M51975 22696
L51825 22696
" />
<path d="M51900 22696
L51900 22401
L51875 22443
L51850 22471
L51825 22485
" />
<path d="M52277 22387
L52051 22766
" />
<path d="M52453 22541
L52365 22541
" />
<path d="M52365 22696
L52365 22401
L52490 22401
" />
<path d="M52704 22401
L52654 22401
L52629 22415
L52616 22429
L52591 22471
L52578 22527
L52578 22640
L52591 22668
L52604 22682
L52629 22696
L52679 22696
L52704 22682
L52717 22668
L52729 22640
L52729 22570
L52717 22541
L52704 22527
L52679 22513
L52629 22513
L52604 22527
L52591 22541
L52578 22570
" />
<text x="52164.4" y="23714.6"
textLength="1294.95" font-size="351.706" lengthAdjust="spacingAndGlyphs"
text-anchor="middle" opacity="0">A0/F7</text>
<path d="M51599 23616
L51724 23616
" />
<path d="M51574 23700
L51661 23405
L51749 23700
" />
<path d="M51888 23405
L51913 23405
L51938 23419
L51950 23433
L51963 23461
L51975 23517
L51975 23588
L51963 23644
L51950 23672
L51938 23686
L51913 23700
L51888 23700
L51862 23686
L51850 23672
L51837 23644
L51825 23588
L51825 23517
L51837 23461
L51850 23433
L51862 23419
L51888 23405
" />
<path d="M52277 23391
L52051 23770
" />
<path d="M52453 23545
L52365 23545
" />
<path d="M52365 23700
L52365 23405
L52490 23405
" />
<path d="M52566 23405
L52742 23405
L52629 23700
" />
<text x="52164.4" y="24718.5"
textLength="1357.75" font-size="351.706" lengthAdjust="spacingAndGlyphs"
text-anchor="middle" opacity="0">15/B1</text>
<path d="M51718 24704
L51567 24704
" />
<path d="M51643 24704
L51643 24409
L51617 24451
L51592 24479
L51567 24493
" />
<path d="M51957 24409
L51831 24409
L51818 24549
L51831 24535
L51856 24521
L51919 24521
L51944 24535
L51957 24549
L51969 24577
L51969 24648
L51957 24676
L51944 24690
L51919 24704
L51856 24704
L51831 24690
L51818 24676
" />
<path d="M52271 24395
L52045 24774
" />
<path d="M52446 24549
L52484 24563
L52497 24577
L52509 24606
L52509 24648
L52497 24676
L52484 24690
L52459 24704
L52359 24704
L52359 24409
L52446 24409
L52472 24423
L52484 24437
L52497 24465
L52497 24493
L52484 24521
L52472 24535
L52446 24549
L52359 24549
" />
<path d="M52761 24704
L52610 24704
" />
<path d="M52685 24704
L52685 24409
L52660 24451
L52635 24479
L52610 24493
" />
<text x="52164.4" y="25722.4"
textLength="1357.75" font-size="351.706" lengthAdjust="spacingAndGlyphs"
text-anchor="middle" opacity="0">14/B3</text>
<path d="M51718 25708
L51567 25708
" />
<path d="M51643 25708
L51643 25413
L51617 25455
L51592 25483
L51567 25497
" />
<path d="M51944 25511
L51944 25708
" />
<path d="M51881 25399
L51818 25609
L51982 25609
" />
<path d="M52271 25399
L52045 25778
" />
<path d="M52446 25553
L52484 25567
L52497 25581
L52509 25609
L52509 25652
L52497 25680
L52484 25694
L52459 25708
L52359 25708
L52359 25413
L52446 25413
L52472 25427
L52484 25441
L52497 25469
L52497 25497
L52484 25525
L52472 25539
L52446 25553
L52359 25553
" />
<path d="M52597 25413
L52761 25413
L52673 25525
L52710 25525
L52735 25539
L52748 25553
L52761 25581
L52761 25652
L52748 25680
L52735 25694
L52710 25708
L52635 25708
L52610 25694
L52597 25680
" />
<text x="52164.4" y="27710.6"
textLength="1357.75" font-size="351.706" lengthAdjust="spacingAndGlyphs"
text-anchor="middle" opacity="0">10/B6</text>
<path d="M51718 27696
L51567 27696
" />
<path d="M51643 27696
L51643 27401
L51617 27443
L51592 27471
L51567 27485
" />
<path d="M51881 27401
L51906 27401
L51931 27415
L51944 27429
L51957 27457
L51969 27513
L51969 27584
L51957 27640
L51944 27668
L51931 27682
L51906 27696
L51881 27696
L51856 27682
L51844 27668
L51831 27640
L51818 27584
L51818 27513
L51831 27457
L51844 27429
L51856 27415
L51881 27401
" />
<path d="M52271 27387
L52045 27766
" />
<path d="M52446 27541
L52484 27555
L52497 27570
L52509 27598
L52509 27640
L52497 27668
L52484 27682
L52459 27696
L52359 27696
L52359 27401
L52446 27401
L52472 27415
L52484 27429
L52497 27457
L52497 27485
L52484 27513
L52472 27527
L52446 27541
L52359 27541
" />
<path d="M52735 27401
L52685 27401
L52660 27415
L52647 27429
L52622 27471
L52610 27527
L52610 27640
L52622 27668
L52635 27682
L52660 27696
L52710 27696
L52735 27682
L52748 27668
L52761 27640
L52761 27570
L52748 27541
L52735 27527
L52710 27513
L52660 27513
L52635 27527
L52622 27541
L52610 27570
" />
<text x="52164.4" y="26726.4"
textLength="1357.75" font-size="351.706" lengthAdjust="spacingAndGlyphs"
text-anchor="middle" opacity="0">16/B2</text>
<path d="M51718 26712
L51567 26712
" />
<path d="M51643 26712
L51643 26417
L51617 26459
L51592 26487
L51567 26501
" />
<path d="M51944 26417
L51894 26417
L51869 26431
L51856 26445
L51831 26487
L51818 26543
L51818 26656
L51831 26684
L51844 26698
L51869 26712
L51919 26712
L51944 26698
L51957 26684
L51969 26656
L51969 26585
L51957 26557
L51944 26543
L51919 26529
L51869 26529
L51844 26543
L51831 26557
L51818 26585
" />
<path d="M52271 26402
L52045 26782
" />
<path d="M52446 26557
L52484 26571
L52497 26585
L52509 26613
L52509 26656
L52497 26684
L52484 26698
L52459 26712
L52359 26712
L52359 26417
L52446 26417
L52472 26431
L52484 26445
L52497 26473
L52497 26501
L52484 26529
L52472 26543
L52446 26557
L52359 26557
" />
<path d="M52610 26445
L52622 26431
L52647 26417
L52710 26417
L52735 26431
L52748 26445
L52761 26473
L52761 26501
L52748 26543
L52597 26712
L52761 26712
" />
<text x="55747" y="25663.4"
textLength="1081.41" font-size="351.706" lengthAdjust="spacingAndGlyphs"
text-anchor="middle" opacity="0">E6/7</text>
<path d="M55301 25494
L55389 25494
" />
<path d="M55426 25649
L55301 25649
L55301 25354
L55426 25354
" />
<path d="M55652 25354
L55602 25354
L55577 25368
L55564 25382
L55539 25424
L55527 25480
L55527 25593
L55539 25621
L55552 25635
L55577 25649
L55627 25649
L55652 25635
L55665 25621
L55677 25593
L55677 25522
L55665 25494
L55652 25480
L55627 25466
L55577 25466
L55552 25480
L55539 25494
L55527 25522
" />
<path d="M55979 25339
L55753 25719
" />
<path d="M56042 25354
L56218 25354
L56105 25649
" />
<text x="55747" y="24659.4"
textLength="1106.53" font-size="351.706" lengthAdjust="spacingAndGlyphs"
text-anchor="middle" opacity="0">D7/6</text>
<path d="M55288 24645
L55288 24350
L55351 24350
L55389 24364
L55414 24392
L55426 24420
L55439 24476
L55439 24518
L55426 24575
L55414 24603
L55389 24631
L55351 24645
L55288 24645
" />
<path d="M55527 24350
L55703 24350
L55590 24645
" />
<path d="M55991 24336
L55765 24715
" />
<path d="M56192 24350
L56142 24350
L56117 24364
L56105 24378
L56079 24420
L56067 24476
L56067 24589
L56079 24617
L56092 24631
L56117 24645
L56167 24645
L56192 24631
L56205 24617
L56218 24589
L56218 24518
L56205 24490
L56192 24476
L56167 24462
L56117 24462
L56092 24476
L56079 24490
L56067 24518
" />
<text x="55845.5" y="18734.3"
textLength="867.876" font-size="351.706" lengthAdjust="spacingAndGlyphs"
text-anchor="middle" opacity="0">GND</text>
<path d="M55644 18438
L55619 18424
L55581 18424
L55544 18438
L55518 18467
L55506 18495
L55493 18551
L55493 18593
L55506 18649
L55518 18678
L55544 18706
L55581 18720
L55606 18720
L55644 18706
L55657 18692
L55657 18593
L55606 18593
" />
<path d="M55770 18720
L55770 18424
L55920 18720
L55920 18424
" />
<path d="M56046 18720
L56046 18424
L56109 18424
L56146 18438
L56172 18467
L56184 18495
L56197 18551
L56197 18593
L56184 18649
L56172 18678
L56146 18706
L56109 18720
L56046 18720
" />
<text x="55845.5" y="19698.8"
textLength="867.876" font-size="351.706" lengthAdjust="spacingAndGlyphs"
text-anchor="middle" opacity="0">GND</text>
<path d="M55644 19403
L55619 19389
L55581 19389
L55544 19403
L55518 19431
L55506 19459
L55493 19516
L55493 19558
L55506 19614
L55518 19642
L55544 19670
L55581 19684
L55606 19684
L55644 19670
L55657 19656
L55657 19558
L55606 19558
" />
<path d="M55770 19684
L55770 19389
L55920 19684
L55920 19389
" />
<path d="M56046 19684
L56046 19389
L56109 19389
L56146 19403
L56172 19431
L56184 19459
L56197 19516
L56197 19558
L56184 19614
L56172 19642
L56146 19670
L56109 19684
L56046 19684
" />
<text x="55530.5" y="16726.4"
textLength="1558.73" font-size="351.706" lengthAdjust="spacingAndGlyphs"
text-anchor="middle" opacity="0">D3/TX0</text>
<path d="M54845 16712
L54845 16417
L54908 16417
L54946 16431
L54971 16459
L54984 16487
L54996 16543
L54996 16585
L54984 16642
L54971 16670
L54946 16698
L54908 16712
L54845 16712
" />
<path d="M55084 16417
L55247 16417
L55159 16529
L55197 16529
L55222 16543
L55235 16557
L55247 16585
L55247 16656
L55235 16684
L55222 16698
L55197 16712
L55122 16712
L55097 16698
L55084 16684
" />
<path d="M55549 16402
L55323 16782
" />
<path d="M55599 16417
L55750 16417
" />
<path d="M55674 16712
L55674 16417
" />
<path d="M55813 16417
L55988 16712
" />
<path d="M55988 16417
L55813 16712
" />
<path d="M56139 16417
L56164 16417
L56189 16431
L56202 16445
L56215 16473
L56227 16529
L56227 16599
L56215 16656
L56202 16684
L56189 16698
L56164 16712
L56139 16712
L56114 16698
L56102 16684
L56089 16656
L56076 16599
L56076 16529
L56089 16473
L56102 16445
L56114 16431
L56139 16417
" />
<text x="55747" y="22651.6"
textLength="1106.53" font-size="351.706" lengthAdjust="spacingAndGlyphs"
text-anchor="middle" opacity="0">D4/4</text>
<path d="M55288 22637
L55288 22342
L55351 22342
L55389 22356
L55414 22384
L55426 22412
L55439 22468
L55439 22510
L55426 22567
L55414 22595
L55389 22623
L55351 22637
L55288 22637
" />
<path d="M55665 22440
L55665 22637
" />
<path d="M55602 22328
L55539 22539
L55703 22539
" />
<path d="M55991 22328
L55765 22707
" />
<path d="M56192 22440
L56192 22637
" />
<path d="M56130 22328
L56067 22539
L56230 22539
" />
<text x="55254.9" y="20683.1"
textLength="2123.97" font-size="351.706" lengthAdjust="spacingAndGlyphs"
text-anchor="middle" opacity="0">SDA/D1/2</text>
<path d="M54275 20654
L54312 20669
L54375 20669
L54400 20654
L54413 20640
L54425 20612
L54425 20584
L54413 20556
L54400 20542
L54375 20528
L54325 20514
L54300 20500
L54287 20486
L54275 20458
L54275 20429
L54287 20401
L54300 20387
L54325 20373
L54388 20373
L54425 20387
" />
<path d="M54538 20669
L54538 20373
L54601 20373
L54639 20387
L54664 20415
L54677 20444
L54689 20500
L54689 20542
L54677 20598
L54664 20626
L54639 20654
L54601 20669
L54538 20669
" />
<path d="M54790 20584
L54915 20584
" />
<path d="M54765 20669
L54852 20373
L54940 20669
" />
<path d="M55217 20359
L54991 20739
" />
<path d="M55305 20669
L55305 20373
L55367 20373
L55405 20387
L55430 20415
L55443 20444
L55455 20500
L55455 20542
L55443 20598
L55430 20626
L55405 20654
L55367 20669
L55305 20669
" />
<path d="M55707 20669
L55556 20669
" />
<path d="M55631 20669
L55631 20373
L55606 20415
L55581 20444
L55556 20458
" />
<path d="M56008 20359
L55782 20739
" />
<path d="M56083 20401
L56096 20387
L56121 20373
L56184 20373
L56209 20387
L56222 20401
L56234 20429
L56234 20458
L56222 20500
L56071 20669
L56234 20669
" />
<text x="55254.9" y="21667.3"
textLength="2111.41" font-size="351.706" lengthAdjust="spacingAndGlyphs"
text-anchor="middle" opacity="0">SCL/D0/3</text>
<path d="M54281 21639
L54319 21653
L54381 21653
L54407 21639
L54419 21625
L54432 21597
L54432 21568
L54419 21540
L54407 21526
L54381 21512
L54331 21498
L54306 21484
L54294 21470
L54281 21442
L54281 21414
L54294 21386
L54306 21372
L54331 21357
L54394 21357
L54432 21372
" />
<path d="M54695 21625
L54683 21639
L54645 21653
L54620 21653
L54582 21639
L54557 21611
L54545 21582
L54532 21526
L54532 21484
L54545 21428
L54557 21400
L54582 21372
L54620 21357
L54645 21357
L54683 21372
L54695 21386
" />
<path d="M54934 21653
L54809 21653
L54809 21357
" />
<path d="M55210 21343
L54984 21723
" />
<path d="M55298 21653
L55298 21357
L55361 21357
L55399 21372
L55424 21400
L55437 21428
L55449 21484
L55449 21526
L55437 21582
L55424 21611
L55399 21639
L55361 21653
L55298 21653
" />
<path d="M55612 21357
L55638 21357
L55663 21372
L55675 21386
L55688 21414
L55700 21470
L55700 21540
L55688 21597
L55675 21625
L55663 21639
L55638 21653
L55612 21653
L55587 21639
L55575 21625
L55562 21597
L55550 21540
L55550 21470
L55562 21414
L55575 21386
L55587 21372
L55612 21357
" />
<path d="M56002 21343
L55776 21723
" />
<path d="M56065 21357
L56228 21357
L56140 21470
L56178 21470
L56203 21484
L56215 21498
L56228 21526
L56228 21597
L56215 21625
L56203 21639
L56178 21653
L56102 21653
L56077 21639
L56065 21625
" />
<text x="55747" y="23655.5"
textLength="1106.53" font-size="351.706" lengthAdjust="spacingAndGlyphs"
text-anchor="middle" opacity="0">C6/5</text>
<path d="M55439 23613
L55426 23627
L55389 23641
L55363 23641
L55326 23627
L55301 23599
L55288 23571
L55276 23514
L55276 23472
L55288 23416
L55301 23388
L55326 23360
L55363 23346
L55389 23346
L55426 23360
L55439 23374
" />
<path d="M55665 23346
L55615 23346
L55590 23360
L55577 23374
L55552 23416
L55539 23472
L55539 23585
L55552 23613
L55564 23627
L55590 23641
L55640 23641
L55665 23627
L55677 23613
L55690 23585
L55690 23514
L55677 23486
L55665 23472
L55640 23458
L55590 23458
L55564 23472
L55552 23486
L55539 23514
" />
<path d="M55991 23332
L55765 23711
" />
<path d="M56205 23346
L56079 23346
L56067 23486
L56079 23472
L56105 23458
L56167 23458
L56192 23472
L56205 23486
L56218 23514
L56218 23585
L56205 23613
L56192 23627
L56167 23641
L56105 23641
L56079 23627
L56067 23613
" />
<text x="55747" y="27651.6"
textLength="1106.53" font-size="351.706" lengthAdjust="spacingAndGlyphs"
text-anchor="middle" opacity="0">B5/9</text>
<path d="M55376 27482
L55414 27496
L55426 27510
L55439 27539
L55439 27581
L55426 27609
L55414 27623
L55389 27637
L55288 27637
L55288 27342
L55376 27342
L55401 27356
L55414 27370
L55426 27398
L55426 27426
L55414 27454
L55401 27468
L55376 27482
L55288 27482
" />
<path d="M55677 27342
L55552 27342
L55539 27482
L55552 27468
L55577 27454
L55640 27454
L55665 27468
L55677 27482
L55690 27510
L55690 27581
L55677 27609
L55665 27623
L55640 27637
L55577 27637
L55552 27623
L55539 27609
" />
<path d="M55991 27328
L55765 27707
" />
<path d="M56092 27637
L56142 27637
L56167 27623
L56180 27609
L56205 27567
L56218 27510
L56218 27398
L56205 27370
L56192 27356
L56167 27342
L56117 27342
L56092 27356
L56079 27370
L56067 27398
L56067 27468
L56079 27496
L56092 27510
L56117 27525
L56167 27525
L56192 27510
L56205 27496
L56218 27468
" />
<text x="55530.5" y="17730.3"
textLength="1621.53" font-size="351.706" lengthAdjust="spacingAndGlyphs"
text-anchor="middle" opacity="0">D2/RX1</text>
<path d="M54814 17716
L54814 17420
L54877 17420
L54915 17435
L54940 17463
L54952 17491
L54965 17547
L54965 17589
L54952 17645
L54940 17674
L54915 17702
L54877 17716
L54814 17716
" />
<path d="M55065 17449
L55078 17435
L55103 17420
L55166 17420
L55191 17435
L55203 17449
L55216 17477
L55216 17505
L55203 17547
L55053 17716
L55216 17716
" />
<path d="M55517 17406
L55291 17786
" />
<path d="M55756 17716
L55668 17575
" />
<path d="M55605 17716
L55605 17420
L55706 17420
L55731 17435
L55744 17449
L55756 17477
L55756 17519
L55744 17547
L55731 17561
L55706 17575
L55605 17575
" />
<path d="M55844 17420
L56020 17716
" />
<path d="M56020 17420
L55844 17716
" />
<path d="M56259 17716
L56108 17716
" />
<path d="M56183 17716
L56183 17420
L56158 17463
L56133 17491
L56108 17505
" />
<text x="55747" y="26667.3"
textLength="1106.53" font-size="351.706" lengthAdjust="spacingAndGlyphs"
text-anchor="middle" opacity="0">B4/8</text>
<path d="M55376 26498
L55414 26512
L55426 26526
L55439 26554
L55439 26597
L55426 26625
L55414 26639
L55389 26653
L55288 26653
L55288 26357
L55376 26357
L55401 26372
L55414 26386
L55426 26414
L55426 26442
L55414 26470
L55401 26484
L55376 26498
L55288 26498
" />
<path d="M55665 26456
L55665 26653
" />
<path d="M55602 26343
L55539 26554
L55703 26554
" />
<path d="M55991 26343
L55765 26723
" />
<path d="M56117 26484
L56092 26470
L56079 26456
L56067 26428
L56067 26414
L56079 26386
L56092 26372
L56117 26357
L56167 26357
L56192 26372
L56205 26386
L56218 26414
L56218 26428
L56205 26456
L56192 26470
L56167 26484
L56117 26484
L56092 26498
L56079 26512
L56067 26540
L56067 26597
L56079 26625
L56092 26639
L56117 26653
L56167 26653
L56192 26639
L56205 26625
L56218 26597
L56218 26540
L56205 26512
L56192 26498
L56167 26484
" />
</g>
<g style="fill:#000000; fill-opacity:0.0; 
stroke:#000000; stroke-width:47.2441; stroke-opacity:1; 
stroke-linecap:round; stroke-linejoin:round;">
<text x="53875" y="14954.7"
textLength="2130.91" font-size="393.701" lengthAdjust="spacingAndGlyphs"
text-anchor="middle" opacity="0">MicroUSB</text>
<path d="M52911 14940
L52911 14645
L53010 14856
L53108 14645
L53108 14940
" />
<path d="M53249 14940
L53249 14743
" />
<path d="M53249 14645
L53235 14659
L53249 14673
L53263 14659
L53249 14645
L53249 14673
" />
<path d="M53516 14926
L53488 14940
L53432 14940
L53403 14926
L53389 14912
L53375 14884
L53375 14800
L53389 14771
L53403 14757
L53432 14743
L53488 14743
L53516 14757
" />
<path d="M53642 14940
L53642 14743
" />
<path d="M53642 14800
L53657 14771
L53671 14757
L53699 14743
L53727 14743
" />
<path d="M53867 14940
L53839 14926
L53825 14912
L53811 14884
L53811 14800
L53825 14771
L53839 14757
L53867 14743
L53910 14743
L53938 14757
L53952 14771
L53966 14800
L53966 14884
L53952 14912
L53938 14926
L53910 14940
L53867 14940
" />
<path d="M54092 14645
L54092 14884
L54107 14912
L54121 14926
L54149 14940
L54205 14940
L54233 14926
L54247 14912
L54261 14884
L54261 14645
" />
<path d="M54388 14926
L54430 14940
L54500 14940
L54528 14926
L54542 14912
L54556 14884
L54556 14856
L54542 14828
L54528 14814
L54500 14800
L54444 14785
L54416 14771
L54402 14757
L54388 14729
L54388 14701
L54402 14673
L54416 14659
L54444 14645
L54514 14645
L54556 14659
" />
<path d="M54781 14785
L54824 14800
L54838 14814
L54852 14842
L54852 14884
L54838 14912
L54824 14926
L54795 14940
L54683 14940
L54683 14645
L54781 14645
L54810 14659
L54824 14673
L54838 14701
L54838 14729
L54824 14757
L54810 14771
L54781 14785
L54683 14785
" />
<text x="53875" y="14954.7"
textLength="2128.35" font-size="393.701" lengthAdjust="spacingAndGlyphs"
text-anchor="middle" opacity="0">MicroUSB</text>
<path d="M52911 14940
L52911 14645
L53010 14856
L53108 14645
L53108 14940
" />
<path d="M53249 14940
L53249 14743
" />
<path d="M53249 14645
L53235 14659
L53249 14673
L53263 14659
L53249 14645
L53249 14673
" />
<path d="M53516 14926
L53488 14940
L53432 14940
L53403 14926
L53389 14912
L53375 14884
L53375 14800
L53389 14771
L53403 14757
L53432 14743
L53488 14743
L53516 14757
" />
<path d="M53642 14940
L53642 14743
" />
<path d="M53642 14800
L53657 14771
L53671 14757
L53699 14743
L53727 14743
" />
<path d="M53867 14940
L53839 14926
L53825 14912
L53811 14884
L53811 14800
L53825 14771
L53839 14757
L53867 14743
L53910 14743
L53938 14757
L53952 14771
L53966 14800
L53966 14884
L53952 14912
L53938 14926
L53910 14940
L53867 14940
" />
<path d="M54092 14645
L54092 14884
L54107 14912
L54121 14926
L54149 14940
L54205 14940
L54233 14926
L54247 14912
L54261 14884
L54261 14645
" />
<path d="M54388 14926
L54430 14940
L54500 14940
L54528 14926
L54542 14912
L54556 14884
L54556 14856
L54542 14828
L54528 14814
L54500 14800
L54444 14785
L54416 14771
L54402 14757
L54388 14729
L54388 14701
L54402 14673
L54416 14659
L54444 14645
L54514 14645
L54556 14659
" />
<path d="M54781 14785
L54824 14800
L54838 14814
L54852 14842
L54852 14884
L54838 14912
L54824 14926
L54795 14940
L54683 14940
L54683 14645
L54781 14645
L54810 14659
L54824 14673
L54838 14701
L54838 14729
L54824 14757
L54810 14771
L54781 14785
L54683 14785
" />
<g >
</g>
</g> 
</svg>
